M48
;Layer_Color=9474304
;FILE_FORMAT=4:4
METRIC,LZ
;TYPE=PLATED
T1F00S00C0.4000
T2F00S00C0.7620
T3F00S00C1.0400
%
T01
X00165826Y-00191008
X00183682Y-00180862
X00230886Y-00217678
X00252679Y-0011811
X002316Y-0006223
X00069342Y-003078
X0006096Y-003586
X-0002794Y-00257048
X-0003302Y-00232156
X-000635Y-00224028
X-00102888Y-00184983
X-00147574Y-00181864
X-00166234Y-00187452
X-00188214Y-00195624
X-0017653Y-00207518
X-00137922Y-00236376
X-00207544Y-00319024
X-00184658Y-00112522
X-002443Y-00070358
X-002697Y-00062182
X-00282448Y-0002667
X-002951Y-0006223
X-00353822Y-0003175
X-00345948Y0003175
X-00321437Y00030861
X-0031369Y00197104
X-00251206Y00101092
X-002316Y0006223
X-00244348Y0003175
X-00269748
X-001397Y0018288
X-0003302Y002159
X-0002794Y002413
Y002667
X-000635Y002794
Y003048
Y00254
X0003048
Y002794
X000254Y003302
X-000635Y0036068
X0006096Y0022098
X00211582Y00214593
X00237519Y00230632
X00175667Y00136849
X00244878Y00062182
X00269748Y0006223
X00282448Y0003175
X00257
X00226568
T02
X-0002159Y-0038227
X0001651
X0038354Y-0001524
Y0001778
X-0038608Y0001651
Y-0000889
X-0018796Y0033909
X-0016129Y0035433
X-0008128Y0034671
X-0007747Y0037084
X-0001016Y0038862
X0001143
X0007239Y0035433
X000762Y003302
T03
X00122783Y-0035306
X0014478Y-0034036
X0019431Y-0031242
X00216307Y-0029972
X00125149Y-00133875
X0014986Y-0010668
X0016332Y-0008514
X0012827Y-0007366
X0011811Y-0004191
Y-0001651
Y0001651
X0015621Y0001397
X0018161
Y-0001397
X0015621
X0015113Y-0004191
X0017653
X00355397Y-00118372
X0034671Y-0014224
X0010541Y-0014986
X00073398Y-00167843
X0004953Y-0017653
X000127Y-0018288
X-000127
X-0004953Y-0017653
X-00073398Y-00167843
X-00074523Y-0012065
X-0009652Y-0010795
X-0010287Y-0007366
X-0012827
X-0011811Y-0004191
Y-0001651
Y0001778
X-0008636Y000127
Y-000127
X-0005588Y-0001524
X-0003048
Y0001524
X-0005588
X0Y000127
Y-000127
X0003048Y-0001524
X0005588
Y0001524
X0003048
X0008636Y000127
Y-000127
X0007112Y-0004699
Y-0007239
X0004318Y-0007366
Y-0004826
X000127Y-0004699
X-000127
Y-0007874
X000127
X0Y-0011938
Y-0014478
X-0003683Y-0013589
Y-0011049
X-0004318Y-0007366
Y-0004826
X-0007112Y-0004699
Y-0007239
X-0016332Y-0008514
X-0014986Y-0010668
X-00125149Y-00133875
X-0010541Y-0014986
X-0015113Y-0004191
X-0017653
X-0018161Y-0001397
X-0015621
Y0001397
X-0018161
X0003683Y-0010922
Y-0013462
X0007452Y-0012065
X00096517Y-0010795
X0010287Y-0007366
X-00339352Y00097993
X-0036322Y0010668
X-00355338Y00138227
X-0033147Y0012954
X-0015037Y0010536
X-0016383Y0008382
X-0012827Y0007493
X-0010287
X-0007112Y0007239
Y0004699
X-0004318Y0004826
Y0007366
X-000127Y0007874
X000127
Y0004699
X-000127
X0004318Y0004826
Y0007366
X0007112Y0007239
Y0004699
X0010287Y0007493
X0009652Y0010922
X00074523Y0012192
X00073398Y00167843
X0004953Y0017653
X000127Y0018288
X-000127
X-0004953Y0017653
X-00073398Y00167843
X-0007452Y0012192
X-00096517Y0010922
X-0010541Y0014986
X-00125149Y00133875
X-0003683Y0013589
Y0011049
X-0000254Y0011938
Y0014478
X0003683Y0013589
Y0011049
X0010541Y0014896
X-0011811Y0004318
X-0015113Y0004191
X-0017653
X0011811
X0015113
X0017653
X0016383Y0008382
X0015037Y0010536
X0012827Y0007493
X00125149Y00132975
M30
