M48
;Layer_Color=9474304
;FILE_FORMAT=4:4
METRIC,LZ
;TYPE=PLATED
T1F00S00C0.4000
%
T01
X0024765Y-00181969
X00263678Y-00129286
X003078Y-0006223
X002951Y-0002667
X002443
X0003048Y-002443
X0006096Y-002824
X-00001016Y-0031288
X-00003858Y-003459
X-0003302Y-003078
X-00063548Y-00295148
X-000635Y-002697
X-00238807Y-00222758
X-0028067Y-00203454
X-003459Y-00062182
X-00331978Y0006223
X-0031369Y00197104
X-00294132Y00198877
X-00296674Y00209044
X-00244995Y00179974
X-00210566Y00162052
X-00202874Y00098552
X-0018038Y00110196
X-00241681Y00110108
X-0024765Y00240793
X-00064516Y002159
X00064008Y002032
X00080518Y002667
X00066802Y002921
X0003048Y003048
X00203708Y00243332
X00250444Y00145542
M30
