M48
;Layer_Color=9474304
;FILE_FORMAT=4:4
METRIC,LZ
;TYPE=PLATED
T1F00S00C0.4000
%
T01
X00139688Y-00181864
X0020828Y-00106934
X00257Y-0009271
X00269748Y-0003175
X002824Y-0000422
X003078Y00024844
X003205Y00017478
X00227315Y-00021844
X00208026Y-00037338
X00176276Y-0007366
X0006604Y-0022271
X0003048Y-0022398
X00068834Y-00257
X-00022558Y-002443
X-00074676Y-0018669
X-000635Y-003459
X-0000127Y-003586
X0002413Y-003332
X-00255016Y-00232664
X-00252222Y-00090932
X-002189Y-00068882
X-002189Y0001651
X-00257Y00004826
X-003078Y-00018956
X-003205Y-00006858
X-003078Y00076708
X-002951Y00119634
X-002824Y0006858
X-00257Y00089916
X-0020193Y00062992
X-00194681Y00198628
X-00230632Y00270764
X-00238675Y00290915
X-00253238Y0029972
X-00273304Y0027432
X-000635Y002286
Y003429
X-00005842Y0034671
X00104394Y00254508
X0009831Y00179903
X00115947Y00159004
X0011557Y00096012
X002189Y00075692
X0017018Y00187706
X00112522Y00243332
X00146237Y00315722
X00216916Y00258318
X00257966Y00270862
M30
