M48
;Layer_Color=9474304
;FILE_FORMAT=4:4
METRIC,LZ
;TYPE=PLATED
T1F00S00C0.7112
T2F00S00C0.7620
T3F00S00C0.8000
%
T01
X00345Y0007
X0038
X0037Y00085
X004Y00105
X00405Y00065
Y0017
Y00215
X004Y0024
X0038Y00235
X0044Y0024
X0047Y0018
X00595Y0013
X0058Y000295
X0034Y0014
X0032Y00159261
Y0024
X00175Y0017
X00225Y0009
X0024Y0004
T02
X0036Y0003
X006Y002
Y00225
X0027Y0022
X002Y0004
X0002
X0002Y00095
X0002Y0021
T03
X002473Y0018
X0026
X002727
M30
