M48
;Layer_Color=9474304
;FILE_FORMAT=2:4
INCH,TZ
;TYPE=PLATED
T1F00S00C0.0280
T2F00S00C0.0300
T3F00S00C0.0354
T4F00S00C0.0945
%
T01
X13780Y2362
X14567Y2953
X15157Y2362
X15748Y4134
X16535Y5709
X15354Y6693
X14764Y9055
X16535
X17717
X20079Y7677
X18898Y5709
X23228Y4528
X19882Y984
X10236Y1181
X8465Y3543
X8858Y7283
X6890Y6693
X11220Y7874
X12598Y6496
X13386Y6299
X12598Y9449
X1625Y8808
T02
X23425Y5709
X24606Y6299
T03
X14173Y984
X24409Y8858
X7874Y1575
X787
X787Y3740
X787Y8268
T04
X24213Y0
X1575Y197
X8858Y8858
M30
