G04*
G04 #@! TF.GenerationSoftware,Altium Limited,Altium Designer,23.1.1 (15)*
G04*
G04 Layer_Color=16711935*
%FSLAX44Y44*%
%MOMM*%
G71*
G04*
G04 #@! TF.SameCoordinates,36A7A826-306E-463F-8DB2-5D37948115DD*
G04*
G04*
G04 #@! TF.FilePolarity,Negative*
G04*
G01*
G75*
%ADD37C,1.7272*%
%ADD38C,1.2532*%
%ADD39R,1.2532X1.2532*%
%ADD40C,1.4732*%
D37*
X20000Y95000D02*
D03*
X360000Y30000D02*
D03*
X600000Y200000D02*
D03*
Y225000D02*
D03*
X200000Y40000D02*
D03*
X270000Y220000D02*
D03*
X20000Y40000D02*
D03*
Y210000D02*
D03*
D38*
X272700Y180000D02*
D03*
X260000D02*
D03*
D39*
X247300D02*
D03*
D40*
X340000Y140000D02*
D03*
X320000Y240000D02*
D03*
X400000D02*
D03*
X580000Y29500D02*
D03*
X405000Y65000D02*
D03*
X370000Y85000D02*
D03*
X595000Y130000D02*
D03*
X470000Y180000D02*
D03*
X405000Y215000D02*
D03*
X440000Y240000D02*
D03*
X380000Y235000D02*
D03*
X405000Y170000D02*
D03*
X380000Y70000D02*
D03*
X345000D02*
D03*
X225000Y90000D02*
D03*
X320000Y159261D02*
D03*
X400000Y105000D02*
D03*
X240000Y40000D02*
D03*
X175000Y170000D02*
D03*
M02*
