G04*
G04 #@! TF.GenerationSoftware,Altium Limited,Altium Designer,23.1.1 (15)*
G04*
G04 Layer_Physical_Order=2*
G04 Layer_Color=16711680*
%FSLAX44Y44*%
%MOMM*%
G71*
G04*
G04 #@! TF.SameCoordinates,36A7A826-306E-463F-8DB2-5D37948115DD*
G04*
G04*
G04 #@! TF.FilePolarity,Positive*
G04*
G01*
G75*
%ADD41C,0.2540*%
%ADD42C,1.5240*%
%ADD43C,1.0500*%
%ADD44R,1.0500X1.0500*%
%ADD45C,1.2700*%
D41*
X317251Y155000D02*
X320000D01*
X511488Y30000D02*
X580000D01*
X220000Y165000D02*
Y205000D01*
X235000Y220000D01*
X270000D01*
X410000Y135000D02*
Y163432D01*
X405000Y168432D02*
Y170000D01*
X370000Y85000D02*
Y95000D01*
X410000Y135000D01*
X405000Y168432D02*
X410000Y163432D01*
X341488Y110000D02*
X345000D01*
X340000Y111488D02*
X341488Y110000D01*
X345000D02*
X360000Y95000D01*
Y30000D02*
Y95000D01*
X340000Y111488D02*
Y139564D01*
X247300Y180000D02*
Y197300D01*
X171488Y155000D02*
X210000D01*
X220000Y165000D01*
X170000Y15000D02*
Y153512D01*
X171488Y155000D01*
X170000Y15000D02*
X175000Y10000D01*
X425000D01*
X410000Y230000D02*
Y235000D01*
X415000Y240000D02*
X440000D01*
X410000Y235000D02*
X415000Y240000D01*
X405000Y225000D02*
X410000Y230000D01*
X385000Y228432D02*
X388432D01*
X400000Y240000D01*
X505000Y23512D02*
X511488Y30000D01*
X505000Y11488D02*
Y23512D01*
X425000Y10000D02*
X503512D01*
X505000Y11488D01*
X405000Y30000D02*
X425000Y10000D01*
X405000Y30000D02*
Y65000D01*
X570000Y135000D02*
X575000Y130000D01*
X595000D01*
X485000Y135000D02*
X570000D01*
X470000Y150000D02*
X485000Y135000D01*
X470000Y150000D02*
Y180000D01*
X405000Y215000D02*
Y225000D01*
X382017Y205000D02*
X385000Y207983D01*
Y228432D01*
X336488Y205000D02*
X382017D01*
X372251Y240000D02*
X377251Y235000D01*
X380000D01*
X355000Y240000D02*
X372251D01*
X340000Y225000D02*
X355000Y240000D01*
X296488Y225000D02*
X340000D01*
X295000Y206488D02*
Y223512D01*
X296488Y225000D01*
X255000Y205000D02*
X293512D01*
X295000Y206488D01*
X247300Y197300D02*
X255000Y205000D01*
X335000Y203512D02*
X336488Y205000D01*
X335000Y201488D02*
Y203512D01*
X261488Y200000D02*
X333512D01*
X335000Y201488D01*
X260000Y180000D02*
Y198512D01*
X261488Y200000D01*
X380000Y70000D02*
X380240Y70240D01*
X390160D02*
X400000Y80080D01*
X380240Y70240D02*
X390160D01*
X338512Y30000D02*
X345000Y36488D01*
Y70000D01*
X240000Y115000D02*
Y140000D01*
X250000Y150000D01*
X225160Y90160D02*
Y100160D01*
X240000Y115000D01*
X225000Y90000D02*
X225160Y90160D01*
X200000Y240000D02*
X320000D01*
X175000Y215000D02*
X200000Y240000D01*
X312251Y150000D02*
X317251Y155000D01*
X250000Y150000D02*
X312251D01*
X400000Y80080D02*
Y105000D01*
X250000Y30000D02*
X338512D01*
X240000Y40000D02*
X250000Y30000D01*
X175000Y170000D02*
Y215000D01*
D42*
X20000Y95000D02*
D03*
X360000Y30000D02*
D03*
X600000Y200000D02*
D03*
Y225000D02*
D03*
X200000Y40000D02*
D03*
X270000Y220000D02*
D03*
X20000Y40000D02*
D03*
Y210000D02*
D03*
D43*
X272700Y180000D02*
D03*
X260000D02*
D03*
D44*
X247300D02*
D03*
D45*
X340000Y140000D02*
D03*
X320000Y240000D02*
D03*
X400000D02*
D03*
X580000Y29500D02*
D03*
X405000Y65000D02*
D03*
X370000Y85000D02*
D03*
X595000Y130000D02*
D03*
X470000Y180000D02*
D03*
X405000Y215000D02*
D03*
X440000Y240000D02*
D03*
X380000Y235000D02*
D03*
X405000Y170000D02*
D03*
X380000Y70000D02*
D03*
X345000D02*
D03*
X225000Y90000D02*
D03*
X320000Y159261D02*
D03*
X400000Y105000D02*
D03*
X240000Y40000D02*
D03*
X175000Y170000D02*
D03*
M02*
