G04*
G04 #@! TF.GenerationSoftware,Altium Limited,Altium Designer,23.1.1 (15)*
G04*
G04 Layer_Color=2752767*
%FSLAX25Y25*%
%MOIN*%
G70*
G04*
G04 #@! TF.SameCoordinates,E5AF2557-88D3-4AEC-9E31-4A92A601E51B*
G04*
G04*
G04 #@! TF.FilePolarity,Positive*
G04*
G01*
G75*
%ADD46C,0.00667*%
%ADD47C,0.00500*%
D46*
X9874Y37402D02*
G03*
X9874Y37402I-2000J0D01*
G01*
X143732Y11811D02*
G03*
X143732Y11811I-2000J0D01*
G01*
X238221Y78740D02*
G03*
X238221Y78740I-2000J0D01*
G01*
Y88583D02*
G03*
X238221Y88583I-2000J0D01*
G01*
X80740Y15748D02*
G03*
X80740Y15748I-2000J0D01*
G01*
X108299Y86614D02*
G03*
X108299Y86614I-2000J0D01*
G01*
X9874Y15748D02*
G03*
X9874Y15748I-2000J0D01*
G01*
Y82677D02*
G03*
X9874Y82677I-2000J0D01*
G01*
D47*
X105362Y68866D02*
Y72866D01*
X109362D01*
Y68866D01*
X105362D01*
X95362D02*
Y72866D01*
X99362D01*
Y68866D01*
X95362D01*
X100362D02*
Y72866D01*
X104362D01*
Y68866D01*
X100362D01*
X133858Y53118D02*
X131858Y57118D01*
X135858D01*
X133858Y53118D01*
X125984Y92488D02*
X123984Y96488D01*
X127984D01*
X125984Y92488D01*
X157480D02*
X155480Y96488D01*
X159480D01*
X157480Y92488D01*
X228346Y9614D02*
X226346Y13614D01*
X230346D01*
X228346Y9614D01*
X159449Y23591D02*
X157449Y27591D01*
X161449D01*
X159449Y23591D01*
X145669Y31465D02*
X143669Y35465D01*
X147669D01*
X145669Y31465D01*
X234252Y49181D02*
X232252Y53181D01*
X236252D01*
X234252Y49181D01*
X185039Y68866D02*
X183039Y72866D01*
X187039D01*
X185039Y68866D01*
X159449Y82646D02*
X157449Y86646D01*
X161449D01*
X159449Y82646D01*
X173228Y92488D02*
X171228Y96488D01*
X175228D01*
X173228Y92488D01*
X149606Y90520D02*
X147606Y94520D01*
X151606D01*
X149606Y90520D01*
X159449Y64929D02*
X157449Y68929D01*
X161449D01*
X159449Y64929D01*
X149606Y25559D02*
X147606Y29559D01*
X151606D01*
X149606Y25559D01*
X135827D02*
X133827Y29559D01*
X137827D01*
X135827Y25559D01*
X88583Y33433D02*
X86583Y37433D01*
X90583D01*
X88583Y33433D01*
X125984Y60701D02*
X123984Y64701D01*
X127984D01*
X125984Y60701D01*
X157480Y39339D02*
X155480Y43339D01*
X159480D01*
X157480Y39339D01*
X94488Y13748D02*
X92488Y17748D01*
X96488D01*
X94488Y13748D01*
X68898Y64929D02*
X66898Y68929D01*
X70898D01*
X68898Y64929D01*
M02*
