G04*
G04 #@! TF.GenerationSoftware,Altium Limited,Altium Designer,23.2.1 (34)*
G04*
G04 Layer_Color=65535*
%FSLAX24Y24*%
%MOIN*%
G70*
G04*
G04 #@! TF.SameCoordinates,05F612E5-D9C9-4FC5-8177-6EA7AEB907BC*
G04*
G04*
G04 #@! TF.FilePolarity,Positive*
G04*
G01*
G75*
%ADD10C,0.0098*%
%ADD11C,0.0197*%
%ADD12C,0.0236*%
%ADD13C,0.0079*%
%ADD14C,0.0059*%
%ADD15C,0.0039*%
D10*
X2957Y3406D02*
G03*
X2957Y3406I-49J0D01*
G01*
X16171Y8230D02*
G03*
X16171Y8230I-49J0D01*
G01*
X9892Y7835D02*
G03*
X9892Y7835I-49J0D01*
G01*
X10354Y5388D02*
G03*
X10354Y5388I-49J0D01*
G01*
D11*
X17530Y8159D02*
G03*
X17530Y8159I-98J0D01*
G01*
D12*
X11299Y4882D02*
G03*
X11299Y4882I-118J0D01*
G01*
D13*
X24705Y2579D02*
Y2933D01*
X23720Y2579D02*
Y2933D01*
X2283Y4764D02*
X6378D01*
Y5276D01*
X2283Y4764D02*
Y5276D01*
X1083Y7343D02*
X1280D01*
X1181Y7244D02*
Y7441D01*
X1535Y6211D02*
Y6388D01*
X827Y6211D02*
Y6388D01*
X21260Y6791D02*
X21654D01*
X21260Y6201D02*
X21654D01*
X17126Y6496D02*
Y8465D01*
Y6496D02*
X18307D01*
Y8465D01*
X17126D02*
X18307D01*
X17530Y1260D02*
X17903D01*
X17530Y1890D02*
X17903D01*
X13701Y7825D02*
Y7923D01*
X14252Y7825D02*
Y7923D01*
X17727Y3228D02*
X18100D01*
X17727Y3858D02*
X18100D01*
X10171Y7661D02*
X10492D01*
Y7402D02*
Y7661D01*
X10171Y6512D02*
X10492D01*
Y6772D01*
X12874Y7599D02*
Y7697D01*
X12323Y7599D02*
Y7697D01*
X10787Y1821D02*
X12047D01*
X10787Y5266D02*
X12047D01*
Y1821D02*
Y5266D01*
X10787Y1821D02*
Y5266D01*
X7688Y5433D02*
X8060D01*
X7688Y4803D02*
X8060D01*
X3751Y1299D02*
X4123D01*
X3751Y669D02*
X4123D01*
X21103Y2283D02*
X21475D01*
X21103Y1654D02*
X21475D01*
X7362Y7294D02*
Y7667D01*
X7992Y7294D02*
Y7667D01*
X14567Y5984D02*
X14961D01*
X14567Y5433D02*
X14961D01*
X21074Y3819D02*
X21446D01*
X21074Y4449D02*
X21446D01*
X23130Y8720D02*
X23327D01*
X23228Y8622D02*
Y8819D01*
X23583Y7589D02*
Y7766D01*
X22874Y7589D02*
Y7766D01*
D14*
X24321Y9311D02*
X24419D01*
X24468Y9360D01*
Y9459D01*
X24419Y9508D01*
X24321D01*
X24272Y9459D01*
Y9360D01*
X24321Y9311D01*
X24567Y9508D02*
Y9360D01*
X24616Y9311D01*
X24764D01*
Y9508D01*
X24911Y9557D02*
Y9508D01*
X24862D01*
X24960D01*
X24911D01*
Y9360D01*
X24960Y9311D01*
X24075Y5423D02*
X24124Y5472D01*
X24222D01*
X24272Y5423D01*
Y5374D01*
X24222Y5325D01*
X24173D01*
X24222D01*
X24272Y5276D01*
Y5226D01*
X24222Y5177D01*
X24124D01*
X24075Y5226D01*
X24370Y5423D02*
X24419Y5472D01*
X24518D01*
X24567Y5423D01*
Y5374D01*
X24518Y5325D01*
X24468D01*
X24518D01*
X24567Y5276D01*
Y5226D01*
X24518Y5177D01*
X24419D01*
X24370Y5226D01*
X24665Y5423D02*
X24714Y5472D01*
X24813D01*
X24862Y5423D01*
Y5226D01*
X24813Y5177D01*
X24714D01*
X24665Y5226D01*
Y5423D01*
X256Y9065D02*
X453D01*
X354Y9163D02*
Y8967D01*
X551Y8917D02*
X649D01*
X600D01*
Y9212D01*
X551Y9163D01*
X994Y9212D02*
X797D01*
Y9065D01*
X895Y9114D01*
X945D01*
X994Y9065D01*
Y8967D01*
X945Y8917D01*
X846D01*
X797Y8967D01*
X1092Y9212D02*
Y9016D01*
X1191Y8917D01*
X1289Y9016D01*
Y9212D01*
X10886Y9557D02*
X10837Y9606D01*
X10738D01*
X10689Y9557D01*
Y9360D01*
X10738Y9311D01*
X10837D01*
X10886Y9360D01*
Y9459D01*
X10787D01*
X10984Y9311D02*
Y9606D01*
X11181Y9311D01*
Y9606D01*
X11279D02*
Y9311D01*
X11427D01*
X11476Y9360D01*
Y9557D01*
X11427Y9606D01*
X11279D01*
X650Y2470D02*
X600Y2520D01*
X502D01*
X453Y2470D01*
Y2274D01*
X502Y2224D01*
X600D01*
X650Y2274D01*
Y2372D01*
X551D01*
X748Y2224D02*
Y2520D01*
X945Y2224D01*
Y2520D01*
X1043D02*
Y2224D01*
X1191D01*
X1240Y2274D01*
Y2470D01*
X1191Y2520D01*
X1043D01*
X1526Y7776D02*
X1476Y7825D01*
X1378D01*
X1329Y7776D01*
Y7579D01*
X1378Y7530D01*
X1476D01*
X1526Y7579D01*
X1821Y7530D02*
X1624D01*
X1821Y7726D01*
Y7776D01*
X1772Y7825D01*
X1673D01*
X1624Y7776D01*
X21063Y7382D02*
X21112Y7431D01*
X21211D01*
X21260Y7382D01*
Y7333D01*
X21211Y7283D01*
X21260Y7234D01*
Y7185D01*
X21211Y7136D01*
X21112D01*
X21063Y7185D01*
Y7234D01*
X21112Y7283D01*
X21063Y7333D01*
Y7382D01*
X21112Y7283D02*
X21211D01*
X21358Y7382D02*
X21407Y7431D01*
X21506D01*
X21555Y7382D01*
Y7185D01*
X21506Y7136D01*
X21407D01*
X21358Y7185D01*
Y7382D01*
X21850Y7431D02*
X21752Y7382D01*
X21653Y7283D01*
Y7185D01*
X21703Y7136D01*
X21801D01*
X21850Y7185D01*
Y7234D01*
X21801Y7283D01*
X21653D01*
X14065Y6355D02*
Y6650D01*
X14213D01*
X14262Y6601D01*
Y6503D01*
X14213Y6453D01*
X14065D01*
X14164D02*
X14262Y6355D01*
X14361Y6601D02*
X14410Y6650D01*
X14508D01*
X14557Y6601D01*
Y6552D01*
X14508Y6503D01*
X14459D01*
X14508D01*
X14557Y6453D01*
Y6404D01*
X14508Y6355D01*
X14410D01*
X14361Y6404D01*
X13730Y8711D02*
Y9006D01*
X13878D01*
X13927Y8957D01*
Y8858D01*
X13878Y8809D01*
X13730D01*
X13829D02*
X13927Y8711D01*
X14222D02*
X14026D01*
X14222Y8907D01*
Y8957D01*
X14173Y9006D01*
X14075D01*
X14026Y8957D01*
X12008Y8682D02*
Y8977D01*
X12156D01*
X12205Y8928D01*
Y8829D01*
X12156Y8780D01*
X12008D01*
X12106D02*
X12205Y8682D01*
X12303D02*
X12402D01*
X12352D01*
Y8977D01*
X12303Y8928D01*
X23052Y9361D02*
X23003Y9410D01*
X22905D01*
X22855Y9361D01*
Y9164D01*
X22905Y9115D01*
X23003D01*
X23052Y9164D01*
X23151Y9115D02*
X23249D01*
X23200D01*
Y9410D01*
X23151Y9361D01*
X20425Y2961D02*
X20475Y3010D01*
X20573D01*
X20622Y2961D01*
Y2912D01*
X20573Y2863D01*
X20622Y2813D01*
Y2764D01*
X20573Y2715D01*
X20475D01*
X20425Y2764D01*
Y2813D01*
X20475Y2863D01*
X20425Y2912D01*
Y2961D01*
X20475Y2863D02*
X20573D01*
X20917Y2715D02*
X20721D01*
X20917Y2912D01*
Y2961D01*
X20868Y3010D01*
X20770D01*
X20721Y2961D01*
X21016Y2715D02*
Y3010D01*
Y2813D02*
X21163Y2912D01*
X21016Y2813D02*
X21163Y2715D01*
X21409D02*
X21311Y2813D01*
Y2912D01*
X21409Y3010D01*
X21754Y2715D02*
X21557D01*
X21754Y2912D01*
Y2961D01*
X21705Y3010D01*
X21606D01*
X21557Y2961D01*
X21852Y2715D02*
X21951Y2813D01*
Y2912D01*
X21852Y3010D01*
X20395Y5121D02*
X20445Y5170D01*
X20543D01*
X20592Y5121D01*
Y5072D01*
X20543Y5023D01*
X20592Y4973D01*
Y4924D01*
X20543Y4875D01*
X20445D01*
X20395Y4924D01*
Y4973D01*
X20445Y5023D01*
X20395Y5072D01*
Y5121D01*
X20445Y5023D02*
X20543D01*
X20887Y4875D02*
X20691D01*
X20887Y5072D01*
Y5121D01*
X20838Y5170D01*
X20740D01*
X20691Y5121D01*
X20986Y4875D02*
Y5170D01*
Y4973D02*
X21133Y5072D01*
X20986Y4973D02*
X21133Y4875D01*
X21675D02*
X21576Y4973D01*
Y5072D01*
X21675Y5170D01*
X21822Y4875D02*
X21921D01*
X21871D01*
Y5170D01*
X21822Y5121D01*
X22068Y4875D02*
X22167Y4973D01*
Y5072D01*
X22068Y5170D01*
X16954Y2411D02*
X16757D01*
X16954Y2608D01*
Y2657D01*
X16905Y2707D01*
X16806D01*
X16757Y2657D01*
X17249Y2411D02*
X17052D01*
X17249Y2608D01*
Y2657D01*
X17200Y2707D01*
X17102D01*
X17052Y2657D01*
X17348Y2411D02*
Y2707D01*
Y2510D02*
X17495Y2608D01*
X17348Y2510D02*
X17495Y2411D01*
X17741D02*
X17643Y2510D01*
Y2608D01*
X17741Y2707D01*
X18085Y2411D02*
X17889D01*
X18085Y2608D01*
Y2657D01*
X18036Y2707D01*
X17938D01*
X17889Y2657D01*
X18184Y2411D02*
X18282Y2510D01*
Y2608D01*
X18184Y2707D01*
X17175Y4577D02*
X16979D01*
X17175Y4774D01*
Y4823D01*
X17126Y4872D01*
X17028D01*
X16979Y4823D01*
X17471Y4577D02*
X17274D01*
X17471Y4774D01*
Y4823D01*
X17421Y4872D01*
X17323D01*
X17274Y4823D01*
X17569Y4577D02*
Y4872D01*
Y4675D02*
X17717Y4774D01*
X17569Y4675D02*
X17717Y4577D01*
X17963D02*
X17864Y4675D01*
Y4774D01*
X17963Y4872D01*
X18110Y4577D02*
X18209D01*
X18159D01*
Y4872D01*
X18110Y4823D01*
X18356Y4577D02*
X18454Y4675D01*
Y4774D01*
X18356Y4872D01*
X7923Y5758D02*
X8022D01*
X7973D01*
Y6053D01*
X7923Y6004D01*
X8169D02*
X8219Y6053D01*
X8317D01*
X8366Y6004D01*
Y5807D01*
X8317Y5758D01*
X8219D01*
X8169Y5807D01*
Y6004D01*
X8465Y5758D02*
Y6053D01*
Y5856D02*
X8612Y5955D01*
X8465Y5856D02*
X8612Y5758D01*
X7013Y8809D02*
X6816D01*
Y8661D01*
X6914Y8711D01*
X6964D01*
X7013Y8661D01*
Y8563D01*
X6964Y8514D01*
X6865D01*
X6816Y8563D01*
X7111Y8514D02*
Y8563D01*
X7160D01*
Y8514D01*
X7111D01*
X7357D02*
X7456D01*
X7406D01*
Y8809D01*
X7357Y8760D01*
X7603Y8514D02*
Y8809D01*
Y8612D02*
X7751Y8711D01*
X7603Y8612D02*
X7751Y8514D01*
X4306Y1821D02*
X4109D01*
X4306Y2018D01*
Y2067D01*
X4257Y2116D01*
X4159D01*
X4109Y2067D01*
X4405Y1821D02*
Y2116D01*
Y1919D02*
X4552Y2018D01*
X4405Y1919D02*
X4552Y1821D01*
X23635Y3935D02*
X23734D01*
X23685D01*
Y4230D01*
X23635Y4181D01*
X23881Y3935D02*
Y4230D01*
Y4033D02*
X24029Y4132D01*
X23881Y4033D02*
X24029Y3935D01*
D15*
X236Y4370D02*
Y4239D01*
X302Y4173D01*
X367Y4239D01*
Y4370D01*
X564Y4337D02*
X531Y4370D01*
X466D01*
X433Y4337D01*
Y4206D01*
X466Y4173D01*
X531D01*
X564Y4206D01*
X761Y4337D02*
X728Y4370D01*
X663D01*
X630Y4337D01*
Y4206D01*
X663Y4173D01*
X728D01*
X761Y4206D01*
X1122Y4370D02*
X1056D01*
X1023Y4337D01*
Y4206D01*
X1056Y4173D01*
X1122D01*
X1155Y4206D01*
Y4337D01*
X1122Y4370D01*
X1220Y4304D02*
Y4206D01*
X1253Y4173D01*
X1351D01*
Y4304D01*
X1450Y4337D02*
Y4304D01*
X1417D01*
X1483D01*
X1450D01*
Y4206D01*
X1483Y4173D01*
X13032Y302D02*
Y433D01*
X13064D01*
X13097Y400D01*
Y302D01*
Y400D01*
X13130Y433D01*
X13163Y400D01*
Y302D01*
X13228Y433D02*
Y335D01*
X13261Y302D01*
X13359D01*
Y433D01*
X13425D02*
X13556Y302D01*
X13491Y367D01*
X13556Y433D01*
X13425Y302D01*
X13950Y499D02*
Y302D01*
X13851D01*
X13819Y335D01*
Y400D01*
X13851Y433D01*
X13950D01*
X14114Y302D02*
X14048D01*
X14015Y335D01*
Y400D01*
X14048Y433D01*
X14114D01*
X14147Y400D01*
Y367D01*
X14015D01*
X14343Y433D02*
X14245D01*
X14212Y400D01*
Y335D01*
X14245Y302D01*
X14343D01*
X14442D02*
X14507D01*
X14540Y335D01*
Y400D01*
X14507Y433D01*
X14442D01*
X14409Y400D01*
Y335D01*
X14442Y302D01*
X14606Y433D02*
Y335D01*
X14639Y302D01*
X14737D01*
Y433D01*
X14803Y236D02*
Y433D01*
X14901D01*
X14934Y400D01*
Y335D01*
X14901Y302D01*
X14803D01*
X14999D02*
X15065D01*
X15032D01*
Y499D01*
X14999D01*
X15163Y302D02*
X15229D01*
X15196D01*
Y433D01*
X15163D01*
X15327Y302D02*
Y433D01*
X15426D01*
X15459Y400D01*
Y302D01*
X15590Y236D02*
X15623D01*
X15655Y269D01*
Y433D01*
X15557D01*
X15524Y400D01*
Y335D01*
X15557Y302D01*
X15655D01*
X7520Y827D02*
Y1024D01*
X7585Y958D01*
X7651Y1024D01*
Y827D01*
X7716Y958D02*
Y860D01*
X7749Y827D01*
X7848D01*
Y958D01*
X7913D02*
X8044Y827D01*
X7979Y892D01*
X8044Y958D01*
X7913Y827D01*
X8438Y1024D02*
Y827D01*
X8340D01*
X8307Y860D01*
Y925D01*
X8340Y958D01*
X8438D01*
X8536D02*
X8602D01*
X8635Y925D01*
Y827D01*
X8536D01*
X8504Y860D01*
X8536Y892D01*
X8635D01*
X8733Y991D02*
Y958D01*
X8700D01*
X8766D01*
X8733D01*
Y860D01*
X8766Y827D01*
X8897Y958D02*
X8963D01*
X8996Y925D01*
Y827D01*
X8897D01*
X8864Y860D01*
X8897Y892D01*
X8996D01*
M02*
