G04*
G04 #@! TF.GenerationSoftware,Altium Limited,Altium Designer,23.1.1 (15)*
G04*
G04 Layer_Color=8388736*
%FSLAX25Y25*%
%MOIN*%
G70*
G04*
G04 #@! TF.SameCoordinates,E5AF2557-88D3-4AEC-9E31-4A92A601E51B*
G04*
G04*
G04 #@! TF.FilePolarity,Negative*
G04*
G01*
G75*
%ADD15R,0.05709X0.03740*%
%ADD18R,0.03764X0.06528*%
%ADD19R,0.05339X0.07316*%
%ADD20R,0.04551X0.06922*%
%ADD21R,0.06128X0.01803*%
G04:AMPARAMS|DCode=22|XSize=61.28mil|YSize=18.03mil|CornerRadius=9.02mil|HoleSize=0mil|Usage=FLASHONLY|Rotation=0.000|XOffset=0mil|YOffset=0mil|HoleType=Round|Shape=RoundedRectangle|*
%AMROUNDEDRECTD22*
21,1,0.06128,0.00000,0,0,0.0*
21,1,0.04325,0.01803,0,0,0.0*
1,1,0.01803,0.02162,0.00000*
1,1,0.01803,-0.02162,0.00000*
1,1,0.01803,-0.02162,0.00000*
1,1,0.01803,0.02162,0.00000*
%
%ADD22ROUNDEDRECTD22*%
%ADD23R,0.06528X0.03764*%
%ADD27R,0.04156X0.06528*%
%ADD28R,0.07087X0.05512*%
%ADD29R,0.02985X0.03394*%
G04:AMPARAMS|DCode=31|XSize=33.59mil|YSize=72.96mil|CornerRadius=5.92mil|HoleSize=0mil|Usage=FLASHONLY|Rotation=90.000|XOffset=0mil|YOffset=0mil|HoleType=Round|Shape=RoundedRectangle|*
%AMROUNDEDRECTD31*
21,1,0.03359,0.06112,0,0,90.0*
21,1,0.02175,0.07296,0,0,90.0*
1,1,0.01184,0.03056,0.01088*
1,1,0.01184,0.03056,-0.01088*
1,1,0.01184,-0.03056,-0.01088*
1,1,0.01184,-0.03056,0.01088*
%
%ADD31ROUNDEDRECTD31*%
%ADD32R,0.04343X0.07099*%
%ADD33R,0.04934X0.16942*%
%ADD34R,0.41942X0.38595*%
%ADD35R,0.04147X0.03753*%
%ADD36R,0.11430X0.05524*%
%ADD37C,0.06800*%
%ADD38C,0.04934*%
%ADD39R,0.04934X0.04934*%
%ADD40C,0.05800*%
D15*
X145669Y82579D02*
D03*
Y74902D02*
D03*
X125984Y80319D02*
D03*
Y72642D02*
D03*
D18*
X73519Y51181D02*
D03*
X83961D02*
D03*
D19*
X33362Y11811D02*
D03*
X45378D02*
D03*
X169189Y43307D02*
D03*
X181205D02*
D03*
X171157Y15748D02*
D03*
X183174D02*
D03*
D20*
X207275Y19685D02*
D03*
X218504D02*
D03*
X214276Y43307D02*
D03*
X203047D02*
D03*
D21*
X168894Y86516D02*
D03*
D22*
Y83957D02*
D03*
Y81398D02*
D03*
Y78839D02*
D03*
X185436D02*
D03*
Y81398D02*
D03*
Y83957D02*
D03*
Y86516D02*
D03*
D23*
X78740Y69582D02*
D03*
Y80024D02*
D03*
D27*
X207781Y68898D02*
D03*
X197731D02*
D03*
D28*
X220473Y79921D02*
D03*
Y69685D02*
D03*
D29*
X239189Y62992D02*
D03*
X234252D02*
D03*
D31*
X125295Y20433D02*
D03*
Y25433D02*
D03*
Y30433D02*
D03*
Y35433D02*
D03*
Y40433D02*
D03*
Y45433D02*
D03*
Y50433D02*
D03*
X103051Y20433D02*
D03*
Y25433D02*
D03*
Y30433D02*
D03*
Y35433D02*
D03*
Y40433D02*
D03*
Y45433D02*
D03*
Y50433D02*
D03*
D32*
X142323Y57087D02*
D03*
X152953D02*
D03*
D33*
X33307Y34055D02*
D03*
X53307D02*
D03*
D34*
X43307Y73228D02*
D03*
D35*
X11811Y61516D02*
D03*
Y56594D02*
D03*
D36*
X234252Y21654D02*
D03*
Y33071D02*
D03*
D37*
X7874Y37402D02*
D03*
X141732Y11811D02*
D03*
X236221Y78740D02*
D03*
Y88583D02*
D03*
X78740Y15748D02*
D03*
X106299Y86614D02*
D03*
X7874Y15748D02*
D03*
Y82677D02*
D03*
D38*
X107362Y70866D02*
D03*
X102362D02*
D03*
D39*
X97362D02*
D03*
D40*
X133858Y55118D02*
D03*
X125984Y94488D02*
D03*
X157480D02*
D03*
X228346Y11614D02*
D03*
X159449Y25591D02*
D03*
X145669Y33465D02*
D03*
X234252Y51181D02*
D03*
X185039Y70866D02*
D03*
X159449Y84646D02*
D03*
X173228Y94488D02*
D03*
X149606Y92520D02*
D03*
X159449Y66929D02*
D03*
X149606Y27559D02*
D03*
X135827D02*
D03*
X88583Y35433D02*
D03*
X125984Y62701D02*
D03*
X157480Y41339D02*
D03*
X94488Y15748D02*
D03*
X68898Y66929D02*
D03*
M02*
