G04*
G04 #@! TF.GenerationSoftware,Altium Limited,Altium Designer,23.1.1 (15)*
G04*
G04 Layer_Color=8388736*
%FSLAX44Y44*%
%MOMM*%
G71*
G04*
G04 #@! TF.SameCoordinates,36A7A826-306E-463F-8DB2-5D37948115DD*
G04*
G04*
G04 #@! TF.FilePolarity,Negative*
G04*
G01*
G75*
%ADD15R,1.4500X0.9500*%
%ADD18R,0.9561X1.6582*%
%ADD19R,1.3561X1.8582*%
%ADD20R,1.1561X1.7582*%
%ADD21R,1.5565X0.4580*%
G04:AMPARAMS|DCode=22|XSize=1.5565mm|YSize=0.458mm|CornerRadius=0.229mm|HoleSize=0mm|Usage=FLASHONLY|Rotation=0.000|XOffset=0mm|YOffset=0mm|HoleType=Round|Shape=RoundedRectangle|*
%AMROUNDEDRECTD22*
21,1,1.5565,0.0000,0,0,0.0*
21,1,1.0985,0.4580,0,0,0.0*
1,1,0.4580,0.5493,0.0000*
1,1,0.4580,-0.5493,0.0000*
1,1,0.4580,-0.5493,0.0000*
1,1,0.4580,0.5493,0.0000*
%
%ADD22ROUNDEDRECTD22*%
%ADD23R,1.6582X0.9561*%
%ADD27R,1.0557X1.6582*%
%ADD28R,1.8000X1.4000*%
%ADD29R,0.7581X0.8621*%
G04:AMPARAMS|DCode=31|XSize=0.8532mm|YSize=1.8532mm|CornerRadius=0.1504mm|HoleSize=0mm|Usage=FLASHONLY|Rotation=90.000|XOffset=0mm|YOffset=0mm|HoleType=Round|Shape=RoundedRectangle|*
%AMROUNDEDRECTD31*
21,1,0.8532,1.5525,0,0,90.0*
21,1,0.5525,1.8532,0,0,90.0*
1,1,0.3007,0.7763,0.2763*
1,1,0.3007,0.7763,-0.2763*
1,1,0.3007,-0.7763,-0.2763*
1,1,0.3007,-0.7763,0.2763*
%
%ADD31ROUNDEDRECTD31*%
%ADD32R,1.1032X1.8032*%
%ADD33R,1.2532X4.3032*%
%ADD34R,10.6532X9.8032*%
%ADD35R,1.0532X0.9532*%
%ADD36R,2.9032X1.4032*%
%ADD37C,1.7272*%
%ADD38C,1.2532*%
%ADD39R,1.2532X1.2532*%
%ADD40C,1.4732*%
D15*
X370000Y209750D02*
D03*
Y190250D02*
D03*
X320000Y204011D02*
D03*
Y184511D02*
D03*
D18*
X186739Y130000D02*
D03*
X213261D02*
D03*
D19*
X84739Y30000D02*
D03*
X115261D02*
D03*
X429739Y110000D02*
D03*
X460261D02*
D03*
X434739Y40000D02*
D03*
X465261D02*
D03*
D20*
X526478Y50000D02*
D03*
X555000D02*
D03*
X544261Y110000D02*
D03*
X515739D02*
D03*
D21*
X428992Y219750D02*
D03*
D22*
Y213250D02*
D03*
Y206750D02*
D03*
Y200250D02*
D03*
X471009D02*
D03*
Y206750D02*
D03*
Y213250D02*
D03*
Y219750D02*
D03*
D23*
X200000Y176739D02*
D03*
Y203261D02*
D03*
D27*
X527762Y175000D02*
D03*
X502238D02*
D03*
D28*
X560000Y203000D02*
D03*
Y177000D02*
D03*
D29*
X607540Y160000D02*
D03*
X595000D02*
D03*
D31*
X318250Y51900D02*
D03*
Y64600D02*
D03*
Y77300D02*
D03*
Y90000D02*
D03*
Y102700D02*
D03*
Y115400D02*
D03*
Y128100D02*
D03*
X261750Y51900D02*
D03*
Y64600D02*
D03*
Y77300D02*
D03*
Y90000D02*
D03*
Y102700D02*
D03*
Y115400D02*
D03*
Y128100D02*
D03*
D32*
X361500Y145000D02*
D03*
X388500D02*
D03*
D33*
X84600Y86500D02*
D03*
X135400D02*
D03*
D34*
X110000Y186000D02*
D03*
D35*
X30000Y156250D02*
D03*
Y143750D02*
D03*
D36*
X595000Y55000D02*
D03*
Y84000D02*
D03*
D37*
X20000Y95000D02*
D03*
X360000Y30000D02*
D03*
X600000Y200000D02*
D03*
Y225000D02*
D03*
X200000Y40000D02*
D03*
X270000Y220000D02*
D03*
X20000Y40000D02*
D03*
Y210000D02*
D03*
D38*
X272700Y180000D02*
D03*
X260000D02*
D03*
D39*
X247300D02*
D03*
D40*
X340000Y140000D02*
D03*
X320000Y240000D02*
D03*
X400000D02*
D03*
X580000Y29500D02*
D03*
X405000Y65000D02*
D03*
X370000Y85000D02*
D03*
X595000Y130000D02*
D03*
X470000Y180000D02*
D03*
X405000Y215000D02*
D03*
X440000Y240000D02*
D03*
X380000Y235000D02*
D03*
X405000Y170000D02*
D03*
X380000Y70000D02*
D03*
X345000D02*
D03*
X225000Y90000D02*
D03*
X320000Y159261D02*
D03*
X400000Y105000D02*
D03*
X240000Y40000D02*
D03*
X175000Y170000D02*
D03*
M02*
