G04*
G04 #@! TF.GenerationSoftware,Altium Limited,Altium Designer,23.1.1 (15)*
G04*
G04 Layer_Color=16711935*
%FSLAX25Y25*%
%MOIN*%
G70*
G04*
G04 #@! TF.SameCoordinates,E5AF2557-88D3-4AEC-9E31-4A92A601E51B*
G04*
G04*
G04 #@! TF.FilePolarity,Negative*
G04*
G01*
G75*
%ADD37C,0.06800*%
%ADD38C,0.04934*%
%ADD39R,0.04934X0.04934*%
%ADD40C,0.05800*%
D37*
X7874Y37402D02*
D03*
X141732Y11811D02*
D03*
X236221Y78740D02*
D03*
Y88583D02*
D03*
X78740Y15748D02*
D03*
X106299Y86614D02*
D03*
X7874Y15748D02*
D03*
Y82677D02*
D03*
D38*
X107362Y70866D02*
D03*
X102362D02*
D03*
D39*
X97362D02*
D03*
D40*
X133858Y55118D02*
D03*
X125984Y94488D02*
D03*
X157480D02*
D03*
X228346Y11614D02*
D03*
X159449Y25591D02*
D03*
X145669Y33465D02*
D03*
X234252Y51181D02*
D03*
X185039Y70866D02*
D03*
X159449Y84646D02*
D03*
X173228Y94488D02*
D03*
X149606Y92520D02*
D03*
X159449Y66929D02*
D03*
X149606Y27559D02*
D03*
X135827D02*
D03*
X88583Y35433D02*
D03*
X125984Y62701D02*
D03*
X157480Y41339D02*
D03*
X94488Y15748D02*
D03*
X68898Y66929D02*
D03*
M02*
