G04*
G04 #@! TF.GenerationSoftware,Altium Limited,Altium Designer,23.1.1 (15)*
G04*
G04 Layer_Physical_Order=1*
G04 Layer_Color=255*
%FSLAX44Y44*%
%MOMM*%
G71*
G04*
G04 #@! TF.SameCoordinates,36A7A826-306E-463F-8DB2-5D37948115DD*
G04*
G04*
G04 #@! TF.FilePolarity,Positive*
G04*
G01*
G75*
%ADD15R,1.4500X0.9500*%
G04:AMPARAMS|DCode=16|XSize=0.65mm|YSize=1.65mm|CornerRadius=0.0488mm|HoleSize=0mm|Usage=FLASHONLY|Rotation=90.000|XOffset=0mm|YOffset=0mm|HoleType=Round|Shape=RoundedRectangle|*
%AMROUNDEDRECTD16*
21,1,0.6500,1.5525,0,0,90.0*
21,1,0.5525,1.6500,0,0,90.0*
1,1,0.0975,0.7763,0.2763*
1,1,0.0975,0.7763,-0.2763*
1,1,0.0975,-0.7763,-0.2763*
1,1,0.0975,-0.7763,0.2763*
%
%ADD16ROUNDEDRECTD16*%
%ADD17R,0.9000X1.6000*%
%ADD18R,0.9561X1.6582*%
%ADD19R,1.3561X1.8582*%
%ADD20R,1.1561X1.7582*%
%ADD21R,1.5565X0.4580*%
G04:AMPARAMS|DCode=22|XSize=1.5565mm|YSize=0.458mm|CornerRadius=0.229mm|HoleSize=0mm|Usage=FLASHONLY|Rotation=0.000|XOffset=0mm|YOffset=0mm|HoleType=Round|Shape=RoundedRectangle|*
%AMROUNDEDRECTD22*
21,1,1.5565,0.0000,0,0,0.0*
21,1,1.0985,0.4580,0,0,0.0*
1,1,0.4580,0.5493,0.0000*
1,1,0.4580,-0.5493,0.0000*
1,1,0.4580,-0.5493,0.0000*
1,1,0.4580,0.5493,0.0000*
%
%ADD22ROUNDEDRECTD22*%
%ADD23R,1.6582X0.9561*%
%ADD24R,1.0500X4.1000*%
%ADD25R,10.4500X9.6000*%
%ADD26R,0.8500X0.7500*%
%ADD27R,1.0557X1.6582*%
%ADD28R,1.8000X1.4000*%
%ADD29R,0.7581X0.8621*%
%ADD30R,2.7000X1.2000*%
%ADD41C,0.2540*%
%ADD42C,1.5240*%
%ADD43C,1.0500*%
%ADD44R,1.0500X1.0500*%
%ADD45C,1.2700*%
D15*
X370000Y209750D02*
D03*
Y190250D02*
D03*
X320000Y204011D02*
D03*
Y184511D02*
D03*
D16*
X318250Y51900D02*
D03*
Y64600D02*
D03*
Y77300D02*
D03*
Y90000D02*
D03*
Y102700D02*
D03*
Y115400D02*
D03*
Y128100D02*
D03*
X261750Y51900D02*
D03*
Y64600D02*
D03*
Y77300D02*
D03*
Y90000D02*
D03*
Y102700D02*
D03*
Y115400D02*
D03*
Y128100D02*
D03*
D17*
X361500Y145000D02*
D03*
X388500D02*
D03*
D18*
X186739Y130000D02*
D03*
X213261D02*
D03*
D19*
X84739Y30000D02*
D03*
X115261D02*
D03*
X429739Y110000D02*
D03*
X460261D02*
D03*
X434739Y40000D02*
D03*
X465261D02*
D03*
D20*
X526478Y50000D02*
D03*
X555000D02*
D03*
X544261Y110000D02*
D03*
X515739D02*
D03*
D21*
X428992Y219750D02*
D03*
D22*
Y213250D02*
D03*
Y206750D02*
D03*
Y200250D02*
D03*
X471009D02*
D03*
Y206750D02*
D03*
Y213250D02*
D03*
Y219750D02*
D03*
D23*
X200000Y176739D02*
D03*
Y203261D02*
D03*
D24*
X84600Y86500D02*
D03*
X135400D02*
D03*
D25*
X110000Y186000D02*
D03*
D26*
X30000Y156250D02*
D03*
Y143750D02*
D03*
D27*
X527762Y175000D02*
D03*
X502238D02*
D03*
D28*
X560000Y203000D02*
D03*
Y177000D02*
D03*
D29*
X607540Y160000D02*
D03*
X595000D02*
D03*
D30*
Y55000D02*
D03*
Y84000D02*
D03*
D41*
X20000Y95000D02*
X33512D01*
X35000Y90000D02*
Y93512D01*
X33512Y95000D02*
X35000Y93512D01*
Y90000D02*
X69150Y55850D01*
X120000D01*
X135400Y71250D01*
Y86500D01*
X235000Y90000D02*
X240000Y85000D01*
Y77300D02*
X266000D01*
X217300D02*
X240000D01*
X225000Y90000D02*
X235000D01*
X240000Y77300D02*
Y85000D01*
X338432Y140000D02*
X342749D01*
X250000Y90000D02*
X266000D01*
X366989Y214261D02*
X370000D01*
X314000Y77300D02*
X322518D01*
X314000Y128100D02*
X388100D01*
X314000Y102700D02*
X383512D01*
X314000Y51900D02*
X388100D01*
X314000D02*
Y64600D01*
Y115400D02*
X399800D01*
X595000Y79500D02*
Y130000D01*
X314000Y90000D02*
X335000D01*
X559510Y55500D02*
X595000D01*
X200000Y215554D02*
X204447Y220000D01*
X270000D01*
X200000Y203261D02*
Y215554D01*
X419400Y135000D02*
X455000D01*
X399800Y115400D02*
X419400Y135000D01*
X261750Y51900D02*
Y64600D01*
X241488D02*
X261750D01*
X272700Y180000D02*
X290000D01*
X300000Y170000D01*
X347749Y145000D02*
X361500D01*
X342749Y140000D02*
X347749Y145000D01*
X300000Y146488D02*
Y170000D01*
Y146488D02*
X301488Y145000D01*
X333432D02*
X338432Y140000D01*
X301488Y145000D02*
X333432D01*
X200000Y176739D02*
X244039D01*
X247300Y180000D01*
X510000Y225000D02*
X600000D01*
X20000Y40000D02*
X30000Y30000D01*
X610000Y162460D02*
Y185000D01*
X607540Y160000D02*
X610000Y162460D01*
X406005Y229840D02*
X420160D01*
X400000Y237640D02*
Y240000D01*
X406005Y229840D02*
Y231636D01*
X400000Y237640D02*
X406005Y231636D01*
X580000Y29500D02*
X590000Y39500D01*
Y50000D01*
X555000Y50989D02*
Y75000D01*
Y50989D02*
X559510Y55500D01*
X555000Y50000D02*
Y50989D01*
X145000Y30000D02*
X160000Y15000D01*
X620000D02*
X630000Y25000D01*
X160000Y15000D02*
X620000D01*
X500000Y50000D02*
X521479D01*
X594500Y49500D02*
X595000Y50000D01*
X560000Y76488D02*
Y177000D01*
X380000Y95000D02*
X405000Y70000D01*
Y65000D02*
Y70000D01*
X340000Y95000D02*
X380000D01*
X335000Y90000D02*
X340000Y95000D01*
X355000Y85000D02*
X370000D01*
X350000Y80000D02*
X355000Y85000D01*
X325218Y80000D02*
X350000D01*
X322518Y77300D02*
X325218Y80000D01*
X595000Y130000D02*
Y160000D01*
X600000Y200000D02*
X610000Y185000D01*
X470000Y180000D02*
Y199308D01*
X470942Y200250D01*
X471009D01*
X410000Y155000D02*
X420000Y165000D01*
X492238D02*
X502238Y175000D01*
X420000Y165000D02*
X492238D01*
X405000Y215000D02*
X407749D01*
X412749Y210000D01*
X428601Y206360D02*
X428992Y206750D01*
X415000Y200000D02*
X421360Y206360D01*
X410000Y195000D02*
Y198512D01*
X421360Y206360D02*
X428601D01*
X411488Y200000D02*
X415000D01*
X410000Y198512D02*
X411488Y200000D01*
X417860Y212860D02*
X428601D01*
X428992Y213250D01*
X415000Y210000D02*
X417860Y212860D01*
X412749Y210000D02*
X415000D01*
X390000Y196488D02*
X391488Y195000D01*
X390000Y196488D02*
Y220000D01*
X381944Y228056D02*
X390000Y220000D01*
X391488Y195000D02*
X410000D01*
X380000Y235000D02*
X381944Y233056D01*
Y228056D02*
Y233056D01*
X420160Y229840D02*
X422479Y227521D01*
X130000Y30000D02*
X145000D01*
X115261D02*
X130000D01*
X628512Y240000D02*
X630000Y238512D01*
X440000Y240000D02*
X628512D01*
X630000Y25000D02*
Y238512D01*
X498250Y213250D02*
X510000Y225000D01*
X527762Y202237D02*
X559238D01*
X560000Y203000D01*
X423499Y219750D02*
X428992D01*
X422479Y220770D02*
X423499Y219750D01*
X422479Y220770D02*
Y227521D01*
X262500Y235000D02*
X270000Y220000D01*
X172730Y232730D02*
X175000Y235000D01*
X262500D01*
X110000Y186000D02*
X156730Y232730D01*
X172730D01*
X80250Y156250D02*
X110000Y186000D01*
X388512Y170000D02*
X405000D01*
X377251Y70000D02*
X380000D01*
X361528Y75000D02*
X372251D01*
X377251Y70000D01*
X410000Y145000D02*
Y155000D01*
X398512Y130000D02*
X400000Y131488D01*
Y135000D01*
X410000Y145000D01*
X390000Y130000D02*
X398512D01*
X388100Y128100D02*
X390000Y130000D01*
X356528Y70000D02*
X361528Y75000D01*
X345000Y70000D02*
X356528D01*
X230000Y110000D02*
Y148512D01*
Y110000D02*
X250000Y90000D01*
X341250Y240000D02*
X366989Y214261D01*
X320000Y208522D02*
Y240000D01*
X341250D01*
X320000Y159261D02*
Y180000D01*
X400000Y105000D02*
X424739D01*
X429739Y110000D01*
X240000Y40000D02*
Y63112D01*
X241488Y64600D01*
X471009Y206750D02*
X523250D01*
X527762Y202237D01*
Y175000D02*
Y202237D01*
X383512Y102700D02*
X385000Y101212D01*
Y100000D02*
Y101212D01*
Y100000D02*
X400000Y85000D01*
X460000D01*
X465261Y79739D01*
Y40000D02*
Y79739D01*
X455000Y135000D02*
X460261Y129739D01*
Y110000D02*
Y129739D01*
X388500Y145000D02*
X388512Y145012D01*
X375000Y170000D02*
X388512D01*
Y145012D02*
Y170000D01*
X370000Y175000D02*
X375000Y170000D01*
X370000Y175000D02*
Y185739D01*
X434739Y40000D02*
X435000Y40261D01*
X460261Y110000D02*
X515739D01*
X502238Y147762D02*
Y175000D01*
Y147762D02*
X505000Y145000D01*
X530000D01*
X544261Y110000D02*
Y130739D01*
X530000Y145000D02*
X544261Y130739D01*
X490000Y40000D02*
X500000Y50000D01*
X465261Y40000D02*
X490000D01*
X555000Y75000D02*
X558512D01*
X560000Y76488D01*
X471009Y213250D02*
X498250D01*
X400000Y40000D02*
X434739D01*
X388100Y51900D02*
X400000Y40000D01*
X175000Y131488D02*
Y170000D01*
Y131488D02*
X176488Y130000D01*
X186739D01*
Y126489D02*
Y130000D01*
Y146739D01*
X190000Y150000D02*
X228512D01*
X230000Y148512D01*
X186739Y146739D02*
X190000Y150000D01*
X200000Y60000D02*
X217300Y77300D01*
X200000Y40000D02*
Y60000D01*
X20000Y200000D02*
Y210000D01*
X10000Y150000D02*
Y190000D01*
X20000Y200000D01*
X209750Y126489D02*
X213261Y130000D01*
X209750Y111238D02*
Y126489D01*
X208512Y110000D02*
X209750Y111238D01*
X190000Y108512D02*
X191488Y110000D01*
X208512D01*
X190000Y90000D02*
Y108512D01*
X130000Y30000D02*
X190000Y90000D01*
X146750Y86500D02*
X186739Y126489D01*
X135400Y86500D02*
X146750D01*
X30000Y30000D02*
X84739D01*
X16250Y143750D02*
X30000D01*
X10000Y150000D02*
X16250Y143750D01*
X84600Y86500D02*
Y101750D01*
X80620Y105730D02*
X84600Y101750D01*
X54270Y105730D02*
X80620D01*
X30000Y130000D02*
X54270Y105730D01*
X30000Y130000D02*
Y143750D01*
Y156250D02*
X80250D01*
D42*
X20000Y95000D02*
D03*
X360000Y30000D02*
D03*
X600000Y200000D02*
D03*
Y225000D02*
D03*
X200000Y40000D02*
D03*
X270000Y220000D02*
D03*
X20000Y40000D02*
D03*
Y210000D02*
D03*
D43*
X272700Y180000D02*
D03*
X260000D02*
D03*
D44*
X247300D02*
D03*
D45*
X340000Y140000D02*
D03*
X320000Y240000D02*
D03*
X400000D02*
D03*
X580000Y29500D02*
D03*
X405000Y65000D02*
D03*
X370000Y85000D02*
D03*
X595000Y130000D02*
D03*
X470000Y180000D02*
D03*
X405000Y215000D02*
D03*
X440000Y240000D02*
D03*
X380000Y235000D02*
D03*
X405000Y170000D02*
D03*
X380000Y70000D02*
D03*
X345000D02*
D03*
X225000Y90000D02*
D03*
X320000Y159261D02*
D03*
X400000Y105000D02*
D03*
X240000Y40000D02*
D03*
X175000Y170000D02*
D03*
M02*
