G04*
G04 #@! TF.GenerationSoftware,Altium Limited,Altium Designer,23.1.1 (15)*
G04*
G04 Layer_Color=128*
%FSLAX25Y25*%
%MOIN*%
G70*
G04*
G04 #@! TF.SameCoordinates,E5AF2557-88D3-4AEC-9E31-4A92A601E51B*
G04*
G04*
G04 #@! TF.FilePolarity,Positive*
G04*
G01*
G75*
%ADD47C,0.00500*%
D47*
X6374Y37402D02*
X9374D01*
X7874Y35902D02*
Y38902D01*
X140232Y11811D02*
X143232D01*
X141732Y10311D02*
Y13311D01*
X105787Y70866D02*
X108937D01*
X107362Y69291D02*
Y72441D01*
X95787Y70866D02*
X98937D01*
X97362Y69291D02*
Y72441D01*
X100787Y70866D02*
X103937D01*
X102362Y69291D02*
Y72441D01*
X234720Y78740D02*
X237720D01*
X236221Y77240D02*
Y80240D01*
X234720Y88583D02*
X237720D01*
X236221Y87083D02*
Y90083D01*
X77240Y15748D02*
X80240D01*
X78740Y14248D02*
Y17248D01*
X104799Y86614D02*
X107799D01*
X106299Y85114D02*
Y88114D01*
X6374Y15748D02*
X9374D01*
X7874Y14248D02*
Y17248D01*
X6374Y82677D02*
X9374D01*
X7874Y81177D02*
Y84177D01*
X132458Y55118D02*
X135258D01*
X133858Y53718D02*
Y56518D01*
X124584Y94488D02*
X127384D01*
X125984Y93088D02*
Y95888D01*
X156080Y94488D02*
X158880D01*
X157480Y93088D02*
Y95888D01*
X226946Y11614D02*
X229747D01*
X228346Y10214D02*
Y13014D01*
X158049Y25591D02*
X160849D01*
X159449Y24191D02*
Y26991D01*
X144269Y33465D02*
X147069D01*
X145669Y32065D02*
Y34865D01*
X232852Y51181D02*
X235652D01*
X234252Y49781D02*
Y52581D01*
X183639Y70866D02*
X186439D01*
X185039Y69466D02*
Y72266D01*
X158049Y84646D02*
X160849D01*
X159449Y83246D02*
Y86046D01*
X171828Y94488D02*
X174628D01*
X173228Y93088D02*
Y95888D01*
X148206Y92520D02*
X151006D01*
X149606Y91120D02*
Y93920D01*
X158049Y66929D02*
X160849D01*
X159449Y65529D02*
Y68329D01*
X148206Y27559D02*
X151006D01*
X149606Y26159D02*
Y28959D01*
X134427Y27559D02*
X137227D01*
X135827Y26159D02*
Y28959D01*
X87183Y35433D02*
X89983D01*
X88583Y34033D02*
Y36833D01*
X124584Y62701D02*
X127384D01*
X125984Y61301D02*
Y64101D01*
X156080Y41339D02*
X158880D01*
X157480Y39939D02*
Y42739D01*
X93088Y15748D02*
X95888D01*
X94488Y14348D02*
Y17148D01*
X67498Y66929D02*
X70298D01*
X68898Y65529D02*
Y68329D01*
M02*
