G04*
G04 #@! TF.GenerationSoftware,Altium Limited,Altium Designer,23.1.1 (15)*
G04*
G04 Layer_Color=65535*
%FSLAX25Y25*%
%MOIN*%
G70*
G04*
G04 #@! TF.SameCoordinates,588A7164-EE2F-48AB-B3FF-4136EF57982D*
G04*
G04*
G04 #@! TF.FilePolarity,Positive*
G04*
G01*
G75*
%ADD10C,0.01968*%
%ADD11C,0.00984*%
%ADD12C,0.02362*%
%ADD13C,0.00787*%
%ADD14C,0.00591*%
%ADD15C,0.00394*%
D10*
X175295Y81595D02*
G03*
X175295Y81595I-984J0D01*
G01*
D11*
X161713Y82303D02*
G03*
X161713Y82303I-492J0D01*
G01*
X98917Y78347D02*
G03*
X98917Y78347I-492J0D01*
G01*
X103543Y53878D02*
G03*
X103543Y53878I-492J0D01*
G01*
X29567Y34055D02*
G03*
X29567Y34055I-492J0D01*
G01*
D12*
X112992Y48819D02*
G03*
X112992Y48819I-1181J0D01*
G01*
D13*
X212598Y67913D02*
X216535D01*
X212598Y62008D02*
X216535D01*
X171260Y64961D02*
Y84646D01*
Y64961D02*
X183071D01*
Y84646D01*
X171260D02*
X183071D01*
X175303Y12598D02*
X179028D01*
X175303Y18898D02*
X179028D01*
X137008Y78248D02*
Y79232D01*
X142520Y78248D02*
Y79232D01*
X177271Y32283D02*
X180996D01*
X177271Y38583D02*
X180996D01*
X101713Y76614D02*
X104921D01*
Y74016D02*
Y76614D01*
X101713Y65118D02*
X104921D01*
Y67716D01*
X128740Y75989D02*
Y76973D01*
X123228Y75989D02*
Y76973D01*
X107874Y18209D02*
X120473D01*
X107874Y52657D02*
X120473D01*
Y18209D02*
Y52657D01*
X107874Y18209D02*
Y52657D01*
X76878Y54331D02*
X80603D01*
X76878Y48031D02*
X80603D01*
X37508Y12992D02*
X41232D01*
X37508Y6693D02*
X41232D01*
X211027Y22835D02*
X214752D01*
X211027Y16535D02*
X214752D01*
X73622Y72941D02*
Y76666D01*
X79921Y72941D02*
Y76666D01*
X22835Y47638D02*
Y52756D01*
X63779Y47638D02*
Y52756D01*
X22835Y47638D02*
X63779D01*
X145669Y59843D02*
X149606D01*
X145669Y54331D02*
X149606D01*
X210736Y38189D02*
X214461D01*
X210736Y44488D02*
X214461D01*
X231299Y87205D02*
X233268D01*
X232284Y86221D02*
Y88189D01*
X235827Y75886D02*
Y77658D01*
X228740Y75886D02*
Y77658D01*
X240634Y66437D02*
X248555D01*
X240634Y59547D02*
X248555D01*
X237205Y25787D02*
Y29331D01*
X247047Y25787D02*
Y29331D01*
D14*
X2559Y90649D02*
X4527D01*
X3543Y91633D02*
Y89665D01*
X5511Y89173D02*
X6495D01*
X6003D01*
Y92125D01*
X5511Y91633D01*
X9939Y92125D02*
X7971D01*
Y90649D01*
X8955Y91141D01*
X9447D01*
X9939Y90649D01*
Y89665D01*
X9447Y89173D01*
X8463D01*
X7971Y89665D01*
X10922Y92125D02*
Y90157D01*
X11906Y89173D01*
X12890Y90157D01*
Y92125D01*
X108858Y95570D02*
X108366Y96062D01*
X107382D01*
X106890Y95570D01*
Y93602D01*
X107382Y93110D01*
X108366D01*
X108858Y93602D01*
Y94586D01*
X107874D01*
X109842Y93110D02*
Y96062D01*
X111809Y93110D01*
Y96062D01*
X112793D02*
Y93110D01*
X114269D01*
X114761Y93602D01*
Y95570D01*
X114269Y96062D01*
X112793D01*
X4528Y23720D02*
X6495D01*
X7479Y22244D02*
X8463D01*
X7971D01*
Y25196D01*
X7479Y24704D01*
X11907Y25196D02*
X9939D01*
Y23720D01*
X10923Y24212D01*
X11415D01*
X11907Y23720D01*
Y22736D01*
X11415Y22244D01*
X10431D01*
X9939Y22736D01*
X12891Y25196D02*
Y23228D01*
X13875Y22244D01*
X14859Y23228D01*
Y25196D01*
X210631Y73819D02*
X211123Y74311D01*
X212107D01*
X212599Y73819D01*
Y73327D01*
X212107Y72835D01*
X212599Y72343D01*
Y71851D01*
X212107Y71359D01*
X211123D01*
X210631Y71851D01*
Y72343D01*
X211123Y72835D01*
X210631Y73327D01*
Y73819D01*
X211123Y72835D02*
X212107D01*
X213583Y73819D02*
X214075Y74311D01*
X215059D01*
X215551Y73819D01*
Y71851D01*
X215059Y71359D01*
X214075D01*
X213583Y71851D01*
Y73819D01*
X218503Y74311D02*
X217519Y73819D01*
X216535Y72835D01*
Y71851D01*
X217027Y71359D01*
X218011D01*
X218503Y71851D01*
Y72343D01*
X218011Y72835D01*
X216535D01*
X140654Y63550D02*
Y66501D01*
X142130D01*
X142622Y66009D01*
Y65026D01*
X142130Y64534D01*
X140654D01*
X141638D02*
X142622Y63550D01*
X143606Y66009D02*
X144098Y66501D01*
X145082D01*
X145574Y66009D01*
Y65517D01*
X145082Y65026D01*
X144590D01*
X145082D01*
X145574Y64534D01*
Y64042D01*
X145082Y63550D01*
X144098D01*
X143606Y64042D01*
X137304Y87107D02*
Y90059D01*
X138780D01*
X139272Y89567D01*
Y88583D01*
X138780Y88091D01*
X137304D01*
X138288D02*
X139272Y87107D01*
X142224D02*
X140256D01*
X142224Y89075D01*
Y89567D01*
X141732Y90059D01*
X140748D01*
X140256Y89567D01*
X120079Y86816D02*
Y89768D01*
X121555D01*
X122047Y89276D01*
Y88292D01*
X121555Y87800D01*
X120079D01*
X121063D02*
X122047Y86816D01*
X123031D02*
X124015D01*
X123523D01*
Y89768D01*
X123031Y89276D01*
X12122Y68510D02*
X11630Y69001D01*
X10646D01*
X10154Y68510D01*
Y66542D01*
X10646Y66050D01*
X11630D01*
X12122Y66542D01*
X15074Y66050D02*
X13106D01*
X15074Y68018D01*
Y68510D01*
X14582Y69001D01*
X13598D01*
X13106Y68510D01*
X230522Y93609D02*
X230030Y94101D01*
X229046D01*
X228554Y93609D01*
Y91642D01*
X229046Y91150D01*
X230030D01*
X230522Y91642D01*
X231506Y91150D02*
X232490D01*
X231998D01*
Y94101D01*
X231506Y93609D01*
X240454Y71909D02*
X240946Y72401D01*
X241930D01*
X242422Y71909D01*
Y71417D01*
X241930Y70925D01*
X241438D01*
X241930D01*
X242422Y70434D01*
Y69942D01*
X241930Y69450D01*
X240946D01*
X240454Y69942D01*
X243406Y71909D02*
X243898Y72401D01*
X244882D01*
X245374Y71909D01*
Y71417D01*
X244882Y70925D01*
X244390D01*
X244882D01*
X245374Y70434D01*
Y69942D01*
X244882Y69450D01*
X243898D01*
X243406Y69942D01*
X246358Y71909D02*
X246850Y72401D01*
X247834D01*
X248326Y71909D01*
Y71417D01*
X247834Y70925D01*
X247342D01*
X247834D01*
X248326Y70434D01*
Y69942D01*
X247834Y69450D01*
X246850D01*
X246358Y69942D01*
X204254Y29609D02*
X204746Y30101D01*
X205730D01*
X206222Y29609D01*
Y29118D01*
X205730Y28626D01*
X206222Y28134D01*
Y27642D01*
X205730Y27150D01*
X204746D01*
X204254Y27642D01*
Y28134D01*
X204746Y28626D01*
X204254Y29118D01*
Y29609D01*
X204746Y28626D02*
X205730D01*
X209174Y27150D02*
X207206D01*
X209174Y29118D01*
Y29609D01*
X208682Y30101D01*
X207698D01*
X207206Y29609D01*
X210158Y27150D02*
Y30101D01*
Y28134D02*
X211634Y29118D01*
X210158Y28134D02*
X211634Y27150D01*
X214094D02*
X213110Y28134D01*
Y29118D01*
X214094Y30101D01*
X217537Y27150D02*
X215570D01*
X217537Y29118D01*
Y29609D01*
X217045Y30101D01*
X216062D01*
X215570Y29609D01*
X218521Y27150D02*
X219505Y28134D01*
Y29118D01*
X218521Y30101D01*
X203954Y51209D02*
X204446Y51701D01*
X205430D01*
X205922Y51209D01*
Y50718D01*
X205430Y50226D01*
X205922Y49734D01*
Y49242D01*
X205430Y48750D01*
X204446D01*
X203954Y49242D01*
Y49734D01*
X204446Y50226D01*
X203954Y50718D01*
Y51209D01*
X204446Y50226D02*
X205430D01*
X208874Y48750D02*
X206906D01*
X208874Y50718D01*
Y51209D01*
X208382Y51701D01*
X207398D01*
X206906Y51209D01*
X209858Y48750D02*
Y51701D01*
Y49734D02*
X211334Y50718D01*
X209858Y49734D02*
X211334Y48750D01*
X216745D02*
X215762Y49734D01*
Y50718D01*
X216745Y51701D01*
X218221Y48750D02*
X219205D01*
X218713D01*
Y51701D01*
X218221Y51209D01*
X220681Y48750D02*
X221665Y49734D01*
Y50718D01*
X220681Y51701D01*
X169539Y24115D02*
X167571D01*
X169539Y26083D01*
Y26575D01*
X169047Y27066D01*
X168063D01*
X167571Y26575D01*
X172491Y24115D02*
X170523D01*
X172491Y26083D01*
Y26575D01*
X171999Y27066D01*
X171015D01*
X170523Y26575D01*
X173475Y24115D02*
Y27066D01*
Y25099D02*
X174951Y26083D01*
X173475Y25099D02*
X174951Y24115D01*
X177411D02*
X176427Y25099D01*
Y26083D01*
X177411Y27066D01*
X180854Y24115D02*
X178887D01*
X180854Y26083D01*
Y26575D01*
X180362Y27066D01*
X179379D01*
X178887Y26575D01*
X181838Y24115D02*
X182822Y25099D01*
Y26083D01*
X181838Y27066D01*
X171754Y45768D02*
X169786D01*
X171754Y47736D01*
Y48228D01*
X171262Y48720D01*
X170278D01*
X169786Y48228D01*
X174706Y45768D02*
X172738D01*
X174706Y47736D01*
Y48228D01*
X174214Y48720D01*
X173230D01*
X172738Y48228D01*
X175689Y45768D02*
Y48720D01*
Y46752D02*
X177165Y47736D01*
X175689Y46752D02*
X177165Y45768D01*
X179625D02*
X178641Y46752D01*
Y47736D01*
X179625Y48720D01*
X181101Y45768D02*
X182085D01*
X181593D01*
Y48720D01*
X181101Y48228D01*
X183561Y45768D02*
X184545Y46752D01*
Y47736D01*
X183561Y48720D01*
X79233Y57579D02*
X80217D01*
X79725D01*
Y60531D01*
X79233Y60039D01*
X81693D02*
X82185Y60531D01*
X83169D01*
X83661Y60039D01*
Y58071D01*
X83169Y57579D01*
X82185D01*
X81693Y58071D01*
Y60039D01*
X84645Y57579D02*
Y60531D01*
Y58563D02*
X86121Y59547D01*
X84645Y58563D02*
X86121Y57579D01*
X78003Y90059D02*
X76035D01*
Y88583D01*
X77019Y89075D01*
X77511D01*
X78003Y88583D01*
Y87599D01*
X77511Y87107D01*
X76527D01*
X76035Y87599D01*
X78987Y87107D02*
Y87599D01*
X79479D01*
Y87107D01*
X78987D01*
X81447D02*
X82431D01*
X81939D01*
Y90059D01*
X81447Y89567D01*
X83907Y87107D02*
Y90059D01*
Y88091D02*
X85382Y89075D01*
X83907Y88091D02*
X85382Y87107D01*
X43061Y18209D02*
X41093D01*
X43061Y20177D01*
Y20669D01*
X42569Y21161D01*
X41585D01*
X41093Y20669D01*
X44045Y18209D02*
Y21161D01*
Y19193D02*
X45521Y20177D01*
X44045Y19193D02*
X45521Y18209D01*
X236354Y39350D02*
X237338D01*
X236846D01*
Y42301D01*
X236354Y41809D01*
X238814Y39350D02*
Y42301D01*
Y40334D02*
X240290Y41317D01*
X238814Y40334D02*
X240290Y39350D01*
D15*
X2362Y43700D02*
Y42388D01*
X3018Y41732D01*
X3674Y42388D01*
Y43700D01*
X5642Y43372D02*
X5314Y43700D01*
X4658D01*
X4330Y43372D01*
Y42060D01*
X4658Y41732D01*
X5314D01*
X5642Y42060D01*
X7610Y43372D02*
X7282Y43700D01*
X6626D01*
X6298Y43372D01*
Y42060D01*
X6626Y41732D01*
X7282D01*
X7610Y42060D01*
X11218Y43700D02*
X10562D01*
X10234Y43372D01*
Y42060D01*
X10562Y41732D01*
X11218D01*
X11546Y42060D01*
Y43372D01*
X11218Y43700D01*
X12201Y43044D02*
Y42060D01*
X12529Y41732D01*
X13513D01*
Y43044D01*
X14497Y43372D02*
Y43044D01*
X14169D01*
X14825D01*
X14497D01*
Y42060D01*
X14825Y41732D01*
X130315Y3018D02*
Y4330D01*
X130643D01*
X130971Y4002D01*
Y3018D01*
Y4002D01*
X131299Y4330D01*
X131627Y4002D01*
Y3018D01*
X132283Y4330D02*
Y3346D01*
X132611Y3018D01*
X133595D01*
Y4330D01*
X134251D02*
X135563Y3018D01*
X134907Y3674D01*
X135563Y4330D01*
X134251Y3018D01*
X139498Y4986D02*
Y3018D01*
X138514D01*
X138186Y3346D01*
Y4002D01*
X138514Y4330D01*
X139498D01*
X141138Y3018D02*
X140482D01*
X140154Y3346D01*
Y4002D01*
X140482Y4330D01*
X141138D01*
X141466Y4002D01*
Y3674D01*
X140154D01*
X143434Y4330D02*
X142450D01*
X142122Y4002D01*
Y3346D01*
X142450Y3018D01*
X143434D01*
X144418D02*
X145074D01*
X145402Y3346D01*
Y4002D01*
X145074Y4330D01*
X144418D01*
X144090Y4002D01*
Y3346D01*
X144418Y3018D01*
X146058Y4330D02*
Y3346D01*
X146386Y3018D01*
X147370D01*
Y4330D01*
X148026Y2362D02*
Y4330D01*
X149010D01*
X149338Y4002D01*
Y3346D01*
X149010Y3018D01*
X148026D01*
X149994D02*
X150649D01*
X150321D01*
Y4986D01*
X149994D01*
X151633Y3018D02*
X152289D01*
X151961D01*
Y4330D01*
X151633D01*
X153273Y3018D02*
Y4330D01*
X154257D01*
X154585Y4002D01*
Y3018D01*
X155897Y2362D02*
X156225D01*
X156553Y2690D01*
Y4330D01*
X155569D01*
X155241Y4002D01*
Y3346D01*
X155569Y3018D01*
X156553D01*
X75197Y8268D02*
Y10236D01*
X75853Y9580D01*
X76509Y10236D01*
Y8268D01*
X77165Y9580D02*
Y8596D01*
X77493Y8268D01*
X78477D01*
Y9580D01*
X79133D02*
X80445Y8268D01*
X79789Y8924D01*
X80445Y9580D01*
X79133Y8268D01*
X84380Y10236D02*
Y8268D01*
X83396D01*
X83068Y8596D01*
Y9252D01*
X83396Y9580D01*
X84380D01*
X85364D02*
X86020D01*
X86348Y9252D01*
Y8268D01*
X85364D01*
X85036Y8596D01*
X85364Y8924D01*
X86348D01*
X87332Y9908D02*
Y9580D01*
X87004D01*
X87660D01*
X87332D01*
Y8596D01*
X87660Y8268D01*
X88972Y9580D02*
X89628D01*
X89956Y9252D01*
Y8268D01*
X88972D01*
X88644Y8596D01*
X88972Y8924D01*
X89956D01*
M02*
