G04*
G04 #@! TF.GenerationSoftware,Altium Limited,Altium Designer,23.1.1 (15)*
G04*
G04 Layer_Color=8388736*
%FSLAX25Y25*%
%MOIN*%
G70*
G04*
G04 #@! TF.SameCoordinates,588A7164-EE2F-48AB-B3FF-4136EF57982D*
G04*
G04*
G04 #@! TF.FilePolarity,Negative*
G04*
G01*
G75*
G04:AMPARAMS|DCode=17|XSize=61.02mil|YSize=23.62mil|CornerRadius=2.01mil|HoleSize=0mil|Usage=FLASHONLY|Rotation=0.000|XOffset=0mil|YOffset=0mil|HoleType=Round|Shape=RoundedRectangle|*
%AMROUNDEDRECTD17*
21,1,0.06102,0.01961,0,0,0.0*
21,1,0.05701,0.02362,0,0,0.0*
1,1,0.00402,0.02850,-0.00980*
1,1,0.00402,-0.02850,-0.00980*
1,1,0.00402,-0.02850,0.00980*
1,1,0.00402,0.02850,0.00980*
%
%ADD17ROUNDEDRECTD17*%
%ADD18R,0.05339X0.07316*%
%ADD19R,0.05709X0.03740*%
%ADD23R,0.03764X0.06528*%
%ADD24R,0.04551X0.06922*%
%ADD25R,0.06528X0.03764*%
%ADD29R,0.07087X0.05512*%
%ADD30R,0.02985X0.03394*%
%ADD32R,0.04934X0.07493*%
%ADD33R,0.04343X0.03950*%
G04:AMPARAMS|DCode=34|XSize=33.59mil|YSize=72.96mil|CornerRadius=5.92mil|HoleSize=0mil|Usage=FLASHONLY|Rotation=90.000|XOffset=0mil|YOffset=0mil|HoleType=Round|Shape=RoundedRectangle|*
%AMROUNDEDRECTD34*
21,1,0.03359,0.06112,0,0,90.0*
21,1,0.02175,0.07296,0,0,90.0*
1,1,0.01184,0.03056,0.01088*
1,1,0.01184,0.03056,-0.01088*
1,1,0.01184,-0.03056,-0.01088*
1,1,0.01184,-0.03056,0.01088*
%
%ADD34ROUNDEDRECTD34*%
%ADD35R,0.04343X0.07099*%
%ADD36R,0.04934X0.16942*%
%ADD37R,0.41942X0.38595*%
%ADD38R,0.04147X0.03753*%
%ADD39R,0.11430X0.05524*%
%ADD40C,0.06800*%
%ADD41C,0.05800*%
D17*
X187795Y82303D02*
D03*
Y77303D02*
D03*
Y72303D02*
D03*
Y67303D02*
D03*
X166535D02*
D03*
Y72303D02*
D03*
Y77303D02*
D03*
Y82303D02*
D03*
D18*
X183174Y15748D02*
D03*
X171157D02*
D03*
X185142Y35433D02*
D03*
X173126D02*
D03*
X33362Y9843D02*
D03*
X45378D02*
D03*
D19*
X139764Y74902D02*
D03*
Y82579D02*
D03*
X125984Y80319D02*
D03*
Y72642D02*
D03*
D23*
X73519Y51181D02*
D03*
X83961D02*
D03*
D24*
X207275Y19685D02*
D03*
X218504D02*
D03*
X218213Y41339D02*
D03*
X206984D02*
D03*
D25*
X76772Y69582D02*
D03*
Y80024D02*
D03*
D29*
X232284Y81890D02*
D03*
Y71653D02*
D03*
D30*
X247063Y62992D02*
D03*
X242126D02*
D03*
D32*
X208957Y64961D02*
D03*
X220177D02*
D03*
D33*
X98425Y74606D02*
D03*
Y67126D02*
D03*
X106299Y70866D02*
D03*
D34*
X125295Y20433D02*
D03*
Y25433D02*
D03*
Y30433D02*
D03*
Y35433D02*
D03*
Y40433D02*
D03*
Y45433D02*
D03*
Y50433D02*
D03*
X103051Y20433D02*
D03*
Y25433D02*
D03*
Y30433D02*
D03*
Y35433D02*
D03*
Y40433D02*
D03*
Y45433D02*
D03*
Y50433D02*
D03*
D35*
X142323Y57087D02*
D03*
X152953D02*
D03*
D36*
X33307Y34055D02*
D03*
X53307D02*
D03*
D37*
X43307Y73228D02*
D03*
D38*
X11811Y61516D02*
D03*
Y56594D02*
D03*
D39*
X242126Y21850D02*
D03*
Y33268D02*
D03*
D40*
X7874Y37402D02*
D03*
X141732Y9843D02*
D03*
X244094Y78740D02*
D03*
Y88583D02*
D03*
X78740Y15748D02*
D03*
X104331Y88583D02*
D03*
X7874Y15748D02*
D03*
Y82677D02*
D03*
D41*
X88583Y76772D02*
D03*
X112205Y78740D02*
D03*
X102362Y11811D02*
D03*
X133858Y62992D02*
D03*
X125984Y64961D02*
D03*
X175197Y76772D02*
D03*
X165354Y57087D02*
D03*
Y90551D02*
D03*
X188976Y57087D02*
D03*
X84646Y35433D02*
D03*
X145669Y29528D02*
D03*
X151575Y23622D02*
D03*
X137795D02*
D03*
X198819Y9843D02*
D03*
X147638Y90551D02*
D03*
X159449Y23622D02*
D03*
X153543Y66929D02*
D03*
X125984Y94488D02*
D03*
X228346Y11614D02*
D03*
X234252Y51181D02*
D03*
X157480Y41339D02*
D03*
X68898Y66929D02*
D03*
M02*
