G04*
G04 #@! TF.GenerationSoftware,Altium Limited,Altium Designer,23.1.1 (15)*
G04*
G04 Layer_Physical_Order=1*
G04 Layer_Color=255*
%FSLAX25Y25*%
%MOIN*%
G70*
G04*
G04 #@! TF.SameCoordinates,E5AF2557-88D3-4AEC-9E31-4A92A601E51B*
G04*
G04*
G04 #@! TF.FilePolarity,Positive*
G04*
G01*
G75*
%ADD15R,0.05709X0.03740*%
G04:AMPARAMS|DCode=16|XSize=25.59mil|YSize=64.96mil|CornerRadius=1.92mil|HoleSize=0mil|Usage=FLASHONLY|Rotation=90.000|XOffset=0mil|YOffset=0mil|HoleType=Round|Shape=RoundedRectangle|*
%AMROUNDEDRECTD16*
21,1,0.02559,0.06112,0,0,90.0*
21,1,0.02175,0.06496,0,0,90.0*
1,1,0.00384,0.03056,0.01088*
1,1,0.00384,0.03056,-0.01088*
1,1,0.00384,-0.03056,-0.01088*
1,1,0.00384,-0.03056,0.01088*
%
%ADD16ROUNDEDRECTD16*%
%ADD17R,0.03543X0.06299*%
%ADD18R,0.03764X0.06528*%
%ADD19R,0.05339X0.07316*%
%ADD20R,0.04551X0.06922*%
%ADD21R,0.06128X0.01803*%
G04:AMPARAMS|DCode=22|XSize=61.28mil|YSize=18.03mil|CornerRadius=9.02mil|HoleSize=0mil|Usage=FLASHONLY|Rotation=0.000|XOffset=0mil|YOffset=0mil|HoleType=Round|Shape=RoundedRectangle|*
%AMROUNDEDRECTD22*
21,1,0.06128,0.00000,0,0,0.0*
21,1,0.04325,0.01803,0,0,0.0*
1,1,0.01803,0.02162,0.00000*
1,1,0.01803,-0.02162,0.00000*
1,1,0.01803,-0.02162,0.00000*
1,1,0.01803,0.02162,0.00000*
%
%ADD22ROUNDEDRECTD22*%
%ADD23R,0.06528X0.03764*%
%ADD24R,0.04134X0.16142*%
%ADD25R,0.41142X0.37795*%
%ADD26R,0.03347X0.02953*%
%ADD27R,0.04156X0.06528*%
%ADD28R,0.07087X0.05512*%
%ADD29R,0.02985X0.03394*%
%ADD30R,0.10630X0.04724*%
%ADD41C,0.01000*%
%ADD42C,0.06000*%
%ADD43C,0.04134*%
%ADD44R,0.04134X0.04134*%
%ADD45C,0.05000*%
D15*
X145669Y82579D02*
D03*
Y74902D02*
D03*
X125984Y80319D02*
D03*
Y72642D02*
D03*
D16*
X125295Y20433D02*
D03*
Y25433D02*
D03*
Y30433D02*
D03*
Y35433D02*
D03*
Y40433D02*
D03*
Y45433D02*
D03*
Y50433D02*
D03*
X103051Y20433D02*
D03*
Y25433D02*
D03*
Y30433D02*
D03*
Y35433D02*
D03*
Y40433D02*
D03*
Y45433D02*
D03*
Y50433D02*
D03*
D17*
X142323Y57087D02*
D03*
X152953D02*
D03*
D18*
X73519Y51181D02*
D03*
X83961D02*
D03*
D19*
X33362Y11811D02*
D03*
X45378D02*
D03*
X169189Y43307D02*
D03*
X181205D02*
D03*
X171157Y15748D02*
D03*
X183174D02*
D03*
D20*
X207275Y19685D02*
D03*
X218504D02*
D03*
X214276Y43307D02*
D03*
X203047D02*
D03*
D21*
X168894Y86516D02*
D03*
D22*
Y83957D02*
D03*
Y81398D02*
D03*
Y78839D02*
D03*
X185436D02*
D03*
Y81398D02*
D03*
Y83957D02*
D03*
Y86516D02*
D03*
D23*
X78740Y69582D02*
D03*
Y80024D02*
D03*
D24*
X33307Y34055D02*
D03*
X53307D02*
D03*
D25*
X43307Y73228D02*
D03*
D26*
X11811Y61516D02*
D03*
Y56594D02*
D03*
D27*
X207781Y68898D02*
D03*
X197731D02*
D03*
D28*
X220473Y79921D02*
D03*
Y69685D02*
D03*
D29*
X239189Y62992D02*
D03*
X234252D02*
D03*
D30*
Y21654D02*
D03*
Y33071D02*
D03*
D41*
X7874Y37402D02*
X13194D01*
X13780Y35433D02*
Y36816D01*
X13194Y37402D02*
X13780Y36816D01*
Y35433D02*
X27224Y21988D01*
X47244D01*
X53307Y28051D01*
Y34055D01*
X92520Y35433D02*
X94488Y33465D01*
Y30433D02*
X104724D01*
X85551D02*
X94488D01*
X88583Y35433D02*
X92520D01*
X94488Y30433D02*
Y33465D01*
X133241Y55118D02*
X134941D01*
X98425Y35433D02*
X104724D01*
X144484Y84355D02*
X145669D01*
X123622Y30433D02*
X126976D01*
X123622Y50433D02*
X152795D01*
X123622Y40433D02*
X150989D01*
X123622Y20433D02*
X152795D01*
X123622D02*
Y25433D01*
Y45433D02*
X157402D01*
X234252Y31299D02*
Y51181D01*
X123622Y35433D02*
X131890D01*
X220280Y21850D02*
X234252D01*
X78740Y84864D02*
X80491Y86614D01*
X106299D01*
X78740Y80024D02*
Y84864D01*
X165118Y53150D02*
X179134D01*
X157402Y45433D02*
X165118Y53150D01*
X103051Y20433D02*
Y25433D01*
X95074D02*
X103051D01*
X107362Y70866D02*
X114173D01*
X118110Y66929D01*
X136909Y57087D02*
X142323D01*
X134941Y55118D02*
X136909Y57087D01*
X118110Y57672D02*
Y66929D01*
Y57672D02*
X118696Y57087D01*
X131272D02*
X133241Y55118D01*
X118696Y57087D02*
X131272D01*
X78740Y69582D02*
X96078D01*
X97362Y70866D01*
X200787Y88583D02*
X236221D01*
X7874Y15748D02*
X11811Y11811D01*
X240158Y63961D02*
Y72835D01*
X239189Y62992D02*
X240158Y63961D01*
X159844Y90488D02*
X165417D01*
X157480Y93559D02*
Y94488D01*
X159844Y90488D02*
Y91195D01*
X157480Y93559D02*
X159844Y91195D01*
X228346Y11614D02*
X232283Y15551D01*
Y19685D01*
X218504Y20075D02*
Y29528D01*
Y20075D02*
X220280Y21850D01*
X218504Y19685D02*
Y20075D01*
X57086Y11811D02*
X62992Y5906D01*
X244094D02*
X248031Y9843D01*
X62992Y5906D02*
X244094D01*
X196850Y19685D02*
X205307D01*
X234055Y19488D02*
X234252Y19685D01*
X220473Y30113D02*
Y69685D01*
X149606Y37402D02*
X159449Y27559D01*
Y25591D02*
Y27559D01*
X133858Y37402D02*
X149606D01*
X131890Y35433D02*
X133858Y37402D01*
X139764Y33465D02*
X145669D01*
X137795Y31496D02*
X139764Y33465D01*
X128039Y31496D02*
X137795D01*
X126976Y30433D02*
X128039Y31496D01*
X234252Y51181D02*
Y62992D01*
X236221Y78740D02*
X240158Y72835D01*
X185039Y70866D02*
Y78468D01*
X185410Y78839D01*
X185436D01*
X161417Y61024D02*
X165354Y64961D01*
X193794D02*
X197731Y68898D01*
X165354Y64961D02*
X193794D01*
X159449Y84646D02*
X160531D01*
X162500Y82677D01*
X168740Y81244D02*
X168894Y81398D01*
X163386Y78740D02*
X165890Y81244D01*
X161417Y76772D02*
Y78154D01*
X165890Y81244D02*
X168740D01*
X162003Y78740D02*
X163386D01*
X161417Y78154D02*
X162003Y78740D01*
X164512Y83803D02*
X168740D01*
X168894Y83957D01*
X163386Y82677D02*
X164512Y83803D01*
X162500Y82677D02*
X163386D01*
X153543Y77357D02*
X154129Y76772D01*
X153543Y77357D02*
Y86614D01*
X150372Y89786D02*
X153543Y86614D01*
X154129Y76772D02*
X161417D01*
X149606Y92520D02*
X150372Y91754D01*
Y89786D02*
Y91754D01*
X165417Y90488D02*
X166330Y89575D01*
X51181Y11811D02*
X57086D01*
X45378D02*
X51181D01*
X247446Y94488D02*
X248031Y93902D01*
X173228Y94488D02*
X247446D01*
X248031Y9843D02*
Y93902D01*
X196161Y83957D02*
X200787Y88583D01*
X207781Y79621D02*
X220172D01*
X220473Y79921D01*
X166732Y86516D02*
X168894D01*
X166330Y86917D02*
X166732Y86516D01*
X166330Y86917D02*
Y89575D01*
X103347Y92520D02*
X106299Y86614D01*
X68004Y91626D02*
X68898Y92520D01*
X103347D01*
X43307Y73228D02*
X61705Y91626D01*
X68004D01*
X31594Y61516D02*
X43307Y73228D01*
X152957Y66929D02*
X159449D01*
X148524Y27559D02*
X149606D01*
X142334Y29528D02*
X146555D01*
X148524Y27559D01*
X161417Y57087D02*
Y61024D01*
X156895Y51181D02*
X157480Y51767D01*
Y53150D01*
X161417Y57087D01*
X153543Y51181D02*
X156895D01*
X152795Y50433D02*
X153543Y51181D01*
X140365Y27559D02*
X142334Y29528D01*
X135827Y27559D02*
X140365D01*
X90551Y43307D02*
Y58469D01*
Y43307D02*
X98425Y35433D01*
X134350Y94488D02*
X144484Y84355D01*
X125984Y82095D02*
Y94488D01*
X134350D01*
X125984Y62701D02*
Y70866D01*
X157480Y41339D02*
X167220D01*
X169189Y43307D01*
X94488Y15748D02*
Y24847D01*
X95074Y25433D01*
X185436Y81398D02*
X206004D01*
X207781Y79621D01*
Y68898D02*
Y79621D01*
X150989Y40433D02*
X151575Y39847D01*
Y39370D02*
Y39847D01*
Y39370D02*
X157480Y33465D01*
X181102D01*
X183174Y31393D01*
Y15748D02*
Y31393D01*
X179134Y53150D02*
X181205Y51078D01*
Y43307D02*
Y51078D01*
X152953Y57087D02*
X152957Y57091D01*
X147638Y66929D02*
X152957D01*
Y57091D02*
Y66929D01*
X145669Y68898D02*
X147638Y66929D01*
X145669Y68898D02*
Y73126D01*
X171157Y15748D02*
X171260Y15851D01*
X181205Y43307D02*
X203047D01*
X197731Y58174D02*
Y68898D01*
Y58174D02*
X198819Y57087D01*
X208661D01*
X214276Y43307D02*
Y51472D01*
X208661Y57087D02*
X214276Y51472D01*
X192913Y15748D02*
X196850Y19685D01*
X183174Y15748D02*
X192913D01*
X218504Y29528D02*
X219887D01*
X220473Y30113D01*
X185436Y83957D02*
X196161D01*
X157480Y15748D02*
X171157D01*
X152795Y20433D02*
X157480Y15748D01*
X68898Y51767D02*
Y66929D01*
Y51767D02*
X69484Y51181D01*
X73519D01*
Y49799D02*
Y51181D01*
Y57771D01*
X74803Y59055D02*
X89965D01*
X90551Y58469D01*
X73519Y57771D02*
X74803Y59055D01*
X78740Y23622D02*
X85551Y30433D01*
X78740Y15748D02*
Y23622D01*
X7874Y78740D02*
Y82677D01*
X3937Y59055D02*
Y74803D01*
X7874Y78740D01*
X82579Y49799D02*
X83961Y51181D01*
X82579Y43795D02*
Y49799D01*
X82091Y43307D02*
X82579Y43795D01*
X74803Y42721D02*
X75389Y43307D01*
X82091D01*
X74803Y35433D02*
Y42721D01*
X51181Y11811D02*
X74803Y35433D01*
X57775Y34055D02*
X73519Y49799D01*
X53307Y34055D02*
X57775D01*
X11811Y11811D02*
X33362D01*
X6398Y56594D02*
X11811D01*
X3937Y59055D02*
X6398Y56594D01*
X33307Y34055D02*
Y40059D01*
X31740Y41626D02*
X33307Y40059D01*
X21366Y41626D02*
X31740D01*
X11811Y51181D02*
X21366Y41626D01*
X11811Y51181D02*
Y56594D01*
Y61516D02*
X31594D01*
D42*
X7874Y37402D02*
D03*
X141732Y11811D02*
D03*
X236221Y78740D02*
D03*
Y88583D02*
D03*
X78740Y15748D02*
D03*
X106299Y86614D02*
D03*
X7874Y15748D02*
D03*
Y82677D02*
D03*
D43*
X107362Y70866D02*
D03*
X102362D02*
D03*
D44*
X97362D02*
D03*
D45*
X133858Y55118D02*
D03*
X125984Y94488D02*
D03*
X157480D02*
D03*
X228346Y11614D02*
D03*
X159449Y25591D02*
D03*
X145669Y33465D02*
D03*
X234252Y51181D02*
D03*
X185039Y70866D02*
D03*
X159449Y84646D02*
D03*
X173228Y94488D02*
D03*
X149606Y92520D02*
D03*
X159449Y66929D02*
D03*
X149606Y27559D02*
D03*
X135827D02*
D03*
X88583Y35433D02*
D03*
X125984Y62701D02*
D03*
X157480Y41339D02*
D03*
X94488Y15748D02*
D03*
X68898Y66929D02*
D03*
M02*
