M48
;Layer_Color=9474304
;FILE_FORMAT=2:5
INCH,TZ
;TYPE=PLATED
T1F00S00C0.02800
T2F00S00C0.03000
%
T01
X137795Y23622
X145669Y29528
X151575Y23622
X159449
X157480Y41339
X165354Y57087
X153543Y66929
X147638Y90551
X165354
X175197Y76772
X188976Y57087
X234252Y51181
X228346Y11614
X198819Y9843
X102362Y11811
X84646Y35433
X88583Y76772
X112205Y78740
X125984Y64961
X133858Y62992
X125984Y94488
X68898Y66929
T02
X141732Y9843
X244094Y78740
Y88583
X104331
X78740Y15748
X7874
X7874Y37402
X7874Y82677
M30
