M48
;Layer_Color=9474304
;FILE_FORMAT=2:5
INCH,TZ
;TYPE=PLATED
T1F00S00C0.02800
T2F00S00C0.03000
T3F00S00C0.03150
%
T01
X135827Y27559
X149606
X145669Y33465
X157480Y41339
X159449Y25591
Y66929
Y84646
X157480Y94488
X149606Y92520
X173228Y94488
X185039Y70866
X234252Y51181
X228346Y11614
X133858Y55118
X125984Y62701
Y94488
X68898Y66929
X88583Y35433
X94488Y15748
T02
X141732Y11811
X236221Y78740
Y88583
X106299Y86614
X78740Y15748
X7874
X7874Y37402
X7874Y82677
T03
X97362Y70866
X102362
X107362
M30
