G04*
G04 #@! TF.GenerationSoftware,Altium Limited,Altium Designer,23.1.1 (15)*
G04*
G04 Layer_Physical_Order=2*
G04 Layer_Color=16711680*
%FSLAX25Y25*%
%MOIN*%
G70*
G04*
G04 #@! TF.SameCoordinates,E5AF2557-88D3-4AEC-9E31-4A92A601E51B*
G04*
G04*
G04 #@! TF.FilePolarity,Positive*
G04*
G01*
G75*
%ADD41C,0.01000*%
%ADD42C,0.06000*%
%ADD43C,0.04134*%
%ADD44R,0.04134X0.04134*%
%ADD45C,0.05000*%
D41*
X124902Y61024D02*
X125984D01*
X201373Y11811D02*
X228346D01*
X86614Y64961D02*
Y80709D01*
X92520Y86614D01*
X106299D01*
X161417Y53150D02*
Y64343D01*
X159449Y66312D02*
Y66929D01*
X145669Y33465D02*
Y37402D01*
X161417Y53150D01*
X159449Y66312D02*
X161417Y64343D01*
X134444Y43307D02*
X135827D01*
X133858Y43893D02*
X134444Y43307D01*
X135827D02*
X141732Y37402D01*
Y11811D02*
Y37402D01*
X133858Y43893D02*
Y54947D01*
X97362Y70866D02*
Y77677D01*
X67515Y61024D02*
X82677D01*
X86614Y64961D01*
X66929Y5906D02*
Y60438D01*
X67515Y61024D01*
X66929Y5906D02*
X68898Y3937D01*
X167323D01*
X161417Y90551D02*
Y92520D01*
X163386Y94488D02*
X173228D01*
X161417Y92520D02*
X163386Y94488D01*
X159449Y88583D02*
X161417Y90551D01*
X151575Y89934D02*
X152926D01*
X157480Y94488D01*
X198819Y9257D02*
X201373Y11811D01*
X198819Y4523D02*
Y9257D01*
X167323Y3937D02*
X198233D01*
X198819Y4523D01*
X159449Y11811D02*
X167323Y3937D01*
X159449Y11811D02*
Y25591D01*
X224410Y53150D02*
X226378Y51181D01*
X234252D01*
X190945Y53150D02*
X224410D01*
X185039Y59055D02*
X190945Y53150D01*
X185039Y59055D02*
Y70866D01*
X159449Y84646D02*
Y88583D01*
X150400Y80709D02*
X151575Y81883D01*
Y89934D01*
X132475Y80709D02*
X150400D01*
X146555Y94488D02*
X148524Y92520D01*
X149606D01*
X139764Y94488D02*
X146555D01*
X133858Y88583D02*
X139764Y94488D01*
X116727Y88583D02*
X133858D01*
X116142Y81294D02*
Y87997D01*
X116727Y88583D01*
X100394Y80709D02*
X115556D01*
X116142Y81294D01*
X97362Y77677D02*
X100394Y80709D01*
X131890Y80123D02*
X132475Y80709D01*
X131890Y79326D02*
Y80123D01*
X102948Y78740D02*
X131304D01*
X131890Y79326D01*
X102362Y70866D02*
Y78154D01*
X102948Y78740D01*
X149606Y27559D02*
X149701Y27654D01*
X153606D02*
X157480Y31528D01*
X149701Y27654D02*
X153606D01*
X133273Y11811D02*
X135827Y14365D01*
Y27559D01*
X94488Y45276D02*
Y55118D01*
X98425Y59055D01*
X88646Y35496D02*
Y39433D01*
X94488Y45276D01*
X88583Y35433D02*
X88646Y35496D01*
X78740Y94488D02*
X125984D01*
X68898Y84646D02*
X78740Y94488D01*
X122933Y59055D02*
X124902Y61024D01*
X98425Y59055D02*
X122933D01*
X157480Y31528D02*
Y41339D01*
X98425Y11811D02*
X133273D01*
X94488Y15748D02*
X98425Y11811D01*
X68898Y66929D02*
Y84646D01*
D42*
X7874Y37402D02*
D03*
X141732Y11811D02*
D03*
X236221Y78740D02*
D03*
Y88583D02*
D03*
X78740Y15748D02*
D03*
X106299Y86614D02*
D03*
X7874Y15748D02*
D03*
Y82677D02*
D03*
D43*
X107362Y70866D02*
D03*
X102362D02*
D03*
D44*
X97362D02*
D03*
D45*
X133858Y55118D02*
D03*
X125984Y94488D02*
D03*
X157480D02*
D03*
X228346Y11614D02*
D03*
X159449Y25591D02*
D03*
X145669Y33465D02*
D03*
X234252Y51181D02*
D03*
X185039Y70866D02*
D03*
X159449Y84646D02*
D03*
X173228Y94488D02*
D03*
X149606Y92520D02*
D03*
X159449Y66929D02*
D03*
X149606Y27559D02*
D03*
X135827D02*
D03*
X88583Y35433D02*
D03*
X125984Y62701D02*
D03*
X157480Y41339D02*
D03*
X94488Y15748D02*
D03*
X68898Y66929D02*
D03*
M02*
