G04*
G04 #@! TF.GenerationSoftware,Altium Limited,Altium Designer,23.1.1 (15)*
G04*
G04 Layer_Color=65535*
%FSLAX25Y25*%
%MOIN*%
G70*
G04*
G04 #@! TF.SameCoordinates,E5AF2557-88D3-4AEC-9E31-4A92A601E51B*
G04*
G04*
G04 #@! TF.FilePolarity,Positive*
G04*
G01*
G75*
%ADD10C,0.02362*%
%ADD11C,0.00984*%
%ADD12C,0.00787*%
%ADD13C,0.00591*%
%ADD14C,0.00394*%
D10*
X112992Y48819D02*
G03*
X112992Y48819I-1181J0D01*
G01*
D11*
X103543Y53878D02*
G03*
X103543Y53878I-492J0D01*
G01*
X91240Y70866D02*
G03*
X91240Y70866I-492J0D01*
G01*
X164157Y86516D02*
G03*
X164157Y86516I-492J0D01*
G01*
X29567Y34055D02*
G03*
X29567Y34055I-492J0D01*
G01*
D12*
X109976Y65610D02*
G03*
X94749Y65608I-7614J5257D01*
G01*
X148425Y78248D02*
Y79232D01*
X142913Y78248D02*
Y79232D01*
X128740Y75989D02*
Y76973D01*
X123228Y75989D02*
Y76973D01*
X107874Y18209D02*
X120473D01*
X107874Y52657D02*
X120473D01*
Y18209D02*
Y52657D01*
X107874Y18209D02*
Y52657D01*
X94749Y65610D02*
X109975D01*
X76878Y54331D02*
X80603D01*
X76878Y48031D02*
X80603D01*
X37508Y14961D02*
X41232D01*
X37508Y8661D02*
X41232D01*
X211027Y22835D02*
X214752D01*
X211027Y16535D02*
X214752D01*
X173434Y88583D02*
X180896D01*
X173434Y76772D02*
X180896D01*
X173335Y46457D02*
X177059D01*
X173335Y40157D02*
X177059D01*
X175303Y18898D02*
X179028D01*
X175303Y12598D02*
X179028D01*
X75590Y72941D02*
Y76666D01*
X81890Y72941D02*
Y76666D01*
X22835Y47638D02*
Y52756D01*
X63779Y47638D02*
Y52756D01*
X22835Y47638D02*
X63779D01*
X145669Y59843D02*
X149606D01*
X145669Y54331D02*
X149606D01*
X206799Y40157D02*
X210524D01*
X206799Y46457D02*
X210524D01*
X200991Y72343D02*
X204521D01*
X200991Y65453D02*
X204521D01*
X219488Y85236D02*
X221457D01*
X220473Y84252D02*
Y86220D01*
X224016Y73917D02*
Y75689D01*
X216929Y73917D02*
Y75689D01*
X232759Y66437D02*
X240681D01*
X232759Y59547D02*
X240681D01*
X229331Y25591D02*
Y29134D01*
X239173Y25591D02*
Y29134D01*
D13*
X2559Y90649D02*
X4527D01*
X3543Y91633D02*
Y89665D01*
X5511Y89173D02*
X6495D01*
X6003D01*
Y92125D01*
X5511Y91633D01*
X9939Y92125D02*
X7971D01*
Y90649D01*
X8955Y91141D01*
X9447D01*
X9939Y90649D01*
Y89665D01*
X9447Y89173D01*
X8463D01*
X7971Y89665D01*
X10922Y92125D02*
Y90157D01*
X11906Y89173D01*
X12890Y90157D01*
Y92125D01*
X241240Y77362D02*
X242224D01*
X242716Y77854D01*
Y78838D01*
X242224Y79330D01*
X241240D01*
X240748Y78838D01*
Y77854D01*
X241240Y77362D01*
X243700Y79330D02*
Y77854D01*
X244192Y77362D01*
X245668D01*
Y79330D01*
X247144Y79822D02*
Y79330D01*
X246652D01*
X247636D01*
X247144D01*
Y77854D01*
X247636Y77362D01*
X249112Y78838D02*
X251079D01*
X250095Y79822D02*
Y77854D01*
X241240Y87205D02*
X242224D01*
X242716Y87697D01*
Y88681D01*
X242224Y89173D01*
X241240D01*
X240748Y88681D01*
Y87697D01*
X241240Y87205D01*
X243700Y89173D02*
Y87697D01*
X244192Y87205D01*
X245668D01*
Y89173D01*
X247144Y89665D02*
Y89173D01*
X246652D01*
X247636D01*
X247144D01*
Y87697D01*
X247636Y87205D01*
X249112Y88681D02*
X251079D01*
X104921Y93602D02*
X104429Y94094D01*
X103445D01*
X102953Y93602D01*
Y91634D01*
X103445Y91142D01*
X104429D01*
X104921Y91634D01*
Y92618D01*
X103937D01*
X105904Y91142D02*
Y94094D01*
X107872Y91142D01*
Y94094D01*
X108856D02*
Y91142D01*
X110332D01*
X110824Y91634D01*
Y93602D01*
X110332Y94094D01*
X108856D01*
X4528Y23720D02*
X6495D01*
X7479Y22244D02*
X8463D01*
X7971D01*
Y25196D01*
X7479Y24704D01*
X11907Y25196D02*
X9939D01*
Y23720D01*
X10923Y24212D01*
X11415D01*
X11907Y23720D01*
Y22736D01*
X11415Y22244D01*
X10431D01*
X9939Y22736D01*
X12891Y25196D02*
Y23228D01*
X13875Y22244D01*
X14859Y23228D01*
Y25196D01*
X140654Y63550D02*
Y66501D01*
X142130D01*
X142622Y66009D01*
Y65026D01*
X142130Y64534D01*
X140654D01*
X141638D02*
X142622Y63550D01*
X143606Y66009D02*
X144098Y66501D01*
X145082D01*
X145574Y66009D01*
Y65517D01*
X145082Y65026D01*
X144590D01*
X145082D01*
X145574Y64534D01*
Y64042D01*
X145082Y63550D01*
X144098D01*
X143606Y64042D01*
X141454Y90550D02*
Y93501D01*
X142930D01*
X143422Y93010D01*
Y92026D01*
X142930Y91534D01*
X141454D01*
X142438D02*
X143422Y90550D01*
X146374D02*
X144406D01*
X146374Y92518D01*
Y93010D01*
X145882Y93501D01*
X144898D01*
X144406Y93010D01*
X120079Y86816D02*
Y89768D01*
X121555D01*
X122047Y89276D01*
Y88292D01*
X121555Y87800D01*
X120079D01*
X121063D02*
X122047Y86816D01*
X123031D02*
X124015D01*
X123523D01*
Y89768D01*
X123031Y89276D01*
X12122Y68510D02*
X11630Y69001D01*
X10646D01*
X10154Y68510D01*
Y66542D01*
X10646Y66050D01*
X11630D01*
X12122Y66542D01*
X15074Y66050D02*
X13106D01*
X15074Y68018D01*
Y68510D01*
X14582Y69001D01*
X13598D01*
X13106Y68510D01*
X218722Y91710D02*
X218230Y92201D01*
X217246D01*
X216754Y91710D01*
Y89742D01*
X217246Y89250D01*
X218230D01*
X218722Y89742D01*
X219706Y89250D02*
X220690D01*
X220198D01*
Y92201D01*
X219706Y91710D01*
X195454Y78210D02*
X195946Y78701D01*
X196930D01*
X197422Y78210D01*
Y77718D01*
X196930Y77226D01*
X197422Y76734D01*
Y76242D01*
X196930Y75750D01*
X195946D01*
X195454Y76242D01*
Y76734D01*
X195946Y77226D01*
X195454Y77718D01*
Y78210D01*
X195946Y77226D02*
X196930D01*
X198406Y78210D02*
X198898Y78701D01*
X199882D01*
X200374Y78210D01*
Y76242D01*
X199882Y75750D01*
X198898D01*
X198406Y76242D01*
Y78210D01*
X201358D02*
X201850Y78701D01*
X202834D01*
X203326Y78210D01*
Y76242D01*
X202834Y75750D01*
X201850D01*
X201358Y76242D01*
Y78210D01*
X232554Y71909D02*
X233046Y72401D01*
X234030D01*
X234522Y71909D01*
Y71417D01*
X234030Y70925D01*
X233538D01*
X234030D01*
X234522Y70434D01*
Y69942D01*
X234030Y69450D01*
X233046D01*
X232554Y69942D01*
X235506Y71909D02*
X235998Y72401D01*
X236982D01*
X237474Y71909D01*
Y71417D01*
X236982Y70925D01*
X236490D01*
X236982D01*
X237474Y70434D01*
Y69942D01*
X236982Y69450D01*
X235998D01*
X235506Y69942D01*
X238458Y71909D02*
X238950Y72401D01*
X239934D01*
X240426Y71909D01*
Y71417D01*
X239934Y70925D01*
X239442D01*
X239934D01*
X240426Y70434D01*
Y69942D01*
X239934Y69450D01*
X238950D01*
X238458Y69942D01*
X204254Y29609D02*
X204746Y30101D01*
X205730D01*
X206222Y29609D01*
Y29118D01*
X205730Y28626D01*
X206222Y28134D01*
Y27642D01*
X205730Y27150D01*
X204746D01*
X204254Y27642D01*
Y28134D01*
X204746Y28626D01*
X204254Y29118D01*
Y29609D01*
X204746Y28626D02*
X205730D01*
X209174Y27150D02*
X207206D01*
X209174Y29118D01*
Y29609D01*
X208682Y30101D01*
X207698D01*
X207206Y29609D01*
X210158Y27150D02*
Y30101D01*
Y28134D02*
X211634Y29118D01*
X210158Y28134D02*
X211634Y27150D01*
X214094D02*
X213110Y28134D01*
Y29118D01*
X214094Y30101D01*
X217537Y27150D02*
X215570D01*
X217537Y29118D01*
Y29609D01*
X217045Y30101D01*
X216062D01*
X215570Y29609D01*
X218521Y27150D02*
X219505Y28134D01*
Y29118D01*
X218521Y30101D01*
X199954Y53210D02*
X200446Y53701D01*
X201430D01*
X201922Y53210D01*
Y52718D01*
X201430Y52226D01*
X201922Y51734D01*
Y51242D01*
X201430Y50750D01*
X200446D01*
X199954Y51242D01*
Y51734D01*
X200446Y52226D01*
X199954Y52718D01*
Y53210D01*
X200446Y52226D02*
X201430D01*
X204874Y50750D02*
X202906D01*
X204874Y52718D01*
Y53210D01*
X204382Y53701D01*
X203398D01*
X202906Y53210D01*
X205858Y50750D02*
Y53701D01*
Y51734D02*
X207334Y52718D01*
X205858Y51734D02*
X207334Y50750D01*
X212745D02*
X211762Y51734D01*
Y52718D01*
X212745Y53701D01*
X214221Y50750D02*
X215205D01*
X214713D01*
Y53701D01*
X214221Y53210D01*
X216681Y50750D02*
X217665Y51734D01*
Y52718D01*
X216681Y53701D01*
X168722Y24350D02*
X166754D01*
X168722Y26318D01*
Y26809D01*
X168230Y27301D01*
X167246D01*
X166754Y26809D01*
X171674Y24350D02*
X169706D01*
X171674Y26318D01*
Y26809D01*
X171182Y27301D01*
X170198D01*
X169706Y26809D01*
X172658Y24350D02*
Y27301D01*
Y25333D02*
X174134Y26318D01*
X172658Y25333D02*
X174134Y24350D01*
X176594D02*
X175610Y25333D01*
Y26318D01*
X176594Y27301D01*
X180037Y24350D02*
X178070D01*
X180037Y26318D01*
Y26809D01*
X179545Y27301D01*
X178562D01*
X178070Y26809D01*
X181021Y24350D02*
X182005Y25333D01*
Y26318D01*
X181021Y27301D01*
X166722Y51950D02*
X164754D01*
X166722Y53917D01*
Y54409D01*
X166230Y54901D01*
X165246D01*
X164754Y54409D01*
X169674Y51950D02*
X167706D01*
X169674Y53917D01*
Y54409D01*
X169182Y54901D01*
X168198D01*
X167706Y54409D01*
X170658Y51950D02*
Y54901D01*
Y52934D02*
X172134Y53917D01*
X170658Y52934D02*
X172134Y51950D01*
X174594D02*
X173610Y52934D01*
Y53917D01*
X174594Y54901D01*
X176070Y51950D02*
X177053D01*
X176562D01*
Y54901D01*
X176070Y54409D01*
X178529Y51950D02*
X179513Y52934D01*
Y53917D01*
X178529Y54901D01*
X79233Y57579D02*
X80217D01*
X79725D01*
Y60531D01*
X79233Y60039D01*
X81693D02*
X82185Y60531D01*
X83169D01*
X83661Y60039D01*
Y58071D01*
X83169Y57579D01*
X82185D01*
X81693Y58071D01*
Y60039D01*
X84645Y57579D02*
Y60531D01*
Y58563D02*
X86121Y59547D01*
X84645Y58563D02*
X86121Y57579D01*
X79971Y90059D02*
X78004D01*
Y88583D01*
X78987Y89075D01*
X79479D01*
X79971Y88583D01*
Y87599D01*
X79479Y87107D01*
X78496D01*
X78004Y87599D01*
X80955Y87107D02*
Y87599D01*
X81447D01*
Y87107D01*
X80955D01*
X83415D02*
X84399D01*
X83907D01*
Y90059D01*
X83415Y89567D01*
X85875Y87107D02*
Y90059D01*
Y88091D02*
X87351Y89075D01*
X85875Y88091D02*
X87351Y87107D01*
X43061Y20178D02*
X41093D01*
X43061Y22145D01*
Y22637D01*
X42569Y23129D01*
X41585D01*
X41093Y22637D01*
X44045Y20178D02*
Y23129D01*
Y21162D02*
X45521Y22145D01*
X44045Y21162D02*
X45521Y20178D01*
X228454Y39150D02*
X229438D01*
X228946D01*
Y42101D01*
X228454Y41609D01*
X230914Y39150D02*
Y42101D01*
Y40134D02*
X232390Y41118D01*
X230914Y40134D02*
X232390Y39150D01*
D14*
X2362Y43700D02*
Y42388D01*
X3018Y41732D01*
X3674Y42388D01*
Y43700D01*
X5642Y43372D02*
X5314Y43700D01*
X4658D01*
X4330Y43372D01*
Y42060D01*
X4658Y41732D01*
X5314D01*
X5642Y42060D01*
X7610Y43372D02*
X7282Y43700D01*
X6626D01*
X6298Y43372D01*
Y42060D01*
X6626Y41732D01*
X7282D01*
X7610Y42060D01*
X11218Y43700D02*
X10562D01*
X10234Y43372D01*
Y42060D01*
X10562Y41732D01*
X11218D01*
X11546Y42060D01*
Y43372D01*
X11218Y43700D01*
X12201Y43044D02*
Y42060D01*
X12529Y41732D01*
X13513D01*
Y43044D01*
X14497Y43372D02*
Y43044D01*
X14169D01*
X14825D01*
X14497D01*
Y42060D01*
X14825Y41732D01*
X130315Y4987D02*
Y6299D01*
X130643D01*
X130971Y5971D01*
Y4987D01*
Y5971D01*
X131299Y6299D01*
X131627Y5971D01*
Y4987D01*
X132283Y6299D02*
Y5315D01*
X132611Y4987D01*
X133595D01*
Y6299D01*
X134251D02*
X135563Y4987D01*
X134907Y5643D01*
X135563Y6299D01*
X134251Y4987D01*
X139498Y6955D02*
Y4987D01*
X138514D01*
X138186Y5315D01*
Y5971D01*
X138514Y6299D01*
X139498D01*
X141138Y4987D02*
X140482D01*
X140154Y5315D01*
Y5971D01*
X140482Y6299D01*
X141138D01*
X141466Y5971D01*
Y5643D01*
X140154D01*
X143434Y6299D02*
X142450D01*
X142122Y5971D01*
Y5315D01*
X142450Y4987D01*
X143434D01*
X144418D02*
X145074D01*
X145402Y5315D01*
Y5971D01*
X145074Y6299D01*
X144418D01*
X144090Y5971D01*
Y5315D01*
X144418Y4987D01*
X146058Y6299D02*
Y5315D01*
X146386Y4987D01*
X147370D01*
Y6299D01*
X148026Y4331D02*
Y6299D01*
X149010D01*
X149338Y5971D01*
Y5315D01*
X149010Y4987D01*
X148026D01*
X149994D02*
X150649D01*
X150321D01*
Y6955D01*
X149994D01*
X151633Y4987D02*
X152289D01*
X151961D01*
Y6299D01*
X151633D01*
X153273Y4987D02*
Y6299D01*
X154257D01*
X154585Y5971D01*
Y4987D01*
X155897Y4331D02*
X156225D01*
X156553Y4659D01*
Y6299D01*
X155569D01*
X155241Y5971D01*
Y5315D01*
X155569Y4987D01*
X156553D01*
X75197Y8268D02*
Y10236D01*
X75853Y9580D01*
X76509Y10236D01*
Y8268D01*
X77165Y9580D02*
Y8596D01*
X77493Y8268D01*
X78477D01*
Y9580D01*
X79133D02*
X80445Y8268D01*
X79789Y8924D01*
X80445Y9580D01*
X79133Y8268D01*
X84380Y10236D02*
Y8268D01*
X83396D01*
X83068Y8596D01*
Y9252D01*
X83396Y9580D01*
X84380D01*
X85364D02*
X86020D01*
X86348Y9252D01*
Y8268D01*
X85364D01*
X85036Y8596D01*
X85364Y8924D01*
X86348D01*
X87332Y9908D02*
Y9580D01*
X87004D01*
X87660D01*
X87332D01*
Y8596D01*
X87660Y8268D01*
X88972Y9580D02*
X89628D01*
X89956Y9252D01*
Y8268D01*
X88972D01*
X88644Y8596D01*
X88972Y8924D01*
X89956D01*
M02*
