M48
;Layer_Color=9474304
;FILE_FORMAT=2:5
INCH,TZ
;TYPE=PLATED
T1F00S00C0.01575
T2F00S00C0.02800
T3F00S00C0.03000
T4F00S00C0.04094
%
T01
X45700Y-83500
X60300Y-88600
X61700Y-92900
X80200Y-82800
X69800Y-62029
X74572Y-54728
X69700Y-43400
X84317Y-35517
X84400Y-31300
X82000Y-25100
X77829Y-27129
X90100Y-25100
X94800Y-26049
X101181Y-26600
X97100Y-11600
X90181Y-10300
X86900Y-6500
X81900Y5700
X96600Y3700
X101400Y3500
X123880Y2917
X118200Y-4500
X122200Y-11500
X114300Y-11900
X121200Y-28500
X137200Y-26700
X134000Y-35200
X106600Y-57400
X90900Y-48600
X45200Y-39800
X116100Y-85300
X113100Y-89200
X43100Y-101900
X23992Y-91181
X12000Y-88200
X6881Y-96181
X-5000Y-99000
X-13000Y-103100
X-12500Y-107700
X-13000Y-121200
Y-131181
X-25000Y-136181
X-34600Y-137500
X-25000Y-116200
Y-97500
Y-88200
X-28800Y-76300
X-33000Y-75600
X-42785Y-78400
X-39700Y-69328
X-37700Y-95100
X-9000Y-85200
X-20200Y-40500
X-32700
X-65800Y-41700
X-66600Y-48100
X-72100Y-57100
X-59900
X-67600Y-79800
X-76100Y-86100
X-84488Y-90085
X-94600Y-98500
X-96200Y-114960
X-70295Y-129195
X12000Y-136200
X2900Y-36600
X1300Y-23200
X-10700Y-16100
X-26100Y1900
X-40200Y-5700
X-90100Y-2400
X-96181Y-3281
X-108900Y-2800
X-111181Y-10400
X-88500Y-10700
X-88000Y-25500
X-94174Y-27700
X-106181Y-29500
X-84300Y-42900
X-85900Y-49600
X-75800Y-36000
X-102500Y-70100
X26000Y-41200
X28000Y-34100
X-121181Y-28900
X-116181Y-5989
X-132700Y-1716
X-141181Y-10500
X-146350Y-17200
X-138200Y12500
X-124300Y12600
X-118200Y12500
X-114328Y25572
X-129181Y25500
X-138000Y26400
X-129700Y57200
X-135200Y67900
X-118900Y84200
X-114700Y92000
X-111026Y99974
X-96000Y111400
X-84500Y104000
X-80600Y101700
X-74700Y107600
X-47300Y106600
X-41300Y98400
X-42400Y87100
X-39200Y83200
X-25000Y90000
X-10438Y90607
X-1200Y90800
X-9000Y99000
X8200Y101100
X11000Y117800
X12100Y125800
X12000Y130000
Y140000
X3189Y136500
X-7200Y126835
X-25000Y135000
Y142000
X-18900Y78400
X-59000Y73500
X-70300Y60400
X-77400Y61600
X-84800Y73700
X-89600Y71500
X-83600Y85600
X-94300Y90236
X-107000Y57400
X-102600Y46775
X-108140Y36400
X-101200Y24500
X-97400Y27700
X-92681Y25000
X-98300Y12500
X-74100Y20100
X-69700Y35700
X-86800Y46000
X-26900Y41100
X-41500Y20000
X36800Y23700
X20200Y43400
X11300Y58200
X24200Y74200
X23900Y87000
X33900Y92000
X33500Y78100
X24600Y104300
X26000Y115000
X38151Y110000
X47200Y104300
X51100Y100000
X53500Y108800
X47900Y119900
X48500Y87200
X54100Y70900
X59300Y60006
X66500Y50900
X69000Y80500
X78400Y92300
X85600Y99300
X81002Y128698
X117300Y85100
X98700Y45423
X94000Y44500
X94900Y12600
X78200Y14445
X121181Y12500
X144000Y34900
T02
X-1000Y-150000
X33000Y-148000
T03
X-10500Y-149500
X9000Y-149000
X151000Y-6000
Y7000
X-150000Y6000
X-152000Y-3500
X-74000Y133500
X-63500Y139500
X-32000Y136500
X-30500Y146000
X-4000Y149000
X4500
X28500Y139500
X30000Y130000
T04
X48340Y-139000
X57000Y-134000
X76500Y-123000
X85160Y-118000
X49271Y-52707
X59000Y-42000
X64299Y-33520
X50500Y-29000
X46500Y-16500
Y-6500
Y6500
X61500Y5500
X71500
Y-5500
X61500
X59500Y-16500
X69500
X139920Y-46603
X136500Y-56000
X41500Y-59000
X28897Y-66080
X19500Y-69500
X5000Y-72000
X-5000
X-19500Y-69500
X-28897Y-66080
X-29340Y-47500
X-38000Y-42500
X-40500Y-29000
X-50500
X-46500Y-16500
Y-6500
Y7000
X-34000Y5000
Y-5000
X-22000Y-6000
X-12000
Y6000
X-22000
X0Y5000
Y-5000
X12000Y-6000
X22000
Y6000
X12000
X34000Y5000
Y-5000
X28000Y-18500
Y-28500
X17000Y-29000
Y-19000
X5000Y-18500
X-5000
Y-31000
X5000
X0Y-47000
Y-57000
X-14500Y-53500
Y-43500
X-17000Y-29000
Y-19000
X-28000Y-18500
Y-28500
X-64299Y-33520
X-59000Y-42000
X-49271Y-52707
X-41500Y-59000
X-59500Y-16500
X-69500
X-71500Y-5500
X-61500
Y5500
X-71500
X14500Y-43000
Y-53000
X29339Y-47500
X37999Y-42500
X40500Y-29000
X-133603Y38580
X-143000Y42000
X-139897Y54420
X-130500Y51000
X-59201Y41480
X-64500Y33000
X-50500Y29500
X-40500
X-28000Y28500
Y18500
X-17000Y19000
Y29000
X-5000Y31000
X5000
Y18500
X-5000
X17000Y19000
Y29000
X28000Y28500
Y18500
X40500Y29500
X38000Y43000
X29340Y48000
X28897Y66080
X19500Y69500
X5000Y72000
X-5000
X-19500Y69500
X-28897Y66080
X-29339Y48000
X-37999Y43000
X-41500Y59000
X-49271Y52707
X-14500Y53500
Y43500
X-1000Y47000
Y57000
X14500Y53500
Y43500
X41500Y58646
X-46500Y17000
X-59500Y16500
X-69500
X46500
X59500
X69500
X64500Y33000
X59201Y41480
X50500Y29500
X49271Y52352
M30
