G04*
G04 #@! TF.GenerationSoftware,Altium Limited,Altium Designer,23.1.1 (15)*
G04*
G04 Layer_Color=255*
%FSLAX25Y25*%
%MOIN*%
G70*
G04*
G04 #@! TF.SameCoordinates,7BBB67DB-ABBC-4A8F-A206-69BFBB4F4367*
G04*
G04*
G04 #@! TF.FilePolarity,Positive*
G04*
G01*
G75*
%ADD29R,0.04156X0.06528*%
%ADD30R,0.03268X0.02480*%
%ADD31R,0.02362X0.07874*%
G04:AMPARAMS|DCode=32|XSize=78.74mil|YSize=23.62mil|CornerRadius=0mil|HoleSize=0mil|Usage=FLASHONLY|Rotation=60.000|XOffset=0mil|YOffset=0mil|HoleType=Round|Shape=Rectangle|*
%AMROTATEDRECTD32*
4,1,4,-0.00946,-0.04000,-0.02991,-0.02819,0.00946,0.04000,0.02991,0.02819,-0.00946,-0.04000,0.0*
%
%ADD32ROTATEDRECTD32*%

%ADD33R,0.07874X0.02362*%
G04:AMPARAMS|DCode=34|XSize=78.74mil|YSize=23.62mil|CornerRadius=0mil|HoleSize=0mil|Usage=FLASHONLY|Rotation=320.000|XOffset=0mil|YOffset=0mil|HoleType=Round|Shape=Rectangle|*
%AMROTATEDRECTD34*
4,1,4,-0.03775,0.01626,-0.02257,0.03435,0.03775,-0.01626,0.02257,-0.03435,-0.03775,0.01626,0.0*
%
%ADD34ROTATEDRECTD34*%

%ADD53C,0.06102*%
%ADD54P,0.08630X4X245.0*%
%ADD55C,0.06000*%
%ADD56R,0.06102X0.06102*%
%ADD57P,0.08630X4X115.0*%
%ADD58P,0.08630X4X255.0*%
%ADD59R,0.06102X0.06102*%
%ADD60P,0.08630X4X103.0*%
%ADD61P,0.08630X4X84.0*%
%ADD62P,0.08630X4X195.0*%
%ADD63P,0.08630X4X205.0*%
%ADD64P,0.08630X4X186.0*%
%ADD65P,0.08630X4X167.0*%
D29*
X-50000Y129500D02*
D03*
X-60049D02*
D03*
X-60500Y116500D02*
D03*
X-70549D02*
D03*
D30*
X-50500Y120000D02*
D03*
Y111220D02*
D03*
D31*
X-86181Y18504D02*
D03*
X-91181D02*
D03*
X-96181D02*
D03*
X-101181D02*
D03*
X-106181D02*
D03*
X-111181D02*
D03*
X-116181D02*
D03*
X-126181D02*
D03*
X-131181D02*
D03*
X-136181D02*
D03*
X-141181D02*
D03*
Y-18504D02*
D03*
X-136181D02*
D03*
X-131181D02*
D03*
X-126181D02*
D03*
X-116181D02*
D03*
X-111181D02*
D03*
X-106181D02*
D03*
X-101181D02*
D03*
X-96181D02*
D03*
X-91181D02*
D03*
X-121181D02*
D03*
Y18504D02*
D03*
X-86181Y-18504D02*
D03*
X141181D02*
D03*
X131181Y18504D02*
D03*
X86181D02*
D03*
X126181D02*
D03*
X106181D02*
D03*
X101181D02*
D03*
X121181D02*
D03*
X111181Y-18504D02*
D03*
X101181D02*
D03*
X96181Y18504D02*
D03*
X116181D02*
D03*
X106181Y-18504D02*
D03*
X96181D02*
D03*
X91181D02*
D03*
Y18504D02*
D03*
X111181D02*
D03*
X126181Y-18504D02*
D03*
X121181D02*
D03*
X116181D02*
D03*
X86181D02*
D03*
X131181D02*
D03*
X136181D02*
D03*
X141181Y18504D02*
D03*
X136181D02*
D03*
D32*
X102627Y-105550D02*
D03*
X112470Y-68501D02*
D03*
X73499Y-46001D02*
D03*
X-73499Y46001D02*
D03*
X108140Y-66001D02*
D03*
X90820Y-56001D02*
D03*
X86490Y-53501D02*
D03*
X103810Y-63501D02*
D03*
X76646Y-90550D02*
D03*
X67986Y-85550D02*
D03*
X82159Y-51001D02*
D03*
X99480Y-61001D02*
D03*
X72316Y-88051D02*
D03*
X63656Y-83050D02*
D03*
X59325Y-80551D02*
D03*
X77829Y-48501D02*
D03*
X95150Y-58501D02*
D03*
X89636Y-98050D02*
D03*
X85306Y-95551D02*
D03*
X80976Y-93050D02*
D03*
X54995Y-78050D02*
D03*
X93967Y-100550D02*
D03*
X98297Y-103051D02*
D03*
X121131Y-73501D02*
D03*
X116801Y-71001D02*
D03*
X-85306Y95551D02*
D03*
X-77829Y48501D02*
D03*
X-103810Y63501D02*
D03*
X-54995Y78050D02*
D03*
X-59325Y80551D02*
D03*
X-63656Y83050D02*
D03*
X-67986Y85550D02*
D03*
X-72316Y88051D02*
D03*
X-76646Y90550D02*
D03*
X-80976Y93050D02*
D03*
X-89636Y98051D02*
D03*
X-93967Y100550D02*
D03*
X-98297Y103051D02*
D03*
X-102627Y105551D02*
D03*
X-121131Y73501D02*
D03*
X-116801Y71001D02*
D03*
X-112470Y68501D02*
D03*
X-108140Y66001D02*
D03*
X-99480Y61001D02*
D03*
X-95150Y58501D02*
D03*
X-90820Y56001D02*
D03*
X-86490Y53501D02*
D03*
X-82159Y51001D02*
D03*
D33*
X18004Y-86181D02*
D03*
X-19004D02*
D03*
Y-91181D02*
D03*
Y-96181D02*
D03*
Y-101181D02*
D03*
Y-106181D02*
D03*
Y-111181D02*
D03*
Y-116181D02*
D03*
Y-121181D02*
D03*
Y-126181D02*
D03*
Y-131181D02*
D03*
Y-136181D02*
D03*
Y-141181D02*
D03*
X18004D02*
D03*
Y-136181D02*
D03*
Y-131181D02*
D03*
Y-126181D02*
D03*
Y-121181D02*
D03*
Y-116181D02*
D03*
Y-111181D02*
D03*
Y-106181D02*
D03*
Y-101181D02*
D03*
Y-96181D02*
D03*
Y-91181D02*
D03*
X-19004Y100000D02*
D03*
Y120000D02*
D03*
X18004Y105000D02*
D03*
Y115000D02*
D03*
Y90000D02*
D03*
Y95000D02*
D03*
Y100000D02*
D03*
Y120000D02*
D03*
Y125000D02*
D03*
X-19004D02*
D03*
Y115000D02*
D03*
Y110000D02*
D03*
Y105000D02*
D03*
Y95000D02*
D03*
Y90000D02*
D03*
X18004Y110000D02*
D03*
Y85000D02*
D03*
Y130000D02*
D03*
Y135000D02*
D03*
Y140000D02*
D03*
X-19004D02*
D03*
Y135000D02*
D03*
Y130000D02*
D03*
Y85000D02*
D03*
D34*
X-46357Y-72828D02*
D03*
X-74707Y-49040D02*
D03*
X-77921Y-52870D02*
D03*
X-81135Y-56700D02*
D03*
X-84349Y-60530D02*
D03*
X-87563Y-64361D02*
D03*
X-90776Y-68191D02*
D03*
X-93990Y-72021D02*
D03*
X-97204Y-75851D02*
D03*
X-100418Y-79681D02*
D03*
X-103632Y-83512D02*
D03*
X-106846Y-87342D02*
D03*
X-110060Y-91172D02*
D03*
X-81710Y-114960D02*
D03*
X-78496Y-111130D02*
D03*
X-75283Y-107300D02*
D03*
X-72069Y-103470D02*
D03*
X-68855Y-99639D02*
D03*
X-65641Y-95809D02*
D03*
X-62427Y-91979D02*
D03*
X-59213Y-88149D02*
D03*
X-55999Y-84319D02*
D03*
X-52785Y-80488D02*
D03*
X-49571Y-76658D02*
D03*
X45649Y72828D02*
D03*
X74574Y107300D02*
D03*
X77788Y111130D02*
D03*
X81002Y114960D02*
D03*
X109352Y91172D02*
D03*
X106138Y87342D02*
D03*
X102924Y83512D02*
D03*
X73998Y49040D02*
D03*
X90068Y68191D02*
D03*
X86854Y64361D02*
D03*
X55290Y84319D02*
D03*
X48862Y76658D02*
D03*
X52076Y80488D02*
D03*
X58504Y88149D02*
D03*
X61718Y91979D02*
D03*
X64932Y95809D02*
D03*
X99710Y79681D02*
D03*
X96496Y75851D02*
D03*
X83640Y60530D02*
D03*
X80426Y56700D02*
D03*
X77212Y52870D02*
D03*
X93282Y72021D02*
D03*
X68146Y99639D02*
D03*
X71360Y103470D02*
D03*
D53*
X-28897Y66080D02*
D03*
X-46500Y-16500D02*
D03*
X139920Y-46603D02*
D03*
X17000Y-29000D02*
D03*
X76500Y-123000D02*
D03*
X48340Y-139000D02*
D03*
X22000Y-6000D02*
D03*
X34000Y5000D02*
D03*
X28000Y-28500D02*
D03*
X46500Y-16500D02*
D03*
X50500Y-29000D02*
D03*
X37999Y-42500D02*
D03*
X14500Y-53000D02*
D03*
X71500Y-5500D02*
D03*
X69500Y-16500D02*
D03*
X64299Y-33520D02*
D03*
X49271Y-52707D02*
D03*
X28897Y-66080D02*
D03*
X-34000Y-5000D02*
D03*
X5000Y-18500D02*
D03*
X-22000Y-6000D02*
D03*
X5000Y-31000D02*
D03*
X-17000Y-29000D02*
D03*
X-28000Y-28500D02*
D03*
X0Y-57000D02*
D03*
X-14500Y-53500D02*
D03*
X-38000Y-42500D02*
D03*
X-50500Y-29000D02*
D03*
X-5000Y-72000D02*
D03*
X-28897Y-66080D02*
D03*
X-49271Y-52707D02*
D03*
X-64299Y-33520D02*
D03*
X-69500Y-16500D02*
D03*
X-71500Y-5500D02*
D03*
X-139897Y54420D02*
D03*
X-143000Y42000D02*
D03*
X38000Y43000D02*
D03*
X64500Y33000D02*
D03*
X49271Y52352D02*
D03*
X28897Y66080D02*
D03*
X71500Y5500D02*
D03*
X69500Y16500D02*
D03*
X46500D02*
D03*
X50500Y29500D02*
D03*
X28000Y28500D02*
D03*
X14500Y53500D02*
D03*
X17000Y29000D02*
D03*
X22000Y6000D02*
D03*
X-1000Y57000D02*
D03*
X5000Y31000D02*
D03*
Y18500D02*
D03*
X0Y5000D02*
D03*
X-22000Y6000D02*
D03*
X-28000Y28500D02*
D03*
X5000Y72000D02*
D03*
X-17000Y29000D02*
D03*
X-46500Y17000D02*
D03*
X-50500Y29500D02*
D03*
X-37999Y43000D02*
D03*
X-14500Y53500D02*
D03*
X-71500Y5500D02*
D03*
X-69500Y16500D02*
D03*
X-64500Y33000D02*
D03*
X-49271Y52707D02*
D03*
D54*
X-19500Y69500D02*
D03*
X19500Y-69500D02*
D03*
D55*
X151000Y7000D02*
D03*
Y-6000D02*
D03*
X-10500Y-149500D02*
D03*
X9000Y-149000D02*
D03*
X-150000Y6000D02*
D03*
X-32000Y136500D02*
D03*
X-30500Y146000D02*
D03*
X28500Y139500D02*
D03*
X30000Y130000D02*
D03*
X-152000Y-3500D02*
D03*
X4500Y149000D02*
D03*
X-4000D02*
D03*
X-74000Y133500D02*
D03*
X-63500Y139500D02*
D03*
D56*
X-46500Y-6500D02*
D03*
X17000Y-19000D02*
D03*
X34000Y-5000D02*
D03*
X28000Y-18500D02*
D03*
X46500Y-6500D02*
D03*
X14500Y-43000D02*
D03*
X-34000Y5000D02*
D03*
X-17000Y-19000D02*
D03*
X-28000Y-18500D02*
D03*
X0Y-47000D02*
D03*
X-14500Y-43500D02*
D03*
X-17000Y19000D02*
D03*
X46500Y6500D02*
D03*
X28000Y18500D02*
D03*
X14500Y43500D02*
D03*
X17000Y19000D02*
D03*
X-1000Y47000D02*
D03*
X0Y-5000D02*
D03*
X-28000Y18500D02*
D03*
X-46500Y7000D02*
D03*
X-14500Y43500D02*
D03*
D57*
X136500Y-56000D02*
D03*
D58*
X85160Y-118000D02*
D03*
X57000Y-134000D02*
D03*
X29339Y-47500D02*
D03*
X-29339Y48000D02*
D03*
D59*
X12000Y-6000D02*
D03*
X40500Y-29000D02*
D03*
X61500Y-5500D02*
D03*
X59500Y-16500D02*
D03*
X-5000Y-18500D02*
D03*
X-12000Y-6000D02*
D03*
X-5000Y-31000D02*
D03*
X-40500Y-29000D02*
D03*
X5000Y-72000D02*
D03*
X-59500Y-16500D02*
D03*
X-61500Y-5500D02*
D03*
X61500Y5500D02*
D03*
X59500Y16500D02*
D03*
X40500Y29500D02*
D03*
X12000Y6000D02*
D03*
X-5000Y31000D02*
D03*
Y18500D02*
D03*
X-12000Y6000D02*
D03*
X-5000Y72000D02*
D03*
X-40500Y29500D02*
D03*
X-61500Y5500D02*
D03*
X-59500Y16500D02*
D03*
D60*
X59000Y-42000D02*
D03*
X-59201Y41480D02*
D03*
D61*
X41500Y-59000D02*
D03*
X-41500Y59000D02*
D03*
D62*
X-29340Y-47500D02*
D03*
X29340Y48000D02*
D03*
D63*
X-19500Y-69500D02*
D03*
X-130500Y51000D02*
D03*
X-133603Y38580D02*
D03*
X19500Y69500D02*
D03*
D64*
X-41500Y-59000D02*
D03*
X41500Y58646D02*
D03*
D65*
X-59000Y-42000D02*
D03*
X59201Y41480D02*
D03*
M02*
