G04*
G04 #@! TF.GenerationSoftware,Altium Limited,Altium Designer,23.1.1 (15)*
G04*
G04 Layer_Physical_Order=2*
G04 Layer_Color=36540*
%FSLAX44Y44*%
%MOMM*%
G71*
G04*
G04 #@! TF.SameCoordinates,EA72E859-7E5F-47E5-BE6D-6BCC4CF4D1DD*
G04*
G04*
G04 #@! TF.FilePolarity,Positive*
G04*
G01*
G75*
%ADD51C,1.5500*%
%ADD52P,2.1920X4X245.0*%
%ADD53C,1.5240*%
%ADD54R,1.5500X1.5500*%
%ADD55P,2.1920X4X115.0*%
%ADD56P,2.1920X4X255.0*%
%ADD57R,1.5500X1.5500*%
%ADD58P,2.1920X4X103.0*%
%ADD59P,2.1920X4X84.0*%
%ADD60P,2.1920X4X195.0*%
%ADD61P,2.1920X4X205.0*%
%ADD62P,2.1920X4X186.0*%
%ADD63P,2.1920X4X167.0*%
%ADD64C,0.8000*%
%ADD65C,0.1555*%
%ADD66C,0.1555*%
D51*
X-73398Y167843D02*
D03*
X-118110Y-41910D02*
D03*
X355397Y-118372D02*
D03*
X43180Y-73660D02*
D03*
X194310Y-312420D02*
D03*
X122783Y-353060D02*
D03*
X55880Y-15240D02*
D03*
X86360Y12700D02*
D03*
X71120Y-72390D02*
D03*
X118110Y-41910D02*
D03*
X128270Y-73660D02*
D03*
X96517Y-107950D02*
D03*
X36830Y-134620D02*
D03*
X181610Y-13970D02*
D03*
X176530Y-41910D02*
D03*
X163320Y-85140D02*
D03*
X125149Y-133875D02*
D03*
X73398Y-167843D02*
D03*
X-86360Y-12700D02*
D03*
X12700Y-46990D02*
D03*
X-55880Y-15240D02*
D03*
X12700Y-78740D02*
D03*
X-43180Y-73660D02*
D03*
X-71120Y-72390D02*
D03*
X0Y-144780D02*
D03*
X-36830Y-135890D02*
D03*
X-96520Y-107950D02*
D03*
X-128270Y-73660D02*
D03*
X-12700Y-182880D02*
D03*
X-73398Y-167843D02*
D03*
X-125149Y-133875D02*
D03*
X-163320Y-85140D02*
D03*
X-176530Y-41910D02*
D03*
X-181610Y-13970D02*
D03*
X-355338Y138227D02*
D03*
X-363220Y106680D02*
D03*
X96520Y109220D02*
D03*
X163830Y83820D02*
D03*
X125149Y132975D02*
D03*
X73398Y167843D02*
D03*
X181610Y13970D02*
D03*
X176530Y41910D02*
D03*
X118110D02*
D03*
X128270Y74930D02*
D03*
X71120Y72390D02*
D03*
X36830Y135890D02*
D03*
X43180Y73660D02*
D03*
X55880Y15240D02*
D03*
X-2540Y144780D02*
D03*
X12700Y78740D02*
D03*
Y46990D02*
D03*
X0Y12700D02*
D03*
X-55880Y15240D02*
D03*
X-71120Y72390D02*
D03*
X12700Y182880D02*
D03*
X-43180Y73660D02*
D03*
X-118110Y43180D02*
D03*
X-128270Y74930D02*
D03*
X-96517Y109220D02*
D03*
X-36830Y135890D02*
D03*
X-181610Y13970D02*
D03*
X-176530Y41910D02*
D03*
X-163830Y83820D02*
D03*
X-125149Y133875D02*
D03*
D52*
X-49530Y176530D02*
D03*
X49530Y-176530D02*
D03*
D53*
X383540Y17780D02*
D03*
Y-15240D02*
D03*
X-21590Y-382270D02*
D03*
X16510D02*
D03*
X-386080Y16510D02*
D03*
X-81280Y346710D02*
D03*
X-77470Y370840D02*
D03*
X72390Y354330D02*
D03*
X76200Y330200D02*
D03*
X-386080Y-8890D02*
D03*
X11430Y388620D02*
D03*
X-10160D02*
D03*
X-187960Y339090D02*
D03*
X-161290Y354330D02*
D03*
D54*
X-118110Y-16510D02*
D03*
X43180Y-48260D02*
D03*
X86360Y-12700D02*
D03*
X71120Y-46990D02*
D03*
X118110Y-16510D02*
D03*
X36830Y-109220D02*
D03*
X-86360Y12700D02*
D03*
X-43180Y-48260D02*
D03*
X-71120Y-46990D02*
D03*
X0Y-119380D02*
D03*
X-36830Y-110490D02*
D03*
X-43180Y48260D02*
D03*
X118110Y16510D02*
D03*
X71120Y46990D02*
D03*
X36830Y110490D02*
D03*
X43180Y48260D02*
D03*
X-2540Y119380D02*
D03*
X0Y-12700D02*
D03*
X-71120Y46990D02*
D03*
X-118110Y17780D02*
D03*
X-36830Y110490D02*
D03*
D55*
X346710Y-142240D02*
D03*
D56*
X216307Y-299720D02*
D03*
X144780Y-340360D02*
D03*
X74520Y-120650D02*
D03*
X-74520Y121920D02*
D03*
D57*
X30480Y-15240D02*
D03*
X102870Y-73660D02*
D03*
X156210Y-13970D02*
D03*
X151130Y-41910D02*
D03*
X-12700Y-46990D02*
D03*
X-30480Y-15240D02*
D03*
X-12700Y-78740D02*
D03*
X-102870Y-73660D02*
D03*
X12700Y-182880D02*
D03*
X-151130Y-41910D02*
D03*
X-156210Y-13970D02*
D03*
X156210Y13970D02*
D03*
X151130Y41910D02*
D03*
X102870Y74930D02*
D03*
X30480Y15240D02*
D03*
X-12700Y78740D02*
D03*
Y46990D02*
D03*
X-30480Y15240D02*
D03*
X-12700Y182880D02*
D03*
X-102870Y74930D02*
D03*
X-156210Y13970D02*
D03*
X-151130Y41910D02*
D03*
D58*
X149860Y-106680D02*
D03*
X-150370Y105360D02*
D03*
D59*
X105410Y-149860D02*
D03*
X-105410Y149860D02*
D03*
D60*
X-74523Y-120650D02*
D03*
X74523Y121920D02*
D03*
D61*
X-49530Y-176530D02*
D03*
X-331470Y129540D02*
D03*
X-339352Y97993D02*
D03*
X49530Y176530D02*
D03*
D62*
X-105410Y-149860D02*
D03*
X105410Y148960D02*
D03*
D63*
X-149860Y-106680D02*
D03*
X150370Y105360D02*
D03*
D64*
X-71120Y233680D02*
D03*
X-231140Y-29210D02*
D03*
X-30480Y215900D02*
D03*
X-321310Y29210D02*
D03*
X-295910D02*
D03*
X-269240D02*
D03*
X-243840Y27940D02*
D03*
X-221055Y-65965D02*
D03*
X-245110Y-66040D02*
D03*
X-257810Y-29210D02*
D03*
X-269240Y-64770D02*
D03*
X-281940Y-29210D02*
D03*
X-294640Y-64770D02*
D03*
X-307797Y-24384D02*
D03*
X-346710Y66040D02*
D03*
X-345440Y27940D02*
D03*
X-260350Y-237490D02*
D03*
X26670Y304800D02*
D03*
X27940Y279400D02*
D03*
Y254000D02*
D03*
X-66040D02*
D03*
X63500Y340360D02*
D03*
X-30480Y-307340D02*
D03*
Y-335280D02*
D03*
X-100330Y-48260D02*
D03*
X248920Y-27940D02*
D03*
X274320Y-279400D02*
D03*
X257810Y-288290D02*
D03*
X26670Y-223520D02*
D03*
X27940Y-246380D02*
D03*
X26670Y-269240D02*
D03*
X-29210Y-259080D02*
D03*
X-101600Y-182880D02*
D03*
X97790Y185420D02*
D03*
X63499Y309852D02*
D03*
X189260Y213868D02*
D03*
Y240105D02*
D03*
X97790Y240030D02*
D03*
X64676Y217264D02*
D03*
X128143Y164592D02*
D03*
X-195580Y204470D02*
D03*
X-139700Y176530D02*
D03*
X-224790Y115570D02*
D03*
X-242600Y128270D02*
D03*
X-313690Y146050D02*
D03*
X-297180Y205740D02*
D03*
X24130Y327660D02*
D03*
X294640Y26670D02*
D03*
X307340Y27940D02*
D03*
X282764Y-6985D02*
D03*
X257810Y29210D02*
D03*
Y-64770D02*
D03*
X233680Y-66040D02*
D03*
X290830Y-29210D02*
D03*
X198120Y-208280D02*
D03*
X142240Y-180340D02*
D03*
X64770Y-256540D02*
D03*
X63500Y-231140D02*
D03*
Y-283210D02*
D03*
X64770Y-331470D02*
D03*
X27940Y-341630D02*
D03*
X-66040Y-346710D02*
D03*
Y-294640D02*
D03*
Y-270510D02*
D03*
X-30480Y-232410D02*
D03*
X-66040Y270510D02*
D03*
X-30480Y342900D02*
D03*
X63500Y292100D02*
D03*
X-63500Y-379730D02*
D03*
X58420Y-378460D02*
D03*
X333200Y108760D02*
D03*
X292608Y149352D02*
D03*
X169164Y138272D02*
D03*
X-27940Y266700D02*
D03*
X161846Y210652D02*
D03*
X120396Y108966D02*
D03*
X-27940Y241300D02*
D03*
X-246888Y-228458D02*
D03*
X-230378Y271272D02*
D03*
X-233426Y290068D02*
D03*
X-282448Y72438D02*
D03*
X-255016Y207518D02*
D03*
X-201930Y274066D02*
D03*
X-181102Y-195580D02*
D03*
X-107696Y-212598D02*
D03*
X-134874Y-168148D02*
D03*
X-260350Y-100838D02*
D03*
X-153035Y-257048D02*
D03*
X-69596Y-187960D02*
D03*
X202767Y-101929D02*
D03*
X252679Y-121053D02*
D03*
X161362Y-233752D02*
D03*
X320500Y-83475D02*
D03*
X284988Y-76914D02*
D03*
X226245Y-20849D02*
D03*
X-212852Y152400D02*
D03*
X237490Y-113284D02*
D03*
X342138Y-27940D02*
D03*
X157988Y-136144D02*
D03*
X-253492Y120396D02*
D03*
X120650Y219710D02*
D03*
X165354Y112776D02*
D03*
X101854Y227076D02*
D03*
X-245364Y284226D02*
D03*
X266954Y-208534D02*
D03*
X-307800Y76962D02*
D03*
X244300Y27940D02*
D03*
X-333200Y67310D02*
D03*
X170180Y-178054D02*
D03*
X231600Y24384D02*
D03*
X-68580Y-249380D02*
D03*
X-202184Y89662D02*
D03*
X-72898Y218948D02*
D03*
X-320500Y-69596D02*
D03*
X-257000Y80010D02*
D03*
X-212598Y104140D02*
D03*
X-333200Y2286D02*
D03*
X-317246Y-116332D02*
D03*
X148336Y292608D02*
D03*
X135890Y310134D02*
D03*
X-296672Y-197642D02*
D03*
X136906Y251714D02*
D03*
X-71374Y292100D02*
D03*
X-231600Y80518D02*
D03*
X320500Y14176D02*
D03*
X-1270Y-358600D02*
D03*
X-218900Y16510D02*
D03*
X269700Y-73406D02*
D03*
D65*
X-230649Y-21909D02*
G03*
X-231142Y-21892I-491J-7301D01*
G01*
X-257515Y-21898D02*
G03*
X-257811Y-21892I-295J-7312D01*
G01*
X-303209Y29736D02*
G03*
X-295303Y21918I7299J-526D01*
G01*
X-245514Y-73346D02*
G03*
X-244709Y-73347I404J7306D01*
G01*
X-221035Y-73282D02*
G03*
X-220467Y-73259I-20J7318D01*
G01*
X-269008Y-72084D02*
G03*
X-269011Y-72084I-0J-1555D01*
G01*
X-269241Y-72087D02*
G03*
X-269029Y-72084I1J7318D01*
G01*
X-281728Y-21896D02*
G03*
X-282652Y-21927I-212J-7314D01*
G01*
X-294459Y-72086D02*
G03*
X-294461Y-72086I-0J-1555D01*
G01*
X-295352Y-72053D02*
G03*
X-294474Y-72086I711J7283D01*
G01*
X-315114Y-24363D02*
G03*
X-315114Y-24396I7318J-21D01*
G01*
X-315065Y-25236D02*
G03*
X-314266Y-27803I7268J852D01*
G01*
X248959Y-20623D02*
G03*
X248847Y-20623I-39J-7317D01*
G01*
X-158195Y-94949D02*
G03*
X-156661Y-93980I-5124J9810D01*
G01*
X94352Y191880D02*
G03*
X92196Y190137I3438J-6460D01*
G01*
X64770Y174774D02*
G03*
X62331Y167741I8628J-6931D01*
G01*
X101408Y161605D02*
G03*
X101421Y161621I-1202J986D01*
G01*
X139536Y163927D02*
G03*
X139550Y164940I-11393J665D01*
G01*
X128569Y157287D02*
G03*
X135443Y165096I-427J7305D01*
G01*
X-261424Y211052D02*
G03*
X-261473Y210961I6408J-3534D01*
G01*
X70725Y-232299D02*
G03*
X70632Y-229503I-7225J1159D01*
G01*
X-71120Y232410D02*
Y233680D01*
Y232410D02*
X-43688Y204978D01*
X21082D01*
X-256517Y-21898D02*
X-231142Y-21892D01*
X-257485Y-21899D02*
X-256517Y-21898D01*
X-257515Y-21899D02*
X-257485D01*
X-192786Y-24384D02*
X-192331Y-24839D01*
X-230649Y-21909D02*
X-192786Y-24384D01*
X-30480Y215900D02*
X27686D01*
X-302514Y39370D02*
X-302059Y39825D01*
X-295303Y21918D02*
X-274828Y23622D01*
X-295910Y29210D02*
X-270987Y65106D01*
X-302059Y39825D02*
X-275082Y66802D01*
X-274828Y23622D02*
X-274373Y24077D01*
X-269293Y142695D02*
X-267045Y144943D01*
X-274373Y24077D02*
X-269240Y29210D01*
X-270987Y65106D02*
X-269293Y142695D01*
X-303209Y29736D02*
X-302514Y39370D01*
X-220467Y-73259D02*
X-169477Y-69147D01*
X-267949Y-72084D02*
X-245514Y-73346D01*
X-244709Y-73347D02*
X-221035Y-73282D01*
X-269008Y-72084D02*
X-267949D01*
X-269029D02*
X-269011D01*
X-281707Y-21896D02*
X-257811Y-21892D01*
X-281728Y-21896D02*
X-281707D01*
X-294459Y-72086D02*
X-269241Y-72087D01*
X-294474Y-72086D02*
X-294461D01*
X-192331Y-24839D02*
X-192331D01*
X-307797Y-24384D02*
X-282652Y-21927D01*
X-315114Y-24363D02*
X-315114Y-24153D01*
X-315114Y-24396D02*
X-315114Y-24817D01*
X-315065Y-25236D01*
X-314266Y-27803D02*
X-294640Y-64770D01*
X-320500Y-69596D02*
X-295352Y-72053D01*
X-315114Y-24153D02*
X-314759Y-11737D01*
X-169477Y-69147D02*
X-169471Y-69141D01*
X-192331Y-24839D02*
X-189230Y-27940D01*
X-314759Y-11737D02*
X-303022Y0D01*
X-169471Y-69141D02*
X-158827Y-58497D01*
X-347678Y66040D02*
X-346710D01*
X-374396Y92758D02*
X-347678Y66040D01*
X-374396Y92758D02*
Y119634D01*
X-350586Y31750D02*
X-346776Y27940D01*
X-390398Y31750D02*
X-350586D01*
X-346776Y27940D02*
X-345440D01*
X-260350Y-255888D02*
Y-237490D01*
X-262890Y-275082D02*
Y-258428D01*
X-260350Y-255888D01*
X63500Y340360D02*
Y341630D01*
X64770Y342900D02*
X72390Y354330D01*
X63500Y341630D02*
X64770Y342900D01*
X-36641Y-329946D02*
X-31307Y-335280D01*
X-30480D01*
X291359Y-20849D02*
X292647D01*
X248959Y-20623D02*
X291359Y-20849D01*
X293103Y-20393D02*
X294163Y-19332D01*
X292647Y-20849D02*
X293103Y-20393D01*
X226245Y-20849D02*
X248847Y-20623D01*
X110426Y-283528D02*
X253048D01*
X257810Y-288290D01*
X19219Y-216070D02*
Y-207639D01*
Y-216070D02*
X26670Y-223520D01*
X-69596Y-187960D02*
X-68705Y-187069D01*
Y-183005D02*
X-61468Y-175768D01*
Y-168910D01*
X-68705Y-187069D02*
Y-183005D01*
X-94043Y-193828D02*
X-87719Y-200152D01*
X-101600Y-182880D02*
X-94043Y-190437D01*
Y-193828D02*
Y-190437D01*
X-164084Y-100838D02*
X-158195Y-94949D01*
X-92710Y-93980D02*
X-71120Y-72390D01*
X-144724Y-93980D02*
X-92710D01*
X-148346Y-92683D02*
X-146020D01*
X-150421Y-93980D02*
X-148346Y-92683D01*
X-156661Y-93980D02*
X-150421D01*
X-146020Y-92683D02*
X-144724Y-93980D01*
X101854Y196298D02*
Y227076D01*
X113284Y197104D02*
Y245872D01*
X94352Y191880D02*
X100943Y195387D01*
X112373Y196193D02*
X113284Y197104D01*
X100943Y195387D02*
X101854Y196298D01*
X97790Y185420D02*
X112373Y196193D01*
X73398Y167843D02*
X92196Y190137D01*
X188722Y213868D02*
X189260D01*
X64770Y174774D02*
Y207010D01*
X97790Y240030D01*
X46990Y152400D02*
X62331Y167741D01*
X85344Y115570D02*
X91440Y121666D01*
Y157226D02*
X95250Y161036D01*
X91192Y148989D02*
X91440Y149295D01*
Y157226D01*
X91192Y146440D02*
Y148989D01*
Y146440D02*
X91440Y146192D01*
Y121666D02*
Y146192D01*
X95250Y161036D02*
X100850D01*
X102890Y163178D02*
X105439D01*
X101796Y162083D02*
X102890Y163178D01*
X101421Y161621D02*
X101796Y162083D01*
X101363Y161549D02*
X101408Y161605D01*
X100850Y161036D02*
X101363Y161549D01*
X113284Y161036D02*
X117046Y157274D01*
X108084Y161036D02*
X113284D01*
X117046Y157274D02*
X128352D01*
X105439Y163178D02*
X108084Y161036D01*
X136451Y111051D02*
X139536Y163927D01*
X132540Y207820D02*
X135443Y165096D01*
X122585Y167229D02*
X128143Y164592D01*
X121674Y168140D02*
X122585Y167229D01*
X136906Y251714D02*
X139550Y164940D01*
X120650Y219710D02*
X132084Y208276D01*
X132540Y207820D01*
X117094Y91694D02*
X136451Y111051D01*
X120142Y169672D02*
X121674Y168140D01*
X128352Y157274D02*
X128569Y157287D01*
X117094Y64770D02*
Y91694D01*
X-68086Y133350D02*
X-39370D01*
X-70309Y135824D02*
X-69029Y134544D01*
X-72572Y135824D02*
X-70309D01*
X-39370Y133350D02*
X-36830Y135890D01*
X-108972Y133350D02*
X-76858D01*
X-68686Y133950D02*
X-68086Y133350D01*
X-109427Y133805D02*
X-108972Y133350D01*
X-76858D02*
X-72572Y135824D01*
X-120565Y144943D02*
X-109427Y133805D01*
X-69029Y134544D02*
X-68686Y133950D01*
X-167132Y104140D02*
X-153162Y90170D01*
X-96266D02*
X-91694Y85598D01*
X-153162Y90170D02*
X-96266D01*
X-195580Y204470D02*
X-190500Y199390D01*
X11842D01*
X-107947Y120650D02*
X-96517Y109220D01*
X-247337Y80010D02*
X-206697Y120650D01*
X-107947D01*
X-260350Y87376D02*
X-252984D01*
X-224790Y115570D01*
X-351014Y81774D02*
Y90398D01*
X-346202Y76962D02*
X-307800D01*
X-352602Y91987D02*
X-351014Y90398D01*
X-352602Y91987D02*
Y93946D01*
X-352283Y94824D01*
Y95743D01*
X-352738Y96198D02*
X-352283Y95743D01*
X-363220Y106680D02*
X-352738Y96198D01*
X-351014Y81774D02*
X-346202Y76962D01*
X-261424Y211052D02*
X-228981Y269875D01*
X-295730Y73078D02*
X-286543Y164002D01*
X-230378Y271272D02*
X-228981Y269875D01*
X-179070Y319786D01*
X-301498Y67310D02*
X-295730Y73078D01*
X-286543Y164002D02*
X-261473Y210961D01*
X43797Y351391D02*
X44196Y351790D01*
X27989Y335583D02*
X43797Y351391D01*
X24130Y327660D02*
X25466D01*
X29276Y331470D02*
X76200Y330200D01*
X25466Y327660D02*
X29276Y331470D01*
X44196Y351790D02*
X44757Y351841D01*
X-58879Y335583D02*
X27989D01*
X44757Y351841D02*
X72390Y354330D01*
X-70358Y324104D02*
X-58879Y335583D01*
X193294Y-2286D02*
X277114D01*
X307340Y27940D01*
X282400Y-6621D02*
X282764Y-6985D01*
X220455Y-6621D02*
X282400D01*
X258699Y-63882D02*
X264142D01*
X257810Y-64770D02*
X258699Y-63882D01*
X264142D02*
X265794Y-62230D01*
X269494D01*
X64770Y-254796D02*
X67870Y-251695D01*
X64770Y-256540D02*
Y-254796D01*
X67870Y-251695D02*
Y-250089D01*
X70725Y-232299D01*
X67870Y-219001D02*
X68326Y-219456D01*
X-31189Y-194871D02*
X-30734Y-195326D01*
X13428Y-196057D01*
X63500Y-231140D01*
X-49530Y-176530D02*
X-31189Y-194871D01*
X23876Y-175006D02*
X67870Y-219001D01*
X68326Y-219456D02*
X70632Y-229503D01*
X88214Y-308026D02*
Y-305740D01*
X-1270Y-358600D02*
X25860Y-331470D01*
X64770D02*
X88214Y-308026D01*
X25860Y-331470D02*
X64770D01*
X88214Y-305740D02*
X110426Y-283528D01*
X-162814Y-346710D02*
X-66040D01*
X-183896Y-325628D02*
X-162814Y-346710D01*
X-145400Y-329946D02*
X-36641D01*
X11732Y-200152D02*
X19219Y-207639D01*
X-105664Y-205486D02*
X-57404D01*
X-30480Y-232410D01*
X-81280Y346710D02*
X-35626D01*
X-31816Y342900D01*
X-30480D01*
X82550Y370840D02*
X135890Y317500D01*
Y310134D02*
Y317500D01*
X-77470Y370840D02*
X82550D01*
X-179070Y319786D02*
X59436D01*
X-193548Y324104D02*
X-70358D01*
X-199390D02*
X-193548D01*
X-254254Y263398D02*
X-193548Y324104D01*
X-55626Y-82709D02*
Y-15240D01*
X-87719Y-200152D02*
X11732D01*
X97790Y169672D02*
X120142D01*
X75184Y147066D02*
X97790Y169672D01*
X29718Y147066D02*
X75184D01*
X14732Y132080D02*
X29718Y147066D01*
X-12446Y132080D02*
X14732D01*
X-23876Y120650D02*
X-12446Y132080D01*
X-23876Y35814D02*
Y120650D01*
Y35814D02*
X1524D01*
X12700Y46990D01*
X55880Y15240D02*
X70866D01*
X112014Y56388D01*
X199390D01*
X209550Y66548D01*
Y162949D01*
X161846Y210652D02*
X209550Y162949D01*
X21082Y204978D02*
X49530Y176530D01*
X71120Y72390D02*
X89154Y90424D01*
X101854D01*
X120396Y108966D01*
X-12700Y182880D02*
X-1524Y171704D01*
X19050D01*
X23768Y176422D01*
Y187465D01*
X11842Y199390D02*
X23768Y187465D01*
X76200Y330200D02*
X188722Y213868D01*
X-246888Y-228458D02*
X-145400Y-329946D01*
X-262890Y-275082D02*
X-212344Y-325628D01*
X-183896D01*
X-233426Y290068D02*
X-199390Y324104D01*
X-374396Y119634D02*
X-366522Y127508D01*
Y149352D01*
X-254254Y261620D01*
Y263398D01*
X-282448Y72438D02*
Y162306D01*
X-250698Y194056D01*
X1524D01*
X12700Y182880D01*
X-43180Y39370D02*
Y48260D01*
X-46736Y35814D02*
X-43180Y39370D01*
X-87884Y35814D02*
X-46736D01*
X-110490Y58420D02*
X-87884Y35814D01*
X-254000Y58420D02*
X-110490D01*
X-264414Y68834D02*
X-254000Y58420D01*
X-264414Y68834D02*
Y83312D01*
X-260350Y87376D01*
X-55880Y-15240D02*
X-55626D01*
X-117861Y-144943D02*
X-55626Y-82709D01*
X-135890Y-144943D02*
X-117861D01*
X-148221Y-157274D02*
X-135890Y-144943D01*
X-148221Y-172073D02*
Y-157274D01*
Y-172073D02*
X-107696Y-212598D01*
X12700Y-128270D02*
Y-78740D01*
X10160Y-130810D02*
X12700Y-128270D01*
X-12192Y-130810D02*
X10160D01*
X-18288Y-124714D02*
X-12192Y-130810D01*
X-47498Y-124714D02*
X-18288D01*
X-90932Y-168148D02*
X-47498Y-124714D01*
X-134874Y-168148D02*
X-90932D01*
X-260350Y-100838D02*
X-164084D01*
X-32512Y-163068D02*
X-12700Y-182880D01*
X-55626Y-163068D02*
X-32512D01*
X-61468Y-168910D02*
X-55626Y-163068D01*
X36830Y-134620D02*
X57912D01*
X123952Y-200660D01*
X191262D01*
X277114Y-114808D01*
Y-69850D01*
X269494Y-62230D02*
X277114Y-69850D01*
X346428Y-19332D02*
X383540Y17780D01*
X294163Y-19332D02*
X346428D01*
X-254051Y167843D02*
X-73398D01*
X-275082Y146812D02*
X-254051Y167843D01*
X-275082Y66802D02*
Y146812D01*
X176530Y-41910D02*
X328168D01*
X342138Y-27940D01*
X74520Y-120650D02*
X142494D01*
X157988Y-136144D01*
X-135684Y-175466D02*
X-105664Y-205486D01*
X-138986Y-175466D02*
X-135684D01*
X-144049Y-170403D02*
X-138986Y-175466D01*
X-144049Y-170403D02*
Y-162845D01*
X-131064Y-149860D01*
X-105410D01*
X-267045Y144943D02*
X-120565D01*
X85344Y104902D02*
Y115570D01*
X54102Y73660D02*
X85344Y104902D01*
X43180Y73660D02*
X54102D01*
X201930Y-25146D02*
X220455Y-6621D01*
X145034Y-25146D02*
X201930D01*
X145034D02*
Y-21590D01*
X128778Y-5334D02*
X145034Y-21590D01*
X106934Y-5334D02*
X128778D01*
X106934Y-21590D02*
Y-5334D01*
X101346Y-27178D02*
X106934Y-21590D01*
X67818Y-27178D02*
X101346D01*
X55880Y-15240D02*
X67818Y-27178D01*
X59436Y319786D02*
X76200Y330200D01*
X-333200Y67310D02*
X-301498D01*
X-2540Y144780D02*
X7366D01*
X14986Y152400D01*
X46990D01*
X27686Y215900D02*
X62992Y251206D01*
X107950D01*
X113284Y245872D01*
X32004Y-59436D02*
X43180Y-48260D01*
X32004Y-79248D02*
Y-59436D01*
Y-79248D02*
X55626Y-102870D01*
Y-122936D02*
Y-102870D01*
Y-122936D02*
X127000Y-194310D01*
X153924D01*
X170180Y-178054D01*
X-67056Y4064D02*
X-55880Y15240D01*
X-67056Y-26416D02*
Y4064D01*
Y-26416D02*
X-59944Y-33528D01*
Y-57150D02*
Y-33528D01*
X-61291Y-58497D02*
X-59944Y-57150D01*
X-158827Y-58497D02*
X-61291D01*
X23876Y-175006D02*
Y-41910D01*
X17780Y-35814D02*
X23876Y-41910D01*
X-30734Y-35814D02*
X17780D01*
X-43180Y-48260D02*
X-30734Y-35814D01*
X-257000Y80010D02*
X-247337D01*
X-212598Y104140D02*
X-167132D01*
X-91694Y67564D02*
Y85598D01*
Y67564D02*
X-71120Y46990D01*
X-303022Y0D02*
X-146050D01*
X-133350Y12700D01*
Y27940D01*
X-118110Y43180D01*
X-333200Y-100378D02*
Y2286D01*
Y-100378D02*
X-317246Y-116332D01*
X-397256Y24892D02*
X-390398Y31750D01*
X-397256Y-17780D02*
Y24892D01*
Y-17780D02*
X-389890Y-25146D01*
X-375412D01*
X-338582Y-61976D01*
Y-155732D02*
Y-61976D01*
Y-155732D02*
X-296672Y-197642D01*
X113284Y60960D02*
X117094Y64770D01*
X30480Y60960D02*
X113284D01*
X12700Y78740D02*
X30480Y60960D01*
X-178562Y83820D02*
X-163830D01*
X-181864Y80518D02*
X-178562Y83820D01*
X-231600Y80518D02*
X-181864D01*
X181610Y-13970D02*
X193294Y-2286D01*
X118110Y-41910D02*
X129540Y-30480D01*
X205026D01*
X224790Y-10716D01*
X232966D01*
X238506Y-16256D01*
X290068D01*
X320500Y14176D01*
X-386080Y16510D02*
X-218900D01*
X-189230Y-27940D02*
X-101600D01*
X-86360Y-12700D01*
X170434Y-73406D02*
X269700D01*
X157226Y-60198D02*
X170434Y-73406D01*
X56642Y-60198D02*
X157226D01*
X43180Y-73660D02*
X56642Y-60198D01*
D66*
X-281707Y-21896D02*
D03*
M02*
