G04*
G04 #@! TF.GenerationSoftware,Altium Limited,Altium Designer,23.1.1 (15)*
G04*
G04 Layer_Physical_Order=2*
G04 Layer_Color=16711680*
%FSLAX25Y25*%
%MOIN*%
G70*
G04*
G04 #@! TF.SameCoordinates,26756865-A546-46B2-AE66-A5EF7FACC8B2*
G04*
G04*
G04 #@! TF.FilePolarity,Positive*
G04*
G01*
G75*
%ADD49C,0.01000*%
%ADD50C,0.01000*%
%ADD51C,0.06102*%
%ADD52P,0.08630X4X245.0*%
%ADD53C,0.06000*%
%ADD54R,0.06102X0.06102*%
%ADD55P,0.08630X4X115.0*%
%ADD56P,0.08630X4X255.0*%
%ADD57R,0.06102X0.06102*%
%ADD58P,0.08630X4X103.0*%
%ADD59P,0.08630X4X84.0*%
%ADD60P,0.08630X4X195.0*%
%ADD61P,0.08630X4X205.0*%
%ADD62P,0.08630X4X186.0*%
%ADD63P,0.08630X4X167.0*%
%ADD64C,0.03150*%
D49*
X34651Y46082D02*
G03*
X34350Y45719I3349J-3082D01*
G01*
X27086Y126571D02*
G03*
X30000Y125500I2914J3429D01*
G01*
X39162Y-38100D02*
G03*
X36836Y-38100I-1163J-4400D01*
G01*
X50417Y-48302D02*
G03*
X46338Y-49227I-1145J-4405D01*
G01*
X-8995Y-69820D02*
G03*
X-9551Y-72000I3995J-2180D01*
G01*
X-25000Y-68431D02*
G03*
X-25000Y-63729I-3897J2351D01*
G01*
X-32642Y-63494D02*
G03*
X-33434Y-65715I3745J-2585D01*
G01*
X-49547Y-48164D02*
G03*
X-52000Y-49065I276J-4543D01*
G01*
X65241Y28510D02*
G03*
X67550Y29622I-741J4490D01*
G01*
X66906Y26907D02*
G03*
X67644Y27253I-2406J6093D01*
G01*
X-24346Y66059D02*
G03*
X-25400Y68993I-4551J21D01*
G01*
X-49523Y48163D02*
G03*
X-49115Y48158I252J4544D01*
G01*
X-49819Y34000D02*
G03*
X-53081Y33249I-681J-4500D01*
G01*
X-49683Y36000D02*
G03*
X-51317Y36000I-817J-6500D01*
G01*
X-135500Y53246D02*
G03*
X-135500Y55595I-4397J1175D01*
G01*
X-134236Y33967D02*
G03*
X-134244Y33970I-346J-938D01*
G01*
X155200Y-9124D02*
G03*
X155200Y-2876I-5700J3124D01*
G01*
Y3376D02*
G03*
X155200Y9624I-5700J3124D01*
G01*
X154909Y14901D02*
G03*
X154905Y14905I-709J-705D01*
G01*
X153200Y-8561D02*
G03*
X153200Y-3439I-3700J2561D01*
G01*
Y3939D02*
G03*
X153200Y9061I-3700J2561D01*
G01*
X-152886Y2547D02*
G03*
X-150000Y1500I2886J3453D01*
G01*
Y1500D02*
G03*
X-145866Y3000I0J6447D01*
G01*
X-26211Y147363D02*
G03*
X-26959Y148778I-4289J-1363D01*
G01*
X26500Y39000D02*
X27082D01*
X28953Y40872D01*
X29618D02*
X31078Y42332D01*
X28953Y40872D02*
X29618D01*
X16500Y-84800D02*
X23394Y-91694D01*
X20117Y-82769D02*
Y-78017D01*
X33675Y-101674D02*
X35075Y-100274D01*
X23394Y-91694D02*
X24694D01*
X37086Y-102611D02*
Y-81586D01*
X33675Y-121325D02*
Y-101674D01*
X20117Y-82769D02*
X35075Y-97726D01*
X24300Y-68800D02*
X37086Y-81586D01*
X35075Y-100274D02*
Y-97726D01*
X24694Y-91694D02*
X32000Y-99000D01*
X-121000Y23000D02*
Y29000D01*
X-131075Y12925D02*
X-121000Y23000D01*
X-89575Y34575D02*
X-87630D01*
X-92000Y37000D02*
X-89575Y34575D01*
X-87630D02*
X-85281Y32225D01*
X-99925Y40075D02*
X-73726D01*
X-107000Y33000D02*
X-99925Y40075D01*
X-114667Y3224D02*
X-113966Y3925D01*
X-84575Y7000D02*
Y7582D01*
X-86423Y4500D02*
X-85848Y3925D01*
X-84575Y7582D02*
X-83500Y8657D01*
Y9100D01*
X-82265Y-13800D02*
X-79302D01*
X-85836Y-7401D02*
X-85199D01*
X-107774Y5575D02*
X-103153D01*
X-90565Y-5500D02*
X-82265Y-13800D01*
X-86680Y-900D02*
X-38100D01*
X-88908Y-1500D02*
X-86909Y-3500D01*
X-106500Y2500D02*
X-87252D01*
X-88080Y500D02*
X-86680Y-900D01*
X-100677Y-3500D02*
X-89737D01*
X-81400Y3925D02*
X-73425Y11900D01*
X-86909Y-3500D02*
X-86425D01*
X-104152Y500D02*
X-88080D01*
X-102078Y4500D02*
X-86423D01*
X-83500Y9100D02*
X-76100Y16500D01*
X-99848Y-5500D02*
X-90565D01*
X-113966Y3925D02*
X-109423D01*
X-85848D02*
X-81400D01*
X-101505Y-1500D02*
X-88908D01*
X-86677Y1925D02*
X-79575D01*
X-89737Y-3500D02*
X-85836Y-7401D01*
X-87252Y2500D02*
X-86677Y1925D01*
X-109423Y3925D02*
X-107774Y5575D01*
X-79575Y1925D02*
X-76000Y5500D01*
X-23600Y-131800D02*
X-20400Y-135000D01*
X-8000D01*
X-67460Y59089D02*
X-65892Y57521D01*
X-70500Y59500D02*
X-70089Y59089D01*
X-74437Y53437D02*
Y54740D01*
X-71425Y55957D02*
Y56077D01*
X-73923Y58575D02*
X-71425Y56077D01*
X-74437Y53437D02*
X-72493Y51493D01*
X-83092Y58575D02*
X-73923D01*
X-70089Y59089D02*
X-67460D01*
X-74848Y55152D02*
X-74437Y54740D01*
X-63726Y65075D02*
X-63639Y65059D01*
X-62898Y67075D02*
X-59509Y66500D01*
X-75774Y67075D02*
X-62898Y67075D01*
X-80405Y66395D02*
X-75774Y67075D01*
X-66274Y65075D02*
X-63726D01*
X-59509Y66500D02*
X-57152D01*
X-74500Y64000D02*
X-66274Y65075D01*
X-93600Y121400D02*
X-73100D01*
X-101000Y114000D02*
X-93600Y121400D01*
X-500Y-141181D02*
X14819D01*
X26000Y-130000D01*
X-84501Y-17499D02*
Y-15999D01*
X-90000Y-10500D02*
X-84501Y-15999D01*
Y-17499D02*
X-80724Y-21276D01*
X-99000Y-12600D02*
Y-9000D01*
X-102200Y-14300D02*
Y-7852D01*
X-103677Y-6500D02*
X-100677Y-3500D01*
X-102200Y-7852D02*
X-99848Y-5500D01*
X-99000Y-12600D02*
X-86575Y-25025D01*
X-113588Y-6500D02*
X-103677D01*
X-116500Y-4500D02*
X-104505D01*
X-119500Y-2500D02*
X-107152D01*
X-104505Y-4500D02*
X-101505Y-1500D01*
X-107152Y-2500D02*
X-104152Y500D01*
X-102200Y-14300D02*
X-93700Y-22800D01*
X-115075Y-7987D02*
X-113588Y-6500D01*
X-111725Y26225D02*
X-104606Y19106D01*
X-103531D01*
X-102325Y7575D02*
X-101250Y6500D01*
X-120500Y-8500D02*
X-116500Y-4500D01*
X-93652Y8500D02*
X-92075Y10077D01*
X-98348Y8500D02*
X-93652D01*
X-103258Y13410D02*
X-98348Y8500D01*
X-103531Y19106D02*
X-96000Y11575D01*
X-103153Y5575D02*
X-102078Y4500D01*
X-86425Y-3500D02*
X-84425Y-5500D01*
X-92823Y6500D02*
X-89000Y10323D01*
X-101250Y6500D02*
X-92823D01*
X-118954Y5425D02*
X-116805Y7575D01*
X-133450Y5425D02*
X-118954D01*
X-134025Y6000D02*
X-133450Y5425D01*
X-150000Y6000D02*
X-134025D01*
X-116805Y7575D02*
X-102325D01*
X-86575Y-25025D02*
X-82516D01*
X-115075Y-48025D02*
Y-7987D01*
Y-48025D02*
X-109406Y-53694D01*
X-85199Y-7401D02*
X-82500Y-10100D01*
X-121756Y3224D02*
X-114667D01*
X-89000Y10323D02*
Y10500D01*
X-38100Y-900D02*
X-34000Y-5000D01*
X-85115Y-37401D02*
X-73849D01*
X-85341Y-37175D02*
X-85115Y-37401D01*
X-77259Y-34737D02*
X-75237D01*
X-78525Y-35175D02*
X-77697D01*
X-77259Y-34737D01*
X-75237D02*
X-74826Y-34326D01*
X-97600Y-37175D02*
X-85341D01*
X-73849Y-37401D02*
X-73161Y-38089D01*
X-70911D01*
X-70500Y-38500D01*
X-87613Y-31113D02*
X-78812D01*
X-88000Y-31500D02*
X-87613Y-31113D01*
X-78812D02*
X-78425Y-30726D01*
X-91734Y-34575D02*
X-79125D01*
X-78525Y-35175D01*
X-92909Y-33400D02*
X-91734Y-34575D01*
X-106100Y-33400D02*
X-92909D01*
X-91434Y-30586D02*
X-87874Y-27025D01*
X-78874D01*
X-95807Y-30586D02*
X-91434D01*
X-82516Y-25025D02*
X-81841Y-24350D01*
X-80724Y-21276D02*
X-75161D01*
X-71225Y-27425D02*
X-70185Y-26385D01*
X-78874Y-27025D02*
X-78474Y-27425D01*
X-75161Y-21276D02*
X-72051Y-24385D01*
X-78474Y-27425D02*
X-71225D01*
X-81841Y-24350D02*
X-77200D01*
X-122492Y2489D02*
X-121756Y3224D01*
X-121303Y7425D02*
X-118500Y10228D01*
Y10500D01*
X-117725Y20775D02*
Y47500D01*
X-131075Y9226D02*
Y12925D01*
X-128000Y10500D02*
X-117725Y20775D01*
X-131075Y9226D02*
X-129274Y7425D01*
X-121303D01*
X-92075Y11774D02*
X-82748Y21100D01*
X-63187D01*
X-92075Y10077D02*
Y11774D01*
X-113725Y24825D02*
X-103258Y14358D01*
Y13410D02*
Y14358D01*
X-111725Y26225D02*
Y48300D01*
X-113725Y24825D02*
Y50550D01*
X-95925Y32575D02*
X-88459D01*
X-84291Y35584D02*
X-73584D01*
X-73300Y35300D01*
X-85281Y32225D02*
X-74123D01*
X-72098Y30200D02*
X-71800D01*
X-96000Y32500D02*
X-95925Y32575D01*
X-84575Y35868D02*
X-84291Y35584D01*
X-92706Y30575D02*
X-89287D01*
X-86059Y30175D02*
X-80125D01*
X-88459Y32575D02*
X-86059Y30175D01*
X-93855Y29425D02*
X-92706Y30575D01*
X-97348Y29500D02*
X-97274Y29425D01*
X-93855D01*
X-86887Y28175D02*
X-82875D01*
X-103000Y29500D02*
X-97348D01*
X-91000Y27500D02*
X-86600Y23100D01*
X-74123Y32225D02*
X-72098Y30200D01*
X-89287Y30575D02*
X-86887Y28175D01*
X-86600Y23100D02*
X-82852D01*
X-80125Y30175D02*
X-77050Y27100D01*
X-82875Y28175D02*
X-79800Y25100D01*
X-82852Y23100D02*
X-65687D01*
X-73726Y40075D02*
X-72026Y38375D01*
X-63438D01*
X117500Y-27082D02*
Y-26500D01*
X119375Y-59362D02*
Y-28956D01*
X117500Y-27082D02*
X119375Y-28956D01*
X124000Y-59600D02*
Y-27000D01*
X78800Y-104800D02*
X124000Y-59600D01*
X127500Y-34183D02*
Y-31000D01*
X132000Y-26500D01*
X38051Y949D02*
X73385D01*
X126963Y-4350D02*
X129718Y-7106D01*
X119959Y-4350D02*
X126963D01*
X71500Y-5500D02*
X79425Y2425D01*
X109925D01*
X79443Y-5457D02*
X82400Y-2500D01*
X116981Y-4500D02*
X126181Y4700D01*
X73385Y949D02*
X77936Y5500D01*
X119713Y-7425D02*
X124000D01*
X77936Y5500D02*
X104300D01*
X94000Y-6500D02*
X117810D01*
X89500Y-11000D02*
X94000Y-6500D01*
X109925Y2425D02*
X119000Y11500D01*
X118638Y-8500D02*
X119713Y-7425D01*
X79936Y-13564D02*
X89000Y-4500D01*
X34000Y5000D02*
X38051Y949D01*
X82400Y-2500D02*
X112800D01*
X96800Y-8500D02*
X118638D01*
X112800Y-2500D02*
X123100Y7800D01*
X89000Y-4500D02*
X116981D01*
X117810Y-6500D02*
X119959Y-4350D01*
X92275Y-18500D02*
X100275Y-10500D01*
X88800Y-16500D02*
X96800Y-8500D01*
X100275Y-10500D02*
X129000D01*
X129718Y-7106D02*
X136435D01*
X137168Y-6786D02*
X149500Y6500D01*
X136849Y-7106D02*
X137168Y-6786D01*
X136435Y-7106D02*
X136849Y-7106D01*
X114726Y29575D02*
X139521D01*
X121948Y18733D02*
X127485Y13196D01*
X106200Y28300D02*
X113452D01*
X116000Y26500D02*
X121948Y20552D01*
X113452Y28300D02*
X114726Y29575D01*
X121948Y18733D02*
Y20552D01*
X139521Y29575D02*
X153900Y15196D01*
X127485Y13196D02*
X152614D01*
X153200Y12610D01*
X64870Y-21870D02*
X79121D01*
X79502Y-21489D01*
X59500Y-16500D02*
X64870Y-21870D01*
X-120500Y82500D02*
X-118200Y80200D01*
X-92300D01*
X19700Y-144200D02*
X22489Y-141411D01*
X25089D02*
X25500Y-141000D01*
X22489Y-141411D02*
X25089D01*
X1164Y-144200D02*
X19700D01*
X82117Y-50231D02*
X87575Y-44774D01*
X74700Y-56100D02*
X80569Y-50231D01*
X76000Y-44600D02*
X80175Y-40425D01*
X58381Y-47704D02*
X80296D01*
X84500Y-43500D01*
X80175Y-40425D02*
X85774D01*
X80569Y-50231D02*
X82117D01*
X85774Y-40425D02*
X87575Y-42226D01*
Y-44774D02*
Y-42226D01*
X90148Y-67826D02*
X93713Y-64262D01*
Y-42886D01*
X96846Y-43912D02*
X105954D01*
X94661Y-40175D02*
X103641D01*
X96787Y-43971D02*
X96846Y-43912D01*
X94075Y-42523D02*
Y-40761D01*
X91000Y-54300D02*
Y-41250D01*
X81225Y-64075D02*
X91000Y-54300D01*
X93713Y-42886D02*
X94075Y-42523D01*
X105954Y-43912D02*
X116575Y-54533D01*
X94075Y-40761D02*
X94661Y-40175D01*
X78076Y-38175D02*
X100837D01*
X74750Y-41500D02*
X78076Y-38175D01*
X-63639Y65059D02*
X-60512Y64500D01*
X-80418Y66382D02*
X-80405Y66395D01*
X-56323Y64500D02*
X-41665Y64723D01*
X-60512Y64500D02*
X-56323D01*
X-87500Y59300D02*
X-80418Y66382D01*
X-44736Y59340D02*
X-41500Y59000D01*
X-65000Y62000D02*
X-44736Y59340D01*
X-41665Y64723D02*
X-41580Y64791D01*
X-65572Y57200D02*
X-65473Y57200D01*
X-65892Y57521D02*
X-65572Y57200D01*
X-65473Y57200D02*
X-63995Y57322D01*
X-72493Y51493D02*
X-71664D01*
X-71425Y55957D02*
X-70300Y54832D01*
X-84367Y57300D02*
X-83092Y58575D01*
X-70035Y54568D02*
X-69662Y54542D01*
X-101008Y50525D02*
X-94233Y57300D01*
X-70300Y54832D02*
X-70035Y54568D01*
X-69662Y54542D02*
X-67974Y54425D01*
X-94233Y57300D02*
X-84367D01*
X-63167Y55322D02*
X-60619D01*
X-58818Y53338D02*
X-57037Y51211D01*
X-56451Y50625D01*
X-54226D01*
X-59791Y57322D02*
X-59093Y57052D01*
X-58818Y53338D02*
Y53521D01*
X-59093Y57052D02*
X-56111Y54979D01*
X-60619Y55322D02*
X-58818Y53521D01*
X-71664Y51493D02*
X-61893Y52248D01*
X57099Y-49251D02*
X57810Y-49962D01*
X59290D01*
X58901Y-52401D02*
X67500Y-61000D01*
X54552Y-49251D02*
X57099D01*
X55826Y-52326D02*
X55901Y-52401D01*
X58901D01*
X57928Y-47251D02*
X58381Y-47704D01*
X55751Y-47251D02*
X57928D01*
X54475Y-49329D02*
X54552Y-49251D01*
X54300Y-45800D02*
X55751Y-47251D01*
X59290Y-49962D02*
X62628Y-53300D01*
X77000Y-10000D02*
X79443Y-7557D01*
Y-5457D01*
X53000Y-8600D02*
Y-8500D01*
X50100Y-11500D02*
X53000Y-8600D01*
X35000Y-11500D02*
X50100D01*
X56073Y35500D02*
X60564D01*
X54573Y37000D02*
X56073Y35500D01*
X45500Y24900D02*
Y37348D01*
X49500Y37000D02*
X54573D01*
X45500Y37348D02*
X55900Y47748D01*
Y49400D01*
X70500Y64000D01*
X38936Y37500D02*
X44720Y43284D01*
X32500Y37500D02*
X38936D01*
X31657Y42911D02*
X34350Y45719D01*
X31078Y42332D02*
X31657Y42911D01*
X22000Y29800D02*
X26500Y34300D01*
X40500D01*
X42600Y36400D01*
X44720Y43284D02*
Y54238D01*
X36600Y48200D02*
Y56695D01*
X34651Y46082D02*
X36600Y48200D01*
X-42951Y-21451D02*
X-38000Y-16500D01*
X-63885Y-21451D02*
X-42951D01*
X26000Y107000D02*
X49233D01*
X23589Y114589D02*
X26089D01*
X26500Y115000D01*
X20900Y111900D02*
X23589Y114589D01*
X26000Y123500D02*
X52700D01*
X25500Y127914D02*
X25500Y127500D01*
X26086Y126914D02*
X27086Y126571D01*
X30000Y125500D02*
X58000D01*
X25500Y127914D02*
Y132500D01*
X58000Y125500D02*
X58293Y125207D01*
X25500Y127500D02*
X26086Y126914D01*
X52993Y123207D02*
X94256Y81944D01*
X52700Y123500D02*
X52993Y123207D01*
X58293Y125207D02*
X107500Y76000D01*
X94256Y24100D02*
Y81944D01*
X15544Y143956D02*
X22500Y137000D01*
X26000D01*
X7000Y153500D02*
X15544Y144956D01*
Y143956D02*
Y144956D01*
X11800Y154500D02*
X25000D01*
X42500Y137000D02*
X58623D01*
X25000Y154500D02*
X42500Y137000D01*
X-115600Y86100D02*
X-103900D01*
X-71000Y119000D01*
X-44700D01*
X-93967Y90200D02*
X-67567Y116600D01*
X-94075Y90200D02*
X-93967D01*
X61057Y-37919D02*
X61318Y-38071D01*
X61587Y-38071D02*
X66124D01*
X67522Y-41021D02*
X71393D01*
X71872Y-41500D01*
X72104Y-37947D02*
X73875Y-36175D01*
X66124Y-38071D02*
X66248Y-37947D01*
X58459Y-36296D02*
X61057Y-37919D01*
X66248Y-37947D02*
X72104D01*
X71872Y-41500D02*
X74750D01*
X61318Y-38071D02*
X61587Y-38071D01*
X62228Y-60080D02*
X66223Y-64075D01*
X67500Y-61000D02*
X78500D01*
X66223Y-64075D02*
X81225D01*
X108706Y-58000D02*
X113500D01*
X112575Y-63300D02*
X116575Y-59300D01*
X92706Y-74000D02*
X108706Y-58000D01*
X116575Y-59300D02*
Y-54533D01*
X98006Y-78394D02*
X100343D01*
X51100Y-136240D02*
Y-125300D01*
X98006Y-78394D01*
X110100Y-63300D02*
X112575D01*
X100343Y-78394D02*
X119375Y-59362D01*
X16900Y-38100D02*
X36836D01*
X56304Y-37727D02*
X56848Y-36856D01*
X16607Y-37807D02*
X16900Y-38100D01*
X56848Y-36856D02*
X57408Y-36296D01*
X39162Y-38100D02*
X55930D01*
X12400Y-33600D02*
X16607Y-37807D01*
X57408Y-36296D02*
X58459D01*
X55930Y-38100D02*
X56304Y-37727D01*
X62628Y-53300D02*
X70400D01*
X52729Y-49329D02*
X54475D01*
X51896Y-48496D02*
X52729Y-49329D01*
X29079Y-53471D02*
X30569Y-52425D01*
X46338Y-49227D01*
X31398Y-54425D02*
X37119Y-54096D01*
X28841Y-53471D02*
X28961D01*
X37119Y-54096D02*
X40594Y-53877D01*
X29722Y-55471D02*
X31398Y-54425D01*
X30425Y-58226D02*
X32226Y-56425D01*
X30425Y-60774D02*
X32226Y-62575D01*
X33500Y-59500D02*
X40428Y-64791D01*
X32226Y-56425D02*
X38041Y-56100D01*
X32226Y-62575D02*
X47885Y-77400D01*
X40428Y-64791D02*
X59300Y-65900D01*
X28013Y-55471D02*
X29722D01*
X47885Y-77400D02*
X81300D01*
X30425Y-60774D02*
Y-58226D01*
X28961Y-53471D02*
X29079Y-53471D01*
X38041Y-56100D02*
X38714D01*
X51070Y-48203D02*
X51603D01*
X50417Y-48302D02*
X50538Y-48302D01*
X39300Y-59000D02*
Y-56686D01*
X24749Y-51000D02*
X26501Y-52752D01*
X40594Y-53877D02*
X41420Y-53209D01*
X38714Y-56100D02*
X39300Y-56686D01*
X26699Y-52950D02*
X28841Y-53471D01*
X50656Y-48302D02*
X51070Y-48203D01*
X21736Y-53000D02*
X23443Y-54707D01*
X50538Y-48302D02*
X50656Y-48302D01*
X26501Y-52752D02*
X26699Y-52950D01*
X51603Y-48203D02*
X51896Y-48496D01*
X23443Y-54707D02*
X28013Y-55471D01*
X44180Y-55000D02*
X45128D01*
X43067Y-53703D02*
X43850Y-54670D01*
X42572Y-53209D02*
X43067Y-53703D01*
X41420Y-53209D02*
X42572D01*
X45421Y-55293D02*
X52208Y-62080D01*
X43850Y-54670D02*
X44180Y-55000D01*
X45128D02*
X45421Y-55293D01*
X22500Y-51000D02*
X24749D01*
X24300Y-68800D02*
Y-64500D01*
X-20900Y-41500D02*
X-12400Y-33000D01*
X-33449Y-43500D02*
X-31449Y-41500D01*
X-20900D01*
X-4600Y-55700D02*
Y-51600D01*
X-9551Y-83297D02*
X-9258Y-83590D01*
X-11551Y-66223D02*
X-4600Y-55700D01*
X-11551Y-67023D02*
X-11551Y-66223D01*
X-9551Y-83297D02*
X-9551Y-72000D01*
X-8995Y-69820D02*
X-5000Y-62500D01*
X-9258Y-83590D02*
X-3274Y-89575D01*
X-11551Y-84126D02*
Y-67023D01*
X-2000Y-86500D02*
Y-85918D01*
X-3274Y-89575D02*
X79D01*
X-2000Y-85918D02*
X-500Y-84418D01*
X79Y-89575D02*
X1366Y-88287D01*
X-3577Y-92100D02*
X3200D01*
X-500Y-84418D02*
Y-82944D01*
X1366Y-88287D02*
X5300D01*
X-11551Y-84126D02*
X-3577Y-92100D01*
X-500Y-82944D02*
X0Y-82444D01*
Y-57000D01*
X-5000Y-79493D02*
X-4000Y-80493D01*
Y-81075D02*
Y-80493D01*
X-5000Y-79493D02*
Y-72000D01*
X19170Y-92170D02*
X26000Y-99000D01*
X17970Y-92170D02*
X19170D01*
X11551Y-85751D02*
X17970Y-92170D01*
X9551Y-88351D02*
X27000Y-105800D01*
Y-119500D02*
Y-105800D01*
X30500Y-124500D02*
X33675Y-121325D01*
X-43091Y-135500D02*
X-27000D01*
X-43791Y-136200D02*
X-43091Y-135500D01*
X-59300Y-136200D02*
X-43791D01*
X-53400Y-129800D02*
X-11800D01*
X-11500Y-129500D01*
X-19925Y-112275D02*
X-16768Y-115432D01*
X-14568D02*
X-11000Y-119000D01*
X-16768Y-115432D02*
X-14568D01*
X-11864Y-100636D02*
X-11500Y-101000D01*
X-11864Y-100636D02*
Y-97925D01*
X-13019Y-96771D02*
X-11864Y-97925D01*
X-26500Y-99681D02*
Y-99500D01*
X-38303Y-111484D02*
X-26500Y-99681D01*
X-61052Y-111484D02*
X-38303D01*
X-40525Y-108700D02*
X-26325Y-94500D01*
X-21925Y-114500D02*
Y-95634D01*
X-26325Y-94500D02*
X-21925Y-95634D01*
X-14500Y-69069D02*
X-14089Y-67941D01*
X-14500Y-85800D02*
Y-69069D01*
Y-66644D02*
X-14089Y-67055D01*
X-14500Y-66644D02*
Y-63700D01*
Y-85800D02*
X-14207Y-86093D01*
X-14793Y-63407D02*
X-14500Y-63700D01*
X-16400Y-61800D02*
X-14793Y-63407D01*
X-14089Y-67941D02*
Y-67055D01*
X-14207Y-86093D02*
X-12000Y-88300D01*
X-25000Y-61400D02*
X-21700Y-58100D01*
X-28000Y-77341D02*
Y-76246D01*
X-25000Y-63729D02*
Y-61400D01*
X-31150Y-72226D02*
X-29479Y-66662D01*
X-28075Y-73500D02*
X-28000Y-76246D01*
X-29479Y-66662D02*
X-29186Y-66369D01*
X-24707Y-85083D02*
X-13019Y-96771D01*
X-31150Y-74774D02*
X-30900Y-79600D01*
X-29186Y-66369D02*
X-28897Y-66080D01*
X-31150Y-74774D02*
Y-72226D01*
X-25000Y-84790D02*
X-24707Y-85083D01*
X-25000Y-84790D02*
Y-68431D01*
X-28000Y-77341D02*
X-27300Y-78041D01*
Y-81300D02*
Y-78041D01*
X-27481Y-56001D02*
X-27364Y-55861D01*
X-32642Y-63494D02*
X-27481Y-56001D01*
X-35799Y-57099D02*
X-32200Y-53500D01*
X-27003Y-55500D02*
X-23982D01*
X-27364Y-55861D02*
X-27003Y-55500D01*
X-26100Y-53500D02*
X-22651Y-50051D01*
X-32200Y-53500D02*
X-26100D01*
X-22582Y-54100D02*
X-22000D01*
X-23982Y-55500D02*
X-22582Y-54100D01*
X-39500Y-65200D02*
X-36000Y-61700D01*
X-35709Y-59080D02*
Y-57928D01*
X-35799Y-57838D02*
X-35709Y-57928D01*
X-36000Y-61700D02*
Y-59440D01*
X-35799Y-57513D02*
X-35799Y-57838D01*
X-36000Y-59440D02*
X-35709Y-59080D01*
X-35799Y-57513D02*
X-35799Y-57099D01*
X-43600Y-91000D02*
X-34755Y-82155D01*
X-33434Y-65715D01*
X-53986Y-40214D02*
Y-39386D01*
X-51500Y-36900D01*
X-53986Y-40214D02*
X-53296Y-40904D01*
Y-43592D02*
Y-40904D01*
X-53856Y-44152D02*
X-53296Y-43592D01*
X-49571Y-42500D02*
X-38000D01*
X-50157Y-43086D02*
X-49571Y-42500D01*
X-53027Y-46152D02*
X-51296Y-44420D01*
X-58043Y-50971D02*
X-53027Y-46152D01*
X-59829Y-53172D02*
X-59800Y-52729D01*
X-57800Y-53557D02*
X-57214Y-52971D01*
X-57800Y-53971D02*
X-57800Y-53557D01*
X-36664Y-47600D02*
X-36371Y-47307D01*
X-40874Y-47625D02*
X-36664Y-47600D01*
X-59829Y-56329D02*
Y-53172D01*
X-49547Y-48164D02*
X-40874Y-47625D01*
X-57214Y-52971D02*
X-52000Y-49065D01*
X-57800Y-57900D02*
Y-53971D01*
X-59800Y-52729D02*
X-58043Y-50971D01*
X-54379Y-44479D02*
X-53856Y-44152D01*
X-56787Y-46887D02*
X-54379Y-44479D01*
X-51296Y-44420D02*
X-50157Y-43086D01*
X-36371Y-47307D02*
X-33449Y-44385D01*
X-58232Y-46887D02*
X-56787D01*
X-59541Y-47704D02*
X-58232Y-46887D01*
X-63600Y-51100D02*
X-60204Y-47704D01*
X-63600Y-55725D02*
Y-51100D01*
X-60204Y-47704D02*
X-59541D01*
X-112000Y-35500D02*
X-109544Y-33044D01*
Y-31635D02*
X-107500Y-29591D01*
X-109544Y-33044D02*
Y-31635D01*
X76000Y22500D02*
X80000Y26500D01*
X91181D01*
X67644Y27253D02*
X68319Y27622D01*
X80478Y38546D01*
X81649Y39649D02*
X82235Y40235D01*
X63207Y27929D02*
X63500Y28222D01*
X59500Y24222D02*
X63207Y27929D01*
X64900Y13100D02*
Y24135D01*
X80478Y38546D02*
X81649Y39649D01*
X67550Y29622D02*
X79649Y40546D01*
X72249Y24449D02*
X85300Y37500D01*
X65599Y25600D02*
X66906Y26907D01*
X79649Y40546D02*
X80235Y41132D01*
X68674Y24326D02*
X72249Y24449D01*
X82235Y40235D02*
Y42509D01*
X64900Y24135D02*
X65599Y25600D01*
X80235Y41132D02*
Y44509D01*
X63500Y28222D02*
X65241Y28510D01*
X39600Y75116D02*
X39600Y74689D01*
X39675Y71512D01*
X39600Y75116D02*
X39675Y78100D01*
X35709Y58726D02*
X36600Y59826D01*
Y84300D01*
X35709Y57573D02*
X36204Y57078D01*
X36270Y57025D02*
X36600Y56695D01*
X35709Y57573D02*
Y58726D01*
X36204Y57078D02*
X36270Y57025D01*
X14000Y65849D02*
Y81200D01*
X12000Y62681D02*
X19100Y55581D01*
X12000Y62681D02*
Y77424D01*
X-300Y95500D02*
X14000Y81200D01*
Y65849D02*
X21100Y58749D01*
X7468Y81956D02*
X12000Y77424D01*
X5893Y81956D02*
X7468D01*
X15100Y34900D02*
X22514D01*
X22807Y35193D01*
X23100Y35486D02*
Y66084D01*
X24911Y71059D01*
Y71945D01*
X24236Y72619D02*
X24911Y71945D01*
X23550Y72869D02*
X24236Y72619D01*
X23100Y73319D02*
X23550Y72869D01*
X23100Y73319D02*
Y85771D01*
X22807Y86064D02*
X23100Y85771D01*
X3871Y105000D02*
X22807Y86064D01*
X22807Y35193D02*
X23100Y35486D01*
X27200Y74600D02*
Y84500D01*
X-62491Y123000D02*
X-56500D01*
X-64291Y124800D02*
X-62491Y123000D01*
X-69700Y124800D02*
X-64291D01*
X-23000Y154000D02*
X-22589Y154411D01*
X-20989D01*
X-20500Y154900D01*
X-14600D01*
X-13000Y100848D02*
Y107133D01*
X-12000Y108133D02*
Y115000D01*
X-8925Y103325D02*
Y116274D01*
X-14600Y118100D02*
X-10752D01*
X-13000Y107133D02*
X-12000Y108133D01*
X-10752Y118100D02*
X-8925Y116274D01*
Y103325D02*
X-7500Y101900D01*
X-36100Y110900D02*
X-26500Y120500D01*
X-36100Y81500D02*
Y110900D01*
X-27000Y111000D02*
X-16500Y121500D01*
X-9800D01*
X-4444Y86444D02*
X2700Y79300D01*
X-4444Y86444D02*
Y87944D01*
X-12000Y95500D02*
X-4444Y87944D01*
X-13000Y100848D02*
X5893Y81956D01*
X-29075Y81656D02*
Y97125D01*
X-26200Y100000D01*
X-25707Y90000D02*
X-23679Y92028D01*
X-22972D02*
X-17000Y98000D01*
X-26000Y90000D02*
X-25707D01*
X-23679Y92028D02*
X-22972D01*
X-28300Y80300D02*
Y80882D01*
X-29075Y81656D02*
X-28300Y80882D01*
X-24346Y65646D02*
X-21700Y63000D01*
X-25986Y70700D02*
X-25693Y70407D01*
X-25693Y70407D02*
X-25400Y70114D01*
X-33428Y70700D02*
X-25986D01*
X-24346Y66059D02*
X-24346Y65646D01*
X-25400Y68993D02*
Y70114D01*
X-14000Y63000D02*
X-5000Y72000D01*
X-21700Y63000D02*
X-14000D01*
X-68725Y94200D02*
X-56928D01*
X-69100Y94575D02*
X-68725Y94200D01*
X-68075Y72500D02*
X-68000D01*
X-44753Y45000D02*
X-36753Y53000D01*
X-22787Y54551D02*
X-22494Y54258D01*
X-25300Y53000D02*
X-25007Y52707D01*
X-37581Y55000D02*
X-29452Y55668D01*
X-26772D02*
X-22787Y54551D01*
X-27600Y53668D02*
X-26932Y53000D01*
X-36753D02*
X-29781D01*
X-26932D02*
X-25300D01*
X-29452Y55668D02*
X-26772D01*
X-25007Y52707D02*
X-20400Y48100D01*
X-29781Y53000D02*
X-28624Y53668D01*
X-49115Y48158D02*
X-44257Y48324D01*
X-38042Y54540D02*
X-37581Y55000D01*
X-28624Y53668D02*
X-27600D01*
X-44257Y48324D02*
X-38042Y54540D01*
X-22494Y54258D02*
X-21736Y53500D01*
X-38814Y66342D02*
X-28897Y66080D01*
X-57152Y66500D02*
X-42409Y66791D01*
X-53500Y72500D02*
X-53207Y72207D01*
X-62000Y69375D02*
X-58425Y69575D01*
X-59699Y72650D02*
X-57152D01*
X-53207Y72207D02*
X-50200Y69200D01*
X-39599Y66791D02*
X-39308Y66500D01*
X-40428Y64791D02*
X-40136Y64500D01*
X-68000Y72500D02*
X-59699Y72650D01*
X-39308Y66500D02*
X-38814Y66342D01*
X-41580Y64791D02*
X-40428D01*
X-128599Y69375D02*
X-62000D01*
X-41574Y69200D02*
X-37999Y69417D01*
X-42409Y66791D02*
X-39599D01*
X-39800Y64500D02*
X-34829Y59529D01*
X-40136Y64500D02*
X-39800D01*
X-57152Y72650D02*
X-53500Y72500D01*
X-50200Y69200D02*
X-41574D01*
X-44170Y34000D02*
X-44119Y34051D01*
X-49819Y34000D02*
X-44170D01*
X-35600Y34051D02*
X-35307Y33758D01*
X-57385Y36000D02*
X-51317D01*
X-58660Y35776D02*
X-57609D01*
X-57385Y36000D01*
X-61064D02*
X-59019D01*
X-61357Y36293D02*
X-61064Y36000D01*
X-63438Y38375D02*
X-61357Y36293D01*
X-59019Y36000D02*
X-58660Y35776D01*
X-49683Y36000D02*
X-44999D01*
X-63465Y26100D02*
X-53081Y33249D01*
X-44119Y34051D02*
X-35600D01*
X-44999Y36000D02*
X-37999Y43000D01*
X-35307Y33758D02*
X-32551Y31002D01*
X-66687Y26100D02*
X-63465D01*
X-90200Y42500D02*
X-71746D01*
X-59741Y47185D02*
X-56245Y45000D01*
X-62508D02*
X-62135Y45373D01*
X-57602Y48625D02*
X-49523Y48163D01*
X-58913Y49185D02*
X-57602Y48625D01*
X-61633Y49173D02*
X-61621Y49185D01*
X-84988Y48324D02*
X-61633Y49173D01*
X-85816Y48324D02*
X-84988Y48324D01*
X-65426Y54425D02*
X-63167Y55322D01*
X-67974Y54425D02*
X-65426D01*
X-63995Y57322D02*
X-59791D01*
X-56245Y45000D02*
X-44753D01*
X-88178Y46359D02*
X-87112Y45293D01*
X-60793Y47185D02*
X-59741D01*
X-61353Y46625D02*
X-60793Y47185D01*
X-71746Y42500D02*
X-69000Y41925D01*
X-85850Y48359D02*
X-85816Y48324D01*
X-61621Y49185D02*
X-58913D01*
X-62135Y45373D02*
X-61353Y46625D01*
X-54226Y50625D02*
X-53207Y50870D01*
X-86819Y45000D02*
X-62508D01*
X-87112Y45293D02*
X-86819Y45000D01*
X-53207Y50870D02*
X-52500Y51578D01*
X-98822Y46359D02*
X-88178D01*
X-110675Y53600D02*
X-104075D01*
X-137694Y50486D02*
Y51314D01*
X-137911Y47727D02*
X-137560Y41605D01*
X-137911Y47727D02*
Y50269D01*
X-135911Y48555D02*
X-135500Y48144D01*
X-135911Y48555D02*
Y49441D01*
X-135500Y47300D02*
Y48144D01*
Y63200D02*
X-134374Y64326D01*
X-135500Y47300D02*
X-135207Y47007D01*
X-135911Y49441D02*
X-135500Y50569D01*
X-135207Y47007D02*
X-133603Y45403D01*
X-139014Y37021D02*
X-137560Y41014D01*
X-137560Y41605D02*
X-137560Y41014D01*
X-137911Y50269D02*
X-137694Y50486D01*
X-135500Y50569D02*
Y53246D01*
X-139897Y51900D02*
X-138280D01*
X-135500Y55595D02*
Y63200D01*
X-138280Y51900D02*
X-137694Y51314D01*
X-130298Y34029D02*
X-129086D01*
X-128500Y41333D02*
Y45000D01*
Y41333D02*
X-128192Y41025D01*
Y40139D02*
Y41025D01*
X-128500Y34614D02*
Y39293D01*
X-128793Y34321D02*
X-128500Y34614D01*
Y45000D02*
X-124725Y48775D01*
X-129086Y34029D02*
X-128793Y34321D01*
X-128500Y39293D02*
X-128192Y40139D01*
X-131158Y33169D02*
X-130298Y34029D01*
X-137950Y35319D02*
X-137500Y34869D01*
X-137207Y34321D02*
X-136914Y34029D01*
X-134236Y33967D02*
X-132044Y33169D01*
X-142256Y34700D02*
X-139877Y32322D01*
X-137500Y34614D02*
X-137207Y34321D01*
X-130330Y31169D02*
X-122884Y32322D01*
X-139014Y36135D02*
Y37021D01*
X-134406Y34029D02*
X-134244Y33970D01*
X-136914Y34029D02*
X-134582D01*
X-137500Y34614D02*
Y34869D01*
X-139014Y36135D02*
X-138339Y35460D01*
X-132044Y33169D02*
X-131158D01*
X-139877Y32322D02*
X-132872Y31169D01*
X-130330D01*
X-134582Y34029D02*
X-134406Y34029D01*
X-138339Y35460D02*
X-137950Y35319D01*
X-122884Y32322D02*
X-121206Y34000D01*
X154614Y-12800D02*
X155200Y-12214D01*
X154909Y14901D02*
X155200Y14610D01*
X145300Y-12800D02*
X154614D01*
X153200Y-9914D02*
Y-8561D01*
X154614Y15196D02*
X154905Y14905D01*
X153900Y15196D02*
X154614D01*
X152614Y-10500D02*
X153200Y-9914D01*
Y-3439D02*
Y3939D01*
X142300Y-10500D02*
X152200D01*
X155200Y-2876D02*
Y3376D01*
Y-12214D02*
Y-9124D01*
X153200Y9061D02*
Y12610D01*
X155200Y9624D02*
Y14610D01*
X152200Y-10500D02*
X152614Y-10500D01*
X123100Y7800D02*
X140200D01*
X140500Y7500D01*
X-141500Y-6500D02*
X-139118D01*
X-132693Y-75D01*
X-145866Y3000D02*
X-129133D01*
X-128547Y2414D01*
Y-10853D02*
Y2414D01*
X-125472Y-1200D02*
X-122492Y2489D01*
X-92917Y-102583D02*
Y-102305D01*
Y-102583D02*
X-91787Y-103713D01*
X-128547Y-10853D02*
X-128254Y-11146D01*
X-126700Y-12700D01*
X-153547Y2547D02*
X-152886D01*
X-153840Y2840D02*
X-153547Y2547D01*
X-154500Y3500D02*
X-153840Y2840D01*
X-26211Y147363D02*
X-24774Y145925D01*
X-26211Y147363D02*
X-26211Y147363D01*
X-121206Y34000D02*
X-120800D01*
X-133200Y22500D02*
X-133000Y22700D01*
Y25500D01*
X-141187Y28575D02*
X-128732D01*
X-145331Y32719D02*
X-141187Y28575D01*
X-128732D02*
X-126193Y26035D01*
X-115725Y53075D02*
X-109500Y59300D01*
X-111725Y48300D02*
X-109500Y50525D01*
X-115725Y22025D02*
X-106333Y12633D01*
X-115725Y22025D02*
Y53075D01*
X-113725Y50550D02*
X-110675Y53600D01*
X-109500Y50525D02*
X-101008D01*
X-14600Y154900D02*
X-13500Y156000D01*
X-121200Y96400D02*
X-98100D01*
X-73100Y121400D02*
X-69700Y124800D01*
X-98100Y96400D02*
X-73100Y121400D01*
X-22226Y145925D02*
X-14800Y148800D01*
X-24774Y145925D02*
X-22226D01*
X-29300Y151600D02*
X-28714Y151014D01*
X-37900Y151600D02*
X-29300D01*
X-14507Y149093D02*
X-10100Y153500D01*
X-14800Y148800D02*
X-14507Y149093D01*
X-28714Y151014D02*
X-26959Y148778D01*
X-3500Y2900D02*
X0D01*
X-143200Y12500D02*
X-133200Y22500D01*
X-92917Y-102305D02*
Y-82283D01*
X-91787Y-103713D02*
X-59300Y-136200D01*
X-97136Y-97052D02*
X-92917Y-102305D01*
X-91787Y-103713D01*
X-35300Y128400D02*
Y136500D01*
X-52500Y51578D02*
Y52707D01*
X-52700Y-56200D02*
Y-52707D01*
X19500Y-72183D02*
X23058D01*
X-8835Y130000D02*
X1165Y140000D01*
X0Y-5000D02*
X4600Y-400D01*
Y9635D01*
X635Y13600D02*
X4600Y9635D01*
X-8500Y13600D02*
X635D01*
X-9600Y14700D02*
X-8500Y13600D01*
X-9600Y14700D02*
Y22700D01*
X-6300Y26000D01*
X-1500D01*
X-300Y27200D01*
Y32700D01*
X3900Y36900D01*
X21100D01*
Y58749D01*
X61500Y5500D02*
X66100Y10100D01*
X72600D01*
X83400Y20900D01*
X91056D01*
X94256Y24100D01*
X96256Y25256D02*
X101300Y30300D01*
X96256Y21500D02*
Y25256D01*
X93634Y18878D02*
X96256Y21500D01*
X84878Y18878D02*
X93634D01*
X71500Y5500D02*
X84878Y18878D01*
X51000Y120000D02*
X80390Y90610D01*
Y79999D02*
Y90610D01*
Y79999D02*
X84675Y75714D01*
Y48949D02*
Y75714D01*
X80235Y44509D02*
X84675Y48949D01*
X59500Y16500D02*
Y24222D01*
X81600Y69800D02*
Y74900D01*
X75600Y80900D02*
X81600Y74900D01*
X75600Y80900D02*
Y85500D01*
X42700Y118400D02*
X75600Y85500D01*
X22500Y118400D02*
X42700D01*
X4500Y136400D02*
X22500Y118400D01*
X4500Y136400D02*
Y149000D01*
X5000Y18500D02*
X17400Y10000D01*
Y3500D02*
Y10000D01*
Y3500D02*
X19800Y1100D01*
X25000D01*
X27400Y3500D01*
Y9500D01*
X29451Y11551D01*
X32151D01*
X45500Y24900D01*
X-20800Y79600D02*
X-15400Y85000D01*
X-7700D01*
X-17000Y98000D02*
Y115700D01*
X-14600Y118100D01*
X-7500Y101900D02*
X841D01*
X19500Y83241D01*
Y69500D02*
Y83241D01*
X0Y2900D02*
Y5000D01*
X-4600Y1800D02*
X-3500Y2900D01*
X-4600Y-9600D02*
Y1800D01*
Y-9600D02*
X4500D01*
X7400Y-6700D01*
Y-1400D01*
X26549D01*
X29449Y1500D01*
Y7500D01*
X31500Y9551D01*
X36951D01*
X39100Y11700D01*
X63500D01*
X64900Y13100D01*
X82235Y42509D02*
X86675Y46949D01*
Y81125D01*
X83500Y84300D02*
X86675Y81125D01*
X85300Y37500D02*
Y39400D01*
X41500Y58646D02*
Y63400D01*
X42775Y64675D01*
Y94325D01*
X42500Y94600D02*
X42775Y94325D01*
X-79800Y25100D02*
X-67687D01*
X-66687Y26100D01*
X-32551Y24951D02*
Y31002D01*
Y24951D02*
X-31500Y23900D01*
X-23349D01*
X-21600Y22151D01*
Y14700D02*
Y22151D01*
Y14700D02*
X-19500Y12600D01*
X-18600D01*
X-12000Y6000D01*
X-34000Y5000D02*
X-30400Y1400D01*
X-19500D01*
X-17400Y3500D01*
Y8500D01*
X-19500Y10600D02*
X-17400Y8500D01*
X-23000Y10600D02*
X-19500D01*
X-24100Y11700D02*
X-23000Y10600D01*
X-32700Y11700D02*
X-24100D01*
X-42600Y21600D02*
X-32700Y11700D01*
X-62687Y21600D02*
X-42600D01*
X-63187Y21100D02*
X-62687Y21600D01*
X-14500Y43500D02*
X-7700Y50300D01*
Y54800D01*
X-12429Y59529D02*
X-7700Y54800D01*
X-34829Y59529D02*
X-12429D01*
X-90900Y43200D02*
X-90200Y42500D01*
X-131299Y66675D02*
X-128599Y69375D01*
X-86600Y-96600D02*
Y-84400D01*
Y-96600D02*
X-53400Y-129800D01*
X2400Y126900D02*
X5500Y130000D01*
X-28300Y126900D02*
X2400D01*
X-38600Y116600D02*
X-28300Y126900D01*
X-67567Y116600D02*
X-38600D01*
X28500Y135500D02*
X32000Y139500D01*
X25500Y132500D02*
X28500Y135500D01*
X-88800Y126800D02*
X-62700D01*
X-37900Y151600D01*
X-10100Y153500D02*
X7000D01*
X-153500Y10500D02*
X-136181D01*
X-154500Y9500D02*
X-153500Y10500D01*
X-154500Y3500D02*
Y9500D01*
X-126700Y-48500D02*
Y-12700D01*
Y-48500D02*
X-92917Y-82283D01*
X-64100Y108400D02*
X-42100D01*
X-92300Y80200D02*
X-64100Y108400D01*
X10300Y156000D02*
X11800Y154500D01*
X-13000Y156000D02*
X10300D01*
X-35300Y136500D02*
X-32000D01*
X-44700Y119000D02*
X-35300Y128400D01*
X-101400Y-42100D02*
X-96800Y-46700D01*
X-70125D01*
X-64825Y-41400D01*
Y-40482D01*
X-57943Y-33600D01*
X-25500D01*
X-23400Y-31500D01*
Y-13900D01*
X-26600Y-10700D02*
X-23400Y-13900D01*
X-26600Y-10700D02*
Y-2500D01*
X-25500Y-1400D01*
X-9500D01*
X-7400Y700D01*
Y10551D01*
X-9500D02*
X-7400D01*
X-12400Y13451D02*
X-9500Y10551D01*
X-12400Y13451D02*
Y35000D01*
X-12500Y35100D02*
X-12400Y35000D01*
X-21400Y35100D02*
X-12500D01*
X-28000Y28500D02*
X-21400Y35100D01*
X-72051Y-24385D02*
X-66819D01*
X-63885Y-21451D01*
X-108181Y45100D02*
X-104922Y48359D01*
X-85850D01*
X-21736Y53500D02*
X-14500D01*
X-5700Y61300D02*
X5000Y72000D01*
X-5700Y43400D02*
Y61300D01*
X-10200Y38900D02*
X-5700Y43400D01*
X-18800Y38900D02*
X-10200D01*
X-20400Y40500D02*
X-18800Y38900D01*
X-20400Y40500D02*
Y48100D01*
X-107181Y38000D02*
X-98822Y46359D01*
X-76000Y5500D02*
X-71500D01*
X-76100Y16500D02*
X-69500D01*
X-118500Y63000D02*
X-89636D01*
X-130500Y51000D02*
X-118500Y63000D01*
X-139897Y51900D02*
Y54420D01*
X-124725Y48775D02*
X-119000D01*
X-117725Y47500D01*
X13551Y-71451D02*
X20117Y-78017D01*
X13551Y-71451D02*
Y-62112D01*
X7220Y-55780D02*
X13551Y-62112D01*
X7220Y-55780D02*
Y-39820D01*
X-400Y-32200D02*
X7220Y-39820D01*
X-400Y-32200D02*
Y-23100D01*
X-5000Y-18500D02*
X-400Y-23100D01*
X-47600Y-101600D02*
X-27300Y-81300D01*
X-48900Y-101600D02*
X-47600D01*
X-50000Y-126700D02*
X-26000D01*
X-54200Y-122500D02*
X-50000Y-126700D01*
X-54200Y-122500D02*
Y-120100D01*
X-51825Y-117725D01*
X-25150D01*
X-21925Y-114500D01*
X-54500Y-108700D02*
X-40525D01*
X-58700Y-104500D02*
X-54500Y-108700D01*
X-58700Y-104500D02*
Y-78700D01*
X-55175Y-75175D01*
Y-65047D01*
X-40828Y-50700D01*
X-39600D01*
X-4600Y-51600D02*
X0Y-47000D01*
X3200Y-92100D02*
X9900Y-98800D01*
Y-116181D02*
Y-98800D01*
X-52100Y-67700D02*
Y-67400D01*
Y-67700D02*
X-45300Y-68500D01*
X-42000Y-65200D01*
X-39500D01*
X-22651Y-50051D02*
X-17949D01*
X-14500Y-53500D01*
X-21700Y-58100D02*
X-12628D01*
X-9900Y-55372D01*
Y-50500D01*
X-12349Y-48051D02*
X-9900Y-50500D01*
X-19100Y-48051D02*
X-12349D01*
X-29340Y-47500D02*
X-19100Y-48051D01*
X-19500Y-85650D02*
Y-69500D01*
Y-85650D02*
X-7500Y-97650D01*
X4050D01*
X-52700Y-52707D02*
X-49271D01*
X-57200Y-60700D02*
X-52700Y-56200D01*
X-57200Y-73500D02*
Y-60700D01*
X-59400Y-75700D02*
X-57200Y-73500D01*
X-75800Y-75700D02*
X-59400D01*
X-81399Y-91137D02*
X-61052Y-111484D01*
X-81399Y-91137D02*
Y-64399D01*
X-59000Y-42000D01*
X-60700Y-131800D02*
X-23600D01*
X-88700Y-103800D02*
X-60700Y-131800D01*
X-88700Y-103800D02*
Y-96100D01*
X-89700Y-95100D02*
X-88700Y-96100D01*
X-89700Y-95100D02*
Y-60900D01*
X-93700Y-56900D02*
X-89700Y-60900D01*
X-93700Y-27500D02*
Y-22800D01*
X-79302Y-13800D02*
X-72051Y-21051D01*
X-67251D01*
X-62700Y-16500D01*
X-59500D01*
X-10500Y-149500D02*
Y-144400D01*
X-13500Y-141400D02*
X-10500Y-144400D01*
X-57500Y-141400D02*
X-13500D01*
X-75052Y-123848D02*
X-57500Y-141400D01*
X-85740Y-123848D02*
X-75052D01*
X-97900Y-111688D02*
X-85740Y-123848D01*
X-97900Y-111688D02*
Y-103000D01*
X16500Y-84800D02*
Y-79800D01*
X13500Y-14500D02*
X22000Y-6000D01*
X12400Y-14500D02*
X13500D01*
X12400Y-33600D02*
Y-14500D01*
X73875Y-36175D02*
X99649D01*
X108805Y-27019D01*
X111181D01*
X28000Y-18500D02*
X35000Y-11500D01*
X24300Y-80700D02*
X33900Y-90300D01*
X24300Y-80700D02*
Y-77900D01*
X17000Y-29000D02*
X22500Y-23500D01*
X54251D01*
X55251Y-24500D01*
X78879D01*
X82554Y-28175D01*
X88004D01*
X92275Y-23904D01*
Y-18500D01*
X46500Y-16500D02*
X50724D01*
X55275Y-11949D01*
X74350D01*
X75966Y-13564D01*
X79936D01*
X40500Y-29000D02*
X45100Y-33600D01*
X53300D01*
X58400Y-28500D01*
X74879D01*
X78554Y-32175D01*
X93725D01*
X100100Y-25800D01*
X50500Y-29000D02*
X53000Y-26500D01*
X76879D01*
X80554Y-30175D01*
X90004D01*
X94275Y-27700D01*
Y-21200D01*
X96975Y-18500D01*
X134300D01*
X142300Y-10500D01*
X103641Y-40175D02*
X106249Y-37567D01*
X66966Y-67826D02*
X90148D01*
X61219Y-62080D02*
X66966Y-67826D01*
X52208Y-62080D02*
X61219D01*
X14500Y-53000D02*
X21736D01*
X69500Y-16500D02*
X88800D01*
X39300Y-59000D02*
X41500D01*
X89400Y-84000D02*
X110100Y-63300D01*
X46817Y-84000D02*
X89400D01*
X28897Y-66080D02*
X46817Y-84000D01*
X127500Y-34183D02*
X139920Y-46603D01*
X78800Y-120700D02*
Y-104800D01*
X76500Y-123000D02*
X78800Y-120700D01*
X51600Y-74000D02*
X92706D01*
X-5000Y105000D02*
X3871D01*
X11700Y31500D02*
X15100Y34900D01*
X11700Y29600D02*
Y31500D01*
X6500Y24400D02*
X11700Y29600D01*
X2500Y24400D02*
X6500D01*
X400Y22300D02*
X2500Y24400D01*
X400Y16664D02*
Y22300D01*
Y16664D02*
X7564Y9500D01*
X8500D01*
X12000Y6000D01*
X100837Y-38175D02*
X105437Y-33575D01*
X116300D01*
X49271Y-52707D02*
X56644Y-60080D01*
X62228D01*
X60564Y35500D02*
X78523Y53459D01*
Y70542D01*
X73358Y75706D02*
X78523Y70542D01*
X73358Y75706D02*
Y82875D01*
X49233Y107000D02*
X73358Y82875D01*
X59201Y41480D02*
X76523Y58802D01*
Y67654D01*
X70913Y73264D02*
X76523Y67654D01*
X70913Y73264D02*
Y76387D01*
X43500Y103800D02*
X70913Y76387D01*
X22500Y103800D02*
X43500D01*
X20900Y105400D02*
X22500Y103800D01*
X20900Y105400D02*
Y111900D01*
X-109500Y59300D02*
X-87500D01*
X-52500Y52707D02*
X-49271D01*
X-129100Y74700D02*
X-85300D01*
X-134374Y69426D02*
X-129100Y74700D01*
X-134374Y64326D02*
Y69426D01*
X-133603Y38580D02*
Y45403D01*
X-140950Y22500D02*
X-133200D01*
X-147703Y29253D02*
X-140950Y22500D01*
X-147703Y29253D02*
Y44897D01*
X-144500Y48100D01*
Y58000D01*
X-136374Y66126D01*
Y74726D01*
X-118900Y92200D01*
X-102317D01*
X48340Y-139000D02*
X51100Y-136240D01*
X19500Y-72183D02*
Y-69500D01*
X23058Y-72183D02*
X33900Y-83025D01*
Y-84500D02*
Y-83025D01*
X11551Y-85751D02*
Y-66398D01*
X4600Y-59447D02*
X11551Y-66398D01*
X4600Y-59447D02*
Y-42400D01*
X-4600D02*
X4600D01*
X-5700Y-43500D02*
X-4600Y-42400D01*
X-14500Y-43500D02*
X-5700D01*
X3800Y-64000D02*
X6151D01*
X9551Y-67400D01*
Y-88351D02*
Y-67400D01*
X23200Y-63400D02*
X24300Y-64500D01*
X18300Y-63400D02*
X23200D01*
X9900Y-55000D02*
X18300Y-63400D01*
X9900Y-55000D02*
Y-16500D01*
X5300Y-11900D02*
X9900Y-16500D01*
X-6100Y-11900D02*
X5300D01*
X-12000Y-6000D02*
X-6100Y-11900D01*
X-53800Y-82871D02*
X-40800Y-69871D01*
X-53800Y-102200D02*
Y-82871D01*
Y-102200D02*
X-49500Y-106500D01*
X-48300D01*
X-34152Y-92352D01*
X-20629D01*
X-19925Y-93056D01*
Y-112275D02*
Y-93056D01*
X3600Y-81300D02*
X5000Y-79900D01*
Y-72000D01*
X26300Y95000D02*
X33448Y87852D01*
Y56217D02*
Y87852D01*
X29340Y52108D02*
X33448Y56217D01*
X29340Y48000D02*
Y52108D01*
X-9800Y121500D02*
X27200Y84500D01*
X19100Y38900D02*
Y55581D01*
X2900Y38900D02*
X19100D01*
X-5000Y31000D02*
X2900Y38900D01*
X2700Y79300D02*
X6500D01*
X9900Y75900D01*
Y48100D02*
Y75900D01*
Y48100D02*
X14500Y43500D01*
X-60800Y-69500D02*
X-59200Y-67900D01*
Y-59300D01*
X-57800Y-57900D01*
X-33449Y-44385D02*
Y-43500D01*
X-12400Y-33000D02*
Y-16500D01*
X-9800Y-13900D01*
X400D01*
X5000Y-18500D01*
X-50000Y124300D02*
Y126100D01*
X-35100Y141000D01*
X165D01*
X1165Y140000D01*
X14500Y-43000D02*
X22500Y-51000D01*
X42000Y-45800D02*
X54300D01*
X40300Y-47500D02*
X42000Y-45800D01*
X29339Y-47500D02*
X40300D01*
X-44700Y72575D02*
Y74400D01*
X-59300Y89000D02*
X-44700Y74400D01*
X-56928Y94200D02*
X-33428Y70700D01*
X-64000Y98300D02*
X-57900D01*
X-32300Y72700D01*
X-22700D01*
X-19500Y69500D01*
X59000Y-42000D02*
X61600Y-44600D01*
X76000D01*
X64299Y-33520D02*
X75899D01*
X76554Y-34175D01*
X98013D01*
X110787Y-21400D01*
X136700D01*
X145300Y-12800D01*
X-31800Y-28500D02*
X-28000D01*
X-35900Y-24400D02*
X-31800Y-28500D01*
X-59900Y-24400D02*
X-35900D01*
X-61885Y-26385D02*
X-59900Y-24400D01*
X-70185Y-26385D02*
X-61885D01*
X-96802Y-29591D02*
X-95807Y-30586D01*
X-107500Y-29591D02*
X-96802D01*
X-64299Y-33899D02*
Y-33520D01*
X-66825Y-36425D02*
X-64299Y-33899D01*
X-66825Y-40500D02*
Y-36425D01*
X-68400Y-42075D02*
X-66825Y-40500D01*
X-78775Y-42075D02*
X-68400D01*
X-80300Y-43600D02*
X-78775Y-42075D01*
X-66100Y-10100D02*
X-61500Y-5500D01*
X-82500Y-10100D02*
X-66100D01*
X-109406Y-53694D02*
X-90494D01*
X-83500Y-60688D01*
Y-93600D02*
Y-60688D01*
Y-93600D02*
X-63600Y-113500D01*
X-26000D01*
X-62300Y-58800D02*
X-59829Y-56329D01*
X-17000Y-32500D02*
Y-29000D01*
X-17750Y-33250D02*
X-17000Y-32500D01*
X-19250Y-33250D02*
X-17750D01*
X-22900Y-36900D02*
X-19250Y-33250D01*
X-51500Y-36900D02*
X-22900D01*
X-65375Y-57500D02*
X-63600Y-55725D01*
X-65375Y-72600D02*
Y-57500D01*
X-145331Y39669D02*
X-143000Y42000D01*
X-145331Y32719D02*
Y39669D01*
X-73425Y11900D02*
X-35900D01*
X-33600Y9600D01*
X-25600D01*
X-22000Y6000D01*
X-109000Y-62800D02*
X-96100D01*
X-120500Y-51300D02*
X-109000Y-62800D01*
X-120500Y-51300D02*
Y-8500D01*
X-84425Y-5500D02*
X-71500D01*
X-70400Y27100D02*
X-64500Y33000D01*
X-77050Y27100D02*
X-70400D01*
X-31100Y18500D02*
X-28000D01*
X-36700Y24100D02*
X-31100Y18500D01*
X-64687Y24100D02*
X-36700D01*
X-65687Y23100D02*
X-64687Y24100D01*
X22000Y6000D02*
Y29800D01*
X42600Y36400D02*
Y37900D01*
X53900Y49200D01*
Y61500D01*
X60600Y68200D01*
X44720Y54238D02*
X47400Y56917D01*
Y94500D01*
X41900Y100000D02*
X47400Y94500D01*
X31100Y100000D02*
X41900D01*
X-2875Y-126125D02*
X7181Y-136181D01*
X-21075Y-126125D02*
X-2875D01*
X-25800Y-121400D02*
X-21075Y-126125D01*
X-49972Y-121400D02*
X-25800D01*
X-8636Y-154000D02*
X1164Y-144200D01*
X-12900Y-154000D02*
X-8636D01*
X-14100Y-152800D02*
X-12900Y-154000D01*
X-16500Y-152800D02*
X-14100D01*
X-21200Y-148100D02*
X-16500Y-152800D01*
X-32800Y-148100D02*
X-21200D01*
X-155500Y12500D02*
X-143200D01*
X-156500Y11500D02*
X-155500Y12500D01*
X-156500Y-10500D02*
Y11500D01*
Y-10500D02*
X-154300Y-12700D01*
X-153500D01*
X-129145Y-37055D01*
Y-56355D02*
Y-37055D01*
Y-56355D02*
X-99700Y-85800D01*
Y-89800D02*
Y-85800D01*
X63400Y130000D02*
X99000Y94400D01*
X30000Y130000D02*
X63400D01*
D50*
X50538Y-48302D02*
D03*
X-35799Y-57513D02*
D03*
X-25693Y70407D02*
D03*
X-137207Y34321D02*
D03*
D51*
X-28897Y66080D02*
D03*
X-46500Y-16500D02*
D03*
X139920Y-46603D02*
D03*
X17000Y-29000D02*
D03*
X76500Y-123000D02*
D03*
X48340Y-139000D02*
D03*
X22000Y-6000D02*
D03*
X34000Y5000D02*
D03*
X28000Y-28500D02*
D03*
X46500Y-16500D02*
D03*
X50500Y-29000D02*
D03*
X37999Y-42500D02*
D03*
X14500Y-53000D02*
D03*
X71500Y-5500D02*
D03*
X69500Y-16500D02*
D03*
X64299Y-33520D02*
D03*
X49271Y-52707D02*
D03*
X28897Y-66080D02*
D03*
X-34000Y-5000D02*
D03*
X5000Y-18500D02*
D03*
X-22000Y-6000D02*
D03*
X5000Y-31000D02*
D03*
X-17000Y-29000D02*
D03*
X-28000Y-28500D02*
D03*
X0Y-57000D02*
D03*
X-14500Y-53500D02*
D03*
X-38000Y-42500D02*
D03*
X-50500Y-29000D02*
D03*
X-5000Y-72000D02*
D03*
X-28897Y-66080D02*
D03*
X-49271Y-52707D02*
D03*
X-64299Y-33520D02*
D03*
X-69500Y-16500D02*
D03*
X-71500Y-5500D02*
D03*
X-139897Y54420D02*
D03*
X-143000Y42000D02*
D03*
X38000Y43000D02*
D03*
X64500Y33000D02*
D03*
X49271Y52352D02*
D03*
X28897Y66080D02*
D03*
X71500Y5500D02*
D03*
X69500Y16500D02*
D03*
X46500D02*
D03*
X50500Y29500D02*
D03*
X28000Y28500D02*
D03*
X14500Y53500D02*
D03*
X17000Y29000D02*
D03*
X22000Y6000D02*
D03*
X-1000Y57000D02*
D03*
X5000Y31000D02*
D03*
Y18500D02*
D03*
X0Y5000D02*
D03*
X-22000Y6000D02*
D03*
X-28000Y28500D02*
D03*
X5000Y72000D02*
D03*
X-17000Y29000D02*
D03*
X-46500Y17000D02*
D03*
X-50500Y29500D02*
D03*
X-37999Y43000D02*
D03*
X-14500Y53500D02*
D03*
X-71500Y5500D02*
D03*
X-69500Y16500D02*
D03*
X-64500Y33000D02*
D03*
X-49271Y52707D02*
D03*
D52*
X-19500Y69500D02*
D03*
X19500Y-69500D02*
D03*
D53*
X149500Y6500D02*
D03*
Y-6000D02*
D03*
X-10500Y-149500D02*
D03*
X9000Y-149000D02*
D03*
X-150000Y6000D02*
D03*
X-32000Y136500D02*
D03*
X-30500Y146000D02*
D03*
X32000Y139500D02*
D03*
X30000Y130000D02*
D03*
X-152000Y-3500D02*
D03*
X4500Y149000D02*
D03*
X-4000D02*
D03*
X-74000Y133500D02*
D03*
X-57000Y140000D02*
D03*
D54*
X-46500Y-6500D02*
D03*
X17000Y-19000D02*
D03*
X34000Y-5000D02*
D03*
X28000Y-18500D02*
D03*
X46500Y-6500D02*
D03*
X14500Y-43000D02*
D03*
X-34000Y5000D02*
D03*
X-17000Y-19000D02*
D03*
X-28000Y-18500D02*
D03*
X0Y-47000D02*
D03*
X-14500Y-43500D02*
D03*
X-17000Y19000D02*
D03*
X46500Y6500D02*
D03*
X28000Y18500D02*
D03*
X14500Y43500D02*
D03*
X17000Y19000D02*
D03*
X-1000Y47000D02*
D03*
X0Y-5000D02*
D03*
X-28000Y18500D02*
D03*
X-46500Y7000D02*
D03*
X-14500Y43500D02*
D03*
D55*
X136500Y-56000D02*
D03*
D56*
X85160Y-118000D02*
D03*
X57000Y-134000D02*
D03*
X29339Y-47500D02*
D03*
X-29339Y48000D02*
D03*
D57*
X12000Y-6000D02*
D03*
X40500Y-29000D02*
D03*
X61500Y-5500D02*
D03*
X59500Y-16500D02*
D03*
X-5000Y-18500D02*
D03*
X-12000Y-6000D02*
D03*
X-5000Y-31000D02*
D03*
X-40500Y-29000D02*
D03*
X5000Y-72000D02*
D03*
X-59500Y-16500D02*
D03*
X-61500Y-5500D02*
D03*
X61500Y5500D02*
D03*
X59500Y16500D02*
D03*
X40500Y29500D02*
D03*
X12000Y6000D02*
D03*
X-5000Y31000D02*
D03*
Y18500D02*
D03*
X-12000Y6000D02*
D03*
X-5000Y72000D02*
D03*
X-40500Y29500D02*
D03*
X-61500Y5500D02*
D03*
X-59500Y16500D02*
D03*
D58*
X59000Y-42000D02*
D03*
X-59201Y41480D02*
D03*
D59*
X41500Y-59000D02*
D03*
X-41500Y59000D02*
D03*
D60*
X-29340Y-47500D02*
D03*
X29340Y48000D02*
D03*
D61*
X-19500Y-69500D02*
D03*
X-130500Y51000D02*
D03*
X-133603Y38580D02*
D03*
X19500Y69500D02*
D03*
D62*
X-41500Y-59000D02*
D03*
X41500Y58646D02*
D03*
D63*
X-59000Y-42000D02*
D03*
X59201Y41480D02*
D03*
D64*
X26500Y39000D02*
D03*
X32000Y-99000D02*
D03*
X37086Y-102611D02*
D03*
X-121000Y29000D02*
D03*
X-92000Y37000D02*
D03*
X-84575Y7000D02*
D03*
X-8000Y-135000D02*
D03*
X-74848Y55152D02*
D03*
X-70500Y59500D02*
D03*
X-74500Y64000D02*
D03*
X-101000Y114000D02*
D03*
X26000Y-130000D02*
D03*
X-90000Y-10500D02*
D03*
X-99000Y-9000D02*
D03*
X-96000Y11575D02*
D03*
X-106500Y2500D02*
D03*
X-74826Y-34326D02*
D03*
X-78425Y-30726D02*
D03*
X-88000Y-31500D02*
D03*
X-77200Y-24350D02*
D03*
X-119500Y-2500D02*
D03*
X-128000Y10500D02*
D03*
X-89000D02*
D03*
X-84575Y35868D02*
D03*
X-91000Y27500D02*
D03*
X-96000Y32500D02*
D03*
X-103000Y29500D02*
D03*
X-107000Y33000D02*
D03*
X117500Y-26500D02*
D03*
X124000Y-27000D02*
D03*
X132000Y-26500D02*
D03*
X129000Y-10500D02*
D03*
X124000Y-7425D02*
D03*
X104300Y5500D02*
D03*
X116000Y26500D02*
D03*
X79502Y-21489D02*
D03*
X-120500Y82500D02*
D03*
X25500Y-141000D02*
D03*
X84500Y-43500D02*
D03*
X91000Y-41250D02*
D03*
X96787Y-43971D02*
D03*
X-65000Y62000D02*
D03*
X-56111Y54979D02*
D03*
X-61893Y52248D02*
D03*
X55826Y-52326D02*
D03*
X77000Y-10000D02*
D03*
X53000Y-8500D02*
D03*
X49500Y37000D02*
D03*
X32500Y37500D02*
D03*
X-38000Y-16500D02*
D03*
X26000Y107000D02*
D03*
X26500Y115000D02*
D03*
X26000Y123500D02*
D03*
Y137000D02*
D03*
X-94075Y90200D02*
D03*
X67522Y-41021D02*
D03*
X78500Y-61000D02*
D03*
X113500Y-58000D02*
D03*
X33500Y-59500D02*
D03*
X-5000Y-62500D02*
D03*
X-2000Y-86500D02*
D03*
X-4000Y-81075D02*
D03*
X26000Y-99000D02*
D03*
X27000Y-119500D02*
D03*
X30500Y-124500D02*
D03*
X-27000Y-135500D02*
D03*
X-11500Y-129500D02*
D03*
X-11000Y-119000D02*
D03*
X-11500Y-101000D02*
D03*
X-26500Y-99500D02*
D03*
X-28075Y-73500D02*
D03*
X-70500Y-38500D02*
D03*
X-112000Y-35500D02*
D03*
X89500Y-11000D02*
D03*
X119000Y11500D02*
D03*
X76000Y22500D02*
D03*
X68674Y24326D02*
D03*
X39675Y71512D02*
D03*
Y78100D02*
D03*
X27200Y74600D02*
D03*
X107500Y76000D02*
D03*
X-56500Y123000D02*
D03*
X-23000Y154000D02*
D03*
X-12000Y115000D02*
D03*
X-26500Y120500D02*
D03*
X-27000Y111000D02*
D03*
X-12000Y95500D02*
D03*
X-26000Y90000D02*
D03*
X-69100Y94575D02*
D03*
X-68075Y72500D02*
D03*
X-58425Y69575D02*
D03*
X-37999Y69417D02*
D03*
X-69000Y41925D02*
D03*
X-104075Y53600D02*
D03*
X140500Y7500D02*
D03*
X-141693Y-6965D02*
D03*
X-132693Y-75D02*
D03*
X-125472Y-1200D02*
D03*
X-118193Y10535D02*
D03*
X-120800Y34000D02*
D03*
X-133000Y25500D02*
D03*
X-121200Y96400D02*
D03*
X-23500Y149000D02*
D03*
X-8835Y130000D02*
D03*
X-300Y95500D02*
D03*
X101300Y30300D02*
D03*
X51000Y120000D02*
D03*
X81600Y69800D02*
D03*
X70500Y64000D02*
D03*
X-28300Y80300D02*
D03*
X-26200Y100000D02*
D03*
X-20800Y79600D02*
D03*
X-7700Y85000D02*
D03*
X36600Y84300D02*
D03*
X83500D02*
D03*
X85300Y39400D02*
D03*
X42500Y94600D02*
D03*
X-90900Y43200D02*
D03*
X-73300Y35300D02*
D03*
X-131299Y66675D02*
D03*
X-86600Y-84400D02*
D03*
X5500Y130000D02*
D03*
X-88800Y126800D02*
D03*
X-97136Y-97052D02*
D03*
X-136181Y10500D02*
D03*
X-42100Y108400D02*
D03*
X58623Y137000D02*
D03*
X-142256Y34700D02*
D03*
X-115600Y86100D02*
D03*
X-101400Y-42100D02*
D03*
X-106100Y-33400D02*
D03*
X-108181Y45100D02*
D03*
X-107181Y38000D02*
D03*
X-89636Y63000D02*
D03*
X-48900Y-101600D02*
D03*
X-26000Y-126700D02*
D03*
X-39600Y-50700D02*
D03*
X9900Y-116181D02*
D03*
X-52100Y-67400D02*
D03*
X-97600Y-37175D02*
D03*
X4050Y-97650D02*
D03*
X-75800Y-75700D02*
D03*
X-93700Y-56900D02*
D03*
Y-27500D02*
D03*
X-97900Y-103000D02*
D03*
X16500Y-79800D02*
D03*
X111181Y-27019D02*
D03*
X59300Y-65900D02*
D03*
X91181Y26500D02*
D03*
X33900Y-90300D02*
D03*
X24300Y-77900D02*
D03*
X126181Y4700D02*
D03*
X100100Y-25800D02*
D03*
X106249Y-37567D02*
D03*
X81300Y-77400D02*
D03*
X51600Y-74000D02*
D03*
X-5000Y105000D02*
D03*
X116300Y-33575D02*
D03*
X-71800Y30200D02*
D03*
X-106333Y12633D02*
D03*
X-85300Y74700D02*
D03*
X-102317Y92200D02*
D03*
X33900Y-84500D02*
D03*
X5300Y-88287D02*
D03*
X3800Y-64000D02*
D03*
X-40800Y-69871D02*
D03*
X-16400Y-61800D02*
D03*
X-12000Y-88300D02*
D03*
X3600Y-81300D02*
D03*
X26300Y95000D02*
D03*
X-60800Y-69500D02*
D03*
X-50000Y124300D02*
D03*
X1165Y140000D02*
D03*
X70400Y-53300D02*
D03*
X-44700Y72575D02*
D03*
X-59300Y89000D02*
D03*
X-64000Y98300D02*
D03*
X74700Y-56100D02*
D03*
X106200Y28300D02*
D03*
X-80300Y-43600D02*
D03*
X-26000Y-113500D02*
D03*
X-62300Y-58800D02*
D03*
X-65375Y-72600D02*
D03*
X-22000Y-54100D02*
D03*
X-43600Y-91000D02*
D03*
X-30900Y-79600D02*
D03*
X-126193Y26035D02*
D03*
X-96100Y-62800D02*
D03*
X-36100Y81500D02*
D03*
X60600Y68200D02*
D03*
X31100Y100000D02*
D03*
X7181Y-136181D02*
D03*
X-49972Y-121400D02*
D03*
X-32800Y-148100D02*
D03*
X-99700Y-89800D02*
D03*
X99000Y94400D02*
D03*
X-500Y-141181D02*
D03*
M02*
