G04*
G04 #@! TF.GenerationSoftware,Altium Limited,Altium Designer,23.1.1 (15)*
G04*
G04 Layer_Physical_Order=1*
G04 Layer_Color=255*
%FSLAX25Y25*%
%MOIN*%
G70*
G04*
G04 #@! TF.SameCoordinates,26756865-A546-46B2-AE66-A5EF7FACC8B2*
G04*
G04*
G04 #@! TF.FilePolarity,Positive*
G04*
G01*
G75*
%ADD29R,0.04156X0.06528*%
%ADD30R,0.03268X0.02480*%
%ADD31R,0.07874X0.02362*%
%ADD32R,0.02362X0.07874*%
G04:AMPARAMS|DCode=33|XSize=78.74mil|YSize=23.62mil|CornerRadius=0mil|HoleSize=0mil|Usage=FLASHONLY|Rotation=60.000|XOffset=0mil|YOffset=0mil|HoleType=Round|Shape=Rectangle|*
%AMROTATEDRECTD33*
4,1,4,-0.00946,-0.04000,-0.02991,-0.02819,0.00946,0.04000,0.02991,0.02819,-0.00946,-0.04000,0.0*
%
%ADD33ROTATEDRECTD33*%

G04:AMPARAMS|DCode=34|XSize=78.74mil|YSize=23.62mil|CornerRadius=0mil|HoleSize=0mil|Usage=FLASHONLY|Rotation=320.000|XOffset=0mil|YOffset=0mil|HoleType=Round|Shape=Rectangle|*
%AMROTATEDRECTD34*
4,1,4,-0.03775,0.01626,-0.02257,0.03435,0.03775,-0.01626,0.02257,-0.03435,-0.03775,0.01626,0.0*
%
%ADD34ROTATEDRECTD34*%

%ADD49C,0.01000*%
%ADD50C,0.01000*%
%ADD51C,0.06102*%
%ADD52P,0.08630X4X245.0*%
%ADD53C,0.06000*%
%ADD54R,0.06102X0.06102*%
%ADD55P,0.08630X4X115.0*%
%ADD56P,0.08630X4X255.0*%
%ADD57R,0.06102X0.06102*%
%ADD58P,0.08630X4X103.0*%
%ADD59P,0.08630X4X84.0*%
%ADD60P,0.08630X4X195.0*%
%ADD61P,0.08630X4X205.0*%
%ADD62P,0.08630X4X186.0*%
%ADD63P,0.08630X4X167.0*%
%ADD64C,0.03150*%
D29*
X-70000Y116500D02*
D03*
X-59951D02*
D03*
X-50475Y131000D02*
D03*
X-60525D02*
D03*
D30*
X-50500Y117890D02*
D03*
Y109110D02*
D03*
D31*
X-19004Y85000D02*
D03*
Y130000D02*
D03*
Y135000D02*
D03*
Y140000D02*
D03*
X18004D02*
D03*
Y135000D02*
D03*
Y130000D02*
D03*
Y85000D02*
D03*
Y110000D02*
D03*
X-19004Y90000D02*
D03*
Y95000D02*
D03*
Y105000D02*
D03*
Y110000D02*
D03*
Y115000D02*
D03*
Y125000D02*
D03*
X18004D02*
D03*
Y120000D02*
D03*
Y100000D02*
D03*
Y95000D02*
D03*
Y90000D02*
D03*
Y115000D02*
D03*
Y105000D02*
D03*
X-19004Y120000D02*
D03*
Y100000D02*
D03*
X18004Y-86181D02*
D03*
X-19004D02*
D03*
Y-91181D02*
D03*
Y-96181D02*
D03*
Y-101181D02*
D03*
Y-106181D02*
D03*
Y-111181D02*
D03*
Y-116181D02*
D03*
Y-121181D02*
D03*
Y-126181D02*
D03*
Y-131181D02*
D03*
Y-136181D02*
D03*
Y-141181D02*
D03*
X18004D02*
D03*
Y-136181D02*
D03*
Y-131181D02*
D03*
Y-126181D02*
D03*
Y-121181D02*
D03*
Y-116181D02*
D03*
Y-111181D02*
D03*
Y-106181D02*
D03*
Y-101181D02*
D03*
Y-96181D02*
D03*
Y-91181D02*
D03*
D32*
X-86181Y-18504D02*
D03*
X-121181Y18504D02*
D03*
Y-18504D02*
D03*
X-91181D02*
D03*
X-96181D02*
D03*
X-101181D02*
D03*
X-106181D02*
D03*
X-111181D02*
D03*
X-116181D02*
D03*
X-126181D02*
D03*
X-131181D02*
D03*
X-136181D02*
D03*
X-141181D02*
D03*
Y18504D02*
D03*
X-136181D02*
D03*
X-131181D02*
D03*
X-126181D02*
D03*
X-116181D02*
D03*
X-111181D02*
D03*
X-106181D02*
D03*
X-101181D02*
D03*
X-96181D02*
D03*
X-91181D02*
D03*
X-86181D02*
D03*
X141181Y-18504D02*
D03*
X131181Y18504D02*
D03*
X86181D02*
D03*
X126181D02*
D03*
X106181D02*
D03*
X101181D02*
D03*
X121181D02*
D03*
X111181Y-18504D02*
D03*
X101181D02*
D03*
X96181Y18504D02*
D03*
X116181D02*
D03*
X106181Y-18504D02*
D03*
X96181D02*
D03*
X91181D02*
D03*
Y18504D02*
D03*
X111181D02*
D03*
X126181Y-18504D02*
D03*
X121181D02*
D03*
X116181D02*
D03*
X86181D02*
D03*
X131181D02*
D03*
X136181D02*
D03*
X141181Y18504D02*
D03*
X136181D02*
D03*
D33*
X102627Y-105550D02*
D03*
X112470Y-68501D02*
D03*
X73499Y-46001D02*
D03*
X-73499Y46001D02*
D03*
X108140Y-66001D02*
D03*
X90820Y-56001D02*
D03*
X86490Y-53501D02*
D03*
X103810Y-63501D02*
D03*
X76646Y-90550D02*
D03*
X67986Y-85550D02*
D03*
X82159Y-51001D02*
D03*
X99480Y-61001D02*
D03*
X72316Y-88051D02*
D03*
X63656Y-83050D02*
D03*
X59325Y-80551D02*
D03*
X77829Y-48501D02*
D03*
X95150Y-58501D02*
D03*
X89636Y-98050D02*
D03*
X85306Y-95551D02*
D03*
X80976Y-93050D02*
D03*
X54995Y-78050D02*
D03*
X93967Y-100550D02*
D03*
X98297Y-103051D02*
D03*
X121131Y-73501D02*
D03*
X116801Y-71001D02*
D03*
X-85306Y95551D02*
D03*
X-77829Y48501D02*
D03*
X-103810Y63501D02*
D03*
X-54995Y78050D02*
D03*
X-59325Y80551D02*
D03*
X-63656Y83050D02*
D03*
X-67986Y85550D02*
D03*
X-72316Y88051D02*
D03*
X-76646Y90550D02*
D03*
X-80976Y93050D02*
D03*
X-89636Y98051D02*
D03*
X-93967Y100550D02*
D03*
X-98297Y103051D02*
D03*
X-102627Y105551D02*
D03*
X-121131Y73501D02*
D03*
X-116801Y71001D02*
D03*
X-112470Y68501D02*
D03*
X-108140Y66001D02*
D03*
X-99480Y61001D02*
D03*
X-95150Y58501D02*
D03*
X-90820Y56001D02*
D03*
X-86490Y53501D02*
D03*
X-82159Y51001D02*
D03*
D34*
X-46357Y-72828D02*
D03*
X-74707Y-49040D02*
D03*
X-77921Y-52870D02*
D03*
X-81135Y-56700D02*
D03*
X-84349Y-60530D02*
D03*
X-87563Y-64361D02*
D03*
X-90776Y-68191D02*
D03*
X-93990Y-72021D02*
D03*
X-97204Y-75851D02*
D03*
X-100418Y-79681D02*
D03*
X-103632Y-83512D02*
D03*
X-106846Y-87342D02*
D03*
X-110060Y-91172D02*
D03*
X-81710Y-114960D02*
D03*
X-78496Y-111130D02*
D03*
X-75283Y-107300D02*
D03*
X-72069Y-103470D02*
D03*
X-68855Y-99639D02*
D03*
X-65641Y-95809D02*
D03*
X-62427Y-91979D02*
D03*
X-59213Y-88149D02*
D03*
X-55999Y-84319D02*
D03*
X-52785Y-80488D02*
D03*
X-49571Y-76658D02*
D03*
X45649Y72828D02*
D03*
X74574Y107300D02*
D03*
X77788Y111130D02*
D03*
X81002Y114960D02*
D03*
X109352Y91172D02*
D03*
X106138Y87342D02*
D03*
X102924Y83512D02*
D03*
X73998Y49040D02*
D03*
X90068Y68191D02*
D03*
X86854Y64361D02*
D03*
X55290Y84319D02*
D03*
X48862Y76658D02*
D03*
X52076Y80488D02*
D03*
X58504Y88149D02*
D03*
X61718Y91979D02*
D03*
X64932Y95809D02*
D03*
X99710Y79681D02*
D03*
X96496Y75851D02*
D03*
X83640Y60530D02*
D03*
X80426Y56700D02*
D03*
X77212Y52870D02*
D03*
X93282Y72021D02*
D03*
X68146Y99639D02*
D03*
X71360Y103470D02*
D03*
D49*
X30935Y62010D02*
G03*
X31620Y62433I-2038J4070D01*
G01*
X73499Y-18673D02*
G03*
X73665Y-18335I-3999J2173D01*
G01*
X25000Y-63729D02*
G03*
X25000Y-68431I3897J-2351D01*
G01*
X-25122Y68622D02*
G03*
X-26355Y69855I-3775J-2542D01*
G01*
X-36204Y57433D02*
G03*
X-36207Y57429I703J-711D01*
G01*
X-47870Y35500D02*
G03*
X-53130Y35500I-2630J-6000D01*
G01*
X-47599Y33007D02*
G03*
X-52922Y33353I-2901J-3507D01*
G01*
X-102763Y100676D02*
G03*
X-102758Y100685I-864J504D01*
G01*
X-102788Y100634D02*
G03*
X-102786Y100637I-866J500D01*
G01*
X-136000Y52069D02*
G03*
X-136000Y56771I-3897J2351D01*
G01*
X153500Y4439D02*
G03*
X153500Y8562I-4000J2062D01*
G01*
Y-8061D02*
G03*
X153500Y-3938I-4000J2062D01*
G01*
X-138500Y41319D02*
G03*
X-138500Y42681I-4500J681D01*
G01*
X21672Y44609D02*
Y48114D01*
X24500Y44605D02*
Y45434D01*
X24793Y31707D02*
X28000Y28500D01*
X23672Y46262D02*
X24207Y45727D01*
X21425Y36898D02*
X21807Y28032D01*
X24207Y45727D02*
X24500Y45434D01*
X21425Y36898D02*
Y41102D01*
X21807Y27207D02*
Y28032D01*
X21063Y57063D02*
X30935Y62010D01*
X19051Y39827D02*
X19793Y55793D01*
X23425Y37726D02*
X24793Y31707D01*
X29425Y36226D02*
Y37493D01*
X23425Y40274D02*
X24500Y44605D01*
X19793Y55793D02*
X20770Y56770D01*
X17000Y29000D02*
Y36786D01*
X26500Y39000D02*
X28839Y38079D01*
X29425Y37493D01*
X23425Y37726D02*
Y40274D01*
X17000Y36786D02*
X19051Y39827D01*
X21425Y41102D02*
X21672Y44609D01*
X31620Y62433D02*
X35038Y64981D01*
X36864Y-102611D02*
X37086D01*
X71271Y-99000D02*
X71917Y-98353D01*
X32000Y-99000D02*
X71271D01*
X33294Y-106181D02*
X36864Y-102611D01*
X-121582Y29000D02*
X-121000D01*
X-123223Y30641D02*
X-121582Y29000D01*
X-124500Y31348D02*
X-123793Y30641D01*
X-123223D01*
X-124500Y31348D02*
Y35000D01*
X-94866Y39866D02*
X-92000Y37000D01*
X-98546Y39866D02*
X-94866D01*
X-97638Y35210D02*
Y36038D01*
X-105106Y43506D02*
X-97638Y36038D01*
X-103000Y29848D02*
X-97638Y35210D01*
X-101000Y42320D02*
X-98546Y39866D01*
X-84575Y6418D02*
Y7000D01*
X-85815Y3224D02*
Y5178D01*
X-84575Y6418D01*
X-8324Y-131425D02*
X-7925Y-131026D01*
X-8324Y-134676D02*
Y-131425D01*
Y-134676D02*
X-8000Y-135000D01*
X-7925Y-131026D02*
Y-110475D01*
X-81413Y59500D02*
X-70500D01*
X-86490Y53501D02*
Y54423D01*
X-81413Y59500D01*
X-74911Y55089D02*
X-74848Y55152D01*
X-82225Y71725D02*
Y91801D01*
Y71725D02*
X-74500Y64000D01*
X-113500Y96725D02*
Y105848D01*
X-101124Y107053D02*
Y113876D01*
X-113500Y105848D02*
X-102274Y117075D01*
X-101124Y113876D02*
X-101000Y114000D01*
X-98775Y117075D02*
X-96200Y114500D01*
X-102274Y117075D02*
X-98775D01*
X-96100Y103100D02*
X-96005Y105138D01*
X-95300Y120300D01*
X-102627Y105551D02*
X-101124Y107053D01*
X26000Y-130000D02*
X28575Y-132575D01*
Y-142274D02*
Y-132575D01*
X18004Y-131181D02*
X24237D01*
X25418Y-130000D02*
X26000D01*
X24237Y-131181D02*
X25418Y-130000D01*
X-84000Y-152D02*
Y1409D01*
X-90000Y-11082D02*
Y-10500D01*
X-91181Y-12263D02*
X-90000Y-11082D01*
X-95915Y-12067D02*
X-84000Y-152D01*
X-91181Y-18504D02*
Y-12263D01*
X-95915Y-18238D02*
Y-12067D01*
X-101181Y-18504D02*
Y-11181D01*
X-99000Y-9000D01*
X-96091Y11665D02*
X-96000Y11575D01*
X-96091Y11665D02*
Y18414D01*
X-96181Y18504D02*
X-96091Y18414D01*
X-111181Y-18504D02*
Y-2181D01*
X-106500Y2500D01*
X-70432Y-29932D02*
X-67757D01*
X-74826Y-34326D02*
X-70432Y-29932D01*
X-78425Y-30726D02*
X-75126D01*
X-72250Y-27850D01*
X-89624Y-58359D02*
Y-43843D01*
X-88000Y-42219D01*
Y-31500D01*
X-77200Y-24350D02*
Y-15600D01*
X-96181Y-18504D02*
X-95915Y-18238D01*
X-85815Y3224D02*
X-84000Y1409D01*
X-121181Y-18504D02*
Y-4763D01*
X-119500Y-3082D01*
Y-2500D01*
X-128000Y10500D02*
Y11082D01*
X-126181Y12901D02*
Y18504D01*
X-128000Y11082D02*
X-126181Y12901D01*
X-86889Y12029D02*
X-86888D01*
X-88418Y10500D02*
X-86889Y12029D01*
X-86888D02*
X-86181Y12737D01*
X-89000Y10500D02*
X-88418D01*
X-86181Y12737D02*
Y18504D01*
X-84163Y38228D02*
X-83748Y38643D01*
X-86500Y32000D02*
Y32877D01*
X-83445Y39385D02*
X-82159Y51001D01*
X-84575Y35868D02*
X-84163Y36279D01*
X-96000Y28152D02*
X-92274Y24425D01*
X-91767D01*
X-83748Y38643D02*
X-83500Y38891D01*
X-91767Y24425D02*
X-91181Y23839D01*
X-91000Y27500D02*
X-86500Y32000D01*
X-83500Y38891D02*
X-83445Y39385D01*
X-84163Y36279D02*
Y38228D01*
X-96000Y28152D02*
Y32500D01*
X-91181Y18504D02*
Y23839D01*
X-87825Y34202D02*
X-86500Y32877D01*
X-87825Y34202D02*
Y45605D01*
X-103000Y29500D02*
Y29848D01*
X-103932Y26084D02*
X-103324D01*
X-107000Y29152D02*
X-103932Y26084D01*
X-101181Y18504D02*
Y23941D01*
X-107000Y29152D02*
Y33000D01*
X-103324Y26084D02*
X-101181Y23941D01*
X-92000Y49780D02*
X-87825Y45605D01*
X-105106Y43506D02*
Y48175D01*
X-101000Y42320D02*
Y59481D01*
X-99480Y61001D01*
X117500Y-26500D02*
Y-25918D01*
X116091Y-24509D02*
Y-18595D01*
Y-24509D02*
X117500Y-25918D01*
X123700Y-27000D02*
X124000D01*
X121181Y-24481D02*
X123700Y-27000D01*
X121181Y-24481D02*
Y-18504D01*
X126181Y-23681D02*
X128925Y-26425D01*
X131925D01*
X132000Y-26500D01*
X123925Y-7500D02*
X124000Y-7425D01*
X110465Y-10500D02*
X129000D01*
X108054Y-12911D02*
X110465Y-10500D01*
X119181Y-7500D02*
X123925D01*
X111181Y500D02*
X119181Y-7500D01*
X104300Y-1281D02*
Y5500D01*
X116000Y26500D02*
X116091Y26409D01*
Y18595D02*
Y26409D01*
Y18595D02*
X116181Y18504D01*
X86869Y-28856D02*
X89456D01*
X79502Y-21489D02*
X86869Y-28856D01*
X76000Y-19500D02*
X101181Y5681D01*
X76000Y-29986D02*
Y-19500D01*
Y-29986D02*
X85514Y-39500D01*
X73499Y-39392D02*
Y-18673D01*
X73665Y-18335D02*
X80500Y-11500D01*
X89456Y-28856D02*
X94075Y-33475D01*
X-119753Y74879D02*
Y81171D01*
X-120500Y81918D02*
Y82500D01*
X-122509Y72123D02*
X-119753Y74879D01*
X-120500Y81918D02*
X-119753Y81171D01*
X25448Y-145400D02*
X28575Y-142274D01*
X25409Y-141091D02*
X25500Y-141000D01*
X18004Y-141181D02*
X18094Y-141091D01*
X21600Y-145400D02*
X25448D01*
X18094Y-141091D02*
X25409D01*
X84500Y-44082D02*
Y-43500D01*
X83537Y-45044D02*
X84500Y-44082D01*
X83537Y-47501D02*
Y-45044D01*
X83354Y-47684D02*
X83537Y-47501D01*
X83288Y-47684D02*
X83354D01*
X89338Y-40838D02*
X90589D01*
X88000Y-39500D02*
X89338Y-40838D01*
X90589D02*
X91000Y-41250D01*
X85514Y-39500D02*
X88000D01*
X96484Y-43668D02*
X96787Y-43971D01*
X96484Y-43668D02*
Y-18807D01*
X93713Y-49813D02*
Y-42886D01*
X94075Y-42523D01*
X96181Y-18504D02*
X96484Y-18807D01*
X94075Y-42523D02*
Y-33475D01*
X93713Y-49813D02*
X97487Y-53587D01*
X20000Y135000D02*
X23652D01*
X-82225Y91801D02*
X-80976Y93050D01*
X-65000Y62000D02*
Y81706D01*
X-63656Y83050D01*
X-77829Y50397D02*
X-74911Y53316D01*
X-77829Y48501D02*
Y50397D01*
X-74911Y53316D02*
Y55089D01*
X-59185Y56663D02*
X-49500Y66348D01*
X-56111Y54979D02*
X-55699Y54567D01*
Y53199D02*
X-55500Y53000D01*
Y50100D02*
Y53000D01*
X-61893Y52248D02*
X-59185Y54955D01*
X-49500Y66348D02*
Y72671D01*
X-55699Y53199D02*
Y54567D01*
X-59185Y54955D02*
Y56663D01*
X53000Y-43296D02*
X55826Y-46122D01*
Y-52326D02*
Y-46122D01*
X66100Y-10100D02*
X76900D01*
X77000Y-10000D01*
X52100Y-20800D02*
Y-15391D01*
X52949Y-14542D01*
X54949Y-20804D02*
Y-12828D01*
Y-20804D02*
X59748Y-25603D01*
X52949Y-14542D02*
Y-8551D01*
X54949Y-12828D02*
X56075Y-11701D01*
X54274Y-5425D02*
X56075Y-7226D01*
Y-11701D02*
Y-7226D01*
X47575Y-5425D02*
X54274D01*
X52949Y-8551D02*
X53000Y-8500D01*
X46500Y-6500D02*
X47575Y-5425D01*
X45100Y32600D02*
X49500Y37000D01*
X45100Y24900D02*
Y32600D01*
X35941Y38000D02*
X38300D01*
X32634Y37634D02*
X35575D01*
X32500Y37500D02*
X32634Y37634D01*
X35575D02*
X35941Y38000D01*
X29425Y36226D02*
X33400Y32252D01*
Y23900D02*
Y32252D01*
X38300Y38000D02*
X40500Y35800D01*
Y29500D02*
Y35800D01*
X-39949Y-14100D02*
Y16651D01*
Y-14100D02*
X-38000Y-16049D01*
X-41949Y-18449D02*
Y-11051D01*
X-45100Y-21600D02*
X-41949Y-18449D01*
X-38000Y-16500D02*
Y-16049D01*
X-46500Y-6500D02*
X-41949Y-11051D01*
X18079Y110075D02*
X24357D01*
X25652Y107000D02*
X26000D01*
X27274Y110075D02*
X42500Y94848D01*
X24357Y110075D02*
X24357Y110075D01*
X27274D01*
X18004Y110000D02*
X18079Y110075D01*
X18004Y105000D02*
X23652D01*
X25652Y107000D01*
X42500Y94600D02*
Y94848D01*
X18004Y115000D02*
X26500D01*
X23918Y125000D02*
X25418Y123500D01*
X26000D01*
X18004Y125000D02*
X23918D01*
X18359Y129645D02*
X22855D01*
X18004Y130000D02*
X18359Y129645D01*
X22855D02*
X25000Y127500D01*
X5500Y130000D02*
X18004D01*
X25000Y127500D02*
X26965D01*
X100800Y83512D02*
Y92600D01*
X-102600Y-84400D02*
Y-83512D01*
X29465Y130000D02*
X30000D01*
X26965Y127500D02*
X29465Y130000D01*
X-102317Y92200D02*
X-95345Y99172D01*
X-100012Y-85500D02*
X-99688Y-85824D01*
X-101112Y-84400D02*
X-100012Y-85500D01*
X-88261D01*
X-100202D02*
X-100012D01*
X26000Y137000D02*
X26411Y137411D01*
X28558D01*
X30647Y139500D01*
X25652Y137000D02*
X26000D01*
X23652Y135000D02*
X25652Y137000D01*
X30647Y139500D02*
X32000D01*
X-81500Y-32000D02*
Y-18000D01*
X-86000Y-19000D02*
X-82500D01*
X-89636Y63000D02*
Y63297D01*
X-91000Y64661D02*
Y96687D01*
X-95345Y99172D02*
X-93967Y100550D01*
X-94075Y90200D02*
Y90782D01*
X-91000Y64661D02*
X-89636Y63297D01*
X-95345Y92051D02*
X-94075Y90782D01*
X-128000Y56551D02*
X-125000Y53551D01*
Y50199D02*
Y53551D01*
X-125949Y49250D02*
X-125000Y50199D01*
X64953Y-40610D02*
X67110D01*
X67522Y-41021D01*
X59748Y-35405D02*
X64953Y-40610D01*
X82159Y-51001D02*
X83288Y-47684D01*
X76701Y-51818D02*
X77775Y-54826D01*
X81575Y-62274D02*
Y-59726D01*
X81300Y-77400D02*
X81575Y-62274D01*
X81334Y-59485D02*
Y-58657D01*
X81625Y-58366D01*
X86490Y-53501D01*
X77775Y-54826D02*
X78500Y-61000D01*
X81334Y-59485D02*
X81575Y-59726D01*
X76701Y-51818D02*
X77829Y-48501D01*
X83200Y-81200D02*
X89500Y-74900D01*
Y-57320D01*
X90820Y-56001D01*
X97487Y-54415D02*
Y-53587D01*
X95150Y-58501D02*
Y-56752D01*
X97487Y-54415D01*
X101000Y-59481D02*
Y-27282D01*
X100100Y-26382D02*
Y-25800D01*
X99480Y-61001D02*
X101000Y-59481D01*
X100100Y-26382D02*
X101000Y-27282D01*
X105413Y-61897D02*
Y-59550D01*
X105500Y-59463D02*
Y-51410D01*
X113200Y-43710D01*
X103810Y-63501D02*
X105413Y-61897D01*
Y-59550D02*
X105500Y-59463D01*
X108140Y-66001D02*
Y-64104D01*
X110000Y-53070D02*
X116300Y-46770D01*
X108140Y-64104D02*
X110000Y-62244D01*
Y-53070D01*
X113500Y-57797D02*
X133369Y-37928D01*
X113500Y-58000D02*
Y-57797D01*
X133369Y-37928D02*
X136772D01*
X128500Y-64000D02*
X136500Y-56000D01*
X128500Y-72600D02*
Y-64000D01*
X117200Y-83900D02*
X128500Y-72600D01*
X60929Y-76600D02*
X61000Y-76529D01*
Y-67600D01*
X59300Y-65900D02*
X61000Y-67600D01*
X59325Y-80551D02*
X60929Y-78947D01*
Y-76600D01*
X69500Y-84036D02*
Y-54782D01*
X70400Y-53882D02*
Y-53300D01*
X67986Y-85550D02*
X69500Y-84036D01*
Y-54782D02*
X70400Y-53882D01*
X63656Y-84344D02*
Y-83050D01*
X60100Y-87900D02*
X63656Y-84344D01*
X40600Y-87900D02*
X60100D01*
X72012Y-97373D02*
X75517Y-93867D01*
X75592Y-93647D01*
X76646Y-90550D01*
X71917Y-98353D02*
X72012Y-97373D01*
X78500Y-112500D02*
Y-97339D01*
X78634Y-97107D02*
X80976Y-93050D01*
X78500Y-97339D02*
X78634Y-97107D01*
X57000Y-134000D02*
X78500Y-112500D01*
X82500Y-114083D02*
X85160Y-116743D01*
X82500Y-114083D02*
Y-99637D01*
X85160Y-118000D02*
Y-116743D01*
X82500Y-99637D02*
X85306Y-96830D01*
Y-95551D01*
X88000Y-102034D02*
X88033Y-102001D01*
X88000Y-104200D02*
Y-102034D01*
Y-104200D02*
X97300Y-113500D01*
X88033Y-99654D02*
X89636Y-98050D01*
X88033Y-102001D02*
Y-99654D01*
X97300Y-113500D02*
X102300D01*
X108800Y-107000D01*
X53000Y-43296D02*
Y-37024D01*
X54400Y-35624D02*
Y-32600D01*
X53000Y-37024D02*
X54400Y-35624D01*
X33500Y-59500D02*
Y-59100D01*
X45100Y-47500D01*
Y-24300D01*
X24300Y-77900D02*
X25000Y-77200D01*
X12400Y-32600D02*
X24202Y-44402D01*
X23671Y-46785D02*
X25000Y-49088D01*
X23671Y-46785D02*
Y-45762D01*
X24202Y-45230D01*
X25000Y-63729D02*
Y-49088D01*
Y-77200D02*
Y-68431D01*
X24202Y-44402D02*
X24202Y-45230D01*
X-8600Y-58900D02*
X-5000Y-62500D01*
X-8600Y-58900D02*
Y-36400D01*
X-6075Y-84900D02*
X-4182D01*
X-2582Y-86500D01*
X-2000D01*
X-8975Y-82000D02*
X-6075Y-84900D01*
X-4003Y-81072D02*
X-4000Y-81075D01*
X-8146Y-80000D02*
X-7075Y-81072D01*
X-4003D01*
X-25632Y-80000D02*
X-8146D01*
X23181Y-96181D02*
X26000Y-99000D01*
X18004Y-96181D02*
X23181D01*
X26418Y-119500D02*
X27000D01*
X24737Y-121181D02*
X26418Y-119500D01*
X18004Y-121181D02*
X24737D01*
X18004Y-126181D02*
X28237D01*
X29918Y-124500D01*
X30500D01*
X-19344Y-135840D02*
X-19004Y-136181D01*
X-26660Y-135840D02*
X-19344D01*
X-27000Y-135500D02*
X-26660Y-135840D01*
X-18808Y-130985D02*
X-13567D01*
X-12082Y-129500D02*
X-11500D01*
X-19004Y-131181D02*
X-18808Y-130985D01*
X-13567D02*
X-12082Y-129500D01*
X-12125Y-106275D02*
X-7925Y-110475D01*
X-13181Y-121181D02*
X-11000Y-119000D01*
X-19004Y-121181D02*
X-13181D01*
X-19004Y-101181D02*
X-18914Y-101091D01*
X-11591D02*
X-11500Y-101000D01*
X-18914Y-101091D02*
X-11591D01*
X-21760Y-96181D02*
X-19004D01*
X-24668Y-99089D02*
X-21760Y-96181D01*
X-26089Y-99089D02*
X-24668D01*
X-26500Y-99500D02*
X-26089Y-99089D01*
X-28075Y-73500D02*
X-28000D01*
X-17055Y-74911D02*
X-15007Y-73807D01*
X-44586Y-74599D02*
X-29622Y-76530D01*
X-25586Y-78000D02*
X7067D01*
X-15007Y-73807D02*
X-8356Y-67156D01*
X-26000Y-78000D02*
X-25586Y-78000D01*
X-46357Y-72828D02*
X-44879Y-74306D01*
X-17941Y-74911D02*
X-17055D01*
X-28000Y-73500D02*
X-17941Y-74911D01*
X-44879Y-74306D02*
X-44586Y-74599D01*
X-29622Y-76530D02*
X-26000Y-78000D01*
X-56000Y-71300D02*
X-52100Y-67400D01*
X-52785Y-80488D02*
Y-80182D01*
X-56000Y-76967D02*
X-52785Y-80182D01*
X-56000Y-76967D02*
Y-71300D01*
X-48652Y-76658D02*
X-45710Y-79600D01*
X-49571Y-76658D02*
X-48652D01*
X-45710Y-79600D02*
X-30900D01*
X-75500Y-94500D02*
X-70400Y-89400D01*
X-72069Y-103470D02*
Y-103380D01*
X-75500Y-99949D02*
Y-94500D01*
Y-99949D02*
X-72069Y-103380D01*
X-119150Y-93550D02*
X-103700Y-109000D01*
X-79600Y-111130D02*
Y-109000D01*
X-79959Y-109359D02*
X-79600Y-109000D01*
X-81710Y-109359D02*
X-79959D01*
X-82069Y-109000D02*
X-81710Y-109359D01*
X-103700Y-109000D02*
X-82069D01*
X-79600Y-111130D02*
X-78496D01*
X-87161Y-84400D02*
X-86600D01*
X-100419Y-85283D02*
X-100202Y-85500D01*
X-88261D02*
X-87161Y-84400D01*
X-101861Y-85283D02*
X-100419D01*
X-103632Y-83512D02*
X-101861Y-85283D01*
X-102600Y-84400D02*
X-101112D01*
X-63825Y-77075D02*
Y-72600D01*
X-62843Y-38500D02*
X-55100Y-30757D01*
X-70500Y-38500D02*
X-62843D01*
X-67757Y-29932D02*
X-64100Y-26275D01*
Y-11900D01*
X-57500D01*
X-111825Y-35675D02*
X-108925D01*
X-112000Y-35500D02*
X-111825Y-35675D01*
X-108925D02*
X-105500Y-39100D01*
X-89207Y-64068D02*
X-88639Y-63500D01*
X-89500Y-63775D02*
X-89207Y-64068D01*
X-88423Y-63500D02*
X-87563Y-64361D01*
X-88639Y-63500D02*
X-88423D01*
X-86398Y-58481D02*
X-84349Y-60530D01*
X-86398Y-58481D02*
Y-57111D01*
X-86500Y-57009D02*
X-86398Y-57111D01*
X-86500Y-57009D02*
Y-43548D01*
X-89624Y-59526D02*
X-89500Y-59649D01*
X-89624Y-59526D02*
Y-58359D01*
X-89500Y-63775D02*
Y-59649D01*
X-84459Y-53179D02*
Y-51717D01*
X-81135Y-56700D02*
Y-56503D01*
X-84459Y-53179D02*
X-81135Y-56503D01*
X-84459Y-51717D02*
X-82800Y-50059D01*
Y-48400D01*
X116091Y-18595D02*
X116181Y-18504D01*
X108054Y-13876D02*
Y-12911D01*
X106591Y-15339D02*
X108054Y-13876D01*
X106591Y-18095D02*
Y-15339D01*
X106181Y-18504D02*
X106591Y-18095D01*
X86181Y-18504D02*
Y-15748D01*
X89089Y-12841D01*
Y-11411D01*
X89500Y-11000D01*
X119411Y11911D02*
Y13978D01*
X119000Y11500D02*
X119411Y11911D01*
Y13978D02*
X121181Y15748D01*
Y18504D01*
X76000Y16500D02*
Y22500D01*
X75942Y-400D02*
X78000Y1658D01*
X70500Y11000D02*
X76000Y16500D01*
X78000Y18700D02*
X88875Y29575D01*
X78000Y1658D02*
Y18700D01*
X71075Y18075D02*
Y22378D01*
X54326Y24326D02*
X68674D01*
X82438Y33741D02*
X91216D01*
X46500Y16500D02*
X54326Y24326D01*
X71075Y22378D02*
X82438Y33741D01*
X24500Y51300D02*
X26200Y53000D01*
X21672Y48114D02*
X22393Y52693D01*
X23672Y46262D02*
Y47285D01*
X24500Y48720D01*
X19000Y24400D02*
X21807Y27207D01*
X24500Y48720D02*
Y51300D01*
X22393Y52693D02*
X24207Y54507D01*
X29782Y53000D02*
X39501D01*
X39794Y52707D01*
X27602Y53668D02*
X28625D01*
X26934Y53000D02*
X27602Y53668D01*
X26200Y53000D02*
X26934D01*
X35038Y64981D02*
X39599Y66437D01*
X20770Y56770D02*
X21063Y57063D01*
X39794Y52707D02*
X44700Y47801D01*
X28625Y53668D02*
X29782Y53000D01*
X39600Y64000D02*
X39991D01*
X24207Y54507D02*
X39600Y64000D01*
X53021Y43000D02*
X57021Y47000D01*
X58913Y49185D02*
X61621D01*
X56193Y49000D02*
X58913Y49185D01*
X60978Y47000D02*
X66906D01*
X57021D02*
X59446D01*
X61621Y49185D02*
X67840Y49000D01*
X54706Y48707D02*
X56193Y49000D01*
X66906Y47000D02*
X67198Y46707D01*
X59741Y47185D02*
X60793D01*
X53800Y47801D02*
X54706Y48707D01*
X67840Y49000D02*
X68133Y48707D01*
X60793Y47185D02*
X60978Y47000D01*
X59446D02*
X59741Y47185D01*
X67198Y46707D02*
X71906Y42000D01*
X68133Y48707D02*
X72840Y44000D01*
X47231Y68000D02*
X47359Y67892D01*
X40428Y64437D02*
X41580D01*
X51216Y66106D02*
X56914Y71614D01*
X50974Y68692D02*
Y74547D01*
X42409Y66437D02*
X46423Y66000D01*
X48634Y68000D02*
X50388Y68106D01*
X46423Y66000D02*
X46531Y65892D01*
X50388Y68106D02*
X50974Y68692D01*
X39599Y66437D02*
X42409D01*
X48527Y67892D02*
X48634Y68000D01*
X43237Y68437D02*
X47231Y68000D01*
X50291Y64000D02*
X63500D01*
X38771Y68437D02*
X43237D01*
X50183Y63892D02*
X50291Y64000D01*
X45702Y63892D02*
X50183D01*
X49355Y65892D02*
X49463Y66000D01*
X42120Y64000D02*
X45595D01*
X63500D02*
X67000Y67500D01*
X26500Y70700D02*
X36106D01*
X46531Y65892D02*
X49355D01*
X39991Y64000D02*
X40428Y64437D01*
X31786Y66786D02*
X38771Y68437D01*
X31200Y66200D02*
X31786Y66786D01*
X36106Y70700D02*
X39675Y71512D01*
X41580Y64437D02*
X42120Y64000D01*
X45595D02*
X45702Y63892D01*
X31200Y66080D02*
Y66200D01*
X56914Y71614D02*
X57500Y72200D01*
X49463Y66000D02*
X51216Y66106D01*
X47359Y67892D02*
X48527D01*
X57500Y72200D02*
Y82109D01*
X39675Y78175D02*
X44500Y83000D01*
X39675Y78100D02*
Y78175D01*
X14000Y72100D02*
X17400Y75500D01*
X14000Y62000D02*
Y72100D01*
X-1000Y47000D02*
X14000Y62000D01*
X25718Y75500D02*
X26618Y74600D01*
X27200D01*
X17400Y75500D02*
X25718D01*
X44500Y83000D02*
X48215D01*
X50727Y80488D02*
X52076D01*
X48215Y83000D02*
X50727Y80488D01*
X60878Y91979D02*
X61718D01*
X51733Y95000D02*
X57857D01*
X37945Y81212D02*
X51733Y95000D01*
X57857D02*
X60878Y91979D01*
X71949Y51089D02*
X73998Y49040D01*
X71949Y51089D02*
Y52512D01*
X71900Y52561D02*
X71949Y52512D01*
X71900Y52561D02*
Y55723D01*
X72840Y44000D02*
X76913D01*
X79300Y46387D01*
X71906Y42000D02*
X79090D01*
X82537Y45447D01*
X85000Y56397D02*
Y59945D01*
X84414Y60530D02*
X84707Y60237D01*
X85701Y54528D02*
Y55696D01*
X83640Y60530D02*
X84414D01*
X85000Y53693D02*
X85701Y54528D01*
X85000Y45100D02*
Y53693D01*
Y45100D02*
X85293Y44807D01*
X85000Y56397D02*
X85701Y55696D01*
X84707Y60237D02*
X85000Y59945D01*
X85293Y44807D02*
X85800Y44300D01*
X85300Y39400D02*
X90500Y44600D01*
X89914Y64361D02*
X90207Y64068D01*
X90207Y64068D02*
X90500Y63775D01*
X92500Y43772D02*
X96500Y62500D01*
X90140Y39207D02*
X92500Y43772D01*
X96500Y62500D02*
Y68500D01*
X90500Y44600D02*
Y63775D01*
X86854Y64361D02*
X89914D01*
X86833Y35900D02*
X90140Y39207D01*
X93282Y71718D02*
X96500Y68500D01*
X93282Y71718D02*
Y72021D01*
X96496Y75851D02*
X98737Y73971D01*
X98608Y41133D02*
X99094Y73197D01*
X98770Y73943D02*
X99094Y73619D01*
X98737Y73971D02*
X98770Y73943D01*
X99094Y73197D02*
Y73619D01*
X91216Y33741D02*
X98608Y41133D01*
X99710Y79451D02*
Y79681D01*
X103000Y32000D02*
Y76160D01*
X101300Y30300D02*
X103000Y32000D01*
X99710Y79451D02*
X103000Y76160D01*
X106138Y87342D02*
X108187Y85292D01*
Y82519D02*
Y85292D01*
Y82519D02*
X108199Y82507D01*
X107500Y76000D02*
Y76582D01*
X108199Y77280D02*
Y82507D01*
X107500Y76582D02*
X108199Y77280D01*
X109352Y91172D02*
X109663D01*
X113000Y46481D02*
Y87836D01*
Y46481D02*
X131181Y28300D01*
X109663Y91172D02*
X113000Y87836D01*
X109352Y91172D02*
Y99500D01*
X77788Y110855D02*
Y111130D01*
Y110855D02*
X81143Y107500D01*
X103352Y105500D02*
X109352Y99500D01*
X76345Y105528D02*
X80286D01*
X72500Y109032D02*
Y117900D01*
X80314Y105500D02*
X103352D01*
X82300Y107500D02*
X88300Y113500D01*
X74574Y107300D02*
X76345Y105528D01*
X72500Y107300D02*
Y109032D01*
X81143Y107500D02*
X82300D01*
X80286Y105528D02*
X80314Y105500D01*
X-50000Y120500D02*
Y129500D01*
Y120500D02*
Y124000D01*
Y118390D02*
Y120500D01*
X-50500Y117890D02*
X-50000Y118390D01*
X-56414Y109000D02*
X-50500D01*
X-58414Y111000D02*
X-56414Y109000D01*
X-18000Y84500D02*
Y85000D01*
X20760Y-86181D02*
X35941Y-71000D01*
X-64000Y129500D02*
X-60049D01*
X-73499Y46001D02*
Y46009D01*
Y44992D02*
Y46001D01*
X-61500Y144500D02*
X-53000D01*
X-66500Y139500D02*
X-61500Y144500D01*
X-53000D02*
X-45500Y137000D01*
X-56500Y122600D02*
X-53900Y120000D01*
X-56500Y122600D02*
Y123000D01*
X-23250Y153750D02*
X-23000Y154000D01*
X-23500Y149000D02*
X-23250Y149250D01*
Y153750D01*
X-19004Y115000D02*
X-12000D01*
X-19254Y120250D02*
X-19004Y120000D01*
X-26500Y120500D02*
X-26250Y120250D01*
X-19254D01*
X-25418Y110000D02*
X-19004D01*
X-27000Y111000D02*
X-26418D01*
X-25418Y110000D01*
X-12250Y95250D02*
X-12000Y95500D01*
X-18754Y95250D02*
X-12250D01*
X-19004Y95000D02*
X-18754Y95250D01*
X-26000Y90000D02*
X-19004D01*
X-36100Y79600D02*
X-26355Y69855D01*
X-25122Y68622D02*
X-24100Y67600D01*
Y66129D02*
Y67600D01*
X-36100Y79600D02*
Y81500D01*
X-91000Y96687D02*
X-89636Y98051D01*
X-95345Y92051D02*
Y99172D01*
X-87000Y76400D02*
Y91509D01*
Y76400D02*
X-85300Y74700D01*
X-86909Y93947D02*
X-85306Y95551D01*
X-86909Y91600D02*
Y93947D01*
X-87000Y91509D02*
X-86909Y91600D01*
X-76646Y90550D02*
Y91498D01*
X-73569Y94575D01*
X-69100D01*
X-72316Y88423D02*
X-69239Y91500D01*
X-64700D02*
X-64000Y92200D01*
X-72316Y88051D02*
Y88423D01*
X-69239Y91500D02*
X-64700D01*
X-58000Y81876D02*
Y87339D01*
X-59325Y80551D02*
X-58000Y81876D01*
X-59300Y88639D02*
X-58000Y87339D01*
X-59300Y88639D02*
Y89000D01*
X-68075Y72500D02*
Y72735D01*
X-69500Y74161D02*
X-68075Y72735D01*
X-69500Y84036D02*
X-67986Y85550D01*
X-69500Y74161D02*
Y84036D01*
X-42600Y46500D02*
X-36500Y52600D01*
Y57136D01*
X-35709Y57928D02*
Y59080D01*
X-36793Y63444D02*
X-36500Y63151D01*
Y60057D02*
Y63151D01*
Y57136D02*
X-36207Y57429D01*
X-29339Y48000D02*
X-28405Y51485D01*
X-36500Y60057D02*
X-35709Y59080D01*
X-34949Y66049D02*
X-28405Y51485D01*
X-35242Y66342D02*
X-34949Y66049D01*
X-36204Y57433D02*
X-35709Y57928D01*
X-41200Y67851D02*
X-36793Y63444D01*
X-37999Y69099D02*
X-35242Y66342D01*
X-47500Y57372D02*
Y69775D01*
Y57372D02*
X-44720Y54592D01*
X-47500Y69775D02*
X-44700Y72575D01*
X-49500Y72671D02*
X-44671Y77500D01*
X-58225Y69575D02*
X-54995Y72805D01*
X-37999Y69099D02*
Y69417D01*
X-58425Y69575D02*
X-58225D01*
X-46500Y35500D02*
X-46207Y35207D01*
X-47870Y35500D02*
X-46500D01*
X-60564D02*
X-53130D01*
X-47599Y33007D02*
X-46486Y32086D01*
X-60856Y35793D02*
X-60564Y35500D01*
X-64500Y39436D02*
X-60856Y35793D01*
X-46207Y35207D02*
X-40500Y29500D01*
X-61214Y28400D02*
X-60800Y28400D01*
X-52922Y33353D01*
X-70000Y28400D02*
X-61214D01*
X-45900Y23300D02*
Y31500D01*
X-46486Y32086D02*
X-45900Y31500D01*
X-64500Y45100D02*
X-61500Y48100D01*
X-64500Y39436D02*
Y39483D01*
X-64657Y39640D02*
X-64500Y39483D01*
X-64905Y39888D02*
X-64657Y39640D01*
X-64905Y40940D02*
X-64500Y41588D01*
X-64905Y40940D02*
X-64905Y39888D01*
X-64500Y41588D02*
Y45100D01*
X-71448Y42500D02*
X-71285Y42336D01*
X-69411D01*
X-73499Y46009D02*
X-71008Y48500D01*
X-70500D01*
X65121Y-47379D02*
X65513D01*
X-69411Y42336D02*
X-69000Y41925D01*
X80500Y-11500D02*
Y9000D01*
X-92000Y49780D02*
Y54820D01*
X-90820Y56001D01*
X-95150Y56765D02*
Y58501D01*
X-97500Y54415D02*
X-95150Y56765D01*
X-97500Y49800D02*
Y54415D01*
Y49800D02*
X-90900Y43200D01*
X-105500Y57175D02*
X-104486Y56161D01*
Y54011D02*
Y56161D01*
Y54011D02*
X-104075Y53600D01*
X-105500Y57175D02*
Y59463D01*
X-105413Y59550D01*
Y61897D02*
X-103810Y63501D01*
X-105413Y59550D02*
Y61897D01*
X-109500Y52569D02*
X-105106Y48175D01*
X-109500Y64641D02*
X-108140Y66001D01*
X-109500Y52569D02*
Y64641D01*
X-111000Y92236D02*
X-102788Y100448D01*
X-102627Y100913D02*
Y105551D01*
X-111000Y69971D02*
Y92236D01*
X-102758Y100685D02*
X-102627Y100913D01*
X-102786Y100637D02*
X-102763Y100676D01*
X-112470Y68501D02*
X-111000Y69971D01*
X-102788Y100448D02*
Y100634D01*
X-118404Y69397D02*
X-116801Y71001D01*
X-118500Y66954D02*
X-118404Y67050D01*
X-120618Y34000D02*
X-118500Y36118D01*
Y66954D01*
X-118404Y67050D02*
Y69397D01*
X-120800Y34000D02*
X-120618D01*
X-136181Y18504D02*
Y27919D01*
X-122509Y57589D02*
Y72123D01*
X-136181Y27919D02*
X-123000Y41100D01*
X-125949Y47500D02*
Y49250D01*
X-123000Y41100D02*
Y55252D01*
X-126000Y58252D02*
Y84225D01*
X-124500Y35000D02*
X-121000Y38500D01*
Y56080D01*
X-126000Y58252D02*
X-123000Y55252D01*
X-122509Y57589D02*
X-121000Y56080D01*
X-126000Y84225D02*
X-113500Y96725D01*
X-128000Y56551D02*
Y85400D01*
X-121200Y92200D01*
X-136000Y49700D02*
Y52069D01*
Y56771D02*
Y61974D01*
X-137500Y48200D02*
X-136000Y49700D01*
Y61974D02*
X-131299Y66675D01*
X-137400Y45500D02*
X-127949D01*
X-125949Y47500D01*
X153500Y8562D02*
Y10914D01*
Y4438D02*
Y4439D01*
Y-3938D02*
Y4438D01*
Y-8062D02*
Y-8061D01*
Y-10700D02*
Y-8062D01*
X-138500Y38432D02*
Y41319D01*
Y42681D02*
Y44400D01*
X-137400Y45500D01*
X-139014Y37021D02*
X-138500Y38432D01*
X-139014Y36135D02*
Y37021D01*
Y36135D02*
X-138500Y35621D01*
Y31281D02*
Y35621D01*
X-141181Y28600D02*
X-138500Y31281D01*
X133181Y11500D02*
X152914D01*
X151900Y-12300D02*
X153500Y-10700D01*
X153207Y11207D02*
X153500Y10914D01*
X152914Y11500D02*
X153207Y11207D01*
X143900Y-27900D02*
Y4100D01*
X140500Y7500D02*
X143900Y4100D01*
X141500Y-30300D02*
X143900Y-27900D01*
X-141693Y-6965D02*
X-141437Y-7221D01*
Y-17063D02*
X-141000Y-17500D01*
X-141437Y-17063D02*
Y-7221D01*
X-145000Y-22323D02*
X-141181Y-18504D01*
X-145000Y-42500D02*
Y-22323D01*
Y-42500D02*
X-121500Y-66000D01*
X-132693Y-75D02*
X-132575D01*
X-121965Y10535D01*
X-118193D01*
X-126181Y-18504D02*
X-125827Y-18150D01*
Y-1554D01*
X-125472Y-1200D01*
X-126193Y26035D02*
X-126036Y25878D01*
X-121181Y18504D02*
Y23941D01*
X-123118Y25878D02*
X-121181Y23941D01*
X-126036Y25878D02*
X-123118D01*
X-116801Y71001D02*
X-115600Y73080D01*
Y86100D01*
X-131181Y18504D02*
Y23921D01*
X-133000Y25500D02*
X-132760D01*
X-131181Y23921D01*
X-116181Y18504D02*
Y37100D01*
X-108181Y45100D01*
X58623Y137000D02*
X79623Y116000D01*
X80000D01*
X-121200Y92200D02*
Y96400D01*
X-26575Y148739D02*
X-23761D01*
X-30500Y146000D02*
X-29313D01*
X-26575Y148739D01*
X-23761D02*
X-23500Y149000D01*
Y140000D02*
X-20500D01*
X-25914D02*
X-23500D01*
Y149000D01*
X131181Y13500D02*
Y18504D01*
Y-2100D02*
Y13500D01*
X80500Y9000D02*
X86181Y14681D01*
X-20000Y85000D02*
X-19004D01*
X73499Y-46001D02*
Y-39392D01*
X65513Y-47379D02*
X73499Y-39392D01*
X-49500Y78057D02*
Y91000D01*
X-52500Y74586D02*
X-49500Y78057D01*
Y91000D02*
X-45500Y87000D01*
X-60500Y102000D02*
X-49500Y91000D01*
X-60500Y102000D02*
Y116500D01*
X-52500Y72500D02*
Y74586D01*
X-70500Y48500D02*
X-56000Y63000D01*
X-102600Y-83512D02*
X-102000D01*
X-101112Y-84400D01*
X-98247Y103100D02*
X-96100D01*
X-98247D02*
X-96200Y105147D01*
X-98297Y103051D02*
X-98247Y103100D01*
X-19819Y140681D02*
X-15567D01*
X79900Y114960D02*
Y116000D01*
X-20500Y140000D02*
X-19004D01*
X-52100Y-19600D02*
X-46500D01*
X-16094Y-106275D02*
Y-106181D01*
X-96100Y-72021D02*
Y-62800D01*
X101181Y-22725D02*
X101500D01*
X112470Y-68501D02*
Y-65630D01*
X151900Y-26200D01*
Y-12300D01*
X131181Y13500D02*
X133181Y11500D01*
X-53900Y120000D02*
X-50500D01*
X-141181Y18504D02*
Y28600D01*
X72500Y107300D02*
X74574D01*
X46400Y144000D02*
X72500Y117900D01*
X25700Y144000D02*
X46400D01*
X21700Y140000D02*
X25700Y144000D01*
X18004Y140000D02*
X21700D01*
X-19004Y130000D02*
X-8835D01*
X1165Y140000D02*
X18004D01*
X-77394Y-105528D02*
X-75283Y-107300D01*
X-89097Y-105528D02*
X-77394D01*
X-89740Y-106171D02*
X-89097Y-105528D01*
X-99500Y-106171D02*
X-89740D01*
X-110060Y-95611D02*
X-99500Y-106171D01*
X-110060Y-95611D02*
Y-91172D01*
X-1925Y97125D02*
X-300Y95500D01*
X-1925Y97125D02*
Y113825D01*
X-13100Y125000D02*
X-1925Y113825D01*
X-19004Y125000D02*
X-13100D01*
X18004Y120000D02*
X51000D01*
X69500Y16500D02*
X71075Y18075D01*
X86181Y14681D02*
Y18504D01*
X71900Y55723D02*
X75633Y59456D01*
Y61786D01*
X81600Y67753D01*
Y69800D01*
X70500Y64000D02*
X74500Y68000D01*
Y93285D01*
X68146Y99639D02*
X74500Y93285D01*
X13898Y19000D02*
X17000D01*
X9098Y23800D02*
X13898Y19000D01*
X2500Y23800D02*
X9098D01*
X400Y25900D02*
X2500Y23800D01*
X400Y25900D02*
Y35500D01*
X-5600Y41500D02*
X400Y35500D01*
X-5600Y41500D02*
Y58400D01*
X-9600Y62400D02*
X-5600Y58400D01*
X-9600Y62400D02*
Y71500D01*
X-13900Y75800D02*
X-9600Y71500D01*
X-23800Y75800D02*
X-13900D01*
X-28300Y80300D02*
X-23800Y75800D01*
X-26200Y100000D02*
X-19004D01*
X-1000Y57000D02*
Y62300D01*
X-400Y62900D01*
Y76900D01*
X-1500Y78000D02*
X-400Y76900D01*
X-19200Y78000D02*
X-1500D01*
X-20800Y79600D02*
X-19200Y78000D01*
X-7700Y85000D02*
X6200D01*
X8900Y82300D01*
X32360D01*
X33448Y81212D01*
X37945D01*
X18004Y90000D02*
X30900D01*
X36600Y84300D01*
X28000Y18500D02*
X33400Y23900D01*
X77212Y52870D02*
X79323Y51099D01*
X79300Y51075D02*
X79323Y51099D01*
X79300Y46387D02*
Y51075D01*
X44700Y47801D02*
X53800D01*
X83500Y84300D02*
Y90660D01*
X71360Y102800D02*
X83500Y90660D01*
X71360Y102800D02*
Y103470D01*
X24200Y68400D02*
X26500Y70700D01*
X24200Y63200D02*
Y68400D01*
X14500Y53500D02*
X24200Y63200D01*
X80426Y56700D02*
X82537Y54929D01*
Y45447D02*
Y54929D01*
X38000Y43000D02*
X53021D01*
X49271Y52352D02*
X64770D01*
X73633Y61215D01*
Y63698D01*
X78523Y68587D01*
Y71500D01*
X79897Y72875D01*
X83300D01*
X87984Y68191D01*
X90068D01*
X-67900Y11900D02*
X-61500Y5500D01*
X-73500Y11900D02*
X-67900D01*
X-77211Y15611D02*
X-73500Y11900D01*
X-77211Y15611D02*
Y36737D01*
X-71448Y42500D01*
X-66100Y23100D02*
X-59500Y16500D01*
X-70500Y23100D02*
X-66100D01*
X-74900Y27500D02*
X-70500Y23100D01*
X-74900Y27500D02*
Y33700D01*
X-73300Y35300D01*
X-54995Y72805D02*
Y78050D01*
X-145500Y48200D02*
X-137500D01*
X-148256Y45444D02*
X-145500Y48200D01*
X-148256Y21144D02*
Y45444D01*
X-154500Y14900D02*
X-148256Y21144D01*
X-154500Y-1000D02*
Y14900D01*
Y-1000D02*
X-152000Y-3500D01*
X-103632Y-83512D02*
X-102600D01*
X-95300Y120300D02*
X-88800Y126800D01*
X-106846Y-87342D02*
X-97136Y-97052D01*
X-136181Y10500D02*
Y18504D01*
X-96200Y105147D02*
Y114500D01*
X-42100Y134400D02*
X-30500Y146000D01*
X-42100Y108400D02*
Y134400D01*
X-119150Y-93550D02*
Y-54031D01*
X-136181Y-37000D02*
X-119150Y-54031D01*
X-136181Y-37000D02*
Y-18504D01*
Y-6900D01*
X-145100Y2019D02*
X-136181Y-6900D01*
X-145100Y2019D02*
Y31856D01*
X-142256Y34700D01*
X-106181Y-26800D02*
Y-18504D01*
Y-26800D02*
X-101400Y-31581D01*
Y-42100D02*
Y-31581D01*
X-39949Y16651D02*
X-33500Y23100D01*
X-22900D01*
X-17000Y29000D01*
X-53000Y10500D02*
X-46500Y17000D01*
X-53000Y-7400D02*
Y10500D01*
X-57500Y-11900D02*
X-53000Y-7400D01*
X-116181Y-23319D02*
X-106100Y-33400D01*
X-116181Y-23319D02*
Y-18504D01*
X-111181Y34000D02*
X-107181Y38000D01*
X-111181Y18504D02*
Y34000D01*
X5000Y-49577D02*
Y-31000D01*
Y-49577D02*
X6923Y-51500D01*
Y-65733D02*
Y-51500D01*
X5500Y-67156D02*
X6923Y-65733D01*
X-8356Y-67156D02*
X5500D01*
X-66894Y-101600D02*
X-48900D01*
X-68855Y-99639D02*
X-66894Y-101600D01*
X-25481Y-126181D02*
X-19004D01*
X-26000Y-126700D02*
X-25481Y-126181D01*
X-39600Y-50700D02*
X-33400Y-44500D01*
Y-23900D01*
X-28000Y-18500D01*
X9900Y-116181D02*
X18004D01*
X-23500Y-82000D02*
X-8975D01*
X-38600Y-97100D02*
X-23500Y-82000D01*
X-64350Y-97100D02*
X-38600D01*
X-65641Y-95809D02*
X-64350Y-97100D01*
X-46500Y-19600D02*
Y-16500D01*
X-55100Y-22600D02*
X-52100Y-19600D01*
X-55100Y-30757D02*
Y-22600D01*
X-97600Y-52300D02*
Y-37175D01*
X-99300Y-54000D02*
X-97600Y-52300D01*
X-99300Y-73756D02*
Y-54000D01*
Y-73756D02*
X-97204Y-75851D01*
X-28312Y-82680D02*
X-25632Y-80000D01*
X-35500Y-82680D02*
X-28312D01*
X-39100Y-86280D02*
X-35500Y-82680D01*
X-39100Y-92000D02*
Y-86280D01*
X-41500Y-94400D02*
X-39100Y-92000D01*
X-60006Y-94400D02*
X-41500D01*
X-62427Y-91979D02*
X-60006Y-94400D01*
X4050Y-97650D02*
X10519Y-91181D01*
X18004D01*
X-75800Y-75700D02*
Y-54310D01*
X-77240Y-52870D02*
X-75800Y-54310D01*
X-77921Y-52870D02*
X-77240D01*
X-19004Y-106181D02*
X-16094D01*
Y-106275D02*
X-12125D01*
X-93700Y-56900D02*
Y-27500D01*
X-72250Y-19250D02*
X-69500Y-16500D01*
X-72250Y-27850D02*
Y-19250D01*
X4600Y-144600D02*
X9000Y-149000D01*
X-24000Y-144600D02*
X4600D01*
X-30091Y-138509D02*
X-24000Y-144600D01*
X-30091Y-138509D02*
Y-92458D01*
X-23813Y-86181D01*
X-19004D01*
X-97900Y-103000D02*
X-95900D01*
X-72500Y-79600D01*
Y-51247D01*
X-74707Y-49040D02*
X-72500Y-51247D01*
X9900Y-73200D02*
X16500Y-79800D01*
X9900Y-73200D02*
Y-8100D01*
X12000Y-6000D01*
X111181Y-27019D02*
Y-18504D01*
X34000Y-5000D02*
X41900Y-12900D01*
Y-21100D02*
Y-12900D01*
Y-21100D02*
X45100Y-24300D01*
X91181Y-14400D02*
X104300Y-1281D01*
X91181Y-18504D02*
Y-14400D01*
X54400Y-32600D02*
X56300Y-30700D01*
Y-25000D01*
X52100Y-20800D02*
X56300Y-25000D01*
X91181Y18504D02*
Y26500D01*
X58500Y11000D02*
X70500D01*
X56200Y8700D02*
X58500Y11000D01*
X56200Y7500D02*
Y8700D01*
X50600Y1900D02*
X56200Y7500D01*
X42500Y1900D02*
X50600D01*
X39300Y5100D02*
X42500Y1900D01*
X39300Y5100D02*
Y7800D01*
X36500Y10600D02*
X39300Y7800D01*
X18500Y10600D02*
X36500D01*
X17400Y9500D02*
X18500Y10600D01*
X17400Y-8500D02*
Y9500D01*
Y-8500D02*
X22500Y-13600D01*
Y-23000D02*
Y-13600D01*
Y-23000D02*
X28000Y-28500D01*
X72316Y-90500D02*
Y-88051D01*
X68616Y-94200D02*
X72316Y-90500D01*
X37800Y-94200D02*
X68616D01*
X33900Y-90300D02*
X37800Y-94200D01*
X12400Y-32600D02*
Y-23600D01*
X17000Y-19000D01*
X126181Y4700D02*
Y18504D01*
X101181Y-22725D02*
Y-18504D01*
X101500Y-22725D02*
X106249Y-27474D01*
Y-37567D02*
Y-27474D01*
X113200Y-43710D02*
Y-31500D01*
X114400Y-30300D01*
X141500D01*
X61500Y-5500D02*
X66100Y-10100D01*
X111181Y500D02*
Y18504D01*
X126181Y-23681D02*
Y-18504D01*
X54995Y-78050D02*
Y-75395D01*
X51600Y-74000D02*
X54995Y-75395D01*
X136772Y-37928D02*
X149791Y-24909D01*
Y-7209D01*
X149500Y-6000D02*
X149791Y-7209D01*
X80991Y39491D02*
X85800Y44300D01*
X64555Y39491D02*
X80991D01*
X54564Y29500D02*
X64555Y39491D01*
X50500Y29500D02*
X54564D01*
X-19004Y105000D02*
X-5000D01*
X-4000Y125959D02*
Y149000D01*
Y125959D02*
X3159Y118800D01*
Y93041D02*
Y118800D01*
Y93041D02*
X11200Y85000D01*
X18004D01*
X59748Y-35405D02*
Y-25603D01*
X116300Y-46770D02*
Y-33575D01*
X101181Y5681D02*
Y18504D01*
X-57500Y48100D02*
X-55500Y50100D01*
X-61500Y48100D02*
X-57500D01*
X-46500Y7000D02*
X-41949Y11551D01*
Y19349D01*
X-45900Y23300D02*
X-41949Y19349D01*
X-71800Y30200D02*
X-70000Y28400D01*
X64500Y29600D02*
Y33000D01*
Y29600D02*
X65500Y28600D01*
X66400D01*
X73700Y35900D01*
X86833D01*
X55290Y84319D02*
X57500Y82109D01*
X41900Y11100D02*
X46500Y6500D01*
X41900Y11100D02*
Y21700D01*
X45100Y24900D01*
X-106181Y12785D02*
Y18504D01*
X-106333Y12633D02*
X-106181Y12785D01*
X33900Y-84500D02*
X37200D01*
X40600Y-87900D01*
X-17000Y-19000D02*
X-12400Y-23600D01*
Y-32600D02*
Y-23600D01*
Y-32600D02*
X-8600Y-36400D01*
X500Y-93087D02*
X5300Y-88287D01*
X500Y-99600D02*
Y-93087D01*
Y-99600D02*
X2081Y-101181D01*
X18004D01*
X-5000Y-50949D02*
Y-31000D01*
Y-50949D02*
X-3500Y-52449D01*
X2500D01*
X4551Y-54500D01*
Y-63249D02*
Y-54500D01*
X3800Y-64000D02*
X4551Y-63249D01*
X18004Y-106181D02*
X33294D01*
X-45100Y-35800D02*
Y-21600D01*
X-54400Y-45100D02*
X-45100Y-35800D01*
X-54400Y-56271D02*
Y-45100D01*
Y-56271D02*
X-40800Y-69871D01*
X-41500Y-59000D02*
X-19200D01*
X-16400Y-61800D01*
X-14881Y-91181D02*
X-12000Y-88300D01*
X-19004Y-91181D02*
X-14881D01*
X6381Y-111181D02*
X18004D01*
X-1500Y-103300D02*
X6381Y-111181D01*
X-1500Y-103300D02*
Y-91300D01*
X1700Y-88100D01*
Y-83200D01*
X3600Y-81300D01*
X18004Y95000D02*
X26300D01*
X28897Y66080D02*
X31200D01*
X48862Y76658D02*
X50974Y74547D01*
X5000Y31000D02*
X9200D01*
Y27649D02*
Y31000D01*
Y27649D02*
X12449Y24400D01*
X19000D01*
X67000Y67500D02*
Y93741D01*
X64932Y95809D02*
X67000Y93741D01*
X-17000Y19000D02*
X-13500D01*
X-12400Y20100D01*
Y31500D01*
X-17600Y36700D02*
X-12400Y31500D01*
X-41171Y36700D02*
X-17600D01*
X-42600Y38129D02*
X-41171Y36700D01*
X-42600Y38129D02*
Y46500D01*
X-41200Y67851D02*
Y75500D01*
X-43200Y77500D02*
X-41200Y75500D01*
X-44671Y77500D02*
X-43200D01*
X-70400Y-89400D02*
Y-72400D01*
X-67500Y-69500D01*
X-60800D01*
X-59201Y41480D02*
X-46740D01*
X-44720Y43500D01*
Y54592D01*
X-64000Y92200D02*
Y98300D01*
X74700Y-79600D02*
Y-56100D01*
Y-79600D02*
X76300Y-81200D01*
X83200D01*
X106181Y28281D02*
X106200Y28300D01*
X106181Y18504D02*
Y28281D01*
X96181Y18504D02*
Y27650D01*
X94256Y29575D02*
X96181Y27650D01*
X88875Y29575D02*
X94256D01*
X29400Y-400D02*
X75942D01*
X29400Y-9000D02*
Y-400D01*
Y-9000D02*
X35949Y-15549D01*
Y-33551D02*
Y-15549D01*
Y-33551D02*
X37999Y-35601D01*
Y-42500D02*
Y-35601D01*
X-105500Y-74600D02*
Y-39100D01*
Y-74600D02*
X-100418Y-79681D01*
X-53000Y27000D02*
X-50500Y29500D01*
X-53000Y13329D02*
Y27000D01*
X-55300Y11029D02*
X-53000Y13329D01*
X-55300Y2200D02*
Y11029D01*
X-57500Y0D02*
X-55300Y2200D01*
X-64600Y0D02*
X-57500D01*
X-66100Y-1500D02*
X-64600Y0D01*
X-66100Y-6700D02*
Y-1500D01*
X-69500Y-10100D02*
X-66100Y-6700D01*
X-71700Y-10100D02*
X-69500D01*
X-77200Y-15600D02*
X-71700Y-10100D01*
X-80300Y-45900D02*
Y-43600D01*
X-82800Y-48400D02*
X-80300Y-45900D01*
X-26000Y-113500D02*
X-23319Y-116181D01*
X-19004D01*
X-86500Y-43548D02*
X-83390Y-40437D01*
X-75891D01*
X-62300Y-54029D01*
Y-58800D02*
Y-54029D01*
X-65375Y-72600D02*
X-63825D01*
Y-77075D02*
X-56581Y-84319D01*
X-55999D01*
X-22000Y-54100D02*
Y-6000D01*
X-54249Y-91000D02*
X-43600D01*
X-57100Y-88149D02*
X-54249Y-91000D01*
X-59213Y-88149D02*
X-57100D01*
X-96100Y-72021D02*
X-93990D01*
X-24100Y66129D02*
X-21500Y63529D01*
X-15029D01*
X-9551Y58051D01*
Y23051D02*
Y58051D01*
Y23051D02*
X-5000Y18500D01*
X60600Y68200D02*
Y86053D01*
X58504Y88149D02*
X60600Y86053D01*
X18004Y100000D02*
X31100D01*
X-131181Y-18504D02*
Y-7013D01*
X-141181Y2987D02*
X-131181Y-7013D01*
X-141181Y2987D02*
Y18504D01*
X-131181Y-24119D02*
Y-18504D01*
Y-24119D02*
X-117150Y-38150D01*
Y-84082D02*
Y-38150D01*
Y-84082D02*
X-110060Y-91172D01*
X108800Y-107000D02*
Y-98400D01*
X117200Y-90000D01*
Y-83900D01*
X102627Y-105550D02*
X104500D01*
X106500Y-103550D01*
Y-94392D01*
X111092Y-89800D01*
Y-70887D01*
X112470Y-68501D01*
X141181Y-18504D02*
Y-12100D01*
X131181Y-2100D02*
X141181Y-12100D01*
X131181Y18504D02*
Y28300D01*
X7181Y-136181D02*
X18004D01*
X-64500Y-121400D02*
X-49972D01*
X-72998Y-112902D02*
X-64500Y-121400D01*
X-76385Y-112902D02*
X-72998D01*
X-78496Y-111130D02*
X-76385Y-112902D01*
X13500Y-153500D02*
X21600Y-145400D01*
X5000Y-153500D02*
X13500D01*
X4500Y-154000D02*
X5000Y-153500D01*
X-12900Y-154000D02*
X4500D01*
X-14100Y-152800D02*
X-12900Y-154000D01*
X-19150Y-152800D02*
X-14100D01*
X-46897Y-125053D02*
X-19150Y-152800D01*
X-46897Y-125053D02*
Y-119500D01*
X-50346Y-116052D02*
X-46897Y-119500D01*
X-66531Y-116052D02*
X-50346D01*
X-75283Y-107300D02*
X-66531Y-116052D01*
X-44800Y-136100D02*
X-32800Y-148100D01*
X-60571Y-136100D02*
X-44800D01*
X-81710Y-114960D02*
X-60571Y-136100D01*
X-102090Y-114960D02*
X-81710D01*
X-121500Y-95550D02*
X-102090Y-114960D01*
X-121500Y-95550D02*
Y-66000D01*
X-99700Y-89800D02*
X-99688Y-89788D01*
Y-85824D01*
X-19004Y135000D02*
X-14400D01*
X-9900Y139500D01*
Y151500D01*
X-7600Y153800D01*
X14100D01*
X21800Y146100D01*
X48100D01*
X53300Y140900D01*
X64300D01*
X88300Y116900D01*
Y113500D02*
Y116900D01*
X100800Y83512D02*
X102924D01*
X99000Y94400D02*
X100800Y92600D01*
X-19004Y-141181D02*
X-500D01*
X79900Y114960D02*
X81002D01*
X-19004Y85000D02*
X-18000D01*
X-20500Y140000D02*
X-19819Y140681D01*
X-46357Y-72828D02*
X-46000Y-72500D01*
X-19500Y135000D02*
X-19004D01*
X-16248Y140000D02*
X-15567Y140681D01*
X-19004Y140000D02*
X-16248D01*
X46000Y-66500D02*
X65121Y-47379D01*
X42500Y-66500D02*
X46000D01*
X38000Y-71000D02*
X42500Y-66500D01*
X35941Y-71000D02*
X38000D01*
X18004Y-86181D02*
X20760D01*
X7067Y-78000D02*
X15067Y-86000D01*
X18000D01*
X-81500Y-32000D02*
X-43914Y-69586D01*
X-46000Y-72500D02*
X-43914Y-70414D01*
Y-69586D01*
X-82500Y-19000D02*
X-81500Y-18000D01*
Y36991D01*
X-73499Y44992D01*
X-15748Y84500D02*
X-11248Y80000D01*
X-18000Y84500D02*
X-15748D01*
X26500Y80000D02*
X31901Y74599D01*
X-11248Y80000D02*
X26500D01*
X43877Y74599D02*
X45649Y72828D01*
X31901Y74599D02*
X43877D01*
X-44500Y86000D02*
X-44000Y85500D01*
X-45500Y87000D02*
X-44500Y86000D01*
X-56000Y63000D02*
X-52500Y66500D01*
Y72500D01*
X-44000Y85500D02*
X-20500D01*
X-20000Y85000D01*
X-45500Y87000D02*
Y137000D01*
X-66500Y132000D02*
Y139500D01*
Y132000D02*
X-64000Y129500D01*
X-59000Y111586D02*
X-58414Y111000D01*
X-59000Y111586D02*
Y115000D01*
X-60500Y116500D02*
X-59000Y115000D01*
X-50500Y120000D02*
X-50000Y120500D01*
X-57773Y138745D02*
X-57245D01*
X-55599Y137099D02*
X-55071D01*
X-53085Y137557D02*
X-52557D01*
X-57884Y138719D02*
X-57000Y140000D01*
X-57884Y138719D02*
X-57773Y138745D01*
X-57245D02*
X-55599Y137099D01*
X-55071D02*
X-53085Y137557D01*
X-52557D02*
X-50000Y135000D01*
Y129500D02*
Y135000D01*
X-74000Y121137D02*
X-71000Y118137D01*
X-74000Y121137D02*
Y133500D01*
X-71000Y117500D02*
Y118137D01*
X-25000Y135000D02*
X-19500D01*
X-32000Y136500D02*
X-26500D01*
X-25000Y135000D01*
X-26500Y140586D02*
X-25914Y140000D01*
X-26500Y140586D02*
Y142000D01*
X-30500Y146000D02*
X-26500Y142000D01*
D50*
X-89207Y-64068D02*
D03*
X84707Y60237D02*
D03*
X90207Y64068D02*
D03*
X-64657Y39640D02*
D03*
X153207Y11207D02*
D03*
D51*
X-28897Y66080D02*
D03*
X-46500Y-16500D02*
D03*
X139920Y-46603D02*
D03*
X17000Y-29000D02*
D03*
X76500Y-123000D02*
D03*
X48340Y-139000D02*
D03*
X22000Y-6000D02*
D03*
X34000Y5000D02*
D03*
X28000Y-28500D02*
D03*
X46500Y-16500D02*
D03*
X50500Y-29000D02*
D03*
X37999Y-42500D02*
D03*
X14500Y-53000D02*
D03*
X71500Y-5500D02*
D03*
X69500Y-16500D02*
D03*
X64299Y-33520D02*
D03*
X49271Y-52707D02*
D03*
X28897Y-66080D02*
D03*
X-34000Y-5000D02*
D03*
X5000Y-18500D02*
D03*
X-22000Y-6000D02*
D03*
X5000Y-31000D02*
D03*
X-17000Y-29000D02*
D03*
X-28000Y-28500D02*
D03*
X0Y-57000D02*
D03*
X-14500Y-53500D02*
D03*
X-38000Y-42500D02*
D03*
X-50500Y-29000D02*
D03*
X-5000Y-72000D02*
D03*
X-28897Y-66080D02*
D03*
X-49271Y-52707D02*
D03*
X-64299Y-33520D02*
D03*
X-69500Y-16500D02*
D03*
X-71500Y-5500D02*
D03*
X-139897Y54420D02*
D03*
X-143000Y42000D02*
D03*
X38000Y43000D02*
D03*
X64500Y33000D02*
D03*
X49271Y52352D02*
D03*
X28897Y66080D02*
D03*
X71500Y5500D02*
D03*
X69500Y16500D02*
D03*
X46500D02*
D03*
X50500Y29500D02*
D03*
X28000Y28500D02*
D03*
X14500Y53500D02*
D03*
X17000Y29000D02*
D03*
X22000Y6000D02*
D03*
X-1000Y57000D02*
D03*
X5000Y31000D02*
D03*
Y18500D02*
D03*
X0Y5000D02*
D03*
X-22000Y6000D02*
D03*
X-28000Y28500D02*
D03*
X5000Y72000D02*
D03*
X-17000Y29000D02*
D03*
X-46500Y17000D02*
D03*
X-50500Y29500D02*
D03*
X-37999Y43000D02*
D03*
X-14500Y53500D02*
D03*
X-71500Y5500D02*
D03*
X-69500Y16500D02*
D03*
X-64500Y33000D02*
D03*
X-49271Y52707D02*
D03*
D52*
X-19500Y69500D02*
D03*
X19500Y-69500D02*
D03*
D53*
X149500Y6500D02*
D03*
Y-6000D02*
D03*
X-10500Y-149500D02*
D03*
X9000Y-149000D02*
D03*
X-150000Y6000D02*
D03*
X-32000Y136500D02*
D03*
X-30500Y146000D02*
D03*
X32000Y139500D02*
D03*
X30000Y130000D02*
D03*
X-152000Y-3500D02*
D03*
X4500Y149000D02*
D03*
X-4000D02*
D03*
X-74000Y133500D02*
D03*
X-57000Y140000D02*
D03*
D54*
X-46500Y-6500D02*
D03*
X17000Y-19000D02*
D03*
X34000Y-5000D02*
D03*
X28000Y-18500D02*
D03*
X46500Y-6500D02*
D03*
X14500Y-43000D02*
D03*
X-34000Y5000D02*
D03*
X-17000Y-19000D02*
D03*
X-28000Y-18500D02*
D03*
X0Y-47000D02*
D03*
X-14500Y-43500D02*
D03*
X-17000Y19000D02*
D03*
X46500Y6500D02*
D03*
X28000Y18500D02*
D03*
X14500Y43500D02*
D03*
X17000Y19000D02*
D03*
X-1000Y47000D02*
D03*
X0Y-5000D02*
D03*
X-28000Y18500D02*
D03*
X-46500Y7000D02*
D03*
X-14500Y43500D02*
D03*
D55*
X136500Y-56000D02*
D03*
D56*
X85160Y-118000D02*
D03*
X57000Y-134000D02*
D03*
X29339Y-47500D02*
D03*
X-29339Y48000D02*
D03*
D57*
X12000Y-6000D02*
D03*
X40500Y-29000D02*
D03*
X61500Y-5500D02*
D03*
X59500Y-16500D02*
D03*
X-5000Y-18500D02*
D03*
X-12000Y-6000D02*
D03*
X-5000Y-31000D02*
D03*
X-40500Y-29000D02*
D03*
X5000Y-72000D02*
D03*
X-59500Y-16500D02*
D03*
X-61500Y-5500D02*
D03*
X61500Y5500D02*
D03*
X59500Y16500D02*
D03*
X40500Y29500D02*
D03*
X12000Y6000D02*
D03*
X-5000Y31000D02*
D03*
Y18500D02*
D03*
X-12000Y6000D02*
D03*
X-5000Y72000D02*
D03*
X-40500Y29500D02*
D03*
X-61500Y5500D02*
D03*
X-59500Y16500D02*
D03*
D58*
X59000Y-42000D02*
D03*
X-59201Y41480D02*
D03*
D59*
X41500Y-59000D02*
D03*
X-41500Y59000D02*
D03*
D60*
X-29340Y-47500D02*
D03*
X29340Y48000D02*
D03*
D61*
X-19500Y-69500D02*
D03*
X-130500Y51000D02*
D03*
X-133603Y38580D02*
D03*
X19500Y69500D02*
D03*
D62*
X-41500Y-59000D02*
D03*
X41500Y58646D02*
D03*
D63*
X-59000Y-42000D02*
D03*
X59201Y41480D02*
D03*
D64*
X26500Y39000D02*
D03*
X32000Y-99000D02*
D03*
X37086Y-102611D02*
D03*
X-121000Y29000D02*
D03*
X-92000Y37000D02*
D03*
X-84575Y7000D02*
D03*
X-8000Y-135000D02*
D03*
X-74848Y55152D02*
D03*
X-70500Y59500D02*
D03*
X-74500Y64000D02*
D03*
X-101000Y114000D02*
D03*
X26000Y-130000D02*
D03*
X-90000Y-10500D02*
D03*
X-99000Y-9000D02*
D03*
X-96000Y11575D02*
D03*
X-106500Y2500D02*
D03*
X-74826Y-34326D02*
D03*
X-78425Y-30726D02*
D03*
X-88000Y-31500D02*
D03*
X-77200Y-24350D02*
D03*
X-119500Y-2500D02*
D03*
X-128000Y10500D02*
D03*
X-89000D02*
D03*
X-84575Y35868D02*
D03*
X-91000Y27500D02*
D03*
X-96000Y32500D02*
D03*
X-103000Y29500D02*
D03*
X-107000Y33000D02*
D03*
X117500Y-26500D02*
D03*
X124000Y-27000D02*
D03*
X132000Y-26500D02*
D03*
X129000Y-10500D02*
D03*
X124000Y-7425D02*
D03*
X104300Y5500D02*
D03*
X116000Y26500D02*
D03*
X79502Y-21489D02*
D03*
X-120500Y82500D02*
D03*
X25500Y-141000D02*
D03*
X84500Y-43500D02*
D03*
X91000Y-41250D02*
D03*
X96787Y-43971D02*
D03*
X-65000Y62000D02*
D03*
X-56111Y54979D02*
D03*
X-61893Y52248D02*
D03*
X55826Y-52326D02*
D03*
X77000Y-10000D02*
D03*
X53000Y-8500D02*
D03*
X49500Y37000D02*
D03*
X32500Y37500D02*
D03*
X-38000Y-16500D02*
D03*
X26000Y107000D02*
D03*
X26500Y115000D02*
D03*
X26000Y123500D02*
D03*
Y137000D02*
D03*
X-94075Y90200D02*
D03*
X67522Y-41021D02*
D03*
X78500Y-61000D02*
D03*
X113500Y-58000D02*
D03*
X33500Y-59500D02*
D03*
X-5000Y-62500D02*
D03*
X-2000Y-86500D02*
D03*
X-4000Y-81075D02*
D03*
X26000Y-99000D02*
D03*
X27000Y-119500D02*
D03*
X30500Y-124500D02*
D03*
X-27000Y-135500D02*
D03*
X-11500Y-129500D02*
D03*
X-11000Y-119000D02*
D03*
X-11500Y-101000D02*
D03*
X-26500Y-99500D02*
D03*
X-28075Y-73500D02*
D03*
X-70500Y-38500D02*
D03*
X-112000Y-35500D02*
D03*
X89500Y-11000D02*
D03*
X119000Y11500D02*
D03*
X76000Y22500D02*
D03*
X68674Y24326D02*
D03*
X39675Y71512D02*
D03*
Y78100D02*
D03*
X27200Y74600D02*
D03*
X107500Y76000D02*
D03*
X-56500Y123000D02*
D03*
X-23000Y154000D02*
D03*
X-12000Y115000D02*
D03*
X-26500Y120500D02*
D03*
X-27000Y111000D02*
D03*
X-12000Y95500D02*
D03*
X-26000Y90000D02*
D03*
X-69100Y94575D02*
D03*
X-68075Y72500D02*
D03*
X-58425Y69575D02*
D03*
X-37999Y69417D02*
D03*
X-69000Y41925D02*
D03*
X-104075Y53600D02*
D03*
X140500Y7500D02*
D03*
X-141693Y-6965D02*
D03*
X-132693Y-75D02*
D03*
X-125472Y-1200D02*
D03*
X-118193Y10535D02*
D03*
X-120800Y34000D02*
D03*
X-133000Y25500D02*
D03*
X-121200Y96400D02*
D03*
X-23500Y149000D02*
D03*
X-8835Y130000D02*
D03*
X-300Y95500D02*
D03*
X101300Y30300D02*
D03*
X51000Y120000D02*
D03*
X81600Y69800D02*
D03*
X70500Y64000D02*
D03*
X-28300Y80300D02*
D03*
X-26200Y100000D02*
D03*
X-20800Y79600D02*
D03*
X-7700Y85000D02*
D03*
X36600Y84300D02*
D03*
X83500D02*
D03*
X85300Y39400D02*
D03*
X42500Y94600D02*
D03*
X-90900Y43200D02*
D03*
X-73300Y35300D02*
D03*
X-131299Y66675D02*
D03*
X-86600Y-84400D02*
D03*
X5500Y130000D02*
D03*
X-88800Y126800D02*
D03*
X-97136Y-97052D02*
D03*
X-136181Y10500D02*
D03*
X-42100Y108400D02*
D03*
X58623Y137000D02*
D03*
X-142256Y34700D02*
D03*
X-115600Y86100D02*
D03*
X-101400Y-42100D02*
D03*
X-106100Y-33400D02*
D03*
X-108181Y45100D02*
D03*
X-107181Y38000D02*
D03*
X-89636Y63000D02*
D03*
X-48900Y-101600D02*
D03*
X-26000Y-126700D02*
D03*
X-39600Y-50700D02*
D03*
X9900Y-116181D02*
D03*
X-52100Y-67400D02*
D03*
X-97600Y-37175D02*
D03*
X4050Y-97650D02*
D03*
X-75800Y-75700D02*
D03*
X-93700Y-56900D02*
D03*
Y-27500D02*
D03*
X-97900Y-103000D02*
D03*
X16500Y-79800D02*
D03*
X111181Y-27019D02*
D03*
X59300Y-65900D02*
D03*
X91181Y26500D02*
D03*
X33900Y-90300D02*
D03*
X24300Y-77900D02*
D03*
X126181Y4700D02*
D03*
X100100Y-25800D02*
D03*
X106249Y-37567D02*
D03*
X81300Y-77400D02*
D03*
X51600Y-74000D02*
D03*
X-5000Y105000D02*
D03*
X116300Y-33575D02*
D03*
X-71800Y30200D02*
D03*
X-106333Y12633D02*
D03*
X-85300Y74700D02*
D03*
X-102317Y92200D02*
D03*
X33900Y-84500D02*
D03*
X5300Y-88287D02*
D03*
X3800Y-64000D02*
D03*
X-40800Y-69871D02*
D03*
X-16400Y-61800D02*
D03*
X-12000Y-88300D02*
D03*
X3600Y-81300D02*
D03*
X26300Y95000D02*
D03*
X-60800Y-69500D02*
D03*
X-50000Y124300D02*
D03*
X1165Y140000D02*
D03*
X70400Y-53300D02*
D03*
X-44700Y72575D02*
D03*
X-59300Y89000D02*
D03*
X-64000Y98300D02*
D03*
X74700Y-56100D02*
D03*
X106200Y28300D02*
D03*
X-80300Y-43600D02*
D03*
X-26000Y-113500D02*
D03*
X-62300Y-58800D02*
D03*
X-65375Y-72600D02*
D03*
X-22000Y-54100D02*
D03*
X-43600Y-91000D02*
D03*
X-30900Y-79600D02*
D03*
X-126193Y26035D02*
D03*
X-96100Y-62800D02*
D03*
X-36100Y81500D02*
D03*
X60600Y68200D02*
D03*
X31100Y100000D02*
D03*
X7181Y-136181D02*
D03*
X-49972Y-121400D02*
D03*
X-32800Y-148100D02*
D03*
X-99700Y-89800D02*
D03*
X99000Y94400D02*
D03*
X-500Y-141181D02*
D03*
M02*
