G04*
G04 #@! TF.GenerationSoftware,Altium Limited,Altium Designer,23.1.1 (15)*
G04*
G04 Layer_Color=16711935*
%FSLAX25Y25*%
%MOIN*%
G70*
G04*
G04 #@! TF.SameCoordinates,E577C847-9A66-4E46-B091-F4B90C46239D*
G04*
G04*
G04 #@! TF.FilePolarity,Negative*
G04*
G01*
G75*
%ADD35C,0.06902*%
%ADD36P,0.09761X4X245.0*%
%ADD37C,0.06800*%
%ADD38R,0.06902X0.06902*%
%ADD39P,0.09761X4X115.0*%
%ADD40P,0.09761X4X255.0*%
%ADD41R,0.06902X0.06902*%
%ADD42P,0.09761X4X103.0*%
%ADD43P,0.09761X4X84.0*%
%ADD44P,0.09761X4X195.0*%
%ADD45P,0.09761X4X205.0*%
%ADD46P,0.09761X4X186.0*%
%ADD47P,0.09761X4X167.0*%
%ADD48C,0.03950*%
D35*
X-28897Y66080D02*
D03*
X-46500Y-16500D02*
D03*
X139920Y-46603D02*
D03*
X17000Y-29000D02*
D03*
X76500Y-123000D02*
D03*
X48340Y-139000D02*
D03*
X22000Y-6000D02*
D03*
X34000Y5000D02*
D03*
X28000Y-28500D02*
D03*
X46500Y-16500D02*
D03*
X50500Y-29000D02*
D03*
X37999Y-42500D02*
D03*
X14500Y-53000D02*
D03*
X71500Y-5500D02*
D03*
X69500Y-16500D02*
D03*
X64299Y-33520D02*
D03*
X49271Y-52707D02*
D03*
X28897Y-66080D02*
D03*
X-34000Y-5000D02*
D03*
X5000Y-18500D02*
D03*
X-22000Y-6000D02*
D03*
X5000Y-31000D02*
D03*
X-17000Y-29000D02*
D03*
X-28000Y-28500D02*
D03*
X0Y-57000D02*
D03*
X-14500Y-53500D02*
D03*
X-38000Y-42500D02*
D03*
X-50500Y-29000D02*
D03*
X-5000Y-72000D02*
D03*
X-28897Y-66080D02*
D03*
X-49271Y-52707D02*
D03*
X-64299Y-33520D02*
D03*
X-69500Y-16500D02*
D03*
X-71500Y-5500D02*
D03*
X-139897Y54420D02*
D03*
X-143000Y42000D02*
D03*
X38000Y43000D02*
D03*
X64500Y33000D02*
D03*
X49271Y52352D02*
D03*
X28897Y66080D02*
D03*
X71500Y5500D02*
D03*
X69500Y16500D02*
D03*
X46500D02*
D03*
X50500Y29500D02*
D03*
X28000Y28500D02*
D03*
X14500Y53500D02*
D03*
X17000Y29000D02*
D03*
X22000Y6000D02*
D03*
X-1000Y57000D02*
D03*
X5000Y31000D02*
D03*
Y18500D02*
D03*
X0Y5000D02*
D03*
X-22000Y6000D02*
D03*
X-28000Y28500D02*
D03*
X5000Y72000D02*
D03*
X-17000Y29000D02*
D03*
X-46500Y17000D02*
D03*
X-50500Y29500D02*
D03*
X-37999Y43000D02*
D03*
X-14500Y53500D02*
D03*
X-71500Y5500D02*
D03*
X-69500Y16500D02*
D03*
X-64500Y33000D02*
D03*
X-49271Y52707D02*
D03*
D36*
X-19500Y69500D02*
D03*
X19500Y-69500D02*
D03*
D37*
X149500Y6500D02*
D03*
Y-6000D02*
D03*
X-10500Y-149500D02*
D03*
X9000Y-149000D02*
D03*
X-150000Y6000D02*
D03*
X-32000Y136500D02*
D03*
X-30500Y146000D02*
D03*
X32000Y139500D02*
D03*
X30000Y130000D02*
D03*
X-152000Y-3500D02*
D03*
X4500Y149000D02*
D03*
X-4000D02*
D03*
X-74000Y133500D02*
D03*
X-57000Y140000D02*
D03*
D38*
X-46500Y-6500D02*
D03*
X17000Y-19000D02*
D03*
X34000Y-5000D02*
D03*
X28000Y-18500D02*
D03*
X46500Y-6500D02*
D03*
X14500Y-43000D02*
D03*
X-34000Y5000D02*
D03*
X-17000Y-19000D02*
D03*
X-28000Y-18500D02*
D03*
X0Y-47000D02*
D03*
X-14500Y-43500D02*
D03*
X-17000Y19000D02*
D03*
X46500Y6500D02*
D03*
X28000Y18500D02*
D03*
X14500Y43500D02*
D03*
X17000Y19000D02*
D03*
X-1000Y47000D02*
D03*
X0Y-5000D02*
D03*
X-28000Y18500D02*
D03*
X-46500Y7000D02*
D03*
X-14500Y43500D02*
D03*
D39*
X136500Y-56000D02*
D03*
D40*
X85160Y-118000D02*
D03*
X57000Y-134000D02*
D03*
X29339Y-47500D02*
D03*
X-29339Y48000D02*
D03*
D41*
X12000Y-6000D02*
D03*
X40500Y-29000D02*
D03*
X61500Y-5500D02*
D03*
X59500Y-16500D02*
D03*
X-5000Y-18500D02*
D03*
X-12000Y-6000D02*
D03*
X-5000Y-31000D02*
D03*
X-40500Y-29000D02*
D03*
X5000Y-72000D02*
D03*
X-59500Y-16500D02*
D03*
X-61500Y-5500D02*
D03*
X61500Y5500D02*
D03*
X59500Y16500D02*
D03*
X40500Y29500D02*
D03*
X12000Y6000D02*
D03*
X-5000Y31000D02*
D03*
Y18500D02*
D03*
X-12000Y6000D02*
D03*
X-5000Y72000D02*
D03*
X-40500Y29500D02*
D03*
X-61500Y5500D02*
D03*
X-59500Y16500D02*
D03*
D42*
X59000Y-42000D02*
D03*
X-59201Y41480D02*
D03*
D43*
X41500Y-59000D02*
D03*
X-41500Y59000D02*
D03*
D44*
X-29340Y-47500D02*
D03*
X29340Y48000D02*
D03*
D45*
X-19500Y-69500D02*
D03*
X-130500Y51000D02*
D03*
X-133603Y38580D02*
D03*
X19500Y69500D02*
D03*
D46*
X-41500Y-59000D02*
D03*
X41500Y58646D02*
D03*
D47*
X-59000Y-42000D02*
D03*
X59201Y41480D02*
D03*
D48*
X26500Y39000D02*
D03*
X32000Y-99000D02*
D03*
X37086Y-102611D02*
D03*
X-121000Y29000D02*
D03*
X-92000Y37000D02*
D03*
X-84575Y7000D02*
D03*
X-8000Y-135000D02*
D03*
X-74848Y55152D02*
D03*
X-70500Y59500D02*
D03*
X-74500Y64000D02*
D03*
X-101000Y114000D02*
D03*
X26000Y-130000D02*
D03*
X-90000Y-10500D02*
D03*
X-99000Y-9000D02*
D03*
X-96000Y11575D02*
D03*
X-106500Y2500D02*
D03*
X-74826Y-34326D02*
D03*
X-78425Y-30726D02*
D03*
X-88000Y-31500D02*
D03*
X-77200Y-24350D02*
D03*
X-119500Y-2500D02*
D03*
X-128000Y10500D02*
D03*
X-89000D02*
D03*
X-84575Y35868D02*
D03*
X-91000Y27500D02*
D03*
X-96000Y32500D02*
D03*
X-103000Y29500D02*
D03*
X-107000Y33000D02*
D03*
X117500Y-26500D02*
D03*
X124000Y-27000D02*
D03*
X132000Y-26500D02*
D03*
X129000Y-10500D02*
D03*
X124000Y-7425D02*
D03*
X104300Y5500D02*
D03*
X116000Y26500D02*
D03*
X79502Y-21489D02*
D03*
X-120500Y82500D02*
D03*
X25500Y-141000D02*
D03*
X84500Y-43500D02*
D03*
X91000Y-41250D02*
D03*
X96787Y-43971D02*
D03*
X-65000Y62000D02*
D03*
X-56111Y54979D02*
D03*
X-61893Y52248D02*
D03*
X55826Y-52326D02*
D03*
X77000Y-10000D02*
D03*
X53000Y-8500D02*
D03*
X49500Y37000D02*
D03*
X32500Y37500D02*
D03*
X-38000Y-16500D02*
D03*
X26000Y107000D02*
D03*
X26500Y115000D02*
D03*
X26000Y123500D02*
D03*
Y137000D02*
D03*
X-94075Y90200D02*
D03*
X67521Y-41021D02*
D03*
X78500Y-61000D02*
D03*
X113500Y-58000D02*
D03*
X33500Y-59500D02*
D03*
X-5000Y-62500D02*
D03*
X-2000Y-86500D02*
D03*
X-4000Y-81075D02*
D03*
X26000Y-99000D02*
D03*
X27000Y-119500D02*
D03*
X30500Y-124500D02*
D03*
X-27000Y-135500D02*
D03*
X-11500Y-129500D02*
D03*
X-11000Y-119000D02*
D03*
X-11500Y-101000D02*
D03*
X-26500Y-99500D02*
D03*
X-28075Y-73500D02*
D03*
X-70500Y-38500D02*
D03*
X-112000Y-35500D02*
D03*
X89500Y-11000D02*
D03*
X119000Y11500D02*
D03*
X76000Y22500D02*
D03*
X68674Y24326D02*
D03*
X39675Y71512D02*
D03*
Y78100D02*
D03*
X27200Y74600D02*
D03*
X107500Y76000D02*
D03*
X-56500Y123000D02*
D03*
X-23000Y154000D02*
D03*
X-12000Y115000D02*
D03*
X-26500Y120500D02*
D03*
X-27000Y111000D02*
D03*
X-12000Y95500D02*
D03*
X-26000Y90000D02*
D03*
X-69100Y94575D02*
D03*
X-68075Y72500D02*
D03*
X-58425Y69575D02*
D03*
X-37999Y69417D02*
D03*
X-69000Y41925D02*
D03*
X-104075Y53600D02*
D03*
X140500Y7500D02*
D03*
X-141693Y-6965D02*
D03*
X-132693Y-75D02*
D03*
X-125472Y-1200D02*
D03*
X-118193Y10535D02*
D03*
X-120800Y34000D02*
D03*
X-133000Y25500D02*
D03*
X-121200Y96400D02*
D03*
X-23500Y149000D02*
D03*
X-8835Y130000D02*
D03*
X-300Y95500D02*
D03*
X101300Y30300D02*
D03*
X51000Y120000D02*
D03*
X81600Y69800D02*
D03*
X70500Y64000D02*
D03*
X-28300Y80300D02*
D03*
X-26200Y100000D02*
D03*
X-20800Y79600D02*
D03*
X-7700Y85000D02*
D03*
X36600Y84300D02*
D03*
X83500D02*
D03*
X85300Y39400D02*
D03*
X42500Y94600D02*
D03*
X-90900Y43200D02*
D03*
X-73300Y35300D02*
D03*
X-131299Y66675D02*
D03*
X-86600Y-84400D02*
D03*
X5500Y130000D02*
D03*
X-88800Y126800D02*
D03*
X-97136Y-97052D02*
D03*
X-136181Y10500D02*
D03*
X-42100Y108400D02*
D03*
X58623Y137000D02*
D03*
X-142256Y34700D02*
D03*
X-115600Y86100D02*
D03*
X-101400Y-42100D02*
D03*
X-106100Y-33400D02*
D03*
X-108181Y45100D02*
D03*
X-107181Y38000D02*
D03*
X-89636Y63000D02*
D03*
X-48900Y-101600D02*
D03*
X-26000Y-126700D02*
D03*
X-39600Y-50700D02*
D03*
X9900Y-116181D02*
D03*
X-52100Y-67400D02*
D03*
X-97600Y-37175D02*
D03*
X4050Y-97650D02*
D03*
X-75800Y-75700D02*
D03*
X-93700Y-56900D02*
D03*
Y-27500D02*
D03*
X-97900Y-103000D02*
D03*
X16500Y-79800D02*
D03*
X111181Y-27019D02*
D03*
X59300Y-65900D02*
D03*
X91181Y26500D02*
D03*
X33900Y-90300D02*
D03*
X24300Y-77900D02*
D03*
X126181Y4700D02*
D03*
X100100Y-25800D02*
D03*
X106249Y-37567D02*
D03*
X81300Y-77400D02*
D03*
X51600Y-74000D02*
D03*
X-5000Y105000D02*
D03*
X116300Y-33575D02*
D03*
X-71800Y30200D02*
D03*
X-106333Y12633D02*
D03*
X-85300Y74700D02*
D03*
X-102317Y92200D02*
D03*
X33900Y-84500D02*
D03*
X5300Y-88287D02*
D03*
X3800Y-64000D02*
D03*
X-40800Y-69871D02*
D03*
X-16400Y-61800D02*
D03*
X-12000Y-88300D02*
D03*
X3600Y-81300D02*
D03*
X26300Y95000D02*
D03*
X-60800Y-69500D02*
D03*
X-50000Y124300D02*
D03*
X1165Y140000D02*
D03*
X70400Y-53300D02*
D03*
X-44700Y72575D02*
D03*
X-59300Y89000D02*
D03*
X-64000Y98300D02*
D03*
X74700Y-56100D02*
D03*
X106200Y28300D02*
D03*
X-80300Y-43600D02*
D03*
X-26000Y-113500D02*
D03*
X-62300Y-58800D02*
D03*
X-65375Y-72600D02*
D03*
X-22000Y-54100D02*
D03*
X-43600Y-91000D02*
D03*
X-30900Y-79600D02*
D03*
X-126193Y26035D02*
D03*
X-96100Y-62800D02*
D03*
X-36100Y81500D02*
D03*
X60600Y68200D02*
D03*
X31100Y100000D02*
D03*
X7181Y-136181D02*
D03*
X-49972Y-121400D02*
D03*
X-32800Y-148100D02*
D03*
X-99700Y-89800D02*
D03*
X99000Y94400D02*
D03*
X-500Y-141181D02*
D03*
M02*
