G04*
G04 #@! TF.GenerationSoftware,Altium Limited,Altium Designer,23.1.1 (15)*
G04*
G04 Layer_Color=65535*
%FSLAX44Y44*%
%MOMM*%
G71*
G04*
G04 #@! TF.SameCoordinates,EA72E859-7E5F-47E5-BE6D-6BCC4CF4D1DD*
G04*
G04*
G04 #@! TF.FilePolarity,Positive*
G04*
G01*
G75*
%ADD10C,0.2500*%
%ADD11C,0.2000*%
%ADD12C,0.1000*%
D10*
X-217650Y65750D02*
G03*
X-217650Y65750I-1250J0D01*
G01*
X131563Y-214486D02*
G03*
X131563Y-214486I-1250J0D01*
G01*
X220150Y-65750D02*
G03*
X220150Y-65750I-1250J0D01*
G01*
X-65770Y-218900D02*
G03*
X-65770Y-218900I-1250J0D01*
G01*
X-202869Y-112508D02*
G03*
X-202869Y-112508I-1250J0D01*
G01*
X203569Y112508D02*
G03*
X203569Y112508I-1250J0D01*
G01*
X65730Y215900D02*
G03*
X65730Y215900I-1250J0D01*
G01*
X-127270Y273150D02*
G03*
X-127270Y273150I-1250J0D01*
G01*
X-129063Y214486D02*
G03*
X-129063Y214486I-1250J0D01*
G01*
D11*
X-210750Y-38000D02*
Y38000D01*
X-366750Y-38000D02*
X-365350D01*
X-212150D02*
X-210750D01*
X-366750D02*
Y38000D01*
X-365350D01*
X-212150D02*
X-210750D01*
X-91850Y173950D02*
X-83607Y151304D01*
X-91850Y173950D02*
X-39321Y193069D01*
X-31078Y170422D01*
X-83607Y151304D02*
X-31078Y170422D01*
X-106060Y-57160D02*
Y-1260D01*
X-130160D02*
X-106060D01*
X-130160Y-57160D02*
Y-1260D01*
Y-57160D02*
X-106060D01*
X330171Y-152449D02*
X349290Y-99920D01*
X330171Y-152449D02*
X352818Y-160692D01*
X371936Y-108163D01*
X349290Y-99920D02*
X371936Y-108163D01*
X55230Y-88910D02*
Y-33010D01*
X31130D02*
X55230D01*
X31130Y-88910D02*
Y-33010D01*
Y-88910D02*
X55230D01*
X187128Y-330480D02*
X235539Y-302531D01*
X223489Y-281660D02*
X235539Y-302531D01*
X175078Y-309609D02*
X223489Y-281660D01*
X175078Y-309609D02*
X187128Y-330480D01*
X115601Y-371120D02*
X164012Y-343171D01*
X151962Y-322300D02*
X164012Y-343171D01*
X103551Y-350249D02*
X151962Y-322300D01*
X103551Y-350249D02*
X115601Y-371120D01*
X59070Y-87640D02*
X83170D01*
X59070D02*
Y-31740D01*
X83170D01*
Y-87640D02*
Y-31740D01*
X137130Y-186379D02*
X175130Y-120561D01*
X309018Y-197861D02*
X310230Y-198561D01*
X175130Y-120561D02*
X176343Y-121261D01*
X272230Y-264379D02*
X310230Y-198561D01*
X271017Y-263679D02*
X272230Y-264379D01*
X137130Y-186379D02*
X138342Y-187079D01*
X210750Y-38000D02*
Y38000D01*
X365350D02*
X366750D01*
X210750D02*
X212150D01*
X366750Y-38000D02*
Y38000D01*
X365350Y-38000D02*
X366750D01*
X210750D02*
X212150D01*
X27950Y-59040D02*
Y-34940D01*
X-27950Y-59040D02*
X27950D01*
X-27950D02*
Y-34940D01*
X27950D01*
X-71130Y-27290D02*
Y-3190D01*
X-15230D01*
Y-27290D02*
Y-3190D01*
X-71130Y-27290D02*
X-15230D01*
X-98410Y-27950D02*
X-74310D01*
X-98410D02*
Y27950D01*
X-74310D01*
Y-27950D02*
Y27950D01*
X27950Y-90790D02*
Y-66690D01*
X-27950Y-90790D02*
X27950D01*
X-27950D02*
Y-66690D01*
X27950D01*
X-55230Y-88910D02*
X-31130D01*
X-55230D02*
Y-33010D01*
X-31130D01*
Y-88910D02*
Y-33010D01*
X-83170Y-87640D02*
X-59070D01*
X-83170D02*
Y-31740D01*
X-59070D01*
Y-87640D02*
Y-31740D01*
X-12050Y-160030D02*
X12050D01*
X-12050D02*
Y-104130D01*
X12050D01*
Y-160030D02*
Y-104130D01*
X-48880Y-151140D02*
X-24780D01*
X-48880D02*
Y-95240D01*
X-24780D01*
Y-151140D02*
Y-95240D01*
X-115752Y-110761D02*
X-103702Y-89890D01*
X-55291Y-117839D01*
X-67341Y-138710D02*
X-55291Y-117839D01*
X-115752Y-110761D02*
X-67341Y-138710D01*
X-143520Y-85710D02*
Y-61610D01*
X-87620D01*
Y-85710D02*
Y-61610D01*
X-143520Y-85710D02*
X-87620D01*
X-27950Y-194930D02*
Y-170830D01*
X27950D01*
Y-194930D02*
Y-170830D01*
X-27950Y-194930D02*
X27950D01*
X-91850Y-173950D02*
X-83607Y-151304D01*
X-31078Y-170422D01*
X-39321Y-193069D02*
X-31078Y-170422D01*
X-91850Y-173950D02*
X-39321Y-193069D01*
X-144584Y-133643D02*
X-129418Y-114914D01*
X-85975Y-150093D01*
X-101142Y-168822D02*
X-85975Y-150093D01*
X-144584Y-133643D02*
X-101142Y-168822D01*
X-181620Y-78592D02*
X-161182Y-65821D01*
X-131560Y-113227D01*
X-151998Y-125998D02*
X-131560Y-113227D01*
X-181620Y-78592D02*
X-151998Y-125998D01*
X-191780Y-53960D02*
Y-29860D01*
X-135880D01*
Y-53960D02*
Y-29860D01*
X-191780Y-53960D02*
X-135880D01*
X-196860Y-26020D02*
Y-1920D01*
X-140960D01*
Y-26020D02*
Y-1920D01*
X-196860Y-26020D02*
X-140960D01*
X-39270Y-210750D02*
X36730D01*
Y-366750D02*
Y-365350D01*
Y-212150D02*
Y-210750D01*
X-39270Y-366750D02*
X36730D01*
X-39270D02*
Y-365350D01*
Y-212150D02*
Y-210750D01*
X-177622Y-124103D02*
X-119403Y-172954D01*
X-219678Y-292457D02*
X-218778Y-291385D01*
X-120302Y-174027D02*
X-119403Y-172954D01*
X-277897Y-243606D02*
X-219678Y-292457D01*
X-277897Y-243606D02*
X-276997Y-242533D01*
X-178522Y-125175D02*
X-177622Y-124103D01*
X-373790Y132120D02*
X-321261Y113001D01*
X-313018Y135648D01*
X-365547Y154766D02*
X-313018Y135648D01*
X-373790Y132120D02*
X-365547Y154766D01*
X-381672Y100572D02*
X-329143Y81454D01*
X-320900Y104100D01*
X-373429Y123219D02*
X-320900Y104100D01*
X-381672Y100572D02*
X-373429Y123219D01*
X175822Y124102D02*
X176722Y125175D01*
X275197Y242533D02*
X276097Y243605D01*
X217878Y292458D02*
X276097Y243605D01*
X117603Y172955D02*
X118503Y174027D01*
X216978Y291385D02*
X217878Y292458D01*
X117603Y172955D02*
X175822Y124102D01*
X103702Y91160D02*
X115752Y112031D01*
X55291Y119109D02*
X103702Y91160D01*
X55291Y119109D02*
X67341Y139980D01*
X115752Y112031D01*
X152508Y124678D02*
X182130Y77272D01*
X132070Y111907D02*
X152508Y124678D01*
X132070Y111907D02*
X161692Y64502D01*
X182130Y77272D01*
X129418Y114014D02*
X144584Y132742D01*
X85975Y149192D02*
X129418Y114014D01*
X85975Y149192D02*
X101142Y167921D01*
X144584Y132742D01*
X83607Y151304D02*
X91850Y173950D01*
X31078Y170422D02*
X83607Y151304D01*
X31078Y170422D02*
X39321Y193069D01*
X91850Y173950D01*
X-39270Y207750D02*
X36730D01*
X-39270Y362350D02*
Y363750D01*
Y207750D02*
Y209150D01*
Y363750D02*
X36730D01*
Y362350D02*
Y363750D01*
Y207750D02*
Y209150D01*
X-170916Y304660D02*
X-161949D01*
X-170916Y287160D02*
X-161949D01*
X-121520Y289400D02*
Y297900D01*
X-135020Y289400D02*
Y297900D01*
X-144246Y320180D02*
X-135279D01*
X-144246Y337680D02*
X-135279D01*
X140960Y26020D02*
X196860D01*
X140960Y1920D02*
Y26020D01*
Y1920D02*
X196860D01*
Y26020D01*
X135880Y53960D02*
X191780D01*
X135880Y29860D02*
Y53960D01*
Y29860D02*
X191780D01*
Y53960D01*
X106060Y1260D02*
Y57160D01*
Y1260D02*
X130160D01*
Y57160D01*
X106060D02*
X130160D01*
X87620Y86980D02*
X143520D01*
X87620Y62880D02*
Y86980D01*
Y62880D02*
X143520D01*
Y86980D01*
X59070Y31740D02*
Y87640D01*
Y31740D02*
X83170D01*
Y87640D01*
X59070D02*
X83170D01*
X24780Y95240D02*
Y151140D01*
Y95240D02*
X48880D01*
Y151140D01*
X24780D02*
X48880D01*
X31130Y33010D02*
Y88910D01*
Y33010D02*
X55230D01*
Y88910D01*
X31130D02*
X55230D01*
X15230Y27290D02*
X71130D01*
X15230Y3190D02*
Y27290D01*
Y3190D02*
X71130D01*
Y27290D01*
X-14590Y104130D02*
Y160030D01*
Y104130D02*
X9510D01*
Y160030D01*
X-14590D02*
X9510D01*
X-27950Y90790D02*
X27950D01*
X-27950Y66690D02*
Y90790D01*
Y66690D02*
X27950D01*
Y90790D01*
X-27950Y59040D02*
X27950D01*
X-27950Y34940D02*
Y59040D01*
Y34940D02*
X27950D01*
Y59040D01*
X-12050Y-27950D02*
Y27950D01*
Y-27950D02*
X12050D01*
Y27950D01*
X-12050D02*
X12050D01*
X-71130Y3190D02*
Y27290D01*
X-15230D01*
Y3190D02*
Y27290D01*
X-71130Y3190D02*
X-15230D01*
X-83170Y87640D02*
X-59070D01*
Y31740D02*
Y87640D01*
X-83170Y31740D02*
X-59070D01*
X-83170D02*
Y87640D01*
X27950Y170830D02*
Y194930D01*
X-27950Y170830D02*
X27950D01*
X-27950D02*
Y194930D01*
X27950D01*
X-175130Y120561D02*
X-137130Y186379D01*
X-310230Y198561D02*
X-309018Y197861D01*
X-176343Y121261D02*
X-175130Y120561D01*
X-310230Y198561D02*
X-272230Y264379D01*
X-271017Y263679D01*
X-138342Y187079D02*
X-137130Y186379D01*
X15230Y-3190D02*
X71130D01*
X15230Y-27290D02*
Y-3190D01*
Y-27290D02*
X71130D01*
Y-3190D01*
X74310Y-27950D02*
Y27950D01*
Y-27950D02*
X98410D01*
Y27950D01*
X74310D02*
X98410D01*
X-55230Y33010D02*
Y88910D01*
Y33010D02*
X-31130D01*
Y88910D01*
X-55230D02*
X-31130D01*
X130160Y-57160D02*
Y-1260D01*
X106060D02*
X130160D01*
X106060Y-57160D02*
Y-1260D01*
Y-57160D02*
X130160D01*
X87620Y-61610D02*
X143520D01*
X87620Y-85710D02*
Y-61610D01*
Y-85710D02*
X143520D01*
Y-61610D01*
X55288Y-117839D02*
X103699Y-89890D01*
X55288Y-117839D02*
X67338Y-138710D01*
X115749Y-110761D01*
X103699Y-89890D02*
X115749Y-110761D01*
X48880Y-149870D02*
Y-93970D01*
X24780D02*
X48880D01*
X24780Y-149870D02*
Y-93970D01*
Y-149870D02*
X48880D01*
X-130160Y2530D02*
Y58430D01*
Y2530D02*
X-106060D01*
Y58430D01*
X-130160D02*
X-106060D01*
X-143520Y62880D02*
X-87620D01*
Y86980D01*
X-143520D02*
X-87620D01*
X-143520Y62880D02*
Y86980D01*
X-103699Y91160D02*
X-55288Y119109D01*
X-67338Y139980D02*
X-55288Y119109D01*
X-115749Y112031D02*
X-67338Y139980D01*
X-115749Y112031D02*
X-103699Y91160D01*
X-48880Y95240D02*
Y151140D01*
Y95240D02*
X-24780D01*
Y151140D01*
X-48880D02*
X-24780D01*
X140960Y-1920D02*
X196860D01*
X140960Y-26020D02*
Y-1920D01*
Y-26020D02*
X196860D01*
Y-1920D01*
X135880Y-29860D02*
X191780D01*
X135880Y-53960D02*
Y-29860D01*
Y-53960D02*
X191780D01*
Y-29860D01*
X131560Y-113227D02*
X161182Y-65821D01*
X131560Y-113227D02*
X151998Y-125998D01*
X181620Y-78592D01*
X161182Y-65821D02*
X181620Y-78592D01*
X85975Y-150093D02*
X129418Y-114914D01*
X85975Y-150093D02*
X101142Y-168822D01*
X144584Y-133643D01*
X129418Y-114914D02*
X144584Y-133643D01*
X31078Y-170422D02*
X83607Y-151304D01*
X31078Y-170422D02*
X39321Y-193069D01*
X91850Y-173950D01*
X83607Y-151304D02*
X91850Y-173950D01*
X-196860Y1920D02*
X-140960D01*
Y26020D01*
X-196860D02*
X-140960D01*
X-196860Y1920D02*
Y26020D01*
X-191780Y29860D02*
X-135880D01*
Y53960D01*
X-191780D02*
X-135880D01*
X-191780Y29860D02*
Y53960D01*
X-161692Y64502D02*
X-132070Y111907D01*
X-152508Y124678D02*
X-132070Y111907D01*
X-182130Y77272D02*
X-152508Y124678D01*
X-182130Y77272D02*
X-161692Y64502D01*
X-129418Y114914D02*
X-85975Y150093D01*
X-101142Y168822D02*
X-85975Y150093D01*
X-144584Y133643D02*
X-101142Y168822D01*
X-144584Y133643D02*
X-129418Y114914D01*
D12*
X204460Y-332664D02*
X203018Y-333497D01*
X201880Y-333192D01*
X201046Y-331750D01*
X201351Y-330612D01*
X202794Y-329779D01*
X203932Y-330084D01*
X204349Y-330805D01*
X201463Y-332471D01*
X204959Y-328529D02*
X209510Y-329749D01*
X207235Y-329139D01*
X207844Y-326863D01*
X206625Y-331415D01*
X209592Y-324892D02*
X210009Y-325613D01*
X209287Y-326030D01*
X210730Y-325197D01*
X210009Y-325613D01*
X211258Y-327778D01*
X212396Y-328083D01*
X212895Y-323947D02*
X214561Y-326833D01*
X213728Y-325390D01*
X214033Y-324252D01*
X214338Y-323114D01*
X215059Y-322697D01*
X217945Y-321031D02*
X219388Y-320198D01*
X220526Y-320503D01*
X221775Y-322668D01*
X219611Y-323917D01*
X218473Y-323612D01*
X218778Y-322474D01*
X220942Y-321225D01*
X229711Y-318086D02*
X227212Y-313757D01*
X226297Y-317171D01*
X229183Y-315505D01*
X113020Y-336474D02*
X111578Y-337307D01*
X110440Y-337002D01*
X109606Y-335560D01*
X109911Y-334422D01*
X111354Y-333589D01*
X112492Y-333894D01*
X112909Y-334615D01*
X110023Y-336281D01*
X113519Y-332339D02*
X118070Y-333559D01*
X115795Y-332949D01*
X116404Y-330673D01*
X115185Y-335225D01*
X118152Y-328702D02*
X118569Y-329423D01*
X117847Y-329840D01*
X119290Y-329007D01*
X118569Y-329423D01*
X119818Y-331588D01*
X120956Y-331893D01*
X121455Y-327757D02*
X123121Y-330643D01*
X122288Y-329200D01*
X122593Y-328062D01*
X122898Y-326924D01*
X123619Y-326507D01*
X126505Y-324841D02*
X127948Y-324008D01*
X129086Y-324313D01*
X130335Y-326478D01*
X128171Y-327727D01*
X127033Y-327422D01*
X127338Y-326284D01*
X129502Y-325035D01*
X136494Y-317150D02*
X133608Y-318817D01*
X134857Y-320981D01*
X135884Y-319426D01*
X136605Y-319010D01*
X137743Y-319315D01*
X138576Y-320758D01*
X138271Y-321896D01*
X136828Y-322729D01*
X135690Y-322424D01*
X327917Y-143690D02*
X327347Y-145255D01*
X326279Y-145753D01*
X324714Y-145183D01*
X324216Y-144116D01*
X324786Y-142550D01*
X325854Y-142052D01*
X326636Y-142337D01*
X325497Y-145468D01*
X325640Y-140202D02*
X329911Y-138210D01*
X327776Y-139206D01*
X326780Y-137070D01*
X328772Y-141341D01*
X326852Y-134437D02*
X327635Y-134722D01*
X327350Y-135505D01*
X327920Y-133939D01*
X327635Y-134722D01*
X329983Y-135577D01*
X331051Y-135079D01*
X328775Y-131591D02*
X331906Y-132730D01*
X330340Y-132160D01*
X329842Y-131093D01*
X329345Y-130025D01*
X329630Y-129242D01*
X330769Y-126111D02*
X331339Y-124545D01*
X332407Y-124047D01*
X334755Y-124902D01*
X333900Y-127250D01*
X332833Y-127748D01*
X332335Y-126681D01*
X333190Y-124332D01*
X333120Y-117215D02*
X332623Y-116147D01*
X333192Y-114581D01*
X334260Y-114084D01*
X335043Y-114368D01*
X335541Y-115436D01*
X335256Y-116219D01*
X335541Y-115436D01*
X336609Y-114938D01*
X337392Y-115223D01*
X337889Y-116291D01*
X337319Y-117857D01*
X336252Y-118355D01*
X-214900Y334928D02*
Y331596D01*
X-213234Y329930D01*
X-211568Y331596D01*
Y334928D01*
X-206569Y334095D02*
X-207402Y334928D01*
X-209069D01*
X-209902Y334095D01*
Y330763D01*
X-209069Y329930D01*
X-207402D01*
X-206569Y330763D01*
X-201571Y334095D02*
X-202404Y334928D01*
X-204070D01*
X-204903Y334095D01*
Y330763D01*
X-204070Y329930D01*
X-202404D01*
X-201571Y330763D01*
X-92188Y365845D02*
X-93021Y366678D01*
X-94687D01*
X-95520Y365845D01*
Y365012D01*
X-94687Y364179D01*
X-93021D01*
X-92188Y363346D01*
Y362513D01*
X-93021Y361680D01*
X-94687D01*
X-95520Y362513D01*
X-90522Y365845D02*
X-89689Y366678D01*
X-88022D01*
X-87189Y365845D01*
Y365012D01*
X-88022Y364179D01*
X-88855D01*
X-88022D01*
X-87189Y363346D01*
Y362513D01*
X-88022Y361680D01*
X-89689D01*
X-90522Y362513D01*
X386350Y36123D02*
Y37789D01*
X385517Y38622D01*
X383851D01*
X383018Y37789D01*
Y36123D01*
X383851Y35290D01*
X385517D01*
X386350Y36123D01*
Y42787D02*
X381352D01*
X383851Y40288D01*
Y43621D01*
Y45287D02*
Y48619D01*
X386350Y-43887D02*
Y-42221D01*
X385517Y-41388D01*
X383851D01*
X383018Y-42221D01*
Y-43887D01*
X383851Y-44720D01*
X385517D01*
X386350Y-43887D01*
Y-37222D02*
X381352D01*
X383851Y-39722D01*
Y-36389D01*
Y-34723D02*
Y-31391D01*
X382185Y-33057D02*
X385517D01*
X-37393Y-383270D02*
X-39059D01*
X-39892Y-384103D01*
Y-385769D01*
X-39059Y-386602D01*
X-37393D01*
X-36560Y-385769D01*
Y-384103D01*
X-37393Y-383270D01*
X-41558Y-387435D02*
X-42391Y-388268D01*
X-44057D01*
X-44891Y-387435D01*
Y-386602D01*
X-44057Y-385769D01*
X-43225D01*
X-44057D01*
X-44891Y-384936D01*
Y-384103D01*
X-44057Y-383270D01*
X-42391D01*
X-41558Y-384103D01*
X-46557Y-385769D02*
X-49889D01*
X41347Y-380730D02*
X39681D01*
X38848Y-381563D01*
Y-383229D01*
X39681Y-384062D01*
X41347D01*
X42180Y-383229D01*
Y-381563D01*
X41347Y-380730D01*
X37182Y-384895D02*
X36349Y-385728D01*
X34683D01*
X33849Y-384895D01*
Y-384062D01*
X34683Y-383229D01*
X35515D01*
X34683D01*
X33849Y-382396D01*
Y-381563D01*
X34683Y-380730D01*
X36349D01*
X37182Y-381563D01*
X32183Y-383229D02*
X28851D01*
X30517Y-384895D02*
Y-381563D01*
X-384540Y-33727D02*
Y-32061D01*
X-385373Y-31228D01*
X-387039D01*
X-387872Y-32061D01*
Y-33727D01*
X-387039Y-34560D01*
X-385373D01*
X-384540Y-33727D01*
Y-26229D02*
Y-29562D01*
X-387872Y-26229D01*
X-388705D01*
X-389538Y-27062D01*
Y-28729D01*
X-388705Y-29562D01*
X-387039Y-24563D02*
Y-21231D01*
X-388705Y-22897D02*
X-385373D01*
X-383270Y31043D02*
Y32709D01*
X-384103Y33542D01*
X-385769D01*
X-386602Y32709D01*
Y31043D01*
X-385769Y30210D01*
X-384103D01*
X-383270Y31043D01*
Y38541D02*
Y35208D01*
X-386602Y38541D01*
X-387435D01*
X-388268Y37708D01*
Y36041D01*
X-387435Y35208D01*
X-385769Y40207D02*
Y43539D01*
X-97268Y348065D02*
X-98101Y348898D01*
X-99767D01*
X-100600Y348065D01*
Y347232D01*
X-99767Y346399D01*
X-98101D01*
X-97268Y345566D01*
Y344733D01*
X-98101Y343900D01*
X-99767D01*
X-100600Y344733D01*
X-92269Y343900D02*
X-95602D01*
X-92269Y347232D01*
Y348065D01*
X-93103Y348898D01*
X-94769D01*
X-95602Y348065D01*
X91962Y331555D02*
X91129Y332388D01*
X89463D01*
X88630Y331555D01*
Y330722D01*
X89463Y329889D01*
X91129D01*
X91962Y329056D01*
Y328223D01*
X91129Y327390D01*
X89463D01*
X88630Y328223D01*
X93628Y331555D02*
X94461Y332388D01*
X96128D01*
X96961Y331555D01*
Y328223D01*
X96128Y327390D01*
X94461D01*
X93628Y328223D01*
Y331555D01*
X89422Y354415D02*
X88589Y355248D01*
X86923D01*
X86090Y354415D01*
Y353582D01*
X86923Y352749D01*
X88589D01*
X89422Y351916D01*
Y351083D01*
X88589Y350250D01*
X86923D01*
X86090Y351083D01*
X91088Y350250D02*
X92754D01*
X91921D01*
Y355248D01*
X91088Y354415D01*
X-145528Y363305D02*
X-146361Y364138D01*
X-148027D01*
X-148860Y363305D01*
Y359973D01*
X-148027Y359140D01*
X-146361D01*
X-145528Y359973D01*
Y361639D01*
X-147194D01*
X-143862Y359140D02*
Y364138D01*
X-140529Y359140D01*
Y364138D01*
X-138863D02*
Y359140D01*
X-136364D01*
X-135531Y359973D01*
Y363305D01*
X-136364Y364138D01*
X-138863D01*
X25963Y388350D02*
X27629D01*
X28462Y389183D01*
Y390849D01*
X27629Y391682D01*
X25963D01*
X25130Y390849D01*
Y389183D01*
X25963Y388350D01*
X30128D02*
X31795D01*
X30961D01*
Y393348D01*
X30128Y392515D01*
X34294Y390849D02*
X37626D01*
X-33727Y388350D02*
X-32061D01*
X-31228Y389183D01*
Y390849D01*
X-32061Y391682D01*
X-33727D01*
X-34560Y390849D01*
Y389183D01*
X-33727Y388350D01*
X-29562D02*
X-27896D01*
X-28729D01*
Y393348D01*
X-29562Y392515D01*
X-25396Y390849D02*
X-22064D01*
X-23730Y392515D02*
Y389183D01*
X-389703Y63699D02*
X-390273Y62133D01*
X-391340Y61635D01*
X-392906Y62205D01*
X-393404Y63273D01*
X-392834Y64838D01*
X-391766Y65336D01*
X-390984Y65051D01*
X-392123Y61920D01*
X-391979Y67187D02*
X-387708Y69178D01*
X-389844Y68183D01*
X-390840Y70318D01*
X-388848Y66047D01*
X-390768Y72951D02*
X-389985Y72667D01*
X-390270Y71884D01*
X-389700Y73449D01*
X-389985Y72667D01*
X-387636Y71812D01*
X-386569Y72310D01*
X-388845Y75798D02*
X-385714Y74658D01*
X-387280Y75228D01*
X-387777Y76296D01*
X-388275Y77364D01*
X-387990Y78146D01*
X-386851Y81278D02*
X-386281Y82843D01*
X-385213Y83341D01*
X-382865Y82486D01*
X-383719Y80138D01*
X-384787Y79640D01*
X-385285Y80708D01*
X-384430Y83056D01*
X-379446Y91880D02*
X-380585Y88749D01*
X-382577Y93020D01*
X-383360Y93305D01*
X-384427Y92807D01*
X-384997Y91241D01*
X-384499Y90174D01*
X-356398Y161001D02*
X-356968Y159436D01*
X-358036Y158938D01*
X-359601Y159508D01*
X-360099Y160576D01*
X-359529Y162141D01*
X-358461Y162639D01*
X-357679Y162354D01*
X-358818Y159223D01*
X-358674Y164490D02*
X-354403Y166481D01*
X-356539Y165485D01*
X-357535Y167621D01*
X-355543Y163350D01*
X-357463Y170254D02*
X-356680Y169969D01*
X-356965Y169187D01*
X-356395Y170752D01*
X-356680Y169969D01*
X-354332Y169115D01*
X-353264Y169613D01*
X-355540Y173101D02*
X-352409Y171961D01*
X-353975Y172531D01*
X-354473Y173599D01*
X-354970Y174666D01*
X-354686Y175449D01*
X-353546Y178580D02*
X-352976Y180146D01*
X-351908Y180644D01*
X-349560Y179789D01*
X-350415Y177441D01*
X-351482Y176943D01*
X-351980Y178011D01*
X-351125Y180359D01*
X-347280Y186052D02*
X-346711Y187617D01*
X-346995Y186835D01*
X-351692Y188544D01*
X-351194Y187476D01*
M02*
