G04*
G04 #@! TF.GenerationSoftware,Altium Limited,Altium Designer,23.1.1 (15)*
G04*
G04 Layer_Color=8421504*
%FSLAX44Y44*%
%MOMM*%
G71*
G04*
G04 #@! TF.SameCoordinates,EA72E859-7E5F-47E5-BE6D-6BCC4CF4D1DD*
G04*
G04*
G04 #@! TF.FilePolarity,Positive*
G04*
G01*
G75*
%ADD13R,0.5500X1.9500*%
G04:AMPARAMS|DCode=14|XSize=1.95mm|YSize=0.55mm|CornerRadius=0mm|HoleSize=0mm|Usage=FLASHONLY|Rotation=60.000|XOffset=0mm|YOffset=0mm|HoleType=Round|Shape=Rectangle|*
%AMROTATEDRECTD14*
4,1,4,-0.2493,-0.9819,-0.7257,-0.7069,0.2493,0.9819,0.7257,0.7069,-0.2493,-0.9819,0.0*
%
%ADD14ROTATEDRECTD14*%

G04:AMPARAMS|DCode=15|XSize=1.95mm|YSize=0.55mm|CornerRadius=0mm|HoleSize=0mm|Usage=FLASHONLY|Rotation=60.000|XOffset=0mm|YOffset=0mm|HoleType=Round|Shape=Rectangle|*
%AMROTATEDRECTD15*
4,1,4,-0.2493,-0.9819,-0.7257,-0.7069,0.2493,0.9819,0.7257,0.7069,-0.2493,-0.9819,0.0*
%
%ADD15ROTATEDRECTD15*%

G04:AMPARAMS|DCode=16|XSize=1.95mm|YSize=0.55mm|CornerRadius=0mm|HoleSize=0mm|Usage=FLASHONLY|Rotation=60.000|XOffset=0mm|YOffset=0mm|HoleType=Round|Shape=Rectangle|*
%AMROTATEDRECTD16*
4,1,4,-0.2494,-0.9819,-0.7256,-0.7069,0.2494,0.9819,0.7256,0.7069,-0.2494,-0.9819,0.0*
%
%ADD16ROTATEDRECTD16*%

%ADD17R,0.5500X1.9500*%
%ADD18R,0.5500X1.9500*%
%ADD19R,0.5500X1.9500*%
G04:AMPARAMS|DCode=20|XSize=1.95mm|YSize=0.55mm|CornerRadius=0mm|HoleSize=0mm|Usage=FLASHONLY|Rotation=140.000|XOffset=0mm|YOffset=0mm|HoleType=Round|Shape=Rectangle|*
%AMROTATEDRECTD20*
4,1,4,0.9237,-0.4161,0.5701,-0.8374,-0.9237,0.4161,-0.5701,0.8374,0.9237,-0.4161,0.0*
%
%ADD20ROTATEDRECTD20*%

G04:AMPARAMS|DCode=21|XSize=1.95mm|YSize=0.55mm|CornerRadius=0mm|HoleSize=0mm|Usage=FLASHONLY|Rotation=140.000|XOffset=0mm|YOffset=0mm|HoleType=Round|Shape=Rectangle|*
%AMROTATEDRECTD21*
4,1,4,0.9237,-0.4161,0.5701,-0.8374,-0.9237,0.4161,-0.5701,0.8374,0.9237,-0.4161,0.0*
%
%ADD21ROTATEDRECTD21*%

G04:AMPARAMS|DCode=22|XSize=1.95mm|YSize=0.55mm|CornerRadius=0mm|HoleSize=0mm|Usage=FLASHONLY|Rotation=140.000|XOffset=0mm|YOffset=0mm|HoleType=Round|Shape=Rectangle|*
%AMROTATEDRECTD22*
4,1,4,0.9236,-0.4161,0.5701,-0.8374,-0.9236,0.4161,-0.5701,0.8374,0.9236,-0.4161,0.0*
%
%ADD22ROTATEDRECTD22*%

G04:AMPARAMS|DCode=23|XSize=1.95mm|YSize=0.55mm|CornerRadius=0mm|HoleSize=0mm|Usage=FLASHONLY|Rotation=140.000|XOffset=0mm|YOffset=0mm|HoleType=Round|Shape=Rectangle|*
%AMROTATEDRECTD23*
4,1,4,0.9237,-0.4160,0.5701,-0.8374,-0.9237,0.4160,-0.5701,0.8374,0.9237,-0.4160,0.0*
%
%ADD23ROTATEDRECTD23*%

%ADD24R,1.9500X0.5500*%
%ADD25R,1.9500X0.5500*%
%ADD26R,1.9500X0.5500*%
%ADD27R,1.9500X0.5500*%
G04:AMPARAMS|DCode=28|XSize=1.95mm|YSize=0.55mm|CornerRadius=0mm|HoleSize=0mm|Usage=FLASHONLY|Rotation=240.000|XOffset=0mm|YOffset=0mm|HoleType=Round|Shape=Rectangle|*
%AMROTATEDRECTD28*
4,1,4,0.2494,0.9819,0.7256,0.7069,-0.2494,-0.9819,-0.7256,-0.7069,0.2494,0.9819,0.0*
%
%ADD28ROTATEDRECTD28*%

%ADD29R,1.0557X1.6582*%
%ADD30R,0.8300X0.6300*%
D13*
X-358600Y-47000D02*
D03*
X-345900D02*
D03*
X-333200D02*
D03*
X-320500D02*
D03*
X-307800D02*
D03*
X-295100D02*
D03*
X-282400D02*
D03*
X-269700D02*
D03*
X-257000D02*
D03*
X-244300D02*
D03*
X-231600D02*
D03*
X-218900D02*
D03*
Y47000D02*
D03*
X-231600D02*
D03*
X-244300D02*
D03*
X-257000D02*
D03*
X-269700D02*
D03*
X-282400D02*
D03*
X-295100D02*
D03*
X-307800D02*
D03*
X-320500D02*
D03*
X-333200D02*
D03*
X-345900D02*
D03*
X-358600D02*
D03*
X244301Y-47000D02*
D03*
X282404Y-46998D02*
D03*
X295099Y-47000D02*
D03*
X320500Y-47000D02*
D03*
D14*
X307672Y-186691D02*
D03*
X274676Y-167641D02*
D03*
X241681Y-148592D02*
D03*
X172684Y-217298D02*
D03*
X205680Y-236349D02*
D03*
X238675Y-255398D02*
D03*
X-238675Y255398D02*
D03*
X-197687Y123192D02*
D03*
X-139688Y198248D02*
D03*
X-205679Y236348D02*
D03*
X-227676Y249048D02*
D03*
D15*
X296674Y-180342D02*
D03*
X285675Y-173992D02*
D03*
X263678Y-161292D02*
D03*
X252679Y-154942D02*
D03*
X230682Y-142242D02*
D03*
X219684Y-135892D02*
D03*
X208685Y-129541D02*
D03*
X197687Y-123192D02*
D03*
X186688Y-116841D02*
D03*
X150687Y-204598D02*
D03*
X161685Y-210948D02*
D03*
X183682Y-223648D02*
D03*
X194681Y-229998D02*
D03*
X216678Y-242698D02*
D03*
X227677Y-249048D02*
D03*
X249673Y-261748D02*
D03*
X260672Y-268098D02*
D03*
X-296674Y180342D02*
D03*
X-285675Y173992D02*
D03*
X-274676Y167642D02*
D03*
X-186688Y116842D02*
D03*
X-150686Y204598D02*
D03*
X-161685Y210948D02*
D03*
X-172684Y217298D02*
D03*
X-263678Y161292D02*
D03*
X-252678Y154942D02*
D03*
X-241682Y148594D02*
D03*
X-219684Y135892D02*
D03*
X-208685Y129542D02*
D03*
X-183682Y223648D02*
D03*
X-194681Y229998D02*
D03*
X-216678Y242698D02*
D03*
X-249673Y261748D02*
D03*
X-260672Y268098D02*
D03*
D16*
X139688Y-198248D02*
D03*
D17*
X358600Y47000D02*
D03*
X333200D02*
D03*
X320500D02*
D03*
X282400D02*
D03*
X269700D02*
D03*
X244300D02*
D03*
X231600D02*
D03*
X218900Y-47000D02*
D03*
X231600D02*
D03*
X257000D02*
D03*
X269700D02*
D03*
X307800D02*
D03*
X333200D02*
D03*
X345900D02*
D03*
X358600D02*
D03*
D18*
X345900Y47000D02*
D03*
X295097Y46999D02*
D03*
X218901Y47000D02*
D03*
D19*
X307801Y47000D02*
D03*
X257000D02*
D03*
D20*
X205744Y291999D02*
D03*
X181254Y262813D02*
D03*
X148601Y223898D02*
D03*
X132274Y204440D02*
D03*
X196119Y134290D02*
D03*
X220609Y163475D02*
D03*
X228772Y173204D02*
D03*
X261426Y212120D02*
D03*
X-263226Y-212120D02*
D03*
X-207544Y-291999D02*
D03*
X-199381Y-282271D02*
D03*
X-191218Y-272542D02*
D03*
X-174891Y-253084D02*
D03*
X-158564Y-233626D02*
D03*
X-150400Y-223898D02*
D03*
X-125910Y-194711D02*
D03*
X-189755Y-124561D02*
D03*
X-197919Y-134290D02*
D03*
X-214246Y-153747D02*
D03*
X-222409Y-163477D02*
D03*
X-238736Y-182934D02*
D03*
X-246899Y-192662D02*
D03*
X-271389Y-221849D02*
D03*
X269590Y221848D02*
D03*
X245099Y192662D02*
D03*
X236936Y182933D02*
D03*
X212446Y153747D02*
D03*
X204282Y144018D02*
D03*
X115947Y184983D02*
D03*
X124111Y194711D02*
D03*
X140438Y214169D02*
D03*
X189418Y272542D02*
D03*
D21*
X187955Y124561D02*
D03*
X-183054Y-262813D02*
D03*
X-166726Y-243350D02*
D03*
X-134074Y-204440D02*
D03*
X-117747Y-184983D02*
D03*
X156764Y233627D02*
D03*
X164928Y243355D02*
D03*
X197581Y282271D02*
D03*
D22*
X253263Y202391D02*
D03*
X-279553Y-231577D02*
D03*
D23*
X277753Y231577D02*
D03*
X-142237Y-214169D02*
D03*
X-206083Y-144018D02*
D03*
X-230572Y-173204D02*
D03*
X-255063Y-202390D02*
D03*
X173091Y253085D02*
D03*
D24*
X45730Y-358600D02*
D03*
Y-345900D02*
D03*
Y-333200D02*
D03*
Y-320499D02*
D03*
Y-307799D02*
D03*
Y-295100D02*
D03*
Y-282400D02*
D03*
Y-269699D02*
D03*
Y-256999D02*
D03*
Y-244300D02*
D03*
Y-231600D02*
D03*
Y-218899D02*
D03*
X-48270D02*
D03*
Y-231600D02*
D03*
Y-244300D02*
D03*
Y-256999D02*
D03*
Y-269699D02*
D03*
Y-282400D02*
D03*
Y-295100D02*
D03*
Y-307799D02*
D03*
Y-320499D02*
D03*
Y-333200D02*
D03*
Y-345900D02*
D03*
Y-358600D02*
D03*
Y342899D02*
D03*
X-48270Y330200D02*
D03*
Y292100D02*
D03*
Y279400D02*
D03*
Y266700D02*
D03*
X-48270Y254000D02*
D03*
Y215899D02*
D03*
X45730Y241300D02*
D03*
X45729Y266702D02*
D03*
X45730Y279400D02*
D03*
Y304800D02*
D03*
Y317500D02*
D03*
X45731Y330198D02*
D03*
X45730Y342900D02*
D03*
D25*
X-48270Y355600D02*
D03*
Y304800D02*
D03*
X45730Y292099D02*
D03*
D26*
X-48270Y317500D02*
D03*
X45730Y228600D02*
D03*
Y254000D02*
D03*
Y355600D02*
D03*
D27*
X-48270Y241300D02*
D03*
Y228600D02*
D03*
X45730Y215900D02*
D03*
D28*
X-307672Y186692D02*
D03*
X-230682Y142242D02*
D03*
D29*
X-153670Y295910D02*
D03*
X-179195D02*
D03*
X-152525Y328930D02*
D03*
X-127000D02*
D03*
D30*
X-128270Y304800D02*
D03*
Y282500D02*
D03*
M02*
