G04*
G04 #@! TF.GenerationSoftware,Altium Limited,Altium Designer,23.1.1 (15)*
G04*
G04 Layer_Color=16711935*
%FSLAX25Y25*%
%MOIN*%
G70*
G04*
G04 #@! TF.SameCoordinates,7BBB67DB-ABBC-4A8F-A206-69BFBB4F4367*
G04*
G04*
G04 #@! TF.FilePolarity,Negative*
G04*
G01*
G75*
%ADD35C,0.06902*%
%ADD36P,0.09761X4X245.0*%
%ADD37C,0.06800*%
%ADD38R,0.06902X0.06902*%
%ADD39P,0.09761X4X115.0*%
%ADD40P,0.09761X4X255.0*%
%ADD41R,0.06902X0.06902*%
%ADD42P,0.09761X4X103.0*%
%ADD43P,0.09761X4X84.0*%
%ADD44P,0.09761X4X195.0*%
%ADD45P,0.09761X4X205.0*%
%ADD46P,0.09761X4X186.0*%
%ADD47P,0.09761X4X167.0*%
%ADD48C,0.03950*%
%ADD49C,0.05800*%
D35*
X-28897Y66080D02*
D03*
X-46500Y-16500D02*
D03*
X139920Y-46603D02*
D03*
X17000Y-29000D02*
D03*
X76500Y-123000D02*
D03*
X48340Y-139000D02*
D03*
X22000Y-6000D02*
D03*
X34000Y5000D02*
D03*
X28000Y-28500D02*
D03*
X46500Y-16500D02*
D03*
X50500Y-29000D02*
D03*
X37999Y-42500D02*
D03*
X14500Y-53000D02*
D03*
X71500Y-5500D02*
D03*
X69500Y-16500D02*
D03*
X64299Y-33520D02*
D03*
X49271Y-52707D02*
D03*
X28897Y-66080D02*
D03*
X-34000Y-5000D02*
D03*
X5000Y-18500D02*
D03*
X-22000Y-6000D02*
D03*
X5000Y-31000D02*
D03*
X-17000Y-29000D02*
D03*
X-28000Y-28500D02*
D03*
X0Y-57000D02*
D03*
X-14500Y-53500D02*
D03*
X-38000Y-42500D02*
D03*
X-50500Y-29000D02*
D03*
X-5000Y-72000D02*
D03*
X-28897Y-66080D02*
D03*
X-49271Y-52707D02*
D03*
X-64299Y-33520D02*
D03*
X-69500Y-16500D02*
D03*
X-71500Y-5500D02*
D03*
X-139897Y54420D02*
D03*
X-143000Y42000D02*
D03*
X38000Y43000D02*
D03*
X64500Y33000D02*
D03*
X49271Y52352D02*
D03*
X28897Y66080D02*
D03*
X71500Y5500D02*
D03*
X69500Y16500D02*
D03*
X46500D02*
D03*
X50500Y29500D02*
D03*
X28000Y28500D02*
D03*
X14500Y53500D02*
D03*
X17000Y29000D02*
D03*
X22000Y6000D02*
D03*
X-1000Y57000D02*
D03*
X5000Y31000D02*
D03*
Y18500D02*
D03*
X0Y5000D02*
D03*
X-22000Y6000D02*
D03*
X-28000Y28500D02*
D03*
X5000Y72000D02*
D03*
X-17000Y29000D02*
D03*
X-46500Y17000D02*
D03*
X-50500Y29500D02*
D03*
X-37999Y43000D02*
D03*
X-14500Y53500D02*
D03*
X-71500Y5500D02*
D03*
X-69500Y16500D02*
D03*
X-64500Y33000D02*
D03*
X-49271Y52707D02*
D03*
D36*
X-19500Y69500D02*
D03*
X19500Y-69500D02*
D03*
D37*
X151000Y7000D02*
D03*
Y-6000D02*
D03*
X-10500Y-149500D02*
D03*
X9000Y-149000D02*
D03*
X-150000Y6000D02*
D03*
X-32000Y136500D02*
D03*
X-30500Y146000D02*
D03*
X28500Y139500D02*
D03*
X30000Y130000D02*
D03*
X-152000Y-3500D02*
D03*
X4500Y149000D02*
D03*
X-4000D02*
D03*
X-74000Y133500D02*
D03*
X-63500Y139500D02*
D03*
D38*
X-46500Y-6500D02*
D03*
X17000Y-19000D02*
D03*
X34000Y-5000D02*
D03*
X28000Y-18500D02*
D03*
X46500Y-6500D02*
D03*
X14500Y-43000D02*
D03*
X-34000Y5000D02*
D03*
X-17000Y-19000D02*
D03*
X-28000Y-18500D02*
D03*
X0Y-47000D02*
D03*
X-14500Y-43500D02*
D03*
X-17000Y19000D02*
D03*
X46500Y6500D02*
D03*
X28000Y18500D02*
D03*
X14500Y43500D02*
D03*
X17000Y19000D02*
D03*
X-1000Y47000D02*
D03*
X0Y-5000D02*
D03*
X-28000Y18500D02*
D03*
X-46500Y7000D02*
D03*
X-14500Y43500D02*
D03*
D39*
X136500Y-56000D02*
D03*
D40*
X85160Y-118000D02*
D03*
X57000Y-134000D02*
D03*
X29339Y-47500D02*
D03*
X-29339Y48000D02*
D03*
D41*
X12000Y-6000D02*
D03*
X40500Y-29000D02*
D03*
X61500Y-5500D02*
D03*
X59500Y-16500D02*
D03*
X-5000Y-18500D02*
D03*
X-12000Y-6000D02*
D03*
X-5000Y-31000D02*
D03*
X-40500Y-29000D02*
D03*
X5000Y-72000D02*
D03*
X-59500Y-16500D02*
D03*
X-61500Y-5500D02*
D03*
X61500Y5500D02*
D03*
X59500Y16500D02*
D03*
X40500Y29500D02*
D03*
X12000Y6000D02*
D03*
X-5000Y31000D02*
D03*
Y18500D02*
D03*
X-12000Y6000D02*
D03*
X-5000Y72000D02*
D03*
X-40500Y29500D02*
D03*
X-61500Y5500D02*
D03*
X-59500Y16500D02*
D03*
D42*
X59000Y-42000D02*
D03*
X-59201Y41480D02*
D03*
D43*
X41500Y-59000D02*
D03*
X-41500Y59000D02*
D03*
D44*
X-29340Y-47500D02*
D03*
X29340Y48000D02*
D03*
D45*
X-19500Y-69500D02*
D03*
X-130500Y51000D02*
D03*
X-133603Y38580D02*
D03*
X19500Y69500D02*
D03*
D46*
X-41500Y-59000D02*
D03*
X41500Y58646D02*
D03*
D47*
X-59000Y-42000D02*
D03*
X59201Y41480D02*
D03*
D48*
X3189Y136500D02*
D03*
X12000Y140000D02*
D03*
X-7200Y126835D02*
D03*
X-88000Y-25500D02*
D03*
X-70295Y-129195D02*
D03*
X-94600Y-98500D02*
D03*
X-96200Y-114960D02*
D03*
X12000Y-136200D02*
D03*
X-114700Y92000D02*
D03*
X11300Y58200D02*
D03*
X-1200Y90800D02*
D03*
X12100Y125800D02*
D03*
X94000Y44500D02*
D03*
X-42785Y-78400D02*
D03*
X12000Y-88200D02*
D03*
X69800Y-62029D02*
D03*
X-146350Y-17200D02*
D03*
X23900Y87000D02*
D03*
X66500Y50900D02*
D03*
X47200Y104300D02*
D03*
X24600D02*
D03*
X-26900Y41100D02*
D03*
X-18900Y78400D02*
D03*
X20200Y43400D02*
D03*
X48500Y87200D02*
D03*
X-39200Y83200D02*
D03*
X-47300Y106600D02*
D03*
X8200Y101100D02*
D03*
X11000Y117800D02*
D03*
X47900Y119900D02*
D03*
X78400Y92300D02*
D03*
X38151Y110000D02*
D03*
X69000Y80500D02*
D03*
X-108140Y36400D02*
D03*
X-70300Y60400D02*
D03*
X-77400Y61600D02*
D03*
X-40200Y-5700D02*
D03*
X-107000Y57400D02*
D03*
X-84500Y104000D02*
D03*
X-89600Y71500D02*
D03*
X-129181Y25500D02*
D03*
X-25000Y-136181D02*
D03*
X-132700Y-1716D02*
D03*
X-94174Y-27700D02*
D03*
X-138200Y12500D02*
D03*
X-80600Y101700D02*
D03*
X-111026Y99974D02*
D03*
X-118900Y84200D02*
D03*
X-90100Y-2400D02*
D03*
X-121181Y-28900D02*
D03*
X-26100Y1900D02*
D03*
X-88500Y-10700D02*
D03*
X-118200Y12500D02*
D03*
X-102600Y46775D02*
D03*
X-111181Y-10400D02*
D03*
X-96181Y-3281D02*
D03*
X-124300Y12600D02*
D03*
X-129700Y57200D02*
D03*
X-10700Y-16100D02*
D03*
X-66600Y-48100D02*
D03*
X-67600Y-79800D02*
D03*
X-76100Y-86100D02*
D03*
X-102500Y-70100D02*
D03*
X-13000Y-121200D02*
D03*
X-65800Y-41700D02*
D03*
X-72100Y-57100D02*
D03*
X-12500Y-107700D02*
D03*
X-84300Y-42900D02*
D03*
X-85900Y-49600D02*
D03*
X144000Y34900D02*
D03*
X101400Y3500D02*
D03*
X86900Y-6500D02*
D03*
X28000Y-34100D02*
D03*
X122200Y-11500D02*
D03*
X94800Y-26049D02*
D03*
X84400Y-31300D02*
D03*
X74572Y-54728D02*
D03*
X61700Y-92900D02*
D03*
X90900Y-48600D02*
D03*
X121200Y-28500D02*
D03*
X97100Y-11600D02*
D03*
X101181Y-26600D02*
D03*
X-25000Y-116200D02*
D03*
X-75800Y-36000D02*
D03*
X-37700Y-95100D02*
D03*
X-5000Y-99000D02*
D03*
X-59900Y-57100D02*
D03*
X-94300Y90236D02*
D03*
X-97400Y27700D02*
D03*
X-69700Y35700D02*
D03*
X-106181Y-29500D02*
D03*
X24200Y74200D02*
D03*
X53500Y108800D02*
D03*
X36800Y23700D02*
D03*
X54100Y70900D02*
D03*
X59300Y60006D02*
D03*
X26000Y115000D02*
D03*
Y-41200D02*
D03*
X45700Y-83500D02*
D03*
X-59000Y73500D02*
D03*
X43100Y-101900D02*
D03*
X23992Y-91181D02*
D03*
X-28800Y-76300D02*
D03*
X-34600Y-137500D02*
D03*
X134000Y-35200D02*
D03*
X60300Y-88600D02*
D03*
X-9000Y99000D02*
D03*
X33900Y92000D02*
D03*
X51100Y100000D02*
D03*
X-135200Y67900D02*
D03*
X69700Y-43400D02*
D03*
X-25000Y-88200D02*
D03*
X-114328Y25572D02*
D03*
X-10438Y90607D02*
D03*
X78200Y14445D02*
D03*
X94900Y12600D02*
D03*
X80200Y-82800D02*
D03*
X-33000Y-75600D02*
D03*
X-98300Y12500D02*
D03*
X-108900Y-2800D02*
D03*
X-116181Y-5989D02*
D03*
X-84800Y73700D02*
D03*
X-41500Y20000D02*
D03*
X-74100Y20100D02*
D03*
X33500Y78100D02*
D03*
X-41300Y98400D02*
D03*
X-74700Y107600D02*
D03*
X-25000Y90000D02*
D03*
X-20200Y-40500D02*
D03*
X-32700D02*
D03*
X-42400Y87100D02*
D03*
X-83600Y85600D02*
D03*
X85600Y99300D02*
D03*
X-13000Y-103100D02*
D03*
X-25000Y-97500D02*
D03*
X-9000Y-85200D02*
D03*
X6881Y-96181D02*
D03*
X-39700Y-69328D02*
D03*
X-101200Y24500D02*
D03*
X116100Y-85300D02*
D03*
X84317Y-35517D02*
D03*
X45200Y-39800D02*
D03*
X106600Y-57400D02*
D03*
X96600Y3700D02*
D03*
X81900Y5700D02*
D03*
X-92681Y25000D02*
D03*
X-13000Y-131181D02*
D03*
X-84488Y-90085D02*
D03*
X-86800Y46000D02*
D03*
X-96000Y111400D02*
D03*
X82000Y-25100D02*
D03*
X90100D02*
D03*
X114300Y-11900D02*
D03*
X113100Y-89200D02*
D03*
X98700Y45423D02*
D03*
X117300Y85100D02*
D03*
X137200Y-26700D02*
D03*
X1300Y-23200D02*
D03*
X81002Y128698D02*
D03*
X90181Y-10300D02*
D03*
X-138000Y26400D02*
D03*
X-141181Y-10500D02*
D03*
X77829Y-27129D02*
D03*
X123880Y2917D02*
D03*
X121181Y12500D02*
D03*
X118200Y-4500D02*
D03*
X2900Y-36600D02*
D03*
X12000Y130000D02*
D03*
X-25000Y142000D02*
D03*
Y135000D02*
D03*
D49*
X-1000Y-150000D02*
D03*
X33000Y-148000D02*
D03*
M02*
