G04*
G04 #@! TF.GenerationSoftware,Altium Limited,Altium Designer,23.1.1 (15)*
G04*
G04 Layer_Physical_Order=2*
G04 Layer_Color=16711680*
%FSLAX25Y25*%
%MOIN*%
G70*
G04*
G04 #@! TF.SameCoordinates,E577C847-9A66-4E46-B091-F4B90C46239D*
G04*
G04*
G04 #@! TF.FilePolarity,Positive*
G04*
G01*
G75*
%ADD49C,0.01000*%
%ADD50C,0.01000*%
%ADD51C,0.06102*%
%ADD52P,0.08630X4X245.0*%
%ADD53C,0.06000*%
%ADD54R,0.06102X0.06102*%
%ADD55P,0.08630X4X115.0*%
%ADD56P,0.08630X4X255.0*%
%ADD57R,0.06102X0.06102*%
%ADD58P,0.08630X4X103.0*%
%ADD59P,0.08630X4X84.0*%
%ADD60P,0.08630X4X195.0*%
%ADD61P,0.08630X4X205.0*%
%ADD62P,0.08630X4X186.0*%
%ADD63P,0.08630X4X167.0*%
%ADD64C,0.03150*%
G36*
X-11754Y154009D02*
X-15653Y150110D01*
X-20525Y148224D01*
X-20942Y148599D01*
X-20925Y148661D01*
Y149339D01*
X-21101Y149994D01*
X-21440Y150581D01*
X-21919Y151060D01*
X-21973Y151092D01*
X-21991Y151362D01*
X-21930Y151644D01*
X-21419Y151940D01*
X-20940Y152419D01*
X-20631Y152953D01*
X-20403Y152998D01*
X-19907Y153330D01*
X-19866Y153371D01*
X-14600D01*
X-14015Y153487D01*
X-13519Y153819D01*
X-12867Y154471D01*
X-11946D01*
X-11754Y154009D01*
D02*
G37*
G36*
X1352Y151509D02*
X1299Y151456D01*
X773Y150544D01*
X500Y149527D01*
Y148473D01*
X773Y147456D01*
X1299Y146544D01*
X2044Y145799D01*
X2956Y145273D01*
X2971Y145269D01*
Y142508D01*
X2471Y142219D01*
X2158Y142399D01*
X1665Y142532D01*
Y140000D01*
Y137468D01*
X2158Y137601D01*
X2471Y137781D01*
X2971Y137492D01*
Y136400D01*
X3087Y135815D01*
X3419Y135319D01*
X5662Y133075D01*
X5455Y132575D01*
X5161D01*
X4506Y132399D01*
X3919Y132060D01*
X3440Y131581D01*
X3101Y130994D01*
X2925Y130339D01*
Y129661D01*
X2941Y129604D01*
X1767Y128429D01*
X-6269D01*
X-6519Y128862D01*
X-6436Y129006D01*
X-6304Y129500D01*
X-11367D01*
X-11235Y129006D01*
X-11152Y128862D01*
X-11402Y128429D01*
X-28300D01*
X-28885Y128313D01*
X-29381Y127981D01*
X-39233Y118129D01*
X-42754D01*
X-42946Y118591D01*
X-34219Y127319D01*
X-33887Y127815D01*
X-33771Y128400D01*
Y132364D01*
X-33271Y132699D01*
X-32527Y132500D01*
X-31473D01*
X-30456Y132773D01*
X-29544Y133299D01*
X-28799Y134044D01*
X-28273Y134956D01*
X-28000Y135973D01*
Y137027D01*
X-28273Y138044D01*
X-28799Y138956D01*
X-29544Y139701D01*
X-30456Y140227D01*
X-31473Y140500D01*
X-32527D01*
X-33544Y140227D01*
X-34456Y139701D01*
X-35201Y138956D01*
X-35727Y138044D01*
X-35756Y137939D01*
X-35885Y137913D01*
X-36381Y137581D01*
X-36713Y137085D01*
X-36829Y136500D01*
Y129034D01*
X-45333Y120529D01*
X-54652D01*
X-54735Y120657D01*
X-54829Y121029D01*
X-54440Y121419D01*
X-54101Y122006D01*
X-53968Y122500D01*
X-59032D01*
X-58899Y122006D01*
X-58560Y121419D01*
X-58171Y121029D01*
X-58265Y120657D01*
X-58348Y120529D01*
X-71000D01*
X-71585Y120413D01*
X-72081Y120081D01*
X-99309Y92854D01*
X-99867Y93003D01*
X-99918Y93194D01*
X-100257Y93781D01*
X-100736Y94260D01*
X-101323Y94599D01*
X-101978Y94775D01*
X-102656D01*
X-103311Y94599D01*
X-103898Y94260D01*
X-104377Y93781D01*
X-104407Y93729D01*
X-118900D01*
X-119485Y93613D01*
X-119981Y93281D01*
X-132052Y81211D01*
X-132446Y81518D01*
X-131424Y83223D01*
X-127182Y89572D01*
X-123579Y94431D01*
X-122921Y94479D01*
X-122781Y94340D01*
X-122194Y94001D01*
X-121700Y93868D01*
Y96400D01*
X-121200D01*
Y96900D01*
X-118668D01*
X-118801Y97394D01*
X-119140Y97981D01*
X-119619Y98460D01*
X-119796Y98562D01*
X-119885Y99054D01*
X-117790Y101607D01*
X-112663Y107264D01*
X-107264Y112663D01*
X-101607Y117790D01*
X-95705Y122634D01*
X-91644Y125646D01*
X-91016Y125489D01*
X-90860Y125219D01*
X-90381Y124740D01*
X-89794Y124401D01*
X-89139Y124225D01*
X-88461D01*
X-87806Y124401D01*
X-87219Y124740D01*
X-86740Y125219D01*
X-86710Y125271D01*
X-62700D01*
X-62115Y125387D01*
X-61619Y125719D01*
X-37266Y150071D01*
X-32449D01*
X-32315Y149571D01*
X-32956Y149201D01*
X-33701Y148456D01*
X-34227Y147544D01*
X-34500Y146527D01*
Y145473D01*
X-34227Y144456D01*
X-33701Y143544D01*
X-32956Y142799D01*
X-32044Y142273D01*
X-31027Y142000D01*
X-29973D01*
X-28956Y142273D01*
X-28044Y142799D01*
X-27299Y143544D01*
X-26773Y144456D01*
X-26646Y144928D01*
X-26089Y145077D01*
X-25855Y144844D01*
X-25359Y144512D01*
X-24774Y144396D01*
X-22226D01*
X-21951Y144451D01*
X-21674Y144499D01*
X-14248Y147374D01*
X-14232Y147383D01*
X-14215Y147387D01*
X-13981Y147543D01*
X-13744Y147694D01*
X-13734Y147708D01*
X-13719Y147719D01*
X-9466Y151971D01*
X-7339D01*
X-7148Y151509D01*
X-7201Y151456D01*
X-7727Y150544D01*
X-8000Y149527D01*
Y148473D01*
X-7727Y147456D01*
X-7201Y146544D01*
X-6456Y145799D01*
X-5544Y145273D01*
X-4527Y145000D01*
X-3473D01*
X-2456Y145273D01*
X-1544Y145799D01*
X-799Y146544D01*
X-273Y147456D01*
X0Y148473D01*
Y149527D01*
X-273Y150544D01*
X-799Y151456D01*
X-852Y151509D01*
X-660Y151971D01*
X1161D01*
X1352Y151509D01*
D02*
G37*
G36*
X10719Y153419D02*
X11215Y153087D01*
X11800Y152971D01*
X24366D01*
X33610Y143727D01*
X33351Y143279D01*
X32527Y143500D01*
X31473D01*
X30456Y143227D01*
X29544Y142701D01*
X28799Y141956D01*
X28273Y141044D01*
X28000Y140027D01*
Y139348D01*
X27788Y139203D01*
X27500Y139107D01*
X26994Y139399D01*
X26339Y139575D01*
X25661D01*
X25006Y139399D01*
X24419Y139060D01*
X23940Y138581D01*
X23910Y138529D01*
X23133D01*
X17074Y144589D01*
Y144956D01*
X16957Y145541D01*
X16626Y146037D01*
X8654Y154009D01*
X8846Y154471D01*
X9667D01*
X10719Y153419D01*
D02*
G37*
G36*
X-42575Y149087D02*
X-52590Y139073D01*
X-53038Y139332D01*
X-53000Y139473D01*
Y139500D01*
X-56500D01*
Y136000D01*
X-56473D01*
X-56332Y136038D01*
X-56073Y135590D01*
X-63333Y128329D01*
X-86454D01*
X-86676Y128575D01*
X-86605Y129165D01*
X-83223Y131424D01*
X-78390Y134321D01*
X-78265Y134227D01*
X-78000Y133972D01*
Y132973D01*
X-77727Y131956D01*
X-77201Y131044D01*
X-76456Y130299D01*
X-75544Y129773D01*
X-74527Y129500D01*
X-73473D01*
X-72456Y129773D01*
X-71544Y130299D01*
X-70799Y131044D01*
X-70273Y131956D01*
X-70000Y132973D01*
Y134027D01*
X-70273Y135044D01*
X-70799Y135956D01*
X-71544Y136701D01*
X-72285Y137129D01*
X-72323Y137676D01*
X-69941Y138949D01*
X-63039Y142213D01*
X-59816Y143548D01*
X-59532Y143124D01*
X-60201Y142456D01*
X-60727Y141544D01*
X-61000Y140527D01*
Y140500D01*
X-57500D01*
Y144409D01*
X-57518Y144500D01*
X-55985Y145135D01*
X-48796Y147707D01*
X-42832Y149516D01*
X-42575Y149087D01*
D02*
G37*
G36*
X34083Y151779D02*
X41489Y149924D01*
X48796Y147707D01*
X55985Y145135D01*
X63039Y142213D01*
X69941Y138949D01*
X76675Y135350D01*
X83223Y131424D01*
X89572Y127182D01*
X95705Y122634D01*
X101607Y117790D01*
X107264Y112663D01*
X112663Y107264D01*
X117790Y101607D01*
X122634Y95705D01*
X127182Y89572D01*
X131424Y83223D01*
X135350Y76675D01*
X138949Y69941D01*
X142213Y63039D01*
X145135Y55985D01*
X147707Y48796D01*
X149924Y41489D01*
X151779Y34083D01*
X153269Y26595D01*
X154389Y19042D01*
X154549Y17417D01*
X154069Y17190D01*
X140603Y30656D01*
X140106Y30988D01*
X139521Y31104D01*
X114726D01*
X114141Y30988D01*
X113645Y30656D01*
X112818Y29829D01*
X108290D01*
X108260Y29881D01*
X107781Y30360D01*
X107194Y30699D01*
X106539Y30875D01*
X105861D01*
X105206Y30699D01*
X104619Y30360D01*
X104375Y30116D01*
X103875Y30323D01*
Y30639D01*
X103699Y31294D01*
X103360Y31881D01*
X102881Y32360D01*
X102294Y32699D01*
X101639Y32875D01*
X100961D01*
X100306Y32699D01*
X99719Y32360D01*
X99240Y31881D01*
X98901Y31294D01*
X98725Y30639D01*
Y29961D01*
X98741Y29904D01*
X96247Y27410D01*
X95785Y27602D01*
Y81944D01*
X95669Y82529D01*
X95337Y83025D01*
X54854Y123509D01*
X55046Y123971D01*
X57367D01*
X104941Y76397D01*
X104925Y76339D01*
Y75661D01*
X105101Y75006D01*
X105440Y74419D01*
X105919Y73940D01*
X106506Y73601D01*
X107161Y73425D01*
X107839D01*
X108494Y73601D01*
X109081Y73940D01*
X109560Y74419D01*
X109899Y75006D01*
X110075Y75661D01*
Y76339D01*
X109899Y76994D01*
X109560Y77581D01*
X109081Y78060D01*
X108494Y78399D01*
X107839Y78575D01*
X107161D01*
X107104Y78559D01*
X59374Y126289D01*
X59081Y126581D01*
X58585Y126913D01*
X58000Y127029D01*
X33340D01*
X33148Y127491D01*
X33201Y127544D01*
X33727Y128456D01*
X33731Y128471D01*
X62766D01*
X96441Y94797D01*
X96425Y94739D01*
Y94061D01*
X96601Y93406D01*
X96940Y92819D01*
X97419Y92340D01*
X98006Y92001D01*
X98661Y91825D01*
X99339D01*
X99994Y92001D01*
X100581Y92340D01*
X101060Y92819D01*
X101399Y93406D01*
X101575Y94061D01*
Y94739D01*
X101399Y95394D01*
X101060Y95981D01*
X100581Y96460D01*
X99994Y96799D01*
X99339Y96975D01*
X98661D01*
X98603Y96959D01*
X64481Y131081D01*
X63985Y131413D01*
X63400Y131529D01*
X33731D01*
X33727Y131544D01*
X33201Y132456D01*
X32456Y133201D01*
X31544Y133727D01*
X30527Y134000D01*
X29870D01*
X29683Y134272D01*
X29673Y134297D01*
X29657Y134500D01*
X30711Y135704D01*
X31473Y135500D01*
X32527D01*
X33544Y135773D01*
X34456Y136299D01*
X35201Y137044D01*
X35727Y137956D01*
X36000Y138973D01*
Y140027D01*
X35779Y140851D01*
X36227Y141110D01*
X41419Y135919D01*
X41915Y135587D01*
X42500Y135471D01*
X56533D01*
X56562Y135419D01*
X57042Y134940D01*
X57629Y134601D01*
X58284Y134425D01*
X58962D01*
X59616Y134601D01*
X60204Y134940D01*
X60683Y135419D01*
X61022Y136006D01*
X61197Y136661D01*
Y137339D01*
X61022Y137994D01*
X60683Y138581D01*
X60204Y139060D01*
X59616Y139399D01*
X58962Y139575D01*
X58284D01*
X57629Y139399D01*
X57042Y139060D01*
X56562Y138581D01*
X56533Y138529D01*
X43134D01*
X29450Y152213D01*
X29686Y152654D01*
X34083Y151779D01*
D02*
G37*
G36*
X21419Y117319D02*
X21915Y116987D01*
X22500Y116871D01*
X23772D01*
X24051Y116371D01*
X23900Y116118D01*
X23589D01*
X23004Y116002D01*
X22507Y115670D01*
X19819Y112981D01*
X19487Y112485D01*
X19371Y111900D01*
Y105400D01*
X19487Y104815D01*
X19819Y104319D01*
X21419Y102719D01*
X21915Y102387D01*
X22500Y102271D01*
X29022D01*
X29229Y101771D01*
X29040Y101581D01*
X28701Y100994D01*
X28525Y100339D01*
Y99661D01*
X28701Y99006D01*
X29040Y98419D01*
X29519Y97940D01*
X30106Y97601D01*
X30761Y97425D01*
X31439D01*
X32094Y97601D01*
X32681Y97940D01*
X33160Y98419D01*
X33190Y98471D01*
X41267D01*
X42087Y97650D01*
X41920Y97110D01*
X41506Y96999D01*
X40919Y96660D01*
X40440Y96181D01*
X40101Y95594D01*
X39925Y94939D01*
Y94261D01*
X40101Y93606D01*
X40440Y93019D01*
X40919Y92540D01*
X41245Y92351D01*
Y80666D01*
X40812Y80416D01*
X40669Y80499D01*
X40014Y80675D01*
X39336D01*
X38681Y80499D01*
X38562Y80431D01*
X38129Y80681D01*
Y82210D01*
X38181Y82240D01*
X38660Y82719D01*
X38999Y83306D01*
X39175Y83961D01*
Y84639D01*
X38999Y85294D01*
X38660Y85881D01*
X38181Y86360D01*
X37594Y86699D01*
X36939Y86875D01*
X36261D01*
X35606Y86699D01*
X35478Y86625D01*
X34978Y86914D01*
Y87852D01*
X34861Y88437D01*
X34530Y88933D01*
X28859Y94604D01*
X28875Y94661D01*
Y95339D01*
X28699Y95994D01*
X28360Y96581D01*
X27881Y97060D01*
X27294Y97399D01*
X26639Y97575D01*
X25961D01*
X25306Y97399D01*
X24719Y97060D01*
X24240Y96581D01*
X23901Y95994D01*
X23725Y95339D01*
Y94661D01*
X23901Y94006D01*
X24240Y93419D01*
X24719Y92940D01*
X25306Y92601D01*
X25961Y92425D01*
X26639D01*
X26697Y92441D01*
X31919Y87218D01*
Y69520D01*
X31419Y69260D01*
X30784Y69704D01*
X29781Y70069D01*
X28719Y70162D01*
X27668Y69977D01*
X26702Y69526D01*
X26429Y69297D01*
X26005Y69594D01*
X26348Y70536D01*
X26388Y70799D01*
X26440Y71059D01*
Y71620D01*
X26847Y72012D01*
X26927Y72025D01*
X27539D01*
X28194Y72201D01*
X28781Y72540D01*
X29260Y73019D01*
X29599Y73606D01*
X29775Y74261D01*
Y74939D01*
X29599Y75594D01*
X29260Y76181D01*
X28781Y76660D01*
X28729Y76690D01*
Y84500D01*
X28613Y85085D01*
X28281Y85581D01*
X-8719Y122581D01*
X-9215Y122913D01*
X-9800Y123029D01*
X-16500D01*
X-17085Y122913D01*
X-17581Y122581D01*
X-26603Y113559D01*
X-26661Y113575D01*
X-27339D01*
X-27994Y113399D01*
X-28581Y113060D01*
X-29060Y112581D01*
X-29399Y111994D01*
X-29575Y111339D01*
Y110661D01*
X-29399Y110006D01*
X-29060Y109419D01*
X-28581Y108940D01*
X-27994Y108601D01*
X-27339Y108425D01*
X-26661D01*
X-26006Y108601D01*
X-25419Y108940D01*
X-24940Y109419D01*
X-24601Y110006D01*
X-24425Y110661D01*
Y111339D01*
X-24441Y111397D01*
X-15867Y119971D01*
X-15332D01*
X-15250Y119717D01*
X-15249Y119471D01*
X-15681Y119181D01*
X-18081Y116782D01*
X-18413Y116286D01*
X-18529Y115700D01*
Y98634D01*
X-23606Y93557D01*
X-23679D01*
X-24265Y93441D01*
X-24761Y93109D01*
X-25373Y92497D01*
X-25661Y92575D01*
X-26339D01*
X-26994Y92399D01*
X-27112Y92331D01*
X-27545Y92581D01*
Y96492D01*
X-26597Y97441D01*
X-26539Y97425D01*
X-25861D01*
X-25206Y97601D01*
X-24619Y97940D01*
X-24140Y98419D01*
X-23801Y99006D01*
X-23625Y99661D01*
Y100339D01*
X-23801Y100994D01*
X-24140Y101581D01*
X-24619Y102060D01*
X-25206Y102399D01*
X-25861Y102575D01*
X-26539D01*
X-27194Y102399D01*
X-27781Y102060D01*
X-28260Y101581D01*
X-28599Y100994D01*
X-28775Y100339D01*
Y99661D01*
X-28759Y99603D01*
X-30156Y98207D01*
X-30488Y97711D01*
X-30604Y97125D01*
Y81657D01*
X-30575Y81509D01*
X-30699Y81294D01*
X-30875Y80639D01*
Y79961D01*
X-30699Y79306D01*
X-30360Y78719D01*
X-29881Y78240D01*
X-29294Y77901D01*
X-28639Y77725D01*
X-27961D01*
X-27306Y77901D01*
X-26719Y78240D01*
X-26240Y78719D01*
X-25901Y79306D01*
X-25725Y79961D01*
Y80639D01*
X-25901Y81294D01*
X-26240Y81881D01*
X-26719Y82360D01*
X-27306Y82699D01*
X-27545Y82763D01*
Y87419D01*
X-27112Y87669D01*
X-26994Y87601D01*
X-26339Y87425D01*
X-25661D01*
X-25006Y87601D01*
X-24419Y87940D01*
X-23940Y88419D01*
X-23601Y89006D01*
X-23425Y89661D01*
Y90119D01*
X-23046Y90498D01*
X-22972D01*
X-22387Y90615D01*
X-21891Y90946D01*
X-15918Y96919D01*
X-15587Y97415D01*
X-15470Y98000D01*
Y115067D01*
X-15054Y115483D01*
X-14778Y115400D01*
X-14575Y115255D01*
Y114661D01*
X-14399Y114006D01*
X-14060Y113419D01*
X-13581Y112940D01*
X-13529Y112910D01*
Y108767D01*
X-14081Y108215D01*
X-14413Y107719D01*
X-14529Y107133D01*
Y100848D01*
X-14413Y100263D01*
X-14081Y99767D01*
X-12732Y98418D01*
X-12862Y97935D01*
X-12994Y97899D01*
X-13581Y97560D01*
X-14060Y97081D01*
X-14399Y96494D01*
X-14575Y95839D01*
Y95161D01*
X-14399Y94506D01*
X-14060Y93919D01*
X-13581Y93440D01*
X-12994Y93101D01*
X-12339Y92925D01*
X-11661D01*
X-11603Y92941D01*
X-6501Y87838D01*
X-6608Y87609D01*
X-6792Y87423D01*
X-7361Y87575D01*
X-8039D01*
X-8694Y87399D01*
X-9281Y87060D01*
X-9760Y86581D01*
X-9790Y86529D01*
X-15400D01*
X-15985Y86413D01*
X-16481Y86081D01*
X-20403Y82159D01*
X-20461Y82175D01*
X-21139D01*
X-21794Y81999D01*
X-22381Y81660D01*
X-22860Y81181D01*
X-23199Y80594D01*
X-23375Y79939D01*
Y79261D01*
X-23199Y78606D01*
X-22860Y78019D01*
X-22381Y77540D01*
X-21794Y77201D01*
X-21139Y77025D01*
X-20461D01*
X-19806Y77201D01*
X-19219Y77540D01*
X-18740Y78019D01*
X-18401Y78606D01*
X-18225Y79261D01*
Y79939D01*
X-18241Y79997D01*
X-14766Y83471D01*
X-9790D01*
X-9760Y83419D01*
X-9281Y82940D01*
X-8694Y82601D01*
X-8039Y82425D01*
X-7361D01*
X-6706Y82601D01*
X-6119Y82940D01*
X-5640Y83419D01*
X-5301Y84006D01*
X-5211Y84341D01*
X-4653Y84490D01*
X1619Y78219D01*
X2115Y77887D01*
X2700Y77771D01*
X5866D01*
X8130Y75507D01*
X8097Y75340D01*
X7554Y75175D01*
X7487Y75242D01*
X6564Y75775D01*
X5533Y76051D01*
X4467D01*
X3436Y75775D01*
X2513Y75242D01*
X1758Y74488D01*
X1225Y73564D01*
X949Y72533D01*
Y71467D01*
X1225Y70436D01*
X1243Y70406D01*
X-487Y68676D01*
X-949Y68867D01*
Y76051D01*
X-9051D01*
Y70112D01*
X-14634Y64529D01*
X-19850D01*
X-19938Y65029D01*
X-14308Y67079D01*
X-17079Y74692D01*
X-21075Y73238D01*
X-21619Y73781D01*
X-22115Y74113D01*
X-22700Y74229D01*
X-31666D01*
X-35917Y78480D01*
X-35678Y78948D01*
X-35106Y79101D01*
X-34519Y79440D01*
X-34040Y79919D01*
X-33701Y80506D01*
X-33525Y81161D01*
Y81839D01*
X-33701Y82494D01*
X-34040Y83081D01*
X-34519Y83560D01*
X-34571Y83590D01*
Y110266D01*
X-26897Y117941D01*
X-26839Y117925D01*
X-26161D01*
X-25506Y118101D01*
X-24919Y118440D01*
X-24440Y118919D01*
X-24101Y119506D01*
X-23925Y120161D01*
Y120839D01*
X-24101Y121494D01*
X-24440Y122081D01*
X-24919Y122560D01*
X-25506Y122899D01*
X-26161Y123075D01*
X-26839D01*
X-27494Y122899D01*
X-28081Y122560D01*
X-28560Y122081D01*
X-28899Y121494D01*
X-29075Y120839D01*
Y120161D01*
X-29059Y120104D01*
X-37181Y111981D01*
X-37513Y111485D01*
X-37629Y110900D01*
Y83590D01*
X-37681Y83560D01*
X-38160Y83081D01*
X-38499Y82494D01*
X-38652Y81922D01*
X-39120Y81683D01*
X-56819Y99381D01*
X-57315Y99713D01*
X-57900Y99829D01*
X-61910D01*
X-61940Y99881D01*
X-62419Y100360D01*
X-63006Y100699D01*
X-63661Y100875D01*
X-64339D01*
X-64994Y100699D01*
X-65581Y100360D01*
X-66060Y99881D01*
X-66399Y99294D01*
X-66575Y98639D01*
Y97961D01*
X-66399Y97306D01*
X-66060Y96719D01*
X-65581Y96240D01*
X-65563Y96229D01*
X-65697Y95729D01*
X-66794D01*
X-67040Y96156D01*
X-67519Y96635D01*
X-68106Y96974D01*
X-68761Y97150D01*
X-69439D01*
X-70094Y96974D01*
X-70681Y96635D01*
X-71160Y96156D01*
X-71499Y95569D01*
X-71675Y94914D01*
Y94236D01*
X-71499Y93581D01*
X-71160Y92994D01*
X-70681Y92514D01*
X-70094Y92176D01*
X-69439Y92000D01*
X-68761D01*
X-68106Y92176D01*
X-67519Y92514D01*
X-67363Y92671D01*
X-57562D01*
X-37305Y72414D01*
X-37564Y71966D01*
X-37660Y71992D01*
X-38338D01*
X-38993Y71816D01*
X-39580Y71477D01*
X-40059Y70998D01*
X-40163Y70818D01*
X-41620Y70729D01*
X-42225D01*
X-42503Y71229D01*
X-42301Y71581D01*
X-42125Y72236D01*
Y72914D01*
X-42301Y73568D01*
X-42640Y74156D01*
X-43119Y74635D01*
X-43230Y74699D01*
X-43287Y74985D01*
X-43619Y75481D01*
X-56741Y88604D01*
X-56725Y88661D01*
Y89339D01*
X-56901Y89994D01*
X-57240Y90581D01*
X-57719Y91060D01*
X-58306Y91399D01*
X-58961Y91575D01*
X-59639D01*
X-60294Y91399D01*
X-60881Y91060D01*
X-61360Y90581D01*
X-61699Y89994D01*
X-61875Y89339D01*
Y88661D01*
X-61699Y88006D01*
X-61360Y87419D01*
X-60881Y86940D01*
X-60294Y86601D01*
X-59639Y86425D01*
X-58961D01*
X-58903Y86441D01*
X-46689Y74226D01*
X-46760Y74156D01*
X-47099Y73568D01*
X-47275Y72914D01*
Y72236D01*
X-47099Y71581D01*
X-46896Y71229D01*
X-47175Y70729D01*
X-49567D01*
X-52419Y73581D01*
X-52641Y73730D01*
X-52857Y73888D01*
X-52888Y73895D01*
X-52915Y73913D01*
X-53177Y73965D01*
X-53437Y74028D01*
X-57089Y74178D01*
X-57120Y74173D01*
X-57152Y74179D01*
X-59699D01*
X-59713Y74176D01*
X-59726Y74179D01*
X-66006Y74066D01*
X-66014Y74081D01*
X-66494Y74560D01*
X-67081Y74899D01*
X-67736Y75075D01*
X-68414D01*
X-69069Y74899D01*
X-69656Y74560D01*
X-70135Y74081D01*
X-70474Y73494D01*
X-70650Y72839D01*
Y72161D01*
X-70474Y71506D01*
X-70415Y71404D01*
X-70704Y70904D01*
X-128599D01*
X-129184Y70788D01*
X-129681Y70456D01*
X-130903Y69234D01*
X-130960Y69250D01*
X-131638D01*
X-131696Y69234D01*
X-131955Y69682D01*
X-128466Y73171D01*
X-87390D01*
X-87360Y73119D01*
X-86881Y72640D01*
X-86294Y72301D01*
X-85639Y72125D01*
X-84961D01*
X-84306Y72301D01*
X-83719Y72640D01*
X-83240Y73119D01*
X-82901Y73706D01*
X-82725Y74361D01*
Y75039D01*
X-82901Y75694D01*
X-83240Y76281D01*
X-83719Y76760D01*
X-84306Y77099D01*
X-84961Y77275D01*
X-85639D01*
X-86294Y77099D01*
X-86881Y76760D01*
X-87360Y76281D01*
X-87390Y76229D01*
X-129100D01*
X-129685Y76113D01*
X-130181Y75781D01*
X-134383Y71580D01*
X-134845Y71772D01*
Y74093D01*
X-118266Y90671D01*
X-104407D01*
X-104377Y90619D01*
X-103898Y90140D01*
X-103311Y89801D01*
X-103120Y89750D01*
X-102971Y89192D01*
X-104534Y87629D01*
X-113510D01*
X-113540Y87681D01*
X-114019Y88160D01*
X-114606Y88499D01*
X-115261Y88675D01*
X-115939D01*
X-116594Y88499D01*
X-117181Y88160D01*
X-117660Y87681D01*
X-117999Y87094D01*
X-118175Y86439D01*
Y85761D01*
X-117999Y85106D01*
X-117660Y84519D01*
X-117181Y84040D01*
X-116594Y83701D01*
X-115939Y83525D01*
X-115261D01*
X-114606Y83701D01*
X-114019Y84040D01*
X-113540Y84519D01*
X-113510Y84571D01*
X-103900D01*
X-103315Y84687D01*
X-102819Y85019D01*
X-97119Y90718D01*
X-96793Y90593D01*
X-96650Y90480D01*
Y89861D01*
X-96474Y89206D01*
X-96135Y88619D01*
X-95656Y88140D01*
X-95069Y87801D01*
X-94414Y87625D01*
X-93736D01*
X-93081Y87801D01*
X-92494Y88140D01*
X-92014Y88619D01*
X-91676Y89206D01*
X-91500Y89861D01*
Y90504D01*
X-66933Y115071D01*
X-38600D01*
X-38015Y115187D01*
X-37519Y115519D01*
X-27667Y125371D01*
X2400D01*
X2985Y125487D01*
X3481Y125819D01*
X5103Y127441D01*
X5161Y127425D01*
X5839D01*
X6494Y127601D01*
X7081Y127940D01*
X7560Y128419D01*
X7899Y129006D01*
X8075Y129661D01*
Y129955D01*
X8575Y130162D01*
X21419Y117319D01*
D02*
G37*
G36*
X50133Y108805D02*
X49819Y108413D01*
X49233Y108529D01*
X28090D01*
X28060Y108581D01*
X27581Y109060D01*
X26994Y109399D01*
X26339Y109575D01*
X25661D01*
X25006Y109399D01*
X24419Y109060D01*
X23940Y108581D01*
X23601Y107994D01*
X23425Y107339D01*
Y106661D01*
X23598Y106016D01*
X23595Y105996D01*
X23334Y105530D01*
X22970Y105493D01*
X22429Y106034D01*
Y111267D01*
X24222Y113059D01*
X24799D01*
X24919Y112940D01*
X25506Y112601D01*
X26161Y112425D01*
X26839D01*
X27494Y112601D01*
X28081Y112940D01*
X28560Y113419D01*
X28899Y114006D01*
X29075Y114661D01*
Y115339D01*
X28899Y115994D01*
X28682Y116371D01*
X28942Y116871D01*
X42066D01*
X50133Y108805D01*
D02*
G37*
G36*
X2546Y106991D02*
X2354Y106529D01*
X-2910D01*
X-2940Y106581D01*
X-3419Y107060D01*
X-4006Y107399D01*
X-4661Y107575D01*
X-5339D01*
X-5994Y107399D01*
X-6581Y107060D01*
X-6896Y106746D01*
X-7396Y106953D01*
Y116226D01*
X-7285Y116317D01*
X-6923Y116460D01*
X2546Y106991D01*
D02*
G37*
G36*
X-69321Y117009D02*
X-93593Y92737D01*
X-93736Y92775D01*
X-94355D01*
X-94468Y92918D01*
X-94593Y93244D01*
X-70367Y117471D01*
X-69512D01*
X-69321Y117009D01*
D02*
G37*
G36*
X14015Y144322D02*
Y143956D01*
X14131Y143370D01*
X14463Y142874D01*
X21419Y135919D01*
X21915Y135587D01*
X22500Y135471D01*
X23910D01*
X23940Y135419D01*
X24419Y134940D01*
X24832Y134702D01*
X24976Y134139D01*
X24419Y133581D01*
X24087Y133085D01*
X23971Y132500D01*
Y127500D01*
X24087Y126915D01*
X24419Y126419D01*
X24672Y126165D01*
X24607Y125669D01*
X24419Y125560D01*
X23940Y125081D01*
X23601Y124494D01*
X23425Y123839D01*
Y123161D01*
X23601Y122506D01*
X23940Y121919D01*
X24419Y121440D01*
X25006Y121101D01*
X25661Y120925D01*
X26339D01*
X26994Y121101D01*
X27581Y121440D01*
X28060Y121919D01*
X28090Y121971D01*
X48689D01*
X48876Y121471D01*
X48601Y120994D01*
X48425Y120339D01*
Y119661D01*
X48601Y119006D01*
X48940Y118419D01*
X49419Y117940D01*
X50006Y117601D01*
X50661Y117425D01*
X51339D01*
X51397Y117441D01*
X78861Y89976D01*
Y80509D01*
X78361Y80302D01*
X77129Y81533D01*
Y85500D01*
X77013Y86085D01*
X76681Y86581D01*
X43781Y119481D01*
X43285Y119813D01*
X42700Y119929D01*
X23133D01*
X6029Y137033D01*
Y145269D01*
X6044Y145273D01*
X6956Y145799D01*
X7701Y146544D01*
X8227Y147456D01*
X8500Y148473D01*
Y149130D01*
X9000Y149337D01*
X14015Y144322D01*
D02*
G37*
G36*
X71829Y82241D02*
Y78287D01*
X71367Y78096D01*
X44581Y104881D01*
X44448Y104971D01*
X44600Y105471D01*
X48600D01*
X71829Y82241D01*
D02*
G37*
G36*
X-10802Y107000D02*
X-10455Y106846D01*
Y103325D01*
X-10338Y102740D01*
X-10007Y102244D01*
X-8581Y100819D01*
X-8085Y100487D01*
X-7500Y100371D01*
X207D01*
X17971Y82607D01*
Y74804D01*
X17561Y74517D01*
X17079Y74692D01*
X16022Y71789D01*
X15529Y71875D01*
Y81200D01*
X15413Y81785D01*
X15081Y82281D01*
X2259Y95104D01*
X2275Y95161D01*
Y95839D01*
X2099Y96494D01*
X1760Y97081D01*
X1281Y97560D01*
X694Y97899D01*
X39Y98075D01*
X-639D01*
X-1294Y97899D01*
X-1881Y97560D01*
X-2360Y97081D01*
X-2699Y96494D01*
X-2875Y95839D01*
Y95161D01*
X-2699Y94506D01*
X-2360Y93919D01*
X-1881Y93440D01*
X-1294Y93101D01*
X-639Y92925D01*
X39D01*
X97Y92941D01*
X12471Y80567D01*
Y79770D01*
X12009Y79578D01*
X8550Y83037D01*
X8054Y83369D01*
X7468Y83485D01*
X6526D01*
X-11471Y101482D01*
Y106500D01*
X-10955Y107016D01*
X-10802Y107000D01*
D02*
G37*
G36*
X21571Y85138D02*
Y74093D01*
X21071Y73779D01*
X21029Y73799D01*
Y83241D01*
X20913Y83826D01*
X20581Y84322D01*
X1933Y102971D01*
X1934Y103017D01*
X2090Y103471D01*
X3238D01*
X21571Y85138D01*
D02*
G37*
G36*
X8371Y68934D02*
Y48100D01*
X8487Y47515D01*
X8819Y47019D01*
X10449Y45388D01*
Y40429D01*
X2900D01*
X2315Y40313D01*
X1819Y39981D01*
X-3112Y35051D01*
X-9051D01*
Y26949D01*
X-8167D01*
X-7976Y26487D01*
X-10371Y24092D01*
X-10871Y24299D01*
Y35000D01*
X-10987Y35585D01*
X-11319Y36081D01*
X-11419Y36181D01*
X-11915Y36513D01*
X-12500Y36629D01*
X-21400D01*
X-21985Y36513D01*
X-22481Y36181D01*
X-26406Y32257D01*
X-26436Y32275D01*
X-27467Y32551D01*
X-28533D01*
X-29564Y32275D01*
X-30487Y31742D01*
X-30663Y31566D01*
X-31223Y31714D01*
X-31470Y32084D01*
X-34519Y35133D01*
X-35015Y35464D01*
X-35600Y35581D01*
X-42602D01*
X-42793Y36042D01*
X-39593Y39243D01*
X-39562Y39225D01*
X-38532Y38949D01*
X-37465D01*
X-36435Y39225D01*
X-35511Y39758D01*
X-34757Y40512D01*
X-34224Y41436D01*
X-33948Y42467D01*
Y43533D01*
X-34224Y44564D01*
X-34757Y45487D01*
X-35511Y46242D01*
X-36435Y46775D01*
X-37465Y47051D01*
X-38532D01*
X-39562Y46775D01*
X-40486Y46242D01*
X-41241Y45487D01*
X-41774Y44564D01*
X-42050Y43533D01*
Y42467D01*
X-41774Y41436D01*
X-41756Y41405D01*
X-45632Y37529D01*
X-49683D01*
X-49749Y37516D01*
X-50500Y37590D01*
X-51251Y37516D01*
X-51317Y37529D01*
X-56377D01*
X-56619Y37967D01*
X-53618Y42769D01*
X-53972Y42990D01*
X-53834Y43471D01*
X-44753D01*
X-44168Y43587D01*
X-43672Y43919D01*
X-36119Y51471D01*
X-32396D01*
X-32266Y50988D01*
X-34873Y49483D01*
X-30821Y42466D01*
X-23805Y46517D01*
X-26223Y50707D01*
X-25953Y51239D01*
X-25726Y51263D01*
X-21929Y47466D01*
Y40500D01*
X-21813Y39915D01*
X-21481Y39419D01*
X-19881Y37819D01*
X-19385Y37487D01*
X-18800Y37371D01*
X-10200D01*
X-9615Y37487D01*
X-9119Y37819D01*
X-4619Y42319D01*
X-4287Y42815D01*
X-4260Y42949D01*
X3051D01*
Y51051D01*
X-4171D01*
Y53788D01*
X-3709Y53979D01*
X-3488Y53758D01*
X-2564Y53225D01*
X-1533Y52949D01*
X-467D01*
X564Y53225D01*
X1488Y53758D01*
X2242Y54513D01*
X2775Y55436D01*
X3051Y56467D01*
Y57533D01*
X2775Y58564D01*
X2242Y59487D01*
X1488Y60242D01*
X564Y60775D01*
X-467Y61051D01*
X-1533D01*
X-2564Y60775D01*
X-3488Y60242D01*
X-3674Y60056D01*
X-4120Y60234D01*
X-4163Y60674D01*
X3405Y68243D01*
X3436Y68225D01*
X4467Y67949D01*
X5533D01*
X6564Y68225D01*
X7487Y68758D01*
X7871Y69141D01*
X8371Y68934D01*
D02*
G37*
G36*
X-81771Y67807D02*
X-81617Y67345D01*
X-86633Y62330D01*
X-87081Y62589D01*
X-87062Y62661D01*
Y63339D01*
X-87237Y63994D01*
X-87576Y64581D01*
X-88055Y65060D01*
X-88643Y65399D01*
X-89297Y65575D01*
X-89975D01*
X-90630Y65399D01*
X-91217Y65060D01*
X-91697Y64581D01*
X-91726Y64529D01*
X-118500D01*
X-119085Y64413D01*
X-119581Y64081D01*
X-128925Y54738D01*
X-132921Y56192D01*
X-133368Y54966D01*
X-133877Y55030D01*
X-133933Y55606D01*
X-133971Y55729D01*
Y62567D01*
X-133293Y63245D01*
X-132961Y63741D01*
X-132900Y64048D01*
X-132373Y64322D01*
X-132293Y64275D01*
X-131638Y64100D01*
X-130960D01*
X-130305Y64275D01*
X-129718Y64614D01*
X-129239Y65094D01*
X-128900Y65681D01*
X-128724Y66336D01*
Y67014D01*
X-128740Y67071D01*
X-127966Y67845D01*
X-81802D01*
X-81771Y67807D01*
D02*
G37*
G36*
X69384Y75753D02*
Y73264D01*
X69500Y72678D01*
X69832Y72182D01*
X74993Y67020D01*
Y59436D01*
X61593Y46035D01*
X61096Y46092D01*
X60490Y47063D01*
X54078Y43056D01*
X53765Y43450D01*
X56981Y46667D01*
X57313Y47163D01*
X57429Y47748D01*
Y48766D01*
X70104Y61441D01*
X70161Y61425D01*
X70839D01*
X71494Y61601D01*
X72081Y61940D01*
X72560Y62419D01*
X72899Y63006D01*
X73075Y63661D01*
Y64339D01*
X72899Y64994D01*
X72560Y65581D01*
X72081Y66060D01*
X71494Y66399D01*
X70839Y66575D01*
X70161D01*
X69506Y66399D01*
X68919Y66060D01*
X68440Y65581D01*
X68101Y64994D01*
X67925Y64339D01*
Y63661D01*
X67941Y63604D01*
X55891Y51554D01*
X55429Y51746D01*
Y60866D01*
X60203Y65641D01*
X60261Y65625D01*
X60939D01*
X61594Y65801D01*
X62181Y66140D01*
X62660Y66619D01*
X62999Y67206D01*
X63175Y67861D01*
Y68539D01*
X62999Y69194D01*
X62660Y69781D01*
X62181Y70260D01*
X61594Y70599D01*
X60939Y70775D01*
X60261D01*
X59606Y70599D01*
X59019Y70260D01*
X58540Y69781D01*
X58201Y69194D01*
X58025Y68539D01*
Y67861D01*
X58041Y67804D01*
X52819Y62581D01*
X52487Y62085D01*
X52371Y61500D01*
Y55699D01*
X51871Y55461D01*
X51406Y55836D01*
X50432Y56270D01*
X49378Y56437D01*
X49242Y56423D01*
X48904Y56792D01*
X48929Y56917D01*
Y94500D01*
X48813Y95085D01*
X48481Y95581D01*
X42981Y101081D01*
X42485Y101413D01*
X41900Y101529D01*
X33383D01*
X33204Y101771D01*
X33457Y102271D01*
X42867D01*
X69384Y75753D01*
D02*
G37*
G36*
X-32688Y64650D02*
X-32521Y64193D01*
X-31910Y63319D01*
X-31093Y62634D01*
X-30126Y62183D01*
X-29075Y61998D01*
X-28013Y62090D01*
X-27010Y62455D01*
X-26136Y63067D01*
X-25452Y63882D01*
X-25382Y63966D01*
X-24877Y64014D01*
X-22781Y61919D01*
X-22285Y61587D01*
X-22139Y61558D01*
X-22188Y61058D01*
X-34195D01*
X-37448Y64311D01*
X-37251Y64771D01*
X-32688Y64650D01*
D02*
G37*
G36*
X45871Y93852D02*
Y60900D01*
X45419Y60685D01*
X43318Y62386D01*
X43288Y63025D01*
X43856Y63593D01*
X44188Y64090D01*
X44304Y64675D01*
Y92763D01*
X44560Y93019D01*
X44899Y93606D01*
X45010Y94020D01*
X45496Y94170D01*
X45871Y93852D01*
D02*
G37*
G36*
X-76937Y64853D02*
X-77075Y64339D01*
Y63661D01*
X-76899Y63006D01*
X-76560Y62419D01*
X-76081Y61940D01*
X-75494Y61601D01*
X-74839Y61425D01*
X-74161D01*
X-73506Y61601D01*
X-72919Y61940D01*
X-72440Y62419D01*
X-72247Y62752D01*
X-67713Y63344D01*
X-67431Y62877D01*
X-67575Y62339D01*
Y61661D01*
X-67426Y61104D01*
X-67587Y60800D01*
X-67712Y60663D01*
X-68216Y60694D01*
X-68440Y61081D01*
X-68919Y61560D01*
X-69506Y61899D01*
X-70161Y62075D01*
X-70839D01*
X-71494Y61899D01*
X-72081Y61560D01*
X-72560Y61081D01*
X-72899Y60494D01*
X-72944Y60326D01*
X-73338Y59988D01*
X-73500Y60020D01*
X-73923Y60104D01*
X-83092D01*
X-83678Y59988D01*
X-84174Y59656D01*
X-84727Y59103D01*
X-84810Y59120D01*
X-84975Y59662D01*
X-79682Y64955D01*
X-77236Y65314D01*
X-76937Y64853D01*
D02*
G37*
G36*
X-1676Y67487D02*
X-6781Y62381D01*
X-7113Y61885D01*
X-7229Y61300D01*
Y57146D01*
X-7691Y56954D01*
X-11347Y60610D01*
X-11843Y60942D01*
X-12429Y61058D01*
X-13511D01*
X-13561Y61558D01*
X-13415Y61587D01*
X-12919Y61919D01*
X-6888Y67949D01*
X-1867D01*
X-1676Y67487D01*
D02*
G37*
G36*
X-35414Y58116D02*
X-34829Y57999D01*
X-15293D01*
X-15227Y57499D01*
X-16064Y57275D01*
X-16987Y56742D01*
X-17742Y55988D01*
X-18275Y55064D01*
X-18284Y55029D01*
X-21103D01*
X-21706Y55633D01*
X-21783Y55684D01*
X-21843Y55754D01*
X-22029Y55848D01*
X-22202Y55964D01*
X-22293Y55982D01*
X-22375Y56024D01*
X-26359Y57141D01*
X-26567Y57157D01*
X-26772Y57197D01*
X-29452D01*
X-29514Y57185D01*
X-29577Y57192D01*
X-37282Y56559D01*
X-37477Y57045D01*
X-35820Y58387D01*
X-35414Y58116D01*
D02*
G37*
G36*
X25451Y63884D02*
X26136Y63067D01*
X27010Y62455D01*
X28013Y62090D01*
X29075Y61998D01*
X30126Y62183D01*
X31093Y62634D01*
X31419Y62907D01*
X31919Y62674D01*
Y56850D01*
X28330Y53261D01*
X27857Y53534D01*
X25112Y48780D01*
X24629Y48910D01*
Y64463D01*
X25129Y64574D01*
X25451Y63884D01*
D02*
G37*
G36*
X-96387Y57309D02*
X-101183Y52513D01*
X-101631Y52772D01*
X-101500Y53261D01*
Y53939D01*
X-101675Y54594D01*
X-102014Y55181D01*
X-102494Y55660D01*
X-103081Y55999D01*
X-103736Y56175D01*
X-104414D01*
X-105069Y55999D01*
X-105656Y55660D01*
X-106135Y55181D01*
X-106165Y55129D01*
X-110675D01*
X-110832Y55098D01*
X-111078Y55559D01*
X-108867Y57771D01*
X-96579D01*
X-96387Y57309D01*
D02*
G37*
G36*
X-77017Y56545D02*
X-77248Y56145D01*
X-77423Y55491D01*
Y54813D01*
X-77248Y54158D01*
X-76909Y53571D01*
X-76429Y53091D01*
X-75842Y52752D01*
X-75771Y52733D01*
X-75519Y52356D01*
X-75519Y52356D01*
X-75519Y52356D01*
X-73920Y50757D01*
X-74120Y50250D01*
X-85015Y49854D01*
X-85678Y49854D01*
X-85850Y49888D01*
X-98829D01*
X-99020Y50350D01*
X-93599Y55771D01*
X-84367D01*
X-83782Y55887D01*
X-83286Y56219D01*
X-82459Y57045D01*
X-77260D01*
X-77017Y56545D01*
D02*
G37*
G36*
X-45859Y57945D02*
X-42099Y53302D01*
X-42099Y53302D01*
X-41851Y52894D01*
X-44912Y49832D01*
X-45755Y49804D01*
X-46016Y50295D01*
X-45680Y50757D01*
X-45298Y51753D01*
X-45187Y52814D01*
X-45353Y53867D01*
X-45787Y54842D01*
X-46459Y55671D01*
X-47322Y56298D01*
X-48318Y56680D01*
X-49378Y56792D01*
X-50432Y56625D01*
X-51406Y56191D01*
X-52235Y55519D01*
X-52862Y54656D01*
X-52924Y54497D01*
X-53068Y54453D01*
X-53184Y54500D01*
X-53536Y54835D01*
Y55318D01*
X-53711Y55973D01*
X-54050Y56560D01*
X-54530Y57039D01*
X-55117Y57378D01*
X-55772Y57554D01*
X-56450D01*
X-56944Y57421D01*
X-58220Y58308D01*
X-58387Y58381D01*
X-58541Y58478D01*
X-59239Y58749D01*
X-59516Y58797D01*
X-59791Y58852D01*
X-63995D01*
X-64057Y58839D01*
X-64121Y58847D01*
X-64643Y58803D01*
X-64732Y58925D01*
X-64710Y59082D01*
X-64508Y59466D01*
X-64006Y59601D01*
X-63419Y59940D01*
X-63145Y60214D01*
X-45859Y57945D01*
D02*
G37*
G36*
X-91996Y61329D02*
X-92263Y60829D01*
X-109500D01*
X-110085Y60713D01*
X-110581Y60381D01*
X-116807Y54156D01*
X-117138Y53660D01*
X-117255Y53075D01*
Y49846D01*
X-117717Y49654D01*
X-117919Y49856D01*
X-118415Y50188D01*
X-119000Y50304D01*
X-124725D01*
X-125311Y50188D01*
X-125807Y49856D01*
X-126245Y49418D01*
X-126667Y49686D01*
X-125308Y53421D01*
X-125316Y53425D01*
X-125425Y53913D01*
X-117867Y61471D01*
X-92090D01*
X-91996Y61329D01*
D02*
G37*
G36*
X-9229Y54167D02*
Y50933D01*
X-12612Y47551D01*
X-18551D01*
X-18871Y47919D01*
Y48100D01*
X-18987Y48685D01*
X-19319Y49182D01*
X-21608Y51471D01*
X-21401Y51971D01*
X-18284D01*
X-18275Y51936D01*
X-17742Y51012D01*
X-16987Y50258D01*
X-16064Y49725D01*
X-15033Y49449D01*
X-13967D01*
X-12936Y49725D01*
X-12013Y50258D01*
X-11258Y51012D01*
X-10725Y51936D01*
X-10449Y52967D01*
Y54033D01*
X-10685Y54915D01*
X-10237Y55174D01*
X-9229Y54167D01*
D02*
G37*
G36*
X42099Y52948D02*
X42691Y53679D01*
X43191Y53502D01*
Y43917D01*
X42513Y43240D01*
X42051Y43431D01*
Y43533D01*
X41775Y44564D01*
X41242Y45487D01*
X40488Y46242D01*
X39564Y46775D01*
X38533Y47051D01*
X38242D01*
X38149Y47135D01*
X37971Y47551D01*
X38013Y47615D01*
X38019Y47646D01*
X38036Y47674D01*
X38077Y47938D01*
X38129Y48200D01*
Y55581D01*
X38581Y55797D01*
X42099Y52948D01*
D02*
G37*
G36*
X76993Y56457D02*
Y54093D01*
X64417Y41516D01*
X63920Y41573D01*
X62972Y43089D01*
X76531Y56648D01*
X76993Y56457D01*
D02*
G37*
G36*
X-119255Y46867D02*
Y36581D01*
X-119688Y36331D01*
X-119806Y36399D01*
X-120461Y36575D01*
X-121139D01*
X-121794Y36399D01*
X-122381Y36060D01*
X-122860Y35581D01*
X-123199Y34994D01*
X-123375Y34339D01*
Y33994D01*
X-123612Y33756D01*
X-127046Y33225D01*
X-127053Y33231D01*
X-127314Y33689D01*
X-127247Y33790D01*
X-127087Y34029D01*
X-127087Y34029D01*
X-127087Y34030D01*
X-127031Y34310D01*
X-126971Y34614D01*
Y39024D01*
X-126755Y39616D01*
X-126715Y39878D01*
X-126663Y40139D01*
Y41025D01*
X-126663Y41025D01*
X-126663Y41025D01*
X-126718Y41304D01*
X-126779Y41610D01*
X-126779Y41610D01*
X-126779Y41611D01*
X-126951Y41867D01*
X-126971Y41897D01*
Y44366D01*
X-124092Y47245D01*
X-119633D01*
X-119255Y46867D01*
D02*
G37*
G36*
X54991Y34419D02*
X55487Y34087D01*
X56073Y33971D01*
X60053D01*
X60451Y33471D01*
X60433Y33392D01*
X60470Y32326D01*
X60782Y31306D01*
X61347Y30401D01*
X62117Y29683D01*
X62128Y29669D01*
X62189Y29074D01*
X58419Y25304D01*
X58087Y24807D01*
X57971Y24222D01*
Y20551D01*
X55449D01*
Y13229D01*
X49666D01*
X49459Y13729D01*
X49742Y14013D01*
X50275Y14936D01*
X50551Y15967D01*
Y17033D01*
X50275Y18064D01*
X49742Y18988D01*
X48987Y19742D01*
X48064Y20275D01*
X47033Y20551D01*
X45967D01*
X44936Y20275D01*
X44012Y19742D01*
X43258Y18988D01*
X42725Y18064D01*
X42449Y17033D01*
Y15967D01*
X42725Y14936D01*
X43258Y14013D01*
X43541Y13729D01*
X43334Y13229D01*
X39100D01*
X38515Y13113D01*
X38019Y12781D01*
X36318Y11081D01*
X34497D01*
X34305Y11542D01*
X46581Y23819D01*
X46913Y24315D01*
X47029Y24900D01*
Y26534D01*
X47529Y26741D01*
X48013Y26258D01*
X48936Y25725D01*
X49967Y25449D01*
X51033D01*
X52064Y25725D01*
X52987Y26258D01*
X53742Y27013D01*
X54275Y27936D01*
X54551Y28967D01*
Y30033D01*
X54275Y31064D01*
X53742Y31988D01*
X52987Y32742D01*
X52064Y33275D01*
X51033Y33551D01*
X49967D01*
X48936Y33275D01*
X48013Y32742D01*
X47529Y32259D01*
X47029Y32466D01*
Y35152D01*
X47157Y35235D01*
X47529Y35329D01*
X47919Y34940D01*
X48506Y34601D01*
X49161Y34425D01*
X49839D01*
X50494Y34601D01*
X51081Y34940D01*
X51560Y35419D01*
X51590Y35471D01*
X53939D01*
X54991Y34419D01*
D02*
G37*
G36*
X-94331Y38112D02*
X-94399Y37994D01*
X-94575Y37339D01*
Y36661D01*
X-94399Y36006D01*
X-94060Y35419D01*
X-93581Y34940D01*
X-92994Y34601D01*
X-93073Y34104D01*
X-93963D01*
X-94419Y34560D01*
X-95006Y34899D01*
X-95661Y35075D01*
X-96339D01*
X-96994Y34899D01*
X-97581Y34560D01*
X-98060Y34081D01*
X-98399Y33494D01*
X-98575Y32839D01*
Y32161D01*
X-98406Y31529D01*
X-98389Y31436D01*
X-98624Y31029D01*
X-100910D01*
X-100940Y31081D01*
X-101419Y31560D01*
X-102006Y31899D01*
X-102661Y32075D01*
X-103339D01*
X-103994Y31899D01*
X-104162Y31802D01*
X-104235Y31837D01*
X-104563Y32148D01*
X-104425Y32661D01*
Y33339D01*
X-104441Y33397D01*
X-99292Y38545D01*
X-94581D01*
X-94331Y38112D01*
D02*
G37*
G36*
X80606Y67401D02*
X81261Y67225D01*
X81939D01*
X82594Y67401D01*
X82712Y67469D01*
X83145Y67219D01*
Y49582D01*
X79154Y45591D01*
X78822Y45094D01*
X78706Y44509D01*
Y41765D01*
X78595Y41655D01*
X69053Y33039D01*
X68545Y33254D01*
X68530Y33674D01*
X68218Y34694D01*
X67653Y35599D01*
X66873Y36327D01*
X65931Y36827D01*
X64980Y37047D01*
X64736Y37510D01*
X79604Y52378D01*
X79936Y52874D01*
X80052Y53459D01*
Y67221D01*
X80485Y67471D01*
X80606Y67401D01*
D02*
G37*
G36*
X-13929Y32312D02*
X-14391Y32121D01*
X-14513Y32242D01*
X-15436Y32775D01*
X-16467Y33051D01*
X-17533D01*
X-18564Y32775D01*
X-19488Y32242D01*
X-20242Y31488D01*
X-20775Y30564D01*
X-21051Y29533D01*
Y28467D01*
X-20775Y27436D01*
X-20242Y26513D01*
X-19488Y25758D01*
X-18564Y25225D01*
X-17533Y24949D01*
X-16467D01*
X-15436Y25225D01*
X-14513Y25758D01*
X-14391Y25879D01*
X-13929Y25688D01*
Y23051D01*
X-20397D01*
X-20519Y23233D01*
X-22267Y24981D01*
X-22763Y25313D01*
X-23349Y25429D01*
X-24688D01*
X-24879Y25891D01*
X-24758Y26013D01*
X-24225Y26936D01*
X-23949Y27967D01*
Y29033D01*
X-24225Y30064D01*
X-24243Y30095D01*
X-20766Y33571D01*
X-13929D01*
Y32312D01*
D02*
G37*
G36*
X92727Y81310D02*
Y29081D01*
X92294Y28831D01*
X92175Y28899D01*
X91520Y29075D01*
X90842D01*
X90187Y28899D01*
X89600Y28560D01*
X89121Y28081D01*
X89091Y28029D01*
X80000D01*
X79415Y27913D01*
X78919Y27581D01*
X76397Y25059D01*
X76339Y25075D01*
X75745D01*
X75600Y25278D01*
X75517Y25554D01*
X86381Y36419D01*
X86713Y36915D01*
X86787Y37285D01*
X86881Y37340D01*
X87360Y37819D01*
X87699Y38406D01*
X87875Y39061D01*
Y39739D01*
X87699Y40394D01*
X87360Y40981D01*
X86881Y41460D01*
X86294Y41799D01*
X85639Y41975D01*
X84961D01*
X84428Y41832D01*
X84152Y42263D01*
X87756Y45868D01*
X88088Y46364D01*
X88204Y46949D01*
Y81125D01*
X88088Y81710D01*
X87756Y82207D01*
X86059Y83903D01*
X86075Y83961D01*
Y84639D01*
X85899Y85294D01*
X85560Y85881D01*
X85081Y86360D01*
X84494Y86699D01*
X83839Y86875D01*
X83161D01*
X82506Y86699D01*
X82353Y86611D01*
X81920Y86861D01*
Y90610D01*
X81803Y91195D01*
X81472Y91691D01*
X53839Y119324D01*
X53867Y119463D01*
X54410Y119627D01*
X92727Y81310D01*
D02*
G37*
G36*
X103625Y28277D02*
Y27961D01*
X103801Y27306D01*
X104140Y26719D01*
X104619Y26240D01*
X105206Y25901D01*
X105861Y25725D01*
X106539D01*
X107194Y25901D01*
X107781Y26240D01*
X108260Y26719D01*
X108290Y26771D01*
X113425D01*
Y26161D01*
X113601Y25506D01*
X113940Y24919D01*
X114419Y24440D01*
X115006Y24101D01*
X115661Y23925D01*
X116339D01*
X116396Y23941D01*
X120419Y19918D01*
Y18733D01*
X120535Y18148D01*
X120867Y17652D01*
X126404Y12115D01*
X126900Y11783D01*
X127485Y11667D01*
X151671D01*
Y10366D01*
X151238Y10116D01*
X151044Y10227D01*
X150027Y10500D01*
X148973D01*
X147956Y10227D01*
X147044Y9701D01*
X146299Y8956D01*
X145773Y8044D01*
X145500Y7027D01*
Y5973D01*
X145773Y4956D01*
X145852Y4818D01*
X136204Y-5576D01*
X130352D01*
X128044Y-3269D01*
X127548Y-2937D01*
X126963Y-2821D01*
X121476D01*
X121285Y-2359D01*
X125785Y2141D01*
X125842Y2125D01*
X126520D01*
X127175Y2301D01*
X127762Y2640D01*
X128242Y3119D01*
X128580Y3706D01*
X128756Y4361D01*
Y5039D01*
X128580Y5694D01*
X128498Y5838D01*
X128747Y6271D01*
X138237D01*
X138440Y5919D01*
X138919Y5440D01*
X139506Y5101D01*
X140161Y4925D01*
X140839D01*
X141494Y5101D01*
X142081Y5440D01*
X142560Y5919D01*
X142899Y6506D01*
X143075Y7161D01*
Y7839D01*
X142899Y8494D01*
X142560Y9081D01*
X142081Y9560D01*
X141494Y9899D01*
X140839Y10075D01*
X140161D01*
X139506Y9899D01*
X138919Y9560D01*
X138688Y9329D01*
X123100D01*
X122515Y9213D01*
X122019Y8881D01*
X112167Y-971D01*
X82400D01*
X81815Y-1087D01*
X81319Y-1419D01*
X78362Y-4376D01*
X78030Y-4872D01*
X77914Y-5457D01*
Y-6923D01*
X77397Y-7441D01*
X77339Y-7425D01*
X76661D01*
X76006Y-7601D01*
X75419Y-7940D01*
X75248Y-8111D01*
X74848Y-7804D01*
X75275Y-7064D01*
X75551Y-6033D01*
Y-4967D01*
X75275Y-3936D01*
X75257Y-3906D01*
X80059Y896D01*
X109925D01*
X110511Y1012D01*
X111007Y1344D01*
X118604Y8941D01*
X118661Y8925D01*
X119339D01*
X119994Y9101D01*
X120581Y9440D01*
X121060Y9919D01*
X121399Y10506D01*
X121575Y11161D01*
Y11839D01*
X121399Y12494D01*
X121060Y13081D01*
X120581Y13560D01*
X119994Y13899D01*
X119339Y14075D01*
X118661D01*
X118006Y13899D01*
X117419Y13560D01*
X116940Y13081D01*
X116601Y12494D01*
X116425Y11839D01*
Y11161D01*
X116441Y11103D01*
X109292Y3955D01*
X106881D01*
X106631Y4388D01*
X106699Y4506D01*
X106875Y5161D01*
Y5839D01*
X106699Y6494D01*
X106360Y7081D01*
X105881Y7560D01*
X105294Y7899D01*
X104639Y8075D01*
X103961D01*
X103306Y7899D01*
X102719Y7560D01*
X102240Y7081D01*
X102210Y7029D01*
X77936D01*
X77351Y6913D01*
X76855Y6581D01*
X76013Y5740D01*
X75551Y5931D01*
Y6033D01*
X75275Y7064D01*
X75257Y7095D01*
X85511Y17348D01*
X93634D01*
X94219Y17465D01*
X94715Y17796D01*
X97337Y20419D01*
X97669Y20915D01*
X97785Y21500D01*
Y24622D01*
X100903Y27741D01*
X100961Y27725D01*
X101639D01*
X102294Y27901D01*
X102881Y28240D01*
X103125Y28484D01*
X103625Y28277D01*
D02*
G37*
G36*
X83038Y38169D02*
X83240Y37819D01*
X83348Y37711D01*
X71594Y25957D01*
X70715Y25926D01*
X70255Y26386D01*
X70088Y26483D01*
X70024Y27097D01*
X81500Y37408D01*
X81511Y37423D01*
X81526Y37433D01*
X82420Y38274D01*
X82487Y38293D01*
X83038Y38169D01*
D02*
G37*
G36*
X36449Y25449D02*
X43233D01*
X43424Y24987D01*
X31518Y13081D01*
X29451D01*
X28866Y12964D01*
X28370Y12633D01*
X26319Y10581D01*
X25987Y10085D01*
X25871Y9500D01*
Y8398D01*
X25371Y8264D01*
X25242Y8488D01*
X24487Y9242D01*
X23564Y9775D01*
X23529Y9784D01*
Y14254D01*
X23949Y14449D01*
X24029Y14449D01*
X32051D01*
Y22551D01*
X24029D01*
X23949Y22551D01*
X23529Y22746D01*
Y27600D01*
X24029Y27666D01*
X24225Y26936D01*
X24758Y26013D01*
X25512Y25258D01*
X26436Y24725D01*
X27467Y24449D01*
X28533D01*
X29564Y24725D01*
X30487Y25258D01*
X31242Y26013D01*
X31775Y26936D01*
X32051Y27967D01*
Y29033D01*
X31775Y30064D01*
X31242Y30988D01*
X30487Y31742D01*
X29564Y32275D01*
X29646Y32771D01*
X36449D01*
Y25449D01*
D02*
G37*
G36*
X-123276Y30207D02*
X-123399Y29994D01*
X-123575Y29339D01*
Y28661D01*
X-123399Y28006D01*
X-123060Y27419D01*
X-122581Y26940D01*
X-122529Y26910D01*
Y23633D01*
X-132156Y14007D01*
X-132488Y13510D01*
X-132604Y12925D01*
Y9226D01*
X-132488Y8641D01*
X-132156Y8145D01*
X-131428Y7417D01*
X-131619Y6955D01*
X-132817D01*
X-132944Y7081D01*
X-133440Y7413D01*
X-134025Y7529D01*
X-135387D01*
X-135453Y8029D01*
X-135187Y8101D01*
X-134600Y8440D01*
X-134121Y8919D01*
X-133782Y9506D01*
X-133606Y10161D01*
Y10839D01*
X-133782Y11494D01*
X-134121Y12081D01*
X-134600Y12560D01*
X-135187Y12899D01*
X-135842Y13075D01*
X-136520D01*
X-137175Y12899D01*
X-137762Y12560D01*
X-138241Y12081D01*
X-138271Y12029D01*
X-140854D01*
X-141046Y12491D01*
X-132119Y21419D01*
X-132118Y21419D01*
X-131919Y21619D01*
X-131587Y22115D01*
X-131471Y22700D01*
Y23410D01*
X-131419Y23440D01*
X-130940Y23919D01*
X-130601Y24506D01*
X-130425Y25161D01*
Y25839D01*
X-130601Y26494D01*
X-130669Y26612D01*
X-130419Y27045D01*
X-129366D01*
X-128752Y26432D01*
X-128768Y26374D01*
Y25696D01*
X-128592Y25041D01*
X-128253Y24454D01*
X-127774Y23975D01*
X-127187Y23636D01*
X-126532Y23460D01*
X-125854D01*
X-125199Y23636D01*
X-124612Y23975D01*
X-124132Y24454D01*
X-123793Y25041D01*
X-123618Y25696D01*
Y26374D01*
X-123793Y27029D01*
X-124132Y27616D01*
X-124612Y28095D01*
X-125199Y28435D01*
X-125854Y28610D01*
X-126532D01*
X-126589Y28595D01*
X-127542Y29547D01*
X-127460Y29964D01*
X-127390Y30076D01*
X-123589Y30665D01*
X-123276Y30207D01*
D02*
G37*
G36*
X89121Y24919D02*
X89600Y24440D01*
X90187Y24101D01*
X90842Y23925D01*
X91211D01*
X91418Y23425D01*
X90422Y22429D01*
X83400D01*
X82815Y22313D01*
X82319Y21981D01*
X71966Y11629D01*
X66299D01*
X66163Y11796D01*
X66047Y12083D01*
X66044Y12112D01*
X66313Y12515D01*
X66429Y13100D01*
Y13188D01*
X66891Y13379D01*
X67013Y13258D01*
X67936Y12725D01*
X68967Y12449D01*
X70033D01*
X71064Y12725D01*
X71987Y13258D01*
X72742Y14013D01*
X73275Y14936D01*
X73551Y15967D01*
Y17033D01*
X73275Y18064D01*
X72742Y18988D01*
X71987Y19742D01*
X71064Y20275D01*
X70033Y20551D01*
X68967D01*
X67936Y20275D01*
X67013Y19742D01*
X66891Y19621D01*
X66429Y19812D01*
Y22222D01*
X66929Y22429D01*
X67093Y22266D01*
X67680Y21927D01*
X68335Y21751D01*
X69013D01*
X69668Y21927D01*
X70255Y22266D01*
X70734Y22745D01*
X70806Y22869D01*
X72301Y22920D01*
X72567Y22983D01*
X72834Y23036D01*
X72856Y23051D01*
X72882Y23057D01*
X72986Y23131D01*
X73360Y22915D01*
X73425Y22839D01*
Y22161D01*
X73601Y21506D01*
X73940Y20919D01*
X74419Y20440D01*
X75006Y20101D01*
X75661Y19925D01*
X76339D01*
X76994Y20101D01*
X77581Y20440D01*
X78060Y20919D01*
X78399Y21506D01*
X78575Y22161D01*
Y22839D01*
X78559Y22896D01*
X80633Y24971D01*
X89091D01*
X89121Y24919D01*
D02*
G37*
G36*
X13052Y28082D02*
X13225Y27436D01*
X13758Y26513D01*
X14513Y25758D01*
X15436Y25225D01*
X16467Y24949D01*
X17533D01*
X18564Y25225D01*
X19488Y25758D01*
X19971Y26241D01*
X20471Y26034D01*
Y23051D01*
X12949D01*
Y15512D01*
X12449Y15248D01*
X8963Y17638D01*
X9051Y17967D01*
Y19033D01*
X8775Y20064D01*
X8242Y20988D01*
X7487Y21742D01*
X6564Y22275D01*
X6207Y22371D01*
X6273Y22871D01*
X6500D01*
X7085Y22987D01*
X7581Y23319D01*
X12494Y28231D01*
X13052Y28082D01*
D02*
G37*
G36*
X151746Y15187D02*
X151554Y14725D01*
X128119D01*
X123478Y19366D01*
Y20552D01*
X123361Y21137D01*
X123030Y21633D01*
X118559Y26103D01*
X118575Y26161D01*
Y26839D01*
X118399Y27494D01*
X118331Y27612D01*
X118581Y28045D01*
X138888D01*
X151746Y15187D01*
D02*
G37*
G36*
X-149233Y42064D02*
Y29253D01*
X-149116Y28668D01*
X-148785Y28171D01*
X-142032Y21419D01*
X-141536Y21087D01*
X-140950Y20971D01*
X-137546D01*
X-137354Y20509D01*
X-143833Y14029D01*
X-154510D01*
X-154846Y14400D01*
X-154389Y19042D01*
X-153269Y26595D01*
X-151779Y34083D01*
X-149924Y41489D01*
X-149727Y42137D01*
X-149233Y42064D01*
D02*
G37*
G36*
X-49621Y19609D02*
X-49742Y19488D01*
X-50275Y18564D01*
X-50551Y17533D01*
Y16467D01*
X-50275Y15436D01*
X-49742Y14513D01*
X-49159Y13929D01*
X-49366Y13429D01*
X-55449D01*
Y20071D01*
X-49812D01*
X-49621Y19609D01*
D02*
G37*
G36*
X-109580Y37006D02*
X-109241Y36419D01*
X-108762Y35940D01*
X-108410Y35736D01*
X-108401Y35164D01*
X-108581Y35060D01*
X-109060Y34581D01*
X-109399Y33994D01*
X-109575Y33339D01*
Y32661D01*
X-109399Y32006D01*
X-109060Y31419D01*
X-108581Y30940D01*
X-107994Y30601D01*
X-107339Y30425D01*
X-106661D01*
X-106006Y30601D01*
X-105838Y30698D01*
X-105765Y30663D01*
X-105437Y30352D01*
X-105575Y29839D01*
Y29161D01*
X-105399Y28506D01*
X-105060Y27919D01*
X-104581Y27440D01*
X-103994Y27101D01*
X-103339Y26925D01*
X-102661D01*
X-102006Y27101D01*
X-101419Y27440D01*
X-100940Y27919D01*
X-100910Y27971D01*
X-97650D01*
X-97274Y27896D01*
X-94048D01*
X-93840Y27871D01*
X-93575Y27442D01*
Y27161D01*
X-93399Y26506D01*
X-93060Y25919D01*
X-92581Y25440D01*
X-91994Y25101D01*
X-91339Y24925D01*
X-90661D01*
X-90604Y24941D01*
X-87681Y22019D01*
X-87185Y21687D01*
X-86600Y21571D01*
X-85094D01*
X-84903Y21109D01*
X-93156Y12855D01*
X-93174Y12829D01*
X-93762Y12848D01*
X-93940Y13156D01*
X-94419Y13635D01*
X-95006Y13974D01*
X-95661Y14150D01*
X-96339D01*
X-96396Y14134D01*
X-102449Y20187D01*
X-102945Y20519D01*
X-103531Y20635D01*
X-103972D01*
X-110196Y26859D01*
Y37371D01*
X-109696Y37437D01*
X-109580Y37006D01*
D02*
G37*
G36*
X-32181Y17419D02*
X-32051Y17332D01*
Y14449D01*
X-23949D01*
Y21684D01*
X-23487Y21875D01*
X-23129Y21518D01*
Y14700D01*
X-23013Y14115D01*
X-22681Y13619D01*
X-21654Y12591D01*
X-21846Y12129D01*
X-22366D01*
X-23019Y12781D01*
X-23515Y13113D01*
X-24100Y13229D01*
X-32067D01*
X-40946Y22109D01*
X-40754Y22571D01*
X-37334D01*
X-32181Y17419D01*
D02*
G37*
G36*
X-108892Y13029D02*
X-108908Y12972D01*
Y12294D01*
X-108732Y11639D01*
X-108393Y11052D01*
X-107914Y10573D01*
X-107327Y10234D01*
X-106672Y10058D01*
X-105994D01*
X-105339Y10234D01*
X-104752Y10573D01*
X-104273Y11052D01*
X-104089Y11370D01*
X-103489Y11478D01*
X-101320Y9309D01*
X-101639Y8921D01*
X-101740Y8988D01*
X-102325Y9104D01*
X-115546D01*
X-115643Y9272D01*
X-115777Y9604D01*
X-115618Y10196D01*
Y10874D01*
X-115794Y11529D01*
X-116132Y12116D01*
X-116612Y12596D01*
X-117199Y12934D01*
X-117854Y13110D01*
X-118532D01*
X-119187Y12934D01*
X-119774Y12596D01*
X-120253Y12116D01*
X-120592Y11529D01*
X-120768Y10874D01*
Y10196D01*
X-120752Y10139D01*
X-121936Y8955D01*
X-125419D01*
X-125669Y9388D01*
X-125601Y9506D01*
X-125425Y10161D01*
Y10839D01*
X-125441Y10897D01*
X-116644Y19693D01*
X-116491Y19921D01*
X-115876Y20013D01*
X-108892Y13029D01*
D02*
G37*
G36*
X-72621Y19109D02*
X-72742Y18988D01*
X-73275Y18064D01*
X-73284Y18029D01*
X-76100D01*
X-76685Y17913D01*
X-77181Y17581D01*
X-84581Y10181D01*
X-84913Y9685D01*
X-84936Y9569D01*
X-85569Y9399D01*
X-86156Y9060D01*
X-86451Y8765D01*
X-86852Y9072D01*
X-86601Y9506D01*
X-86425Y10161D01*
Y10839D01*
X-86601Y11494D01*
X-86940Y12081D01*
X-87419Y12560D01*
X-88006Y12899D01*
X-88138Y12935D01*
X-88268Y13418D01*
X-82115Y19571D01*
X-72812D01*
X-72621Y19109D01*
D02*
G37*
G36*
X3071Y9002D02*
Y8312D01*
X2609Y8121D01*
X2488Y8242D01*
X1564Y8775D01*
X533Y9051D01*
X-533D01*
X-1564Y8775D01*
X-2488Y8242D01*
X-3242Y7487D01*
X-3775Y6564D01*
X-4051Y5533D01*
Y4467D01*
X-4033Y4398D01*
X-4085Y4313D01*
X-4581Y3981D01*
X-5371Y3192D01*
X-5871Y3399D01*
Y10551D01*
X-5987Y11136D01*
X-6277Y11571D01*
X-6206Y11834D01*
X-6074Y12071D01*
X1D01*
X3071Y9002D01*
D02*
G37*
G36*
X-35676Y9513D02*
X-35867Y9051D01*
X-38051D01*
Y1110D01*
X-38069Y933D01*
X-38419Y629D01*
X-78001D01*
X-78208Y1129D01*
X-75687Y3650D01*
X-75062Y3568D01*
X-74742Y3012D01*
X-73988Y2258D01*
X-73064Y1725D01*
X-72033Y1449D01*
X-70967D01*
X-69936Y1725D01*
X-69012Y2258D01*
X-68258Y3012D01*
X-67725Y3936D01*
X-67449Y4967D01*
Y6033D01*
X-67725Y7064D01*
X-68258Y7987D01*
X-69012Y8742D01*
X-69936Y9275D01*
X-70967Y9551D01*
X-72033D01*
X-73064Y9275D01*
X-73339Y9116D01*
X-73646Y9516D01*
X-72792Y10371D01*
X-50551D01*
Y2949D01*
X-42449D01*
Y10371D01*
X-36533D01*
X-35676Y9513D01*
D02*
G37*
G36*
X151671Y2634D02*
Y-2134D01*
X151238Y-2384D01*
X151044Y-2273D01*
X150027Y-2000D01*
X148973D01*
X147956Y-2273D01*
X147044Y-2799D01*
X146299Y-3544D01*
X145773Y-4456D01*
X145500Y-5473D01*
Y-6527D01*
X145773Y-7544D01*
X146299Y-8456D01*
X146352Y-8509D01*
X146160Y-8971D01*
X142300D01*
X141715Y-9087D01*
X141219Y-9419D01*
X133667Y-16971D01*
X96975D01*
X96600Y-17045D01*
X96353Y-16585D01*
X100908Y-12029D01*
X126910D01*
X126940Y-12081D01*
X127419Y-12560D01*
X128006Y-12899D01*
X128661Y-13075D01*
X129339D01*
X129994Y-12899D01*
X130581Y-12560D01*
X131060Y-12081D01*
X131399Y-11494D01*
X131575Y-10839D01*
Y-10161D01*
X131399Y-9506D01*
X131185Y-9135D01*
X131449Y-8635D01*
X136435D01*
X136436Y-8635D01*
X136436Y-8635D01*
X136849Y-8635D01*
X137144Y-8576D01*
X137434Y-8518D01*
X137434Y-8518D01*
X137434Y-8518D01*
X137684Y-8351D01*
X137930Y-8187D01*
X138250Y-7867D01*
X138266Y-7843D01*
X138289Y-7826D01*
X148093Y2736D01*
X148973Y2500D01*
X150027D01*
X151044Y2773D01*
X151238Y2884D01*
X151671Y2634D01*
D02*
G37*
G36*
X63101Y9671D02*
X63023Y9551D01*
X57449D01*
Y2478D01*
X50551D01*
Y10171D01*
X62832D01*
X63101Y9671D01*
D02*
G37*
G36*
X42449Y2478D02*
X38685D01*
X37757Y3405D01*
X37775Y3436D01*
X38051Y4467D01*
Y5533D01*
X37775Y6564D01*
X37242Y7487D01*
X37173Y7556D01*
X37338Y8099D01*
X37536Y8138D01*
X38033Y8470D01*
X39733Y10171D01*
X42449D01*
Y2478D01*
D02*
G37*
G36*
X6978Y8087D02*
X7564Y7971D01*
X7867D01*
X7949Y7888D01*
Y1949D01*
X16051D01*
Y1979D01*
X16551Y2186D01*
X18146Y591D01*
X17954Y129D01*
X7400D01*
X6815Y13D01*
X6629Y-111D01*
X6129Y156D01*
Y8115D01*
X6629Y8320D01*
X6978Y8087D01*
D02*
G37*
G36*
X-109075Y2161D02*
X-108899Y1506D01*
X-108560Y919D01*
X-108081Y440D01*
X-107494Y101D01*
X-107362Y65D01*
X-107232Y-418D01*
X-107785Y-971D01*
X-117410D01*
X-117440Y-919D01*
X-117919Y-440D01*
X-118506Y-101D01*
X-119161Y75D01*
X-119839D01*
X-120494Y-101D01*
X-121081Y-440D01*
X-121560Y-919D01*
X-121899Y-1506D01*
X-122075Y-2161D01*
Y-2839D01*
X-121899Y-3494D01*
X-121560Y-4081D01*
X-121081Y-4560D01*
X-120494Y-4899D01*
X-119922Y-5052D01*
X-119683Y-5520D01*
X-121581Y-7419D01*
X-121913Y-7915D01*
X-122029Y-8500D01*
Y-50354D01*
X-122491Y-50546D01*
X-125171Y-47866D01*
Y-12700D01*
X-125287Y-12115D01*
X-125619Y-11619D01*
X-127018Y-10220D01*
Y-3781D01*
X-126585Y-3531D01*
X-126466Y-3599D01*
X-125811Y-3775D01*
X-125133D01*
X-124478Y-3599D01*
X-123891Y-3260D01*
X-123412Y-2781D01*
X-123073Y-2194D01*
X-122897Y-1539D01*
Y-861D01*
X-122981Y-550D01*
X-121353Y1465D01*
X-121123Y1695D01*
X-114667D01*
X-114081Y1811D01*
X-113585Y2143D01*
X-113332Y2396D01*
X-109423D01*
X-109373Y2406D01*
X-109075Y2161D01*
D02*
G37*
G36*
X31512Y1758D02*
X32436Y1225D01*
X33467Y949D01*
X34533D01*
X35564Y1225D01*
X35594Y1243D01*
X36970Y-133D01*
X37443Y-449D01*
X37450Y-486D01*
X37278Y-949D01*
X29949D01*
Y-9051D01*
X38051D01*
Y-1052D01*
X38051Y-949D01*
X38369Y-581D01*
X73385D01*
X73590Y-540D01*
X73836Y-1001D01*
X73094Y-1743D01*
X73064Y-1725D01*
X72033Y-1449D01*
X70967D01*
X69936Y-1725D01*
X69012Y-2258D01*
X68258Y-3012D01*
X67725Y-3936D01*
X67449Y-4967D01*
Y-6033D01*
X67725Y-7064D01*
X68258Y-7987D01*
X69012Y-8742D01*
X69936Y-9275D01*
X70967Y-9551D01*
X72033D01*
X73064Y-9275D01*
X73988Y-8742D01*
X74433Y-8296D01*
X74834Y-8603D01*
X74601Y-9006D01*
X74425Y-9661D01*
Y-9933D01*
X74361Y-10350D01*
X73949Y-10419D01*
X55420D01*
X55323Y-10328D01*
X55192Y-10111D01*
X55144Y-9936D01*
X55399Y-9494D01*
X55575Y-8839D01*
Y-8161D01*
X55399Y-7506D01*
X55060Y-6919D01*
X54581Y-6440D01*
X53994Y-6101D01*
X53339Y-5925D01*
X52661D01*
X52006Y-6101D01*
X51419Y-6440D01*
X51051Y-6808D01*
X50587Y-6661D01*
X50551Y-6635D01*
Y-2449D01*
X42449D01*
Y-9971D01*
X35000D01*
X34415Y-10087D01*
X33918Y-10419D01*
X29888Y-14449D01*
X23949D01*
Y-21971D01*
X22500D01*
X21915Y-22087D01*
X21551Y-22330D01*
X21051Y-22137D01*
Y-14949D01*
X15867D01*
X15676Y-14487D01*
X20405Y-9757D01*
X20436Y-9775D01*
X21467Y-10051D01*
X22533D01*
X23564Y-9775D01*
X24487Y-9242D01*
X25242Y-8488D01*
X25775Y-7564D01*
X26051Y-6533D01*
Y-5467D01*
X25775Y-4436D01*
X25242Y-3512D01*
X25121Y-3391D01*
X25312Y-2929D01*
X26549D01*
X27134Y-2813D01*
X27630Y-2481D01*
X30530Y419D01*
X30862Y915D01*
X30978Y1500D01*
Y1639D01*
X31440Y1831D01*
X31512Y1758D01*
D02*
G37*
G36*
X-135024Y1038D02*
X-135092Y919D01*
X-135268Y264D01*
Y-414D01*
X-135252Y-471D01*
X-139606Y-4825D01*
X-140112Y-4904D01*
X-140699Y-4566D01*
X-141354Y-4390D01*
X-142032D01*
X-142687Y-4566D01*
X-143274Y-4904D01*
X-143753Y-5384D01*
X-144092Y-5971D01*
X-144268Y-6626D01*
Y-7304D01*
X-144092Y-7959D01*
X-143753Y-8546D01*
X-143274Y-9025D01*
X-142687Y-9364D01*
X-142032Y-9540D01*
X-141354D01*
X-140699Y-9364D01*
X-140112Y-9025D01*
X-139632Y-8546D01*
X-139334Y-8029D01*
X-139118D01*
X-138533Y-7913D01*
X-138037Y-7581D01*
X-133089Y-2634D01*
X-133032Y-2650D01*
X-132354D01*
X-131699Y-2474D01*
X-131112Y-2135D01*
X-130632Y-1656D01*
X-130576Y-1559D01*
X-130076Y-1693D01*
Y-10853D01*
X-129960Y-11438D01*
X-129628Y-11934D01*
X-129335Y-12227D01*
X-129335Y-12228D01*
X-128229Y-13333D01*
Y-35154D01*
X-128691Y-35346D01*
X-152419Y-11619D01*
X-152915Y-11287D01*
X-153500Y-11171D01*
X-153666D01*
X-154971Y-9866D01*
Y-6840D01*
X-154509Y-6648D01*
X-154456Y-6701D01*
X-153544Y-7227D01*
X-152527Y-7500D01*
X-151473D01*
X-150456Y-7227D01*
X-149544Y-6701D01*
X-148799Y-5956D01*
X-148273Y-5044D01*
X-148000Y-4027D01*
Y-2973D01*
X-148273Y-1956D01*
X-148799Y-1044D01*
X-149365Y-478D01*
X-149179Y42D01*
X-148442Y115D01*
X-146944Y569D01*
X-145563Y1307D01*
X-145364Y1471D01*
X-135274D01*
X-135024Y1038D01*
D02*
G37*
G36*
X91846Y-6491D02*
X89897Y-8441D01*
X89839Y-8425D01*
X89161D01*
X88506Y-8601D01*
X87919Y-8940D01*
X87440Y-9419D01*
X87101Y-10006D01*
X86925Y-10661D01*
Y-11339D01*
X87101Y-11994D01*
X87440Y-12581D01*
X87919Y-13060D01*
X88506Y-13399D01*
X88920Y-13510D01*
X89087Y-14051D01*
X88166Y-14971D01*
X81399D01*
X81192Y-14471D01*
X89634Y-6029D01*
X91654D01*
X91846Y-6491D01*
D02*
G37*
G36*
X-31481Y319D02*
X-30985Y-13D01*
X-30400Y-129D01*
X-27099D01*
X-26892Y-629D01*
X-27681Y-1419D01*
X-28013Y-1915D01*
X-28129Y-2500D01*
Y-10700D01*
X-28013Y-11285D01*
X-27681Y-11781D01*
X-25476Y-13987D01*
X-25667Y-14449D01*
X-32051D01*
Y-22551D01*
X-24929D01*
Y-25188D01*
X-25391Y-25379D01*
X-25512Y-25258D01*
X-26436Y-24725D01*
X-27467Y-24449D01*
X-28533D01*
X-29564Y-24725D01*
X-30487Y-25258D01*
X-31242Y-26013D01*
X-31360Y-26217D01*
X-31855Y-26282D01*
X-34819Y-23319D01*
X-35315Y-22987D01*
X-35900Y-22871D01*
X-41501D01*
X-41708Y-22371D01*
X-38396Y-19059D01*
X-38339Y-19075D01*
X-37661D01*
X-37006Y-18899D01*
X-36419Y-18560D01*
X-35940Y-18081D01*
X-35601Y-17494D01*
X-35425Y-16839D01*
Y-16161D01*
X-35601Y-15506D01*
X-35940Y-14919D01*
X-36419Y-14440D01*
X-37006Y-14101D01*
X-37661Y-13925D01*
X-38339D01*
X-38994Y-14101D01*
X-39581Y-14440D01*
X-40060Y-14919D01*
X-40399Y-15506D01*
X-40575Y-16161D01*
Y-16839D01*
X-40559Y-16896D01*
X-42723Y-19060D01*
X-43123Y-18753D01*
X-42725Y-18064D01*
X-42449Y-17033D01*
Y-15967D01*
X-42725Y-14936D01*
X-43258Y-14013D01*
X-44012Y-13258D01*
X-44936Y-12725D01*
X-45967Y-12449D01*
X-47033D01*
X-48064Y-12725D01*
X-48987Y-13258D01*
X-49742Y-14013D01*
X-50275Y-14936D01*
X-50551Y-15967D01*
Y-17033D01*
X-50275Y-18064D01*
X-49742Y-18988D01*
X-49307Y-19422D01*
X-49514Y-19922D01*
X-55449D01*
Y-12449D01*
X-63551D01*
Y-15265D01*
X-63781Y-15419D01*
X-64949Y-16586D01*
X-65449Y-16379D01*
Y-15967D01*
X-65725Y-14936D01*
X-66258Y-14013D01*
X-67013Y-13258D01*
X-67936Y-12725D01*
X-68967Y-12449D01*
X-70033D01*
X-71064Y-12725D01*
X-71987Y-13258D01*
X-72742Y-14013D01*
X-73275Y-14936D01*
X-73551Y-15967D01*
Y-16681D01*
X-74051Y-16888D01*
X-78221Y-12719D01*
X-78717Y-12387D01*
X-79302Y-12271D01*
X-81344D01*
X-81446Y-12129D01*
X-81190Y-11629D01*
X-66100D01*
X-65515Y-11513D01*
X-65019Y-11181D01*
X-63388Y-9551D01*
X-57449D01*
Y-2429D01*
X-51043D01*
X-50551Y-2449D01*
X-50551Y-2929D01*
Y-10551D01*
X-42449D01*
X-42449Y-2449D01*
X-41957Y-2429D01*
X-38734D01*
X-37757Y-3405D01*
X-37775Y-3436D01*
X-38051Y-4467D01*
Y-5533D01*
X-37775Y-6564D01*
X-37242Y-7487D01*
X-36487Y-8242D01*
X-35564Y-8775D01*
X-34533Y-9051D01*
X-33467D01*
X-32436Y-8775D01*
X-31512Y-8242D01*
X-30758Y-7487D01*
X-30225Y-6564D01*
X-29949Y-5533D01*
Y-4467D01*
X-30225Y-3436D01*
X-30758Y-2513D01*
X-31512Y-1758D01*
X-32436Y-1225D01*
X-33467Y-949D01*
X-34533D01*
X-35564Y-1225D01*
X-35594Y-1243D01*
X-37019Y181D01*
X-37419Y449D01*
X-37340Y939D01*
X-37336Y949D01*
X-32112D01*
X-31481Y319D01*
D02*
G37*
G36*
X-16051Y-10051D02*
X-10112D01*
X-8254Y-11909D01*
X-8446Y-12371D01*
X-9800D01*
X-10385Y-12487D01*
X-10881Y-12819D01*
X-13012Y-14949D01*
X-21051D01*
Y-23051D01*
X-13929D01*
Y-25688D01*
X-14391Y-25879D01*
X-14513Y-25758D01*
X-15436Y-25225D01*
X-16467Y-24949D01*
X-17533D01*
X-18564Y-25225D01*
X-19488Y-25758D01*
X-20242Y-26513D01*
X-20775Y-27436D01*
X-21051Y-28467D01*
Y-29533D01*
X-20775Y-30564D01*
X-20242Y-31488D01*
X-20148Y-31581D01*
X-20197Y-32079D01*
X-20331Y-32169D01*
X-23534Y-35371D01*
X-24550D01*
X-24702Y-34871D01*
X-24419Y-34681D01*
X-22319Y-32581D01*
X-21987Y-32085D01*
X-21871Y-31500D01*
Y-13900D01*
X-21987Y-13315D01*
X-22319Y-12819D01*
X-25071Y-10067D01*
Y-9312D01*
X-24609Y-9121D01*
X-24487Y-9242D01*
X-23564Y-9775D01*
X-22533Y-10051D01*
X-21467D01*
X-20436Y-9775D01*
X-19512Y-9242D01*
X-18758Y-8488D01*
X-18225Y-7564D01*
X-17949Y-6533D01*
Y-5467D01*
X-18225Y-4436D01*
X-18758Y-3512D01*
X-18879Y-3391D01*
X-18688Y-2929D01*
X-16051D01*
Y-10051D01*
D02*
G37*
G36*
X7949Y-8967D02*
Y-10051D01*
X15133D01*
X15324Y-10513D01*
X12867Y-12971D01*
X12400D01*
X11815Y-13087D01*
X11319Y-13419D01*
X10987Y-13915D01*
X10871Y-14500D01*
Y-14654D01*
X10409Y-14846D01*
X6381Y-10819D01*
X6244Y-10726D01*
X6180Y-10083D01*
X7487Y-8776D01*
X7949Y-8967D01*
D02*
G37*
G36*
X43741Y-13529D02*
X43258Y-14013D01*
X42725Y-14936D01*
X42449Y-15967D01*
Y-17033D01*
X42725Y-18064D01*
X43258Y-18988D01*
X44012Y-19742D01*
X44936Y-20275D01*
X45967Y-20551D01*
X47033D01*
X48064Y-20275D01*
X48987Y-19742D01*
X49742Y-18988D01*
X50275Y-18064D01*
X50284Y-18029D01*
X50724D01*
X51309Y-17913D01*
X51805Y-17581D01*
X54987Y-14400D01*
X55449Y-14591D01*
Y-20551D01*
X61388D01*
X63308Y-22471D01*
X63101Y-22971D01*
X55885D01*
X55333Y-22419D01*
X54836Y-22087D01*
X54251Y-21971D01*
X32051D01*
Y-16612D01*
X35634Y-13029D01*
X43534D01*
X43741Y-13529D01*
D02*
G37*
G36*
X-90719Y-7509D02*
X-90868Y-8067D01*
X-90994Y-8101D01*
X-91581Y-8440D01*
X-92060Y-8919D01*
X-92399Y-9506D01*
X-92575Y-10161D01*
Y-10839D01*
X-92399Y-11494D01*
X-92060Y-12081D01*
X-91581Y-12560D01*
X-90994Y-12899D01*
X-90339Y-13075D01*
X-89661D01*
X-89604Y-13059D01*
X-86030Y-16633D01*
Y-17499D01*
X-85914Y-18084D01*
X-85582Y-18580D01*
X-81842Y-22321D01*
X-81841Y-22462D01*
X-81972Y-22847D01*
X-82426Y-22937D01*
X-82922Y-23269D01*
X-83149Y-23496D01*
X-85941D01*
X-97471Y-11966D01*
Y-11090D01*
X-97419Y-11060D01*
X-96940Y-10581D01*
X-96601Y-9994D01*
X-96425Y-9339D01*
Y-8661D01*
X-96601Y-8006D01*
X-96876Y-7529D01*
X-96689Y-7029D01*
X-91199D01*
X-90719Y-7509D01*
D02*
G37*
G36*
X98121Y-10491D02*
X91193Y-17419D01*
X90862Y-17915D01*
X90745Y-18500D01*
Y-23270D01*
X87370Y-26645D01*
X83188D01*
X80821Y-24278D01*
X80903Y-23653D01*
X81083Y-23549D01*
X81563Y-23070D01*
X81902Y-22483D01*
X82077Y-21828D01*
Y-21150D01*
X81902Y-20495D01*
X81563Y-19908D01*
X81083Y-19429D01*
X80496Y-19090D01*
X79841Y-18914D01*
X79163D01*
X78508Y-19090D01*
X77921Y-19429D01*
X77442Y-19908D01*
X77192Y-20341D01*
X71950D01*
X71816Y-19841D01*
X71987Y-19742D01*
X72742Y-18988D01*
X73275Y-18064D01*
X73284Y-18029D01*
X88800D01*
X89385Y-17913D01*
X89881Y-17581D01*
X97434Y-10029D01*
X97929D01*
X98121Y-10491D01*
D02*
G37*
G36*
X109495Y-20529D02*
X102866Y-27158D01*
X102466Y-26851D01*
X102499Y-26794D01*
X102675Y-26139D01*
Y-25461D01*
X102499Y-24806D01*
X102160Y-24219D01*
X101681Y-23740D01*
X101094Y-23401D01*
X100439Y-23225D01*
X99761D01*
X99106Y-23401D01*
X98519Y-23740D01*
X98040Y-24219D01*
X97701Y-24806D01*
X97525Y-25461D01*
Y-26139D01*
X97541Y-26197D01*
X96304Y-27433D01*
X95804Y-27226D01*
Y-21834D01*
X97608Y-20029D01*
X109288D01*
X109495Y-20529D01*
D02*
G37*
G36*
X-103729Y-14300D02*
X-103613Y-14885D01*
X-103281Y-15381D01*
X-95229Y-23434D01*
Y-25410D01*
X-95281Y-25440D01*
X-95760Y-25919D01*
X-96099Y-26506D01*
X-96275Y-27161D01*
Y-27656D01*
X-96599Y-28008D01*
X-96729Y-28076D01*
X-96802Y-28061D01*
X-107500D01*
X-108085Y-28178D01*
X-108581Y-28509D01*
X-110626Y-30554D01*
X-110957Y-31050D01*
X-111074Y-31635D01*
Y-32411D01*
X-111603Y-32941D01*
X-111661Y-32925D01*
X-112339D01*
X-112994Y-33101D01*
X-113112Y-33169D01*
X-113545Y-32919D01*
Y-8620D01*
X-112954Y-8029D01*
X-103729D01*
Y-14300D01*
D02*
G37*
G36*
X1243Y-16905D02*
X1225Y-16936D01*
X949Y-17967D01*
Y-19033D01*
X1225Y-20064D01*
X1758Y-20988D01*
X2513Y-21742D01*
X3436Y-22275D01*
X4467Y-22551D01*
X5533D01*
X6564Y-22275D01*
X7487Y-21742D01*
X7871Y-21359D01*
X8371Y-21566D01*
Y-27934D01*
X7871Y-28141D01*
X7487Y-27758D01*
X6564Y-27225D01*
X5533Y-26949D01*
X4467D01*
X3436Y-27225D01*
X2513Y-27758D01*
X1758Y-28512D01*
X1629Y-28736D01*
X1129Y-28602D01*
Y-23100D01*
X1013Y-22515D01*
X681Y-22019D01*
X-949Y-20388D01*
Y-15429D01*
X-234D01*
X1243Y-16905D01*
D02*
G37*
G36*
X154812Y-14748D02*
X154389Y-19042D01*
X153269Y-26595D01*
X151779Y-34083D01*
X149924Y-41489D01*
X147707Y-48796D01*
X145135Y-55985D01*
X142213Y-63039D01*
X138949Y-69941D01*
X135350Y-76675D01*
X131424Y-83223D01*
X127182Y-89572D01*
X122634Y-95705D01*
X117790Y-101607D01*
X112663Y-107264D01*
X107264Y-112663D01*
X101607Y-117790D01*
X95705Y-122634D01*
X89572Y-127182D01*
X83223Y-131424D01*
X76675Y-135350D01*
X69941Y-138949D01*
X63039Y-142213D01*
X55985Y-145135D01*
X48796Y-147707D01*
X41489Y-149924D01*
X34083Y-151779D01*
X26595Y-153269D01*
X19042Y-154389D01*
X11444Y-155137D01*
X3818Y-155512D01*
X-3818D01*
X-7116Y-155350D01*
X-7313Y-154840D01*
X1798Y-145729D01*
X5907D01*
X6114Y-146229D01*
X5799Y-146544D01*
X5273Y-147456D01*
X5000Y-148473D01*
Y-149527D01*
X5273Y-150544D01*
X5799Y-151456D01*
X6544Y-152201D01*
X7456Y-152727D01*
X8473Y-153000D01*
X9527D01*
X10544Y-152727D01*
X11456Y-152201D01*
X12201Y-151456D01*
X12727Y-150544D01*
X13000Y-149527D01*
Y-148473D01*
X12727Y-147456D01*
X12201Y-146544D01*
X11886Y-146229D01*
X12093Y-145729D01*
X19700D01*
X20285Y-145613D01*
X20781Y-145281D01*
X23122Y-142941D01*
X23799D01*
X23919Y-143060D01*
X24506Y-143399D01*
X25161Y-143575D01*
X25839D01*
X26494Y-143399D01*
X27081Y-143060D01*
X27560Y-142581D01*
X27899Y-141994D01*
X28075Y-141339D01*
Y-140661D01*
X27899Y-140006D01*
X27560Y-139419D01*
X27081Y-138940D01*
X26494Y-138601D01*
X25839Y-138425D01*
X25161D01*
X24506Y-138601D01*
X23919Y-138940D01*
X23440Y-139419D01*
X23173Y-139882D01*
X22489D01*
X21903Y-139998D01*
X21407Y-140330D01*
X19067Y-142671D01*
X2113D01*
X1863Y-142238D01*
X1899Y-142175D01*
X2032Y-141681D01*
X-3032D01*
X-2899Y-142175D01*
X-2560Y-142762D01*
X-2081Y-143241D01*
X-1494Y-143580D01*
X-1172Y-143667D01*
X-1023Y-144224D01*
X-6038Y-149239D01*
X-6500Y-149048D01*
Y-148973D01*
X-6773Y-147956D01*
X-7299Y-147044D01*
X-8044Y-146299D01*
X-8956Y-145773D01*
X-8971Y-145769D01*
Y-144400D01*
X-9087Y-143815D01*
X-9419Y-143319D01*
X-12419Y-140319D01*
X-12915Y-139987D01*
X-13500Y-139871D01*
X-56867D01*
X-58546Y-138191D01*
X-58354Y-137729D01*
X-43791D01*
X-43205Y-137613D01*
X-42709Y-137281D01*
X-42457Y-137029D01*
X-29090D01*
X-29060Y-137081D01*
X-28581Y-137560D01*
X-27994Y-137899D01*
X-27339Y-138075D01*
X-26661D01*
X-26006Y-137899D01*
X-25419Y-137560D01*
X-24940Y-137081D01*
X-24601Y-136494D01*
X-24425Y-135839D01*
Y-135161D01*
X-24601Y-134506D01*
X-24940Y-133919D01*
X-25029Y-133829D01*
X-24822Y-133329D01*
X-24234D01*
X-21481Y-136081D01*
X-20985Y-136413D01*
X-20400Y-136529D01*
X-10090D01*
X-10060Y-136581D01*
X-9581Y-137060D01*
X-8994Y-137399D01*
X-8339Y-137575D01*
X-7661D01*
X-7006Y-137399D01*
X-6419Y-137060D01*
X-5940Y-136581D01*
X-5601Y-135994D01*
X-5425Y-135339D01*
Y-134661D01*
X-5601Y-134006D01*
X-5940Y-133419D01*
X-6419Y-132940D01*
X-7006Y-132601D01*
X-7661Y-132425D01*
X-8339D01*
X-8994Y-132601D01*
X-9581Y-132940D01*
X-10060Y-133419D01*
X-10090Y-133471D01*
X-19767D01*
X-21446Y-131791D01*
X-21254Y-131329D01*
X-13312D01*
X-13081Y-131560D01*
X-12494Y-131899D01*
X-11839Y-132075D01*
X-11161D01*
X-10506Y-131899D01*
X-9919Y-131560D01*
X-9440Y-131081D01*
X-9101Y-130494D01*
X-8925Y-129839D01*
Y-129161D01*
X-9101Y-128506D01*
X-9304Y-128155D01*
X-9025Y-127655D01*
X-3508D01*
X4622Y-135784D01*
X4606Y-135842D01*
Y-136520D01*
X4782Y-137175D01*
X5121Y-137762D01*
X5600Y-138241D01*
X6187Y-138580D01*
X6842Y-138756D01*
X7520D01*
X8175Y-138580D01*
X8762Y-138241D01*
X9241Y-137762D01*
X9580Y-137175D01*
X9756Y-136520D01*
Y-135842D01*
X9580Y-135187D01*
X9241Y-134600D01*
X8762Y-134121D01*
X8175Y-133782D01*
X7520Y-133606D01*
X6842D01*
X6785Y-133622D01*
X-1793Y-125044D01*
X-2290Y-124712D01*
X-2875Y-124596D01*
X-20441D01*
X-24719Y-120319D01*
X-25215Y-119987D01*
X-25800Y-119871D01*
X-47483D01*
X-47561Y-119755D01*
X-47293Y-119255D01*
X-25150D01*
X-24565Y-119138D01*
X-24069Y-118807D01*
X-20844Y-115581D01*
X-20512Y-115085D01*
X-20425Y-114645D01*
X-19940Y-114423D01*
X-17850Y-116513D01*
X-17354Y-116845D01*
X-16768Y-116961D01*
X-15202D01*
X-13559Y-118604D01*
X-13575Y-118661D01*
Y-119339D01*
X-13399Y-119994D01*
X-13060Y-120581D01*
X-12581Y-121060D01*
X-11994Y-121399D01*
X-11339Y-121575D01*
X-10661D01*
X-10006Y-121399D01*
X-9419Y-121060D01*
X-8940Y-120581D01*
X-8601Y-119994D01*
X-8425Y-119339D01*
Y-118661D01*
X-8601Y-118006D01*
X-8940Y-117419D01*
X-9419Y-116940D01*
X-10006Y-116601D01*
X-10661Y-116425D01*
X-11339D01*
X-11396Y-116441D01*
X-13487Y-114350D01*
X-13983Y-114019D01*
X-14568Y-113902D01*
X-16135D01*
X-18396Y-111641D01*
Y-94210D01*
X-17934Y-94019D01*
X-13394Y-98559D01*
Y-99252D01*
X-13560Y-99419D01*
X-13899Y-100006D01*
X-14075Y-100661D01*
Y-101339D01*
X-13899Y-101994D01*
X-13560Y-102581D01*
X-13081Y-103060D01*
X-12494Y-103399D01*
X-11839Y-103575D01*
X-11161D01*
X-10506Y-103399D01*
X-9919Y-103060D01*
X-9440Y-102581D01*
X-9101Y-101994D01*
X-8925Y-101339D01*
Y-100661D01*
X-9101Y-100006D01*
X-9440Y-99419D01*
X-9919Y-98940D01*
X-10335Y-98699D01*
Y-97925D01*
X-10395Y-97625D01*
X-9934Y-97379D01*
X-8581Y-98731D01*
X-8085Y-99063D01*
X-7500Y-99179D01*
X1960D01*
X1990Y-99231D01*
X2469Y-99710D01*
X3056Y-100049D01*
X3711Y-100225D01*
X4389D01*
X5044Y-100049D01*
X5631Y-99710D01*
X6110Y-99231D01*
X6449Y-98644D01*
X6539Y-98309D01*
X7097Y-98160D01*
X8371Y-99433D01*
Y-114091D01*
X8319Y-114121D01*
X7840Y-114600D01*
X7501Y-115187D01*
X7325Y-115842D01*
Y-116520D01*
X7501Y-117175D01*
X7840Y-117762D01*
X8319Y-118241D01*
X8906Y-118580D01*
X9561Y-118756D01*
X10239D01*
X10894Y-118580D01*
X11481Y-118241D01*
X11960Y-117762D01*
X12299Y-117175D01*
X12475Y-116520D01*
Y-115842D01*
X12299Y-115187D01*
X11960Y-114600D01*
X11481Y-114121D01*
X11429Y-114091D01*
Y-98800D01*
X11313Y-98215D01*
X10981Y-97719D01*
X4526Y-91263D01*
X4785Y-90815D01*
X4961Y-90862D01*
X5639D01*
X6294Y-90687D01*
X6881Y-90348D01*
X7360Y-89868D01*
X7699Y-89281D01*
X7720Y-89203D01*
X8260Y-89119D01*
X8470Y-89433D01*
X25471Y-106433D01*
Y-117410D01*
X25419Y-117440D01*
X24940Y-117919D01*
X24601Y-118506D01*
X24425Y-119161D01*
Y-119839D01*
X24601Y-120494D01*
X24940Y-121081D01*
X25419Y-121560D01*
X26006Y-121899D01*
X26661Y-122075D01*
X27339D01*
X27994Y-121899D01*
X28581Y-121560D01*
X29060Y-121081D01*
X29399Y-120494D01*
X29575Y-119839D01*
Y-119161D01*
X29399Y-118506D01*
X29060Y-117919D01*
X28581Y-117440D01*
X28529Y-117410D01*
Y-105800D01*
X28413Y-105215D01*
X28081Y-104719D01*
X25380Y-102017D01*
X25639Y-101569D01*
X25661Y-101575D01*
X26339D01*
X26994Y-101399D01*
X27581Y-101060D01*
X28060Y-100581D01*
X28399Y-99994D01*
X28575Y-99339D01*
Y-98661D01*
X28496Y-98366D01*
X28944Y-98107D01*
X29441Y-98603D01*
X29425Y-98661D01*
Y-99339D01*
X29601Y-99994D01*
X29940Y-100581D01*
X30419Y-101060D01*
X31006Y-101399D01*
X31661Y-101575D01*
X32064D01*
X32145Y-101674D01*
Y-120692D01*
X30896Y-121941D01*
X30839Y-121925D01*
X30161D01*
X29506Y-122101D01*
X28919Y-122440D01*
X28440Y-122919D01*
X28101Y-123506D01*
X27925Y-124161D01*
Y-124839D01*
X28101Y-125494D01*
X28440Y-126081D01*
X28919Y-126560D01*
X29506Y-126899D01*
X30161Y-127075D01*
X30839D01*
X31494Y-126899D01*
X32081Y-126560D01*
X32560Y-126081D01*
X32899Y-125494D01*
X33075Y-124839D01*
Y-124161D01*
X33059Y-124103D01*
X34756Y-122407D01*
X35088Y-121911D01*
X35204Y-121325D01*
Y-105038D01*
X35704Y-104786D01*
X36092Y-105010D01*
X36747Y-105186D01*
X37425D01*
X38080Y-105010D01*
X38667Y-104671D01*
X39146Y-104192D01*
X39485Y-103605D01*
X39661Y-102950D01*
Y-102272D01*
X39485Y-101617D01*
X39146Y-101030D01*
X38667Y-100551D01*
X38615Y-100521D01*
Y-81586D01*
X38499Y-81001D01*
X38167Y-80504D01*
X28250Y-70587D01*
X28492Y-70122D01*
X28719Y-70162D01*
X29781Y-70069D01*
X30472Y-69818D01*
X45736Y-85081D01*
X46232Y-85413D01*
X46817Y-85529D01*
X88054D01*
X88246Y-85991D01*
X50019Y-124219D01*
X49687Y-124715D01*
X49571Y-125300D01*
Y-134725D01*
X49174Y-135029D01*
X48873Y-134949D01*
X47807D01*
X46776Y-135225D01*
X45852Y-135758D01*
X45098Y-136512D01*
X44565Y-137436D01*
X44289Y-138467D01*
Y-139533D01*
X44565Y-140564D01*
X45098Y-141488D01*
X45852Y-142242D01*
X46776Y-142775D01*
X47807Y-143051D01*
X48873D01*
X49904Y-142775D01*
X50827Y-142242D01*
X51582Y-141488D01*
X52115Y-140564D01*
X52391Y-139533D01*
Y-138467D01*
X52115Y-137436D01*
X52097Y-137406D01*
X52181Y-137321D01*
X52513Y-136825D01*
X52629Y-136240D01*
Y-135498D01*
X53112Y-135369D01*
X55517Y-139534D01*
X62534Y-135483D01*
X58483Y-128466D01*
X53062Y-131596D01*
X52629Y-131345D01*
Y-125934D01*
X98639Y-79924D01*
X100343D01*
X100928Y-79807D01*
X101231Y-80206D01*
X77719Y-103719D01*
X77387Y-104215D01*
X77271Y-104800D01*
Y-118767D01*
X77033Y-118949D01*
X75967D01*
X74936Y-119225D01*
X74013Y-119758D01*
X73258Y-120512D01*
X72725Y-121436D01*
X72449Y-122467D01*
Y-123533D01*
X72725Y-124564D01*
X73258Y-125487D01*
X74013Y-126242D01*
X74936Y-126775D01*
X75967Y-127051D01*
X77033D01*
X78064Y-126775D01*
X78987Y-126242D01*
X79742Y-125487D01*
X80275Y-124564D01*
X80551Y-123533D01*
Y-122467D01*
X80275Y-121436D01*
X80199Y-121305D01*
X80213Y-121285D01*
X80329Y-120700D01*
Y-118701D01*
X80812Y-118572D01*
X83677Y-123534D01*
X90694Y-119483D01*
X86643Y-112466D01*
X80762Y-115861D01*
X80329Y-115611D01*
Y-105433D01*
X125081Y-60681D01*
X125413Y-60185D01*
X125529Y-59600D01*
Y-34528D01*
X126029Y-34478D01*
X126087Y-34768D01*
X126419Y-35264D01*
X136182Y-45028D01*
X135931Y-45719D01*
X135838Y-46781D01*
X136023Y-47832D01*
X136474Y-48798D01*
X137160Y-49616D01*
X138033Y-50227D01*
X139036Y-50592D01*
X140098Y-50685D01*
X141149Y-50500D01*
X142116Y-50049D01*
X142933Y-49364D01*
X143545Y-48490D01*
X143910Y-47487D01*
X144002Y-46425D01*
X143817Y-45374D01*
X143366Y-44407D01*
X142681Y-43590D01*
X141807Y-42979D01*
X140805Y-42614D01*
X139742Y-42521D01*
X138691Y-42706D01*
X138347Y-42867D01*
X129029Y-33549D01*
Y-31633D01*
X131604Y-29059D01*
X131661Y-29075D01*
X132339D01*
X132994Y-28899D01*
X133581Y-28560D01*
X134060Y-28081D01*
X134399Y-27494D01*
X134575Y-26839D01*
Y-26161D01*
X134399Y-25506D01*
X134060Y-24919D01*
X133581Y-24440D01*
X132994Y-24101D01*
X132339Y-23925D01*
X131661D01*
X131006Y-24101D01*
X130419Y-24440D01*
X129940Y-24919D01*
X129601Y-25506D01*
X129425Y-26161D01*
Y-26839D01*
X129441Y-26897D01*
X126419Y-29919D01*
X126087Y-30415D01*
X126029Y-30705D01*
X125529Y-30655D01*
Y-29090D01*
X125581Y-29060D01*
X126060Y-28581D01*
X126399Y-27994D01*
X126575Y-27339D01*
Y-26661D01*
X126399Y-26006D01*
X126060Y-25419D01*
X125581Y-24940D01*
X124994Y-24601D01*
X124339Y-24425D01*
X123661D01*
X123006Y-24601D01*
X122419Y-24940D01*
X121940Y-25419D01*
X121601Y-26006D01*
X121425Y-26661D01*
Y-27339D01*
X121601Y-27994D01*
X121940Y-28581D01*
X122419Y-29060D01*
X122471Y-29090D01*
Y-58966D01*
X121187Y-60250D01*
X120788Y-59948D01*
X120904Y-59362D01*
Y-28956D01*
X120788Y-28371D01*
X120456Y-27875D01*
X119937Y-27355D01*
X120075Y-26839D01*
Y-26161D01*
X119899Y-25506D01*
X119560Y-24919D01*
X119081Y-24440D01*
X118494Y-24101D01*
X117839Y-23925D01*
X117161D01*
X116506Y-24101D01*
X115919Y-24440D01*
X115440Y-24919D01*
X115101Y-25506D01*
X114925Y-26161D01*
Y-26839D01*
X115101Y-27494D01*
X115440Y-28081D01*
X115919Y-28560D01*
X116506Y-28899D01*
X117161Y-29075D01*
X117330D01*
X117845Y-29590D01*
Y-30994D01*
X117412Y-31244D01*
X117294Y-31176D01*
X116639Y-31000D01*
X115961D01*
X115306Y-31176D01*
X114719Y-31514D01*
X114240Y-31994D01*
X114210Y-32045D01*
X106594D01*
X106403Y-31583D01*
X109254Y-28733D01*
X109600Y-29079D01*
X110187Y-29418D01*
X110842Y-29594D01*
X111520D01*
X112175Y-29418D01*
X112762Y-29079D01*
X113242Y-28600D01*
X113581Y-28013D01*
X113756Y-27358D01*
Y-26680D01*
X113581Y-26025D01*
X113242Y-25438D01*
X112762Y-24958D01*
X112175Y-24620D01*
X111520Y-24444D01*
X110842D01*
X110530Y-24528D01*
X110271Y-24080D01*
X111421Y-22929D01*
X136700D01*
X137285Y-22813D01*
X137781Y-22481D01*
X145933Y-14329D01*
X154350D01*
X154812Y-14748D01*
D02*
G37*
G36*
X36449Y-33051D02*
X42388D01*
X44019Y-34681D01*
X44515Y-35013D01*
X45100Y-35129D01*
X53300D01*
X53885Y-35013D01*
X54381Y-34681D01*
X59034Y-30029D01*
X61369D01*
X61566Y-30529D01*
X61146Y-30920D01*
X60581Y-31825D01*
X60269Y-32845D01*
X60232Y-33911D01*
X60472Y-34951D01*
X60639Y-35264D01*
X60260Y-35617D01*
X59270Y-34999D01*
X59151Y-34953D01*
X59045Y-34883D01*
X58874Y-34849D01*
X58712Y-34787D01*
X58584Y-34791D01*
X58459Y-34766D01*
X57408D01*
X56823Y-34883D01*
X56327Y-35214D01*
X55766Y-35774D01*
X55670Y-35919D01*
X55551Y-36046D01*
X55223Y-36571D01*
X39298D01*
X39185Y-36536D01*
X37999Y-36419D01*
X36813Y-36536D01*
X36700Y-36571D01*
X17534D01*
X13929Y-32967D01*
Y-32312D01*
X14391Y-32121D01*
X14513Y-32242D01*
X15436Y-32775D01*
X16467Y-33051D01*
X17533D01*
X18564Y-32775D01*
X19488Y-32242D01*
X20242Y-31488D01*
X20775Y-30564D01*
X21051Y-29533D01*
Y-28467D01*
X20775Y-27436D01*
X20757Y-27406D01*
X23133Y-25029D01*
X25034D01*
X25241Y-25529D01*
X24758Y-26013D01*
X24225Y-26936D01*
X23949Y-27967D01*
Y-29033D01*
X24225Y-30064D01*
X24758Y-30988D01*
X25512Y-31742D01*
X26436Y-32275D01*
X27467Y-32551D01*
X28533D01*
X29564Y-32275D01*
X30487Y-31742D01*
X31242Y-30988D01*
X31775Y-30064D01*
X32051Y-29033D01*
Y-27967D01*
X31775Y-26936D01*
X31242Y-26013D01*
X30759Y-25529D01*
X30966Y-25029D01*
X36449D01*
Y-33051D01*
D02*
G37*
G36*
X-53621Y-26391D02*
X-53742Y-26513D01*
X-54275Y-27436D01*
X-54551Y-28467D01*
Y-29533D01*
X-54275Y-30564D01*
X-53742Y-31488D01*
X-53621Y-31609D01*
X-53812Y-32071D01*
X-57943D01*
X-58529Y-32187D01*
X-59025Y-32519D01*
X-59795Y-33289D01*
X-60260Y-33105D01*
X-60269Y-32845D01*
X-60581Y-31825D01*
X-61146Y-30920D01*
X-61926Y-30193D01*
X-62868Y-29692D01*
X-63908Y-29452D01*
X-64974Y-29489D01*
X-65994Y-29801D01*
X-66898Y-30367D01*
X-67626Y-31147D01*
X-68127Y-32089D01*
X-68366Y-33128D01*
X-68329Y-34194D01*
X-68017Y-35214D01*
X-67922Y-35367D01*
X-68238Y-35840D01*
X-68333Y-36318D01*
X-68620Y-36467D01*
X-68855Y-36504D01*
X-68919Y-36440D01*
X-69506Y-36101D01*
X-70161Y-35925D01*
X-70839D01*
X-71494Y-36101D01*
X-72081Y-36440D01*
X-72650Y-36437D01*
X-72768Y-36319D01*
X-72804Y-35946D01*
X-72765Y-35907D01*
X-72426Y-35320D01*
X-72251Y-34665D01*
Y-33987D01*
X-72426Y-33332D01*
X-72765Y-32745D01*
X-73245Y-32265D01*
X-73832Y-31927D01*
X-74487Y-31751D01*
X-75165D01*
X-75546Y-31853D01*
X-75952Y-31446D01*
X-75850Y-31065D01*
Y-30387D01*
X-76026Y-29733D01*
X-76186Y-29455D01*
X-75898Y-28955D01*
X-71225D01*
X-70640Y-28838D01*
X-70144Y-28507D01*
X-69552Y-27915D01*
X-61885D01*
X-61300Y-27798D01*
X-60804Y-27467D01*
X-59267Y-25929D01*
X-53812D01*
X-53621Y-26391D01*
D02*
G37*
G36*
X-108325Y-34695D02*
X-108160Y-34981D01*
X-107681Y-35460D01*
X-107094Y-35799D01*
X-106439Y-35975D01*
X-105761D01*
X-105106Y-35799D01*
X-104519Y-35460D01*
X-104040Y-34981D01*
X-104010Y-34929D01*
X-99703D01*
X-99496Y-35429D01*
X-99660Y-35594D01*
X-99999Y-36181D01*
X-100175Y-36836D01*
Y-37514D01*
X-99999Y-38169D01*
X-99660Y-38756D01*
X-99181Y-39235D01*
X-98594Y-39574D01*
X-97939Y-39750D01*
X-97261D01*
X-96606Y-39574D01*
X-96019Y-39235D01*
X-95540Y-38756D01*
X-95510Y-38704D01*
X-85864D01*
X-85701Y-38814D01*
X-85115Y-38930D01*
X-74483D01*
X-74242Y-39170D01*
X-73746Y-39502D01*
X-73161Y-39618D01*
X-72828D01*
X-72581Y-40045D01*
X-72650Y-40307D01*
X-72749Y-40545D01*
X-78775D01*
X-79360Y-40662D01*
X-79856Y-40993D01*
X-79904Y-41041D01*
X-79961Y-41025D01*
X-80639D01*
X-81294Y-41201D01*
X-81881Y-41540D01*
X-82360Y-42019D01*
X-82699Y-42606D01*
X-82875Y-43261D01*
Y-43939D01*
X-82699Y-44594D01*
X-82616Y-44738D01*
X-82866Y-45171D01*
X-96166D01*
X-98841Y-42496D01*
X-98825Y-42439D01*
Y-41761D01*
X-99001Y-41106D01*
X-99340Y-40519D01*
X-99819Y-40040D01*
X-100406Y-39701D01*
X-101061Y-39525D01*
X-101739D01*
X-102394Y-39701D01*
X-102981Y-40040D01*
X-103460Y-40519D01*
X-103799Y-41106D01*
X-103975Y-41761D01*
Y-42439D01*
X-103799Y-43094D01*
X-103460Y-43681D01*
X-102981Y-44160D01*
X-102394Y-44499D01*
X-101739Y-44675D01*
X-101061D01*
X-101004Y-44659D01*
X-97881Y-47781D01*
X-97385Y-48113D01*
X-96800Y-48229D01*
X-70125D01*
X-69540Y-48113D01*
X-69044Y-47781D01*
X-63942Y-42680D01*
X-63336Y-42705D01*
X-62772Y-43609D01*
X-81509Y-62346D01*
X-81971Y-62154D01*
Y-60688D01*
X-82087Y-60103D01*
X-82419Y-59607D01*
X-89413Y-52613D01*
X-89909Y-52281D01*
X-90494Y-52165D01*
X-108773D01*
X-113545Y-47392D01*
Y-38081D01*
X-113112Y-37831D01*
X-112994Y-37899D01*
X-112339Y-38075D01*
X-111661D01*
X-111006Y-37899D01*
X-110419Y-37560D01*
X-109940Y-37081D01*
X-109601Y-36494D01*
X-109425Y-35839D01*
Y-35161D01*
X-109441Y-35103D01*
X-108938Y-34601D01*
X-108325Y-34695D01*
D02*
G37*
G36*
X114240Y-35156D02*
X114719Y-35635D01*
X115306Y-35974D01*
X115961Y-36150D01*
X116639D01*
X117294Y-35974D01*
X117412Y-35906D01*
X117845Y-36156D01*
Y-52933D01*
X117345Y-53140D01*
X107035Y-42831D01*
X106539Y-42499D01*
X105954Y-42383D01*
X99129D01*
X99001Y-42204D01*
X99257Y-41704D01*
X103641D01*
X104227Y-41588D01*
X104723Y-41256D01*
X105852Y-40127D01*
X105910Y-40142D01*
X106588D01*
X107242Y-39967D01*
X107830Y-39628D01*
X108309Y-39148D01*
X108648Y-38561D01*
X108823Y-37906D01*
Y-37228D01*
X108648Y-36574D01*
X108309Y-35986D01*
X107927Y-35604D01*
X108038Y-35200D01*
X108103Y-35104D01*
X114210D01*
X114240Y-35156D01*
D02*
G37*
G36*
X-9051Y-16021D02*
Y-22551D01*
X-3112D01*
X-1929Y-23733D01*
Y-26949D01*
X-9051D01*
Y-35051D01*
X-949D01*
Y-34467D01*
X-487Y-34276D01*
X5514Y-40277D01*
X5478Y-40589D01*
X5430Y-40654D01*
X4995Y-40949D01*
X4600Y-40871D01*
X-4600D01*
X-5185Y-40987D01*
X-5681Y-41319D01*
X-6334Y-41971D01*
X-10449D01*
Y-39449D01*
X-16033D01*
X-16224Y-38987D01*
X-11319Y-34081D01*
X-10987Y-33585D01*
X-10871Y-33000D01*
Y-17133D01*
X-9551Y-15814D01*
X-9051Y-16021D01*
D02*
G37*
G36*
X-14279Y-32684D02*
X-14274Y-32711D01*
X-21533Y-39971D01*
X-31449D01*
X-32034Y-40087D01*
X-32530Y-40419D01*
X-33623Y-41511D01*
X-34106Y-41381D01*
X-34225Y-40936D01*
X-34758Y-40012D01*
X-35513Y-39258D01*
X-36082Y-38929D01*
X-35948Y-38429D01*
X-22900D01*
X-22315Y-38313D01*
X-21819Y-37981D01*
X-18617Y-34779D01*
X-17750D01*
X-17165Y-34663D01*
X-16669Y-34331D01*
X-15919Y-33581D01*
X-15587Y-33085D01*
X-15530Y-32800D01*
X-15436Y-32775D01*
X-14839Y-32430D01*
X-14279Y-32684D01*
D02*
G37*
G36*
X-39918Y-38929D02*
X-40488Y-39258D01*
X-41242Y-40012D01*
X-41775Y-40936D01*
X-41784Y-40971D01*
X-49571D01*
X-50157Y-41087D01*
X-50653Y-41419D01*
X-51239Y-42004D01*
X-51273Y-42055D01*
X-51666Y-41966D01*
X-51766Y-41929D01*
Y-40904D01*
X-51883Y-40319D01*
X-52214Y-39823D01*
X-52237Y-39800D01*
X-50867Y-38429D01*
X-40052D01*
X-39918Y-38929D01*
D02*
G37*
G36*
X55431Y-40067D02*
X53418Y-43289D01*
X54189Y-43771D01*
X54045Y-44271D01*
X42213D01*
X42187Y-44259D01*
X41879Y-43893D01*
X41847Y-43791D01*
X42050Y-43033D01*
Y-41967D01*
X41774Y-40936D01*
X41308Y-40129D01*
X41500Y-39629D01*
X55189D01*
X55431Y-40067D01*
D02*
G37*
G36*
X34690Y-40129D02*
X34224Y-40936D01*
X33948Y-41967D01*
Y-43033D01*
X34224Y-44064D01*
X34757Y-44987D01*
X35240Y-45471D01*
X35033Y-45971D01*
X33134D01*
X30821Y-41966D01*
X23805Y-46017D01*
X25634Y-49186D01*
X25431Y-49458D01*
X25282Y-49577D01*
X24749Y-49471D01*
X23133D01*
X18551Y-44888D01*
Y-39629D01*
X34497D01*
X34690Y-40129D01*
D02*
G37*
G36*
X-18551Y-41967D02*
Y-46522D01*
X-19059D01*
X-23667Y-46274D01*
X-23806Y-46017D01*
Y-46017D01*
X-28144Y-43512D01*
X-28015Y-43029D01*
X-20900D01*
X-20315Y-42913D01*
X-19819Y-42581D01*
X-19013Y-41776D01*
X-18551Y-41967D01*
D02*
G37*
G36*
X114857Y-54978D02*
X114832Y-55219D01*
X114744Y-55318D01*
X114311Y-55552D01*
X113839Y-55425D01*
X113161D01*
X112506Y-55601D01*
X111919Y-55940D01*
X111440Y-56419D01*
X111410Y-56471D01*
X108706D01*
X108121Y-56587D01*
X107624Y-56919D01*
X92072Y-72471D01*
X53690D01*
X53660Y-72419D01*
X53181Y-71940D01*
X52594Y-71601D01*
X51939Y-71425D01*
X51261D01*
X50606Y-71601D01*
X50019Y-71940D01*
X49540Y-72419D01*
X49201Y-73006D01*
X49025Y-73661D01*
Y-74339D01*
X49201Y-74994D01*
X49418Y-75371D01*
X49158Y-75871D01*
X48494D01*
X35572Y-63636D01*
X35897Y-63255D01*
X39499Y-66007D01*
X39638Y-66075D01*
X39761Y-66168D01*
X39903Y-66205D01*
X40035Y-66270D01*
X40189Y-66279D01*
X40338Y-66318D01*
X57138Y-67305D01*
X57240Y-67481D01*
X57719Y-67960D01*
X58306Y-68299D01*
X58961Y-68475D01*
X59639D01*
X60294Y-68299D01*
X60881Y-67960D01*
X61360Y-67481D01*
X61699Y-66894D01*
X61875Y-66239D01*
Y-65605D01*
X61982Y-65515D01*
X62339Y-65363D01*
X65885Y-68908D01*
X66381Y-69239D01*
X66966Y-69356D01*
X90148D01*
X90734Y-69239D01*
X91230Y-68908D01*
X94794Y-65344D01*
X95126Y-64847D01*
X95242Y-64262D01*
Y-46552D01*
X95675Y-46302D01*
X95794Y-46371D01*
X96448Y-46546D01*
X97126D01*
X97781Y-46371D01*
X98368Y-46031D01*
X98848Y-45552D01*
X98912Y-45441D01*
X105321D01*
X114857Y-54978D01*
D02*
G37*
G36*
X-34452Y-48252D02*
X-34874Y-48983D01*
X-30535Y-51488D01*
X-30665Y-51971D01*
X-32200D01*
X-32785Y-52087D01*
X-33281Y-52419D01*
X-36880Y-56017D01*
X-37212Y-56513D01*
X-37229Y-56602D01*
X-37778Y-56801D01*
X-41349Y-53909D01*
X-41375Y-53410D01*
X-40892Y-52927D01*
X-40594Y-53099D01*
X-39939Y-53275D01*
X-39261D01*
X-38606Y-53099D01*
X-38019Y-52760D01*
X-37540Y-52281D01*
X-37201Y-51694D01*
X-37025Y-51039D01*
Y-50361D01*
X-37201Y-49706D01*
X-37282Y-49565D01*
X-37033Y-49132D01*
X-36654Y-49129D01*
X-36367Y-49070D01*
X-36078Y-49013D01*
X-36075Y-49010D01*
X-36070Y-49009D01*
X-35826Y-48844D01*
X-35582Y-48681D01*
X-34849Y-47948D01*
X-34452Y-48252D01*
D02*
G37*
G36*
X78941Y-49696D02*
X75096Y-53541D01*
X75039Y-53525D01*
X74361D01*
X73706Y-53701D01*
X73434Y-53858D01*
X73202Y-53747D01*
X72975Y-53546D01*
Y-52961D01*
X72799Y-52306D01*
X72460Y-51719D01*
X71981Y-51240D01*
X71394Y-50901D01*
X70739Y-50725D01*
X70061D01*
X69406Y-50901D01*
X68819Y-51240D01*
X68340Y-51719D01*
X68310Y-51771D01*
X63262D01*
X61187Y-49696D01*
X61378Y-49234D01*
X78750D01*
X78941Y-49696D01*
D02*
G37*
G36*
X89471Y-45584D02*
Y-53667D01*
X81517Y-61620D01*
X81069Y-61361D01*
X81075Y-61339D01*
Y-60661D01*
X80899Y-60006D01*
X80560Y-59419D01*
X80081Y-58940D01*
X79494Y-58601D01*
X78839Y-58425D01*
X78161D01*
X77506Y-58601D01*
X76919Y-58940D01*
X76440Y-59419D01*
X76410Y-59471D01*
X68133D01*
X63954Y-55291D01*
X64146Y-54829D01*
X68310D01*
X68340Y-54881D01*
X68819Y-55360D01*
X69406Y-55699D01*
X70061Y-55875D01*
X70739D01*
X71394Y-55699D01*
X71666Y-55542D01*
X71899Y-55653D01*
X72125Y-55854D01*
Y-56439D01*
X72301Y-57094D01*
X72640Y-57681D01*
X73119Y-58160D01*
X73706Y-58499D01*
X74361Y-58675D01*
X75039D01*
X75694Y-58499D01*
X76281Y-58160D01*
X76760Y-57681D01*
X77099Y-57094D01*
X77275Y-56439D01*
Y-55761D01*
X77259Y-55704D01*
X81202Y-51761D01*
X82117D01*
X82702Y-51644D01*
X83199Y-51313D01*
X88656Y-45855D01*
X88971Y-45385D01*
X89008Y-45378D01*
X89471Y-45584D01*
D02*
G37*
G36*
X22362Y-55789D02*
X22506Y-55885D01*
X22633Y-56004D01*
X22752Y-56049D01*
X22858Y-56120D01*
X23028Y-56154D01*
X23191Y-56216D01*
X27761Y-56980D01*
X27888Y-56976D01*
X28013Y-57001D01*
X28839D01*
X29106Y-57501D01*
X29012Y-57641D01*
X28896Y-58226D01*
Y-60774D01*
X29012Y-61359D01*
X29117Y-61515D01*
X29114Y-61551D01*
X28851Y-62017D01*
X28013Y-62090D01*
X27010Y-62455D01*
X26136Y-63067D01*
X25868Y-63387D01*
X25277Y-63314D01*
X24281Y-62319D01*
X23785Y-61987D01*
X23200Y-61871D01*
X18934D01*
X14576Y-57513D01*
X14767Y-57051D01*
X15033D01*
X16064Y-56775D01*
X16987Y-56242D01*
X17742Y-55488D01*
X18275Y-54564D01*
X18284Y-54529D01*
X21103D01*
X22362Y-55789D01*
D02*
G37*
G36*
X-4051Y-44667D02*
Y-48888D01*
X-5681Y-50519D01*
X-6013Y-51015D01*
X-6129Y-51600D01*
Y-55240D01*
X-12471Y-64840D01*
X-12971Y-64690D01*
Y-63700D01*
X-13087Y-63115D01*
X-13419Y-62619D01*
X-13841Y-62196D01*
X-13825Y-62139D01*
Y-61461D01*
X-14001Y-60806D01*
X-14340Y-60219D01*
X-14429Y-60129D01*
X-14222Y-59629D01*
X-12628D01*
X-12043Y-59513D01*
X-11547Y-59181D01*
X-8819Y-56453D01*
X-8487Y-55957D01*
X-8371Y-55372D01*
Y-50500D01*
X-8487Y-49915D01*
X-8819Y-49419D01*
X-10257Y-47980D01*
X-10449Y-47551D01*
X-10449D01*
X-10449Y-47551D01*
Y-45029D01*
X-5700D01*
X-5115Y-44913D01*
X-4619Y-44581D01*
X-4513Y-44476D01*
X-4051Y-44667D01*
D02*
G37*
G36*
X-116399Y-7269D02*
X-116488Y-7402D01*
X-116604Y-7987D01*
Y-48025D01*
X-116488Y-48610D01*
X-116156Y-49107D01*
X-110487Y-54775D01*
X-109991Y-55107D01*
X-109406Y-55223D01*
X-96283D01*
X-95994Y-55723D01*
X-96099Y-55906D01*
X-96275Y-56561D01*
Y-57239D01*
X-96099Y-57894D01*
X-95760Y-58481D01*
X-95281Y-58960D01*
X-94694Y-59299D01*
X-94039Y-59475D01*
X-93361D01*
X-93304Y-59459D01*
X-91229Y-61533D01*
Y-81209D01*
X-91729Y-81361D01*
X-91836Y-81201D01*
X-108246Y-64791D01*
X-108054Y-64329D01*
X-98190D01*
X-98160Y-64381D01*
X-97681Y-64860D01*
X-97094Y-65199D01*
X-96439Y-65375D01*
X-95761D01*
X-95106Y-65199D01*
X-94519Y-64860D01*
X-94040Y-64381D01*
X-93701Y-63794D01*
X-93525Y-63139D01*
Y-62461D01*
X-93701Y-61806D01*
X-94040Y-61219D01*
X-94519Y-60740D01*
X-95106Y-60401D01*
X-95761Y-60225D01*
X-96439D01*
X-97094Y-60401D01*
X-97681Y-60740D01*
X-98160Y-61219D01*
X-98190Y-61271D01*
X-108367D01*
X-118971Y-50666D01*
Y-9133D01*
X-116788Y-6950D01*
X-116399Y-7269D01*
D02*
G37*
G36*
X92183Y-55987D02*
Y-63629D01*
X89515Y-66297D01*
X67791D01*
X67644Y-66104D01*
X67892Y-65604D01*
X81225D01*
X81810Y-65488D01*
X82307Y-65156D01*
X91683Y-55780D01*
X92183Y-55987D01*
D02*
G37*
G36*
X-18371Y-60129D02*
X-18460Y-60219D01*
X-18799Y-60806D01*
X-18975Y-61461D01*
Y-62139D01*
X-18799Y-62794D01*
X-18460Y-63381D01*
X-17981Y-63860D01*
X-17394Y-64199D01*
X-16739Y-64375D01*
X-16061D01*
X-16029Y-64399D01*
Y-66016D01*
X-16439Y-66303D01*
X-21921Y-64308D01*
X-22368Y-65534D01*
X-22877Y-65470D01*
X-22933Y-64894D01*
X-23279Y-63753D01*
X-23471Y-63395D01*
Y-62033D01*
X-21067Y-59629D01*
X-18578D01*
X-18371Y-60129D01*
D02*
G37*
G36*
X-47198Y-59599D02*
X-47198Y-59599D01*
X-42642Y-63288D01*
X-42625Y-63431D01*
X-42714Y-63873D01*
X-43082Y-64119D01*
X-45857Y-66895D01*
X-49691Y-66444D01*
X-49701Y-66406D01*
X-50040Y-65819D01*
X-50519Y-65340D01*
X-51106Y-65001D01*
X-51761Y-64825D01*
X-52083D01*
X-52290Y-64325D01*
X-47391Y-59425D01*
X-47198Y-59599D01*
D02*
G37*
G36*
X-43343Y-69413D02*
X-43375Y-69532D01*
Y-70210D01*
X-43359Y-70268D01*
X-54881Y-81790D01*
X-55213Y-82286D01*
X-55329Y-82871D01*
Y-102200D01*
X-55213Y-102785D01*
X-54881Y-103281D01*
X-51454Y-106709D01*
X-51646Y-107171D01*
X-53866D01*
X-57171Y-103867D01*
Y-79334D01*
X-54093Y-76256D01*
X-53762Y-75760D01*
X-53645Y-75175D01*
Y-69981D01*
X-53212Y-69731D01*
X-53094Y-69799D01*
X-52439Y-69975D01*
X-51761D01*
X-51106Y-69799D01*
X-50519Y-69460D01*
X-50488Y-69429D01*
X-45479Y-70019D01*
X-45389Y-70012D01*
X-45300Y-70029D01*
X-45094Y-69988D01*
X-44884Y-69972D01*
X-44803Y-69931D01*
X-44715Y-69913D01*
X-44540Y-69796D01*
X-44352Y-69700D01*
X-44294Y-69632D01*
X-44219Y-69581D01*
X-43791Y-69154D01*
X-43343Y-69413D01*
D02*
G37*
G36*
X-29013Y-55529D02*
X-33902Y-62627D01*
X-33914Y-62654D01*
X-33953Y-62702D01*
X-34515Y-63753D01*
X-34861Y-64894D01*
X-34914Y-65438D01*
X-34958Y-65593D01*
X-35283Y-69632D01*
X-36234Y-81471D01*
X-43203Y-88441D01*
X-43261Y-88425D01*
X-43939D01*
X-44594Y-88601D01*
X-45181Y-88940D01*
X-45660Y-89419D01*
X-45999Y-90006D01*
X-46175Y-90661D01*
Y-91339D01*
X-45999Y-91994D01*
X-45660Y-92581D01*
X-45181Y-93060D01*
X-44594Y-93399D01*
X-43939Y-93575D01*
X-43261D01*
X-42606Y-93399D01*
X-42019Y-93060D01*
X-41540Y-92581D01*
X-41201Y-91994D01*
X-41025Y-91339D01*
Y-90661D01*
X-41041Y-90604D01*
X-33673Y-83236D01*
X-33541Y-83038D01*
X-33393Y-82851D01*
X-33376Y-82792D01*
X-33342Y-82740D01*
X-33295Y-82506D01*
X-33230Y-82277D01*
X-33181Y-81667D01*
X-32664Y-81477D01*
X-32481Y-81660D01*
X-31894Y-81999D01*
X-31239Y-82175D01*
X-31045D01*
X-30838Y-82675D01*
X-47562Y-99399D01*
X-47906Y-99201D01*
X-48561Y-99025D01*
X-49239D01*
X-49894Y-99201D01*
X-50481Y-99540D01*
X-50960Y-100019D01*
X-51299Y-100606D01*
X-51475Y-101261D01*
Y-101593D01*
X-51921Y-101786D01*
X-52271Y-101505D01*
Y-83505D01*
X-41197Y-72431D01*
X-41139Y-72446D01*
X-40461D01*
X-39806Y-72271D01*
X-39219Y-71932D01*
X-38740Y-71452D01*
X-38401Y-70865D01*
X-38225Y-70210D01*
Y-69532D01*
X-38401Y-68878D01*
X-38740Y-68290D01*
X-39219Y-67811D01*
X-39806Y-67472D01*
X-40461Y-67297D01*
X-40777D01*
X-41066Y-66797D01*
X-41027Y-66729D01*
X-39500D01*
X-38915Y-66613D01*
X-38419Y-66281D01*
X-34919Y-62781D01*
X-34587Y-62285D01*
X-34471Y-61700D01*
Y-59949D01*
X-34418Y-59848D01*
X-34296Y-59666D01*
X-34280Y-59586D01*
X-34242Y-59515D01*
X-34222Y-59296D01*
X-34179Y-59080D01*
Y-57928D01*
X-34227Y-57689D01*
X-31567Y-55029D01*
X-29276D01*
X-29013Y-55529D01*
D02*
G37*
G36*
X-65104Y-50974D02*
X-65129Y-51100D01*
Y-55092D01*
X-66456Y-56419D01*
X-66788Y-56915D01*
X-66904Y-57500D01*
Y-70510D01*
X-66956Y-70540D01*
X-67435Y-71019D01*
X-67774Y-71606D01*
X-67950Y-72261D01*
Y-72939D01*
X-67774Y-73594D01*
X-67691Y-73738D01*
X-67941Y-74171D01*
X-73710D01*
X-73740Y-74119D01*
X-74219Y-73640D01*
X-74806Y-73301D01*
X-75461Y-73125D01*
X-76139D01*
X-76794Y-73301D01*
X-77381Y-73640D01*
X-77860Y-74119D01*
X-78199Y-74706D01*
X-78375Y-75361D01*
Y-76039D01*
X-78199Y-76694D01*
X-77860Y-77281D01*
X-77381Y-77760D01*
X-76794Y-78099D01*
X-76139Y-78275D01*
X-75461D01*
X-74806Y-78099D01*
X-74219Y-77760D01*
X-73740Y-77281D01*
X-73710Y-77229D01*
X-60099D01*
X-59979Y-77377D01*
X-59856Y-77729D01*
X-60113Y-78115D01*
X-60229Y-78700D01*
Y-104500D01*
X-60113Y-105085D01*
X-59781Y-105581D01*
X-55909Y-109454D01*
X-56116Y-109954D01*
X-60418D01*
X-79870Y-90503D01*
Y-65033D01*
X-65565Y-50728D01*
X-65104Y-50974D01*
D02*
G37*
G36*
X111440Y-59581D02*
X111919Y-60060D01*
X112506Y-60399D01*
X112659Y-60440D01*
X112789Y-60923D01*
X111941Y-61771D01*
X110100D01*
X109515Y-61887D01*
X109019Y-62219D01*
X88766Y-82471D01*
X47451D01*
X32633Y-67653D01*
X32794Y-67308D01*
X32979Y-66258D01*
X32958Y-66018D01*
X33408Y-65800D01*
X46834Y-78511D01*
X47069Y-78659D01*
X47300Y-78813D01*
X47321Y-78817D01*
X47339Y-78828D01*
X47613Y-78875D01*
X47885Y-78929D01*
X79210D01*
X79240Y-78981D01*
X79719Y-79460D01*
X80306Y-79799D01*
X80961Y-79975D01*
X81639D01*
X82294Y-79799D01*
X82881Y-79460D01*
X83360Y-78981D01*
X83699Y-78394D01*
X83875Y-77739D01*
Y-77061D01*
X83699Y-76406D01*
X83482Y-76029D01*
X83742Y-75529D01*
X92706D01*
X93291Y-75413D01*
X93787Y-75081D01*
X109339Y-59529D01*
X111410D01*
X111440Y-59581D01*
D02*
G37*
G36*
X-85029Y-61322D02*
Y-81834D01*
X-85462Y-82084D01*
X-85606Y-82001D01*
X-86261Y-81825D01*
X-86939D01*
X-87594Y-82001D01*
X-87738Y-82084D01*
X-88171Y-81834D01*
Y-60900D01*
X-88287Y-60315D01*
X-88619Y-59819D01*
X-91141Y-57297D01*
X-91125Y-57239D01*
Y-56561D01*
X-91254Y-56080D01*
X-91049Y-55645D01*
X-90940Y-55531D01*
X-90834Y-55517D01*
X-85029Y-61322D01*
D02*
G37*
G36*
X8022Y-86852D02*
X7522Y-86986D01*
X7360Y-86706D01*
X6881Y-86227D01*
X6294Y-85888D01*
X5639Y-85713D01*
X4961D01*
X4306Y-85888D01*
X3719Y-86227D01*
X3240Y-86706D01*
X3210Y-86758D01*
X1366D01*
X1075Y-86816D01*
X584Y-86463D01*
X575Y-86444D01*
Y-86161D01*
X436Y-85645D01*
X581Y-85500D01*
X913Y-85004D01*
X1029Y-84418D01*
Y-83578D01*
X1081Y-83526D01*
X1240Y-83289D01*
X1846Y-83194D01*
X1856Y-83198D01*
X2019Y-83360D01*
X2606Y-83699D01*
X3261Y-83875D01*
X3939D01*
X4594Y-83699D01*
X5181Y-83360D01*
X5660Y-82881D01*
X5999Y-82294D01*
X6175Y-81639D01*
Y-80961D01*
X6152Y-80876D01*
X6413Y-80485D01*
X6529Y-79900D01*
Y-76051D01*
X8022D01*
Y-86852D01*
D02*
G37*
G36*
X-21029Y-73255D02*
Y-85650D01*
X-20970Y-85950D01*
X-21430Y-86196D01*
X-23471Y-84156D01*
Y-72802D01*
X-23061Y-72515D01*
X-21029Y-73255D01*
D02*
G37*
G36*
X16662Y-76725D02*
X16455Y-77225D01*
X16161D01*
X15506Y-77401D01*
X14919Y-77740D01*
X14440Y-78219D01*
X14101Y-78806D01*
X13925Y-79461D01*
Y-80139D01*
X14101Y-80794D01*
X14440Y-81381D01*
X14919Y-81860D01*
X14971Y-81890D01*
Y-84800D01*
X15087Y-85385D01*
X15419Y-85881D01*
X19792Y-90254D01*
X19545Y-90715D01*
X19170Y-90641D01*
X18604D01*
X13081Y-85118D01*
Y-73797D01*
X13543Y-73605D01*
X16662Y-76725D01*
D02*
G37*
G36*
X-26529Y-83346D02*
Y-84790D01*
X-26413Y-85375D01*
X-26081Y-85871D01*
X-21592Y-90360D01*
X-21784Y-90822D01*
X-33952D01*
X-34165Y-90328D01*
X-26991Y-83154D01*
X-26529Y-83346D01*
D02*
G37*
G36*
X-154300Y-14229D02*
X-154133D01*
X-130674Y-37689D01*
Y-56355D01*
X-130558Y-56941D01*
X-130226Y-57437D01*
X-101229Y-86434D01*
Y-87710D01*
X-101281Y-87740D01*
X-101760Y-88219D01*
X-102099Y-88806D01*
X-102275Y-89461D01*
Y-90139D01*
X-102099Y-90794D01*
X-101760Y-91381D01*
X-101281Y-91860D01*
X-100694Y-92199D01*
X-100039Y-92375D01*
X-99361D01*
X-98706Y-92199D01*
X-98119Y-91860D01*
X-97640Y-91381D01*
X-97301Y-90794D01*
X-97125Y-90139D01*
Y-89461D01*
X-97301Y-88806D01*
X-97640Y-88219D01*
X-98119Y-87740D01*
X-98171Y-87710D01*
Y-85800D01*
X-98287Y-85215D01*
X-98619Y-84719D01*
X-127615Y-55722D01*
Y-50401D01*
X-127153Y-50210D01*
X-94447Y-82916D01*
Y-95560D01*
X-94947Y-95694D01*
X-95076Y-95471D01*
X-95555Y-94991D01*
X-96142Y-94652D01*
X-96797Y-94477D01*
X-97475D01*
X-98130Y-94652D01*
X-98717Y-94991D01*
X-99197Y-95471D01*
X-99536Y-96058D01*
X-99711Y-96713D01*
Y-97391D01*
X-99536Y-98046D01*
X-99197Y-98633D01*
X-98717Y-99112D01*
X-98130Y-99451D01*
X-97475Y-99627D01*
X-97030D01*
X-96543Y-100233D01*
X-96874Y-100619D01*
X-96906Y-100601D01*
X-97561Y-100425D01*
X-98239D01*
X-98894Y-100601D01*
X-99481Y-100940D01*
X-99960Y-101419D01*
X-100299Y-102006D01*
X-100475Y-102661D01*
Y-103339D01*
X-100299Y-103994D01*
X-99960Y-104581D01*
X-99481Y-105060D01*
X-99429Y-105090D01*
Y-111688D01*
X-99313Y-112273D01*
X-98981Y-112769D01*
X-86821Y-124929D01*
X-86325Y-125261D01*
X-85740Y-125377D01*
X-75686D01*
X-58581Y-142481D01*
X-58085Y-142813D01*
X-57500Y-142929D01*
X-14133D01*
X-12029Y-145034D01*
Y-145769D01*
X-12044Y-145773D01*
X-12956Y-146299D01*
X-13701Y-147044D01*
X-14227Y-147956D01*
X-14500Y-148973D01*
Y-150027D01*
X-14301Y-150771D01*
X-14621Y-151249D01*
X-14663Y-151271D01*
X-15867D01*
X-20119Y-147019D01*
X-20615Y-146687D01*
X-21200Y-146571D01*
X-30710D01*
X-30740Y-146519D01*
X-31219Y-146040D01*
X-31806Y-145701D01*
X-32461Y-145525D01*
X-33139D01*
X-33794Y-145701D01*
X-34381Y-146040D01*
X-34860Y-146519D01*
X-35199Y-147106D01*
X-35375Y-147761D01*
Y-148439D01*
X-35199Y-149094D01*
X-34860Y-149681D01*
X-34381Y-150160D01*
X-33794Y-150499D01*
X-33139Y-150675D01*
X-32461D01*
X-31806Y-150499D01*
X-31219Y-150160D01*
X-30740Y-149681D01*
X-30710Y-149629D01*
X-21834D01*
X-17581Y-153881D01*
X-17320Y-154056D01*
X-17494Y-154541D01*
X-19042Y-154389D01*
X-26595Y-153269D01*
X-34083Y-151779D01*
X-41489Y-149924D01*
X-48796Y-147707D01*
X-55985Y-145135D01*
X-63039Y-142213D01*
X-69941Y-138949D01*
X-76675Y-135350D01*
X-83223Y-131424D01*
X-89572Y-127182D01*
X-95705Y-122634D01*
X-101607Y-117790D01*
X-107264Y-112663D01*
X-112663Y-107264D01*
X-117790Y-101607D01*
X-122634Y-95705D01*
X-127182Y-89572D01*
X-131424Y-83223D01*
X-135350Y-76675D01*
X-138949Y-69941D01*
X-142213Y-63039D01*
X-145135Y-55985D01*
X-147707Y-48796D01*
X-149924Y-41489D01*
X-151779Y-34083D01*
X-153269Y-26595D01*
X-154389Y-19042D01*
X-154833Y-14533D01*
X-154462Y-14197D01*
X-154300Y-14229D01*
D02*
G37*
G36*
X-4658Y-93181D02*
X-4162Y-93513D01*
X-3577Y-93629D01*
X2567D01*
X3540Y-94603D01*
X3391Y-95161D01*
X3056Y-95251D01*
X2469Y-95590D01*
X1990Y-96069D01*
X1960Y-96121D01*
X-6866D01*
X-11644Y-91343D01*
X-11459Y-90821D01*
X-11006Y-90699D01*
X-10419Y-90360D01*
X-9940Y-89881D01*
X-9601Y-89294D01*
X-9527Y-89020D01*
X-8969Y-88870D01*
X-4658Y-93181D01*
D02*
G37*
G36*
X-28331Y-94343D02*
X-41159Y-107171D01*
X-46154D01*
X-46346Y-106709D01*
X-33518Y-93881D01*
X-28522D01*
X-28331Y-94343D01*
D02*
G37*
G36*
X-23455Y-100014D02*
Y-111759D01*
X-23886Y-111901D01*
X-23955Y-111904D01*
X-24419Y-111440D01*
X-25006Y-111101D01*
X-25661Y-110925D01*
X-26339D01*
X-26994Y-111101D01*
X-27581Y-111440D01*
X-28060Y-111919D01*
X-28090Y-111971D01*
X-35973D01*
X-36165Y-111509D01*
X-26731Y-102075D01*
X-26161D01*
X-25506Y-101899D01*
X-24919Y-101560D01*
X-24440Y-101081D01*
X-24101Y-100494D01*
X-23955Y-99949D01*
X-23455Y-100014D01*
D02*
G37*
G36*
X-94378Y-102929D02*
X-94330Y-103168D01*
X-93999Y-103664D01*
X-92868Y-104795D01*
X-75806Y-121856D01*
X-75998Y-122318D01*
X-85106D01*
X-96371Y-111054D01*
Y-105090D01*
X-96319Y-105060D01*
X-95840Y-104581D01*
X-95501Y-103994D01*
X-95325Y-103339D01*
Y-102661D01*
X-95371Y-102492D01*
X-94915Y-102261D01*
X-94378Y-102929D01*
D02*
G37*
G36*
X-25738Y-123625D02*
X-25945Y-124125D01*
X-26339D01*
X-26994Y-124301D01*
X-27581Y-124640D01*
X-28060Y-125119D01*
X-28090Y-125171D01*
X-49367D01*
X-50062Y-124475D01*
X-49855Y-123975D01*
X-49633D01*
X-48978Y-123799D01*
X-48391Y-123460D01*
X-47912Y-122981D01*
X-47882Y-122929D01*
X-26434D01*
X-25738Y-123625D01*
D02*
G37*
G36*
X-64681Y-114581D02*
X-64185Y-114913D01*
X-63600Y-115029D01*
X-28090D01*
X-28060Y-115081D01*
X-27581Y-115560D01*
X-27346Y-115696D01*
X-27480Y-116196D01*
X-51825D01*
X-52411Y-116312D01*
X-52907Y-116644D01*
X-55281Y-119019D01*
X-55613Y-119515D01*
X-55729Y-120100D01*
Y-122500D01*
X-55613Y-123085D01*
X-55281Y-123581D01*
X-51092Y-127771D01*
X-51094Y-127817D01*
X-51249Y-128271D01*
X-52767D01*
X-85071Y-95967D01*
Y-94849D01*
X-84617Y-94694D01*
X-84571Y-94692D01*
X-64681Y-114581D01*
D02*
G37*
G36*
X-55554Y-129809D02*
X-55746Y-130271D01*
X-60066D01*
X-87171Y-103166D01*
Y-98846D01*
X-86709Y-98654D01*
X-55554Y-129809D01*
D02*
G37*
G36*
X-29359Y-133829D02*
X-29453Y-133971D01*
X-43091D01*
X-43676Y-134087D01*
X-44172Y-134419D01*
X-44424Y-134671D01*
X-58666D01*
X-59546Y-133791D01*
X-59354Y-133329D01*
X-29626D01*
X-29359Y-133829D01*
D02*
G37*
%LPC*%
G36*
X665Y142532D02*
X171Y142399D01*
X-416Y142060D01*
X-896Y141581D01*
X-1235Y140994D01*
X-1367Y140500D01*
X665D01*
Y142532D01*
D02*
G37*
G36*
Y139500D02*
X-1367D01*
X-1235Y139006D01*
X-896Y138419D01*
X-416Y137940D01*
X171Y137601D01*
X665Y137468D01*
Y139500D01*
D02*
G37*
G36*
X-8335Y132532D02*
Y130500D01*
X-6304D01*
X-6436Y130994D01*
X-6775Y131581D01*
X-7254Y132060D01*
X-7842Y132399D01*
X-8335Y132532D01*
D02*
G37*
G36*
X-9335D02*
X-9829Y132399D01*
X-10416Y132060D01*
X-10896Y131581D01*
X-11235Y130994D01*
X-11367Y130500D01*
X-9335D01*
Y132532D01*
D02*
G37*
G36*
X-49500Y126832D02*
Y124800D01*
X-47468D01*
X-47601Y125294D01*
X-47940Y125881D01*
X-48419Y126360D01*
X-49006Y126699D01*
X-49500Y126832D01*
D02*
G37*
G36*
X-50500D02*
X-50994Y126699D01*
X-51581Y126360D01*
X-52060Y125881D01*
X-52399Y125294D01*
X-52532Y124800D01*
X-50500D01*
Y126832D01*
D02*
G37*
G36*
X-56000Y125532D02*
Y123500D01*
X-53968D01*
X-54101Y123994D01*
X-54440Y124581D01*
X-54919Y125060D01*
X-55506Y125399D01*
X-56000Y125532D01*
D02*
G37*
G36*
X-57000D02*
X-57494Y125399D01*
X-58081Y125060D01*
X-58560Y124581D01*
X-58899Y123994D01*
X-59032Y123500D01*
X-57000D01*
Y125532D01*
D02*
G37*
G36*
X-47468Y123800D02*
X-49500D01*
Y121768D01*
X-49006Y121901D01*
X-48419Y122240D01*
X-47940Y122719D01*
X-47601Y123306D01*
X-47468Y123800D01*
D02*
G37*
G36*
X-50500D02*
X-52532D01*
X-52399Y123306D01*
X-52060Y122719D01*
X-51581Y122240D01*
X-50994Y121901D01*
X-50500Y121768D01*
Y123800D01*
D02*
G37*
G36*
X-100500Y116532D02*
Y114500D01*
X-98468D01*
X-98601Y114994D01*
X-98940Y115581D01*
X-99419Y116060D01*
X-100006Y116399D01*
X-100500Y116532D01*
D02*
G37*
G36*
X-101500D02*
X-101994Y116399D01*
X-102581Y116060D01*
X-103060Y115581D01*
X-103399Y114994D01*
X-103532Y114500D01*
X-101500D01*
Y116532D01*
D02*
G37*
G36*
X-98468Y113500D02*
X-100500D01*
Y111468D01*
X-100006Y111601D01*
X-99419Y111940D01*
X-98940Y112419D01*
X-98601Y113006D01*
X-98468Y113500D01*
D02*
G37*
G36*
X-101500D02*
X-103532D01*
X-103399Y113006D01*
X-103060Y112419D01*
X-102581Y111940D01*
X-101994Y111601D01*
X-101500Y111468D01*
Y113500D01*
D02*
G37*
G36*
X-118668Y95900D02*
X-120700D01*
Y93868D01*
X-120206Y94001D01*
X-119619Y94340D01*
X-119140Y94819D01*
X-118801Y95406D01*
X-118668Y95900D01*
D02*
G37*
G36*
X-56473Y144000D02*
X-56500D01*
Y140500D01*
X-53000D01*
Y140527D01*
X-53273Y141544D01*
X-53799Y142456D01*
X-54544Y143201D01*
X-55456Y143727D01*
X-56473Y144000D01*
D02*
G37*
G36*
X-57500Y139500D02*
X-61000D01*
Y139473D01*
X-60727Y138456D01*
X-60201Y137544D01*
X-59456Y136799D01*
X-58544Y136273D01*
X-57527Y136000D01*
X-57500D01*
Y139500D01*
D02*
G37*
G36*
X-41761Y110975D02*
X-42439D01*
X-43094Y110799D01*
X-43681Y110460D01*
X-44160Y109981D01*
X-44190Y109929D01*
X-64100D01*
X-64685Y109813D01*
X-65181Y109481D01*
X-92933Y81729D01*
X-117567D01*
X-117941Y82104D01*
X-117925Y82161D01*
Y82839D01*
X-118101Y83494D01*
X-118440Y84081D01*
X-118919Y84560D01*
X-119506Y84899D01*
X-120161Y85075D01*
X-120839D01*
X-121494Y84899D01*
X-122081Y84560D01*
X-122560Y84081D01*
X-122899Y83494D01*
X-123075Y82839D01*
Y82161D01*
X-122899Y81506D01*
X-122560Y80919D01*
X-122081Y80440D01*
X-121494Y80101D01*
X-120839Y79925D01*
X-120161D01*
X-120104Y79941D01*
X-119281Y79119D01*
X-118785Y78787D01*
X-118200Y78671D01*
X-92300D01*
X-91715Y78787D01*
X-91219Y79119D01*
X-63467Y106871D01*
X-44190D01*
X-44160Y106819D01*
X-43681Y106340D01*
X-43094Y106001D01*
X-42439Y105825D01*
X-41761D01*
X-41106Y106001D01*
X-40519Y106340D01*
X-40040Y106819D01*
X-39701Y107406D01*
X-39525Y108061D01*
Y108739D01*
X-39701Y109394D01*
X-40040Y109981D01*
X-40519Y110460D01*
X-41106Y110799D01*
X-41761Y110975D01*
D02*
G37*
G36*
X-57449Y9551D02*
X-65551D01*
Y1449D01*
X-57449D01*
Y9551D01*
D02*
G37*
G36*
X65551Y-1449D02*
X57449D01*
Y-9551D01*
X65551D01*
Y-1449D01*
D02*
G37*
G36*
X134079Y-50807D02*
X131307Y-58421D01*
X138921Y-61192D01*
X141692Y-53579D01*
X134079Y-50807D01*
D02*
G37*
G36*
X26500Y-127468D02*
Y-129500D01*
X28532D01*
X28399Y-129006D01*
X28060Y-128419D01*
X27581Y-127940D01*
X26994Y-127601D01*
X26500Y-127468D01*
D02*
G37*
G36*
X25500D02*
X25006Y-127601D01*
X24419Y-127940D01*
X23940Y-128419D01*
X23601Y-129006D01*
X23468Y-129500D01*
X25500D01*
Y-127468D01*
D02*
G37*
G36*
X28532Y-130500D02*
X26500D01*
Y-132532D01*
X26994Y-132399D01*
X27581Y-132060D01*
X28060Y-131581D01*
X28399Y-130994D01*
X28532Y-130500D01*
D02*
G37*
G36*
X25500D02*
X23468D01*
X23601Y-130994D01*
X23940Y-131581D01*
X24419Y-132060D01*
X25006Y-132399D01*
X25500Y-132532D01*
Y-130500D01*
D02*
G37*
G36*
X0Y-138649D02*
Y-140681D01*
X2032D01*
X1899Y-140187D01*
X1560Y-139600D01*
X1081Y-139121D01*
X494Y-138782D01*
X0Y-138649D01*
D02*
G37*
G36*
X-1000D02*
X-1494Y-138782D01*
X-2081Y-139121D01*
X-2560Y-139600D01*
X-2899Y-140187D01*
X-3032Y-140681D01*
X-1000D01*
Y-138649D01*
D02*
G37*
%LPD*%
D49*
X155200Y-9124D02*
G03*
X155200Y-2876I-5700J3124D01*
G01*
X155200Y-9124D02*
G03*
X155200Y-2876I-5700J3124D01*
G01*
Y-9124D02*
G03*
X155200Y-2876I-5700J3124D01*
G01*
Y-9124D02*
G03*
X155200Y-2876I-5700J3124D01*
G01*
Y3376D02*
G03*
X155200Y9624I-5700J3124D01*
G01*
X155200Y3376D02*
G03*
X155200Y9624I-5700J3124D01*
G01*
Y3376D02*
G03*
X155200Y9624I-5700J3124D01*
G01*
Y3376D02*
G03*
X155200Y9624I-5700J3124D01*
G01*
X50417Y-48302D02*
G03*
X46338Y-49227I-1145J-4405D01*
G01*
X50417Y-48302D02*
G03*
X46338Y-49227I-1145J-4405D01*
G01*
X50417Y-48302D02*
G03*
X46338Y-49227I-1145J-4405D01*
G01*
X50417Y-48302D02*
G03*
X46338Y-49227I-1145J-4405D01*
G01*
X153200Y-8561D02*
G03*
X153200Y-3439I-3700J2561D01*
G01*
Y-8561D02*
G03*
X153200Y-3439I-3700J2561D01*
G01*
Y-8561D02*
G03*
X153200Y-3439I-3700J2561D01*
G01*
Y-8561D02*
G03*
X153200Y-3439I-3700J2561D01*
G01*
Y3939D02*
G03*
X153200Y9061I-3700J2561D01*
G01*
Y3939D02*
G03*
X153200Y9061I-3700J2561D01*
G01*
Y3939D02*
G03*
X153200Y9061I-3700J2561D01*
G01*
Y3939D02*
G03*
X153200Y9061I-3700J2561D01*
G01*
X39162Y-38100D02*
G03*
X36836Y-38100I-1163J-4400D01*
G01*
X39162D02*
G03*
X36836Y-38100I-1163J-4400D01*
G01*
X39162D02*
G03*
X36836Y-38100I-1163J-4400D01*
G01*
X39162D02*
G03*
X36836Y-38100I-1163J-4400D01*
G01*
X-25000Y-68431D02*
G03*
X-25000Y-63729I-3897J2351D01*
G01*
Y-68431D02*
G03*
X-25000Y-63729I-3897J2351D01*
G01*
Y-68431D02*
G03*
X-25000Y-63729I-3897J2351D01*
G01*
Y-68431D02*
G03*
X-25000Y-63729I-3897J2351D01*
G01*
X-8995Y-69820D02*
G03*
X-9551Y-72000I3995J-2180D01*
G01*
X-8995Y-69820D02*
G03*
X-9551Y-72000I3995J-2180D01*
G01*
X-8995Y-69820D02*
G03*
X-9551Y-72000I3995J-2180D01*
G01*
X-8995Y-69820D02*
G03*
X-9551Y-72000I3995J-2180D01*
G01*
X-32642Y-63494D02*
G03*
X-33434Y-65715I3745J-2585D01*
G01*
X-32642Y-63494D02*
G03*
X-33434Y-65715I3745J-2585D01*
G01*
X-32642Y-63494D02*
G03*
X-33434Y-65715I3745J-2585D01*
G01*
X-32642Y-63494D02*
G03*
X-33434Y-65715I3745J-2585D01*
G01*
X-49547Y-48164D02*
G03*
X-52000Y-49065I276J-4543D01*
G01*
X-49547Y-48164D02*
G03*
X-52000Y-49065I276J-4543D01*
G01*
X-49547Y-48164D02*
G03*
X-52000Y-49065I276J-4543D01*
G01*
X-49547Y-48164D02*
G03*
X-52000Y-49065I276J-4543D01*
G01*
X-135500Y53246D02*
G03*
X-135500Y55595I-4397J1175D01*
G01*
Y53246D02*
G03*
X-135500Y55595I-4397J1175D01*
G01*
Y53246D02*
G03*
X-135500Y55595I-4397J1175D01*
G01*
Y53246D02*
G03*
X-135500Y55595I-4397J1175D01*
G01*
X-134236Y33967D02*
G03*
X-134244Y33970I-346J-938D01*
G01*
X-134236Y33967D02*
G03*
X-134244Y33970I-346J-938D01*
G01*
X-134236Y33967D02*
G03*
X-134244Y33970I-346J-938D01*
G01*
X-134236Y33967D02*
G03*
X-134244Y33970I-346J-938D01*
G01*
X-49683Y36000D02*
G03*
X-51317Y36000I-817J-6500D01*
G01*
X-49683D02*
G03*
X-51317Y36000I-817J-6500D01*
G01*
X-49683D02*
G03*
X-51317Y36000I-817J-6500D01*
G01*
X-49683D02*
G03*
X-51317Y36000I-817J-6500D01*
G01*
X-152886Y2547D02*
G03*
X-150000Y1500I2886J3453D01*
G01*
X-152886Y2547D02*
G03*
X-150000Y1500I2886J3453D01*
G01*
X-152886Y2547D02*
G03*
X-150000Y1500I2886J3453D01*
G01*
X-152886Y2547D02*
G03*
X-150000Y1500I2886J3453D01*
G01*
Y1500D02*
G03*
X-145866Y3000I0J6447D01*
G01*
X-150000Y1500D02*
G03*
X-145866Y3000I0J6447D01*
G01*
X-150000Y1500D02*
G03*
X-145866Y3000I0J6447D01*
G01*
X-150000Y1500D02*
G03*
X-145866Y3000I0J6447D01*
G01*
X27086Y126571D02*
G03*
X30000Y125500I2914J3429D01*
G01*
X27086Y126571D02*
G03*
X30000Y125500I2914J3429D01*
G01*
X27086Y126571D02*
G03*
X30000Y125500I2914J3429D01*
G01*
X27086Y126571D02*
G03*
X30000Y125500I2914J3429D01*
G01*
X-26211Y147363D02*
G03*
X-26959Y148778I-4289J-1363D01*
G01*
X-26211Y147363D02*
G03*
X-26959Y148778I-4289J-1363D01*
G01*
X-26211Y147363D02*
G03*
X-26959Y148778I-4289J-1363D01*
G01*
X-26211Y147363D02*
G03*
X-26959Y148778I-4289J-1363D01*
G01*
X-24346Y66059D02*
G03*
X-25400Y68993I-4551J21D01*
G01*
X-24346Y66059D02*
G03*
X-25400Y68993I-4551J21D01*
G01*
X-24346Y66059D02*
G03*
X-25400Y68993I-4551J21D01*
G01*
X-24346Y66059D02*
G03*
X-25400Y68993I-4551J21D01*
G01*
X-49819Y34000D02*
G03*
X-53081Y33249I-681J-4500D01*
G01*
X-49819Y34000D02*
G03*
X-53081Y33249I-681J-4500D01*
G01*
X-49819Y34000D02*
G03*
X-53081Y33249I-681J-4500D01*
G01*
X-49819Y34000D02*
G03*
X-53081Y33249I-681J-4500D01*
G01*
X34651Y46082D02*
G03*
X34350Y45719I3349J-3082D01*
G01*
X34651Y46082D02*
G03*
X34350Y45719I3349J-3082D01*
G01*
X34651Y46082D02*
G03*
X34350Y45719I3349J-3082D01*
G01*
X34651Y46082D02*
G03*
X34350Y45719I3349J-3082D01*
G01*
X34651Y46082D02*
G03*
X34350Y45719I3349J-3082D01*
G01*
X34651Y46082D02*
G03*
X34350Y45719I3349J-3082D01*
G01*
X34651Y46082D02*
G03*
X34350Y45719I3349J-3082D01*
G01*
X34651Y46082D02*
G03*
X34350Y45719I3349J-3082D01*
G01*
X-49819Y34000D02*
G03*
X-53081Y33249I-681J-4500D01*
G01*
X-49819Y34000D02*
G03*
X-53081Y33249I-681J-4500D01*
G01*
X-49819Y34000D02*
G03*
X-53081Y33249I-681J-4500D01*
G01*
X-49819Y34000D02*
G03*
X-53081Y33249I-681J-4500D01*
G01*
X-24346Y66059D02*
G03*
X-25400Y68993I-4551J21D01*
G01*
X-24346Y66059D02*
G03*
X-25400Y68993I-4551J21D01*
G01*
X-24346Y66059D02*
G03*
X-25400Y68993I-4551J21D01*
G01*
X-24346Y66059D02*
G03*
X-25400Y68993I-4551J21D01*
G01*
X-26211Y147363D02*
G03*
X-26959Y148778I-4289J-1363D01*
G01*
X-26211Y147363D02*
G03*
X-26959Y148778I-4289J-1363D01*
G01*
X-26211Y147363D02*
G03*
X-26959Y148778I-4289J-1363D01*
G01*
X-26211Y147363D02*
G03*
X-26959Y148778I-4289J-1363D01*
G01*
X27086Y126571D02*
G03*
X30000Y125500I2914J3429D01*
G01*
X27086Y126571D02*
G03*
X30000Y125500I2914J3429D01*
G01*
X27086Y126571D02*
G03*
X30000Y125500I2914J3429D01*
G01*
X27086Y126571D02*
G03*
X30000Y125500I2914J3429D01*
G01*
X-150000Y1500D02*
G03*
X-145866Y3000I0J6447D01*
G01*
X-150000Y1500D02*
G03*
X-145866Y3000I0J6447D01*
G01*
X-150000Y1500D02*
G03*
X-145866Y3000I0J6447D01*
G01*
X-150000Y1500D02*
G03*
X-145866Y3000I0J6447D01*
G01*
X-152886Y2547D02*
G03*
X-150000Y1500I2886J3453D01*
G01*
X-152886Y2547D02*
G03*
X-150000Y1500I2886J3453D01*
G01*
X-152886Y2547D02*
G03*
X-150000Y1500I2886J3453D01*
G01*
X-152886Y2547D02*
G03*
X-150000Y1500I2886J3453D01*
G01*
X-49683Y36000D02*
G03*
X-51317Y36000I-817J-6500D01*
G01*
X-49683D02*
G03*
X-51317Y36000I-817J-6500D01*
G01*
X-49683D02*
G03*
X-51317Y36000I-817J-6500D01*
G01*
X-49683D02*
G03*
X-51317Y36000I-817J-6500D01*
G01*
X-134236Y33967D02*
G03*
X-134244Y33970I-346J-938D01*
G01*
X-134236Y33967D02*
G03*
X-134244Y33970I-346J-938D01*
G01*
X-134236Y33967D02*
G03*
X-134244Y33970I-346J-938D01*
G01*
X-134236Y33967D02*
G03*
X-134244Y33970I-346J-938D01*
G01*
X-135500Y53246D02*
G03*
X-135500Y55595I-4397J1175D01*
G01*
Y53246D02*
G03*
X-135500Y55595I-4397J1175D01*
G01*
Y53246D02*
G03*
X-135500Y55595I-4397J1175D01*
G01*
Y53246D02*
G03*
X-135500Y55595I-4397J1175D01*
G01*
X-49547Y-48164D02*
G03*
X-52000Y-49065I276J-4543D01*
G01*
X-49547Y-48164D02*
G03*
X-52000Y-49065I276J-4543D01*
G01*
X-49547Y-48164D02*
G03*
X-52000Y-49065I276J-4543D01*
G01*
X-49547Y-48164D02*
G03*
X-52000Y-49065I276J-4543D01*
G01*
X-32642Y-63494D02*
G03*
X-33434Y-65715I3745J-2585D01*
G01*
X-32642Y-63494D02*
G03*
X-33434Y-65715I3745J-2585D01*
G01*
X-32642Y-63494D02*
G03*
X-33434Y-65715I3745J-2585D01*
G01*
X-32642Y-63494D02*
G03*
X-33434Y-65715I3745J-2585D01*
G01*
X-8995Y-69820D02*
G03*
X-9551Y-72000I3995J-2180D01*
G01*
X-8995Y-69820D02*
G03*
X-9551Y-72000I3995J-2180D01*
G01*
X-8995Y-69820D02*
G03*
X-9551Y-72000I3995J-2180D01*
G01*
X-8995Y-69820D02*
G03*
X-9551Y-72000I3995J-2180D01*
G01*
X-25000Y-68431D02*
G03*
X-25000Y-63729I-3897J2351D01*
G01*
Y-68431D02*
G03*
X-25000Y-63729I-3897J2351D01*
G01*
Y-68431D02*
G03*
X-25000Y-63729I-3897J2351D01*
G01*
Y-68431D02*
G03*
X-25000Y-63729I-3897J2351D01*
G01*
X39162Y-38100D02*
G03*
X36836Y-38100I-1163J-4400D01*
G01*
X39162D02*
G03*
X36836Y-38100I-1163J-4400D01*
G01*
X39162D02*
G03*
X36836Y-38100I-1163J-4400D01*
G01*
X39162D02*
G03*
X36836Y-38100I-1163J-4400D01*
G01*
X153200Y3939D02*
G03*
X153200Y9061I-3700J2561D01*
G01*
Y3939D02*
G03*
X153200Y9061I-3700J2561D01*
G01*
Y3939D02*
G03*
X153200Y9061I-3700J2561D01*
G01*
Y3939D02*
G03*
X153200Y9061I-3700J2561D01*
G01*
Y-8561D02*
G03*
X153200Y-3439I-3700J2561D01*
G01*
Y-8561D02*
G03*
X153200Y-3439I-3700J2561D01*
G01*
Y-8561D02*
G03*
X153200Y-3439I-3700J2561D01*
G01*
Y-8561D02*
G03*
X153200Y-3439I-3700J2561D01*
G01*
X50417Y-48302D02*
G03*
X46338Y-49227I-1145J-4405D01*
G01*
X50417Y-48302D02*
G03*
X46338Y-49227I-1145J-4405D01*
G01*
X50417Y-48302D02*
G03*
X46338Y-49227I-1145J-4405D01*
G01*
X50417Y-48302D02*
G03*
X46338Y-49227I-1145J-4405D01*
G01*
X155200Y3376D02*
G03*
X155200Y9624I-5700J3124D01*
G01*
Y3376D02*
G03*
X155200Y9624I-5700J3124D01*
G01*
X155200Y3376D02*
G03*
X155200Y9624I-5700J3124D01*
G01*
Y3376D02*
G03*
X155200Y9624I-5700J3124D01*
G01*
X155200Y-9124D02*
G03*
X155200Y-2876I-5700J3124D01*
G01*
Y-9124D02*
G03*
X155200Y-2876I-5700J3124D01*
G01*
X155200Y-9124D02*
G03*
X155200Y-2876I-5700J3124D01*
G01*
Y-9124D02*
G03*
X155200Y-2876I-5700J3124D01*
G01*
X65241Y28510D02*
G03*
X67550Y29622I-741J4490D01*
G01*
X66906Y26907D02*
G03*
X67644Y27253I-2406J6093D01*
G01*
X-49523Y48163D02*
G03*
X-49115Y48158I252J4544D01*
G01*
X154909Y14901D02*
G03*
X154905Y14905I-709J-705D01*
G01*
X19500Y-72183D02*
X23058D01*
X19500D02*
X23058D01*
X19500D02*
X23058D01*
X39300Y-59000D02*
Y-56686D01*
Y-59000D02*
Y-56686D01*
Y-59000D02*
Y-56686D01*
X155200Y-2876D02*
Y3376D01*
Y-2876D02*
Y-2876D01*
Y-2876D02*
Y3376D01*
Y-12214D02*
Y-9124D01*
Y-12214D02*
Y-9124D01*
Y-2876D02*
Y3376D01*
Y-2876D02*
Y-2876D01*
Y3376D01*
Y-12214D02*
Y-9124D01*
Y-12214D02*
Y-9124D01*
Y9624D02*
Y9624D01*
Y9624D02*
Y9624D01*
Y14610D01*
Y9624D02*
Y14610D01*
Y9624D02*
Y14610D01*
X30570Y-52425D02*
X46338Y-49227D01*
X30570Y-52425D02*
X46338Y-49227D01*
X30570Y-52425D02*
X46338Y-49227D01*
X50417Y-48302D02*
X50538D01*
X50417D02*
X50538D01*
X50417D02*
X50538D01*
X153200Y-9914D02*
Y-8561D01*
Y-9914D02*
Y-8561D01*
Y-3439D02*
Y3939D01*
Y-3439D02*
Y3939D01*
Y-9914D02*
Y-8561D01*
Y-9914D02*
Y-8561D01*
Y9061D02*
Y12610D01*
Y9061D02*
Y12610D01*
Y9061D02*
Y12610D01*
Y9061D02*
Y12610D01*
Y-3439D02*
Y3939D01*
X16900Y-38100D02*
X36836D01*
X39162D02*
X55930D01*
X39162D02*
X55930D01*
X16900D02*
X36836D01*
X16900D02*
X36836D01*
X16900D02*
X36836D01*
X39162D02*
X55930D01*
X39162D02*
X55930D01*
X-52700Y-56200D02*
Y-52707D01*
Y-56200D02*
Y-52707D01*
Y-56200D02*
Y-52707D01*
X-25000Y-84790D02*
Y-68431D01*
Y-84790D02*
Y-68431D01*
Y-84790D02*
X-13019Y-96771D01*
X-25000Y-63729D02*
Y-61400D01*
Y-63729D02*
Y-61400D01*
Y-63729D02*
Y-61400D01*
Y-63729D02*
Y-61400D01*
Y-84790D02*
Y-68431D01*
Y-84790D02*
Y-68431D01*
X-9551Y-83297D02*
Y-72000D01*
Y-83297D02*
Y-72000D01*
Y-83297D02*
Y-72000D01*
X-8995Y-69820D02*
X-5000Y-62500D01*
X-8995Y-69820D02*
X-5000Y-62500D01*
X-8995Y-69820D02*
X-5000Y-62500D01*
X-34755Y-82155D02*
X-33434Y-65715D01*
X-34755Y-82155D02*
X-33434Y-65715D01*
X-34755Y-82155D02*
X-33434Y-65715D01*
X-32642Y-63494D02*
X-27481Y-56001D01*
X-32642Y-63494D02*
X-27481Y-56001D01*
X-32642Y-63494D02*
X-27481Y-56001D01*
X-57214Y-52971D02*
X-52001Y-49065D01*
X-57214Y-52971D02*
X-52001Y-49065D01*
X-57214Y-52971D02*
X-52001Y-49065D01*
X-135500Y50569D02*
Y53246D01*
Y50569D02*
Y53246D01*
Y55595D02*
Y63200D01*
Y55595D02*
Y63200D01*
Y55595D02*
Y63200D01*
Y50569D02*
Y53246D01*
X-139897Y51900D02*
X-138280D01*
X-139897D02*
X-138280D01*
X-139897D02*
X-138280D01*
X-134236Y33967D02*
X-132044Y33169D01*
X-134236Y33967D02*
X-132044Y33169D01*
X-134236Y33967D02*
X-132044Y33169D01*
X-52500Y51578D02*
Y52707D01*
Y51578D02*
Y52707D01*
Y51578D02*
Y52707D01*
X-49683Y36000D02*
X-44999D01*
X-49683D02*
X-44999D01*
X-49683D02*
X-44999D01*
X-49683D02*
X-44999D01*
X-57385D02*
X-51317D01*
X-57385D02*
X-51317D01*
X-57385D02*
X-51317D01*
X-57385D02*
X-51317D01*
X-35300Y128400D02*
Y136500D01*
Y128400D02*
Y136500D01*
Y128400D02*
Y136500D01*
X-153547Y2547D02*
X-152886D01*
X-153547D02*
X-152886D01*
X-153547D02*
X-152886D01*
X-153547D02*
X-152886D01*
X-145866Y3000D02*
X-129133D01*
X-145866D02*
X-129133D01*
X-145866D02*
X-129133D01*
X-145866D02*
X-129133D01*
X30000Y125500D02*
X58000D01*
X30000D02*
X58000D01*
X30000D02*
X58000D01*
X-26211Y147363D02*
X-24774Y145925D01*
X-26211Y147363D02*
X-24774Y145925D01*
X-26211Y147363D02*
X-24774Y145925D01*
X-26211Y147363D02*
X-24774Y145925D01*
X-25400Y68993D02*
Y70114D01*
X-24346Y65646D02*
Y66059D01*
Y65646D02*
Y66059D01*
Y65646D02*
Y66059D01*
X-25400Y68993D02*
Y70114D01*
Y68993D02*
Y70114D01*
X-49819Y34000D02*
X-44170D01*
X-49819D02*
X-44170D01*
X-49819D02*
X-44170D01*
X-49819D02*
X-44170D01*
X-3500Y2900D02*
X0D01*
X-3500D02*
X0D01*
X-3500D02*
X0D01*
X34651Y46082D02*
X36600Y48200D01*
X34651Y46082D02*
X36600Y48200D01*
X34651Y46082D02*
X36600Y48200D01*
X34651Y46082D02*
X36600Y48200D01*
X-3500Y2900D02*
X0D01*
X-49819Y34000D02*
X-44170D01*
X-49819D02*
X-44170D01*
X-49819D02*
X-49819D01*
X-25400Y68993D02*
Y70114D01*
Y68993D02*
Y68993D01*
X-24346Y65646D02*
Y66059D01*
X-26211Y147363D02*
X-24774Y145925D01*
X-26211Y147363D02*
X-26211Y147363D01*
X-24774Y145925D01*
X30000Y125500D02*
X58000D01*
X-145866Y3000D02*
X-129133D01*
X-145866D02*
X-145866D01*
X-129133D01*
X-153547Y2547D02*
X-152886D01*
X-35300Y128400D02*
Y136500D01*
X-57385Y36000D02*
X-51317D01*
X-51317D01*
X-57385D02*
X-51317D01*
X-49683D02*
X-49683D01*
X-44999D01*
X-49683D02*
X-44999D01*
X-52500Y51578D02*
Y52707D01*
X-134236Y33967D02*
X-132044Y33169D01*
X-139897Y51900D02*
X-138280D01*
X-135500Y50569D02*
Y53246D01*
Y55595D02*
Y55595D01*
Y63200D01*
Y53246D02*
Y53246D01*
X-57214Y-52971D02*
X-52001Y-49065D01*
X-32642Y-63494D02*
X-27481Y-56001D01*
X-34755Y-82155D02*
X-33434Y-65715D01*
X-8995Y-69820D02*
X-5000Y-62500D01*
X-9551Y-83297D02*
Y-72000D01*
X-25000Y-63729D02*
Y-63729D01*
Y-61400D01*
Y-63729D02*
Y-61400D01*
Y-84790D02*
Y-68431D01*
Y-68431D02*
Y-68431D01*
Y-84790D02*
Y-68431D01*
X-52700Y-56200D02*
Y-52707D01*
X16900Y-38100D02*
X36836D01*
X16900D02*
X36836D01*
X39162D02*
X39162D01*
X55930D01*
X39162D02*
X55930D01*
X36836D02*
X36836D01*
X153200Y-3439D02*
Y3939D01*
Y9061D02*
Y12610D01*
Y9061D02*
Y12610D01*
Y3939D02*
Y3939D01*
Y9061D02*
Y9061D01*
Y-8561D02*
Y-8561D01*
Y-9914D02*
Y-8561D01*
Y-3439D02*
Y-3439D01*
Y-9914D02*
Y-8561D01*
X50417Y-48302D02*
X50538D01*
X46338Y-49227D02*
X46338Y-49227D01*
X30570Y-52425D02*
X46338Y-49227D01*
X155200Y-2876D02*
Y3376D01*
Y-2876D02*
Y3376D01*
Y9624D02*
Y9624D01*
Y9624D02*
Y9624D01*
Y14610D01*
Y3376D02*
Y3376D01*
Y9624D02*
Y9624D01*
Y-12214D02*
Y-9124D01*
Y-2876D02*
Y-2876D01*
Y-2876D02*
Y-2876D01*
Y-2876D01*
Y-12214D02*
Y-9124D01*
Y-9124D02*
Y-9124D01*
X39300Y-59000D02*
Y-56686D01*
X19500Y-72183D02*
X23058D01*
X-25000Y-84790D02*
X-24707Y-85082D01*
X45128Y-55000D02*
X45421Y-55293D01*
X52208Y-62080D01*
X26501Y-52752D02*
X26699Y-52950D01*
X28841Y-53471D02*
X28961D01*
X51896Y-48496D02*
X52729Y-49329D01*
X24749Y-51000D02*
X26501Y-52752D01*
X28961Y-53471D02*
X29079D01*
X51603Y-48203D02*
X51896Y-48496D01*
X142300Y-10500D02*
X152200D01*
X152614D01*
X16607Y-37807D02*
X16900Y-38100D01*
X61318Y-38071D02*
X61587D01*
X12400Y-33600D02*
X16607Y-37807D01*
X61587Y-38071D02*
X66124D01*
X-16400Y-61800D02*
X-14793Y-63407D01*
X-14500Y-85800D02*
X-14207Y-86093D01*
X-14793Y-63407D02*
X-14500Y-63700D01*
X-14207Y-86093D02*
X-12000Y-88300D01*
X-29479Y-66662D02*
X-29187Y-66369D01*
X-28897Y-66080D01*
X-13019Y-96771D02*
X-11864Y-97925D01*
X-11551Y-67023D02*
Y-66223D01*
Y-84126D02*
Y-67023D01*
X-57800Y-57900D02*
Y-53971D01*
X-36664Y-47600D02*
X-36371Y-47307D01*
X-57800Y-53971D02*
Y-53557D01*
X-36371Y-47307D02*
X-33449Y-44385D01*
X-135500Y47300D02*
X-135207Y47007D01*
X-133603Y45403D01*
X-134582Y34029D02*
X-134405D01*
X-136914D02*
X-134582D01*
X-87500Y59300D02*
X-80418Y66382D01*
X-80405Y66395D01*
X-87112Y45293D02*
X-86819Y45000D01*
X-25007Y52707D02*
X-20400Y48100D01*
X-88178Y46359D02*
X-87112Y45293D01*
X-25300Y53000D02*
X-25007Y52707D01*
X-22495Y54258D02*
X-21736Y53500D01*
X-22787Y54551D02*
X-22495Y54258D01*
X-63438Y38375D02*
X-61356Y36293D01*
X-61064Y36000D01*
X-153840Y2840D02*
X-153547Y2547D01*
X-128547Y-10853D02*
X-128254Y-11146D01*
X25500Y127914D02*
Y132500D01*
X58293Y125207D02*
X107500Y76000D01*
X-14800Y148800D02*
X-14507Y149093D01*
X-154500Y3500D02*
X-153840Y2840D01*
X-128254Y-11146D02*
X-126700Y-12700D01*
X25500Y127500D02*
Y127914D01*
X58000Y125500D02*
X58293Y125207D01*
X-14507Y149093D02*
X-10100Y153500D01*
X-53500Y72500D02*
X-53207Y72207D01*
X-50200Y69200D01*
X-82852Y23100D02*
X-65687D01*
X-86600D02*
X-82852D01*
X-35307Y33758D02*
X-32551Y31002D01*
X-35600Y34051D02*
X-35307Y33758D01*
X29618Y40872D02*
X31078Y42332D01*
X31657Y42911D01*
X3871Y105000D02*
X22807Y86064D01*
X23100Y85771D01*
X59500Y24222D02*
X63207Y27929D01*
X63500Y28222D01*
X52700Y123500D02*
X52993Y123207D01*
X94256Y81944D01*
X26500Y39000D02*
X27082D01*
X28953Y40872D01*
X29618D01*
X16500Y-84800D02*
X23394Y-91694D01*
X20117Y-82769D02*
Y-78017D01*
X33675Y-101674D02*
X35075Y-100274D01*
X23394Y-91694D02*
X24694D01*
X37086Y-102611D02*
Y-81586D01*
X33675Y-121325D02*
Y-101674D01*
X20117Y-82769D02*
X35075Y-97726D01*
X24300Y-68800D02*
X37086Y-81586D01*
X35075Y-100274D02*
Y-97726D01*
X24694Y-91694D02*
X32000Y-99000D01*
X-121000Y23000D02*
Y29000D01*
X-131075Y12925D02*
X-121000Y23000D01*
X-89575Y34575D02*
X-87630D01*
X-92000Y37000D02*
X-89575Y34575D01*
X-87630D02*
X-85281Y32225D01*
X-99925Y40075D02*
X-73726D01*
X-107000Y33000D02*
X-99925Y40075D01*
X-114667Y3224D02*
X-113966Y3925D01*
X-84575Y7000D02*
Y7582D01*
X-86423Y4500D02*
X-85848Y3925D01*
X-84575Y7582D02*
X-83500Y8657D01*
Y9100D01*
X-82265Y-13800D02*
X-79302D01*
X-85836Y-7401D02*
X-85199D01*
X-107774Y5575D02*
X-103153D01*
X-90565Y-5500D02*
X-82265Y-13800D01*
X-86680Y-900D02*
X-38100D01*
X-88908Y-1500D02*
X-86908Y-3500D01*
X-106500Y2500D02*
X-87252D01*
X-88080Y500D02*
X-86680Y-900D01*
X-100677Y-3500D02*
X-89737D01*
X-81400Y3925D02*
X-73425Y11900D01*
X-86908Y-3500D02*
X-86425D01*
X-104152Y500D02*
X-88080D01*
X-102078Y4500D02*
X-86423D01*
X-83500Y9100D02*
X-76100Y16500D01*
X-99848Y-5500D02*
X-90565D01*
X-113966Y3925D02*
X-109423D01*
X-85848D02*
X-81400D01*
X-101505Y-1500D02*
X-88908D01*
X-86677Y1925D02*
X-79575D01*
X-89737Y-3500D02*
X-85836Y-7401D01*
X-87252Y2500D02*
X-86677Y1925D01*
X-109423Y3925D02*
X-107774Y5575D01*
X-79575Y1925D02*
X-76000Y5500D01*
X-23600Y-131800D02*
X-20400Y-135000D01*
X-8000D01*
X-67460Y59089D02*
X-65892Y57521D01*
X-70500Y59500D02*
X-70089Y59089D01*
X-74437Y53437D02*
Y54740D01*
X-71425Y55957D02*
Y56077D01*
X-73923Y58575D02*
X-71425Y56077D01*
X-74437Y53437D02*
X-72493Y51493D01*
X-83092Y58575D02*
X-73923D01*
X-70089Y59089D02*
X-67460D01*
X-74848Y55152D02*
X-74437Y54740D01*
X-63726Y65075D02*
X-63639Y65059D01*
X-62898Y67075D02*
X-59509Y66500D01*
X-75774Y67075D02*
X-62898D01*
X-80405Y66395D02*
X-75774Y67075D01*
X-66274Y65075D02*
X-63726D01*
X-59509Y66500D02*
X-57152D01*
X-74500Y64000D02*
X-66274Y65075D01*
X-93600Y121400D02*
X-73100D01*
X-101000Y114000D02*
X-93600Y121400D01*
X-500Y-141181D02*
X14819D01*
X26000Y-130000D01*
X-84501Y-17499D02*
Y-15999D01*
X-90000Y-10500D02*
X-84501Y-15999D01*
Y-17499D02*
X-80724Y-21276D01*
X-99000Y-12600D02*
Y-9000D01*
X-102200Y-14300D02*
Y-7852D01*
X-103677Y-6500D02*
X-100677Y-3500D01*
X-102200Y-7852D02*
X-99848Y-5500D01*
X-99000Y-12600D02*
X-86575Y-25025D01*
X-113588Y-6500D02*
X-103677D01*
X-116500Y-4500D02*
X-104505D01*
X-119500Y-2500D02*
X-107152D01*
X-104505Y-4500D02*
X-101505Y-1500D01*
X-107152Y-2500D02*
X-104152Y500D01*
X-102200Y-14300D02*
X-93700Y-22800D01*
X-115075Y-7987D02*
X-113588Y-6500D01*
X-111725Y26225D02*
X-104606Y19106D01*
X-103531D01*
X-102325Y7575D02*
X-101250Y6500D01*
X-120500Y-8500D02*
X-116500Y-4500D01*
X-93652Y8500D02*
X-92075Y10077D01*
X-98348Y8500D02*
X-93652D01*
X-103258Y13410D02*
X-98348Y8500D01*
X-103531Y19106D02*
X-96000Y11575D01*
X-103153Y5575D02*
X-102078Y4500D01*
X-86425Y-3500D02*
X-84425Y-5500D01*
X-92823Y6500D02*
X-89000Y10323D01*
X-101250Y6500D02*
X-92823D01*
X-118954Y5425D02*
X-116805Y7575D01*
X-133450Y5425D02*
X-118954D01*
X-134025Y6000D02*
X-133450Y5425D01*
X-150000Y6000D02*
X-134025D01*
X-116805Y7575D02*
X-102325D01*
X-86575Y-25025D02*
X-82516D01*
X-115075Y-48025D02*
Y-7987D01*
Y-48025D02*
X-109406Y-53694D01*
X-85199Y-7401D02*
X-82500Y-10100D01*
X-121757Y3224D02*
X-114667D01*
X-89000Y10323D02*
Y10500D01*
X-38100Y-900D02*
X-34000Y-5000D01*
X-85115Y-37401D02*
X-73849D01*
X-85341Y-37175D02*
X-85115Y-37401D01*
X-77259Y-34737D02*
X-75237D01*
X-78525Y-35175D02*
X-77697D01*
X-77259Y-34737D01*
X-75237D02*
X-74826Y-34326D01*
X-97600Y-37175D02*
X-85341D01*
X-73849Y-37401D02*
X-73161Y-38089D01*
X-70911D01*
X-70500Y-38500D01*
X-87613Y-31113D02*
X-78812D01*
X-88000Y-31500D02*
X-87613Y-31113D01*
X-78812D02*
X-78425Y-30726D01*
X-91734Y-34575D02*
X-79125D01*
X-78525Y-35175D01*
X-92909Y-33400D02*
X-91734Y-34575D01*
X-106100Y-33400D02*
X-92909D01*
X-91434Y-30586D02*
X-87874Y-27025D01*
X-78874D01*
X-95807Y-30586D02*
X-91434D01*
X-82516Y-25025D02*
X-81841Y-24350D01*
X-80724Y-21276D02*
X-75161D01*
X-71225Y-27425D02*
X-70185Y-26385D01*
X-78874Y-27025D02*
X-78474Y-27425D01*
X-75161Y-21276D02*
X-72051Y-24385D01*
X-78474Y-27425D02*
X-71225D01*
X-81841Y-24350D02*
X-77200D01*
X-122492Y2489D02*
X-121757Y3224D01*
X-121303Y7425D02*
X-118500Y10228D01*
Y10500D01*
X-117725Y20775D02*
Y47500D01*
X-131075Y9226D02*
Y12925D01*
X-128000Y10500D02*
X-117725Y20775D01*
X-131075Y9226D02*
X-129274Y7425D01*
X-121303D01*
X-92075Y11774D02*
X-82748Y21100D01*
X-63187D01*
X-92075Y10077D02*
Y11774D01*
X-113725Y24825D02*
X-103258Y14358D01*
Y13410D02*
Y14358D01*
X-111725Y26225D02*
Y48300D01*
X-113725Y24825D02*
Y50550D01*
X-95925Y32575D02*
X-88459D01*
X-84291Y35584D02*
X-73584D01*
X-73300Y35300D01*
X-85281Y32225D02*
X-74123D01*
X-72098Y30200D02*
X-71800D01*
X-96000Y32500D02*
X-95925Y32575D01*
X-84575Y35868D02*
X-84291Y35584D01*
X-92706Y30575D02*
X-89287D01*
X-86059Y30175D02*
X-80125D01*
X-88459Y32575D02*
X-86059Y30175D01*
X-93855Y29425D02*
X-92706Y30575D01*
X-97348Y29500D02*
X-97274Y29425D01*
X-93855D01*
X-86887Y28175D02*
X-82875D01*
X-103000Y29500D02*
X-97348D01*
X-91000Y27500D02*
X-86600Y23100D01*
X-74123Y32225D02*
X-72098Y30200D01*
X-89287Y30575D02*
X-86887Y28175D01*
X-80125Y30175D02*
X-77050Y27100D01*
X-82875Y28175D02*
X-79800Y25100D01*
X-73726Y40075D02*
X-72026Y38375D01*
X-63438D01*
X117500Y-27082D02*
Y-26500D01*
X119375Y-59362D02*
Y-28956D01*
X117500Y-27082D02*
X119375Y-28956D01*
X124000Y-59600D02*
Y-27000D01*
X78800Y-104800D02*
X124000Y-59600D01*
X127500Y-34183D02*
Y-31000D01*
X132000Y-26500D01*
X38051Y949D02*
X73385D01*
X126963Y-4350D02*
X129718Y-7106D01*
X119959Y-4350D02*
X126963D01*
X71500Y-5500D02*
X79425Y2425D01*
X109925D01*
X79443Y-5457D02*
X82400Y-2500D01*
X116981Y-4500D02*
X126181Y4700D01*
X73385Y949D02*
X77936Y5500D01*
X119713Y-7425D02*
X124000D01*
X77936Y5500D02*
X104300D01*
X94000Y-6500D02*
X117810D01*
X89500Y-11000D02*
X94000Y-6500D01*
X109925Y2425D02*
X119000Y11500D01*
X118638Y-8500D02*
X119713Y-7425D01*
X79936Y-13564D02*
X89000Y-4500D01*
X34000Y5000D02*
X38051Y949D01*
X82400Y-2500D02*
X112800D01*
X96800Y-8500D02*
X118638D01*
X112800Y-2500D02*
X123100Y7800D01*
X89000Y-4500D02*
X116981D01*
X117810Y-6500D02*
X119959Y-4350D01*
X92275Y-18500D02*
X100275Y-10500D01*
X88800Y-16500D02*
X96800Y-8500D01*
X100275Y-10500D02*
X129000D01*
X129718Y-7106D02*
X136435D01*
X137168Y-6786D02*
X149500Y6500D01*
X136849Y-7105D02*
X137168Y-6786D01*
X136435Y-7106D02*
X136849Y-7105D01*
X114726Y29575D02*
X139521D01*
X121948Y18733D02*
X127485Y13196D01*
X106200Y28300D02*
X113452D01*
X116000Y26500D02*
X121948Y20552D01*
X113452Y28300D02*
X114726Y29575D01*
X121948Y18733D02*
Y20552D01*
X139521Y29575D02*
X153900Y15196D01*
X127485Y13196D02*
X152614D01*
X153200Y12610D01*
X64870Y-21870D02*
X79121D01*
X79502Y-21489D01*
X59500Y-16500D02*
X64870Y-21870D01*
X-120500Y82500D02*
X-118200Y80200D01*
X-92300D01*
X19700Y-144200D02*
X22489Y-141411D01*
X25089D02*
X25500Y-141000D01*
X22489Y-141411D02*
X25089D01*
X1164Y-144200D02*
X19700D01*
X82117Y-50231D02*
X87575Y-44774D01*
X74700Y-56100D02*
X80569Y-50231D01*
X76000Y-44600D02*
X80175Y-40425D01*
X58381Y-47704D02*
X80296D01*
X84500Y-43500D01*
X80175Y-40425D02*
X85774D01*
X80569Y-50231D02*
X82117D01*
X85774Y-40425D02*
X87575Y-42226D01*
Y-44774D02*
Y-42226D01*
X90148Y-67826D02*
X93713Y-64262D01*
Y-42885D01*
X96846Y-43912D02*
X105954D01*
X94661Y-40175D02*
X103641D01*
X96787Y-43971D02*
X96846Y-43912D01*
X94075Y-42523D02*
Y-40761D01*
X91000Y-54300D02*
Y-41250D01*
X81225Y-64075D02*
X91000Y-54300D01*
X93713Y-42885D02*
X94075Y-42523D01*
X105954Y-43912D02*
X116575Y-54533D01*
X94075Y-40761D02*
X94661Y-40175D01*
X78076Y-38175D02*
X100837D01*
X74750Y-41500D02*
X78076Y-38175D01*
X-63639Y65059D02*
X-60512Y64500D01*
X-56323D02*
X-41665Y64723D01*
X-60512Y64500D02*
X-56323D01*
X-44736Y59340D02*
X-41500Y59000D01*
X-65000Y62000D02*
X-44736Y59340D01*
X-41665Y64723D02*
X-41580Y64791D01*
X-65572Y57200D02*
X-65473D01*
X-65892Y57521D02*
X-65572Y57200D01*
X-65473D02*
X-63995Y57322D01*
X-72493Y51493D02*
X-71664D01*
X-71425Y55957D02*
X-70300Y54832D01*
X-84367Y57300D02*
X-83092Y58575D01*
X-70035Y54568D02*
X-69662Y54542D01*
X-101008Y50525D02*
X-94233Y57300D01*
X-70300Y54832D02*
X-70035Y54568D01*
X-69662Y54542D02*
X-67974Y54425D01*
X-94233Y57300D02*
X-84367D01*
X-63167Y55322D02*
X-60619D01*
X-58818Y53338D02*
X-57037Y51211D01*
X-56451Y50625D01*
X-54226D01*
X-59791Y57322D02*
X-59093Y57052D01*
X-58818Y53338D02*
Y53521D01*
X-59093Y57052D02*
X-56111Y54979D01*
X-60619Y55322D02*
X-58818Y53521D01*
X-71664Y51493D02*
X-61893Y52248D01*
X57099Y-49251D02*
X57810Y-49962D01*
X59290D01*
X58901Y-52401D02*
X67500Y-61000D01*
X54552Y-49251D02*
X57099D01*
X55826Y-52326D02*
X55901Y-52401D01*
X58901D01*
X57928Y-47251D02*
X58381Y-47704D01*
X55751Y-47251D02*
X57928D01*
X54475Y-49329D02*
X54552Y-49251D01*
X54300Y-45800D02*
X55751Y-47251D01*
X59290Y-49962D02*
X62628Y-53300D01*
X77000Y-10000D02*
X79443Y-7557D01*
Y-5457D01*
X53000Y-8600D02*
Y-8500D01*
X50100Y-11500D02*
X53000Y-8600D01*
X35000Y-11500D02*
X50100D01*
X56073Y35500D02*
X60564D01*
X54573Y37000D02*
X56073Y35500D01*
X45500Y24900D02*
Y37348D01*
X49500Y37000D02*
X54573D01*
X45500Y37348D02*
X55900Y47748D01*
Y49400D01*
X70500Y64000D01*
X38936Y37500D02*
X44720Y43284D01*
X32500Y37500D02*
X38936D01*
X31657Y42911D02*
X34351Y45719D01*
X22000Y29800D02*
X26500Y34300D01*
X40500D01*
X42600Y36400D01*
X44720Y43284D02*
Y54238D01*
X36600Y48200D02*
Y56694D01*
X-42951Y-21451D02*
X-38000Y-16500D01*
X-63885Y-21451D02*
X-42951D01*
X26000Y107000D02*
X49233D01*
X23589Y114589D02*
X26089D01*
X26500Y115000D01*
X20900Y111900D02*
X23589Y114589D01*
X26000Y123500D02*
X52700D01*
X26086Y126914D02*
X27086Y126571D01*
X25500Y127500D02*
X26086Y126914D01*
X94256Y24100D02*
Y81944D01*
X15544Y143956D02*
X22500Y137000D01*
X26000D01*
X7000Y153500D02*
X15544Y144956D01*
Y143956D02*
Y144956D01*
X11800Y154500D02*
X25000D01*
X42500Y137000D02*
X58623D01*
X25000Y154500D02*
X42500Y137000D01*
X-115600Y86100D02*
X-103900D01*
X-71000Y119000D01*
X-44700D01*
X-93967Y90200D02*
X-67567Y116600D01*
X-94075Y90200D02*
X-93967D01*
X61057Y-37919D02*
X61318Y-38071D01*
X67521Y-41021D02*
X71393D01*
X71872Y-41500D01*
X72104Y-37947D02*
X73875Y-36175D01*
X66124Y-38071D02*
X66248Y-37947D01*
X58459Y-36296D02*
X61057Y-37919D01*
X66248Y-37947D02*
X72104D01*
X71872Y-41500D02*
X74750D01*
X62228Y-60080D02*
X66223Y-64075D01*
X67500Y-61000D02*
X78500D01*
X66223Y-64075D02*
X81225D01*
X108706Y-58000D02*
X113500D01*
X112575Y-63300D02*
X116575Y-59300D01*
X92706Y-74000D02*
X108706Y-58000D01*
X116575Y-59300D02*
Y-54533D01*
X98006Y-78394D02*
X100343D01*
X51100Y-136240D02*
Y-125300D01*
X98006Y-78394D01*
X110100Y-63300D02*
X112575D01*
X100343Y-78394D02*
X119375Y-59362D01*
X56304Y-37727D02*
X56848Y-36856D01*
X57408Y-36296D01*
X58459D01*
X55930Y-38100D02*
X56304Y-37727D01*
X62628Y-53300D02*
X70400D01*
X52729Y-49329D02*
X54475D01*
X29079Y-53471D02*
X30570Y-52425D01*
X31398Y-54425D02*
X37119Y-54096D01*
X40594Y-53877D01*
X29723Y-55471D02*
X31398Y-54425D01*
X30425Y-58226D02*
X32226Y-56425D01*
X30425Y-60774D02*
X32226Y-62575D01*
X33500Y-59500D02*
X40428Y-64791D01*
X32226Y-56425D02*
X38041Y-56100D01*
X32226Y-62575D02*
X47885Y-77400D01*
X40428Y-64791D02*
X59300Y-65900D01*
X28013Y-55471D02*
X29723D01*
X47885Y-77400D02*
X81300D01*
X30425Y-60774D02*
Y-58226D01*
X38041Y-56100D02*
X38714D01*
X51071Y-48203D02*
X51603D01*
X40594Y-53877D02*
X41420Y-53209D01*
X38714Y-56100D02*
X39300Y-56686D01*
X26699Y-52950D02*
X28841Y-53471D01*
X50656Y-48302D02*
X51071Y-48203D01*
X21736Y-53000D02*
X23443Y-54707D01*
X50538Y-48302D02*
X50656D01*
X23443Y-54707D02*
X28013Y-55471D01*
X44180Y-55000D02*
X45128D01*
X43067Y-53704D02*
X43850Y-54670D01*
X42572Y-53209D02*
X43067Y-53704D01*
X41420Y-53209D02*
X42572D01*
X43850Y-54670D02*
X44180Y-55000D01*
X22500Y-51000D02*
X24749D01*
X24300Y-68800D02*
Y-64500D01*
X-20900Y-41500D02*
X-12400Y-33000D01*
X-33449Y-43500D02*
X-31449Y-41500D01*
X-20900D01*
X-4600Y-55700D02*
Y-51600D01*
X-9551Y-83297D02*
X-9258Y-83590D01*
X-11551Y-66223D02*
X-4600Y-55700D01*
X-9258Y-83590D02*
X-3274Y-89575D01*
X-2000Y-86500D02*
Y-85918D01*
X-3274Y-89575D02*
X79D01*
X-2000Y-85918D02*
X-500Y-84418D01*
X79Y-89575D02*
X1366Y-88287D01*
X-3577Y-92100D02*
X3200D01*
X-500Y-84418D02*
Y-82944D01*
X1366Y-88287D02*
X5300D01*
X-11551Y-84126D02*
X-3577Y-92100D01*
X-500Y-82944D02*
X0Y-82444D01*
Y-57000D01*
X-5000Y-79493D02*
X-4000Y-80493D01*
Y-81075D02*
Y-80493D01*
X-5000Y-79493D02*
Y-72000D01*
X19170Y-92170D02*
X26000Y-99000D01*
X17970Y-92170D02*
X19170D01*
X11551Y-85751D02*
X17970Y-92170D01*
X9551Y-88351D02*
X27000Y-105800D01*
Y-119500D02*
Y-105800D01*
X30500Y-124500D02*
X33675Y-121325D01*
X-43091Y-135500D02*
X-27000D01*
X-43791Y-136200D02*
X-43091Y-135500D01*
X-59300Y-136200D02*
X-43791D01*
X-53400Y-129800D02*
X-11800D01*
X-11500Y-129500D01*
X-19925Y-112275D02*
X-16768Y-115432D01*
X-14568D02*
X-11000Y-119000D01*
X-16768Y-115432D02*
X-14568D01*
X-11864Y-100636D02*
X-11500Y-101000D01*
X-11864Y-100636D02*
Y-97925D01*
X-26500Y-99681D02*
Y-99500D01*
X-38303Y-111484D02*
X-26500Y-99681D01*
X-61052Y-111484D02*
X-38303D01*
X-40525Y-108700D02*
X-26325Y-94500D01*
X-21925Y-114500D02*
Y-95634D01*
X-26325Y-94500D02*
X-21925Y-95634D01*
X-14500Y-69069D02*
X-14089Y-67941D01*
X-14500Y-85800D02*
Y-69069D01*
Y-66644D02*
X-14089Y-67055D01*
X-14500Y-66644D02*
Y-63700D01*
X-14089Y-67941D02*
Y-67055D01*
X-25000Y-61400D02*
X-21700Y-58100D01*
X-28000Y-77341D02*
Y-76246D01*
X-31150Y-72226D02*
X-29479Y-66662D01*
X-28075Y-73500D02*
X-28000Y-76246D01*
X-31150Y-74774D02*
X-30900Y-79600D01*
X-31150Y-74774D02*
Y-72226D01*
X-28000Y-77341D02*
X-27300Y-78041D01*
Y-81300D02*
Y-78041D01*
X-27481Y-56001D02*
X-27364Y-55861D01*
X-35799Y-57099D02*
X-32200Y-53500D01*
X-27003Y-55500D02*
X-23982D01*
X-27364Y-55861D02*
X-27003Y-55500D01*
X-26100Y-53500D02*
X-22651Y-50051D01*
X-32200Y-53500D02*
X-26100D01*
X-22582Y-54100D02*
X-22000D01*
X-23982Y-55500D02*
X-22582Y-54100D01*
X-39500Y-65200D02*
X-36000Y-61700D01*
X-35709Y-59080D02*
Y-57928D01*
X-35799Y-57838D02*
X-35709Y-57928D01*
X-36000Y-61700D02*
Y-59440D01*
X-35799Y-57838D02*
Y-57513D01*
X-36000Y-59440D02*
X-35709Y-59080D01*
X-35799Y-57513D02*
Y-57099D01*
X-43600Y-91000D02*
X-34755Y-82155D01*
X-53986Y-40214D02*
Y-39386D01*
X-51500Y-36900D01*
X-53986Y-40214D02*
X-53296Y-40904D01*
Y-43592D02*
Y-40904D01*
X-53856Y-44152D02*
X-53296Y-43592D01*
X-49571Y-42500D02*
X-38000D01*
X-50157Y-43086D02*
X-49571Y-42500D01*
X-53027Y-46152D02*
X-51296Y-44420D01*
X-58043Y-50971D02*
X-53027Y-46152D01*
X-59829Y-53172D02*
X-59800Y-52729D01*
X-57800Y-53557D02*
X-57214Y-52971D01*
X-40874Y-47625D02*
X-36664Y-47600D01*
X-59829Y-56329D02*
Y-53172D01*
X-49547Y-48164D02*
X-40874Y-47625D01*
X-59800Y-52729D02*
X-58043Y-50971D01*
X-54379Y-44479D02*
X-53856Y-44152D01*
X-56787Y-46887D02*
X-54379Y-44479D01*
X-51296Y-44420D02*
X-50157Y-43086D01*
X-58232Y-46887D02*
X-56787D01*
X-59541Y-47704D02*
X-58232Y-46887D01*
X-63600Y-51100D02*
X-60204Y-47704D01*
X-63600Y-55725D02*
Y-51100D01*
X-60204Y-47704D02*
X-59541D01*
X-112000Y-35500D02*
X-109544Y-33044D01*
Y-31635D02*
X-107500Y-29591D01*
X-109544Y-33044D02*
Y-31635D01*
X76000Y22500D02*
X80000Y26500D01*
X91181D01*
X67644Y27253D02*
X68319Y27622D01*
X80478Y38546D01*
X81649Y39649D02*
X82235Y40235D01*
X64900Y13100D02*
Y24135D01*
X80478Y38546D02*
X81649Y39649D01*
X67550Y29622D02*
X79649Y40546D01*
X72249Y24449D02*
X85300Y37500D01*
X65599Y25600D02*
X66906Y26907D01*
X79649Y40546D02*
X80235Y41132D01*
X68674Y24326D02*
X72249Y24449D01*
X82235Y40235D02*
Y42509D01*
X64900Y24135D02*
X65599Y25600D01*
X80235Y41132D02*
Y44509D01*
X63500Y28222D02*
X65241Y28510D01*
X39600Y74689D02*
Y75116D01*
Y74689D02*
X39675Y71512D01*
X39600Y75116D02*
X39675Y78100D01*
X35709Y58726D02*
X36600Y59826D01*
Y84300D01*
X35709Y57573D02*
X36204Y57078D01*
X36270Y57025D02*
X36600Y56694D01*
X35709Y57573D02*
Y58726D01*
X36204Y57078D02*
X36270Y57025D01*
X14000Y65849D02*
Y81200D01*
X12000Y62681D02*
X19100Y55581D01*
X12000Y62681D02*
Y77424D01*
X-300Y95500D02*
X14000Y81200D01*
Y65849D02*
X21100Y58749D01*
X7468Y81956D02*
X12000Y77424D01*
X5893Y81956D02*
X7468D01*
X15100Y34900D02*
X22514D01*
X22807Y35193D01*
X23100Y35486D02*
Y66084D01*
X24911Y71059D01*
Y71945D01*
X24236Y72619D02*
X24911Y71945D01*
X23550Y72869D02*
X24236Y72619D01*
X23100Y73319D02*
X23550Y72869D01*
X23100Y73319D02*
Y85771D01*
X22807Y35193D02*
X23100Y35486D01*
X27200Y74600D02*
Y84500D01*
X-62491Y123000D02*
X-56500D01*
X-64291Y124800D02*
X-62491Y123000D01*
X-69700Y124800D02*
X-64291D01*
X-23000Y154000D02*
X-22589Y154411D01*
X-20989D01*
X-20500Y154900D01*
X-14600D01*
X-13000Y100848D02*
Y107133D01*
X-12000Y108133D02*
Y115000D01*
X-8925Y103325D02*
Y116274D01*
X-14600Y118100D02*
X-10752D01*
X-13000Y107133D02*
X-12000Y108133D01*
X-10752Y118100D02*
X-8925Y116274D01*
Y103325D02*
X-7500Y101900D01*
X-36100Y110900D02*
X-26500Y120500D01*
X-36100Y81500D02*
Y110900D01*
X-27000Y111000D02*
X-16500Y121500D01*
X-9800D01*
X-4444Y86444D02*
X2700Y79300D01*
X-4444Y86444D02*
Y87944D01*
X-12000Y95500D02*
X-4444Y87944D01*
X-13000Y100848D02*
X5893Y81956D01*
X-29075Y81657D02*
Y97125D01*
X-26200Y100000D01*
X-25707Y90000D02*
X-23679Y92028D01*
X-22972D02*
X-17000Y98000D01*
X-26000Y90000D02*
X-25707D01*
X-23679Y92028D02*
X-22972D01*
X-28300Y80300D02*
Y80882D01*
X-29075Y81657D02*
X-28300Y80882D01*
X-24346Y65646D02*
X-21700Y63000D01*
X-25986Y70700D02*
X-25693Y70407D01*
X-25693Y70407D02*
X-25400Y70114D01*
X-33428Y70700D02*
X-25986D01*
X-14000Y63000D02*
X-5000Y72000D01*
X-21700Y63000D02*
X-14000D01*
X-68725Y94200D02*
X-56928D01*
X-69100Y94575D02*
X-68725Y94200D01*
X-68075Y72500D02*
X-68000D01*
X-44753Y45000D02*
X-36753Y53000D01*
X-37581Y55000D02*
X-29452Y55668D01*
X-26772D02*
X-22787Y54551D01*
X-27600Y53668D02*
X-26932Y53000D01*
X-36753D02*
X-29781D01*
X-26932D02*
X-25300D01*
X-29452Y55668D02*
X-26772D01*
X-29781Y53000D02*
X-28624Y53668D01*
X-49115Y48158D02*
X-44257Y48324D01*
X-38042Y54540D02*
X-37581Y55000D01*
X-28624Y53668D02*
X-27600D01*
X-44257Y48324D02*
X-38042Y54540D01*
X-38814Y66342D02*
X-28897Y66080D01*
X-57152Y66500D02*
X-42409Y66791D01*
X-62000Y69375D02*
X-58425Y69575D01*
X-59699Y72650D02*
X-57152D01*
X-39599Y66791D02*
X-39308Y66500D01*
X-40428Y64791D02*
X-40136Y64500D01*
X-68000Y72500D02*
X-59699Y72650D01*
X-39308Y66500D02*
X-38814Y66342D01*
X-41580Y64791D02*
X-40428D01*
X-128599Y69375D02*
X-62000D01*
X-41574Y69200D02*
X-37999Y69417D01*
X-42409Y66791D02*
X-39599D01*
X-39800Y64500D02*
X-34829Y59529D01*
X-40136Y64500D02*
X-39800D01*
X-57152Y72650D02*
X-53500Y72500D01*
X-50200Y69200D02*
X-41574D01*
X-44170Y34000D02*
X-44119Y34051D01*
X-58660Y35776D02*
X-57609D01*
X-57385Y36000D01*
X-61064D02*
X-59019D01*
X-58660Y35776D01*
X-63465Y26100D02*
X-53081Y33249D01*
X-44119Y34051D02*
X-35600D01*
X-44999Y36000D02*
X-37999Y43000D01*
X-66687Y26100D02*
X-63465D01*
X-90200Y42500D02*
X-71746D01*
X-59741Y47185D02*
X-56245Y45000D01*
X-62508D02*
X-62135Y45373D01*
X-57602Y48625D02*
X-49523Y48163D01*
X-58913Y49185D02*
X-57602Y48625D01*
X-61633Y49173D02*
X-61621Y49185D01*
X-84988Y48325D02*
X-61633Y49173D01*
X-85816Y48324D02*
X-84988Y48325D01*
X-65426Y54425D02*
X-63167Y55322D01*
X-67974Y54425D02*
X-65426D01*
X-63995Y57322D02*
X-59791D01*
X-56245Y45000D02*
X-44753D01*
X-60793Y47185D02*
X-59741D01*
X-61353Y46625D02*
X-60793Y47185D01*
X-71746Y42500D02*
X-69000Y41925D01*
X-85850Y48359D02*
X-85816Y48324D01*
X-61621Y49185D02*
X-58913D01*
X-62135Y45373D02*
X-61353Y46625D01*
X-54226Y50625D02*
X-53207Y50870D01*
X-86819Y45000D02*
X-62508D01*
X-53207Y50870D02*
X-52500Y51578D01*
X-98822Y46359D02*
X-88178D01*
X-110675Y53600D02*
X-104075D01*
X-137694Y50486D02*
Y51314D01*
X-137911Y47727D02*
X-137560Y41604D01*
X-137911Y47727D02*
Y50269D01*
X-135911Y48555D02*
X-135500Y48144D01*
X-135911Y48555D02*
Y49441D01*
X-135500Y47300D02*
Y48144D01*
Y63200D02*
X-134374Y64326D01*
X-135911Y49441D02*
X-135500Y50569D01*
X-139014Y37021D02*
X-137560Y41014D01*
Y41604D01*
X-137911Y50269D02*
X-137694Y50486D01*
X-138280Y51900D02*
X-137694Y51314D01*
X-130299Y34029D02*
X-129086D01*
X-128500Y41332D02*
Y45000D01*
Y41332D02*
X-128192Y41025D01*
Y40139D02*
Y41025D01*
X-128500Y34614D02*
Y39293D01*
X-128793Y34321D02*
X-128500Y34614D01*
Y45000D02*
X-124725Y48775D01*
X-129086Y34029D02*
X-128793Y34321D01*
X-128500Y39293D02*
X-128192Y40139D01*
X-131158Y33169D02*
X-130299Y34029D01*
X-137950Y35319D02*
X-137500Y34869D01*
X-137207Y34321D02*
X-136914Y34029D01*
X-142256Y34700D02*
X-139877Y32321D01*
X-137500Y34614D02*
X-137207Y34322D01*
X-130330Y31169D02*
X-122884Y32321D01*
X-139014Y36135D02*
Y37021D01*
X-134405Y34029D02*
X-134244Y33970D01*
X-137500Y34614D02*
Y34869D01*
X-139014Y36135D02*
X-138339Y35460D01*
X-132044Y33169D02*
X-131158D01*
X-139877Y32321D02*
X-132872Y31169D01*
X-130330D01*
X-138339Y35460D02*
X-137950Y35319D01*
X-122884Y32321D02*
X-121206Y34000D01*
X154614Y-12800D02*
X155200Y-12214D01*
X154909Y14901D02*
X155200Y14610D01*
X145300Y-12800D02*
X154614D01*
Y15196D02*
X154905Y14905D01*
X153900Y15196D02*
X154614D01*
X152614Y-10500D02*
X153200Y-9914D01*
X123100Y7800D02*
X140200D01*
X140500Y7500D01*
X-141500Y-6500D02*
X-139118D01*
X-132693Y-75D01*
X-129133Y3000D02*
X-128547Y2414D01*
Y-10853D02*
Y2414D01*
X-125472Y-1200D02*
X-122492Y2489D01*
X-92917Y-102583D02*
Y-102305D01*
Y-102583D02*
X-91787Y-103713D01*
X-121206Y34000D02*
X-120800D01*
X-133200Y22500D02*
X-133000Y22700D01*
Y25500D01*
X-141187Y28575D02*
X-128732D01*
X-145331Y32719D02*
X-141187Y28575D01*
X-128732D02*
X-126193Y26035D01*
X-115725Y53075D02*
X-109500Y59300D01*
X-111725Y48300D02*
X-109500Y50525D01*
X-115725Y22025D02*
X-106333Y12633D01*
X-115725Y22025D02*
Y53075D01*
X-113725Y50550D02*
X-110675Y53600D01*
X-109500Y50525D02*
X-101008D01*
X-14600Y154900D02*
X-13500Y156000D01*
X-121200Y96400D02*
X-98100D01*
X-73100Y121400D02*
X-69700Y124800D01*
X-98100Y96400D02*
X-73100Y121400D01*
X-22226Y145925D02*
X-14800Y148800D01*
X-24774Y145925D02*
X-22226D01*
X-29300Y151600D02*
X-28714Y151014D01*
X-37900Y151600D02*
X-29300D01*
X-28714Y151014D02*
X-26960Y148778D01*
X-143200Y12500D02*
X-133200Y22500D01*
X-92917Y-102305D02*
Y-82283D01*
X-91787Y-103713D02*
X-59300Y-136200D01*
X-97136Y-97052D02*
X-92917Y-102305D01*
X-91787Y-103713D01*
X-8835Y130000D02*
X1165Y140000D01*
X0Y-5000D02*
X4600Y-400D01*
Y9635D01*
X635Y13600D02*
X4600Y9635D01*
X-8500Y13600D02*
X635D01*
X-9600Y14700D02*
X-8500Y13600D01*
X-9600Y14700D02*
Y22700D01*
X-6300Y26000D01*
X-1500D01*
X-300Y27200D01*
Y32700D01*
X3900Y36900D01*
X21100D01*
Y58749D01*
X61500Y5500D02*
X66100Y10100D01*
X72600D01*
X83400Y20900D01*
X91056D01*
X94256Y24100D01*
X96256Y25256D02*
X101300Y30300D01*
X96256Y21500D02*
Y25256D01*
X93634Y18878D02*
X96256Y21500D01*
X84878Y18878D02*
X93634D01*
X71500Y5500D02*
X84878Y18878D01*
X51000Y120000D02*
X80390Y90610D01*
Y79999D02*
Y90610D01*
Y79999D02*
X84675Y75714D01*
Y48949D02*
Y75714D01*
X80235Y44509D02*
X84675Y48949D01*
X59500Y16500D02*
Y24222D01*
X81600Y69800D02*
Y74900D01*
X75600Y80900D02*
X81600Y74900D01*
X75600Y80900D02*
Y85500D01*
X42700Y118400D02*
X75600Y85500D01*
X22500Y118400D02*
X42700D01*
X4500Y136400D02*
X22500Y118400D01*
X4500Y136400D02*
Y149000D01*
X5000Y18500D02*
X17400Y10000D01*
Y3500D02*
Y10000D01*
Y3500D02*
X19800Y1100D01*
X25000D01*
X27400Y3500D01*
Y9500D01*
X29451Y11551D01*
X32151D01*
X45500Y24900D01*
X-20800Y79600D02*
X-15400Y85000D01*
X-7700D01*
X-17000Y98000D02*
Y115700D01*
X-14600Y118100D01*
X-7500Y101900D02*
X841D01*
X19500Y83241D01*
Y69500D02*
Y83241D01*
X0Y2900D02*
Y5000D01*
X-4600Y1800D02*
X-3500Y2900D01*
X-4600Y-9600D02*
Y1800D01*
Y-9600D02*
X4500D01*
X7400Y-6700D01*
Y-1400D01*
X26549D01*
X29449Y1500D01*
Y7500D01*
X31500Y9551D01*
X36951D01*
X39100Y11700D01*
X63500D01*
X64900Y13100D01*
X82235Y42509D02*
X86675Y46949D01*
Y81125D01*
X83500Y84300D02*
X86675Y81125D01*
X85300Y37500D02*
Y39400D01*
X41500Y58646D02*
Y63400D01*
X42775Y64675D01*
Y94325D01*
X42500Y94600D02*
X42775Y94325D01*
X-79800Y25100D02*
X-67687D01*
X-66687Y26100D01*
X-32551Y24951D02*
Y31002D01*
Y24951D02*
X-31500Y23900D01*
X-23349D01*
X-21600Y22151D01*
Y14700D02*
Y22151D01*
Y14700D02*
X-19500Y12600D01*
X-18600D01*
X-12000Y6000D01*
X-34000Y5000D02*
X-30400Y1400D01*
X-19500D01*
X-17400Y3500D01*
Y8500D01*
X-19500Y10600D02*
X-17400Y8500D01*
X-23000Y10600D02*
X-19500D01*
X-24100Y11700D02*
X-23000Y10600D01*
X-32700Y11700D02*
X-24100D01*
X-42600Y21600D02*
X-32700Y11700D01*
X-62687Y21600D02*
X-42600D01*
X-63187Y21100D02*
X-62687Y21600D01*
X-14500Y43500D02*
X-7700Y50300D01*
Y54800D01*
X-12429Y59529D02*
X-7700Y54800D01*
X-34829Y59529D02*
X-12429D01*
X-90900Y43200D02*
X-90200Y42500D01*
X-131299Y66675D02*
X-128599Y69375D01*
X-86600Y-96600D02*
Y-84400D01*
Y-96600D02*
X-53400Y-129800D01*
X2400Y126900D02*
X5500Y130000D01*
X-28300Y126900D02*
X2400D01*
X-38600Y116600D02*
X-28300Y126900D01*
X-67567Y116600D02*
X-38600D01*
X28500Y135500D02*
X32000Y139500D01*
X25500Y132500D02*
X28500Y135500D01*
X-88800Y126800D02*
X-62700D01*
X-37900Y151600D01*
X-10100Y153500D02*
X7000D01*
X-153500Y10500D02*
X-136181D01*
X-154500Y9500D02*
X-153500Y10500D01*
X-154500Y3500D02*
Y9500D01*
X-126700Y-48500D02*
Y-12700D01*
Y-48500D02*
X-92917Y-82283D01*
X-64100Y108400D02*
X-42100D01*
X-92300Y80200D02*
X-64100Y108400D01*
X10300Y156000D02*
X11800Y154500D01*
X-13000Y156000D02*
X10300D01*
X-35300Y136500D02*
X-32000D01*
X-44700Y119000D02*
X-35300Y128400D01*
X-101400Y-42100D02*
X-96800Y-46700D01*
X-70125D01*
X-64825Y-41400D01*
Y-40482D01*
X-57943Y-33600D01*
X-25500D01*
X-23400Y-31500D01*
Y-13900D01*
X-26600Y-10700D02*
X-23400Y-13900D01*
X-26600Y-10700D02*
Y-2500D01*
X-25500Y-1400D01*
X-9500D01*
X-7400Y700D01*
Y10551D01*
X-9500D02*
X-7400D01*
X-12400Y13451D02*
X-9500Y10551D01*
X-12400Y13451D02*
Y35000D01*
X-12500Y35100D02*
X-12400Y35000D01*
X-21400Y35100D02*
X-12500D01*
X-28000Y28500D02*
X-21400Y35100D01*
X-72051Y-24385D02*
X-66819D01*
X-63885Y-21451D01*
X-108181Y45100D02*
X-104922Y48359D01*
X-85850D01*
X-21736Y53500D02*
X-14500D01*
X-5700Y61300D02*
X5000Y72000D01*
X-5700Y43400D02*
Y61300D01*
X-10200Y38900D02*
X-5700Y43400D01*
X-18800Y38900D02*
X-10200D01*
X-20400Y40500D02*
X-18800Y38900D01*
X-20400Y40500D02*
Y48100D01*
X-107181Y38000D02*
X-98822Y46359D01*
X-76000Y5500D02*
X-71500D01*
X-76100Y16500D02*
X-69500D01*
X-118500Y63000D02*
X-89636D01*
X-130500Y51000D02*
X-118500Y63000D01*
X-139897Y51900D02*
Y54420D01*
X-124725Y48775D02*
X-119000D01*
X-117725Y47500D01*
X13551Y-71451D02*
X20117Y-78017D01*
X13551Y-71451D02*
Y-62112D01*
X7220Y-55780D02*
X13551Y-62112D01*
X7220Y-55780D02*
Y-39820D01*
X-400Y-32200D02*
X7220Y-39820D01*
X-400Y-32200D02*
Y-23100D01*
X-5000Y-18500D02*
X-400Y-23100D01*
X-47600Y-101600D02*
X-27300Y-81300D01*
X-48900Y-101600D02*
X-47600D01*
X-50000Y-126700D02*
X-26000D01*
X-54200Y-122500D02*
X-50000Y-126700D01*
X-54200Y-122500D02*
Y-120100D01*
X-51825Y-117725D01*
X-25150D01*
X-21925Y-114500D01*
X-54500Y-108700D02*
X-40525D01*
X-58700Y-104500D02*
X-54500Y-108700D01*
X-58700Y-104500D02*
Y-78700D01*
X-55175Y-75175D01*
Y-65047D01*
X-40828Y-50700D01*
X-39600D01*
X-4600Y-51600D02*
X0Y-47000D01*
X3200Y-92100D02*
X9900Y-98800D01*
Y-116181D02*
Y-98800D01*
X-52100Y-67700D02*
Y-67400D01*
Y-67700D02*
X-45300Y-68500D01*
X-42000Y-65200D01*
X-39500D01*
X-22651Y-50051D02*
X-17949D01*
X-14500Y-53500D01*
X-21700Y-58100D02*
X-12628D01*
X-9900Y-55372D01*
Y-50500D01*
X-12349Y-48051D02*
X-9900Y-50500D01*
X-19100Y-48051D02*
X-12349D01*
X-29340Y-47500D02*
X-19100Y-48051D01*
X-19500Y-85650D02*
Y-69500D01*
Y-85650D02*
X-7500Y-97650D01*
X4050D01*
X-52700Y-52707D02*
X-49271D01*
X-57200Y-60700D02*
X-52700Y-56200D01*
X-57200Y-73500D02*
Y-60700D01*
X-59400Y-75700D02*
X-57200Y-73500D01*
X-75800Y-75700D02*
X-59400D01*
X-81399Y-91137D02*
X-61052Y-111484D01*
X-81399Y-91137D02*
Y-64399D01*
X-59000Y-42000D01*
X-60700Y-131800D02*
X-23600D01*
X-88700Y-103800D02*
X-60700Y-131800D01*
X-88700Y-103800D02*
Y-96100D01*
X-89700Y-95100D02*
X-88700Y-96100D01*
X-89700Y-95100D02*
Y-60900D01*
X-93700Y-56900D02*
X-89700Y-60900D01*
X-93700Y-27500D02*
Y-22800D01*
X-79302Y-13800D02*
X-72051Y-21051D01*
X-67251D01*
X-62700Y-16500D01*
X-59500D01*
X-10500Y-149500D02*
Y-144400D01*
X-13500Y-141400D02*
X-10500Y-144400D01*
X-57500Y-141400D02*
X-13500D01*
X-75052Y-123848D02*
X-57500Y-141400D01*
X-85740Y-123848D02*
X-75052D01*
X-97900Y-111688D02*
X-85740Y-123848D01*
X-97900Y-111688D02*
Y-103000D01*
X16500Y-84800D02*
Y-79800D01*
X13500Y-14500D02*
X22000Y-6000D01*
X12400Y-14500D02*
X13500D01*
X12400Y-33600D02*
Y-14500D01*
X73875Y-36175D02*
X99649D01*
X108805Y-27019D01*
X111181D01*
X28000Y-18500D02*
X35000Y-11500D01*
X24300Y-80700D02*
X33900Y-90300D01*
X24300Y-80700D02*
Y-77900D01*
X17000Y-29000D02*
X22500Y-23500D01*
X54251D01*
X55251Y-24500D01*
X78879D01*
X82554Y-28175D01*
X88004D01*
X92275Y-23904D01*
Y-18500D01*
X46500Y-16500D02*
X50724D01*
X55275Y-11949D01*
X74350D01*
X75966Y-13564D01*
X79936D01*
X40500Y-29000D02*
X45100Y-33600D01*
X53300D01*
X58400Y-28500D01*
X74879D01*
X78554Y-32175D01*
X93725D01*
X100100Y-25800D01*
X50500Y-29000D02*
X53000Y-26500D01*
X76879D01*
X80554Y-30175D01*
X90004D01*
X94275Y-27700D01*
Y-21200D01*
X96975Y-18500D01*
X134300D01*
X142300Y-10500D01*
X103641Y-40175D02*
X106249Y-37567D01*
X66966Y-67826D02*
X90148D01*
X61219Y-62080D02*
X66966Y-67826D01*
X52208Y-62080D02*
X61219D01*
X14500Y-53000D02*
X21736D01*
X69500Y-16500D02*
X88800D01*
X39300Y-59000D02*
X41500D01*
X89400Y-84000D02*
X110100Y-63300D01*
X46817Y-84000D02*
X89400D01*
X28897Y-66080D02*
X46817Y-84000D01*
X127500Y-34183D02*
X139920Y-46603D01*
X78800Y-120700D02*
Y-104800D01*
X76500Y-123000D02*
X78800Y-120700D01*
X51600Y-74000D02*
X92706D01*
X-5000Y105000D02*
X3871D01*
X11700Y31500D02*
X15100Y34900D01*
X11700Y29600D02*
Y31500D01*
X6500Y24400D02*
X11700Y29600D01*
X2500Y24400D02*
X6500D01*
X400Y22300D02*
X2500Y24400D01*
X400Y16664D02*
Y22300D01*
Y16664D02*
X7564Y9500D01*
X8500D01*
X12000Y6000D01*
X100837Y-38175D02*
X105437Y-33575D01*
X116300D01*
X49271Y-52707D02*
X56644Y-60080D01*
X62228D01*
X60564Y35500D02*
X78523Y53459D01*
Y70542D01*
X73358Y75706D02*
X78523Y70542D01*
X73358Y75706D02*
Y82875D01*
X49233Y107000D02*
X73358Y82875D01*
X59201Y41480D02*
X76523Y58802D01*
Y67654D01*
X70913Y73264D02*
X76523Y67654D01*
X70913Y73264D02*
Y76387D01*
X43500Y103800D02*
X70913Y76387D01*
X22500Y103800D02*
X43500D01*
X20900Y105400D02*
X22500Y103800D01*
X20900Y105400D02*
Y111900D01*
X-109500Y59300D02*
X-87500D01*
X-52500Y52707D02*
X-49271D01*
X-129100Y74700D02*
X-85300D01*
X-134374Y69426D02*
X-129100Y74700D01*
X-134374Y64326D02*
Y69426D01*
X-133603Y38580D02*
Y45403D01*
X-140950Y22500D02*
X-133200D01*
X-147703Y29253D02*
X-140950Y22500D01*
X-147703Y29253D02*
Y44897D01*
X-144500Y48100D01*
Y58000D01*
X-136374Y66126D01*
Y74726D01*
X-118900Y92200D01*
X-102317D01*
X48340Y-139000D02*
X51100Y-136240D01*
X19500Y-72183D02*
Y-69500D01*
X23058Y-72183D02*
X33900Y-83025D01*
Y-84500D02*
Y-83025D01*
X11551Y-85751D02*
Y-66398D01*
X4600Y-59447D02*
X11551Y-66398D01*
X4600Y-59447D02*
Y-42400D01*
X-4600D02*
X4600D01*
X-5700Y-43500D02*
X-4600Y-42400D01*
X-14500Y-43500D02*
X-5700D01*
X3800Y-64000D02*
X6151D01*
X9551Y-67400D01*
Y-88351D02*
Y-67400D01*
X23200Y-63400D02*
X24300Y-64500D01*
X18300Y-63400D02*
X23200D01*
X9900Y-55000D02*
X18300Y-63400D01*
X9900Y-55000D02*
Y-16500D01*
X5300Y-11900D02*
X9900Y-16500D01*
X-6100Y-11900D02*
X5300D01*
X-12000Y-6000D02*
X-6100Y-11900D01*
X-53800Y-82871D02*
X-40800Y-69871D01*
X-53800Y-102200D02*
Y-82871D01*
Y-102200D02*
X-49500Y-106500D01*
X-48300D01*
X-34152Y-92352D01*
X-20629D01*
X-19925Y-93056D01*
Y-112275D02*
Y-93056D01*
X3600Y-81300D02*
X5000Y-79900D01*
Y-72000D01*
X26300Y95000D02*
X33448Y87852D01*
Y56217D02*
Y87852D01*
X29340Y52108D02*
X33448Y56217D01*
X29340Y48000D02*
Y52108D01*
X-9800Y121500D02*
X27200Y84500D01*
X19100Y38900D02*
Y55581D01*
X2900Y38900D02*
X19100D01*
X-5000Y31000D02*
X2900Y38900D01*
X2700Y79300D02*
X6500D01*
X9900Y75900D01*
Y48100D02*
Y75900D01*
Y48100D02*
X14500Y43500D01*
X-60800Y-69500D02*
X-59200Y-67900D01*
Y-59300D01*
X-57800Y-57900D01*
X-33449Y-44385D02*
Y-43500D01*
X-12400Y-33000D02*
Y-16500D01*
X-9800Y-13900D01*
X400D01*
X5000Y-18500D01*
X-50000Y124300D02*
Y126100D01*
X-35100Y141000D01*
X165D01*
X1165Y140000D01*
X14500Y-43000D02*
X22500Y-51000D01*
X42000Y-45800D02*
X54300D01*
X40300Y-47500D02*
X42000Y-45800D01*
X29339Y-47500D02*
X40300D01*
X-44700Y72575D02*
Y74400D01*
X-59300Y89000D02*
X-44700Y74400D01*
X-56928Y94200D02*
X-33428Y70700D01*
X-64000Y98300D02*
X-57900D01*
X-32300Y72700D01*
X-22700D01*
X-19500Y69500D01*
X59000Y-42000D02*
X61600Y-44600D01*
X76000D01*
X64299Y-33520D02*
X75899D01*
X76554Y-34175D01*
X98013D01*
X110787Y-21400D01*
X136700D01*
X145300Y-12800D01*
X-31800Y-28500D02*
X-28000D01*
X-35900Y-24400D02*
X-31800Y-28500D01*
X-59900Y-24400D02*
X-35900D01*
X-61885Y-26385D02*
X-59900Y-24400D01*
X-70185Y-26385D02*
X-61885D01*
X-96802Y-29591D02*
X-95807Y-30586D01*
X-107500Y-29591D02*
X-96802D01*
X-64299Y-33899D02*
Y-33520D01*
X-66825Y-36425D02*
X-64299Y-33899D01*
X-66825Y-40500D02*
Y-36425D01*
X-68400Y-42075D02*
X-66825Y-40500D01*
X-78775Y-42075D02*
X-68400D01*
X-80300Y-43600D02*
X-78775Y-42075D01*
X-66100Y-10100D02*
X-61500Y-5500D01*
X-82500Y-10100D02*
X-66100D01*
X-109406Y-53694D02*
X-90494D01*
X-83500Y-60688D01*
Y-93600D02*
Y-60688D01*
Y-93600D02*
X-63600Y-113500D01*
X-26000D01*
X-62300Y-58800D02*
X-59829Y-56329D01*
X-17000Y-32500D02*
Y-29000D01*
X-17750Y-33250D02*
X-17000Y-32500D01*
X-19250Y-33250D02*
X-17750D01*
X-22900Y-36900D02*
X-19250Y-33250D01*
X-51500Y-36900D02*
X-22900D01*
X-65375Y-57500D02*
X-63600Y-55725D01*
X-65375Y-72600D02*
Y-57500D01*
X-145331Y39669D02*
X-143000Y42000D01*
X-145331Y32719D02*
Y39669D01*
X-73425Y11900D02*
X-35900D01*
X-33600Y9600D01*
X-25600D01*
X-22000Y6000D01*
X-109000Y-62800D02*
X-96100D01*
X-120500Y-51300D02*
X-109000Y-62800D01*
X-120500Y-51300D02*
Y-8500D01*
X-84425Y-5500D02*
X-71500D01*
X-70400Y27100D02*
X-64500Y33000D01*
X-77050Y27100D02*
X-70400D01*
X-31100Y18500D02*
X-28000D01*
X-36700Y24100D02*
X-31100Y18500D01*
X-64687Y24100D02*
X-36700D01*
X-65687Y23100D02*
X-64687Y24100D01*
X22000Y6000D02*
Y29800D01*
X42600Y36400D02*
Y37900D01*
X53900Y49200D01*
Y61500D01*
X60600Y68200D01*
X44720Y54238D02*
X47400Y56917D01*
Y94500D01*
X41900Y100000D02*
X47400Y94500D01*
X31100Y100000D02*
X41900D01*
X-2875Y-126125D02*
X7181Y-136181D01*
X-21075Y-126125D02*
X-2875D01*
X-25800Y-121400D02*
X-21075Y-126125D01*
X-49972Y-121400D02*
X-25800D01*
X-8636Y-154000D02*
X1164Y-144200D01*
X-12900Y-154000D02*
X-8636D01*
X-14100Y-152800D02*
X-12900Y-154000D01*
X-16500Y-152800D02*
X-14100D01*
X-21200Y-148100D02*
X-16500Y-152800D01*
X-32800Y-148100D02*
X-21200D01*
X-155500Y12500D02*
X-143200D01*
X-156500Y11500D02*
X-155500Y12500D01*
X-156500Y-10500D02*
Y11500D01*
Y-10500D02*
X-154300Y-12700D01*
X-153500D01*
X-129145Y-37055D01*
Y-56355D02*
Y-37055D01*
Y-56355D02*
X-99700Y-85800D01*
Y-89800D02*
Y-85800D01*
X63400Y130000D02*
X99000Y94400D01*
X30000Y130000D02*
X63400D01*
D50*
X50538Y-48302D02*
D03*
D03*
D03*
D03*
X-35799Y-57513D02*
D03*
X-25693Y70407D02*
D03*
X-137207Y34321D02*
D03*
D51*
X-28897Y66080D02*
D03*
X-46500Y-16500D02*
D03*
X139920Y-46603D02*
D03*
X17000Y-29000D02*
D03*
X76500Y-123000D02*
D03*
X48340Y-139000D02*
D03*
X22000Y-6000D02*
D03*
X34000Y5000D02*
D03*
X28000Y-28500D02*
D03*
X46500Y-16500D02*
D03*
X50500Y-29000D02*
D03*
X37999Y-42500D02*
D03*
X14500Y-53000D02*
D03*
X71500Y-5500D02*
D03*
X69500Y-16500D02*
D03*
X64299Y-33520D02*
D03*
X49271Y-52707D02*
D03*
X28897Y-66080D02*
D03*
X-34000Y-5000D02*
D03*
X5000Y-18500D02*
D03*
X-22000Y-6000D02*
D03*
X5000Y-31000D02*
D03*
X-17000Y-29000D02*
D03*
X-28000Y-28500D02*
D03*
X0Y-57000D02*
D03*
X-14500Y-53500D02*
D03*
X-38000Y-42500D02*
D03*
X-50500Y-29000D02*
D03*
X-5000Y-72000D02*
D03*
X-28897Y-66080D02*
D03*
X-49271Y-52707D02*
D03*
X-64299Y-33520D02*
D03*
X-69500Y-16500D02*
D03*
X-71500Y-5500D02*
D03*
X-139897Y54420D02*
D03*
X-143000Y42000D02*
D03*
X38000Y43000D02*
D03*
X64500Y33000D02*
D03*
X49271Y52352D02*
D03*
X28897Y66080D02*
D03*
X71500Y5500D02*
D03*
X69500Y16500D02*
D03*
X46500D02*
D03*
X50500Y29500D02*
D03*
X28000Y28500D02*
D03*
X14500Y53500D02*
D03*
X17000Y29000D02*
D03*
X22000Y6000D02*
D03*
X-1000Y57000D02*
D03*
X5000Y31000D02*
D03*
Y18500D02*
D03*
X0Y5000D02*
D03*
X-22000Y6000D02*
D03*
X-28000Y28500D02*
D03*
X5000Y72000D02*
D03*
X-17000Y29000D02*
D03*
X-46500Y17000D02*
D03*
X-50500Y29500D02*
D03*
X-37999Y43000D02*
D03*
X-14500Y53500D02*
D03*
X-71500Y5500D02*
D03*
X-69500Y16500D02*
D03*
X-64500Y33000D02*
D03*
X-49271Y52707D02*
D03*
D52*
X-19500Y69500D02*
D03*
X19500Y-69500D02*
D03*
D53*
X149500Y6500D02*
D03*
Y-6000D02*
D03*
X-10500Y-149500D02*
D03*
X9000Y-149000D02*
D03*
X-150000Y6000D02*
D03*
X-32000Y136500D02*
D03*
X-30500Y146000D02*
D03*
X32000Y139500D02*
D03*
X30000Y130000D02*
D03*
X-152000Y-3500D02*
D03*
X4500Y149000D02*
D03*
X-4000D02*
D03*
X-74000Y133500D02*
D03*
X-57000Y140000D02*
D03*
D54*
X-46500Y-6500D02*
D03*
X17000Y-19000D02*
D03*
X34000Y-5000D02*
D03*
X28000Y-18500D02*
D03*
X46500Y-6500D02*
D03*
X14500Y-43000D02*
D03*
X-34000Y5000D02*
D03*
X-17000Y-19000D02*
D03*
X-28000Y-18500D02*
D03*
X0Y-47000D02*
D03*
X-14500Y-43500D02*
D03*
X-17000Y19000D02*
D03*
X46500Y6500D02*
D03*
X28000Y18500D02*
D03*
X14500Y43500D02*
D03*
X17000Y19000D02*
D03*
X-1000Y47000D02*
D03*
X0Y-5000D02*
D03*
X-28000Y18500D02*
D03*
X-46500Y7000D02*
D03*
X-14500Y43500D02*
D03*
D55*
X136500Y-56000D02*
D03*
D56*
X85160Y-118000D02*
D03*
X57000Y-134000D02*
D03*
X29339Y-47500D02*
D03*
X-29339Y48000D02*
D03*
D57*
X12000Y-6000D02*
D03*
X40500Y-29000D02*
D03*
X61500Y-5500D02*
D03*
X59500Y-16500D02*
D03*
X-5000Y-18500D02*
D03*
X-12000Y-6000D02*
D03*
X-5000Y-31000D02*
D03*
X-40500Y-29000D02*
D03*
X5000Y-72000D02*
D03*
X-59500Y-16500D02*
D03*
X-61500Y-5500D02*
D03*
X61500Y5500D02*
D03*
X59500Y16500D02*
D03*
X40500Y29500D02*
D03*
X12000Y6000D02*
D03*
X-5000Y31000D02*
D03*
Y18500D02*
D03*
X-12000Y6000D02*
D03*
X-5000Y72000D02*
D03*
X-40500Y29500D02*
D03*
X-61500Y5500D02*
D03*
X-59500Y16500D02*
D03*
D58*
X59000Y-42000D02*
D03*
X-59201Y41480D02*
D03*
D59*
X41500Y-59000D02*
D03*
X-41500Y59000D02*
D03*
D60*
X-29340Y-47500D02*
D03*
X29340Y48000D02*
D03*
D61*
X-19500Y-69500D02*
D03*
X-130500Y51000D02*
D03*
X-133603Y38580D02*
D03*
X19500Y69500D02*
D03*
D62*
X-41500Y-59000D02*
D03*
X41500Y58646D02*
D03*
D63*
X-59000Y-42000D02*
D03*
X59201Y41480D02*
D03*
D64*
X26500Y39000D02*
D03*
X32000Y-99000D02*
D03*
X37086Y-102611D02*
D03*
X-121000Y29000D02*
D03*
X-92000Y37000D02*
D03*
X-84575Y7000D02*
D03*
X-8000Y-135000D02*
D03*
X-74848Y55152D02*
D03*
X-70500Y59500D02*
D03*
X-74500Y64000D02*
D03*
X-101000Y114000D02*
D03*
X26000Y-130000D02*
D03*
X-90000Y-10500D02*
D03*
X-99000Y-9000D02*
D03*
X-96000Y11575D02*
D03*
X-106500Y2500D02*
D03*
X-74826Y-34326D02*
D03*
X-78425Y-30726D02*
D03*
X-88000Y-31500D02*
D03*
X-77200Y-24350D02*
D03*
X-119500Y-2500D02*
D03*
X-128000Y10500D02*
D03*
X-89000D02*
D03*
X-84575Y35868D02*
D03*
X-91000Y27500D02*
D03*
X-96000Y32500D02*
D03*
X-103000Y29500D02*
D03*
X-107000Y33000D02*
D03*
X117500Y-26500D02*
D03*
X124000Y-27000D02*
D03*
X132000Y-26500D02*
D03*
X129000Y-10500D02*
D03*
X124000Y-7425D02*
D03*
X104300Y5500D02*
D03*
X116000Y26500D02*
D03*
X79502Y-21489D02*
D03*
X-120500Y82500D02*
D03*
X25500Y-141000D02*
D03*
X84500Y-43500D02*
D03*
X91000Y-41250D02*
D03*
X96787Y-43971D02*
D03*
X-65000Y62000D02*
D03*
X-56111Y54979D02*
D03*
X-61893Y52248D02*
D03*
X55826Y-52326D02*
D03*
X77000Y-10000D02*
D03*
X53000Y-8500D02*
D03*
X49500Y37000D02*
D03*
X32500Y37500D02*
D03*
X-38000Y-16500D02*
D03*
X26000Y107000D02*
D03*
X26500Y115000D02*
D03*
X26000Y123500D02*
D03*
Y137000D02*
D03*
X-94075Y90200D02*
D03*
X67521Y-41021D02*
D03*
X78500Y-61000D02*
D03*
X113500Y-58000D02*
D03*
X33500Y-59500D02*
D03*
X-5000Y-62500D02*
D03*
X-2000Y-86500D02*
D03*
X-4000Y-81075D02*
D03*
X26000Y-99000D02*
D03*
X27000Y-119500D02*
D03*
X30500Y-124500D02*
D03*
X-27000Y-135500D02*
D03*
X-11500Y-129500D02*
D03*
X-11000Y-119000D02*
D03*
X-11500Y-101000D02*
D03*
X-26500Y-99500D02*
D03*
X-28075Y-73500D02*
D03*
X-70500Y-38500D02*
D03*
X-112000Y-35500D02*
D03*
X89500Y-11000D02*
D03*
X119000Y11500D02*
D03*
X76000Y22500D02*
D03*
X68674Y24326D02*
D03*
X39675Y71512D02*
D03*
Y78100D02*
D03*
X27200Y74600D02*
D03*
X107500Y76000D02*
D03*
X-56500Y123000D02*
D03*
X-23000Y154000D02*
D03*
X-12000Y115000D02*
D03*
X-26500Y120500D02*
D03*
X-27000Y111000D02*
D03*
X-12000Y95500D02*
D03*
X-26000Y90000D02*
D03*
X-69100Y94575D02*
D03*
X-68075Y72500D02*
D03*
X-58425Y69575D02*
D03*
X-37999Y69417D02*
D03*
X-69000Y41925D02*
D03*
X-104075Y53600D02*
D03*
X140500Y7500D02*
D03*
X-141693Y-6965D02*
D03*
X-132693Y-75D02*
D03*
X-125472Y-1200D02*
D03*
X-118193Y10535D02*
D03*
X-120800Y34000D02*
D03*
X-133000Y25500D02*
D03*
X-121200Y96400D02*
D03*
X-23500Y149000D02*
D03*
X-8835Y130000D02*
D03*
X-300Y95500D02*
D03*
X101300Y30300D02*
D03*
X51000Y120000D02*
D03*
X81600Y69800D02*
D03*
X70500Y64000D02*
D03*
X-28300Y80300D02*
D03*
X-26200Y100000D02*
D03*
X-20800Y79600D02*
D03*
X-7700Y85000D02*
D03*
X36600Y84300D02*
D03*
X83500D02*
D03*
X85300Y39400D02*
D03*
X42500Y94600D02*
D03*
X-90900Y43200D02*
D03*
X-73300Y35300D02*
D03*
X-131299Y66675D02*
D03*
X-86600Y-84400D02*
D03*
X5500Y130000D02*
D03*
X-88800Y126800D02*
D03*
X-97136Y-97052D02*
D03*
X-136181Y10500D02*
D03*
X-42100Y108400D02*
D03*
X58623Y137000D02*
D03*
X-142256Y34700D02*
D03*
X-115600Y86100D02*
D03*
X-101400Y-42100D02*
D03*
X-106100Y-33400D02*
D03*
X-108181Y45100D02*
D03*
X-107181Y38000D02*
D03*
X-89636Y63000D02*
D03*
X-48900Y-101600D02*
D03*
X-26000Y-126700D02*
D03*
X-39600Y-50700D02*
D03*
X9900Y-116181D02*
D03*
X-52100Y-67400D02*
D03*
X-97600Y-37175D02*
D03*
X4050Y-97650D02*
D03*
X-75800Y-75700D02*
D03*
X-93700Y-56900D02*
D03*
Y-27500D02*
D03*
X-97900Y-103000D02*
D03*
X16500Y-79800D02*
D03*
X111181Y-27019D02*
D03*
X59300Y-65900D02*
D03*
X91181Y26500D02*
D03*
X33900Y-90300D02*
D03*
X24300Y-77900D02*
D03*
X126181Y4700D02*
D03*
X100100Y-25800D02*
D03*
X106249Y-37567D02*
D03*
X81300Y-77400D02*
D03*
X51600Y-74000D02*
D03*
X-5000Y105000D02*
D03*
X116300Y-33575D02*
D03*
X-71800Y30200D02*
D03*
X-106333Y12633D02*
D03*
X-85300Y74700D02*
D03*
X-102317Y92200D02*
D03*
X33900Y-84500D02*
D03*
X5300Y-88287D02*
D03*
X3800Y-64000D02*
D03*
X-40800Y-69871D02*
D03*
X-16400Y-61800D02*
D03*
X-12000Y-88300D02*
D03*
X3600Y-81300D02*
D03*
X26300Y95000D02*
D03*
X-60800Y-69500D02*
D03*
X-50000Y124300D02*
D03*
X1165Y140000D02*
D03*
X70400Y-53300D02*
D03*
X-44700Y72575D02*
D03*
X-59300Y89000D02*
D03*
X-64000Y98300D02*
D03*
X74700Y-56100D02*
D03*
X106200Y28300D02*
D03*
X-80300Y-43600D02*
D03*
X-26000Y-113500D02*
D03*
X-62300Y-58800D02*
D03*
X-65375Y-72600D02*
D03*
X-22000Y-54100D02*
D03*
X-43600Y-91000D02*
D03*
X-30900Y-79600D02*
D03*
X-126193Y26035D02*
D03*
X-96100Y-62800D02*
D03*
X-36100Y81500D02*
D03*
X60600Y68200D02*
D03*
X31100Y100000D02*
D03*
X7181Y-136181D02*
D03*
X-49972Y-121400D02*
D03*
X-32800Y-148100D02*
D03*
X-99700Y-89800D02*
D03*
X99000Y94400D02*
D03*
X-500Y-141181D02*
D03*
M02*
