G04*
G04 #@! TF.GenerationSoftware,Altium Limited,Altium Designer,23.1.1 (15)*
G04*
G04 Layer_Physical_Order=2*
G04 Layer_Color=16711680*
%FSLAX25Y25*%
%MOIN*%
G70*
G04*
G04 #@! TF.SameCoordinates,7BBB67DB-ABBC-4A8F-A206-69BFBB4F4367*
G04*
G04*
G04 #@! TF.FilePolarity,Positive*
G04*
G01*
G75*
%ADD52C,0.01228*%
%ADD53C,0.06102*%
%ADD54P,0.08630X4X245.0*%
%ADD55C,0.06000*%
%ADD56R,0.06102X0.06102*%
%ADD57P,0.08630X4X115.0*%
%ADD58P,0.08630X4X255.0*%
%ADD59R,0.06102X0.06102*%
%ADD60P,0.08630X4X103.0*%
%ADD61P,0.08630X4X84.0*%
%ADD62P,0.08630X4X195.0*%
%ADD63P,0.08630X4X205.0*%
%ADD64P,0.08630X4X186.0*%
%ADD65P,0.08630X4X167.0*%
%ADD66C,0.03150*%
%ADD67C,0.05000*%
D52*
X-155500Y0D02*
X-152000Y-3500D01*
X-154780Y11500D02*
X-145289D01*
X-155500Y0D02*
Y10780D01*
X-154780Y11500D01*
X11700Y153800D02*
Y155780D01*
X10980Y156500D02*
X11700Y155780D01*
X-10900Y156500D02*
X10980D01*
X-14000Y153400D02*
X-10900Y156500D01*
X-7995Y154000D02*
X8480D01*
X-8714Y153280D02*
X-7995Y154000D01*
X-8714Y146086D02*
Y153280D01*
X8480Y154000D02*
X9200Y153280D01*
Y149500D02*
Y153280D01*
X3587Y148087D02*
X4500Y149000D01*
X5131Y139131D02*
X6000Y140000D01*
X3189Y137020D02*
X5131Y138962D01*
X3189Y136500D02*
Y137020D01*
X1612Y148087D02*
X3587D01*
X0Y146475D02*
X1612Y148087D01*
X0Y116416D02*
X8716Y107700D01*
X0Y116416D02*
Y146475D01*
X5131Y138962D02*
Y139131D01*
X6000Y140000D02*
X12000D01*
X-32753Y119415D02*
X-14620D01*
X-7200Y126835D01*
X-4000Y115477D02*
X6912Y104565D01*
X-4000Y115477D02*
Y149000D01*
X-152500Y-14500D02*
X-145300Y-7300D01*
X-152500Y-30500D02*
Y-14500D01*
Y-30500D02*
X-146000Y-37000D01*
X-149900Y-29633D02*
Y-15051D01*
X-145349Y-10500D01*
X-149900Y-29633D02*
X-124000Y-55533D01*
X-145300Y-7300D02*
X-139500D01*
X-145349Y-10500D02*
X-141181D01*
X-87600Y-18500D02*
X-84811Y-21289D01*
X-90661Y-27700D02*
X-89672Y-28689D01*
X-84811Y-26821D02*
Y-21289D01*
X-97900Y-31600D02*
X-86439D01*
X-92032Y-24000D02*
X-90899Y-25132D01*
X-122800Y-24000D02*
X-92032D01*
X-94174Y-27700D02*
X-90661D01*
X-89672Y-28689D02*
X-86679D01*
X-86439Y-31600D02*
X-76039Y-21200D01*
X-88368Y-25132D02*
X-88000Y-25500D01*
X-76039Y-21200D02*
X-41500D01*
X-86679Y-28689D02*
X-84811Y-26821D01*
X-90899Y-25132D02*
X-88368D01*
X-146000Y-43500D02*
Y-37000D01*
Y-43500D02*
X-142500Y-47000D01*
Y-56000D02*
Y-47000D01*
Y-56000D02*
X-130500Y-68000D01*
Y-84000D02*
Y-68000D01*
Y-84000D02*
X-122000Y-92500D01*
Y-96000D02*
Y-92500D01*
X-124000Y-87160D02*
X-96200Y-114960D01*
X-124000Y-87160D02*
Y-55533D01*
X-122000Y-96000D02*
X-98000Y-120000D01*
X-94000D01*
X-87000Y-127000D01*
X-83500D01*
X-75500Y-135000D01*
X-74000D01*
X-67424Y-139576D02*
X-66500Y-140500D01*
X-69424Y-139576D02*
X-67424D01*
X-74000Y-135000D02*
X-69424Y-139576D01*
X-66600Y-137400D02*
X-49700D01*
X-97800Y-106200D02*
X-66600Y-137400D01*
X-97800Y-106200D02*
Y-61500D01*
X-49700Y-137400D02*
X-39328Y-147772D01*
X-66500Y-140500D02*
X-60000D01*
X-55500Y-145000D01*
X-50000D01*
X-70295Y-129605D02*
Y-129195D01*
Y-129605D02*
X-66700Y-133200D01*
X-40500Y-150000D02*
X-38000D01*
X-41000Y-149500D02*
X-40500Y-150000D01*
X-43500Y-147500D02*
X-41500Y-149500D01*
X-41000D01*
X-39328Y-147772D02*
X-26424D01*
X-25424Y-148772D02*
X-11472D01*
X-10500Y-147800D01*
X-37000Y-151000D02*
X-20000D01*
X-26424Y-147772D02*
X-25424Y-148772D01*
X-10500Y-147800D02*
X-8500D01*
X-38000Y-150000D02*
X-37000Y-151000D01*
X-47500Y-147500D02*
X-43500D01*
X-50000Y-145000D02*
X-47500Y-147500D01*
X-20000Y-151000D02*
X-16500Y-154500D01*
X10282D01*
X-59600Y-125800D02*
X-26700D01*
X-66700Y-133200D02*
X-32670D01*
X-94800Y-90600D02*
Y-64889D01*
Y-90600D02*
X-59600Y-125800D01*
X-64600Y-128500D02*
X-32681D01*
X-94600Y-98500D02*
X-64600Y-128500D01*
X10282Y-154500D02*
X23600Y-141182D01*
X-8500Y-142100D02*
X-800Y-149800D01*
X-30000Y-142100D02*
X-8500D01*
X23600Y-141182D02*
Y-99800D01*
X-4470Y-139370D02*
X-1300Y-136200D01*
X12000D01*
X34000Y-148000D02*
X36000Y-146000D01*
X50000D01*
X52000Y-144000D02*
X59500D01*
X50000Y-146000D02*
X52000Y-144000D01*
X59500D02*
X67500Y-136000D01*
X71500D01*
X75500Y-132000D01*
X82000D01*
X86000Y-128000D01*
X88500D01*
X100000Y-116500D02*
X100780D01*
X88500Y-128000D02*
X100000Y-116500D01*
X101500Y-115780D02*
Y-115500D01*
X100780Y-116500D02*
X101500Y-115780D01*
Y-115500D02*
X129500Y-87500D01*
Y-82500D01*
X123700Y-86500D02*
Y-82000D01*
X132900Y-72800D01*
X121000Y-89200D02*
X123700Y-86500D01*
X129500Y-82500D02*
X136500Y-75500D01*
Y-72500D01*
X139000Y-70000D02*
Y-65500D01*
X136500Y-72500D02*
X139000Y-70000D01*
Y-65500D02*
X143000Y-61500D01*
Y-60500D02*
X144600Y-58900D01*
X143000Y-61500D02*
Y-60500D01*
X144600Y-58900D02*
Y-49200D01*
X132900Y-72800D02*
Y-56000D01*
X136500D01*
X142500Y-51300D02*
X144600Y-49200D01*
X136500Y-51300D02*
X142500D01*
X134000Y-48800D02*
X136500Y-51300D01*
X-96000Y111400D02*
X-85600Y121800D01*
X69500Y18901D02*
X75256D01*
X-18231Y98400D02*
X-14800D01*
X-41300D02*
X-18231D01*
X23600Y-99800D02*
X44200Y-120400D01*
X-142765Y-20785D02*
X-126015D01*
X-122800Y-24000D01*
X-139500Y-7300D02*
X-126015Y-20785D01*
X18700Y9500D02*
X22000D01*
X3100Y2500D02*
Y5000D01*
X33200Y130000D02*
Y141500D01*
Y130000D02*
X52851D01*
X14100Y114461D02*
X21139D01*
X-66511Y32511D02*
Y33000D01*
X-66636Y-78836D02*
Y-48100D01*
X1500Y-28100D02*
X5000D01*
X-32400Y-60500D02*
X0D01*
X-31451Y-56400D02*
X-14500D01*
X10523Y-45549D02*
X14500D01*
X-114700Y92000D02*
Y103900D01*
X-96800Y121800D01*
X-85600D01*
X-78600Y128800D01*
X-69500D01*
X-63500Y134800D02*
Y139500D01*
X11300Y58200D02*
Y78300D01*
X-1200Y90800D02*
X11300Y78300D01*
X12100Y125800D02*
X14100Y123800D01*
X53800D01*
X74900Y102700D01*
X86800D01*
X94000Y95500D01*
Y44500D02*
Y95500D01*
X9700Y-85900D02*
X12000Y-88200D01*
X-2793Y-85900D02*
X9700D01*
X-8292Y-80400D02*
X-2793Y-85900D01*
X-40785Y-80400D02*
X-8292D01*
X-42785Y-78400D02*
X-40785Y-80400D01*
X44200Y-120400D02*
X47200D01*
X69500Y-98100D01*
Y-62329D01*
X69800Y-62029D01*
X12000Y-88200D02*
X23600Y-99800D01*
X-146350Y-17200D02*
X-142765Y-20785D01*
X6912Y104565D02*
X10983D01*
X23900Y91648D01*
Y87000D02*
Y91648D01*
X66217Y51183D02*
X66500Y50900D01*
X66217Y51183D02*
Y67517D01*
X64217Y69517D02*
X66217Y67517D01*
X64217Y69517D02*
Y82083D01*
X47200Y99100D02*
X64217Y82083D01*
X47200Y99100D02*
Y104300D01*
X21200Y107700D02*
X24600Y104300D01*
X8716Y107700D02*
X21200D01*
X-5000Y18500D02*
X-2729Y20771D01*
Y21971D01*
X-300Y24400D01*
Y34900D01*
X-1500Y36100D02*
X-300Y34900D01*
X-21900Y36100D02*
X-1500D01*
X-26900Y41100D02*
X-21900Y36100D01*
X-18900Y78400D02*
X-14800Y74300D01*
Y61051D02*
Y74300D01*
Y61051D02*
X-6494Y52745D01*
Y43500D02*
Y52745D01*
Y43500D02*
X-1794Y38800D01*
X19200D01*
Y42400D01*
X20200Y43400D01*
X22000Y6000D02*
Y9500D01*
X17500Y10700D02*
X18700Y9500D01*
X5100Y10700D02*
X17500D01*
X300Y15500D02*
X5100Y10700D01*
X300Y15500D02*
Y21000D01*
X5635Y26335D01*
X8535D01*
X9700Y27500D01*
Y30300D01*
X14500Y35100D01*
X19900D01*
X25600Y40800D01*
X30635D01*
X33335Y43500D01*
Y44933D01*
X36102Y47700D01*
X38021D01*
X48500Y58179D01*
Y87200D01*
X-4272Y57000D02*
X-1000D01*
X-12572Y65300D02*
X-4272Y57000D01*
X-12572Y65300D02*
Y77372D01*
X-17200Y82000D02*
X-12572Y77372D01*
X-28500Y82000D02*
X-17200D01*
X-36800Y90300D02*
X-28500Y82000D01*
X-44500Y90300D02*
X-36800D01*
X-45600Y89200D02*
X-44500Y90300D01*
X-45600Y85300D02*
Y89200D01*
Y85300D02*
X-43500Y83200D01*
X-39200D01*
X-47300Y106600D02*
X-42000D01*
X-31600Y117000D01*
X-9600D01*
X6300Y101100D01*
X8200D01*
X11000Y117800D02*
X14200Y121000D01*
X46800D01*
X47900Y119900D01*
X0Y5000D02*
X3100D01*
Y2500D02*
X4300Y1300D01*
X24500D01*
X26700Y3500D01*
Y8200D01*
X41894Y23394D01*
X66023D01*
X78400Y35771D01*
Y92300D01*
X41500Y58646D02*
Y85522D01*
X38151Y88871D02*
X41500Y85522D01*
X38151Y88871D02*
Y110000D01*
X69000Y80500D02*
X69689Y79811D01*
Y38189D02*
Y79811D01*
X64500Y33000D02*
X69689Y38189D01*
X-108140Y32218D02*
Y36400D01*
Y32218D02*
X-107911Y31989D01*
Y10022D02*
Y31989D01*
Y10022D02*
X-106363Y8474D01*
X-93126D01*
X-81998Y19602D01*
Y26703D01*
X-80851Y27851D01*
X-58747D01*
X-52433Y34165D01*
X-48567D01*
X-45200Y30798D01*
Y24800D02*
Y30798D01*
Y24800D02*
X-43600Y23200D01*
X-23300D01*
Y15500D02*
Y23200D01*
Y15500D02*
X-22125Y14325D01*
X-15970D01*
X-14822Y13178D01*
Y8822D02*
Y13178D01*
Y8822D02*
X-12000Y6000D01*
X-76200Y60400D02*
X-70300D01*
X-77400Y61600D02*
X-76200Y60400D01*
X-40200Y-9900D02*
Y-5700D01*
X-41500Y-11200D02*
X-40200Y-9900D01*
X-81100Y-11200D02*
X-41500D01*
X-85300Y-15400D02*
X-81100Y-11200D01*
X-112800Y-15400D02*
X-85300D01*
X-119400Y-8800D02*
X-112800Y-15400D01*
X-119400Y-8800D02*
Y-2500D01*
X-110200Y6700D01*
Y27500D01*
X-112461Y29761D02*
X-110200Y27500D01*
X-117500Y29761D02*
X-112461D01*
X-118517Y28743D02*
X-117500Y29761D01*
X-118517Y23400D02*
Y28743D01*
Y23400D02*
X-115011Y19894D01*
Y10500D02*
Y19894D01*
X-116200Y9311D02*
X-115011Y10500D01*
X-132494Y9311D02*
X-116200D01*
X-132583Y9400D02*
X-132494Y9311D01*
X-132583Y9400D02*
Y30317D01*
X-107000Y55900D01*
Y57400D01*
X30000Y130000D02*
X33200D01*
X30500Y144200D02*
X33200Y141500D01*
X14500Y144200D02*
X30500D01*
X9200Y149500D02*
X14500Y144200D01*
X-33157Y121643D02*
X-8714Y146086D01*
X-37775Y121643D02*
X-33157D01*
X-43690Y115728D02*
X-37775Y121643D01*
X-72772Y115728D02*
X-43690D01*
X-84500Y104000D02*
X-72772Y115728D01*
X-89600Y69711D02*
Y71500D01*
X-129181Y30130D02*
X-89600Y69711D01*
X-129181Y25500D02*
Y30130D01*
X-32681Y-128500D02*
X-25000Y-136181D01*
X-132700Y-1716D02*
X-115916Y-18500D01*
X-87600D01*
X-147700Y22000D02*
X-138200Y12500D01*
X-147700Y22000D02*
Y44500D01*
X-145500Y46700D01*
X-139900D01*
X-135200Y51400D01*
Y61600D01*
X-98505Y98295D01*
X-84005D01*
X-80600Y101700D01*
X-111026Y99974D02*
X-104785Y106215D01*
X-94380D01*
X-78895Y121700D01*
X-54800D01*
X-30500Y146000D01*
X-26500Y-139370D02*
X-4470D01*
X-32670Y-133200D02*
X-26500Y-139370D01*
X-49400Y119100D02*
X-32000Y136500D01*
X-76078Y119100D02*
X-49400D01*
X-91678Y103500D02*
X-76078Y119100D01*
X-97600Y103500D02*
X-91678D01*
X-116900Y84200D02*
X-97600Y103500D01*
X-118900Y84200D02*
X-116900D01*
X-90100Y-2400D02*
X-87365D01*
X-74800Y10165D01*
X-66535D01*
X-65000Y11700D01*
X-34994D01*
X-34900Y11606D01*
X-27606D01*
X-22000Y6000D01*
X-121181Y-28900D02*
X-118592Y-26311D01*
X-103189D01*
X-97900Y-31600D01*
X-41500Y-21200D02*
X-34000Y-13700D01*
Y-5000D01*
X-28300Y-300D02*
X-26100Y1900D01*
X-73000Y-300D02*
X-28300D01*
X-81504Y-8804D02*
X-73000Y-300D01*
X-86604Y-8804D02*
X-81504D01*
X-88500Y-10700D02*
X-86604Y-8804D01*
X-118200Y12500D02*
Y18608D01*
X-120746Y21154D02*
X-118200Y18608D01*
X-120746Y21154D02*
Y30743D01*
X-110678Y40811D01*
X-102889D01*
X-97051Y46649D01*
Y51549D01*
X-93600Y55000D01*
X-70100D01*
X-67700Y57400D01*
X-47367D01*
X-42667Y52700D01*
X-25500D01*
X-22100Y49300D01*
Y41400D02*
Y49300D01*
Y41400D02*
X-19500Y38800D01*
X-9800D01*
Y48800D01*
X-14500Y53500D02*
X-9800Y48800D01*
X-10146Y87146D02*
X5000Y72000D01*
X-15746Y87146D02*
X-10146D01*
X-21800Y93200D02*
X-15746Y87146D01*
X-81200Y93200D02*
X-21800D01*
X-86800Y87600D02*
X-81200Y93200D01*
X-86800Y83500D02*
Y87600D01*
Y83500D02*
X-85700Y82400D01*
X-57500D01*
X-53200Y78100D01*
Y69500D02*
Y78100D01*
X-55200Y67500D02*
X-53200Y69500D01*
X-84700Y67500D02*
X-55200D01*
X-102600Y49600D02*
X-84700Y67500D01*
X-102600Y46775D02*
Y49600D01*
X-83576Y-6576D02*
X-71500Y5500D01*
X-89671Y-6576D02*
X-83576D01*
X-93495Y-10400D02*
X-89671Y-6576D01*
X-111181Y-10400D02*
X-93495D01*
X-73606Y12394D02*
X-69500Y16500D01*
X-76835Y12394D02*
X-73606D01*
X-87439Y1789D02*
X-76835Y12394D01*
X-91111Y1789D02*
X-87439D01*
X-96181Y-3281D02*
X-91111Y1789D01*
X-124300Y12600D02*
Y31051D01*
X-85151Y70200D01*
X-57000D01*
X-55700Y71500D01*
Y77449D01*
X-58423Y80172D02*
X-55700Y77449D01*
X-88472Y80172D02*
X-58423D01*
X-89100Y80800D02*
X-88472Y80172D01*
X-89100Y80800D02*
Y91500D01*
X-91100Y93500D02*
X-89100Y91500D01*
X-96500Y93500D02*
X-91100D01*
X-129700Y60300D02*
X-96500Y93500D01*
X-129700Y57200D02*
Y60300D01*
X1700Y-18500D02*
X5000D01*
X-300Y-16500D02*
X1700Y-18500D01*
X-300Y-16500D02*
Y-13800D01*
X-9700D02*
X-300D01*
X-9700Y-15100D02*
Y-13800D01*
X-10700Y-16100D02*
X-9700Y-15100D01*
X-66636Y-48100D02*
X-66600D01*
X-67600Y-79800D02*
X-66636Y-78836D01*
X5000Y-31000D02*
Y-28100D01*
X-300Y-26300D02*
X1500Y-28100D01*
X-9700Y-26300D02*
X-300D01*
X-9700Y-31300D02*
Y-26300D01*
X-15700Y-37300D02*
X-9700Y-31300D01*
X-52900Y-37300D02*
X-15700D01*
X-61346Y-28854D02*
X-52900Y-37300D01*
X-69754Y-28854D02*
X-61346D01*
X-72611Y-31711D02*
X-69754Y-28854D01*
X-72611Y-38500D02*
Y-31711D01*
X-77800Y-43689D02*
X-72611Y-38500D01*
X-77800Y-84400D02*
Y-43689D01*
Y-84400D02*
X-76100Y-86100D01*
X-102500Y-70100D02*
Y-51400D01*
X-87184Y-36084D01*
X-81443D01*
X-71985Y-26626D01*
X-59500D01*
X-51426Y-34700D01*
X-34200D01*
X-28000Y-28500D01*
X-22200Y-112000D02*
X-13000Y-121200D01*
X-44500Y-112000D02*
X-22200D01*
X-72000Y-84500D02*
X-44500Y-112000D01*
X-72000Y-84500D02*
Y-63443D01*
X-68865Y-60307D01*
Y-54435D01*
X-70502Y-52798D02*
X-68865Y-54435D01*
X-70502Y-52798D02*
Y-46402D01*
X-65800Y-41700D01*
X-74800Y-54400D02*
X-72100Y-57100D01*
X-74800Y-54400D02*
Y-44020D01*
X-64299Y-33520D01*
X-12500Y-107700D02*
X-2900D01*
X-1500Y-109100D01*
Y-131900D02*
Y-109100D01*
X-4000Y-134400D02*
X-1500Y-131900D01*
X-18100Y-134400D02*
X-4000D01*
X-26700Y-125800D02*
X-18100Y-134400D01*
X-94800Y-64889D02*
X-82711Y-52800D01*
Y-44489D01*
X-84300Y-42900D02*
X-82711Y-44489D01*
X-10500Y-149500D02*
X-8500Y-147800D01*
X-97800Y-61500D02*
X-85900Y-49600D01*
X122526Y34900D02*
X144000D01*
X97037Y9411D02*
X122526Y34900D01*
X92889Y9411D02*
X97037D01*
X91100Y11200D02*
X92889Y9411D01*
X33000Y11200D02*
X91100D01*
X29300Y7500D02*
X33000Y11200D01*
X29300Y1300D02*
Y7500D01*
X22000Y-6000D02*
X29300Y1300D01*
X98411Y511D02*
X101400Y3500D01*
X95217Y511D02*
X98411D01*
X94521Y1207D02*
X95217Y511D01*
X79926Y1207D02*
X94521D01*
X79230Y511D02*
X79926Y1207D01*
X38489Y511D02*
X79230D01*
X34000Y5000D02*
X38489Y511D01*
X86900Y-28836D02*
Y-6500D01*
Y-28836D02*
X88500Y-30436D01*
Y-38236D02*
Y-30436D01*
X87448Y-39288D02*
X88500Y-38236D01*
X63469Y-39288D02*
X87448D01*
X60282Y-36100D02*
X63469Y-39288D01*
X30000Y-36100D02*
X60282D01*
X28000Y-34100D02*
X30000Y-36100D01*
X114400Y-19300D02*
X122200Y-11500D01*
X98000Y-19300D02*
X114400D01*
X94800Y-22500D02*
X98000Y-19300D01*
X94800Y-26049D02*
Y-22500D01*
X77400Y-31300D02*
X84400D01*
X70400Y-24300D02*
X77400Y-31300D01*
X55200Y-24300D02*
X70400D01*
X50500Y-29000D02*
X55200Y-24300D01*
X29339Y-59539D02*
Y-47500D01*
Y-59539D02*
X35694Y-65894D01*
X50054D01*
X61219Y-54728D01*
X74572D01*
X14500Y-45549D02*
Y-43000D01*
X7572Y-48500D02*
X10523Y-45549D01*
X7572Y-66328D02*
Y-48500D01*
X6800Y-67100D02*
X7572Y-66328D01*
X1500Y-67100D02*
X6800D01*
X300Y-68300D02*
X1500Y-67100D01*
X300Y-76900D02*
Y-68300D01*
Y-76900D02*
X2500Y-79100D01*
X17149D01*
X35400Y-97351D01*
Y-105800D02*
Y-97351D01*
Y-105800D02*
X38100Y-108500D01*
X46100D01*
X61700Y-92900D01*
X90189Y-49311D02*
X90900Y-48600D01*
X59265Y-49311D02*
X90189D01*
X49576Y-59000D02*
X59265Y-49311D01*
X41500Y-59000D02*
X49576D01*
X76500Y-123000D02*
Y-115378D01*
X121200Y-70678D01*
Y-28500D01*
X97100Y-11600D02*
X108500D01*
X112400Y-7700D01*
X128600D01*
X129500Y-8600D01*
Y-12400D02*
Y-8600D01*
X119589Y-22311D02*
X129500Y-12400D01*
X99189Y-22311D02*
X119589D01*
X98000Y-23500D02*
X99189Y-22311D01*
X98000Y-27301D02*
Y-23500D01*
Y-27301D02*
X110209Y-39510D01*
Y-62991D02*
Y-39510D01*
X87165Y-86035D02*
X110209Y-62991D01*
X78453Y-86035D02*
X87165D01*
X76917Y-84500D02*
X78453Y-86035D01*
X76917Y-84500D02*
Y-61617D01*
X73500Y-58200D02*
X76917Y-61617D01*
X64455Y-58200D02*
X73500D01*
X54533Y-68122D02*
X64455Y-58200D01*
X30939Y-68122D02*
X54533D01*
X28897Y-66080D02*
X30939Y-68122D01*
X101181Y-26600D02*
X112400Y-37819D01*
Y-67400D02*
Y-37819D01*
X91200Y-88600D02*
X112400Y-67400D01*
X76500Y-88600D02*
X91200D01*
X74500Y-86600D02*
X76500Y-88600D01*
X74500Y-86600D02*
Y-58300D01*
X66500D02*
X74500D01*
X61900Y-62900D02*
X66500Y-58300D01*
X61900Y-64500D02*
Y-62900D01*
X55600Y-70800D02*
X61900Y-64500D01*
X26500Y-70800D02*
X55600D01*
X24200Y-68500D02*
X26500Y-70800D01*
X24200Y-68500D02*
Y-62700D01*
X14500Y-53000D02*
X24200Y-62700D01*
X-53400Y-116200D02*
X-25000D01*
X-80483Y-89117D02*
X-53400Y-116200D01*
X-80483Y-89117D02*
Y-40683D01*
X-75800Y-36000D01*
X-37700Y-95100D02*
X-34148Y-91548D01*
X-19581D01*
X-12128Y-99000D01*
X-5000D01*
X-59900Y-57100D02*
X-57200Y-54400D01*
Y-49600D01*
X-50100Y-42500D01*
X-38000D01*
X-130500Y51000D02*
X-94300Y87200D01*
Y90236D01*
X-97400Y27700D02*
X-89400Y35700D01*
X-69700D01*
X-28000Y28500D02*
X-22800Y33700D01*
X-14500D01*
X-9868Y29068D01*
Y14368D02*
Y29068D01*
Y14368D02*
X-8394Y12894D01*
X-5106D01*
Y-9706D02*
Y12894D01*
X-6173Y-10773D02*
X-5106Y-9706D01*
X-17500Y-10773D02*
X-6173D01*
X-23067Y-16340D02*
X-17500Y-10773D01*
X-23067Y-22500D02*
Y-16340D01*
X-24367Y-23800D02*
X-23067Y-22500D01*
X-75423Y-23800D02*
X-24367D01*
X-85479Y-33855D02*
X-75423Y-23800D01*
X-101826Y-33855D02*
X-85479D01*
X-106181Y-29500D02*
X-101826Y-33855D01*
X14500Y53500D02*
Y73200D01*
X15500Y74200D01*
X24200D01*
X53500Y108800D02*
X66400Y95900D01*
X80500D01*
X81600Y94800D01*
Y31065D02*
Y94800D01*
X71700Y21165D02*
X81600Y31065D01*
X64165Y21165D02*
X71700D01*
X59500Y16500D02*
X64165Y21165D01*
X32800Y23700D02*
X36800D01*
X28000Y28500D02*
X32800Y23700D01*
X54100Y50300D02*
Y70900D01*
X41600Y37800D02*
X54100Y50300D01*
X25800Y37800D02*
X41600D01*
X17000Y29000D02*
X25800Y37800D01*
X5000Y14300D02*
Y18500D01*
Y14300D02*
X21700D01*
Y30549D01*
X24317Y33165D01*
X34100D01*
X35100Y34165D01*
X43965D01*
X59300Y49500D01*
Y60006D01*
X26000Y115000D02*
X39947D01*
X43111Y111836D01*
Y94835D02*
Y111836D01*
Y94835D02*
X46171Y91775D01*
X49990D01*
X61989Y79776D01*
Y67289D02*
Y79776D01*
Y67289D02*
X63989Y65289D01*
Y56911D02*
Y65289D01*
X61989Y54911D02*
X63989Y56911D01*
X61989Y44269D02*
Y54911D01*
X59201Y41480D02*
X61989Y44269D01*
X18900Y-48300D02*
X26000Y-41200D01*
X12000Y-48300D02*
X18900D01*
X9800Y-50500D02*
X12000Y-48300D01*
X9800Y-69400D02*
Y-50500D01*
Y-69400D02*
X14800Y-74400D01*
X20000D01*
X29100Y-83500D01*
X45700D01*
X-63443Y77943D02*
X-59000Y73500D01*
X-99845Y77943D02*
X-63443D01*
X-116718Y61070D02*
X-99845Y77943D01*
X-116718Y56082D02*
Y61070D01*
X-129300Y43500D02*
X-116718Y56082D01*
X-137300Y43500D02*
X-129300D01*
X-138300Y42500D02*
X-137300Y43500D01*
X-138300Y33078D02*
Y42500D01*
Y33078D02*
X-134811Y29589D01*
Y10689D02*
Y29589D01*
X-136189Y9311D02*
X-134811Y10689D01*
X-143100Y9311D02*
X-136189D01*
X-145289Y11500D02*
X-143100Y9311D01*
X17900Y-76700D02*
X43100Y-101900D01*
X9700Y-76700D02*
X17900D01*
X5000Y-72000D02*
X9700Y-76700D01*
X14950Y-82140D02*
X23992Y-91181D01*
X-2247Y-82140D02*
X14950D01*
X-14886Y-69500D02*
X-2247Y-82140D01*
X-19500Y-69500D02*
X-14886D01*
X17000Y-32500D02*
Y-29000D01*
X11200Y-38300D02*
X17000Y-32500D01*
X9800Y-38300D02*
X11200D01*
X5343Y-42757D02*
X9800Y-38300D01*
X5343Y-60500D02*
Y-42757D01*
X1043Y-64800D02*
X5343Y-60500D01*
X-24200Y-64800D02*
X1043D01*
X-24200Y-71700D02*
Y-64800D01*
X-28800Y-76300D02*
X-24200Y-71700D01*
X-34600Y-137500D02*
X-30000Y-142100D01*
X134000Y-48800D02*
Y-35200D01*
X60300Y-88600D02*
Y-83100D01*
X52000Y-74800D02*
X60300Y-83100D01*
X24800Y-74800D02*
X52000D01*
X19500Y-69500D02*
X24800Y-74800D01*
X-9000Y99000D02*
X1300D01*
X19757Y80543D01*
X27433D01*
X28357Y81467D01*
X34833D01*
X36700Y79600D01*
Y75500D02*
Y79600D01*
X32000Y70800D02*
X36700Y75500D01*
X26500Y70800D02*
X32000D01*
X24200Y68500D02*
X26500Y70800D01*
X24200Y53200D02*
Y68500D01*
X14500Y43500D02*
X24200Y53200D01*
X33900Y88900D02*
Y92000D01*
Y88900D02*
X39000Y83800D01*
Y65800D02*
Y83800D01*
X29340Y56140D02*
X39000Y65800D01*
X29340Y48000D02*
Y56140D01*
X51100Y100000D02*
X56300D01*
X72200Y84100D01*
Y33392D02*
Y84100D01*
X66308Y27500D02*
X72200Y33392D01*
X62553Y27500D02*
X66308D01*
X55887Y34165D02*
X62553Y27500D01*
X48500Y34165D02*
X55887D01*
X43835Y29500D02*
X48500Y34165D01*
X40500Y29500D02*
X43835D01*
X-135200Y67900D02*
X-118900Y84200D01*
X59000Y-42000D02*
X68300D01*
X69700Y-43400D01*
X9000Y-149000D02*
X15200Y-141800D01*
Y-110400D01*
X-1900Y-93300D02*
X15200Y-110400D01*
X-14000Y-93300D02*
X-1900D01*
X-19100Y-88200D02*
X-14000Y-93300D01*
X-25000Y-88200D02*
X-19100D01*
X-114328Y25572D02*
X-112783Y24026D01*
Y7317D02*
Y24026D01*
X-113600Y6500D02*
X-112783Y7317D01*
X-150000Y6000D02*
X-113600Y6500D01*
X-18231Y98400D02*
X-10438Y90607D01*
X78200Y14445D02*
X93055D01*
X94900Y12600D01*
X80200Y-82800D02*
Y-54500D01*
X77239Y-51539D02*
X80200Y-54500D01*
X60188Y-51539D02*
X77239D01*
X48062Y-63665D02*
X60188Y-51539D01*
X37965Y-63665D02*
X48062D01*
X36800Y-62500D02*
X37965Y-63665D01*
X36800Y-62500D02*
Y-47899D01*
X33333Y-44433D02*
X36800Y-47899D01*
X33333Y-44433D02*
Y-43733D01*
X27590Y-37990D02*
X33333Y-43733D01*
X24290Y-37990D02*
X27590D01*
X22800Y-36500D02*
X24290Y-37990D01*
X22800Y-36500D02*
Y-24800D01*
X17000Y-19000D02*
X22800Y-24800D01*
X0Y-60500D02*
Y-57000D01*
X-34311Y-62411D02*
X-32400Y-60500D01*
X-34311Y-74289D02*
Y-62411D01*
Y-74289D02*
X-33000Y-75600D01*
X-92211Y52707D02*
X-49271D01*
X-92905Y52012D02*
X-92211Y52707D01*
X-92905Y45597D02*
Y52012D01*
X-104389Y34114D02*
X-92905Y45597D01*
X-104389Y18589D02*
Y34114D01*
Y18589D02*
X-98300Y12500D01*
X-54378Y25622D02*
X-50500Y29500D01*
X-78622Y25622D02*
X-54378D01*
X-79550Y24695D02*
X-78622Y25622D01*
X-79550Y17935D02*
Y24695D01*
X-91238Y6246D02*
X-79550Y17935D01*
X-99854Y6246D02*
X-91238D01*
X-108900Y-2800D02*
X-99854Y6246D01*
X-52894Y23394D02*
X-46500Y17000D01*
X-75500Y23394D02*
X-52894D01*
X-77314Y21580D02*
X-75500Y23394D01*
X-77314Y17019D02*
Y21580D01*
X-90315Y4017D02*
X-77314Y17019D01*
X-93500Y4017D02*
X-90315D01*
X-103506Y-5989D02*
X-93500Y4017D01*
X-116181Y-5989D02*
X-103506D01*
X-86111Y73700D02*
X-84800D01*
X-88126Y75715D02*
X-86111Y73700D01*
X-97751Y75715D02*
X-88126D01*
X-110907Y62559D02*
X-97751Y75715D01*
X-110907Y57440D02*
Y62559D01*
X-129768Y38580D02*
X-110907Y57440D01*
X-133603Y38580D02*
X-129768D01*
X-41500Y20000D02*
X-38865D01*
X-32700Y13835D01*
X-25235D01*
X-22100Y10700D01*
X-19500D01*
X-17300Y8500D01*
Y2500D02*
Y8500D01*
Y2500D02*
X-16135Y1335D01*
X-7335D01*
Y10665D01*
X-9500D02*
X-7335D01*
X-12200Y13365D02*
X-9500Y10665D01*
X-12200Y13365D02*
Y14200D01*
X-17000Y19000D02*
X-12200Y14200D01*
X-74100Y20100D02*
X-73035Y21165D01*
X-64165D01*
X-59500Y16500D01*
X19049Y78100D02*
X33500D01*
X2649Y94500D02*
X19049Y78100D01*
X-10900Y94500D02*
X2649D01*
X-14800Y98400D02*
X-10900Y94500D01*
X-74700Y107600D02*
X-71593Y110707D01*
X-41461D01*
X-32753Y119415D01*
X19500Y51800D02*
Y69500D01*
X16500Y48800D02*
X19500Y51800D01*
X10500Y48800D02*
X16500D01*
X8111Y51189D02*
X10500Y48800D01*
X8111Y51189D02*
Y61689D01*
X2500Y67300D02*
X8111Y61689D01*
X-9143Y67300D02*
X2500D01*
X-10343Y68500D02*
X-9143Y67300D01*
X-10343Y68500D02*
Y79643D01*
X-15617Y84917D02*
X-10343Y79643D01*
X-19917Y84917D02*
X-15617D01*
X-25000Y90000D02*
X-19917Y84917D01*
X-32700Y-40500D02*
X-20200D01*
X-42400Y87100D02*
X-37100D01*
X-19500Y69500D01*
X-19352Y48352D02*
X-14500Y43500D01*
X-19352Y48352D02*
Y52575D01*
X-22058Y55281D02*
X-19352Y52575D01*
X-32981Y55281D02*
X-22058D01*
X-36800Y59100D02*
X-32981Y55281D01*
X-36800Y59100D02*
Y70200D01*
X-52200Y85600D02*
X-36800Y70200D01*
X-83600Y85600D02*
X-52200D01*
X70400Y99300D02*
X85600D01*
X53019Y116681D02*
X70400Y99300D01*
X46226Y116681D02*
X53019D01*
X44707Y118200D02*
X46226Y116681D01*
X17839Y118200D02*
X44707D01*
X14100Y114461D02*
X17839Y118200D01*
X8750Y114461D02*
X14100D01*
X7711Y115500D02*
Y130611D01*
X16600Y139500D01*
X28500D01*
X7711Y115500D02*
X8750Y114461D01*
X21139D02*
X29001Y106599D01*
Y85673D02*
Y106599D01*
X26828Y83500D02*
X29001Y85673D01*
X20300Y83500D02*
X26828D01*
X-10883Y114683D02*
X20300Y83500D01*
X-29617Y114683D02*
X-10883D01*
X-42600Y101700D02*
X-29617Y114683D01*
X-80600Y101700D02*
X-42600D01*
X-51949Y-47500D02*
X-29340D01*
X-54318Y-49869D02*
X-51949Y-47500D01*
X-54318Y-84860D02*
Y-49869D01*
Y-84860D02*
X-40889Y-98289D01*
X-30511D01*
X-26522Y-94300D01*
X-21800D01*
X-13000Y-103100D01*
X-62893Y-45893D02*
X-59000Y-42000D01*
X-62893Y-53170D02*
Y-45893D01*
X-64400Y-54677D02*
X-62893Y-53170D01*
X-64400Y-78000D02*
Y-54677D01*
Y-78000D02*
X-41883Y-100517D01*
X-28017D01*
X-25000Y-97500D01*
X-11500Y-82700D02*
X-9000Y-85200D01*
X-43774Y-82700D02*
X-11500D01*
X-45974Y-80500D02*
X-43774Y-82700D01*
X-45974Y-80500D02*
Y-63474D01*
X-41500Y-59000D01*
X-23900Y-52900D02*
X-14500Y-43500D01*
X-42867Y-52900D02*
X-23900D01*
X-49200Y-59233D02*
X-42867Y-52900D01*
X-49200Y-81900D02*
Y-59233D01*
Y-81900D02*
X-46100Y-85000D01*
X-15900D01*
X-12500Y-88400D01*
X-900D01*
X6881Y-96181D01*
X-14500Y-56400D02*
Y-53500D01*
X-39700Y-64649D02*
X-31451Y-56400D01*
X-39700Y-69328D02*
Y-64649D01*
X-101200Y24500D02*
Y29172D01*
X-90216Y40156D01*
Y47684D01*
X-87500Y50400D01*
X-53900D01*
X-46500Y43000D01*
X-37999D01*
X124900Y-32100D02*
X151000Y-6000D01*
X124900Y-76500D02*
Y-32100D01*
X116100Y-85300D02*
X124900Y-76500D01*
X76500Y-35517D02*
X84317D01*
X67587Y-26604D02*
X76500Y-35517D01*
X59596Y-26604D02*
X67587D01*
X52500Y-33700D02*
X59596Y-26604D01*
X45200Y-33700D02*
X52500D01*
X40500Y-29000D02*
X45200Y-33700D01*
Y-39800D02*
X52483Y-47083D01*
X85276D01*
X86989Y-45370D01*
X94570D01*
X106600Y-57400D01*
X83900Y3700D02*
X96600D01*
X81900Y5700D02*
X83900Y3700D01*
X-66511Y33000D02*
X-64500D01*
X-85170Y32511D02*
X-66511D01*
X-92681Y25000D02*
X-85170Y32511D01*
X-21385Y-122796D02*
X-13000Y-131181D01*
X-51777Y-122796D02*
X-21385D01*
X-84488Y-90085D02*
X-51777Y-122796D01*
X-40500Y29500D02*
Y33500D01*
X-54700Y47700D02*
X-40500Y33500D01*
X-85100Y47700D02*
X-54700D01*
X-86800Y46000D02*
X-85100Y47700D01*
X-69500Y128800D02*
X-63500Y134800D01*
X69500Y-16500D02*
X73400D01*
X82000Y-25100D01*
X90100D02*
Y-20300D01*
X94500Y-15900D01*
X110300D01*
X114300Y-11900D01*
X113100Y-89200D02*
X121000D01*
X69500Y16500D02*
Y18901D01*
X75256D02*
X98700Y42345D01*
Y45423D01*
X117300Y85100D02*
Y90300D01*
X96400Y111200D02*
X117300Y90300D01*
X71651Y111200D02*
X96400D01*
X52851Y130000D02*
X71651Y111200D01*
X137200Y-43883D02*
Y-26700D01*
Y-43883D02*
X139920Y-46603D01*
X-12800Y-23200D02*
X1300D01*
X-17000Y-19000D02*
X-12800Y-23200D01*
X80900Y128800D02*
X81002Y128698D01*
X60000Y128800D02*
X80900D01*
X39000Y149800D02*
X60000Y128800D01*
X15700Y149800D02*
X39000D01*
X11700Y153800D02*
X15700Y149800D01*
X-23100Y153400D02*
X-14000D01*
X-30500Y146000D02*
X-23100Y153400D01*
X90181Y-10300D02*
X93146Y-7335D01*
X108960D01*
X114992Y-1303D01*
X142697D01*
X151000Y7000D01*
X-143000Y31400D02*
X-138000Y26400D01*
X-143000Y31400D02*
Y42000D01*
X72700Y-22000D02*
X77829Y-27129D01*
X31500Y-22000D02*
X72700D01*
X28000Y-18500D02*
X31500Y-22000D01*
X114017Y2917D02*
X123880D01*
X106889Y-4211D02*
X114017Y2917D01*
X90065Y-4211D02*
X106889D01*
X89104Y-3250D02*
X90065Y-4211D01*
X83687Y-3250D02*
X89104D01*
X75137Y-11800D02*
X83687Y-3250D01*
X51200Y-11800D02*
X75137D01*
X46500Y-16500D02*
X51200Y-11800D01*
X71500Y-5500D02*
X76638D01*
X81117Y-1022D01*
X91597D01*
X92293Y-1717D01*
X103455D01*
X117672Y12500D01*
X121181D01*
X48340Y-139000D02*
Y-124260D01*
X77400Y-95200D01*
X89855D01*
X117700Y-67355D01*
Y-26500D01*
X118938Y-25262D01*
X124938D01*
X133700Y-16500D01*
Y-8500D01*
X129700Y-4500D02*
X133700Y-8500D01*
X118200Y-4500D02*
X129700D01*
X-5000Y-31000D02*
X-2700D01*
X2900Y-36600D01*
X12000Y130000D02*
X30000D01*
X-26500Y142000D02*
X-25000D01*
X-30500Y146000D02*
X-26500Y142000D01*
X-32000Y136500D02*
X-26500D01*
X-25000Y135000D01*
D53*
X-28897Y66080D02*
D03*
X-46500Y-16500D02*
D03*
X139920Y-46603D02*
D03*
X17000Y-29000D02*
D03*
X76500Y-123000D02*
D03*
X48340Y-139000D02*
D03*
X22000Y-6000D02*
D03*
X34000Y5000D02*
D03*
X28000Y-28500D02*
D03*
X46500Y-16500D02*
D03*
X50500Y-29000D02*
D03*
X37999Y-42500D02*
D03*
X14500Y-53000D02*
D03*
X71500Y-5500D02*
D03*
X69500Y-16500D02*
D03*
X64299Y-33520D02*
D03*
X49271Y-52707D02*
D03*
X28897Y-66080D02*
D03*
X-34000Y-5000D02*
D03*
X5000Y-18500D02*
D03*
X-22000Y-6000D02*
D03*
X5000Y-31000D02*
D03*
X-17000Y-29000D02*
D03*
X-28000Y-28500D02*
D03*
X0Y-57000D02*
D03*
X-14500Y-53500D02*
D03*
X-38000Y-42500D02*
D03*
X-50500Y-29000D02*
D03*
X-5000Y-72000D02*
D03*
X-28897Y-66080D02*
D03*
X-49271Y-52707D02*
D03*
X-64299Y-33520D02*
D03*
X-69500Y-16500D02*
D03*
X-71500Y-5500D02*
D03*
X-139897Y54420D02*
D03*
X-143000Y42000D02*
D03*
X38000Y43000D02*
D03*
X64500Y33000D02*
D03*
X49271Y52352D02*
D03*
X28897Y66080D02*
D03*
X71500Y5500D02*
D03*
X69500Y16500D02*
D03*
X46500D02*
D03*
X50500Y29500D02*
D03*
X28000Y28500D02*
D03*
X14500Y53500D02*
D03*
X17000Y29000D02*
D03*
X22000Y6000D02*
D03*
X-1000Y57000D02*
D03*
X5000Y31000D02*
D03*
Y18500D02*
D03*
X0Y5000D02*
D03*
X-22000Y6000D02*
D03*
X-28000Y28500D02*
D03*
X5000Y72000D02*
D03*
X-17000Y29000D02*
D03*
X-46500Y17000D02*
D03*
X-50500Y29500D02*
D03*
X-37999Y43000D02*
D03*
X-14500Y53500D02*
D03*
X-71500Y5500D02*
D03*
X-69500Y16500D02*
D03*
X-64500Y33000D02*
D03*
X-49271Y52707D02*
D03*
D54*
X-19500Y69500D02*
D03*
X19500Y-69500D02*
D03*
D55*
X151000Y7000D02*
D03*
Y-6000D02*
D03*
X-10500Y-149500D02*
D03*
X9000Y-149000D02*
D03*
X-150000Y6000D02*
D03*
X-32000Y136500D02*
D03*
X-30500Y146000D02*
D03*
X28500Y139500D02*
D03*
X30000Y130000D02*
D03*
X-152000Y-3500D02*
D03*
X4500Y149000D02*
D03*
X-4000D02*
D03*
X-74000Y133500D02*
D03*
X-63500Y139500D02*
D03*
D56*
X-46500Y-6500D02*
D03*
X17000Y-19000D02*
D03*
X34000Y-5000D02*
D03*
X28000Y-18500D02*
D03*
X46500Y-6500D02*
D03*
X14500Y-43000D02*
D03*
X-34000Y5000D02*
D03*
X-17000Y-19000D02*
D03*
X-28000Y-18500D02*
D03*
X0Y-47000D02*
D03*
X-14500Y-43500D02*
D03*
X-17000Y19000D02*
D03*
X46500Y6500D02*
D03*
X28000Y18500D02*
D03*
X14500Y43500D02*
D03*
X17000Y19000D02*
D03*
X-1000Y47000D02*
D03*
X0Y-5000D02*
D03*
X-28000Y18500D02*
D03*
X-46500Y7000D02*
D03*
X-14500Y43500D02*
D03*
D57*
X136500Y-56000D02*
D03*
D58*
X85160Y-118000D02*
D03*
X57000Y-134000D02*
D03*
X29339Y-47500D02*
D03*
X-29339Y48000D02*
D03*
D59*
X12000Y-6000D02*
D03*
X40500Y-29000D02*
D03*
X61500Y-5500D02*
D03*
X59500Y-16500D02*
D03*
X-5000Y-18500D02*
D03*
X-12000Y-6000D02*
D03*
X-5000Y-31000D02*
D03*
X-40500Y-29000D02*
D03*
X5000Y-72000D02*
D03*
X-59500Y-16500D02*
D03*
X-61500Y-5500D02*
D03*
X61500Y5500D02*
D03*
X59500Y16500D02*
D03*
X40500Y29500D02*
D03*
X12000Y6000D02*
D03*
X-5000Y31000D02*
D03*
Y18500D02*
D03*
X-12000Y6000D02*
D03*
X-5000Y72000D02*
D03*
X-40500Y29500D02*
D03*
X-61500Y5500D02*
D03*
X-59500Y16500D02*
D03*
D60*
X59000Y-42000D02*
D03*
X-59201Y41480D02*
D03*
D61*
X41500Y-59000D02*
D03*
X-41500Y59000D02*
D03*
D62*
X-29340Y-47500D02*
D03*
X29340Y48000D02*
D03*
D63*
X-19500Y-69500D02*
D03*
X-130500Y51000D02*
D03*
X-133603Y38580D02*
D03*
X19500Y69500D02*
D03*
D64*
X-41500Y-59000D02*
D03*
X41500Y58646D02*
D03*
D65*
X-59000Y-42000D02*
D03*
X59201Y41480D02*
D03*
D66*
X3189Y136500D02*
D03*
X12000Y140000D02*
D03*
X-7200Y126835D02*
D03*
X-88000Y-25500D02*
D03*
X-70295Y-129195D02*
D03*
X-94600Y-98500D02*
D03*
X-96200Y-114960D02*
D03*
X12000Y-136200D02*
D03*
X-114700Y92000D02*
D03*
X11300Y58200D02*
D03*
X-1200Y90800D02*
D03*
X12100Y125800D02*
D03*
X94000Y44500D02*
D03*
X-42785Y-78400D02*
D03*
X12000Y-88200D02*
D03*
X69800Y-62029D02*
D03*
X-146350Y-17200D02*
D03*
X23900Y87000D02*
D03*
X66500Y50900D02*
D03*
X47200Y104300D02*
D03*
X24600D02*
D03*
X-26900Y41100D02*
D03*
X-18900Y78400D02*
D03*
X20200Y43400D02*
D03*
X48500Y87200D02*
D03*
X-39200Y83200D02*
D03*
X-47300Y106600D02*
D03*
X8200Y101100D02*
D03*
X11000Y117800D02*
D03*
X47900Y119900D02*
D03*
X78400Y92300D02*
D03*
X38151Y110000D02*
D03*
X69000Y80500D02*
D03*
X-108140Y36400D02*
D03*
X-70300Y60400D02*
D03*
X-77400Y61600D02*
D03*
X-40200Y-5700D02*
D03*
X-107000Y57400D02*
D03*
X-84500Y104000D02*
D03*
X-89600Y71500D02*
D03*
X-129181Y25500D02*
D03*
X-25000Y-136181D02*
D03*
X-132700Y-1716D02*
D03*
X-94174Y-27700D02*
D03*
X-138200Y12500D02*
D03*
X-80600Y101700D02*
D03*
X-111026Y99974D02*
D03*
X-118900Y84200D02*
D03*
X-90100Y-2400D02*
D03*
X-121181Y-28900D02*
D03*
X-26100Y1900D02*
D03*
X-88500Y-10700D02*
D03*
X-118200Y12500D02*
D03*
X-102600Y46775D02*
D03*
X-111181Y-10400D02*
D03*
X-96181Y-3281D02*
D03*
X-124300Y12600D02*
D03*
X-129700Y57200D02*
D03*
X-10700Y-16100D02*
D03*
X-66600Y-48100D02*
D03*
X-67600Y-79800D02*
D03*
X-76100Y-86100D02*
D03*
X-102500Y-70100D02*
D03*
X-13000Y-121200D02*
D03*
X-65800Y-41700D02*
D03*
X-72100Y-57100D02*
D03*
X-12500Y-107700D02*
D03*
X-84300Y-42900D02*
D03*
X-85900Y-49600D02*
D03*
X144000Y34900D02*
D03*
X101400Y3500D02*
D03*
X86900Y-6500D02*
D03*
X28000Y-34100D02*
D03*
X122200Y-11500D02*
D03*
X94800Y-26049D02*
D03*
X84400Y-31300D02*
D03*
X74572Y-54728D02*
D03*
X61700Y-92900D02*
D03*
X90900Y-48600D02*
D03*
X121200Y-28500D02*
D03*
X97100Y-11600D02*
D03*
X101181Y-26600D02*
D03*
X-25000Y-116200D02*
D03*
X-75800Y-36000D02*
D03*
X-37700Y-95100D02*
D03*
X-5000Y-99000D02*
D03*
X-59900Y-57100D02*
D03*
X-94300Y90236D02*
D03*
X-97400Y27700D02*
D03*
X-69700Y35700D02*
D03*
X-106181Y-29500D02*
D03*
X24200Y74200D02*
D03*
X53500Y108800D02*
D03*
X36800Y23700D02*
D03*
X54100Y70900D02*
D03*
X59300Y60006D02*
D03*
X26000Y115000D02*
D03*
Y-41200D02*
D03*
X45700Y-83500D02*
D03*
X-59000Y73500D02*
D03*
X43100Y-101900D02*
D03*
X23992Y-91181D02*
D03*
X-28800Y-76300D02*
D03*
X-34600Y-137500D02*
D03*
X134000Y-35200D02*
D03*
X60300Y-88600D02*
D03*
X-9000Y99000D02*
D03*
X33900Y92000D02*
D03*
X51100Y100000D02*
D03*
X-135200Y67900D02*
D03*
X69700Y-43400D02*
D03*
X-25000Y-88200D02*
D03*
X-114328Y25572D02*
D03*
X-10438Y90607D02*
D03*
X78200Y14445D02*
D03*
X94900Y12600D02*
D03*
X80200Y-82800D02*
D03*
X-33000Y-75600D02*
D03*
X-98300Y12500D02*
D03*
X-108900Y-2800D02*
D03*
X-116181Y-5989D02*
D03*
X-84800Y73700D02*
D03*
X-41500Y20000D02*
D03*
X-74100Y20100D02*
D03*
X33500Y78100D02*
D03*
X-41300Y98400D02*
D03*
X-74700Y107600D02*
D03*
X-25000Y90000D02*
D03*
X-20200Y-40500D02*
D03*
X-32700D02*
D03*
X-42400Y87100D02*
D03*
X-83600Y85600D02*
D03*
X85600Y99300D02*
D03*
X-13000Y-103100D02*
D03*
X-25000Y-97500D02*
D03*
X-9000Y-85200D02*
D03*
X6881Y-96181D02*
D03*
X-39700Y-69328D02*
D03*
X-101200Y24500D02*
D03*
X116100Y-85300D02*
D03*
X84317Y-35517D02*
D03*
X45200Y-39800D02*
D03*
X106600Y-57400D02*
D03*
X96600Y3700D02*
D03*
X81900Y5700D02*
D03*
X-92681Y25000D02*
D03*
X-13000Y-131181D02*
D03*
X-84488Y-90085D02*
D03*
X-86800Y46000D02*
D03*
X-96000Y111400D02*
D03*
X82000Y-25100D02*
D03*
X90100D02*
D03*
X114300Y-11900D02*
D03*
X113100Y-89200D02*
D03*
X98700Y45423D02*
D03*
X117300Y85100D02*
D03*
X137200Y-26700D02*
D03*
X1300Y-23200D02*
D03*
X81002Y128698D02*
D03*
X90181Y-10300D02*
D03*
X-138000Y26400D02*
D03*
X-141181Y-10500D02*
D03*
X77829Y-27129D02*
D03*
X123880Y2917D02*
D03*
X121181Y12500D02*
D03*
X118200Y-4500D02*
D03*
X2900Y-36600D02*
D03*
X12000Y130000D02*
D03*
X-25000Y142000D02*
D03*
Y135000D02*
D03*
D67*
X-1000Y-150000D02*
D03*
X33000Y-148000D02*
D03*
M02*
