G04*
G04 #@! TF.GenerationSoftware,Altium Limited,Altium Designer,23.1.1 (15)*
G04*
G04 Layer_Color=16711935*
%FSLAX44Y44*%
%MOMM*%
G71*
G04*
G04 #@! TF.SameCoordinates,EA72E859-7E5F-47E5-BE6D-6BCC4CF4D1DD*
G04*
G04*
G04 #@! TF.FilePolarity,Negative*
G04*
G01*
G75*
%ADD35C,1.7532*%
%ADD36P,2.4794X4X245.0*%
%ADD37C,1.7272*%
%ADD38R,1.7532X1.7532*%
%ADD39P,2.4794X4X115.0*%
%ADD40P,2.4794X4X255.0*%
%ADD41R,1.7532X1.7532*%
%ADD42P,2.4794X4X103.0*%
%ADD43P,2.4794X4X84.0*%
%ADD44P,2.4794X4X195.0*%
%ADD45P,2.4794X4X205.0*%
%ADD46P,2.4794X4X186.0*%
%ADD47P,2.4794X4X167.0*%
%ADD48C,1.0032*%
D35*
X-73398Y167843D02*
D03*
X-118110Y-41910D02*
D03*
X355397Y-118372D02*
D03*
X43180Y-73660D02*
D03*
X194310Y-312420D02*
D03*
X122783Y-353060D02*
D03*
X55880Y-15240D02*
D03*
X86360Y12700D02*
D03*
X71120Y-72390D02*
D03*
X118110Y-41910D02*
D03*
X128270Y-73660D02*
D03*
X96517Y-107950D02*
D03*
X36830Y-134620D02*
D03*
X181610Y-13970D02*
D03*
X176530Y-41910D02*
D03*
X163320Y-85140D02*
D03*
X125149Y-133875D02*
D03*
X73398Y-167843D02*
D03*
X-86360Y-12700D02*
D03*
X12700Y-46990D02*
D03*
X-55880Y-15240D02*
D03*
X12700Y-78740D02*
D03*
X-43180Y-73660D02*
D03*
X-71120Y-72390D02*
D03*
X0Y-144780D02*
D03*
X-36830Y-135890D02*
D03*
X-96520Y-107950D02*
D03*
X-128270Y-73660D02*
D03*
X-12700Y-182880D02*
D03*
X-73398Y-167843D02*
D03*
X-125149Y-133875D02*
D03*
X-163320Y-85140D02*
D03*
X-176530Y-41910D02*
D03*
X-181610Y-13970D02*
D03*
X-355338Y138227D02*
D03*
X-363220Y106680D02*
D03*
X96520Y109220D02*
D03*
X163830Y83820D02*
D03*
X125149Y132975D02*
D03*
X73398Y167843D02*
D03*
X181610Y13970D02*
D03*
X176530Y41910D02*
D03*
X118110D02*
D03*
X128270Y74930D02*
D03*
X71120Y72390D02*
D03*
X36830Y135890D02*
D03*
X43180Y73660D02*
D03*
X55880Y15240D02*
D03*
X-2540Y144780D02*
D03*
X12700Y78740D02*
D03*
Y46990D02*
D03*
X0Y12700D02*
D03*
X-55880Y15240D02*
D03*
X-71120Y72390D02*
D03*
X12700Y182880D02*
D03*
X-43180Y73660D02*
D03*
X-118110Y43180D02*
D03*
X-128270Y74930D02*
D03*
X-96517Y109220D02*
D03*
X-36830Y135890D02*
D03*
X-181610Y13970D02*
D03*
X-176530Y41910D02*
D03*
X-163830Y83820D02*
D03*
X-125149Y133875D02*
D03*
D36*
X-49530Y176530D02*
D03*
X49530Y-176530D02*
D03*
D37*
X383540Y17780D02*
D03*
Y-15240D02*
D03*
X-21590Y-382270D02*
D03*
X16510D02*
D03*
X-386080Y16510D02*
D03*
X-81280Y346710D02*
D03*
X-77470Y370840D02*
D03*
X72390Y354330D02*
D03*
X76200Y330200D02*
D03*
X-386080Y-8890D02*
D03*
X11430Y388620D02*
D03*
X-10160D02*
D03*
X-187960Y339090D02*
D03*
X-161290Y354330D02*
D03*
D38*
X-118110Y-16510D02*
D03*
X43180Y-48260D02*
D03*
X86360Y-12700D02*
D03*
X71120Y-46990D02*
D03*
X118110Y-16510D02*
D03*
X36830Y-109220D02*
D03*
X-86360Y12700D02*
D03*
X-43180Y-48260D02*
D03*
X-71120Y-46990D02*
D03*
X0Y-119380D02*
D03*
X-36830Y-110490D02*
D03*
X-43180Y48260D02*
D03*
X118110Y16510D02*
D03*
X71120Y46990D02*
D03*
X36830Y110490D02*
D03*
X43180Y48260D02*
D03*
X-2540Y119380D02*
D03*
X0Y-12700D02*
D03*
X-71120Y46990D02*
D03*
X-118110Y17780D02*
D03*
X-36830Y110490D02*
D03*
D39*
X346710Y-142240D02*
D03*
D40*
X216307Y-299720D02*
D03*
X144780Y-340360D02*
D03*
X74520Y-120650D02*
D03*
X-74520Y121920D02*
D03*
D41*
X30480Y-15240D02*
D03*
X102870Y-73660D02*
D03*
X156210Y-13970D02*
D03*
X151130Y-41910D02*
D03*
X-12700Y-46990D02*
D03*
X-30480Y-15240D02*
D03*
X-12700Y-78740D02*
D03*
X-102870Y-73660D02*
D03*
X12700Y-182880D02*
D03*
X-151130Y-41910D02*
D03*
X-156210Y-13970D02*
D03*
X156210Y13970D02*
D03*
X151130Y41910D02*
D03*
X102870Y74930D02*
D03*
X30480Y15240D02*
D03*
X-12700Y78740D02*
D03*
Y46990D02*
D03*
X-30480Y15240D02*
D03*
X-12700Y182880D02*
D03*
X-102870Y74930D02*
D03*
X-156210Y13970D02*
D03*
X-151130Y41910D02*
D03*
D42*
X149860Y-106680D02*
D03*
X-150370Y105360D02*
D03*
D43*
X105410Y-149860D02*
D03*
X-105410Y149860D02*
D03*
D44*
X-74523Y-120650D02*
D03*
X74523Y121920D02*
D03*
D45*
X-49530Y-176530D02*
D03*
X-331470Y129540D02*
D03*
X-339352Y97993D02*
D03*
X49530Y176530D02*
D03*
D46*
X-105410Y-149860D02*
D03*
X105410Y148960D02*
D03*
D47*
X-149860Y-106680D02*
D03*
X150370Y105360D02*
D03*
D48*
X-30480Y215900D02*
D03*
X-321310Y29210D02*
D03*
X-295910D02*
D03*
X-269240D02*
D03*
X-243840Y27940D02*
D03*
X-221055Y-65965D02*
D03*
X-245110Y-66040D02*
D03*
X-257810Y-29210D02*
D03*
X-269240Y-64770D02*
D03*
X-281940Y-29210D02*
D03*
X26670Y304800D02*
D03*
X27940Y279400D02*
D03*
Y254000D02*
D03*
X-66040D02*
D03*
X63500Y340360D02*
D03*
X-100330Y-48260D02*
D03*
X248920Y-27940D02*
D03*
X257810Y-288290D02*
D03*
X-101600Y-182880D02*
D03*
X63499Y309852D02*
D03*
X189260Y240105D02*
D03*
X64676Y217264D02*
D03*
X-139700Y176530D02*
D03*
X-242600Y128270D02*
D03*
X-313690Y146050D02*
D03*
X-297180Y205740D02*
D03*
X307340Y27940D02*
D03*
X233680Y-66040D02*
D03*
X290830Y-29210D02*
D03*
X142240Y-180340D02*
D03*
X63500Y-283210D02*
D03*
X-30480Y-232410D02*
D03*
X-66040Y270510D02*
D03*
X-30480Y342900D02*
D03*
X63500Y292100D02*
D03*
X-63500Y-379730D02*
D03*
X58420Y-378460D02*
D03*
X-27940Y266700D02*
D03*
Y241300D02*
D03*
X-255016Y207518D02*
D03*
X-181102Y-195580D02*
D03*
X-153035Y-257048D02*
D03*
X202767Y-101929D02*
D03*
X252679Y-121053D02*
D03*
X161362Y-233752D02*
D03*
X-212852Y152400D02*
D03*
X237490Y-113284D02*
D03*
X-253492Y120396D02*
D03*
X165354Y112776D02*
D03*
X101854Y227076D02*
D03*
X-245364Y284226D02*
D03*
X244300Y27940D02*
D03*
X231600Y24384D02*
D03*
X148336Y292608D02*
D03*
X-71374Y292100D02*
D03*
M02*
