G04*
G04 #@! TF.GenerationSoftware,Altium Limited,Altium Designer,23.1.1 (15)*
G04*
G04 Layer_Physical_Order=1*
G04 Layer_Color=255*
%FSLAX44Y44*%
%MOMM*%
G71*
G04*
G04 #@! TF.SameCoordinates,EA72E859-7E5F-47E5-BE6D-6BCC4CF4D1DD*
G04*
G04*
G04 #@! TF.FilePolarity,Positive*
G04*
G01*
G75*
%ADD29R,1.0557X1.6582*%
%ADD30R,0.8300X0.6300*%
%ADD31R,0.6000X2.0000*%
G04:AMPARAMS|DCode=32|XSize=2mm|YSize=0.6mm|CornerRadius=0mm|HoleSize=0mm|Usage=FLASHONLY|Rotation=60.000|XOffset=0mm|YOffset=0mm|HoleType=Round|Shape=Rectangle|*
%AMROTATEDRECTD32*
4,1,4,-0.2402,-1.0160,-0.7598,-0.7160,0.2402,1.0160,0.7598,0.7160,-0.2402,-1.0160,0.0*
%
%ADD32ROTATEDRECTD32*%

%ADD33R,2.0000X0.6000*%
G04:AMPARAMS|DCode=34|XSize=2mm|YSize=0.6mm|CornerRadius=0mm|HoleSize=0mm|Usage=FLASHONLY|Rotation=320.000|XOffset=0mm|YOffset=0mm|HoleType=Round|Shape=Rectangle|*
%AMROTATEDRECTD34*
4,1,4,-0.9589,0.4130,-0.5732,0.8726,0.9589,-0.4130,0.5732,-0.8726,-0.9589,0.4130,0.0*
%
%ADD34ROTATEDRECTD34*%

%ADD49C,0.2220*%
%ADD50C,0.2220*%
%ADD51C,1.5500*%
%ADD52P,2.1920X4X245.0*%
%ADD53C,1.5240*%
%ADD54R,1.5500X1.5500*%
%ADD55P,2.1920X4X115.0*%
%ADD56P,2.1920X4X255.0*%
%ADD57R,1.5500X1.5500*%
%ADD58P,2.1920X4X103.0*%
%ADD59P,2.1920X4X84.0*%
%ADD60P,2.1920X4X195.0*%
%ADD61P,2.1920X4X205.0*%
%ADD62P,2.1920X4X186.0*%
%ADD63P,2.1920X4X167.0*%
%ADD64C,0.8000*%
D29*
X-153670Y295910D02*
D03*
X-179195D02*
D03*
X-152525Y328930D02*
D03*
X-127000D02*
D03*
D30*
X-128270Y304800D02*
D03*
Y282500D02*
D03*
D31*
X-218900Y47000D02*
D03*
X-231600D02*
D03*
X-244300D02*
D03*
X-257000D02*
D03*
X-269700D02*
D03*
X-282400D02*
D03*
X-295100D02*
D03*
X-320500D02*
D03*
X-333200D02*
D03*
X-345900D02*
D03*
X-358600D02*
D03*
Y-47000D02*
D03*
X-345900D02*
D03*
X-333200D02*
D03*
X-320500D02*
D03*
X-295100D02*
D03*
X-282400D02*
D03*
X-269700D02*
D03*
X-257000D02*
D03*
X-244300D02*
D03*
X-231600D02*
D03*
X-307800D02*
D03*
Y47000D02*
D03*
X-218900Y-47000D02*
D03*
X358600D02*
D03*
X333200Y47000D02*
D03*
X218900D02*
D03*
X320500D02*
D03*
X269700D02*
D03*
X257000D02*
D03*
X307800D02*
D03*
X282400Y-47000D02*
D03*
X257000D02*
D03*
X244300Y47000D02*
D03*
X295100D02*
D03*
X269700Y-47000D02*
D03*
X244300D02*
D03*
X231600D02*
D03*
Y47000D02*
D03*
X282400D02*
D03*
X320500Y-47000D02*
D03*
X307800D02*
D03*
X295100D02*
D03*
X218900D02*
D03*
X333200D02*
D03*
X345900D02*
D03*
X358600Y47000D02*
D03*
X345900D02*
D03*
D32*
X260672Y-268098D02*
D03*
X285675Y-173992D02*
D03*
X186688Y-116841D02*
D03*
X-186688Y116842D02*
D03*
X274677Y-167642D02*
D03*
X230682Y-142241D02*
D03*
X219684Y-135892D02*
D03*
X263678Y-161292D02*
D03*
X194681Y-229998D02*
D03*
X172684Y-217298D02*
D03*
X208685Y-129542D02*
D03*
X252679Y-154942D02*
D03*
X183682Y-223648D02*
D03*
X161685Y-210948D02*
D03*
X150687Y-204599D02*
D03*
X197687Y-123191D02*
D03*
X241681Y-148592D02*
D03*
X227677Y-249048D02*
D03*
X216678Y-242698D02*
D03*
X205679Y-236348D02*
D03*
X139688Y-198248D02*
D03*
X238675Y-255398D02*
D03*
X249673Y-261749D02*
D03*
X307672Y-186691D02*
D03*
X296674Y-180341D02*
D03*
X-216678Y242698D02*
D03*
X-197687Y123191D02*
D03*
X-263678Y161292D02*
D03*
X-139688Y198248D02*
D03*
X-150687Y204599D02*
D03*
X-161685Y210948D02*
D03*
X-172683Y217298D02*
D03*
X-183682Y223648D02*
D03*
X-194681Y229998D02*
D03*
X-205679Y236348D02*
D03*
X-227677Y249049D02*
D03*
X-238675Y255398D02*
D03*
X-249673Y261749D02*
D03*
X-260672Y268099D02*
D03*
X-307672Y186692D02*
D03*
X-296674Y180341D02*
D03*
X-285675Y173992D02*
D03*
X-274676Y167642D02*
D03*
X-252679Y154942D02*
D03*
X-241681Y148592D02*
D03*
X-230682Y142241D02*
D03*
X-219684Y135892D02*
D03*
X-208685Y129542D02*
D03*
D33*
X45730Y-218900D02*
D03*
X-48270D02*
D03*
Y-231600D02*
D03*
Y-244300D02*
D03*
Y-257000D02*
D03*
Y-269700D02*
D03*
Y-282400D02*
D03*
Y-295100D02*
D03*
Y-307800D02*
D03*
Y-320500D02*
D03*
Y-333200D02*
D03*
Y-345900D02*
D03*
Y-358600D02*
D03*
X45730D02*
D03*
Y-345900D02*
D03*
Y-333200D02*
D03*
Y-320500D02*
D03*
Y-307800D02*
D03*
Y-295100D02*
D03*
Y-282400D02*
D03*
Y-269700D02*
D03*
Y-257000D02*
D03*
Y-244300D02*
D03*
Y-231600D02*
D03*
X-48270Y254000D02*
D03*
Y304800D02*
D03*
X45730Y266700D02*
D03*
Y292100D02*
D03*
Y228600D02*
D03*
Y241300D02*
D03*
Y254000D02*
D03*
Y304800D02*
D03*
Y317500D02*
D03*
X-48270D02*
D03*
Y292100D02*
D03*
Y279400D02*
D03*
Y266700D02*
D03*
Y241300D02*
D03*
Y228600D02*
D03*
X45730Y279400D02*
D03*
Y215900D02*
D03*
Y330200D02*
D03*
Y342900D02*
D03*
Y355600D02*
D03*
X-48270D02*
D03*
Y342900D02*
D03*
Y330200D02*
D03*
Y215900D02*
D03*
D34*
X-117747Y-184983D02*
D03*
X-189755Y-124561D02*
D03*
X-197919Y-134289D02*
D03*
X-206082Y-144018D02*
D03*
X-214245Y-153747D02*
D03*
X-222409Y-163476D02*
D03*
X-230572Y-173205D02*
D03*
X-238736Y-182934D02*
D03*
X-246899Y-192662D02*
D03*
X-255063Y-202391D02*
D03*
X-263226Y-212120D02*
D03*
X-271389Y-221848D02*
D03*
X-279553Y-231577D02*
D03*
X-207544Y-291999D02*
D03*
X-199381Y-282271D02*
D03*
X-191218Y-272542D02*
D03*
X-183054Y-262813D02*
D03*
X-174891Y-253084D02*
D03*
X-166728Y-243355D02*
D03*
X-158564Y-233627D02*
D03*
X-150400Y-223898D02*
D03*
X-142238Y-214169D02*
D03*
X-134074Y-204440D02*
D03*
X-125910Y-194712D02*
D03*
X115947Y184983D02*
D03*
X189418Y272542D02*
D03*
X197581Y282271D02*
D03*
X205745Y291999D02*
D03*
X277753Y231577D02*
D03*
X269590Y221849D02*
D03*
X261426Y212120D02*
D03*
X187955Y124561D02*
D03*
X228772Y173205D02*
D03*
X220609Y163476D02*
D03*
X140438Y214169D02*
D03*
X124110Y194712D02*
D03*
X132274Y204440D02*
D03*
X148601Y223898D02*
D03*
X156764Y233627D02*
D03*
X164928Y243355D02*
D03*
X253262Y202391D02*
D03*
X245099Y192662D02*
D03*
X212446Y153747D02*
D03*
X204282Y144018D02*
D03*
X196119Y134290D02*
D03*
X236936Y182933D02*
D03*
X173091Y253084D02*
D03*
X181254Y262813D02*
D03*
D49*
X-156454Y-236875D02*
D03*
X-189105Y-118760D02*
D03*
X-125618Y-139050D02*
D03*
D50*
X-210170Y-143368D02*
X-210170Y-143369D01*
X-65746Y228600D02*
X-48270D01*
X-70826Y233680D02*
X-65746Y228600D01*
X-71120Y233680D02*
X-70826D01*
X-231370Y-29440D02*
X-231140Y-29210D01*
X-231370Y-46770D02*
Y-29440D01*
X-231600Y-47000D02*
X-231370Y-46770D01*
X-24100Y159796D02*
X-20670Y156367D01*
X-24100Y159796D02*
Y194808D01*
X-22830Y196078D01*
Y231090D02*
X-20270Y233650D01*
X-22830Y196078D02*
Y231090D01*
X-69850Y215900D02*
X-30480D01*
X-320905Y29615D02*
Y46595D01*
X-321310Y29210D02*
X-320905Y29615D01*
Y46595D02*
X-320500Y47000D01*
X-295505Y29615D02*
Y46595D01*
X-295910Y29210D02*
X-295505Y29615D01*
Y46595D02*
X-295100Y47000D01*
X-269700D02*
X-269470Y46770D01*
Y29440D02*
Y46770D01*
Y29440D02*
X-269240Y29210D01*
X-244070Y28170D02*
Y46770D01*
X-244300Y47000D02*
X-244070Y46770D01*
Y28170D02*
X-243840Y27940D01*
X-218900Y-62246D02*
Y-28702D01*
X-221055Y-64401D02*
X-218900Y-62246D01*
X-221055Y-65965D02*
Y-64401D01*
X-245110Y-66040D02*
X-244705Y-65635D01*
Y-47405D02*
X-244300Y-47000D01*
X-244705Y-65635D02*
Y-47405D01*
X-257810Y-29210D02*
X-257405Y-29615D01*
Y-46595D02*
X-257000Y-47000D01*
X-257405Y-46595D02*
Y-29615D01*
X-269470Y-64540D02*
X-269240Y-64770D01*
X-269700Y-47000D02*
X-269470Y-47230D01*
Y-64540D02*
Y-47230D01*
X-282170Y-29440D02*
X-281940Y-29210D01*
X-282170Y-46770D02*
Y-29440D01*
X-282400Y-47000D02*
X-282170Y-46770D01*
X-307798Y-24385D02*
X-307797Y-24384D01*
X-307798Y-46999D02*
Y-24385D01*
X-307800Y-47000D02*
X-307798Y-46999D01*
X-294870Y-64540D02*
X-294640Y-64770D01*
X-295100Y-47000D02*
X-294870Y-47230D01*
Y-64540D02*
Y-47230D01*
X-346305Y47405D02*
Y65635D01*
X-346710Y66040D02*
X-346305Y65635D01*
Y47405D02*
X-345670Y46770D01*
Y28170D02*
Y46770D01*
Y28170D02*
X-345440Y27940D01*
X-261456Y-236384D02*
X-260350Y-237490D01*
X-272466Y-221848D02*
X-270689D01*
X-261456Y-231081D01*
Y-236384D02*
Y-231081D01*
X26670Y304800D02*
X45730D01*
X27940Y279400D02*
X45730D01*
X20290Y260320D02*
X26670Y266700D01*
X24100Y174468D02*
Y215489D01*
X20290Y219299D02*
X24100Y215489D01*
X27940Y254000D02*
X45730D01*
X20574Y170942D02*
X24100Y174468D01*
X20290Y219299D02*
Y260320D01*
X-66040Y254000D02*
X-48270D01*
X62394Y341466D02*
X63500Y340360D01*
X45730Y342900D02*
X47164Y341466D01*
X62394D01*
X-48270Y-307800D02*
X-48040Y-307570D01*
X-30710D01*
X-30480Y-307340D01*
X-48270Y-333200D02*
X-47230Y-334240D01*
X-31520D01*
X-30480Y-335280D01*
X-108757Y-54909D02*
X-106979D01*
X-100330Y-48260D01*
X-114300Y-60452D02*
X-108757Y-54909D01*
X-114300Y-108966D02*
Y-60452D01*
X244753Y-33671D02*
X248920Y-29504D01*
X244753Y-46547D02*
Y-33671D01*
X244300Y-47000D02*
X244753Y-46547D01*
X248920Y-29504D02*
Y-27940D01*
X134620Y-113792D02*
Y-88900D01*
X139700Y-83820D01*
X134620Y-113792D02*
X143510Y-122682D01*
X139700Y-83820D02*
Y-6350D01*
X92710Y-141478D02*
X114300Y-119888D01*
X89250Y-120299D02*
Y-118460D01*
X86101Y-151978D02*
X87950Y-161961D01*
X92710Y-159990D02*
Y-152291D01*
X90860Y-150007D02*
X92710Y-152291D01*
X86101Y-145231D02*
X88757Y-124999D01*
X90860Y-147203D02*
X92710Y-145353D01*
X85090Y-114300D02*
X88600Y-117810D01*
X92710Y-159990D02*
X93360Y-160640D01*
X87950Y-161961D02*
X89408Y-166178D01*
X93360Y-160640D02*
X100106Y-167386D01*
X92710Y-145353D02*
Y-141478D01*
X88757Y-124999D02*
X89250Y-120299D01*
X89408Y-187198D02*
Y-166178D01*
X90860Y-150007D02*
Y-147203D01*
X88600Y-117810D02*
X89250Y-118460D01*
X86101Y-151978D02*
Y-145231D01*
X257810Y-270960D02*
X260672Y-268098D01*
X257810Y-279976D02*
Y-270960D01*
X273454Y-278534D02*
X274320Y-279400D01*
X266991Y-278534D02*
X273454D01*
X265571Y-277114D02*
X266991Y-278534D01*
X260672Y-277114D02*
X265571D01*
X257810Y-288290D02*
Y-279976D01*
X260672Y-277114D01*
X213360Y-289673D02*
X216307Y-292620D01*
X213360Y-289673D02*
Y-246016D01*
X216678Y-242698D01*
X216307Y-299720D02*
Y-292620D01*
X35560Y-167640D02*
X54610Y-148590D01*
X35560Y-203962D02*
X45730Y-214132D01*
X35560Y-203962D02*
Y-167640D01*
X32401Y-218900D02*
X45730D01*
X26670Y-223520D02*
X27780D01*
X32401Y-218900D01*
X28980Y-245340D02*
X44690D01*
X45730Y-244300D01*
X27940Y-246380D02*
X28980Y-245340D01*
X19020Y-281148D02*
X32972Y-295100D01*
X45500Y-269470D02*
X45730Y-269700D01*
X26670Y-269240D02*
X26900Y-269470D01*
X14261Y-290056D02*
X32004Y-307800D01*
X19020Y-207802D02*
X28860Y-197962D01*
X19020Y-281148D02*
Y-207802D01*
X26900Y-269470D02*
X45500D01*
X14261Y-204119D02*
X24100Y-194280D01*
X14261Y-290056D02*
Y-204119D01*
X-48270Y-257000D02*
X-47230Y-258040D01*
X-30250D01*
X-29210Y-259080D01*
X-88900Y-150622D02*
Y-117094D01*
X-105410Y-167132D02*
X-88900Y-150622D01*
Y-117094D02*
X-85090Y-113284D01*
Y-28448D01*
X-117747Y-184983D02*
X-116334Y-186395D01*
X-112445D02*
X-108929Y-182880D01*
X-116334Y-186395D02*
X-112445D01*
X-108929Y-182880D02*
X-101600D01*
X-120904Y-212090D02*
X-112785Y-203971D01*
X-134074Y-204440D02*
X-132046D01*
X-124396Y-212090D01*
X-120904D01*
X-145400Y-211007D02*
Y-208930D01*
X-149541Y-204789D02*
X-145400Y-208930D01*
X-149141Y-201161D02*
X-146050Y-197477D01*
X-150059Y-204271D02*
Y-202432D01*
Y-204271D02*
X-149541Y-204789D01*
X-150059Y-202432D02*
X-149141Y-201161D01*
X-146050Y-197477D02*
Y-192024D01*
X-121158Y-167132D01*
X-145400Y-211007D02*
X-142238Y-214169D01*
X-140256Y-232410D02*
X-127254D01*
X-148768Y-223898D02*
X-140256Y-232410D01*
X-127254D02*
X-107696Y-212852D01*
X-150400Y-223898D02*
X-148768D01*
X-125606Y-243970D02*
X-69596Y-187960D01*
X-156001Y-237328D02*
X-126775Y-243970D01*
X-156630Y-236699D02*
X-156454Y-236875D01*
X-158564Y-233627D02*
X-156763Y-236488D01*
X-156630Y-236699D01*
X-126775Y-243970D02*
X-125606D01*
X-156454Y-236875D02*
X-156001Y-237328D01*
X-184150Y-243825D02*
Y-212344D01*
X-139954Y-168148D01*
X-184150Y-243825D02*
X-174891Y-253084D01*
X-191770Y-254097D02*
Y-206248D01*
Y-254097D02*
X-183054Y-262813D01*
X-191770Y-206248D02*
X-181102Y-195580D01*
X-189755Y-124561D02*
Y-119410D01*
X-146639Y-118110D02*
X-123444D01*
X-151279Y-121009D02*
X-146639Y-118110D01*
X-123444D02*
X-114300Y-108966D01*
X-156471Y-118110D02*
X-155642Y-118939D01*
X-188455Y-118110D02*
X-156471D01*
X-155200Y-119646D02*
X-153837Y-121009D01*
X-151279D01*
X-189105Y-118760D02*
X-188455Y-118110D01*
X-189755Y-119410D02*
X-189105Y-118760D01*
X-155642Y-118939D02*
X-155200Y-119646D01*
X-124968Y-138400D02*
Y-133875D01*
X-194411Y-139700D02*
X-193419D01*
X-201676Y-134289D02*
X-194411Y-139700D01*
X-125618Y-139050D02*
X-124968Y-138400D01*
X-126268Y-139700D02*
X-125618Y-139050D01*
X-193419Y-139700D02*
X-190829Y-139671D01*
X-190794Y-139700D01*
X-126268D01*
X-125149Y-133875D02*
X-124968D01*
X-201676Y-134289D02*
X-197919D01*
X-210820Y-112776D02*
X-183184Y-85140D01*
X-209520Y-144018D02*
X-206082D01*
X-210170Y-143369D02*
X-209520Y-144018D01*
X-211157Y-131671D02*
X-210820Y-132009D01*
X-211157Y-131671D02*
Y-128831D01*
X-210820Y-128429D01*
Y-112776D01*
Y-142718D02*
X-210170Y-143368D01*
X-210820Y-142718D02*
Y-132009D01*
X-210739Y-153747D02*
X-204466Y-160020D01*
X-135172D01*
X-96520Y-121368D01*
X-214245Y-153747D02*
X-210739D01*
X-247650Y-174020D02*
Y-115824D01*
X-192024Y-60198D01*
X-247650Y-174020D02*
X-238736Y-182934D01*
X-255270Y-110998D02*
X-197104Y-52832D01*
X-255270Y-183746D02*
X-246899Y-192116D01*
Y-192662D02*
Y-192116D01*
X-255270Y-183746D02*
Y-110998D01*
X97790Y185420D02*
X98896Y186526D01*
X107558Y189482D02*
X111448D01*
X104602Y186526D02*
X107558Y189482D01*
X111448D02*
X115947Y184983D01*
X98896Y186526D02*
X104602D01*
X194564Y107950D02*
X209804Y123190D01*
Y139519D02*
Y144018D01*
Y123190D02*
Y139519D01*
X165354Y112776D02*
X170180Y107950D01*
X194564D01*
X185319Y124561D02*
X187955D01*
X170270Y137166D02*
X172714D01*
X169164Y138272D02*
X170270Y137166D01*
X172714D02*
X185319Y124561D01*
X217534Y163476D02*
X220609D01*
X136549Y136398D02*
X170331Y170180D01*
X210830D02*
X217534Y163476D01*
X170331Y170180D02*
X210830D01*
X57770Y315610D02*
X63499Y309881D01*
Y309852D02*
Y309881D01*
X189230Y240135D02*
X189260Y240105D01*
X181610Y206502D02*
Y244275D01*
X189230Y240135D02*
Y254837D01*
X173091Y252795D02*
Y253084D01*
Y252795D02*
X181610Y244275D01*
X189260Y213868D02*
X189610D01*
X139700Y164592D02*
X181610Y206502D01*
X269590Y220203D02*
Y221849D01*
Y220203D02*
X276860Y212932D01*
Y147828D02*
Y212932D01*
Y147828D02*
X283718Y140970D01*
X255089Y216619D02*
X259588Y212120D01*
X252486Y217170D02*
X253037Y216619D01*
X189610Y213868D02*
X192912Y217170D01*
X253037Y216619D02*
X255089D01*
X192912Y217170D02*
X252486D01*
X259588Y212120D02*
X261426D01*
X63994Y216582D02*
X64676Y217264D01*
X124858Y243840D02*
X146551D01*
X45730Y215900D02*
X46412Y216582D01*
X121048Y240030D02*
X124858Y243840D01*
X97790Y240030D02*
X121048D01*
X46412Y216582D02*
X63994D01*
X120493Y171263D02*
X121793Y172563D01*
X128143Y164592D02*
X139700D01*
X107920Y131868D02*
X120493Y144441D01*
X121793Y172563D02*
X124049D01*
X120493Y144441D02*
Y171263D01*
X136774Y199941D02*
X140970D01*
X124049Y172563D02*
X140970Y189484D01*
Y199941D01*
X132274Y204440D02*
X136774Y199941D01*
X124110Y194712D02*
Y194959D01*
X101854Y227076D02*
X115570Y213360D01*
Y203499D02*
X124110Y194959D01*
X115570Y203499D02*
Y213360D01*
X-254000Y173990D02*
X-195326D01*
X-263678Y164312D02*
X-254000Y173990D01*
X-263678Y161292D02*
Y164312D01*
X-270256Y167640D02*
X-259146Y178750D01*
X-195326Y173990D02*
X-169230Y147894D01*
X-259146Y178750D02*
X-189926D01*
X-164471Y153295D01*
X-263534Y259048D02*
Y265237D01*
X-262890Y217238D02*
Y258404D01*
X-263534Y259048D02*
X-262890Y258404D01*
X-263534Y265237D02*
X-245364Y283407D01*
X-278130Y201998D02*
X-262890Y217238D01*
X-191201Y253299D02*
X-120142D01*
X-205679Y238820D02*
X-191201Y253299D01*
X-205679Y236348D02*
Y238820D01*
X-197489Y221354D02*
X-195580Y204470D01*
X-197489Y221354D02*
X-194681Y229998D01*
X-161685Y210948D02*
Y213384D01*
X-154089Y220980D01*
X-119126D01*
X-105410Y207264D01*
X-154825Y200460D02*
X-150687Y204599D01*
X-154825Y194363D02*
Y200460D01*
X-154940Y194248D02*
X-154825Y194363D01*
X-154940Y159256D02*
X-150370Y154686D01*
X-154940Y159256D02*
Y194248D01*
X-145927Y187897D02*
X-139688Y194137D01*
X-145927Y184321D02*
Y187897D01*
X-139688Y194137D02*
Y198248D01*
X-145927Y184321D02*
X-139700Y178094D01*
Y176530D02*
Y178094D01*
X-164699Y111907D02*
X-164471Y112135D01*
X-164699Y99929D02*
X-160020Y95250D01*
X-164471Y112135D02*
Y153295D01*
X-175230Y79098D02*
X-168522Y72390D01*
X-180086Y109982D02*
X-173990Y116078D01*
X-179070Y129540D02*
X-173990Y124460D01*
X-169230Y114107D02*
Y147894D01*
X-164699Y99929D02*
Y111907D01*
X-175230Y79098D02*
Y108107D01*
X-173990Y116078D02*
Y124460D01*
X-175230Y108107D02*
X-169230Y114107D01*
X-168522Y72390D02*
X-150368D01*
X-190500Y113030D02*
X-186688Y116842D01*
X-202184Y32766D02*
X-190500Y44450D01*
Y113030D01*
X-234950Y114912D02*
Y131891D01*
X-227959Y107920D02*
X-225903D01*
X-224790Y115570D02*
X-205308D01*
X-197687Y122979D02*
Y123191D01*
X-205308Y115570D02*
X-204387Y116491D01*
X-225903Y107920D02*
X-222123Y104140D01*
X-204175Y116491D02*
X-197687Y122979D01*
X-222123Y104140D02*
X-212598D01*
X-204387Y116491D02*
X-204175D01*
X-234950Y114912D02*
X-227959Y107920D01*
X-234950Y131891D02*
X-234821Y132020D01*
Y138103D01*
X-230682Y142241D01*
X-245180Y132415D02*
X-242600Y129834D01*
X-245180Y145092D02*
X-241681Y148592D01*
X-242600Y128270D02*
Y129834D01*
X-245180Y132415D02*
Y145092D01*
X-252679Y150992D02*
Y154942D01*
X-259080Y125984D02*
Y144591D01*
Y125984D02*
X-253492Y120396D01*
X-259080Y144591D02*
X-252679Y150992D01*
X-351790Y97790D02*
Y106172D01*
X-365252Y-6604D02*
Y84328D01*
X-351790Y97790D01*
X-300174Y159566D02*
Y175565D01*
X-313690Y127000D02*
Y146050D01*
X-300174Y159566D01*
X-300812Y176203D02*
X-300174Y175565D01*
X-326898Y113792D02*
X-313690Y127000D01*
X-344170Y113792D02*
X-326898D01*
X-285675Y169080D02*
Y173992D01*
X-290830Y115645D02*
Y163925D01*
Y115645D02*
X-275007Y99822D01*
X-290830Y163925D02*
X-285675Y169080D01*
X-298286Y204634D02*
X-297180Y205740D01*
X-298286Y198640D02*
Y204634D01*
X-307672Y189254D02*
X-298286Y198640D01*
X-307672Y186944D02*
Y189254D01*
X-285675Y176530D02*
X-278130Y184075D01*
Y201998D01*
X-300812Y176203D02*
X-296674Y180341D01*
X58420Y-378460D02*
Y-377889D01*
Y-379730D02*
Y-378460D01*
Y-377889D02*
X68931Y-367378D01*
X24130Y327660D02*
X25694D01*
X28234Y330200D01*
X45730D01*
X282400Y28091D02*
Y47000D01*
Y28091D02*
X309863Y629D01*
X294640Y26670D02*
X294870Y26900D01*
X309863Y629D02*
X313569D01*
X294870Y26900D02*
Y46770D01*
X295100Y47000D01*
X313569Y629D02*
X342138Y-27940D01*
X282582Y-46818D02*
Y-7167D01*
X282400Y-47000D02*
X282582Y-46818D01*
X307340Y27940D02*
X307570Y28170D01*
Y46770D02*
X307800Y47000D01*
X307570Y28170D02*
Y46770D01*
X282582Y-7167D02*
X282764Y-6985D01*
X257000Y47000D02*
X257405Y46595D01*
Y29615D02*
X257810Y29210D01*
X257405Y29615D02*
Y46595D01*
X257000Y-47000D02*
X257405Y-47405D01*
Y-64365D02*
X257810Y-64770D01*
X257405Y-64365D02*
Y-47405D01*
X231600Y-62396D02*
Y-47000D01*
Y-62396D02*
X233680Y-64476D01*
Y-66040D02*
Y-64476D01*
X290830Y-29401D02*
Y-29210D01*
X295100Y-47000D02*
Y-33671D01*
X290830Y-29401D02*
X295100Y-33671D01*
X190500Y264414D02*
Y272542D01*
X-262933Y-265938D02*
X-191218D01*
X288290Y-172720D02*
Y-166465D01*
X283589Y-181385D02*
X284010Y-181628D01*
X283589Y-181385D02*
X285675Y-173992D01*
X281964Y-193524D02*
X284010Y-182756D01*
Y-181628D01*
X266954Y-208534D02*
X281964Y-193524D01*
X290830Y-163925D02*
Y-151844D01*
X358600Y-84074D01*
X288290Y-166465D02*
X290830Y-163925D01*
X202767Y-103493D02*
Y-101929D01*
X197687Y-123191D02*
X201168Y-119710D01*
Y-105091D01*
X202767Y-103493D01*
X259080Y-144591D02*
Y-127454D01*
X252679Y-154942D02*
Y-150992D01*
X259080Y-144591D01*
X252679Y-121053D02*
X259080Y-127454D01*
X245475Y-89519D02*
X269240Y-113284D01*
X263678Y-161292D02*
Y-156503D01*
X269240Y-150941D02*
Y-113284D01*
X263678Y-156503D02*
X269240Y-150941D01*
X241681Y-125254D02*
Y-117474D01*
Y-125254D02*
X243840Y-127413D01*
X241681Y-148592D02*
Y-140813D01*
X243840Y-138653D01*
X234821Y-138103D02*
Y-132020D01*
X234950Y-131891D01*
X207010Y-94279D02*
X234950Y-122219D01*
X230682Y-142241D02*
X234821Y-138103D01*
X234950Y-131891D02*
Y-122219D01*
X105410Y-149860D02*
X209550D01*
X219684Y-139726D02*
Y-135892D01*
X209550Y-149860D02*
X219684Y-139726D01*
X208685Y-132230D02*
Y-129542D01*
X162178Y-139700D02*
X201215D01*
X208685Y-132230D01*
X158622Y-136144D02*
X162178Y-139700D01*
X157988Y-136144D02*
X158622D01*
X154171Y-218462D02*
X154384D01*
X146573Y-226060D02*
X154171Y-218462D01*
X99060Y-226060D02*
X146573D01*
X161685Y-211160D02*
Y-210948D01*
X154384Y-218462D02*
X161685Y-211160D01*
X49530Y-176530D02*
X99060Y-226060D01*
X186690Y-220641D02*
Y-194564D01*
X170180Y-178054D02*
X186690Y-194564D01*
X183682Y-223648D02*
X186690Y-220641D01*
X198150Y-226528D02*
Y-208310D01*
X198120Y-208280D02*
X198150Y-208310D01*
X194681Y-229998D02*
X198150Y-226528D01*
X142714Y-195222D02*
Y-180814D01*
X139688Y-198248D02*
X142714Y-195222D01*
X142240Y-180340D02*
X142714Y-180814D01*
X45730Y-257000D02*
X64310D01*
X64770Y-256540D01*
X63270Y-231370D02*
X63500Y-231140D01*
X45960Y-231370D02*
X63270D01*
X45730Y-231600D02*
X45960Y-231370D01*
X46135Y-282805D02*
X63095D01*
X63500Y-283210D01*
X45730Y-282400D02*
X46135Y-282805D01*
X45730Y-333200D02*
X46595Y-332335D01*
X63905D01*
X64770Y-331470D01*
X32401Y-345900D02*
X45730D01*
X28131Y-341630D02*
X32401Y-345900D01*
X27940Y-341630D02*
X28131D01*
X-66040Y-346710D02*
X-65635Y-346305D01*
X-48675D02*
X-48270Y-345900D01*
X-65635Y-346305D02*
X-48675D01*
X-48500Y-294870D02*
X-48270Y-295100D01*
X-65810Y-294870D02*
X-48500D01*
X-66040Y-294640D02*
X-65810Y-294870D01*
X-48675Y-270105D02*
X-48270Y-269700D01*
X-66040Y-270510D02*
X-65635Y-270105D01*
X-48675D01*
X-30885Y-232005D02*
X-30480Y-232410D01*
X-47865Y-232005D02*
X-30885D01*
X-48270Y-218900D02*
X-33172D01*
X-20574Y-325374D02*
Y-231498D01*
X-48270Y-231600D02*
X-47865Y-232005D01*
X-33172Y-218900D02*
X-20574Y-231498D01*
X-63054Y271616D02*
X-55270Y279400D01*
X-64934Y271616D02*
X-63054D01*
X-55270Y279400D02*
X-48270D01*
X-66040Y270510D02*
X-64934Y271616D01*
X-46990Y342900D02*
X-30480D01*
X45730Y292100D02*
X63500D01*
X45730Y317500D02*
X47620Y315610D01*
X57770D01*
X-127000Y328930D02*
X-49540D01*
X-48270Y330200D01*
X-75692Y-367538D02*
X-63379Y-379851D01*
X-127153Y-367538D02*
X-75692D01*
X61991Y-358600D02*
X68931Y-365539D01*
X45730Y-358600D02*
X61991D01*
X68931Y-367378D02*
Y-365539D01*
X-358600Y8334D02*
Y47000D01*
Y0D02*
Y8334D01*
X72390Y-1270D02*
X144780D01*
X-72898Y218948D02*
X-69850Y215900D01*
X-84773Y230823D02*
X-72898Y218948D01*
X-202184Y32766D02*
Y89662D01*
X120650Y219710D02*
X140438D01*
X-94234Y12700D02*
Y19050D01*
X-322744Y186944D02*
X-307672D01*
X-49784Y-73660D02*
Y-64486D01*
X-260350Y-202391D02*
Y-100838D01*
X-78232Y-177367D02*
Y-167843D01*
X-183134Y-71374D02*
Y-41910D01*
X-227838Y-163476D02*
Y-116078D01*
X227677Y-240284D02*
X285496D01*
X333200Y47000D02*
Y108760D01*
X292608Y149352D02*
Y224719D01*
X285750Y231577D02*
X292608Y224719D01*
X277753Y231577D02*
X285750D01*
X-358600Y8334D02*
X-339090Y-11176D01*
X-231140D01*
X-211074Y8890D01*
Y86360D01*
X-224536Y99822D02*
X-211074Y86360D01*
X-275007Y99822D02*
X-224536D01*
X-333200Y-159094D02*
Y-47000D01*
Y-159094D02*
X-304485Y-187809D01*
Y-215382D02*
Y-187809D01*
Y-215382D02*
X-288290Y-231577D01*
X-279553D01*
X181610Y4064D02*
Y13970D01*
Y4064D02*
X194310D01*
X203962Y13716D01*
Y55634D01*
X258826Y110498D01*
Y196827D01*
X253262Y202391D02*
X258826Y196827D01*
X45730Y-218900D02*
Y-214132D01*
X54610Y-148590D02*
Y-41910D01*
X67310Y-29210D01*
Y-6350D01*
X72390Y-1270D01*
X-140260Y282500D02*
X-128270D01*
X-153670Y295910D02*
X-140260Y282500D01*
X-48270Y266700D02*
X-27940D01*
X148601Y223898D02*
X161846Y210652D01*
X120396Y108966D02*
X128245Y116815D01*
X138430D01*
X141309Y119694D01*
Y129879D01*
X157352Y145922D01*
X179122D01*
X190754Y134290D01*
X196119D01*
X181254Y262813D02*
X189230Y254837D01*
X-48270Y241300D02*
X-27940D01*
X107920Y103856D02*
Y131868D01*
X101854Y97790D02*
X107920Y103856D01*
X74930Y97790D02*
X101854D01*
X36830Y135890D02*
X74930Y97790D01*
X26670Y266700D02*
X45730D01*
X20574Y89662D02*
Y170942D01*
Y89662D02*
X25146Y85090D01*
Y44704D02*
Y85090D01*
Y44704D02*
X36830Y33020D01*
X101600D01*
X118110Y16510D01*
X125149Y132975D02*
X176070Y183896D01*
X224282D01*
X228772Y179406D01*
Y173205D02*
Y179406D01*
X-263226Y-212120D02*
X-246888Y-228458D01*
X-230378Y263695D02*
Y271272D01*
X-238675Y255398D02*
X-230378Y263695D01*
X283718Y140970D02*
X295402D01*
X300482Y146050D01*
Y228600D01*
X211836Y317246D02*
X300482Y228600D01*
X211836Y317246D02*
Y335534D01*
X89154Y336296D02*
X211836Y335534D01*
X72390Y354330D02*
X89154Y336296D01*
X-233426Y284217D02*
Y290068D01*
X-249673Y267970D02*
X-233426Y284217D01*
X-249673Y261749D02*
Y267970D01*
X-258165Y-291999D02*
X-207544D01*
X-315976Y-234188D02*
X-258165Y-291999D01*
X-315976Y-234188D02*
Y-190572D01*
X-358600Y-147948D02*
X-315976Y-190572D01*
X-358600Y-147948D02*
Y-47000D01*
X-207544Y-291999D02*
X-202692D01*
X-127153Y-367538D01*
X-345900Y-47000D02*
Y-25956D01*
X-365252Y-6604D02*
X-345900Y-25956D01*
X-351790Y106172D02*
X-344170Y113792D01*
X-345900Y-153125D02*
Y-47000D01*
Y-153125D02*
X-311216Y-187809D01*
Y-232216D02*
Y-187809D01*
Y-232216D02*
X-264286Y-279146D01*
X-207849D01*
X-199381Y-282271D01*
X-282400Y47000D02*
Y72390D01*
X-282448Y72438D02*
X-282400Y72390D01*
X-255016Y207518D02*
Y221709D01*
X-227677Y249049D01*
X-201930Y257446D02*
Y274066D01*
X-216678Y242698D02*
X-201930Y257446D01*
X-107696Y-212852D02*
Y-212598D01*
X-139954Y-168148D02*
X-134874D01*
X-49784Y-73660D02*
X-43180D01*
X-54580Y-59690D02*
X-49784Y-64486D01*
X-54580Y-59690D02*
Y-31750D01*
X-44450Y-21620D01*
Y-8382D01*
X-49530Y-3302D02*
X-44450Y-8382D01*
X-64770Y-3302D02*
X-49530D01*
X-71374Y-9906D02*
X-64770Y-3302D01*
X-71374Y-14732D02*
Y-9906D01*
X-85090Y-28448D02*
X-71374Y-14732D01*
X-121158Y-167132D02*
X-105410D01*
X-71374Y-320500D02*
X-48270D01*
X-76454Y-315420D02*
X-71374Y-320500D01*
X-76454Y-315420D02*
Y-225014D01*
X-25430Y-173990D01*
Y-128240D01*
X-29210Y-124460D02*
X-25430Y-128240D01*
X-50800Y-124460D02*
X-29210D01*
X-56388Y-118872D02*
X-50800Y-124460D01*
X-56388Y-118872D02*
Y-71374D01*
X-60960Y-66802D02*
X-56388Y-71374D01*
X-60960Y-66802D02*
Y-57150D01*
X-71120Y-46990D02*
X-60960Y-57150D01*
X-260350Y-202391D02*
X-255063D01*
X-166728Y-243355D02*
X-153035Y-257048D01*
X172684Y-224898D02*
Y-217298D01*
X163830Y-233752D02*
X172684Y-224898D01*
X161362Y-233752D02*
X163830D01*
X181773Y-89519D02*
X245475D01*
X174752Y-96540D02*
X181773Y-89519D01*
X158598Y-96540D02*
X174752D01*
X151920Y-89862D02*
X158598Y-96540D01*
X151920Y-89862D02*
Y-80417D01*
X162560Y-69777D01*
Y-20320D01*
X156210Y-13970D02*
X162560Y-20320D01*
X269700Y29210D02*
Y47000D01*
X252428Y11938D02*
X269700Y29210D01*
X230124Y11938D02*
X252428D01*
X203454Y-14732D02*
X230124Y11938D01*
X203454Y-45006D02*
Y-14732D01*
X163320Y-85140D02*
X203454Y-45006D01*
X320500Y-83475D02*
Y-47000D01*
X307800Y-54102D02*
Y-47000D01*
X284988Y-76914D02*
X307800Y-54102D01*
X218900Y-28194D02*
X226245Y-20849D01*
X218900Y-47000D02*
Y-28194D01*
X-307672Y186692D02*
Y186944D01*
X-366738Y142950D02*
X-322744Y186944D01*
X-366738Y122212D02*
Y142950D01*
X-376174Y112776D02*
X-366738Y122212D01*
X-376174Y30226D02*
Y112776D01*
Y30226D02*
X-373634Y27686D01*
Y-5032D02*
Y27686D01*
Y-5032D02*
X-358600Y-20066D01*
Y-47000D02*
Y-20066D01*
X-219684Y135892D02*
Y145568D01*
X-212852Y152400D01*
X-94234Y12700D02*
X-86360D01*
X-104394Y29210D02*
X-94234Y19050D01*
X-124460Y29210D02*
X-104394D01*
X-129540Y34290D02*
X-124460Y29210D01*
X-129540Y34290D02*
Y51562D01*
X-150368Y72390D02*
X-129540Y51562D01*
X-274676Y167640D02*
Y167642D01*
Y167640D02*
X-270256D01*
X-160020Y95250D02*
X-156464D01*
X-147574Y86360D01*
X-64770D01*
X-54610Y76200D01*
Y37084D02*
Y76200D01*
Y37084D02*
X-52324D01*
X-30480Y15240D01*
X237490Y-113284D02*
X241681Y-117474D01*
X243840Y-138653D02*
Y-127413D01*
X149860Y-106680D02*
X182671D01*
X195072Y-94279D01*
X207010D01*
X-78232Y-167843D02*
X-73398D01*
X-100076Y-199211D02*
X-78232Y-177367D01*
X-120548Y-199211D02*
X-100076D01*
X-125910Y-194712D02*
X-120548Y-199211D01*
X-54610Y-135890D02*
X-36830D01*
X-60960Y-142240D02*
X-54610Y-135890D01*
X-60960Y-173990D02*
Y-142240D01*
X-66213Y-179243D02*
X-60960Y-173990D01*
X-73376Y-179243D02*
X-66213D01*
X-98104Y-203971D02*
X-73376Y-179243D01*
X-112785Y-203971D02*
X-98104D01*
X13160Y-320500D02*
X45730D01*
X-1270Y-306070D02*
X13160Y-320500D01*
X-1270Y-306070D02*
Y-171450D01*
X-20670Y-152050D02*
X-1270Y-171450D01*
X-20670Y-152050D02*
Y-119923D01*
X-24130Y-116463D02*
X-20670Y-119923D01*
X-24130Y-116463D02*
Y-58420D01*
X-12700Y-46990D01*
X-218900Y-28702D02*
X-202184Y-11986D01*
Y32766D01*
X-151130Y41910D02*
Y54102D01*
X-156210Y59182D02*
X-151130Y54102D01*
X-169418Y59182D02*
X-156210D01*
X-180086Y69850D02*
X-169418Y59182D01*
X-180086Y69850D02*
Y109982D01*
Y129540D02*
X-179070D01*
X-188214Y137668D02*
X-180086Y129540D01*
X-200559Y137668D02*
X-188214D01*
X-208685Y129542D02*
X-200559Y137668D01*
X59720Y58390D02*
X71120Y46990D01*
X59720Y58390D02*
Y75662D01*
X46990Y88392D02*
X59720Y75662D01*
X31750Y88392D02*
X46990D01*
X25400Y94742D02*
X31750Y88392D01*
X25400Y94742D02*
Y163260D01*
X28860Y166720D01*
Y222250D01*
X35210Y228600D01*
X45730D01*
X136549Y124775D02*
Y136398D01*
X133350Y121575D02*
X136549Y124775D01*
X118110Y121575D02*
X133350D01*
X112680Y116145D02*
X118110Y121575D01*
X112680Y100488D02*
Y116145D01*
X102362Y90170D02*
X112680Y100488D01*
X96520Y90170D02*
X102362D01*
X91440Y85090D02*
X96520Y90170D01*
X91440Y64770D02*
Y85090D01*
Y64770D02*
X95250Y60960D01*
X99060D01*
X118110Y41910D01*
X140438Y214169D02*
Y219710D01*
X204282Y144018D02*
X209804D01*
X163830Y83820D02*
X193802D01*
X242062Y132080D01*
Y177807D01*
X236936Y182933D02*
X242062Y177807D01*
X128270Y74930D02*
Y83312D01*
X133350Y88392D01*
X152280D01*
X159138Y95250D01*
X188596D01*
X228346Y135000D01*
Y137847D01*
X212446Y153747D02*
X228346Y137847D01*
X-245364Y283407D02*
Y284226D01*
X333200Y9398D02*
Y47000D01*
Y9398D02*
X358600Y-16002D01*
Y-47000D02*
Y-16002D01*
X-307800Y47000D02*
Y76962D01*
X244300Y27940D02*
Y47000D01*
X-172683Y217298D02*
Y220509D01*
X-149439Y243753D01*
X-126405D01*
X-85090Y202438D01*
Y132490D02*
Y202438D01*
Y132490D02*
X-74520Y121920D01*
X-84773Y230823D02*
Y251703D01*
X-115570Y282500D02*
X-84773Y251703D01*
X-128270Y282500D02*
X-115570D01*
X-333200Y47000D02*
Y67310D01*
X146551Y243840D02*
X156764Y233627D01*
X189418Y272542D02*
X190500D01*
Y264414D02*
X213046Y241868D01*
X267462D01*
X277753Y231577D01*
X218900Y8890D02*
Y47000D01*
X208740Y-1270D02*
X218900Y8890D01*
X144780Y-1270D02*
X208740D01*
X139700Y-6350D02*
X144780Y-1270D01*
X143510Y-122682D02*
X180847D01*
X186688Y-116841D01*
X147186Y-210660D02*
X150687Y-204599D01*
X147186Y-212090D02*
Y-210660D01*
X114300Y-212090D02*
X147186D01*
X89408Y-187198D02*
X114300Y-212090D01*
X85090Y-114300D02*
Y-91440D01*
X86360Y-90170D01*
Y-12700D01*
X274677Y-173990D02*
Y-167642D01*
X265787Y-182880D02*
X274677Y-173990D01*
X202692Y-182880D02*
X265787D01*
X187198Y-167386D02*
X202692Y-182880D01*
X100106Y-167386D02*
X187198D01*
X114300Y-119888D02*
Y-57658D01*
X106680Y-50038D02*
X114300Y-57658D01*
X106680Y-50038D02*
Y-27940D01*
X118110Y-16510D01*
X231600Y24384D02*
Y47000D01*
X-68580Y-249380D02*
X-63500Y-244300D01*
X-48270D01*
X-192024Y-60198D02*
Y-24384D01*
X-181610Y-13970D01*
X-197104Y-52832D02*
Y-12954D01*
X-186690Y-2540D01*
X-144780D01*
Y-15240D02*
Y-2540D01*
Y-15240D02*
X-118110Y-41910D01*
X-320500Y-69596D02*
Y-47000D01*
X0Y-119380D02*
X28860Y-148240D01*
Y-197962D02*
Y-148240D01*
X32972Y-295100D02*
X45730D01*
X32004Y-307800D02*
X45730D01*
X24100Y-194280D02*
Y-171480D01*
X8830Y-156210D02*
X24100Y-171480D01*
X-9652Y-156210D02*
X8830D01*
X-12700Y-153162D02*
X-9652Y-156210D01*
X-12700Y-153162D02*
Y-78740D01*
X-36830Y110490D02*
Y119410D01*
X-25430Y130810D01*
Y142016D01*
X-30734Y147320D02*
X-25430Y142016D01*
X-30734Y147320D02*
Y183134D01*
X-44450Y196850D02*
X-30734Y183134D01*
X-63693Y196850D02*
X-44450D01*
X-120142Y253299D02*
X-63693Y196850D01*
X-257000Y47000D02*
Y80010D01*
X-333200Y2286D02*
Y47000D01*
X-317246Y-163576D02*
Y-116332D01*
Y-163576D02*
X-268702Y-212120D01*
X-263226D01*
X-191218Y-272542D02*
Y-265938D01*
X-279553Y-249318D02*
X-262933Y-265938D01*
X-279553Y-249318D02*
Y-231577D01*
X148336Y292608D02*
X187244D01*
X197581Y282271D01*
X-105160Y-358600D02*
X-48270D01*
X-191218Y-272542D02*
X-105160Y-358600D01*
X135890Y310134D02*
X182271D01*
X200406Y291999D01*
X205745D01*
X-296672Y-197642D02*
X-272466Y-221848D01*
X-183682Y223648D02*
Y226909D01*
X-162052Y248539D01*
X-123063D01*
X-63246Y188722D01*
X-61722D01*
X-49530Y176530D01*
X-25146Y59436D02*
X-12700Y46990D01*
X-25146Y59436D02*
Y115254D01*
X-20670Y119730D01*
Y156367D01*
X-20270Y233650D02*
Y293574D01*
X-31496Y304800D02*
X-20270Y293574D01*
X-48270Y304800D02*
X-31496D01*
X-105410Y149860D02*
Y207264D01*
X245099Y192662D02*
X250462Y188163D01*
Y115842D02*
Y188163D01*
X176530Y41910D02*
X250462Y115842D01*
X164928Y243355D02*
Y247314D01*
X160528Y251714D02*
X164928Y247314D01*
X136906Y251714D02*
X160528D01*
X-71374Y292100D02*
X-48270D01*
X358600Y-84074D02*
Y-47000D01*
X346710Y-163576D02*
Y-142240D01*
X312166Y-198120D02*
X346710Y-163576D01*
X312166Y-213614D02*
Y-198120D01*
X285496Y-240284D02*
X312166Y-213614D01*
X227677Y-249048D02*
Y-240284D01*
X-161290Y354330D02*
X-137160D01*
X-127000Y344170D01*
Y328930D02*
Y344170D01*
X-183184Y-85140D02*
X-163320D01*
X202179Y-242410D02*
X205679Y-236348D01*
X202179Y-282961D02*
Y-242410D01*
X144780Y-340360D02*
X202179Y-282961D01*
X-231600Y47000D02*
Y80518D01*
X-62230Y355600D02*
X-48270D01*
X-77470Y370840D02*
X-62230Y355600D01*
X320500Y14176D02*
Y47000D01*
X16510Y-382270D02*
Y-362458D01*
X-20574Y-325374D02*
X16510Y-362458D01*
X-96520Y-121368D02*
Y-107950D01*
X-183134Y-41910D02*
X-176530D01*
X-227838Y-116078D02*
X-183134Y-71374D01*
X-227838Y-163476D02*
X-222409D01*
X45730Y241300D02*
X81280D01*
X84836Y237744D01*
Y132233D02*
Y237744D01*
X74523Y121920D02*
X84836Y132233D01*
X-48270Y-358600D02*
X-1270D01*
X-333200Y-47000D02*
Y-25400D01*
X-358600Y0D02*
X-333200Y-25400D01*
X-48270Y330200D02*
X-10160D01*
X15240Y355600D01*
X45730D01*
X-179195Y295910D02*
Y330325D01*
X-187960Y339090D02*
X-179195Y330325D01*
X-218900Y16510D02*
Y47000D01*
X-11430Y-1270D02*
X0Y-12700D01*
X-11430Y-1270D02*
Y25400D01*
X-1270Y35560D01*
Y94996D01*
X8890Y105156D01*
Y163830D01*
X1270Y171450D02*
X8890Y163830D01*
X1270Y171450D02*
Y286258D01*
X-29972Y317500D02*
X1270Y286258D01*
X-48270Y317500D02*
X-29972D01*
X269700Y-73406D02*
Y-47000D01*
X-127000Y317500D02*
Y328930D01*
X-128270Y316230D02*
X-127000Y317500D01*
X-128270Y304800D02*
Y316230D01*
X-152525Y312803D02*
Y328930D01*
X-153670Y311658D02*
X-152525Y312803D01*
X-153670Y295910D02*
Y311658D01*
X-150370Y105360D02*
Y154686D01*
D51*
X-73398Y167843D02*
D03*
X-118110Y-41910D02*
D03*
X355397Y-118372D02*
D03*
X43180Y-73660D02*
D03*
X194310Y-312420D02*
D03*
X122783Y-353060D02*
D03*
X55880Y-15240D02*
D03*
X86360Y12700D02*
D03*
X71120Y-72390D02*
D03*
X118110Y-41910D02*
D03*
X128270Y-73660D02*
D03*
X96517Y-107950D02*
D03*
X36830Y-134620D02*
D03*
X181610Y-13970D02*
D03*
X176530Y-41910D02*
D03*
X163320Y-85140D02*
D03*
X125149Y-133875D02*
D03*
X73398Y-167843D02*
D03*
X-86360Y-12700D02*
D03*
X12700Y-46990D02*
D03*
X-55880Y-15240D02*
D03*
X12700Y-78740D02*
D03*
X-43180Y-73660D02*
D03*
X-71120Y-72390D02*
D03*
X0Y-144780D02*
D03*
X-36830Y-135890D02*
D03*
X-96520Y-107950D02*
D03*
X-128270Y-73660D02*
D03*
X-12700Y-182880D02*
D03*
X-73398Y-167843D02*
D03*
X-125149Y-133875D02*
D03*
X-163320Y-85140D02*
D03*
X-176530Y-41910D02*
D03*
X-181610Y-13970D02*
D03*
X-355338Y138227D02*
D03*
X-363220Y106680D02*
D03*
X96520Y109220D02*
D03*
X163830Y83820D02*
D03*
X125149Y132975D02*
D03*
X73398Y167843D02*
D03*
X181610Y13970D02*
D03*
X176530Y41910D02*
D03*
X118110D02*
D03*
X128270Y74930D02*
D03*
X71120Y72390D02*
D03*
X36830Y135890D02*
D03*
X43180Y73660D02*
D03*
X55880Y15240D02*
D03*
X-2540Y144780D02*
D03*
X12700Y78740D02*
D03*
Y46990D02*
D03*
X0Y12700D02*
D03*
X-55880Y15240D02*
D03*
X-71120Y72390D02*
D03*
X12700Y182880D02*
D03*
X-43180Y73660D02*
D03*
X-118110Y43180D02*
D03*
X-128270Y74930D02*
D03*
X-96517Y109220D02*
D03*
X-36830Y135890D02*
D03*
X-181610Y13970D02*
D03*
X-176530Y41910D02*
D03*
X-163830Y83820D02*
D03*
X-125149Y133875D02*
D03*
D52*
X-49530Y176530D02*
D03*
X49530Y-176530D02*
D03*
D53*
X383540Y17780D02*
D03*
Y-15240D02*
D03*
X-21590Y-382270D02*
D03*
X16510D02*
D03*
X-386080Y16510D02*
D03*
X-81280Y346710D02*
D03*
X-77470Y370840D02*
D03*
X72390Y354330D02*
D03*
X76200Y330200D02*
D03*
X-386080Y-8890D02*
D03*
X11430Y388620D02*
D03*
X-10160D02*
D03*
X-187960Y339090D02*
D03*
X-161290Y354330D02*
D03*
D54*
X-118110Y-16510D02*
D03*
X43180Y-48260D02*
D03*
X86360Y-12700D02*
D03*
X71120Y-46990D02*
D03*
X118110Y-16510D02*
D03*
X36830Y-109220D02*
D03*
X-86360Y12700D02*
D03*
X-43180Y-48260D02*
D03*
X-71120Y-46990D02*
D03*
X0Y-119380D02*
D03*
X-36830Y-110490D02*
D03*
X-43180Y48260D02*
D03*
X118110Y16510D02*
D03*
X71120Y46990D02*
D03*
X36830Y110490D02*
D03*
X43180Y48260D02*
D03*
X-2540Y119380D02*
D03*
X0Y-12700D02*
D03*
X-71120Y46990D02*
D03*
X-118110Y17780D02*
D03*
X-36830Y110490D02*
D03*
D55*
X346710Y-142240D02*
D03*
D56*
X216307Y-299720D02*
D03*
X144780Y-340360D02*
D03*
X74520Y-120650D02*
D03*
X-74520Y121920D02*
D03*
D57*
X30480Y-15240D02*
D03*
X102870Y-73660D02*
D03*
X156210Y-13970D02*
D03*
X151130Y-41910D02*
D03*
X-12700Y-46990D02*
D03*
X-30480Y-15240D02*
D03*
X-12700Y-78740D02*
D03*
X-102870Y-73660D02*
D03*
X12700Y-182880D02*
D03*
X-151130Y-41910D02*
D03*
X-156210Y-13970D02*
D03*
X156210Y13970D02*
D03*
X151130Y41910D02*
D03*
X102870Y74930D02*
D03*
X30480Y15240D02*
D03*
X-12700Y78740D02*
D03*
Y46990D02*
D03*
X-30480Y15240D02*
D03*
X-12700Y182880D02*
D03*
X-102870Y74930D02*
D03*
X-156210Y13970D02*
D03*
X-151130Y41910D02*
D03*
D58*
X149860Y-106680D02*
D03*
X-150370Y105360D02*
D03*
D59*
X105410Y-149860D02*
D03*
X-105410Y149860D02*
D03*
D60*
X-74523Y-120650D02*
D03*
X74523Y121920D02*
D03*
D61*
X-49530Y-176530D02*
D03*
X-331470Y129540D02*
D03*
X-339352Y97993D02*
D03*
X49530Y176530D02*
D03*
D62*
X-105410Y-149860D02*
D03*
X105410Y148960D02*
D03*
D63*
X-149860Y-106680D02*
D03*
X150370Y105360D02*
D03*
D64*
X-71120Y233680D02*
D03*
X-231140Y-29210D02*
D03*
X-30480Y215900D02*
D03*
X-321310Y29210D02*
D03*
X-295910D02*
D03*
X-269240D02*
D03*
X-243840Y27940D02*
D03*
X-221055Y-65965D02*
D03*
X-245110Y-66040D02*
D03*
X-257810Y-29210D02*
D03*
X-269240Y-64770D02*
D03*
X-281940Y-29210D02*
D03*
X-294640Y-64770D02*
D03*
X-307797Y-24384D02*
D03*
X-346710Y66040D02*
D03*
X-345440Y27940D02*
D03*
X-260350Y-237490D02*
D03*
X26670Y304800D02*
D03*
X27940Y279400D02*
D03*
Y254000D02*
D03*
X-66040D02*
D03*
X63500Y340360D02*
D03*
X-30480Y-307340D02*
D03*
Y-335280D02*
D03*
X-100330Y-48260D02*
D03*
X248920Y-27940D02*
D03*
X274320Y-279400D02*
D03*
X257810Y-288290D02*
D03*
X26670Y-223520D02*
D03*
X27940Y-246380D02*
D03*
X26670Y-269240D02*
D03*
X-29210Y-259080D02*
D03*
X-101600Y-182880D02*
D03*
X97790Y185420D02*
D03*
X63499Y309852D02*
D03*
X189260Y213868D02*
D03*
Y240105D02*
D03*
X97790Y240030D02*
D03*
X64676Y217264D02*
D03*
X128143Y164592D02*
D03*
X-195580Y204470D02*
D03*
X-139700Y176530D02*
D03*
X-224790Y115570D02*
D03*
X-242600Y128270D02*
D03*
X-313690Y146050D02*
D03*
X-297180Y205740D02*
D03*
X24130Y327660D02*
D03*
X294640Y26670D02*
D03*
X307340Y27940D02*
D03*
X282764Y-6985D02*
D03*
X257810Y29210D02*
D03*
Y-64770D02*
D03*
X233680Y-66040D02*
D03*
X290830Y-29210D02*
D03*
X198120Y-208280D02*
D03*
X142240Y-180340D02*
D03*
X64770Y-256540D02*
D03*
X63500Y-231140D02*
D03*
Y-283210D02*
D03*
X64770Y-331470D02*
D03*
X27940Y-341630D02*
D03*
X-66040Y-346710D02*
D03*
Y-294640D02*
D03*
Y-270510D02*
D03*
X-30480Y-232410D02*
D03*
X-66040Y270510D02*
D03*
X-30480Y342900D02*
D03*
X63500Y292100D02*
D03*
X-63500Y-379730D02*
D03*
X58420Y-378460D02*
D03*
X333200Y108760D02*
D03*
X292608Y149352D02*
D03*
X169164Y138272D02*
D03*
X-27940Y266700D02*
D03*
X161846Y210652D02*
D03*
X120396Y108966D02*
D03*
X-27940Y241300D02*
D03*
X-246888Y-228458D02*
D03*
X-230378Y271272D02*
D03*
X-233426Y290068D02*
D03*
X-282448Y72438D02*
D03*
X-255016Y207518D02*
D03*
X-201930Y274066D02*
D03*
X-181102Y-195580D02*
D03*
X-107696Y-212598D02*
D03*
X-134874Y-168148D02*
D03*
X-260350Y-100838D02*
D03*
X-153035Y-257048D02*
D03*
X-69596Y-187960D02*
D03*
X202767Y-101929D02*
D03*
X252679Y-121053D02*
D03*
X161362Y-233752D02*
D03*
X320500Y-83475D02*
D03*
X284988Y-76914D02*
D03*
X226245Y-20849D02*
D03*
X-212852Y152400D02*
D03*
X237490Y-113284D02*
D03*
X342138Y-27940D02*
D03*
X157988Y-136144D02*
D03*
X-253492Y120396D02*
D03*
X120650Y219710D02*
D03*
X165354Y112776D02*
D03*
X101854Y227076D02*
D03*
X-245364Y284226D02*
D03*
X266954Y-208534D02*
D03*
X-307800Y76962D02*
D03*
X244300Y27940D02*
D03*
X-333200Y67310D02*
D03*
X170180Y-178054D02*
D03*
X231600Y24384D02*
D03*
X-68580Y-249380D02*
D03*
X-202184Y89662D02*
D03*
X-72898Y218948D02*
D03*
X-320500Y-69596D02*
D03*
X-257000Y80010D02*
D03*
X-212598Y104140D02*
D03*
X-333200Y2286D02*
D03*
X-317246Y-116332D02*
D03*
X148336Y292608D02*
D03*
X135890Y310134D02*
D03*
X-296672Y-197642D02*
D03*
X136906Y251714D02*
D03*
X-71374Y292100D02*
D03*
X-231600Y80518D02*
D03*
X320500Y14176D02*
D03*
X-1270Y-358600D02*
D03*
X-218900Y16510D02*
D03*
X269700Y-73406D02*
D03*
M02*
