M48
;Layer_Color=9474304
;FILE_FORMAT=2:5
INCH,TZ
;TYPE=PLATED
T1F00S00C0.01575
T2F00S00C0.03000
T3F00S00C0.04094
%
T01
X-32800Y-148100
X51600Y-74000
X59300Y-65900
X55826Y-52326
X70400Y-53300
X74700Y-56100
X78500Y-61000
X81300Y-77400
X84500Y-43500
X91000Y-41250
X96787Y-43971
X106249Y-37567
X116300Y-33575
X117500Y-26500
X111181Y-27019
X100100Y-25800
X79502Y-21489
X77000Y-10000
X89500Y-11000
X104300Y5500
X119000Y11500
X126181Y4700
X124000Y-7425
X129000Y-10500
X132000Y-26500
X124000Y-27000
X113500Y-58000
X67522Y-41021
X53000Y-8500
X140500Y7500
X33500Y-59500
X33900Y-84500
Y-90300
X32000Y-99000
X26000
X37086Y-102611
X27000Y-119500
X30500Y-124500
X26000Y-130000
X25500Y-141000
X7181Y-136181
X-500Y-141181
X-8000Y-135000
X-11500Y-129500
X-11000Y-119000
X-11500Y-101000
X-12000Y-88300
X-2000Y-86500
X-4000Y-81075
X3600Y-81300
X5300Y-88287
X4050Y-97650
X9900Y-116181
X-26000Y-113500
Y-126700
X-27000Y-135500
X-26500Y-99500
X-30900Y-79600
X-28075Y-73500
X-40800Y-69871
X-52100Y-67400
X-60800Y-69500
X-65375Y-72600
X-75800Y-75700
X-86600Y-84400
X-99700Y-89800
X-97136Y-97052
X-97900Y-103000
X-96100Y-62800
X-93700Y-56900
X-101400Y-42100
X-97600Y-37175
X-106100Y-33400
X-112000Y-35500
X-93700Y-27500
X-88000Y-31500
X-78425Y-30726
X-74826Y-34326
X-70500Y-38500
X-80300Y-43600
X-77200Y-24350
X-90000Y-10500
X-99000Y-9000
X-106500Y2500
X-96000Y11575
X-89000Y10500
X-84575Y7000
X-38000Y-16500
X-39600Y-50700
X-22000Y-54100
X-16400Y-61800
X-5000Y-62500
X3800Y-64000
X16500Y-79800
X24300Y-77900
X-43600Y-91000
X-48900Y-101600
X-49972Y-121400
X-62300Y-58800
X-119500Y-2500
X-125472Y-1200
X-132693Y-75
X-136181Y10500
X-128000
X-118193Y10535
X-141693Y-6965
X-133000Y25500
X-126193Y26035
X-121000Y29000
X-120800Y34000
X-142256Y34700
X-131299Y66675
X-120500Y82500
X-115600Y86100
X-121200Y96400
X-102317Y92200
X-94075Y90200
X-85300Y74700
X-89636Y63000
X-74500Y64000
X-70500Y59500
X-65000Y62000
X-61893Y52248
X-56111Y54979
X-58425Y69575
X-68075Y72500
X-69100Y94575
X-64000Y98300
X-59300Y89000
X-36100Y81500
X-28300Y80300
X-20800Y79600
X-26000Y90000
X-26200Y100000
X-27000Y111000
X-26500Y120500
X-12000Y115000
X-5000Y105000
X-300Y95500
X-12000
X-7700Y85000
X26300Y95000
X31100Y100000
X26000Y107000
X26500Y115000
X26000Y123500
Y137000
X5500Y130000
X-8835
X1165Y140000
X-23500Y149000
X-23000Y154000
X-50000Y124300
X-56500Y123000
X-42100Y108400
X-44700Y72575
X-37999Y69417
X-74848Y55152
X-69000Y41925
X-73300Y35300
X-71800Y30200
X-84575Y35868
X-92000Y37000
X-90900Y43200
X-91000Y27500
X-96000Y32500
X-103000Y29500
X-107000Y33000
X-107181Y38000
X-108181Y45100
X-104075Y53600
X-106333Y12633
X-101000Y114000
X-88800Y126800
X42500Y94600
X36600Y84300
X39675Y78100
Y71512
X27200Y74600
X26500Y39000
X32500Y37500
X49500Y37000
X68674Y24326
X76000Y22500
X91181Y26500
X101300Y30300
X106200Y28300
X116000Y26500
X85300Y39400
X81600Y69800
X83500Y84300
X99000Y94400
X107500Y76000
X70500Y64000
X60600Y68200
X51000Y120000
X58623Y137000
T02
X-10500Y-149500
X9000Y-149000
X149500Y-6000
Y6500
X-150000Y6000
X-152000Y-3500
X-74000Y133500
X-57000Y140000
X-32000Y136500
X-30500Y146000
X-4000Y149000
X4500
X32000Y139500
X30000Y130000
T03
X48340Y-139000
X57000Y-134000
X76500Y-123000
X85160Y-118000
X49271Y-52707
X59000Y-42000
X64299Y-33520
X50500Y-29000
X46500Y-16500
Y-6500
Y6500
X61500Y5500
X71500
Y-5500
X61500
X59500Y-16500
X69500
X139920Y-46603
X136500Y-56000
X41500Y-59000
X28897Y-66080
X19500Y-69500
X5000Y-72000
X-5000
X-19500Y-69500
X-28897Y-66080
X-29340Y-47500
X-38000Y-42500
X-40500Y-29000
X-50500
X-46500Y-16500
Y-6500
Y7000
X-34000Y5000
Y-5000
X-22000Y-6000
X-12000
Y6000
X-22000
X0Y5000
Y-5000
X12000Y-6000
X22000
Y6000
X12000
X34000Y5000
Y-5000
X28000Y-18500
Y-28500
X17000Y-29000
Y-19000
X5000Y-18500
X-5000
Y-31000
X5000
X0Y-47000
Y-57000
X-14500Y-53500
Y-43500
X-17000Y-29000
Y-19000
X-28000Y-18500
Y-28500
X-64299Y-33520
X-59000Y-42000
X-49271Y-52707
X-41500Y-59000
X-59500Y-16500
X-69500
X-71500Y-5500
X-61500
Y5500
X-71500
X14500Y-43000
Y-53000
X29339Y-47500
X37999Y-42500
X40500Y-29000
X-133603Y38580
X-143000Y42000
X-139897Y54420
X-130500Y51000
X-59201Y41480
X-64500Y33000
X-50500Y29500
X-40500
X-28000Y28500
Y18500
X-17000Y19000
Y29000
X-5000Y31000
X5000
Y18500
X-5000
X17000Y19000
Y29000
X28000Y28500
Y18500
X40500Y29500
X38000Y43000
X29340Y48000
X28897Y66080
X19500Y69500
X5000Y72000
X-5000
X-19500Y69500
X-28897Y66080
X-29339Y48000
X-37999Y43000
X-41500Y59000
X-49271Y52707
X-14500Y53500
Y43500
X-1000Y47000
Y57000
X14500Y53500
Y43500
X41500Y58646
X-46500Y17000
X-59500Y16500
X-69500
X46500
X59500
X69500
X64500Y33000
X59201Y41480
X50500Y29500
X49271Y52352
M30
