G04*
G04 #@! TF.GenerationSoftware,Altium Limited,Altium Designer,23.1.1 (15)*
G04*
G04 Layer_Physical_Order=1*
G04 Layer_Color=255*
%FSLAX25Y25*%
%MOIN*%
G70*
G04*
G04 #@! TF.SameCoordinates,7BBB67DB-ABBC-4A8F-A206-69BFBB4F4367*
G04*
G04*
G04 #@! TF.FilePolarity,Positive*
G04*
G01*
G75*
%ADD29R,0.04156X0.06528*%
%ADD30R,0.03268X0.02480*%
%ADD31R,0.02362X0.07874*%
G04:AMPARAMS|DCode=32|XSize=78.74mil|YSize=23.62mil|CornerRadius=0mil|HoleSize=0mil|Usage=FLASHONLY|Rotation=60.000|XOffset=0mil|YOffset=0mil|HoleType=Round|Shape=Rectangle|*
%AMROTATEDRECTD32*
4,1,4,-0.00946,-0.04000,-0.02991,-0.02819,0.00946,0.04000,0.02991,0.02819,-0.00946,-0.04000,0.0*
%
%ADD32ROTATEDRECTD32*%

%ADD33R,0.07874X0.02362*%
G04:AMPARAMS|DCode=34|XSize=78.74mil|YSize=23.62mil|CornerRadius=0mil|HoleSize=0mil|Usage=FLASHONLY|Rotation=320.000|XOffset=0mil|YOffset=0mil|HoleType=Round|Shape=Rectangle|*
%AMROTATEDRECTD34*
4,1,4,-0.03775,0.01626,-0.02257,0.03435,0.03775,-0.01626,0.02257,-0.03435,-0.03775,0.01626,0.0*
%
%ADD34ROTATEDRECTD34*%

%ADD50C,0.01228*%
%ADD51C,0.01181*%
%ADD52C,0.01228*%
%ADD53C,0.06102*%
%ADD54P,0.08630X4X245.0*%
%ADD55C,0.06000*%
%ADD56R,0.06102X0.06102*%
%ADD57P,0.08630X4X115.0*%
%ADD58P,0.08630X4X255.0*%
%ADD59R,0.06102X0.06102*%
%ADD60P,0.08630X4X103.0*%
%ADD61P,0.08630X4X84.0*%
%ADD62P,0.08630X4X195.0*%
%ADD63P,0.08630X4X205.0*%
%ADD64P,0.08630X4X186.0*%
%ADD65P,0.08630X4X167.0*%
%ADD66C,0.03150*%
%ADD67C,0.05000*%
D29*
X-50000Y129500D02*
D03*
X-60049D02*
D03*
X-60500Y116500D02*
D03*
X-70549D02*
D03*
D30*
X-50500Y120000D02*
D03*
Y111220D02*
D03*
D31*
X-86181Y18504D02*
D03*
X-91181D02*
D03*
X-96181D02*
D03*
X-101181D02*
D03*
X-106181D02*
D03*
X-111181D02*
D03*
X-116181D02*
D03*
X-126181D02*
D03*
X-131181D02*
D03*
X-136181D02*
D03*
X-141181D02*
D03*
Y-18504D02*
D03*
X-136181D02*
D03*
X-131181D02*
D03*
X-126181D02*
D03*
X-116181D02*
D03*
X-111181D02*
D03*
X-106181D02*
D03*
X-101181D02*
D03*
X-96181D02*
D03*
X-91181D02*
D03*
X-121181D02*
D03*
Y18504D02*
D03*
X-86181Y-18504D02*
D03*
X141181D02*
D03*
X131181Y18504D02*
D03*
X86181D02*
D03*
X126181D02*
D03*
X106181D02*
D03*
X101181D02*
D03*
X121181D02*
D03*
X111181Y-18504D02*
D03*
X101181D02*
D03*
X96181Y18504D02*
D03*
X116181D02*
D03*
X106181Y-18504D02*
D03*
X96181D02*
D03*
X91181D02*
D03*
Y18504D02*
D03*
X111181D02*
D03*
X126181Y-18504D02*
D03*
X121181D02*
D03*
X116181D02*
D03*
X86181D02*
D03*
X131181D02*
D03*
X136181D02*
D03*
X141181Y18504D02*
D03*
X136181D02*
D03*
D32*
X102627Y-105550D02*
D03*
X112470Y-68501D02*
D03*
X73499Y-46001D02*
D03*
X-73499Y46001D02*
D03*
X108140Y-66001D02*
D03*
X90820Y-56001D02*
D03*
X86490Y-53501D02*
D03*
X103810Y-63501D02*
D03*
X76646Y-90550D02*
D03*
X67986Y-85550D02*
D03*
X82159Y-51001D02*
D03*
X99480Y-61001D02*
D03*
X72316Y-88051D02*
D03*
X63656Y-83050D02*
D03*
X59325Y-80551D02*
D03*
X77829Y-48501D02*
D03*
X95150Y-58501D02*
D03*
X89636Y-98050D02*
D03*
X85306Y-95551D02*
D03*
X80976Y-93050D02*
D03*
X54995Y-78050D02*
D03*
X93967Y-100550D02*
D03*
X98297Y-103051D02*
D03*
X121131Y-73501D02*
D03*
X116801Y-71001D02*
D03*
X-85306Y95551D02*
D03*
X-77829Y48501D02*
D03*
X-103810Y63501D02*
D03*
X-54995Y78050D02*
D03*
X-59325Y80551D02*
D03*
X-63656Y83050D02*
D03*
X-67986Y85550D02*
D03*
X-72316Y88051D02*
D03*
X-76646Y90550D02*
D03*
X-80976Y93050D02*
D03*
X-89636Y98051D02*
D03*
X-93967Y100550D02*
D03*
X-98297Y103051D02*
D03*
X-102627Y105551D02*
D03*
X-121131Y73501D02*
D03*
X-116801Y71001D02*
D03*
X-112470Y68501D02*
D03*
X-108140Y66001D02*
D03*
X-99480Y61001D02*
D03*
X-95150Y58501D02*
D03*
X-90820Y56001D02*
D03*
X-86490Y53501D02*
D03*
X-82159Y51001D02*
D03*
D33*
X18004Y-86181D02*
D03*
X-19004D02*
D03*
Y-91181D02*
D03*
Y-96181D02*
D03*
Y-101181D02*
D03*
Y-106181D02*
D03*
Y-111181D02*
D03*
Y-116181D02*
D03*
Y-121181D02*
D03*
Y-126181D02*
D03*
Y-131181D02*
D03*
Y-136181D02*
D03*
Y-141181D02*
D03*
X18004D02*
D03*
Y-136181D02*
D03*
Y-131181D02*
D03*
Y-126181D02*
D03*
Y-121181D02*
D03*
Y-116181D02*
D03*
Y-111181D02*
D03*
Y-106181D02*
D03*
Y-101181D02*
D03*
Y-96181D02*
D03*
Y-91181D02*
D03*
X-19004Y100000D02*
D03*
Y120000D02*
D03*
X18004Y105000D02*
D03*
Y115000D02*
D03*
Y90000D02*
D03*
Y95000D02*
D03*
Y100000D02*
D03*
Y120000D02*
D03*
Y125000D02*
D03*
X-19004D02*
D03*
Y115000D02*
D03*
Y110000D02*
D03*
Y105000D02*
D03*
Y95000D02*
D03*
Y90000D02*
D03*
X18004Y110000D02*
D03*
Y85000D02*
D03*
Y130000D02*
D03*
Y135000D02*
D03*
Y140000D02*
D03*
X-19004D02*
D03*
Y135000D02*
D03*
Y130000D02*
D03*
Y85000D02*
D03*
D34*
X-46357Y-72828D02*
D03*
X-74707Y-49040D02*
D03*
X-77921Y-52870D02*
D03*
X-81135Y-56700D02*
D03*
X-84349Y-60530D02*
D03*
X-87563Y-64361D02*
D03*
X-90776Y-68191D02*
D03*
X-93990Y-72021D02*
D03*
X-97204Y-75851D02*
D03*
X-100418Y-79681D02*
D03*
X-103632Y-83512D02*
D03*
X-106846Y-87342D02*
D03*
X-110060Y-91172D02*
D03*
X-81710Y-114960D02*
D03*
X-78496Y-111130D02*
D03*
X-75283Y-107300D02*
D03*
X-72069Y-103470D02*
D03*
X-68855Y-99639D02*
D03*
X-65641Y-95809D02*
D03*
X-62427Y-91979D02*
D03*
X-59213Y-88149D02*
D03*
X-55999Y-84319D02*
D03*
X-52785Y-80488D02*
D03*
X-49571Y-76658D02*
D03*
X45649Y72828D02*
D03*
X74574Y107300D02*
D03*
X77788Y111130D02*
D03*
X81002Y114960D02*
D03*
X109352Y91172D02*
D03*
X106138Y87342D02*
D03*
X102924Y83512D02*
D03*
X73998Y49040D02*
D03*
X90068Y68191D02*
D03*
X86854Y64361D02*
D03*
X55290Y84319D02*
D03*
X48862Y76658D02*
D03*
X52076Y80488D02*
D03*
X58504Y88149D02*
D03*
X61718Y91979D02*
D03*
X64932Y95809D02*
D03*
X99710Y79681D02*
D03*
X96496Y75851D02*
D03*
X83640Y60530D02*
D03*
X80426Y56700D02*
D03*
X77212Y52870D02*
D03*
X93282Y72021D02*
D03*
X68146Y99639D02*
D03*
X71360Y103470D02*
D03*
D50*
X-155500Y9925D02*
X-155500Y10426D01*
X-155058Y10868D01*
X-153100Y12500D01*
X-155500Y-475D02*
Y9925D01*
Y-7400D02*
X-151800Y-11100D01*
X-155500Y-7400D02*
Y-6525D01*
X-156614Y-1589D02*
X-155500Y-475D01*
X-156614Y-5411D02*
Y-1589D01*
Y-5411D02*
X-155500Y-6525D01*
X-143976Y10511D02*
X-141181Y7716D01*
X-143976Y28194D02*
X-142772Y29398D01*
X-146350Y-17200D02*
Y-16870D01*
X-146204Y9588D02*
Y29117D01*
X-145000Y30321D01*
X-142772Y32459D02*
X-142052Y33179D01*
X-146204Y9588D02*
X-145000Y8383D01*
Y35800D02*
X-143500Y37300D01*
X-146350Y-16870D02*
X-145000Y-15520D01*
Y30321D02*
Y35800D01*
X-142772Y29398D02*
Y32459D01*
X-142052Y33179D02*
X-123957D01*
X-145000Y-15520D02*
Y8383D01*
X-141181Y4981D02*
Y7716D01*
X-143976Y10511D02*
Y28194D01*
X8100Y156500D02*
X11500Y153100D01*
X-13400Y151500D02*
X-8400Y156500D01*
X8100D01*
X5011Y80211D02*
Y133812D01*
X6378Y135179D02*
Y141438D01*
X5011Y133812D02*
X6378Y135179D01*
Y141438D02*
X7097Y142158D01*
X9648D01*
X10681Y146342D02*
X38992D01*
X8725Y144386D02*
X10681Y146342D01*
X38992D02*
X39802Y145533D01*
X11604Y144114D02*
X32786D01*
X9648Y142158D02*
X11604Y144114D01*
X4370Y144386D02*
X8725D01*
X39802Y140645D02*
Y145533D01*
X32786Y144114D02*
X62891Y114009D01*
X-7300Y123646D02*
X-5946D01*
X-4367Y126467D02*
X2000Y120100D01*
X-6832Y126467D02*
X-4367D01*
X-5946Y123646D02*
X-1200Y118900D01*
X-7200Y126835D02*
X-6832Y126467D01*
X300Y75500D02*
X5011Y80211D01*
X-1200Y90800D02*
Y118900D01*
X2000Y82749D02*
Y120100D01*
X-34800Y129500D02*
X-34300Y130000D01*
X-19004D01*
X-50000Y129500D02*
X-34800D01*
X-70500Y-128990D02*
X-70295Y-129195D01*
X-70500Y-128990D02*
Y-117321D01*
X-151800Y-27500D02*
X-123100Y-56200D01*
X-1500Y-150521D02*
X1000Y-153021D01*
X-1500Y-150521D02*
Y-150500D01*
X1000Y-154000D02*
Y-153021D01*
Y-154000D02*
X2114Y-155114D01*
X13386D01*
X14500Y-154000D02*
X21000D01*
X13386Y-155114D02*
X14500Y-154000D01*
X21000D02*
X27000Y-148000D01*
X33000D01*
X-106900Y110400D02*
Y112500D01*
Y82278D02*
Y110400D01*
X-29300Y300D02*
Y18500D01*
X-123100Y-56200D02*
Y-56181D01*
Y-91700D02*
Y-56200D01*
X57485Y-18900D02*
X59500D01*
X131181Y31500D02*
X137881Y38200D01*
X145500D01*
X147200Y36500D01*
Y18200D02*
Y36500D01*
X146300Y17300D02*
X147200Y18200D01*
X146300Y-31700D02*
Y17300D01*
X129900Y-48100D02*
X146300Y-31700D01*
X-114700Y92000D02*
X-112470Y89770D01*
X-4700Y-300D02*
X0Y-5000D01*
X-4700Y-300D02*
Y8300D01*
X-300Y12700D01*
Y20400D01*
X5600Y26300D01*
X8500D01*
X9700Y27500D01*
Y56600D01*
X11300Y58200D01*
X76000Y26500D02*
X94000Y44500D01*
X72300Y26500D02*
X76000D01*
X64200Y18400D02*
X72300Y26500D01*
X64200Y11500D02*
Y18400D01*
X61500Y8800D02*
X64200Y11500D01*
X61500Y5500D02*
Y8800D01*
X-143500Y37300D02*
X-140500D01*
X-138300Y39500D01*
Y42000D01*
X-135500Y44800D01*
X-128500D01*
X-125800Y47500D01*
Y91500D01*
X-106900Y110400D01*
X-104500Y114900D01*
X-85600D01*
X-61500Y111600D02*
X-60500Y116500D01*
X24600Y104300D02*
X47200D01*
X-26900Y41100D02*
X-24673Y43327D01*
Y52373D01*
X-33600Y61300D02*
X-24673Y52373D01*
X-33600Y61300D02*
Y113500D01*
X-27100Y120000D01*
X-28189Y84889D02*
Y95500D01*
Y84889D02*
X-21700Y78400D01*
X-18900D01*
X19300Y42500D02*
X20200Y43400D01*
X19300Y38500D02*
Y42500D01*
X12300Y31500D02*
X19300Y38500D01*
X12300Y23700D02*
Y31500D01*
Y23700D02*
X17000Y19000D01*
X-39200Y83200D02*
Y91700D01*
X-47300Y99800D02*
X-39200Y91700D01*
X-47300Y99800D02*
Y106600D01*
X8200Y101100D02*
Y115000D01*
X11000Y117800D01*
X47900Y119900D02*
X56700Y111100D01*
X300Y67300D02*
Y75500D01*
Y67300D02*
X6000Y61600D01*
Y32000D02*
Y61600D01*
X5000Y31000D02*
X6000Y32000D01*
X50500Y29500D02*
X54700D01*
X57358Y26842D01*
X65482D01*
X86400Y47760D01*
X10000Y94200D02*
X11400Y95600D01*
X10000Y64200D02*
Y94200D01*
Y64200D02*
X12857Y61343D01*
X15857D01*
X23400Y53800D01*
Y40300D02*
Y53800D01*
X23300Y40200D02*
X23400Y40300D01*
X23300Y13500D02*
Y40200D01*
Y13500D02*
X26100Y10700D01*
X42300D01*
X46500Y6500D01*
X69000Y80500D02*
X82721D01*
X-110168Y38428D02*
X-108140Y36400D01*
X-34000Y5000D02*
Y18467D01*
X-39427Y23894D02*
X-34000Y18467D01*
X-69594Y23894D02*
X-39427D01*
X-72900Y27200D02*
X-69594Y23894D01*
X-72900Y27200D02*
Y37200D01*
X-69300Y40800D01*
Y59400D01*
X-70300Y60400D02*
X-69300Y59400D01*
X-89400Y61600D02*
X-77400D01*
X-94000Y66200D02*
X-89400Y61600D01*
X-29300Y18500D02*
X-28000D01*
X-37722Y300D02*
X-29300D01*
X-38922Y1500D02*
X-37722Y300D01*
X-38922Y1500D02*
Y9500D01*
X-41122Y11700D02*
X-38922Y9500D01*
X-74465Y11700D02*
X-41122D01*
X-77565Y14800D02*
X-74465Y11700D01*
X-77565Y14800D02*
Y21829D01*
X-90820Y35083D02*
X-77565Y21829D01*
X-46500Y3500D02*
Y7000D01*
Y3500D02*
X-40200Y-2800D01*
Y-5700D02*
Y-2800D01*
X-44300Y48000D02*
X-29339D01*
X-55500Y36800D02*
X-44300Y48000D01*
X-61702Y36800D02*
X-55500D01*
X-62567Y37665D02*
X-61702Y36800D01*
X-63500Y37665D02*
X-62567D01*
X-67072Y41237D02*
X-63500Y37665D01*
X-67072Y41237D02*
Y63515D01*
X-67986Y64429D02*
X-67072Y63515D01*
X-62165Y44445D02*
X-59201Y41480D01*
X-53500Y86872D02*
X-49253Y82625D01*
Y61500D02*
Y82625D01*
Y61500D02*
X-46753Y59000D01*
X-41500D01*
X-97500Y79400D02*
X-89600Y71500D01*
X-136181Y1765D02*
X-132700Y-1716D01*
X-94174Y-34874D02*
Y-27700D01*
X-108700Y-49400D02*
X-94174Y-34874D01*
X-122065Y92012D02*
X-114104Y99974D01*
X-111026D01*
X-123957Y33179D02*
X-121131Y36005D01*
X-126181Y-5019D02*
X-119062Y2100D01*
X-94600D01*
X-90100Y-2400D01*
X-23300Y22700D02*
X-17000Y29000D01*
X-23300Y14400D02*
Y22700D01*
X-27000Y10700D02*
X-23300Y14400D01*
X-27000Y2800D02*
Y10700D01*
Y2800D02*
X-26100Y1900D01*
X-102600Y32081D02*
Y46775D01*
X-137117Y57200D02*
X-129700D01*
X-139897Y54420D02*
X-137117Y57200D01*
X-16700Y-10100D02*
X-10700Y-16100D01*
X-16700Y-10100D02*
Y-4100D01*
X-19500Y-1300D02*
X-16700Y-4100D01*
X-24900Y-1300D02*
X-19500D01*
X-26700Y-3100D02*
X-24900Y-1300D01*
X-26700Y-9200D02*
Y-3100D01*
X-28700Y-11200D02*
X-26700Y-9200D01*
X-47900Y-11200D02*
X-28700D01*
X-51200Y-14500D02*
X-47900Y-11200D01*
X-51200Y-22500D02*
Y-14500D01*
X-55200Y-26500D02*
X-51200Y-22500D01*
X-55200Y-31400D02*
Y-26500D01*
Y-31400D02*
X-54300Y-32300D01*
Y-44900D02*
Y-32300D01*
X-57500Y-48100D02*
X-54300Y-44900D01*
X-66600Y-48100D02*
X-57500D01*
X-74600Y-79800D02*
X-67600D01*
X-79300Y-84500D02*
X-74600Y-79800D01*
X-79300Y-95469D02*
Y-84500D01*
X-28300Y-123381D02*
Y-83900D01*
X-20900Y-76500D01*
X-13800D01*
X-9800Y-72500D01*
Y-27500D01*
X-13500Y-23800D02*
X-9800Y-27500D01*
X-22700Y-23800D02*
X-13500D01*
X-28000Y-18500D02*
X-22700Y-23800D01*
X-102600Y-70200D02*
X-102500Y-70100D01*
X-65800Y-41700D02*
Y-40485D01*
X-63500Y-38185D01*
X-62367D01*
X-59600Y-35418D01*
Y-25931D01*
X-54835Y-21165D01*
Y-14835D01*
X-46500Y-6500D01*
X-84300Y-42900D02*
X-82817Y-41417D01*
X-71500D01*
X-70383Y-40300D01*
Y-27383D01*
X-59500Y-16500D01*
X-78929Y-12929D02*
X-71500Y-5500D01*
X-78929Y-25583D02*
Y-12929D01*
X-89717Y-36372D02*
X-78929Y-25583D01*
X-89717Y-41540D02*
Y-36372D01*
X-96100Y-47923D02*
X-89717Y-41540D01*
X-85900Y-49600D02*
X-84365Y-48065D01*
X118370Y-31689D02*
X138500D01*
X144000Y-26189D01*
Y34900D01*
X93800Y-4100D02*
X101400Y3500D01*
X86900Y-6500D02*
X91181Y-2219D01*
X28000Y-34100D02*
Y-28500D01*
X116181Y5119D02*
X122200Y-900D01*
Y-11500D02*
Y-900D01*
X89549Y-31300D02*
X94800Y-26049D01*
X84400Y-31300D02*
X89549D01*
X121181Y-28481D02*
X121200Y-28500D01*
X-75800Y-36000D02*
Y-16100D01*
X-71600Y-11900D01*
X-71300D01*
X-64900Y-5500D01*
X-61500D01*
X-39800Y-93000D02*
X-37700Y-95100D01*
X-5000Y-99000D02*
Y-72000D01*
X-64100Y-61300D02*
X-59900Y-57100D01*
X-103830Y27700D02*
X-97400D01*
X-69700Y30500D02*
Y35700D01*
Y30500D02*
X-67500Y28300D01*
X-61100D01*
X-55200Y34200D01*
X-29200D01*
X-22400Y41000D01*
Y59583D01*
X-28897Y66080D02*
X-22400Y59583D01*
X-131181Y10300D02*
X-129475Y8594D01*
X-92814D01*
X-81614Y-2607D01*
Y-24975D02*
Y-2607D01*
X-91946Y-35308D02*
X-81614Y-24975D01*
X-91946Y-38840D02*
Y-35308D01*
X-105700Y-52594D02*
X-91946Y-38840D01*
X24200Y74200D02*
X32500Y82500D01*
X-55220Y111220D02*
X-50500D01*
X-60500Y116500D02*
X-55220Y111220D01*
X42300Y120000D02*
X53500Y108800D01*
X49271Y52352D02*
X57752D01*
X75400Y70000D01*
X67400Y44400D02*
X77800D01*
X65600Y46200D02*
X67400Y44400D01*
X56200Y46200D02*
X65600D01*
X45500Y35500D02*
X56200Y46200D01*
X45500Y24700D02*
Y35500D01*
X44500Y23700D02*
X45500Y24700D01*
X36800Y23700D02*
X44500D01*
X38000Y43000D02*
X47700D01*
X54000Y49300D01*
X58400D01*
X66600Y57500D01*
X54100Y70900D02*
X57000Y73800D01*
X59300Y60006D02*
X60900Y61606D01*
Y81000D01*
X71485Y91585D01*
X12300Y67900D02*
X16500Y63700D01*
X24200D01*
X34645Y53255D01*
Y46243D02*
Y53255D01*
X33335Y44933D02*
X34645Y46243D01*
X33335Y23835D02*
Y44933D01*
X28000Y18500D02*
X33335Y23835D01*
X59500Y-18900D02*
Y-16500D01*
X57485Y-29947D02*
Y-18900D01*
X57400Y-30032D02*
X57485Y-29947D01*
X57400Y-34200D02*
Y-30032D01*
X54300Y-37300D02*
X57400Y-34200D01*
X54300Y-40500D02*
Y-37300D01*
X44606Y-50194D02*
X54300Y-40500D01*
X44606Y-54639D02*
Y-50194D01*
Y-54639D02*
X58784Y-68817D01*
X84833D01*
X34000Y-12500D02*
Y-5000D01*
X33100Y-13400D02*
X34000Y-12500D01*
X33100Y-34100D02*
Y-13400D01*
X26000Y-41200D02*
X33100Y-34100D01*
X33586Y-76986D02*
X54729Y-98129D01*
X33586Y-76986D02*
Y-59686D01*
X22800Y-48900D02*
X33586Y-59686D01*
X22800Y-48900D02*
Y-13600D01*
X15200Y-6000D02*
X22800Y-13600D01*
X12000Y-6000D02*
X15200D01*
X33819Y-111181D02*
X43100Y-101900D01*
X-30600Y-78100D02*
X-28800Y-76300D01*
X-30600Y-133500D02*
Y-78100D01*
X-34600Y-137500D02*
X-30600Y-133500D01*
X111100Y-35200D02*
X134000D01*
X106181Y-30281D02*
X111100Y-35200D01*
X30900Y95000D02*
X33900Y92000D01*
X-135200Y65715D02*
Y67900D01*
X-144562Y56353D02*
X-135200Y65715D01*
X-144562Y47638D02*
Y56353D01*
X-148600Y43600D02*
X-144562Y47638D01*
X-148600Y31500D02*
Y43600D01*
X-150100Y15500D02*
X-148600Y31500D01*
X-153100Y12500D02*
X-150100Y15500D01*
X-151800Y-27500D02*
Y-11100D01*
X-123100Y-91700D02*
X-104600Y-110200D01*
X67700Y-43400D02*
X69700D01*
X66600Y-44500D02*
X67700Y-43400D01*
X66600Y-65500D02*
Y-44500D01*
Y-65500D02*
X67689Y-66589D01*
X80231D01*
X-12000Y-6000D02*
X-5100Y-12900D01*
X8700D01*
X12300Y-16500D01*
Y-31300D02*
Y-16500D01*
Y-31300D02*
X19200Y-38200D01*
Y-56800D02*
Y-38200D01*
Y-56800D02*
X24200Y-61800D01*
Y-75600D02*
Y-61800D01*
Y-75600D02*
X31500Y-82900D01*
Y-103281D02*
Y-82900D01*
X28600Y-106181D02*
X31500Y-103281D01*
X-99000Y36117D02*
Y50838D01*
X-99251Y51089D02*
X-99000Y50838D01*
X-104500Y51089D02*
X-99251D01*
X-105789Y49800D02*
X-104500Y51089D01*
X-105789Y43789D02*
Y49800D01*
Y43789D02*
X-104900Y42900D01*
Y35000D02*
Y42900D01*
X-114328Y25572D02*
X-104900Y35000D01*
X-45500Y111220D02*
X-41300Y107020D01*
X-50500Y111220D02*
X-45500D01*
X73499Y-23394D02*
X83133Y-13760D01*
Y-1421D01*
X86181Y1627D01*
X35800Y-40301D02*
X37999Y-42500D01*
X35800Y-40301D02*
Y-20500D01*
X39500Y-16800D01*
Y-2500D01*
X42800Y800D01*
X73500D01*
X76394Y3694D01*
Y12638D01*
X78200Y14445D01*
X-33000Y-99000D02*
Y-75600D01*
X-35200Y-101200D02*
X-33000Y-99000D01*
X-81710Y-126890D02*
X-73400Y-135200D01*
X-55908D01*
X-46427Y-144681D01*
X-3800D01*
X-300Y-141181D01*
X-108900Y-2800D02*
X-101181Y-10519D01*
X-86800Y75700D02*
X-84800Y73700D01*
X-77829Y28395D02*
X-71099Y21665D01*
X-43165D01*
X-41500Y20000D01*
X-82159Y41559D02*
X-81037Y40437D01*
Y28452D02*
Y40437D01*
Y28452D02*
X-74100Y21515D01*
Y20100D02*
Y21515D01*
X-95150Y35385D02*
X-81800Y22035D01*
Y3100D02*
Y22035D01*
Y3100D02*
X-79500Y800D01*
X-66200D01*
X-61500Y5500D01*
X-89700Y-46911D02*
X-87489Y-44700D01*
Y-39234D01*
X-87444Y-39189D01*
X-74300D01*
X-72611Y-37500D01*
Y-19611D01*
X-69500Y-16500D01*
X-41300Y98400D02*
Y107020D01*
X-9900Y115000D02*
X-3500Y108600D01*
Y94897D02*
Y108600D01*
X-4389Y94008D02*
X-3500Y94897D01*
X-4389Y81211D02*
Y94008D01*
X-9700Y75900D02*
X-4389Y81211D01*
X-9700Y62600D02*
Y75900D01*
Y62600D02*
X-5665Y58565D01*
Y52000D02*
Y58565D01*
Y52000D02*
X-5365Y51700D01*
X3700D01*
Y39700D02*
Y51700D01*
X-5000Y31000D02*
X3700Y39700D01*
X-5800Y97054D02*
Y103700D01*
X-6617Y96237D02*
X-5800Y97054D01*
X-6617Y85283D02*
Y96237D01*
X-12539Y79361D02*
X-6617Y85283D01*
X-12539Y58539D02*
Y79361D01*
Y58539D02*
X-7894Y53894D01*
Y50500D02*
Y53894D01*
Y50500D02*
X-4394Y47000D01*
X-1000D01*
X-76646Y105654D02*
X-74700Y107600D01*
X-5000Y75749D02*
X2000Y82749D01*
X-5000Y72000D02*
Y75749D01*
X-58200Y-72400D02*
X-49500Y-63700D01*
X-33600D01*
X-23389Y-53489D01*
Y-35389D01*
X-17000Y-29000D01*
X-40700Y-89000D02*
X-36200Y-84500D01*
Y-73500D01*
X-35000Y-72300D01*
X-27500D01*
X-24200Y-69000D01*
Y-66135D01*
X-20200Y-62135D01*
Y-40500D01*
X-32700D02*
Y-13800D01*
X-25300D01*
X-22000Y-10500D01*
Y-6000D01*
X-46800Y91500D02*
X-42400Y87100D01*
X85600Y99300D02*
X96700Y88200D01*
X-66567Y-76600D02*
X-44606Y-54639D01*
Y-50694D01*
X-45800Y-49500D02*
X-44606Y-50694D01*
X-45800Y-49500D02*
Y-20000D01*
X-46500Y-19300D02*
X-45800Y-20000D01*
X-46500Y-19300D02*
Y-16500D01*
X-39700Y-69328D02*
X-38728Y-70300D01*
Y-81095D02*
Y-70300D01*
X-41500Y-83867D02*
X-38728Y-81095D01*
X6800Y800D02*
X12000Y6000D01*
X6800Y-7400D02*
Y800D01*
X4500Y-9700D02*
X6800Y-7400D01*
X-4100Y-9700D02*
X4500D01*
X-7300Y-6500D02*
X-4100Y-9700D01*
X-7300Y-6500D02*
Y11400D01*
X-11894Y15994D02*
X-7300Y11400D01*
X-11894Y15994D02*
Y32194D01*
X-19200Y39500D02*
X-11894Y32194D01*
X-19200Y39500D02*
Y60400D01*
X-14800Y64800D01*
Y74200D01*
X-23808D02*
X-14800D01*
X-30417Y80810D02*
X-23808Y74200D01*
X-30417Y80810D02*
Y102913D01*
X-28331Y105000D01*
X105575Y-74775D02*
X116100Y-85300D01*
X84317Y-35517D02*
X99480Y-50680D01*
X-63265Y-53935D02*
X-62038Y-52707D01*
X-49271D01*
X36800Y-62500D02*
X45322Y-71022D01*
X36800Y-62500D02*
Y-53089D01*
X48389Y-41500D01*
Y-39374D01*
X55172Y-32592D01*
Y-21572D01*
X54800Y-21200D02*
X55172Y-21572D01*
X54800Y-21200D02*
Y-12200D01*
X61500Y-5500D01*
X41800Y-11200D02*
X46500Y-6500D01*
X41800Y-20700D02*
Y-11200D01*
Y-20700D02*
X45200Y-24100D01*
Y-39800D02*
Y-24100D01*
X71500Y5500D02*
Y9135D01*
X74165Y11800D01*
Y21514D01*
X90951Y38300D01*
X96700D01*
X101900Y43500D01*
X46500Y16500D02*
X54614Y24614D01*
X66739D01*
X72500Y30375D01*
X75892D01*
X89000Y43483D01*
X81900Y638D02*
Y5700D01*
X80851Y-411D02*
X81900Y638D01*
X80851Y-11949D02*
Y-411D01*
X64299Y-28501D02*
X80851Y-11949D01*
X64299Y-33520D02*
Y-28501D01*
X49271Y-52707D02*
X61493D01*
X63700Y-50500D01*
Y-39385D01*
X62500Y-38185D02*
X63700Y-39385D01*
X62367Y-38185D02*
X62500D01*
X59628Y-35447D02*
X62367Y-38185D01*
X59628Y-35447D02*
Y-32172D01*
X59800Y-32000D01*
Y-29500D01*
X64200Y-25100D01*
Y-13800D01*
X67500Y-10500D01*
X74400D01*
X76400Y-8500D01*
Y-600D01*
X78700Y1700D01*
Y7300D01*
X81400Y10000D01*
Y21500D01*
X84000Y24100D01*
X-110060Y-100801D02*
X-106462Y-104400D01*
X-141181Y27838D02*
X-138069Y30950D01*
X-121878D01*
X-112470Y40358D01*
X-94927Y-90085D02*
X-84488D01*
X-138409Y-4518D02*
Y8062D01*
X-48497Y-66080D02*
X-28897D01*
X3257Y-104925D02*
Y-86243D01*
X11894Y-77606D01*
Y-64564D01*
X7606Y-60276D02*
X11894Y-64564D01*
X7606Y-60276D02*
Y-50152D01*
X4454Y-47000D02*
X7606Y-50152D01*
X0Y-47000D02*
X4454D01*
X-60500Y112600D02*
Y116500D01*
X-61500Y111600D02*
X-60500Y112600D01*
X-82300Y111600D02*
X-61500D01*
X-85600Y114900D02*
X-82300Y111600D01*
X-106900Y112500D02*
X-104500Y114900D01*
X-106900Y82278D02*
X-91822Y67200D01*
X-73600D01*
X-73499Y67099D01*
X82000Y-25100D02*
X90100D01*
X111181Y-8781D02*
X114300Y-11900D01*
X-1200Y-122081D02*
X2900Y-126181D01*
X-1200Y-122081D02*
Y-76700D01*
X300Y-75200D01*
Y-64500D01*
X-6894Y-57306D02*
X300Y-64500D01*
X-6894Y-57306D02*
Y-40500D01*
X-3018Y-36625D01*
X-1425D01*
X-300Y-35500D01*
Y-27000D01*
X-5000Y-22300D02*
X-300Y-27000D01*
X-5000Y-22300D02*
Y-18500D01*
X98487Y-89200D02*
X113100D01*
X114800Y82600D02*
X117300Y85100D01*
X119700Y-88500D02*
Y-84000D01*
X112470Y-76770D02*
X119700Y-84000D01*
X128081Y-26700D02*
X137200D01*
X29189Y-94811D02*
Y-88889D01*
X14500Y-74200D02*
X29189Y-88889D01*
X14500Y-74200D02*
Y-59900D01*
X9835Y-55235D02*
X14500Y-59900D01*
X9835Y-55235D02*
Y-26335D01*
X6700Y-23200D02*
X9835Y-26335D01*
X1300Y-23200D02*
X6700D01*
X-135678Y28722D02*
X-124822D01*
X-138000Y26400D02*
X-135678Y28722D01*
X103352Y105500D02*
X109352Y99500D01*
X123880Y2917D02*
X126181Y5219D01*
X120540Y37760D02*
X131181Y27119D01*
X120540Y37760D02*
Y86714D01*
X118500Y88754D02*
X120540Y86714D01*
X11500Y153100D02*
X18400D01*
X21700Y149800D01*
X40229D01*
X48584Y141445D01*
X55255D01*
X74700Y122000D01*
X2900Y-37935D02*
Y-36600D01*
X-1500Y-42335D02*
X2900Y-37935D01*
X-4665Y-42335D02*
X-1500D01*
X-4665Y-50835D02*
Y-42335D01*
Y-50835D02*
X-3500Y-52000D01*
X2500D01*
X4700Y-54200D01*
Y-62369D02*
Y-54200D01*
Y-62369D02*
X9665Y-67335D01*
Y-76665D02*
Y-67335D01*
X4363Y-76665D02*
X9665D01*
X1028Y-80000D02*
X4363Y-76665D01*
X1028Y-111409D02*
Y-80000D01*
X-136181Y-43100D02*
X-123100Y-56181D01*
X-131181Y-33319D02*
X-115700Y-48800D01*
X48480Y66080D02*
X50600Y68200D01*
X28897Y66080D02*
X48480D01*
X-63500Y139500D02*
X-54000D01*
X-50000Y135500D01*
Y129500D02*
Y135500D01*
X57000Y-134000D02*
X79600Y-111400D01*
X131181Y9300D02*
X141181Y-700D01*
X-70549Y116500D02*
Y130049D01*
X-74000Y133500D02*
X-70549Y130049D01*
X-50000Y125000D02*
Y129500D01*
X-50500Y124500D02*
X-50000Y125000D01*
X-50500Y120000D02*
Y124500D01*
X-60049Y123151D02*
Y129500D01*
X-60500Y122700D02*
X-60049Y123151D01*
X-60500Y116500D02*
Y122700D01*
X85306Y-106754D02*
Y-95551D01*
X85160Y-106900D02*
X85306Y-106754D01*
X85160Y-118000D02*
Y-106900D01*
D51*
X2500Y136500D02*
X3189D01*
X-4000Y130000D02*
X2500Y136500D01*
Y143718D02*
X3192Y144409D01*
X4370D01*
X2500Y136500D02*
Y143718D01*
X12000Y140000D02*
X18004D01*
X-19004Y125000D02*
X-12156D01*
X62891Y95809D02*
Y97534D01*
X-10802Y123646D02*
X-7300D01*
X-19004Y130000D02*
X-4000D01*
X-12156Y125000D02*
X-10802Y123646D01*
X62891Y97534D02*
Y114009D01*
X-86181Y-23681D02*
Y-18504D01*
X-88000Y-25500D02*
X-86181Y-23681D01*
X-104700Y-88400D02*
X-94600Y-98500D01*
X-79600Y-110200D02*
X-78496D01*
X-96200Y-114960D02*
X-81710D01*
X-79600Y-111130D02*
X-78496D01*
Y-110200D01*
X-79600Y-111130D02*
Y-110200D01*
X-104600D02*
X-79600D01*
X12000Y-136200D02*
X12019Y-136181D01*
X18004D01*
X74574Y105500D02*
X103352D01*
X131181Y27119D02*
Y31500D01*
Y18504D02*
Y27119D01*
X68400Y49000D02*
X73998D01*
X50600Y74513D02*
X50974Y74887D01*
X78900Y45500D02*
Y52870D01*
X57000Y73800D02*
Y84319D01*
X89000Y43483D02*
Y64361D01*
X-106100Y58300D02*
X-99480D01*
X104000Y82600D02*
Y83512D01*
X-105700Y-83512D02*
Y-52594D01*
X105100Y87342D02*
Y88200D01*
X-136181Y1765D02*
Y14519D01*
X-108700Y-87342D02*
Y-49400D01*
X-141181Y-10500D02*
Y4981D01*
Y-18504D02*
Y-10500D01*
X-86800Y93200D02*
X-85306D01*
X-83900Y-61300D02*
Y-60530D01*
X-97100Y-76600D02*
Y-75851D01*
X-62427Y-93000D02*
X-39800D01*
X-51700Y-76658D02*
Y-69283D01*
X-81135Y-58500D02*
X-73500D01*
X-19004Y-107700D02*
X-12500D01*
X-89700Y-64361D02*
Y-46911D01*
X-96100Y-72021D02*
Y-47923D01*
X-84365Y-48065D02*
X-74707D01*
X45700Y-83500D02*
X59325D01*
X54995Y-74775D02*
X105575D01*
X112470Y-68501D02*
X129900Y-51071D01*
X-112470Y68501D02*
Y89770D01*
X74574Y107300D02*
Y107300D01*
X73146D02*
X74574D01*
X39802Y140645D02*
X73146Y107300D01*
X-39330Y-141181D02*
X-19004D01*
X-73211Y-107300D02*
X-39330Y-141181D01*
X-75283Y-107300D02*
X-73211D01*
X12900Y125000D02*
X18004D01*
X12100Y125800D02*
X12900Y125000D01*
X-42785Y-78400D02*
Y-74500D01*
X-44457Y-72828D02*
X-42785Y-74500D01*
X-46357Y-72828D02*
X-44457D01*
X12000Y-88200D02*
X14019Y-86181D01*
X69800Y-62029D02*
Y-48000D01*
X71800Y-46000D01*
X73499Y-46001D01*
X14019Y-86181D02*
X18004D01*
X23900Y86400D02*
Y87000D01*
X18004Y85000D02*
X23900Y86400D01*
X73998Y49000D02*
Y49040D01*
X66500Y50900D02*
X68400Y49000D01*
X-27100Y120000D02*
X-19004D01*
X-23689Y100000D02*
X-19004D01*
X-28189Y95500D02*
X-23689Y100000D01*
X48500Y87200D02*
X51100Y89800D01*
X56853D01*
X58504Y88149D01*
X56700Y98818D02*
Y111100D01*
Y98818D02*
X61718Y93800D01*
Y91979D02*
Y93800D01*
X62891Y95809D02*
X64932D01*
X86400Y47760D02*
Y56970D01*
X83640Y60530D02*
X86400Y56970D01*
X78400Y92300D02*
Y96430D01*
X71360Y103470D02*
X78400Y96430D01*
X12500Y105000D02*
X18004D01*
X11400Y103900D02*
X12500Y105000D01*
X11400Y95600D02*
Y103900D01*
X18004Y110000D02*
X38151D01*
X91200Y72021D02*
X93282D01*
X82721Y80500D02*
X91200Y72021D01*
X-108140Y62528D02*
Y66001D01*
X-110168Y60500D02*
X-108140Y62528D01*
X-110168Y38428D02*
Y60500D01*
X-101111Y66200D02*
X-94000D01*
X-103810Y63501D02*
X-101111Y66200D01*
X-90820Y35083D02*
Y56001D01*
X-107000Y57400D02*
X-106100Y58300D01*
X-99480D02*
Y61001D01*
X-67986Y64429D02*
Y85550D01*
X-59325Y78005D02*
Y80551D01*
X-62165Y75165D02*
X-59325Y78005D01*
X-62165Y44445D02*
Y75165D01*
X-63656Y83050D02*
Y85716D01*
X-62500Y86872D01*
X-53500D01*
X-86500Y106000D02*
X-84500Y104000D01*
X-93967Y100550D02*
X-86500Y106000D01*
X-93967Y99400D02*
Y100550D01*
X-97500Y97400D02*
X-93967Y99400D01*
X-97500Y79400D02*
Y97400D01*
X-131181Y23500D02*
X-129181Y25500D01*
X-131181Y18504D02*
Y23500D01*
X-25000Y-136181D02*
X-19004D01*
X-106846Y-87342D02*
X-104700Y-88400D01*
X-108700Y-87342D02*
X-106846D01*
X-136181Y14519D02*
Y18504D01*
X-138200Y12500D02*
X-136181Y14519D01*
X-80600Y101700D02*
Y105500D01*
X-83335Y108235D02*
X-80600Y105500D01*
X-95622Y108235D02*
X-83335D01*
X-121131Y73501D02*
Y80100D01*
X-122065Y81035D02*
X-121131Y80100D01*
X-122065Y81035D02*
Y92012D01*
X-121131Y36005D02*
Y73501D01*
X-76691Y-111130D02*
X-70500Y-117321D01*
X-78496Y-111130D02*
X-76691D01*
X-118900Y84200D02*
X-116801Y82101D01*
X-126181Y-18504D02*
Y-5019D01*
X-121181Y-28900D02*
Y-18504D01*
X-91181Y-13381D02*
X-88500Y-10700D01*
X-91181Y-18504D02*
Y-13381D01*
X-116181Y14519D02*
Y18504D01*
X-118200Y12500D02*
X-116181Y14519D01*
X-111181Y23500D02*
X-102600Y32081D01*
X-111181Y18504D02*
Y23500D01*
Y-18504D02*
Y-10400D01*
X-96181Y-18504D02*
Y-3281D01*
X-126181Y14481D02*
Y18504D01*
Y14481D02*
X-124300Y12600D01*
X-79300Y-95469D02*
X-72069Y-102700D01*
Y-103470D02*
Y-102700D01*
X-76100Y-92394D02*
Y-86100D01*
Y-92394D02*
X-68855Y-99639D01*
X-25500Y-126181D02*
X-19004D01*
X-28300Y-123381D02*
X-25500Y-126181D01*
X-102600Y-77500D02*
X-100418Y-79681D01*
X-102600Y-77500D02*
Y-70200D01*
X-19004Y-121181D02*
X-13019D01*
X-13000Y-121200D01*
X-81135Y-58500D02*
Y-56700D01*
X-73500Y-58500D02*
X-72100Y-57100D01*
X-19004Y-107700D02*
Y-106181D01*
X-96100Y-72021D02*
X-93990D01*
X-74707Y-49040D02*
Y-48065D01*
X111181Y-24500D02*
Y-18504D01*
Y-24500D02*
X118370Y-31689D01*
X91181Y-18504D02*
Y-14500D01*
X93800Y-11881D01*
Y-4100D01*
X91181Y-2219D02*
Y18504D01*
X116181Y5119D02*
Y18504D01*
X74572Y-54728D02*
X80831D01*
X82159Y-51001D01*
X61700Y-92900D02*
X67986Y-86614D01*
Y-85550D01*
X86490Y-53501D02*
Y-51610D01*
X89500Y-48600D01*
X90900D01*
X121181Y-28481D02*
Y-18504D01*
X96181D02*
Y-12519D01*
X97100Y-11600D01*
X101181Y-26600D02*
Y-18504D01*
X-24981Y-116181D02*
X-19004D01*
X-25000Y-116200D02*
X-24981Y-116181D01*
X-62427Y-93000D02*
Y-91979D01*
X-84349Y-60530D02*
X-83900D01*
Y-61300D02*
X-64100D01*
X-94300Y90236D02*
X-89636Y94900D01*
Y98051D01*
X-106181Y18504D02*
Y25349D01*
X-103830Y27700D01*
X-106181Y-29500D02*
Y-18504D01*
X-131181Y10300D02*
Y18504D01*
X-105700Y-83512D02*
X-103632D01*
X32500Y82500D02*
X47888D01*
X49900Y80488D01*
X52076D01*
X18004Y120000D02*
X42300D01*
X75400Y70000D02*
X87957D01*
X90068Y68191D01*
X77212Y52870D02*
X78900D01*
X77800Y44400D02*
X78900Y45500D01*
X66600Y57500D02*
X79473D01*
X80426Y56700D01*
X55290Y84319D02*
X57000D01*
X71485Y91585D02*
Y96300D01*
X68146Y99639D02*
X71485Y96300D01*
X18004Y115000D02*
X26000D01*
X13800Y90000D02*
X18004D01*
X12300Y88500D02*
X13800Y90000D01*
X12300Y67900D02*
Y88500D01*
X84833Y-68817D02*
X95150Y-58501D01*
X59325Y-83500D02*
Y-80551D01*
X76646Y-93554D02*
Y-90550D01*
X72071Y-98129D02*
X76646Y-93554D01*
X54729Y-98129D02*
X72071D01*
X-59000Y74046D02*
X-54995Y78050D01*
X-59000Y73500D02*
Y74046D01*
X18004Y-111181D02*
X33819D01*
X18004Y-91181D02*
X23992D01*
X106181Y-30281D02*
Y-18504D01*
X63656Y-85244D02*
Y-83050D01*
X60300Y-88600D02*
X63656Y-85244D01*
X-19004Y95000D02*
X-13000D01*
X-9000Y99000D01*
X18004Y95000D02*
X30900D01*
X18004Y100000D02*
X51100D01*
X-116801Y71001D02*
Y82101D01*
X80231Y-66589D02*
X90820Y-56001D01*
X-25000Y-88200D02*
X-22981Y-86181D01*
X-19004D01*
X18004Y-106181D02*
X28600D01*
X-86181Y18504D02*
Y23298D01*
X-99000Y36117D02*
X-86181Y23298D01*
X-19004Y85000D02*
X-14099D01*
Y86947D01*
X-10438Y90607D01*
X73499Y-46001D02*
Y-23394D01*
X86181Y1627D02*
Y18504D01*
X94900Y12600D02*
X96181Y13881D01*
Y18504D01*
X72316Y-88051D02*
Y-84984D01*
X74500Y-82800D01*
X80200D01*
X-60250Y-101200D02*
X-35200D01*
X-65641Y-95809D02*
X-60250Y-101200D01*
X-81710Y-126890D02*
Y-114960D01*
X-300Y-141181D02*
X18004D01*
X-98300Y12500D02*
X-97181D01*
X-96181Y13500D01*
Y18504D01*
X-101181Y-18504D02*
Y-10519D01*
X-116181Y-18504D02*
Y-5989D01*
X-85306Y93200D02*
Y95551D01*
X-86800Y75700D02*
Y93200D01*
X-77829Y28395D02*
Y48501D01*
X-82159Y41559D02*
Y51001D01*
X-95150Y35385D02*
Y58501D01*
X-89700Y-64361D02*
X-87563D01*
X38772Y72828D02*
X45649D01*
X33500Y78100D02*
X38772Y72828D01*
X-19004Y115000D02*
X-9900D01*
X-19004Y110000D02*
X-12100D01*
X-5800Y103700D01*
X-76646Y90550D02*
Y105654D01*
X-25000Y90000D02*
X-19004D01*
X-58200Y-82118D02*
X-55999Y-84319D01*
X-58200Y-82118D02*
Y-72400D01*
X-59213Y-88149D02*
X-57951D01*
X-57100Y-89000D01*
X-40700D01*
X-72316Y88051D02*
Y90500D01*
X-71316Y91500D01*
X-46800D01*
X-83600Y85600D02*
X-80976Y88224D01*
Y93050D01*
X105100Y87342D02*
X106138D01*
X96700Y88200D02*
X105100D01*
X-98297Y105560D02*
X-95622Y108235D01*
X-98297Y103051D02*
Y105560D01*
X-97204Y-75851D02*
X-97100D01*
Y-76600D02*
X-66567D01*
X-14919Y-101181D02*
X-13000Y-103100D01*
X-19004Y-101181D02*
X-14919D01*
X-25000Y-97500D02*
X-23681Y-96181D01*
X-19004D01*
Y-91181D02*
X-14981D01*
X-9000Y-85200D01*
X6881Y-96181D02*
X18004D01*
X-49406Y-83867D02*
X-41500D01*
X-52785Y-80488D02*
X-49406Y-83867D01*
X-28331Y105000D02*
X-19004D01*
X-101181Y18504D02*
Y24481D01*
X-101200Y24500D02*
X-101181Y24481D01*
X54995Y-78050D02*
Y-74775D01*
X99480Y-61001D02*
Y-50680D01*
X-77921Y-52870D02*
X-76856Y-53935D01*
X-63265D01*
X103810Y-64890D02*
Y-63501D01*
X97678Y-71022D02*
X103810Y-64890D01*
X45322Y-71022D02*
X97678D01*
X106600Y-57400D02*
X108140Y-58940D01*
Y-66001D02*
Y-58940D01*
X101900Y43500D02*
Y77491D01*
X99710Y79681D02*
X101900Y77491D01*
X86854Y64361D02*
X89000D01*
X106181Y13281D02*
Y18504D01*
X96600Y3700D02*
X106181Y13281D01*
X84000Y24100D02*
X99581D01*
X101181Y22500D01*
Y18504D02*
Y22500D01*
X-75283Y-107300D02*
Y-105500D01*
X-76383Y-104400D02*
X-75283Y-105500D01*
X-106462Y-104400D02*
X-76383D01*
X-110060Y-100801D02*
Y-91172D01*
X-141181Y18504D02*
Y27838D01*
X-112470Y40358D02*
Y68501D01*
X-92681Y25000D02*
X-91181Y23500D01*
Y18504D02*
Y23500D01*
X-19004Y-131181D02*
X-13000D01*
X-101500Y-83512D02*
X-94927Y-90085D01*
X-103632Y-83512D02*
X-101500D01*
X-131181Y-18504D02*
Y-11746D01*
X-138409Y-4518D02*
X-131181Y-11746D01*
X-141365Y11018D02*
X-138409Y8062D01*
X-141365Y11018D02*
Y15481D01*
X-141181Y15665D01*
Y18504D01*
X-51700Y-69283D02*
X-48497Y-66080D01*
X-51700Y-76658D02*
X-49571D01*
X14513Y-116181D02*
X18004D01*
X3257Y-104925D02*
X14513Y-116181D01*
X-73499Y46001D02*
Y67099D01*
X-86800Y46000D02*
X-86490Y46310D01*
Y53501D01*
X-102627Y105551D02*
Y108400D01*
X-99627Y111400D01*
X-96000D01*
X111181Y-8781D02*
Y18504D01*
X2900Y-126181D02*
X18004D01*
X89636Y-98050D02*
X98487Y-89200D01*
X98700Y45423D02*
Y73647D01*
X96496Y75851D02*
X98700Y73647D01*
X102924Y83512D02*
X104000D01*
Y82600D02*
X114800D01*
X102627Y-105550D02*
X105536Y-103164D01*
X108200Y-100000D01*
X119700Y-88500D01*
X112470Y-76770D02*
Y-68501D01*
X126181Y-24800D02*
Y-18504D01*
Y-24800D02*
X128081Y-26700D01*
X18004Y-101181D02*
X22819D01*
X29189Y-94811D01*
X81002Y114960D02*
Y128698D01*
X86181Y-18504D02*
Y-14300D01*
X90181Y-10300D01*
X-121181Y18504D02*
Y25081D01*
X-124822Y28722D02*
X-121181Y25081D01*
X74574Y105500D02*
Y107300D01*
X109352Y91172D02*
Y99500D01*
X77829Y-48501D02*
Y-27129D01*
X126181Y5219D02*
Y18504D01*
X121181Y12500D02*
Y18504D01*
X118200Y-12481D02*
Y-4500D01*
X116181Y-14500D02*
X118200Y-12481D01*
X116181Y-18504D02*
Y-14500D01*
X115147Y88754D02*
X118500D01*
X111463Y89401D02*
X115147Y88754D01*
X109352Y91172D02*
X111463Y89401D01*
X-19004Y135000D02*
X-14100D01*
Y136500D01*
X-13400Y137200D01*
Y151500D01*
X74700Y114218D02*
Y122000D01*
Y114218D02*
X77788Y111130D01*
X1028Y-111409D02*
X10800Y-121181D01*
X18004D01*
X12000Y130000D02*
X18004D01*
X-136181Y-43100D02*
Y-18504D01*
X-23000Y140000D02*
X-19004D01*
X-25000Y142000D02*
X-23000Y140000D01*
X-25000Y135000D02*
X-19004D01*
X-131181Y-33319D02*
Y-18504D01*
X-115700Y-85532D02*
Y-48800D01*
Y-85532D02*
X-110060Y-91172D01*
X48862Y76658D02*
X50974Y74887D01*
X50600Y68200D02*
Y74513D01*
X79598Y-95437D02*
X80976Y-93050D01*
X79598Y-95437D02*
X79600D01*
Y-111400D02*
Y-95437D01*
X18004Y135000D02*
X24000D01*
X28500Y139500D01*
X-3000Y-131181D02*
X18004D01*
X-13000Y-141181D02*
X-3000Y-131181D01*
X-19004Y-141181D02*
X-13000D01*
X131181Y9300D02*
Y18504D01*
X141181Y-18504D02*
Y-700D01*
D52*
X129900Y-51071D02*
Y-48100D01*
D53*
X-28897Y66080D02*
D03*
X-46500Y-16500D02*
D03*
X139920Y-46603D02*
D03*
X17000Y-29000D02*
D03*
X76500Y-123000D02*
D03*
X48340Y-139000D02*
D03*
X22000Y-6000D02*
D03*
X34000Y5000D02*
D03*
X28000Y-28500D02*
D03*
X46500Y-16500D02*
D03*
X50500Y-29000D02*
D03*
X37999Y-42500D02*
D03*
X14500Y-53000D02*
D03*
X71500Y-5500D02*
D03*
X69500Y-16500D02*
D03*
X64299Y-33520D02*
D03*
X49271Y-52707D02*
D03*
X28897Y-66080D02*
D03*
X-34000Y-5000D02*
D03*
X5000Y-18500D02*
D03*
X-22000Y-6000D02*
D03*
X5000Y-31000D02*
D03*
X-17000Y-29000D02*
D03*
X-28000Y-28500D02*
D03*
X0Y-57000D02*
D03*
X-14500Y-53500D02*
D03*
X-38000Y-42500D02*
D03*
X-50500Y-29000D02*
D03*
X-5000Y-72000D02*
D03*
X-28897Y-66080D02*
D03*
X-49271Y-52707D02*
D03*
X-64299Y-33520D02*
D03*
X-69500Y-16500D02*
D03*
X-71500Y-5500D02*
D03*
X-139897Y54420D02*
D03*
X-143000Y42000D02*
D03*
X38000Y43000D02*
D03*
X64500Y33000D02*
D03*
X49271Y52352D02*
D03*
X28897Y66080D02*
D03*
X71500Y5500D02*
D03*
X69500Y16500D02*
D03*
X46500D02*
D03*
X50500Y29500D02*
D03*
X28000Y28500D02*
D03*
X14500Y53500D02*
D03*
X17000Y29000D02*
D03*
X22000Y6000D02*
D03*
X-1000Y57000D02*
D03*
X5000Y31000D02*
D03*
Y18500D02*
D03*
X0Y5000D02*
D03*
X-22000Y6000D02*
D03*
X-28000Y28500D02*
D03*
X5000Y72000D02*
D03*
X-17000Y29000D02*
D03*
X-46500Y17000D02*
D03*
X-50500Y29500D02*
D03*
X-37999Y43000D02*
D03*
X-14500Y53500D02*
D03*
X-71500Y5500D02*
D03*
X-69500Y16500D02*
D03*
X-64500Y33000D02*
D03*
X-49271Y52707D02*
D03*
D54*
X-19500Y69500D02*
D03*
X19500Y-69500D02*
D03*
D55*
X151000Y7000D02*
D03*
Y-6000D02*
D03*
X-10500Y-149500D02*
D03*
X9000Y-149000D02*
D03*
X-150000Y6000D02*
D03*
X-32000Y136500D02*
D03*
X-30500Y146000D02*
D03*
X28500Y139500D02*
D03*
X30000Y130000D02*
D03*
X-152000Y-3500D02*
D03*
X4500Y149000D02*
D03*
X-4000D02*
D03*
X-74000Y133500D02*
D03*
X-63500Y139500D02*
D03*
D56*
X-46500Y-6500D02*
D03*
X17000Y-19000D02*
D03*
X34000Y-5000D02*
D03*
X28000Y-18500D02*
D03*
X46500Y-6500D02*
D03*
X14500Y-43000D02*
D03*
X-34000Y5000D02*
D03*
X-17000Y-19000D02*
D03*
X-28000Y-18500D02*
D03*
X0Y-47000D02*
D03*
X-14500Y-43500D02*
D03*
X-17000Y19000D02*
D03*
X46500Y6500D02*
D03*
X28000Y18500D02*
D03*
X14500Y43500D02*
D03*
X17000Y19000D02*
D03*
X-1000Y47000D02*
D03*
X0Y-5000D02*
D03*
X-28000Y18500D02*
D03*
X-46500Y7000D02*
D03*
X-14500Y43500D02*
D03*
D57*
X136500Y-56000D02*
D03*
D58*
X85160Y-118000D02*
D03*
X57000Y-134000D02*
D03*
X29339Y-47500D02*
D03*
X-29339Y48000D02*
D03*
D59*
X12000Y-6000D02*
D03*
X40500Y-29000D02*
D03*
X61500Y-5500D02*
D03*
X59500Y-16500D02*
D03*
X-5000Y-18500D02*
D03*
X-12000Y-6000D02*
D03*
X-5000Y-31000D02*
D03*
X-40500Y-29000D02*
D03*
X5000Y-72000D02*
D03*
X-59500Y-16500D02*
D03*
X-61500Y-5500D02*
D03*
X61500Y5500D02*
D03*
X59500Y16500D02*
D03*
X40500Y29500D02*
D03*
X12000Y6000D02*
D03*
X-5000Y31000D02*
D03*
Y18500D02*
D03*
X-12000Y6000D02*
D03*
X-5000Y72000D02*
D03*
X-40500Y29500D02*
D03*
X-61500Y5500D02*
D03*
X-59500Y16500D02*
D03*
D60*
X59000Y-42000D02*
D03*
X-59201Y41480D02*
D03*
D61*
X41500Y-59000D02*
D03*
X-41500Y59000D02*
D03*
D62*
X-29340Y-47500D02*
D03*
X29340Y48000D02*
D03*
D63*
X-19500Y-69500D02*
D03*
X-130500Y51000D02*
D03*
X-133603Y38580D02*
D03*
X19500Y69500D02*
D03*
D64*
X-41500Y-59000D02*
D03*
X41500Y58646D02*
D03*
D65*
X-59000Y-42000D02*
D03*
X59201Y41480D02*
D03*
D66*
X3189Y136500D02*
D03*
X12000Y140000D02*
D03*
X-7200Y126835D02*
D03*
X-88000Y-25500D02*
D03*
X-70295Y-129195D02*
D03*
X-94600Y-98500D02*
D03*
X-96200Y-114960D02*
D03*
X12000Y-136200D02*
D03*
X-114700Y92000D02*
D03*
X11300Y58200D02*
D03*
X-1200Y90800D02*
D03*
X12100Y125800D02*
D03*
X94000Y44500D02*
D03*
X-42785Y-78400D02*
D03*
X12000Y-88200D02*
D03*
X69800Y-62029D02*
D03*
X-146350Y-17200D02*
D03*
X23900Y87000D02*
D03*
X66500Y50900D02*
D03*
X47200Y104300D02*
D03*
X24600D02*
D03*
X-26900Y41100D02*
D03*
X-18900Y78400D02*
D03*
X20200Y43400D02*
D03*
X48500Y87200D02*
D03*
X-39200Y83200D02*
D03*
X-47300Y106600D02*
D03*
X8200Y101100D02*
D03*
X11000Y117800D02*
D03*
X47900Y119900D02*
D03*
X78400Y92300D02*
D03*
X38151Y110000D02*
D03*
X69000Y80500D02*
D03*
X-108140Y36400D02*
D03*
X-70300Y60400D02*
D03*
X-77400Y61600D02*
D03*
X-40200Y-5700D02*
D03*
X-107000Y57400D02*
D03*
X-84500Y104000D02*
D03*
X-89600Y71500D02*
D03*
X-129181Y25500D02*
D03*
X-25000Y-136181D02*
D03*
X-132700Y-1716D02*
D03*
X-94174Y-27700D02*
D03*
X-138200Y12500D02*
D03*
X-80600Y101700D02*
D03*
X-111026Y99974D02*
D03*
X-118900Y84200D02*
D03*
X-90100Y-2400D02*
D03*
X-121181Y-28900D02*
D03*
X-26100Y1900D02*
D03*
X-88500Y-10700D02*
D03*
X-118200Y12500D02*
D03*
X-102600Y46775D02*
D03*
X-111181Y-10400D02*
D03*
X-96181Y-3281D02*
D03*
X-124300Y12600D02*
D03*
X-129700Y57200D02*
D03*
X-10700Y-16100D02*
D03*
X-66600Y-48100D02*
D03*
X-67600Y-79800D02*
D03*
X-76100Y-86100D02*
D03*
X-102500Y-70100D02*
D03*
X-13000Y-121200D02*
D03*
X-65800Y-41700D02*
D03*
X-72100Y-57100D02*
D03*
X-12500Y-107700D02*
D03*
X-84300Y-42900D02*
D03*
X-85900Y-49600D02*
D03*
X144000Y34900D02*
D03*
X101400Y3500D02*
D03*
X86900Y-6500D02*
D03*
X28000Y-34100D02*
D03*
X122200Y-11500D02*
D03*
X94800Y-26049D02*
D03*
X84400Y-31300D02*
D03*
X74572Y-54728D02*
D03*
X61700Y-92900D02*
D03*
X90900Y-48600D02*
D03*
X121200Y-28500D02*
D03*
X97100Y-11600D02*
D03*
X101181Y-26600D02*
D03*
X-25000Y-116200D02*
D03*
X-75800Y-36000D02*
D03*
X-37700Y-95100D02*
D03*
X-5000Y-99000D02*
D03*
X-59900Y-57100D02*
D03*
X-94300Y90236D02*
D03*
X-97400Y27700D02*
D03*
X-69700Y35700D02*
D03*
X-106181Y-29500D02*
D03*
X24200Y74200D02*
D03*
X53500Y108800D02*
D03*
X36800Y23700D02*
D03*
X54100Y70900D02*
D03*
X59300Y60006D02*
D03*
X26000Y115000D02*
D03*
Y-41200D02*
D03*
X45700Y-83500D02*
D03*
X-59000Y73500D02*
D03*
X43100Y-101900D02*
D03*
X23992Y-91181D02*
D03*
X-28800Y-76300D02*
D03*
X-34600Y-137500D02*
D03*
X134000Y-35200D02*
D03*
X60300Y-88600D02*
D03*
X-9000Y99000D02*
D03*
X33900Y92000D02*
D03*
X51100Y100000D02*
D03*
X-135200Y67900D02*
D03*
X69700Y-43400D02*
D03*
X-25000Y-88200D02*
D03*
X-114328Y25572D02*
D03*
X-10438Y90607D02*
D03*
X78200Y14445D02*
D03*
X94900Y12600D02*
D03*
X80200Y-82800D02*
D03*
X-33000Y-75600D02*
D03*
X-98300Y12500D02*
D03*
X-108900Y-2800D02*
D03*
X-116181Y-5989D02*
D03*
X-84800Y73700D02*
D03*
X-41500Y20000D02*
D03*
X-74100Y20100D02*
D03*
X33500Y78100D02*
D03*
X-41300Y98400D02*
D03*
X-74700Y107600D02*
D03*
X-25000Y90000D02*
D03*
X-20200Y-40500D02*
D03*
X-32700D02*
D03*
X-42400Y87100D02*
D03*
X-83600Y85600D02*
D03*
X85600Y99300D02*
D03*
X-13000Y-103100D02*
D03*
X-25000Y-97500D02*
D03*
X-9000Y-85200D02*
D03*
X6881Y-96181D02*
D03*
X-39700Y-69328D02*
D03*
X-101200Y24500D02*
D03*
X116100Y-85300D02*
D03*
X84317Y-35517D02*
D03*
X45200Y-39800D02*
D03*
X106600Y-57400D02*
D03*
X96600Y3700D02*
D03*
X81900Y5700D02*
D03*
X-92681Y25000D02*
D03*
X-13000Y-131181D02*
D03*
X-84488Y-90085D02*
D03*
X-86800Y46000D02*
D03*
X-96000Y111400D02*
D03*
X82000Y-25100D02*
D03*
X90100D02*
D03*
X114300Y-11900D02*
D03*
X113100Y-89200D02*
D03*
X98700Y45423D02*
D03*
X117300Y85100D02*
D03*
X137200Y-26700D02*
D03*
X1300Y-23200D02*
D03*
X81002Y128698D02*
D03*
X90181Y-10300D02*
D03*
X-138000Y26400D02*
D03*
X-141181Y-10500D02*
D03*
X77829Y-27129D02*
D03*
X123880Y2917D02*
D03*
X121181Y12500D02*
D03*
X118200Y-4500D02*
D03*
X2900Y-36600D02*
D03*
X12000Y130000D02*
D03*
X-25000Y142000D02*
D03*
Y135000D02*
D03*
D67*
X-1000Y-150000D02*
D03*
X33000Y-148000D02*
D03*
M02*
