G04*
G04 #@! TF.GenerationSoftware,Altium Limited,Altium Designer,23.1.1 (15)*
G04*
G04 Layer_Color=8388736*
%FSLAX44Y44*%
%MOMM*%
G71*
G04*
G04 #@! TF.SameCoordinates,EA72E859-7E5F-47E5-BE6D-6BCC4CF4D1DD*
G04*
G04*
G04 #@! TF.FilePolarity,Negative*
G04*
G01*
G75*
%ADD29R,1.0557X1.6582*%
%ADD30R,0.8300X0.6300*%
%ADD31R,0.6000X2.0000*%
G04:AMPARAMS|DCode=32|XSize=2mm|YSize=0.6mm|CornerRadius=0mm|HoleSize=0mm|Usage=FLASHONLY|Rotation=60.000|XOffset=0mm|YOffset=0mm|HoleType=Round|Shape=Rectangle|*
%AMROTATEDRECTD32*
4,1,4,-0.2402,-1.0160,-0.7598,-0.7160,0.2402,1.0160,0.7598,0.7160,-0.2402,-1.0160,0.0*
%
%ADD32ROTATEDRECTD32*%

%ADD33R,2.0000X0.6000*%
G04:AMPARAMS|DCode=34|XSize=2mm|YSize=0.6mm|CornerRadius=0mm|HoleSize=0mm|Usage=FLASHONLY|Rotation=320.000|XOffset=0mm|YOffset=0mm|HoleType=Round|Shape=Rectangle|*
%AMROTATEDRECTD34*
4,1,4,-0.9589,0.4130,-0.5732,0.8726,0.9589,-0.4130,0.5732,-0.8726,-0.9589,0.4130,0.0*
%
%ADD34ROTATEDRECTD34*%

%ADD35C,1.7532*%
%ADD36P,2.4794X4X245.0*%
%ADD37C,1.7272*%
%ADD38R,1.7532X1.7532*%
%ADD39P,2.4794X4X115.0*%
%ADD40P,2.4794X4X255.0*%
%ADD41R,1.7532X1.7532*%
%ADD42P,2.4794X4X103.0*%
%ADD43P,2.4794X4X84.0*%
%ADD44P,2.4794X4X195.0*%
%ADD45P,2.4794X4X205.0*%
%ADD46P,2.4794X4X186.0*%
%ADD47P,2.4794X4X167.0*%
%ADD48C,1.0032*%
D29*
X-153670Y295910D02*
D03*
X-179195D02*
D03*
X-152525Y328930D02*
D03*
X-127000D02*
D03*
D30*
X-128270Y304800D02*
D03*
Y282500D02*
D03*
D31*
X-218900Y47000D02*
D03*
X-231600D02*
D03*
X-244300D02*
D03*
X-257000D02*
D03*
X-269700D02*
D03*
X-282400D02*
D03*
X-295100D02*
D03*
X-320500D02*
D03*
X-333200D02*
D03*
X-345900D02*
D03*
X-358600D02*
D03*
Y-47000D02*
D03*
X-345900D02*
D03*
X-333200D02*
D03*
X-320500D02*
D03*
X-295100D02*
D03*
X-282400D02*
D03*
X-269700D02*
D03*
X-257000D02*
D03*
X-244300D02*
D03*
X-231600D02*
D03*
X-307800D02*
D03*
Y47000D02*
D03*
X-218900Y-47000D02*
D03*
X358600D02*
D03*
X333200Y47000D02*
D03*
X218900D02*
D03*
X320500D02*
D03*
X269700D02*
D03*
X257000D02*
D03*
X307800D02*
D03*
X282400Y-47000D02*
D03*
X257000D02*
D03*
X244300Y47000D02*
D03*
X295100D02*
D03*
X269700Y-47000D02*
D03*
X244300D02*
D03*
X231600D02*
D03*
Y47000D02*
D03*
X282400D02*
D03*
X320500Y-47000D02*
D03*
X307800D02*
D03*
X295100D02*
D03*
X218900D02*
D03*
X333200D02*
D03*
X345900D02*
D03*
X358600Y47000D02*
D03*
X345900D02*
D03*
D32*
X260672Y-268098D02*
D03*
X285675Y-173992D02*
D03*
X186688Y-116841D02*
D03*
X-186688Y116842D02*
D03*
X274677Y-167642D02*
D03*
X230682Y-142241D02*
D03*
X219684Y-135892D02*
D03*
X263678Y-161292D02*
D03*
X194681Y-229998D02*
D03*
X172684Y-217298D02*
D03*
X208685Y-129542D02*
D03*
X252679Y-154942D02*
D03*
X183682Y-223648D02*
D03*
X161685Y-210948D02*
D03*
X150687Y-204599D02*
D03*
X197687Y-123191D02*
D03*
X241681Y-148592D02*
D03*
X227677Y-249048D02*
D03*
X216678Y-242698D02*
D03*
X205679Y-236348D02*
D03*
X139688Y-198248D02*
D03*
X238675Y-255398D02*
D03*
X249673Y-261749D02*
D03*
X307672Y-186691D02*
D03*
X296674Y-180341D02*
D03*
X-216678Y242698D02*
D03*
X-197687Y123191D02*
D03*
X-263678Y161292D02*
D03*
X-139688Y198248D02*
D03*
X-150687Y204599D02*
D03*
X-161685Y210948D02*
D03*
X-172683Y217298D02*
D03*
X-183682Y223648D02*
D03*
X-194681Y229998D02*
D03*
X-205679Y236348D02*
D03*
X-227677Y249049D02*
D03*
X-238675Y255398D02*
D03*
X-249673Y261749D02*
D03*
X-260672Y268099D02*
D03*
X-307672Y186692D02*
D03*
X-296674Y180341D02*
D03*
X-285675Y173992D02*
D03*
X-274676Y167642D02*
D03*
X-252679Y154942D02*
D03*
X-241681Y148592D02*
D03*
X-230682Y142241D02*
D03*
X-219684Y135892D02*
D03*
X-208685Y129542D02*
D03*
D33*
X45730Y-218900D02*
D03*
X-48270D02*
D03*
Y-231600D02*
D03*
Y-244300D02*
D03*
Y-257000D02*
D03*
Y-269700D02*
D03*
Y-282400D02*
D03*
Y-295100D02*
D03*
Y-307800D02*
D03*
Y-320500D02*
D03*
Y-333200D02*
D03*
Y-345900D02*
D03*
Y-358600D02*
D03*
X45730D02*
D03*
Y-345900D02*
D03*
Y-333200D02*
D03*
Y-320500D02*
D03*
Y-307800D02*
D03*
Y-295100D02*
D03*
Y-282400D02*
D03*
Y-269700D02*
D03*
Y-257000D02*
D03*
Y-244300D02*
D03*
Y-231600D02*
D03*
X-48270Y254000D02*
D03*
Y304800D02*
D03*
X45730Y266700D02*
D03*
Y292100D02*
D03*
Y228600D02*
D03*
Y241300D02*
D03*
Y254000D02*
D03*
Y304800D02*
D03*
Y317500D02*
D03*
X-48270D02*
D03*
Y292100D02*
D03*
Y279400D02*
D03*
Y266700D02*
D03*
Y241300D02*
D03*
Y228600D02*
D03*
X45730Y279400D02*
D03*
Y215900D02*
D03*
Y330200D02*
D03*
Y342900D02*
D03*
Y355600D02*
D03*
X-48270D02*
D03*
Y342900D02*
D03*
Y330200D02*
D03*
Y215900D02*
D03*
D34*
X-117747Y-184983D02*
D03*
X-189755Y-124561D02*
D03*
X-197919Y-134289D02*
D03*
X-206082Y-144018D02*
D03*
X-214245Y-153747D02*
D03*
X-222409Y-163476D02*
D03*
X-230572Y-173205D02*
D03*
X-238736Y-182934D02*
D03*
X-246899Y-192662D02*
D03*
X-255063Y-202391D02*
D03*
X-263226Y-212120D02*
D03*
X-271389Y-221848D02*
D03*
X-279553Y-231577D02*
D03*
X-207544Y-291999D02*
D03*
X-199381Y-282271D02*
D03*
X-191218Y-272542D02*
D03*
X-183054Y-262813D02*
D03*
X-174891Y-253084D02*
D03*
X-166728Y-243355D02*
D03*
X-158564Y-233627D02*
D03*
X-150400Y-223898D02*
D03*
X-142238Y-214169D02*
D03*
X-134074Y-204440D02*
D03*
X-125910Y-194712D02*
D03*
X115947Y184983D02*
D03*
X189418Y272542D02*
D03*
X197581Y282271D02*
D03*
X205745Y291999D02*
D03*
X277753Y231577D02*
D03*
X269590Y221849D02*
D03*
X261426Y212120D02*
D03*
X187955Y124561D02*
D03*
X228772Y173205D02*
D03*
X220609Y163476D02*
D03*
X140438Y214169D02*
D03*
X124110Y194712D02*
D03*
X132274Y204440D02*
D03*
X148601Y223898D02*
D03*
X156764Y233627D02*
D03*
X164928Y243355D02*
D03*
X253262Y202391D02*
D03*
X245099Y192662D02*
D03*
X212446Y153747D02*
D03*
X204282Y144018D02*
D03*
X196119Y134290D02*
D03*
X236936Y182933D02*
D03*
X173091Y253084D02*
D03*
X181254Y262813D02*
D03*
D35*
X-73398Y167843D02*
D03*
X-118110Y-41910D02*
D03*
X355397Y-118372D02*
D03*
X43180Y-73660D02*
D03*
X194310Y-312420D02*
D03*
X122783Y-353060D02*
D03*
X55880Y-15240D02*
D03*
X86360Y12700D02*
D03*
X71120Y-72390D02*
D03*
X118110Y-41910D02*
D03*
X128270Y-73660D02*
D03*
X96517Y-107950D02*
D03*
X36830Y-134620D02*
D03*
X181610Y-13970D02*
D03*
X176530Y-41910D02*
D03*
X163320Y-85140D02*
D03*
X125149Y-133875D02*
D03*
X73398Y-167843D02*
D03*
X-86360Y-12700D02*
D03*
X12700Y-46990D02*
D03*
X-55880Y-15240D02*
D03*
X12700Y-78740D02*
D03*
X-43180Y-73660D02*
D03*
X-71120Y-72390D02*
D03*
X0Y-144780D02*
D03*
X-36830Y-135890D02*
D03*
X-96520Y-107950D02*
D03*
X-128270Y-73660D02*
D03*
X-12700Y-182880D02*
D03*
X-73398Y-167843D02*
D03*
X-125149Y-133875D02*
D03*
X-163320Y-85140D02*
D03*
X-176530Y-41910D02*
D03*
X-181610Y-13970D02*
D03*
X-355338Y138227D02*
D03*
X-363220Y106680D02*
D03*
X96520Y109220D02*
D03*
X163830Y83820D02*
D03*
X125149Y132975D02*
D03*
X73398Y167843D02*
D03*
X181610Y13970D02*
D03*
X176530Y41910D02*
D03*
X118110D02*
D03*
X128270Y74930D02*
D03*
X71120Y72390D02*
D03*
X36830Y135890D02*
D03*
X43180Y73660D02*
D03*
X55880Y15240D02*
D03*
X-2540Y144780D02*
D03*
X12700Y78740D02*
D03*
Y46990D02*
D03*
X0Y12700D02*
D03*
X-55880Y15240D02*
D03*
X-71120Y72390D02*
D03*
X12700Y182880D02*
D03*
X-43180Y73660D02*
D03*
X-118110Y43180D02*
D03*
X-128270Y74930D02*
D03*
X-96517Y109220D02*
D03*
X-36830Y135890D02*
D03*
X-181610Y13970D02*
D03*
X-176530Y41910D02*
D03*
X-163830Y83820D02*
D03*
X-125149Y133875D02*
D03*
D36*
X-49530Y176530D02*
D03*
X49530Y-176530D02*
D03*
D37*
X383540Y17780D02*
D03*
Y-15240D02*
D03*
X-21590Y-382270D02*
D03*
X16510D02*
D03*
X-386080Y16510D02*
D03*
X-81280Y346710D02*
D03*
X-77470Y370840D02*
D03*
X72390Y354330D02*
D03*
X76200Y330200D02*
D03*
X-386080Y-8890D02*
D03*
X11430Y388620D02*
D03*
X-10160D02*
D03*
X-187960Y339090D02*
D03*
X-161290Y354330D02*
D03*
D38*
X-118110Y-16510D02*
D03*
X43180Y-48260D02*
D03*
X86360Y-12700D02*
D03*
X71120Y-46990D02*
D03*
X118110Y-16510D02*
D03*
X36830Y-109220D02*
D03*
X-86360Y12700D02*
D03*
X-43180Y-48260D02*
D03*
X-71120Y-46990D02*
D03*
X0Y-119380D02*
D03*
X-36830Y-110490D02*
D03*
X-43180Y48260D02*
D03*
X118110Y16510D02*
D03*
X71120Y46990D02*
D03*
X36830Y110490D02*
D03*
X43180Y48260D02*
D03*
X-2540Y119380D02*
D03*
X0Y-12700D02*
D03*
X-71120Y46990D02*
D03*
X-118110Y17780D02*
D03*
X-36830Y110490D02*
D03*
D39*
X346710Y-142240D02*
D03*
D40*
X216307Y-299720D02*
D03*
X144780Y-340360D02*
D03*
X74520Y-120650D02*
D03*
X-74520Y121920D02*
D03*
D41*
X30480Y-15240D02*
D03*
X102870Y-73660D02*
D03*
X156210Y-13970D02*
D03*
X151130Y-41910D02*
D03*
X-12700Y-46990D02*
D03*
X-30480Y-15240D02*
D03*
X-12700Y-78740D02*
D03*
X-102870Y-73660D02*
D03*
X12700Y-182880D02*
D03*
X-151130Y-41910D02*
D03*
X-156210Y-13970D02*
D03*
X156210Y13970D02*
D03*
X151130Y41910D02*
D03*
X102870Y74930D02*
D03*
X30480Y15240D02*
D03*
X-12700Y78740D02*
D03*
Y46990D02*
D03*
X-30480Y15240D02*
D03*
X-12700Y182880D02*
D03*
X-102870Y74930D02*
D03*
X-156210Y13970D02*
D03*
X-151130Y41910D02*
D03*
D42*
X149860Y-106680D02*
D03*
X-150370Y105360D02*
D03*
D43*
X105410Y-149860D02*
D03*
X-105410Y149860D02*
D03*
D44*
X-74523Y-120650D02*
D03*
X74523Y121920D02*
D03*
D45*
X-49530Y-176530D02*
D03*
X-331470Y129540D02*
D03*
X-339352Y97993D02*
D03*
X49530Y176530D02*
D03*
D46*
X-105410Y-149860D02*
D03*
X105410Y148960D02*
D03*
D47*
X-149860Y-106680D02*
D03*
X150370Y105360D02*
D03*
D48*
X-71120Y233680D02*
D03*
X-231140Y-29210D02*
D03*
X-30480Y215900D02*
D03*
X-321310Y29210D02*
D03*
X-295910D02*
D03*
X-269240D02*
D03*
X-243840Y27940D02*
D03*
X-221055Y-65965D02*
D03*
X-245110Y-66040D02*
D03*
X-257810Y-29210D02*
D03*
X-269240Y-64770D02*
D03*
X-281940Y-29210D02*
D03*
X-294640Y-64770D02*
D03*
X-307797Y-24384D02*
D03*
X-346710Y66040D02*
D03*
X-345440Y27940D02*
D03*
X-260350Y-237490D02*
D03*
X26670Y304800D02*
D03*
X27940Y279400D02*
D03*
Y254000D02*
D03*
X-66040D02*
D03*
X63500Y340360D02*
D03*
X-30480Y-307340D02*
D03*
Y-335280D02*
D03*
X-100330Y-48260D02*
D03*
X248920Y-27940D02*
D03*
X274320Y-279400D02*
D03*
X257810Y-288290D02*
D03*
X26670Y-223520D02*
D03*
X27940Y-246380D02*
D03*
X26670Y-269240D02*
D03*
X-29210Y-259080D02*
D03*
X-101600Y-182880D02*
D03*
X97790Y185420D02*
D03*
X63499Y309852D02*
D03*
X189260Y213868D02*
D03*
Y240105D02*
D03*
X97790Y240030D02*
D03*
X64676Y217264D02*
D03*
X128143Y164592D02*
D03*
X-195580Y204470D02*
D03*
X-139700Y176530D02*
D03*
X-224790Y115570D02*
D03*
X-242600Y128270D02*
D03*
X-313690Y146050D02*
D03*
X-297180Y205740D02*
D03*
X24130Y327660D02*
D03*
X294640Y26670D02*
D03*
X307340Y27940D02*
D03*
X282764Y-6985D02*
D03*
X257810Y29210D02*
D03*
Y-64770D02*
D03*
X233680Y-66040D02*
D03*
X290830Y-29210D02*
D03*
X198120Y-208280D02*
D03*
X142240Y-180340D02*
D03*
X64770Y-256540D02*
D03*
X63500Y-231140D02*
D03*
Y-283210D02*
D03*
X64770Y-331470D02*
D03*
X27940Y-341630D02*
D03*
X-66040Y-346710D02*
D03*
Y-294640D02*
D03*
Y-270510D02*
D03*
X-30480Y-232410D02*
D03*
X-66040Y270510D02*
D03*
X-30480Y342900D02*
D03*
X63500Y292100D02*
D03*
X-63500Y-379730D02*
D03*
X58420Y-378460D02*
D03*
X333200Y108760D02*
D03*
X292608Y149352D02*
D03*
X169164Y138272D02*
D03*
X-27940Y266700D02*
D03*
X161846Y210652D02*
D03*
X120396Y108966D02*
D03*
X-27940Y241300D02*
D03*
X-246888Y-228458D02*
D03*
X-230378Y271272D02*
D03*
X-233426Y290068D02*
D03*
X-282448Y72438D02*
D03*
X-255016Y207518D02*
D03*
X-201930Y274066D02*
D03*
X-181102Y-195580D02*
D03*
X-107696Y-212598D02*
D03*
X-134874Y-168148D02*
D03*
X-260350Y-100838D02*
D03*
X-153035Y-257048D02*
D03*
X-69596Y-187960D02*
D03*
X202767Y-101929D02*
D03*
X252679Y-121053D02*
D03*
X161362Y-233752D02*
D03*
X320500Y-83475D02*
D03*
X284988Y-76914D02*
D03*
X226245Y-20849D02*
D03*
X-212852Y152400D02*
D03*
X237490Y-113284D02*
D03*
X342138Y-27940D02*
D03*
X157988Y-136144D02*
D03*
X-253492Y120396D02*
D03*
X120650Y219710D02*
D03*
X165354Y112776D02*
D03*
X101854Y227076D02*
D03*
X-245364Y284226D02*
D03*
X266954Y-208534D02*
D03*
X-307800Y76962D02*
D03*
X244300Y27940D02*
D03*
X-333200Y67310D02*
D03*
X170180Y-178054D02*
D03*
X231600Y24384D02*
D03*
X-68580Y-249380D02*
D03*
X-202184Y89662D02*
D03*
X-72898Y218948D02*
D03*
X-320500Y-69596D02*
D03*
X-257000Y80010D02*
D03*
X-212598Y104140D02*
D03*
X-333200Y2286D02*
D03*
X-317246Y-116332D02*
D03*
X148336Y292608D02*
D03*
X135890Y310134D02*
D03*
X-296672Y-197642D02*
D03*
X136906Y251714D02*
D03*
X-71374Y292100D02*
D03*
X-231600Y80518D02*
D03*
X320500Y14176D02*
D03*
X-1270Y-358600D02*
D03*
X-218900Y16510D02*
D03*
X269700Y-73406D02*
D03*
M02*
